<svg viewBox="0 0 1369.5 400" xmlns="http://www.w3.org/2000/svg"><g><g><g><g><g><line x1="51.5625" y1="377" x2="46.5625" y2="377" style="visibility: inherit;" fill="rgb(0, 0, 0)" stroke="rgb(204, 204, 204)" stroke-width="1px"></line><line x1="51.5625" y1="342.7272727272727" x2="46.5625" y2="342.7272727272727" style="visibility: inherit;" fill="rgb(0, 0, 0)" stroke="rgb(204, 204, 204)" stroke-width="1px"></line><line x1="51.5625" y1="308.45454545454544" x2="46.5625" y2="308.45454545454544" style="visibility: inherit;" fill="rgb(0, 0, 0)" stroke="rgb(204, 204, 204)" stroke-width="1px"></line><line x1="51.5625" y1="274.1818181818182" x2="46.5625" y2="274.1818181818182" style="visibility: inherit;" fill="rgb(0, 0, 0)" stroke="rgb(204, 204, 204)" stroke-width="1px"></line><line x1="51.5625" y1="239.9090909090909" x2="46.5625" y2="239.9090909090909" style="visibility: inherit;" fill="rgb(0, 0, 0)" stroke="rgb(204, 204, 204)" stroke-width="1px"></line><line x1="51.5625" y1="205.63636363636363" x2="46.5625" y2="205.63636363636363" style="visibility: inherit;" fill="rgb(0, 0, 0)" stroke="rgb(204, 204, 204)" stroke-width="1px"></line><line x1="51.5625" y1="171.36363636363637" x2="46.5625" y2="171.36363636363637" style="visibility: inherit;" fill="rgb(0, 0, 0)" stroke="rgb(204, 204, 204)" stroke-width="1px"></line><line x1="51.5625" y1="137.09090909090915" x2="46.5625" y2="137.09090909090915" style="visibility: inherit;" fill="rgb(0, 0, 0)" stroke="rgb(204, 204, 204)" stroke-width="1px"></line><line x1="51.5625" y1="102.81818181818181" x2="46.5625" y2="102.81818181818181" style="visibility: inherit;" fill="rgb(0, 0, 0)" stroke="rgb(204, 204, 204)" stroke-width="1px"></line><line x1="51.5625" y1="68.54545454545458" x2="46.5625" y2="68.54545454545458" style="visibility: inherit;" fill="rgb(0, 0, 0)" stroke="rgb(204, 204, 204)" stroke-width="1px"></line><line x1="51.5625" y1="34.27272727272729" x2="46.5625" y2="34.27272727272729" style="visibility: inherit;" fill="rgb(0, 0, 0)" stroke="rgb(204, 204, 204)" stroke-width="1px"></line><line x1="51.5625" y1="0" x2="46.5625" y2="0" style="visibility: inherit;" fill="rgb(0, 0, 0)" stroke="rgb(204, 204, 204)" stroke-width="1px"></line></g><g transform="translate(41.5625, 0)"><text x="0" y="377" dx="0em" dy="0.3em" style="text-anchor: end; visibility: hidden; font-family: Roboto, sans-serif; font-size: 12px; font-weight: 200;" fill="rgb(33, 33, 33)" stroke="none" stroke-width="1px">0</text><text x="0" y="342.7272727272727" dx="0em" dy="0.3em" style="text-anchor: end; visibility: inherit; font-family: Roboto, sans-serif; font-size: 12px; font-weight: 200;" fill="rgb(33, 33, 33)" stroke="none" stroke-width="1px">0.05</text><text x="0" y="308.45454545454544" dx="0em" dy="0.3em" style="text-anchor: end; visibility: inherit; font-family: Roboto, sans-serif; font-size: 12px; font-weight: 200;" fill="rgb(33, 33, 33)" stroke="none" stroke-width="1px">0.1</text><text x="0" y="274.1818181818182" dx="0em" dy="0.3em" style="text-anchor: end; visibility: inherit; font-family: Roboto, sans-serif; font-size: 12px; font-weight: 200;" fill="rgb(33, 33, 33)" stroke="none" stroke-width="1px">0.15</text><text x="0" y="239.9090909090909" dx="0em" dy="0.3em" style="text-anchor: end; visibility: inherit; font-family: Roboto, sans-serif; font-size: 12px; font-weight: 200;" fill="rgb(33, 33, 33)" stroke="none" stroke-width="1px">0.2</text><text x="0" y="205.63636363636363" dx="0em" dy="0.3em" style="text-anchor: end; visibility: inherit; font-family: Roboto, sans-serif; font-size: 12px; font-weight: 200;" fill="rgb(33, 33, 33)" stroke="none" stroke-width="1px">0.25</text><text x="0" y="171.36363636363637" dx="0em" dy="0.3em" style="text-anchor: end; visibility: inherit; font-family: Roboto, sans-serif; font-size: 12px; font-weight: 200;" fill="rgb(33, 33, 33)" stroke="none" stroke-width="1px">0.3</text><text x="0" y="137.09090909090915" dx="0em" dy="0.3em" style="text-anchor: end; visibility: inherit; font-family: Roboto, sans-serif; font-size: 12px; font-weight: 200;" fill="rgb(33, 33, 33)" stroke="none" stroke-width="1px">0.35</text><text x="0" y="102.81818181818181" dx="0em" dy="0.3em" style="text-anchor: end; visibility: inherit; font-family: Roboto, sans-serif; font-size: 12px; font-weight: 200;" fill="rgb(33, 33, 33)" stroke="none" stroke-width="1px">0.4</text><text x="0" y="68.54545454545458" dx="0em" dy="0.3em" style="text-anchor: end; visibility: inherit; font-family: Roboto, sans-serif; font-size: 12px; font-weight: 200;" fill="rgb(33, 33, 33)" stroke="none" stroke-width="1px">0.45</text><text x="0" y="34.27272727272729" dx="0em" dy="0.3em" style="text-anchor: end; visibility: inherit; font-family: Roboto, sans-serif; font-size: 12px; font-weight: 200;" fill="rgb(33, 33, 33)" stroke="none" stroke-width="1px">0.5</text><text x="0" y="0" dx="0em" dy="0.3em" style="text-anchor: end; visibility: hidden; font-family: Roboto, sans-serif; font-size: 12px; font-weight: 200;" fill="rgb(33, 33, 33)" stroke="none" stroke-width="1px">0.55</text></g><line x1="51.5625" y1="0" x2="51.5625" y2="377" fill="rgb(0, 0, 0)" stroke="rgb(204, 204, 204)" stroke-width="1px"></line></g></g><g transform="translate(51, 0)" clip-path="url(#clip_0)"><clipPath id="clip_0"><rect width="1317" height="377"></rect></clipPath><g><g><g><line x1="0" y1="0" x2="0" y2="377" fill="rgb(0, 0, 0)" stroke="rgb(66, 66, 66)" stroke-width="1px" opacity="0.25"></line><line x1="146.4375" y1="0" x2="146.4375" y2="377" fill="rgb(0, 0, 0)" stroke="rgb(66, 66, 66)" stroke-width="1px" opacity="0.25"></line><line x1="292.875" y1="0" x2="292.875" y2="377" fill="rgb(0, 0, 0)" stroke="rgb(66, 66, 66)" stroke-width="1px" opacity="0.25"></line><line x1="439.3125" y1="0" x2="439.3125" y2="377" fill="rgb(0, 0, 0)" stroke="rgb(66, 66, 66)" stroke-width="1px" opacity="0.25"></line><line x1="585.75" y1="0" x2="585.75" y2="377" fill="rgb(0, 0, 0)" stroke="rgb(66, 66, 66)" stroke-width="1px" opacity="0.25"></line><line x1="732.1875" y1="0" x2="732.1875" y2="377" fill="rgb(0, 0, 0)" stroke="rgb(66, 66, 66)" stroke-width="1px" opacity="0.25"></line><line x1="878.625" y1="0" x2="878.625" y2="377" fill="rgb(0, 0, 0)" stroke="rgb(66, 66, 66)" stroke-width="1px" opacity="0.25"></line><line x1="1025.0625" y1="0" x2="1025.0625" y2="377" fill="rgb(0, 0, 0)" stroke="rgb(66, 66, 66)" stroke-width="1px" opacity="0.25"></line><line x1="1171.5" y1="0" x2="1171.5" y2="377" fill="rgb(0, 0, 0)" stroke="rgb(66, 66, 66)" stroke-width="1px" opacity="0.25"></line><line x1="1317.9375" y1="0" x2="1317.9375" y2="377" fill="rgb(0, 0, 0)" stroke="rgb(66, 66, 66)" stroke-width="1px" opacity="0.25"></line></g><g><line x1="0" y1="377" x2="1317.9375" y2="377" fill="rgb(0, 0, 0)" stroke="rgb(66, 66, 66)" stroke-width="1px" opacity="0.25"></line><line x1="0" y1="342.7272727272727" x2="1317.9375" y2="342.7272727272727" fill="rgb(0, 0, 0)" stroke="rgb(66, 66, 66)" stroke-width="1px" opacity="0.25"></line><line x1="0" y1="308.45454545454544" x2="1317.9375" y2="308.45454545454544" fill="rgb(0, 0, 0)" stroke="rgb(66, 66, 66)" stroke-width="1px" opacity="0.25"></line><line x1="0" y1="274.1818181818182" x2="1317.9375" y2="274.1818181818182" fill="rgb(0, 0, 0)" stroke="rgb(66, 66, 66)" stroke-width="1px" opacity="0.25"></line><line x1="0" y1="239.9090909090909" x2="1317.9375" y2="239.9090909090909" fill="rgb(0, 0, 0)" stroke="rgb(66, 66, 66)" stroke-width="1px" opacity="0.25"></line><line x1="0" y1="205.63636363636363" x2="1317.9375" y2="205.63636363636363" fill="rgb(0, 0, 0)" stroke="rgb(66, 66, 66)" stroke-width="1px" opacity="0.25"></line><line x1="0" y1="171.36363636363637" x2="1317.9375" y2="171.36363636363637" fill="rgb(0, 0, 0)" stroke="rgb(66, 66, 66)" stroke-width="1px" opacity="0.25"></line><line x1="0" y1="137.09090909090915" x2="1317.9375" y2="137.09090909090915" fill="rgb(0, 0, 0)" stroke="rgb(66, 66, 66)" stroke-width="1px" opacity="0.25"></line><line x1="0" y1="102.81818181818181" x2="1317.9375" y2="102.81818181818181" fill="rgb(0, 0, 0)" stroke="rgb(66, 66, 66)" stroke-width="1px" opacity="0.25"></line><line x1="0" y1="68.54545454545458" x2="1317.9375" y2="68.54545454545458" fill="rgb(0, 0, 0)" stroke="rgb(66, 66, 66)" stroke-width="1px" opacity="0.25"></line><line x1="0" y1="34.27272727272729" x2="1317.9375" y2="34.27272727272729" fill="rgb(0, 0, 0)" stroke="rgb(66, 66, 66)" stroke-width="1px" opacity="0.25"></line><line x1="0" y1="0" x2="1317.9375" y2="0" fill="rgb(0, 0, 0)" stroke="rgb(66, 66, 66)" stroke-width="1px" opacity="0.25"></line></g></g></g><g><g><line x1="0" y1="377" x2="1317.9375" y2="377" fill="rgb(0, 0, 0)" stroke="rgb(153, 153, 153)" stroke-width="1.5px"></line></g></g><g><g><line x1="146.4375" y1="0" x2="146.4375" y2="377" fill="rgb(0, 0, 0)" stroke="rgb(153, 153, 153)" stroke-width="1.5px"></line></g></g><g><g><g><g><g><path stroke="rgb(255, 112, 67)" stroke-width="2px" d="M184.43803125000002,-4.538393413139948L184.804125,7.510673127927005L185.31665625,-25.928696906867778L187.44,-22.79982883726538L188.09896875,14.507693179237355L190.075875,37.58677938258805L190.22231250000002,34.8803798783885L190.58840625,23.513348238881637L191.32059375,22.855775333974414L193.73681249999998,29.57146541858804L194.68865625,16.417449403636912L194.761875,13.651260238128335L194.98153125,29.972858992363594L195.347625,38.14033501363995L196.812,13.023535842767876L199.52109374999998,-7.890968384273384L200.54615625,20.047295732915277L202.74271875,56.098011209775976L202.88915624999998,80.36420951629722L205.08571875,103.18581899827791L205.52503124999998,116.17355635875583L206.76975,111.2867154046915L207.64837500000002,101.75092127006222L207.7948125,102.25902161538099L208.527,94.99128570607259L208.89309375,102.45735085170958L209.2591875,99.14001116198648L210.50390624999997,66.2062007012505L211.45575,105.24204042200583L213.28621875,99.90323544691243L214.60415625,98.69063358992483L218.6311875,115.38127903742772L219.07049999999998,108.3344046737037L220.90096874999998,137.82497990087003L222.21890624999997,137.2005317837047L222.80465625,130.1938272678338L227.78353125,136.0729533845636L228.73537499999998,122.27330747170335L228.80859375,114.17158791160254L230.492625,121.98417258484385L230.71228125,91.34063883394295L231.44446875,141.28165762504298L231.73734375,140.6417282807198L233.34815625,155.56293973630687L233.49459375,167.45379657656832L233.64103125,166.1907119806353L234.007125,164.47193798484145L236.13046875,148.08103493976546L236.71621875,151.62367908597395L238.03415625,160.5485504653478L239.20565625,156.06531503227987L240.52359375,168.47687430528296L244.47740625,176.57123474035612L244.77028125,174.1315413568743L246.893625,160.76696255205766L247.99190625,172.74661814645512L248.43121875,183.47801511842087L249.16340625,190.52379777590733L249.6759375,184.2028718017249L250.5545625,182.66861411576812L250.92065625,195.59538271595068L252.23859375,193.74022996439678L253.336875,210.59089871111544L253.41009375,176.4868927969138L255.09412500000002,200.28702101658476L255.31378124999998,128.13887239860273L255.75309375,161.31015207715174L256.851375,149.27658727917927L256.92459375,154.47407573499055L257.21746874999997,176.2235857131348L261.2445,176.7071354644132L261.537375,133.7928988046156L262.92853125,147.65080537239947L263.880375,169.03360854075314L263.95359375,151.56063275085017L264.0268125,172.17539337006883L264.53934375,177.03949138359832L265.34475,146.81014324383446L268.34671875,172.9190300403517L268.49315625,168.0602533832642L270.10396875000004,179.0985900281233L271.788,201.80531007648594L275.1560625,210.54845133511148L276.54721875,204.22137546429155L278.9634375,177.74558306541243L280.20815625,166.35567878423396L280.35459375,182.09354100992516L282.1850625,210.9121913639375L284.01553125,217.3630434112351L284.30840625,227.32749680498844L285.18703124999996,208.8360589558513L285.33346875,238.2778849859722L285.553125,243.16810600354762L286.21209375,227.9584736414061L286.50496875,237.65860781593955L287.310375,231.79691109265104L288.70153125,211.5424337458921L289.2140625,203.99154481018368L291.19096875,236.96991112664216L291.33740625,229.34451963857282L291.996375,200.6745786547174L293.167875,217.9609317274235L293.24109375,222.00500137375033L294.26615625,201.20150915190771L299.24503125,166.56682300213097L300.85584375,197.36073355895516L301.2219375,205.28883957821918L301.44159375,208.61476119623765L306.85978125,191.01473781570957L308.03128125,199.4582968040796L308.47059375,175.25196955815994L308.69025,191.07448174540366L310.3010625,208.62047071989332L311.326125,188.7602823653522L313.30303125,200.13573505263835L314.4013125,229.06237597010053L315.13349999999997,246.2763400241227L315.2799375,238.6866231171077L315.5728125,216.8743793871492L318.355125,245.5455982390934L319.01409375,229.94446297961383L319.8195,214.25169660462956L320.2588125,239.9944463751285L320.47846875,249.69565907390148L323.99296875,235.1321739283386L324.5055,249.99666284647319L324.57871875,220.77410352793285L325.45734375,218.67706540835795L325.5305625,216.16104943521555L326.33596875,242.83011464674104L332.04703125000003,232.2394956352424L332.12025,236.57976074664825L332.706,221.30118966543643L336.2205,233.54539469853515L337.68487500000003,247.2747791158775L339.442125,233.8674213920063L341.6386875,261.22227226373434L342.370875,245.93849266087238L343.02984375,237.5068818318125L343.32271875000004,247.7619502081657L343.3959375,270.1385378527426L343.76203124999995,271.5943966094235L343.9816875,255.18599774847988L345.07996875,254.58995286904477L345.1531875,248.85237986126256L346.69078125,266.69044570222L354.30553125,263.6152399372185L354.45196875,235.67060933060196L355.25737499999997,242.4115631304081L355.47703125,251.1625412883588L355.6966875,243.9806373358017L359.06475,261.6203396246797L359.87015625,257.7266869479181L361.62740625000004,254.63047057754005L362.06671874999995,260.29313889526685L362.79890625,256.1605566681607L362.872125,290.47159139488514L362.94534375,284.99409989547627L366.89915625000003,281.19389454036997L367.7045625,282.32272900376023L368.50996875,259.584126081015L368.729625,259.7418625541924L369.09571875,238.52591650091728L369.38859375000004,206.26947642913424L369.90112500000004,214.81069152195923L369.97434375,234.39848870528633L371.58515625,253.3316368641755L374.58712499999996,245.3308607307635L375.17287500000003,268.2320626250353L377.3694375,244.49607678535807L378.17484375,264.2889898306215L378.76059375000006,245.48772005030744L379.41956250000004,236.7120647504555L380.37140625,252.9556248926081L382.56796875000003,263.9595050517675L384.1055625,267.7407318935802L385.35028124999997,262.13887438582356L385.78959375,251.26577404817488L386.66821875,235.25151193818505L386.96109375,241.67318778443968L388.4986875,253.84196913095764L388.64512499999995,260.48677157400795L390.47559375,263.5951777639314L394.57584375,245.7110868181184L395.74734374999997,240.21580820700987L397.06528125,228.83948023082783L397.431375,264.31428464574253L398.1635625,267.03490545725225L401.75128125000003,288.16453162763844L403.36209375000004,272.7969526872189L403.7281875,283.4908117851163L405.631875,280.1734343919212L406.29084374999996,289.9625991912516L408.04809375,299.53483908962204L408.63384375,260.6438857173383L408.99993750000004,261.4415176738937L409.14637500000003,274.06143975326165L409.29281249999997,294.17797303782606L410.02500000000003,277.26430670264295L411.489375,284.1424405045251L411.56259374999996,278.1892402656313L413.90559375,269.0914762852507L414.78421875000004,265.9444781759494L415.95571875,272.26182083438874L417.42009375000004,275.23805484428266L419.61665625,282.3173241809265L419.98275,294.22661190546546L421.74,297.6093298123571L423.57046875,311.64308562056164L423.9365625,318.2164189511729L427.67071875,302.2972911977558L428.40290625,287.81933634401275L428.54934375,269.6735514002117L428.6225625,272.90683834968803L428.76899999999995,283.68936469306016L429.35475,302.2743327832461L432.21028125,294.2174551615858L432.64959375,299.20603500619364L434.04074999999995,271.4058903905279L434.40684375,275.82283989612506L436.23731250000003,267.896823592764L436.38375,282.2016934896383L436.9695,291.9806011568069L439.23928125000003,283.93416368612463L439.7518125,279.6279214339565L441.58228125,266.6888917819382L443.77884374999996,283.72672806811835L448.53806249999997,296.59599717365484L448.977375,290.1816838995839L449.27025000000003,293.649678463169L449.4166875,306.5363143280804L450.22209374999994,270.61174843068693L451.0275,264.05992731989164L451.4668125,284.2318938097889L452.41865625,294.4702094735714L452.85796875,295.0948133477413L453.29728124999997,284.3114247175633L454.46878125,289.0840822977281L456.22603125,302.2783758832489L456.66534375,312.2608250505719L456.885,284.4504725293513L457.03143750000004,295.0929884299265L459.520875,283.53008523220853L459.96018749999996,303.16143205436L461.05846875,297.80723898269434L463.621125,290.8668046123519L464.0604375,272.8024426427434L464.6461875,275.7779039220184L464.86584375,286.2601884703087L466.76953125,299.6958241750041L467.06240625,292.19737733267453L467.57493750000003,291.631481507415L468.1606875,294.25787871690983L468.23390625,306.8953348342594L468.7464375,280.07110942160097L469.0393125,288.35447144741636L469.7715,292.8089274182011L470.21081250000003,301.62019703147075L471.235875,311.88752253756195L472.04128125000005,309.7245447781725L475.4825625,316.4871740732273L476.21475,312.72203750572686L477.02015625,284.00640951870946L477.093375,266.065733155375L477.16659375,294.17314535425027L477.97200000000004,308.1670655415844L478.4113125,304.37339449725533L478.48453125000003,285.8454217373359L479.50959375,302.92703420058876L482.14546875,314.53167415721623L484.04915624999995,306.18273367973757L484.63490625000003,306.61610952475854L486.53859374999996,309.6123451179001L489.17446874999996,298.65957855551386L490.7120625,303.2049150472654L491.37103125000004,300.3028331890079L492.24965625,306.74857072092243L492.32287499999995,302.4107536243464L493.27471875,281.17990844378534L494.29978124999997,273.61122359483153L494.44621874999996,272.2851073385021L495.5445,282.2966556107355L496.8624375,303.32914452774355L497.08209374999996,307.0449964237502L497.15531250000004,307.60304467870543L498.25359375,312.339222049134L498.69290625,328.1731308752616L499.42509375,328.7051306345112L499.57153124999996,329.94448325178035L500.01084375,322.5137940485646L500.59659375,319.09992634509405L501.91453125000004,315.32881305965424L502.50028125,305.44148786386523L502.79315625,298.4977324370511L505.209375,291.4484071298277L506.52731250000005,304.95433693583544L508.431,273.03119044304606L509.01675,288.90603841261856L509.67571875000004,297.64007185702144L510.9204375,294.4854140557218L511.5061875,295.80240066946124L511.72584375,293.36909180614424L515.53321875,294.62839186249204L517.2904687500001,303.4313689950587L519.853125,313.6024379238123L522.8550937499999,312.6343085297183L524.75878125,299.24667614162286L525.0516562500001,316.78282058513355L525.63740625,292.67386573392594L526.0035,294.0971528152026L527.6143125,296.1950597169907L528.27328125,302.63643251674836L528.639375,311.22866424267517L529.225125,319.71744425935924L529.518,310.6469796810785L531.93421875,300.163880319252L532.8860625,295.925152774258L534.71653125,293.9684856973799L536.254125,293.6716737545069L536.4005625,299.32336638169886L538.1578125,315.82482650646915L539.5489687500001,317.22812755566446L541.81875,320.3808818829481L542.77059375,307.2957293396465L543.3563437500001,323.103093881813L543.6492187499999,321.0987271424575L544.38140625,288.88239497445323L544.52784375,296.35442218321305L545.040375,309.095600675732L545.99221875,315.4979767270029L547.0905,316.576543766469L548.33521875,297.36031314353033L548.554875,318.9332161273841L551.4104062499999,328.6514295935042L554.33915625,332.64790685390057L554.5588124999999,311.0232331717886L555.2177812499999,311.7090635127027L555.65709375,318.2013910612637L555.80353125,303.0845346581552L555.87675,306.75257175428084L556.6821562499999,313.3624846934657L557.4143437500001,315.2863316643953L558.512625,320.7438678351094L558.9519375,318.99961292568963L561.441375,322.1804525939255L561.5878125,322.6195890749797L563.56471875,335.10779846147165L564.5165625,333.24723871230543L565.02909375,338.4021285753218L567.51853125,323.5337105728737L568.3239375,319.3622282608697L569.056125,316.1440680726432L569.27578125,311.78533073525375L569.7150937499999,294.1080610897694L569.86153125,318.8329932457322L571.9116562500001,317.8713018993207L572.4241875,303.5371622773536L572.64384375,307.6094512314028L572.79028125,314.877194803816L573.81534375,305.1443811514422L574.84040625,315.30795480252874L575.79225,315.34823087554486L575.86546875,299.9898089022606L576.8173125,306.6809328380653L577.1834062500001,318.3064938166885L577.62271875,312.01682963246986L580.47825,305.04284696634454L581.43009375,290.36048252659185L582.16228125,315.4872447225444L584.50528125,320.24361887575776L584.9445937500001,311.8478907980797L586.26253125,316.1960125295739L587.0679375,320.90103512684124L587.50725,306.36464655966967L588.2394375,310.6808126429457L588.31265625,305.35642309003055L588.45909375,323.3279278934776L588.8251875,316.13504229062556L590.36278125,318.6913077326316L591.68071875,303.50241399899767L595.122,304.5262916933689L596.4399375,314.0703209604086L596.65959375,314.0752564550415L598.7829375,320.38741528603555L602.5903125,321.51339822126755L605.44584375,323.6123960788936L608.37459375,316.814202011362L608.4478125,321.2094019449889L609.69253125,293.98059327693704L612.10875,304.1450718046379L614.52496875,320.9472775936813L614.67140625,318.46588697264195L616.501875,331.52431631712784L616.57509375,327.44923769827074L617.16084375,314.8757770339734L618.6984375,319.1089324207791L618.9913125,332.05781144103446L619.430625,331.62710475499597L619.79671875,334.8613396483805L620.602125,329.39481877185875L620.67534375,329.14545923464823L620.895,314.73587601180867L621.773625,314.40912956257085L623.01834375,323.8637770657396L623.5308749999999,318.86609553581593L624.2630625,314.79092377974087L626.38640625,305.5556263555659L627.26503125,316.6295549280281L628.9490625,320.2880231622955L631.65815625,298.65363898995304L633.19575,297.42373067809814L634.660125,309.48243872870665L635.31909375,315.7963872497983L635.6119687500001,299.9242042346584L635.831625,317.08357995250907L637.07634375,324.95600849579137L637.5888749999999,319.58625900208625L637.88175,331.22297332235706L640.517625,317.4810825039223L640.6640625,306.00024749767795L642.1284375,288.48614482297256L642.7141875,313.7908442363692L645.71615625,316.795720906697L646.4483437499999,325.7162083088303L649.9628437499999,318.84545142373383L650.10928125,317.17122375538696L650.6218124999999,312.71833585786726L653.11125,327.42794506439674L653.404125,288.4197071398281L658.675875,304.1343287232508L662.7761250000001,312.4614510397092L663.5815312499999,318.37898439634785L663.87440625,325.2387850334202L665.2655625,326.065898728097L666.5102812499999,329.5265429826742L666.5835,330.09097772042225L667.7550000000001,322.9165659531696L668.70684375,325.02540819662363L670.390875,335.95935707687954L672.2945625,338.37982137495595L672.36778125,336.97020575265316L673.53928125,335.99018368204213L673.68571875,331.4246067956781L675.0768750000001,331.57480026327835L675.58940625,330.8029653882308L676.1751562500001,340.4480867852328L677.5663125,343.9024062712904L679.68965625,340.87396030620596L679.83609375,338.53049537699576L681.2272499999999,314.20614530865316L681.4469062500001,308.1060246231684L684.3024375,309.43374546781354L685.10784375,302.66117292890056L685.7668125,318.65423306754514L686.3525625,324.69180528263837L687.2311875,331.9062709002855L687.7437187500001,336.08771651376804L688.91521875,332.528908215482L690.7456874999999,334.9694820814625L692.063625,315.67583081454717L692.2100625,313.68932883774016L692.28328125,316.6804462656013L692.5761562499999,333.4806816151519L693.8208750000001,339.6736884164733L694.11375,319.32732025778915L694.2601875,322.11436706129143L695.4316875,316.54955978218953L696.45675,332.1008273272442L696.67640625,311.08339788803187L697.26215625,310.27380736479756L697.40859375,305.9893530704247L698.214,324.3930652107669L698.2872187500001,335.2967509103071L698.3604375,328.1920054392097L698.58009375,330.09175316310393L700.4105625000001,329.16024586936624L701.2159687499999,318.61341842910844L702.0213749999999,323.59999943641816L702.38746875,327.5262350307529L703.70540625,325.86370252984693L703.85184375,320.5992864834164L706.04840625,326.9539591330606L706.4145000000001,323.8861595448662L713.8828125,329.2939845308656L714.6882187499999,332.1460384657976L716.2258125,338.2860879390942L716.5186874999999,336.9584888164812L716.59190625,341.01102371752665L717.32409375,325.10031828833957L720.179625,324.6420914276549L720.54571875,318.9905798737851L721.644,325.0610117378621L727.5015000000001,317.6580098742283L729.9909375,329.4732217708198L732.2607187499999,339.1477309070318L733.7983125000001,340.31491418982193L733.87153125,342.45315461882194L734.5305000000001,346.0584144715887L734.6769375,345.7619337844233L736.1413125,346.3749135596166L736.28775,335.66995234104024L736.6538437500001,340.3310755881029L738.99684375,338.50535437310793L740.97375,348.96041029761903L742.438125,351.30212134002414L742.5845625,341.51713626637587L742.8042187499999,341.21405467965377L742.8774374999999,351.3755423768596L743.8292812500001,347.1631060875903L744.12215625,346.6680805548319L744.195375,342.2062623913027L745.44009375,339.01210469475825L745.7329687499999,309.53055873523294L746.6848125,309.25762535393864L750.4921875,327.8062306476544L752.4690937500001,336.52122464105224L752.68875,317.9949478548072L753.1280624999999,326.1521539252147L754.8853125,338.44725823848137L755.03175,335.2732343613752L758.8391250000001,329.27056184864114L759.20521875,302.2354313861331L759.4248749999999,304.2064347117652L760.5231562499999,287.2097512892409L761.0356875,299.6198938149039L761.25534375,307.57841711280594L761.6946562500001,312.03240690091326L762.13396875,315.4241286028785L762.5000625,327.9301631515838L762.6465,321.0971168958154L763.9644375,338.35623252344715L764.40375,343.71284885053115L767.9914687500001,343.93412512502186L768.57721875,340.4459677959422L768.9433124999999,343.1772668950901L769.30940625,347.9254744243871L769.382625,349.472558690823L769.9683749999999,347.9904892396323L770.62734375,329.7629946939799L772.38459375,319.3001018599986L773.482875,318.35399560928084L774.2150625,331.7828560573389L776.04553125,323.4107774958168L779.5600312500001,322.76014660118216L780.14578125,335.0940013124185L781.3905,327.7755102457242L781.5369374999999,315.22671882216497L782.7816562500001,333.5538787521818L783.0013125,321.43945113884797L783.14775,334.5032220075029L784.6853437499999,320.57732044395794L785.0514375,318.6070452950797L785.12465625,332.3238020503868L785.3443125,317.2453033859505L785.9300625000001,331.92787376363015L786.88190625,341.1408093969975L787.3944375,340.80022368220034L787.8337499999999,345.6313386533818L788.05340625,332.0634907945491L789.22490625,343.7474273059014L789.4445625,340.8147120386128L789.8838750000001,349.84884335809085L790.9089375000001,352.8862553167584L792.51975,349.17101493158486L794.4234375,347.7376702403285L795.8878125,351.79799326862985L798.8897812499999,352.6447283640054L799.03621875,351.29626029924924L799.3290937500001,329.4569595370294L801.52565625,322.1394630868305L801.7453125,317.0402252911967L802.11140625,326.5253995192802L803.72221875,332.1596137364361L804.30796875,336.2428456776586L804.6740625,336.69934080874765L808.042125,334.5240850086615L808.70109375,337.4988213912555L811.7030625000001,337.91681042256675L811.9959375000001,322.9744800482934L813.899625,327.5386606801759L814.0460625000001,322.41375491533125L816.02296875,326.81997531579185L816.0961875,325.3678292475986L819.0249375000001,327.252566986037L824.8824375,323.4489481113325L826.9325625,311.45178180868885L827.2254375,319.0135017304475L827.957625,333.17577763989516L828.1040624999999,337.87462603696065L828.6898125,334.5521716617057L829.20234375,337.69471885706946L829.49521875,346.55905606904116L830.95959375,334.6809382959623L834.18121875,323.3924638345491L834.6205312500001,328.537657017389L834.91340625,339.2683241358491L836.08490625,328.0911595675188L836.5242187499999,316.57685969299195L837.329625,330.02782555725753L837.9885937500001,341.46999611414145L839.2333125,339.49831349552943L840.1119375000001,337.1114339557095L842.1620625,340.90192092654297L843.0406875000001,340.2292602296141L843.11390625,337.99039995231493L843.6264375,347.85140845945796L843.69965625,348.15096830751924L844.9443749999999,344.7795217620734L845.823,340.11370840972904L847.7266875,338.4491862597079L847.94634375,340.96227099658205L848.5320937500001,341.5779484753027L850.14290625,333.13088649883247L850.801875,340.79362793191893L853.730625,346.1335608258415L854.3895937499999,331.4658451006643L854.5360312500001,334.62766120100105L856.5129374999999,339.8453180301758L857.6844375000001,343.69771686843467L858.6362812499999,336.2489649610984L858.7095,344.9644534578645L858.92915625,332.4137382751051L860.24709375,334.6137825429373L860.4667499999999,341.75336665662456L861.85790625,325.41136819247527L863.3955,336.93075134665605L864.567,336.34186069825523L865.8849375000001,346.5665084599102L867.3493125,342.0283588553835L868.8136875,341.6372990930029L869.6923125,347.47467068847436L869.83875,347.30441688742457L870.05840625,342.9685821694181L870.717375,347.2761194623736L872.98715625,344.0105881403224L873.0603749999999,334.2299075452507L873.1335937499999,336.8087862681704L873.42646875,338.70936706697364L873.5729062500001,336.0740738258522L873.8657812499999,339.3896551858478L876.4284375000001,325.8692451013328L876.7213125000001,321.56121258532573L877.3802812499999,331.7346187442819L877.5999375,325.21115642197066L878.25890625,325.86229787819957L878.3321249999999,334.614783184142L880.01615625,328.6277468638269L880.2358125,342.2688227732243L880.38225,327.44190650111915L882.1395,342.17503734024615L882.432375,345.6414689754978L882.65203125,345.71168236727544L883.7503125000001,347.07840453426695L884.189625,349.20938903486035L884.6289375000001,335.0021993823205L884.775375,343.6765126576798L889.9006874999999,346.9460897440181L890.7060937499999,338.3168722745458L891.58471875,347.0187198163351L892.90265625,340.3118644803984L893.7080625,339.3496114094282L893.78128125,337.986759893848L894.65990625,340.4398511680846L894.733125,334.5190388070547L896.3439375,331.96564051767393L896.6368125,318.0556190955976L899.1262499999999,336.0608467729619L899.2726875000001,344.43893927763287L899.3459062500001,346.98697718204926L900.004875,349.3731473995559L900.6638437500001,349.1014901537593L901.6156875,346.00554130796877L903.29971875,352.309201830391L905.34984375,344.99287590066973L905.7159375,341.12747573553656L908.6446874999999,328.6829221133159L909.01078125,326.8088623855408L911.5734375,331.13630520762564L911.7198750000001,337.8391952352508L911.7930937499999,344.5583064702675L912.5985,325.4065491590867L913.9164374999999,322.68066920461257L914.3557500000001,335.6773012236259L914.57540625,326.6174319804285L914.6486249999999,340.08242950751736L915.6736875,325.6095473024292L915.820125,335.85606113284L916.113,329.89971891603733L916.9916250000001,322.81467426862525L917.0648437499999,332.13638077676745L917.35771875,327.60299825316395L918.0899062499999,330.0944848267073L918.67565625,340.396043303534L919.70071875,325.0097185672506L920.28646875,328.5636231959572L920.506125,324.83815673301336L921.8240625,318.3944558525123L921.9705,328.4170082480496L923.5080937500001,331.25488563710263L923.72775,328.03635427934034L924.97246875,330.63548645019705L925.3385625000001,320.0659726777087L926.14396875,333.7416879301857L926.5100624999999,323.42084749406854L927.828,336.50132865284195L928.5601875000001,347.1070216267312L929.21915625,344.2613248264738L929.5852500000001,338.8065140756446L929.8781250000001,350.47065892605485L930.39065625,341.4107282783083L930.5370937499999,347.8336575363463L932.88009375,349.7595264823775L933.31940625,339.44334643660324L934.05159375,326.0423649719421L935.66240625,314.21717561310913L937.0535625,333.0341323033193L937.71253125,335.3743108660926L938.0054062500001,341.44198097077526L938.5179375,346.7158820700443L940.8609375,347.1894233713896L941.0073749999999,345.4391886022625L941.30025,336.4949525773326L941.37346875,326.0598673223246L941.593125,340.73343189920445L941.81278125,349.85262052932654L942.3253125,345.89277167044554L943.7896875,350.13881875772216L947.4506250000001,340.15836780108555L947.67028125,346.45915292946484L947.7435,342.51280158147364L948.036375,338.20939309555655L950.01328125,345.5231891961217L950.3793750000001,352.5763137982895L952.79559375,347.9119957149718L952.94203125,350.2958128997826L953.893875,345.2897854633796L953.96709375,332.9359408869762L954.4796249999999,342.0132720592271L955.2118125,349.27234467673935L955.28503125,349.7553692475747L956.01721875,354.4421173763476L957.2619375,350.67476932164874L958.87275,342.8291514632514L959.97103125,347.70608978158515L960.4835625,338.9262835229251L960.55678125,340.37906186576834L962.46046875,336.6222287593959L962.60690625,341.19507450659415L963.7051875,350.75747561985406L964.73025,355.5394386802888L965.53565625,353.10258811930385L965.90175,323.9469314143957L966.1946250000001,324.8325589222524L967.5125625000001,337.7194489671477L970.51453125,345.89112092565716L970.7341875,345.4086593593378L973.6629375,347.88903764788347L975.2005312499999,350.7160552869843L976.0059375,354.146635159236L977.10421875,355.52140449384126L977.7631875000001,350.72533336384294L978.5685937500001,350.9915789805408L980.6919374999999,332.4079740972308L981.424125,335.97268264424184L982.4491875,333.2430209670528L983.25459375,331.6221241587656L984.352875,334.4572703490302L984.7189687499999,327.0011166049464L985.81725,326.65533194351013L986.1833437500001,337.9717452154842L987.7941562500001,346.17193186358514L990.9425625000001,328.86188484475554L991.7479687499999,323.8949797953806L994.3106250000001,318.945968802745L994.53028125,309.50599873042773L994.7499375,307.36238533894766L996.4339687500001,327.8771607179783L997.3125937499999,341.4938158915409L998.2644375,347.861082052294L998.5573125000001,354.57189755012445L998.77696875,341.3384723056817L999.06984375,331.78705385643843L999.21628125,338.69723121009343L1002.5843437499999,347.18686726120535L1004.6344687500001,352.66269847002985L1006.025625,358.52731133034064L1008.07575,361.39681462148786L1008.5150625,358.4985615739495L1009.24725,350.04486261455565L1009.9062187499999,348.95879078622943L1011.59025,350.02475569133276L1011.8099062499999,349.1613589429462L1012.2492187500001,348.13947620738446L1012.3224375,346.8326448138399L1014.44578125,350.8570098085527L1017.37453125,349.4453324542076L1017.8138437499999,351.86934680625495L1019.2782187500001,358.0800128451703L1020.44971875,354.9920712735918L1020.6693750000001,351.9528217282801L1020.88903125,331.7402049337517L1024.47675,340.57513244087914L1026.0143437499999,349.69461545428885L1026.526875,348.61432340139356L1027.8448125,353.97466497168557L1028.7234375,356.4121758748194L1029.455625,350.30462653907915L1029.67528125,347.345047443672L1030.92,347.0079239810165L1030.9932187499999,343.0372908139837L1031.0664375,343.7657403537942L1031.57896875,351.72977586379074L1032.0915,345.6333497522607L1034.94703125,342.16901902308075L1035.313125,329.31818472333936L1036.0453125,334.27763370214274L1037.2900312499999,344.6396849878387L1039.19371875,338.95111693796963L1040.65809375,330.1014563443617L1040.87775,338.837300578713L1041.09740625,345.50681358952716L1041.756375,344.1393940574328L1042.56178125,346.3731786879106L1042.85465625,352.65358234559534L1043.3671875,353.35564845489665L1045.19765625,356.06578787947745L1047.68709375,355.4863594318713L1048.0531875000001,356.4290885578401L1048.12640625,348.97465156836336L1048.3460625,329.2364549845746L1048.71215625,341.16313085156787L1049.07825,348.7955113420049L1049.29790625,339.88648721662844L1051.42125,341.9520465422568L1051.78734375,335.1996016642065L1052.4463125,335.0886795322826L1052.7391875,345.09697819139757L1053.76425,342.58221783217965L1055.1554062500002,342.93159793764295L1056.693,336.0059462560574L1056.8394375,343.00643561432014L1058.23059375,350.89741645490136L1058.3038125,351.56133190804456L1058.8895625,353.09587477237045L1059.25565625,338.76105750283904L1060.42715625,343.987716937333L1060.72003125,331.8464371359872L1060.86646875,330.97154482148886L1062.5504999999998,335.4672919898525L1064.1613125,342.23846530579567L1064.23453125,344.2283210918543L1064.30775,335.7425005935409L1064.82028125,341.9296311250089L1066.065,346.29079084135367L1066.357875,345.59250659775194L1067.01684375,315.2914661306392L1068.8473125,333.8831115775258L1069.5795,341.3624656251477L1071.11709375,349.814878708208L1072.72790625,343.7294978145539L1072.87434375,341.45519519113174L1073.386875,341.2803534431292L1078.73184375,351.96952423354907L1079.46403125,345.3023599998031L1079.61046875,343.2852485254386L1079.830125,343.85676259357695L1080.78196875,351.81118837034086L1080.8551875,356.9394282519217L1084.9554375,358.61735579107756L1086.34659375,362.3552975896164L1087.0055625,353.4893810021596L1087.5180937500002,349.6964420960431L1087.95740625,346.63475621693203L1088.3235,348.77807736748L1089.202125,347.741978150546L1089.4217812499999,348.24358018047883L1089.6414375,339.97430348823286L1090.373625,348.36460583411997L1092.49696875,347.68021107859875L1094.25421875,345.6562579927781L1094.69353125,348.14011441381047L1094.98640625,355.0223605561386L1095.8650312500001,355.2029155861759L1097.9883750000001,360.7133395512573L1098.0615937500002,361.33272724388075L1099.08665625,359.46291568491586L1099.9652812499999,355.6515536453242L1100.917125,348.5633090626384L1103.62621875,349.92822673755904L1103.845875,343.42246645863395L1104.50484375,334.48319252725673L1108.9711875,347.8821057546456L1109.04440625,344.42649228980065L1110.7284375,344.11769650075064L1110.94809375,333.95062031888176L1111.3141875,334.1859121842684L1112.632125,341.2304014631755L1115.1215625,340.1364977964223L1115.6340937500001,348.944486604187L1115.85375,346.06368303388814L1116.65915625,342.1819557108635L1120.32009375,350.89931865708235L1120.75940625,336.29212494868483L1122.88275,341.3707041366333L1124.85965625,313.7371743411247L1125.22575,322.67371923216183L1127.20265625,329.1298752580816L1128.3009375000001,338.70265965787974L1129.98496875,328.5456534539637L1131.2296875,328.5494530106932L1133.35303125,338.9533194615562L1133.719125,316.832567912098L1134.81740625,330.2444296104972L1135.476375,343.18588371063316L1135.98890625,349.72971890614L1136.57465625,354.051711511721L1136.94075,351.0379180801569L1137.74615625,334.91209066574817L1138.11225,333.6463864723745L1138.47834375,337.96552249073403L1138.8444375000001,340.20335014520646L1138.990875,345.54971754141513L1140.3088125,350.59026159940333L1140.45525,346.64410105189404L1140.52846875,343.6307111367572L1141.26065625,341.9644678675851L1141.7731875,349.71141653456976L1142.2125,330.01173774068224L1145.06803125,343.66664405265254L1145.21446875,351.95502758681056L1146.53240625,335.38978336900584L1146.97171875,339.25833763488384L1148.2164375,332.69349397198215L1149.2415,333.42666518890553L1150.19334375,328.32590244696394L1150.48621875,344.2925814195624L1150.5594375,347.32615854385585L1150.99875,350.14373518091656L1151.1451875,355.9019037827494L1151.4380625000001,359.7891475747448L1151.51128125,353.39851067117473L1152.68278125,353.2799188712336L1154.1471562499999,354.0299493773963L1155.2454375,356.9246723329265L1156.7098125,354.66145721147075L1157.66165625,353.90333910734313L1157.80809375,357.79229970951485L1158.320625,355.8118024695871L1158.6135,334.4096191271789L1159.56534375,338.0922065582661L1160.5171874999999,340.0026287803578L1161.9815625,344.9316971744451L1162.20121875,348.0253254527335L1163.1530625,336.5295574529568L1165.05675,338.7320126723138L1166.8139999999999,342.05610513546117L1168.1319375,337.47560731196324L1168.57125,342.93086452693456L1170.25528125,334.95610666574015L1172.2321875,340.7200223740181L1172.59828125,333.32960804862677L1172.964375,345.3549756701382L1175.3805937500001,344.97795438686023L1176.3324375,346.77556229077095" style="fill: none;" fill="none"></path></g></g></g></g><g opacity="0.2"><g><g><g><path stroke="rgb(255, 112, 67)" stroke-width="2px" d="M179.16628125,-66.21744767102324L182.82721875,23.435518698258853L182.97365625,-31.032922744750977L184.0719375,6.121814315969328L184.43803125000002,22.249665325338224L184.804125,25.584272753108657L185.31665625,-76.08775164864277L186.26850000000002,-71.59919959848577L187.44,9.295774871652826L188.09896875,70.46897612918508L190.075875,72.2054086598483L190.22231250000002,30.82078062404287L190.58840625,6.462800784544534L191.32059375,21.869415976784477L193.73681249999998,39.64500054446138L194.68865625,-3.3135746175592518L194.761875,9.501976490020795L194.98153125,54.4552571231669L195.347625,50.391549045389354L196.812,-24.651662913235715L199.52109374999998,-39.262724724682855L200.54615625,61.95469190857629L202.74271875,110.17408442497258L202.88915624999998,116.76350697604093L205.08571875,137.4182332212275L205.52503124999998,135.6551623994654L206.76975,103.95645397359675L207.64837500000002,87.44723006812009L207.7948125,103.02117213335904L208.527,84.08968184211041L208.89309375,113.65644857016477L209.2591875,94.1640016274019L210.50390624999997,16.805485010147137L211.45575,163.79580000313848L213.28621875,91.89502798427236L214.60415625,96.8717308044434L218.6311875,140.417247208682L219.07049999999998,97.76409312811765L220.90096874999998,182.06084274161947L222.21890624999997,136.26385960795665L222.80465625,119.68377049402758L227.78353125,144.8916425596584L228.73537499999998,101.57383860241286L228.80859375,102.01900857145137L230.492625,133.70304959470576L230.71228125,45.37533820759169L231.44446875,216.193185811693L231.73734375,139.68183426423508L233.34815625,177.94475691968745L233.49459375,185.29008183696055L233.64103125,164.29608508673581L234.007125,161.89377699115062L236.13046875,123.49468037215146L236.71621875,156.93764530528676L238.03415625,173.93585753440857L239.20565625,149.34046188267797L240.52359375,187.09421321478757L244.47740625,188.71277539296585L244.77028125,170.4720012816516L246.893625,140.7200943448327L247.99190625,190.71610153805125L248.43121875,199.57511057636955L249.16340625,201.092471762137L249.6759375,174.72148284045133L250.5545625,180.3672275868329L250.92065625,214.98553561622447L252.23859375,190.95750083706596L253.336875,235.86690183119342L253.41009375,125.33088392561136L255.09412500000002,235.9872133460912L255.31378124999998,19.916649471629775L255.75309375,211.06707159497523L256.851375,131.2262400822206L256.92459375,162.27030841870743L257.21746874999997,208.84785068035126L261.2445,177.4324600913308L261.537375,69.42154381491925L262.92853125,168.43766522407532L263.880375,201.10781329328364L263.95359375,125.35116906599566L264.0268125,203.0975342988968L264.53934375,184.33563840389252L265.34475,101.46612103418872L268.34671875,212.08236023512754L268.49315625,160.77208839763296L270.10396875000004,195.65609499541202L271.788,235.86539014902982L275.1560625,223.66316322304988L276.54721875,194.73076165806162L278.9634375,138.03189446709374L280.20815625,149.2708223624663L280.35459375,205.70033434846187L282.1850625,254.14016689495608L284.01553125,227.03932148218155L284.30840625,242.27417689561844L285.18703124999996,181.09890218214557L285.33346875,282.4406240311536L285.553125,250.50343752991068L286.21209375,205.14402509819377L286.50496875,252.20880907773972L287.310375,223.00436600771818L288.70153125,181.16071772575378L289.2140625,192.66521140662113L291.19096875,286.4374606013298L291.33740625,217.90643240646884L291.996375,157.66966717893428L293.167875,243.89046133648264L293.24109375,228.07110584324056L294.26615625,169.99627081914383L299.24503125,114.61479377746586L300.85584375,243.55159939419138L301.2219375,217.18099860711533L301.44159375,213.60364362326536L306.85978125,164.61470274491745L308.03128125,212.12363528663462L308.47059375,138.94247868928045L308.69025,214.8082500262694L310.3010625,234.9394541816278L311.326125,158.9699998335405L313.30303125,217.19891408356756L314.4013125,272.45233734629375L315.13349999999997,272.09728610515594L315.2799375,227.3020477565852L315.5728125,184.15601379221138L318.355125,288.55242651700974L319.01409375,206.54276009039447L319.8195,190.71254704215312L320.2588125,278.6085710308769L320.47846875,264.24747812206095L323.99296875,213.28694620999426L324.5055,272.29339622367513L324.57871875,176.94026455012235L325.45734375,215.5315082289956L325.5305625,212.387025475502L326.33596875,282.83371246402913L332.04703125000003,216.3535671179945L332.12025,243.09015841375697L332.706,198.38333304361865L336.2205,251.9117022481832L337.68487500000003,267.868855741891L339.442125,213.75638480619952L341.6386875,302.25454857132655L342.370875,223.01282325657934L343.02984375,224.85946558822286L343.32271875000004,263.14455277269536L343.3959375,303.70341931960803L343.76203124999995,273.7781847444448L343.9816875,230.57339945706457L345.07996875,253.69588554989207L345.1531875,240.2460203495893L346.69078125,293.4475444636562L354.30553125,259.00243128971624L354.45196875,193.75366342067719L355.25737499999997,252.52299383011731L355.47703125,264.2890085252849L355.6966875,233.20778140696615L359.06475,288.07989305799657L359.87015625,251.88620793277568L361.62740625000004,249.986146021973L362.06671874999995,268.78714137185705L362.79890625,249.96168332750148L362.872125,341.9381434849717L362.94534375,276.777862646363L366.89915625000003,275.4935865077106L367.7045625,284.0159806988456L368.50996875,225.476221696897L368.729625,259.9784672639587L369.09571875,206.70199742100456L369.38859375000004,157.8848163214597L369.90112500000004,227.62251416119665L369.97434375,263.780184480277L371.58515625,281.73135910250926L374.58712499999996,233.32969653064555L375.17287500000003,302.58386546644294L377.3694375,208.89209802584216L378.17484375,293.9783593985168L378.76059375000006,217.28581537983635L379.41956250000004,223.54858180067757L380.37140625,277.32096510583705L382.56796875000003,280.46532529050654L384.1055625,273.41257215629923L385.35028124999997,253.7360881241885L385.78959375,234.9561235417019L386.66821875,211.2301187732003L386.96109375,251.30570155382156L388.4986875,272.09514115073466L388.64512499999995,270.4539752385833L390.47559375,268.2577870488167L394.57584375,218.8849503993988L395.74734374999997,231.97289029034704L397.06528125,211.77498826655477L397.431375,317.5264912681146L398.1635625,271.11583667451686L401.75128125000003,319.8589708832177L403.36209375000004,249.74558427658948L403.7281875,299.5316004319625L405.631875,275.19736830212855L406.29084374999996,304.64634639024734L408.04809375,313.89319893717766L408.63384375,202.30745565891266L408.99993750000004,262.63796560872686L409.14637500000003,292.9913228723136L409.29281249999997,324.3527729646726L410.02500000000003,251.8938071998683L411.489375,294.4596412073482L411.56259374999996,269.25943990729075L413.90559375,255.4448303146796L414.78421875000004,261.2239810119976L415.95571875,281.73783482204783L417.42009375000004,279.7024058591236L419.61665625,292.9362281858921L419.98275,312.09054349227387L421.74,302.6834066726945L423.57046875,332.6937193328684L423.9365625,328.0764189470898L427.67071875,278.4185995676301L428.40290625,266.1024040633982L428.54934375,242.45487398451024L428.6225625,277.75676877390254L428.76899999999995,299.86315420811826L429.35475,330.15178491852504L432.21028125,282.13213872909546L432.64959375,306.68890477310526L434.04074999999995,229.70567346702921L434.40684375,282.4482641545209L436.23731250000003,256.0077991377224L436.38375,303.6589983349497L436.9695,306.64896265756L439.23928125000003,271.86450748010117L439.7518125,273.1685580557043L441.58228125,247.2803473039107L443.77884374999996,309.28348249738866L448.53806249999997,315.8999008319595L448.977375,280.5602139884775L449.27025000000003,298.8516703085466L449.4166875,325.8662681254474L450.22209374999994,216.7248995845968L451.0275,254.23219565369868L451.4668125,314.48984354463494L452.41865625,309.8276829692451L452.85796875,296.0317191589962L453.29728124999997,268.13634177229625L454.46878125,296.2430686679753L456.22603125,322.0698162615299L456.66534375,327.23449880155647L456.885,242.73494374752045L457.03143750000004,311.05676228078926L459.520875,266.1857304356315L459.96018749999996,332.6084522875873L461.05846875,289.775949375196L463.621125,280.45615305683833L464.0604375,245.7058996883306L464.6461875,280.24109584093094L464.86584375,301.9836152927442L466.76953125,319.8492777320472L467.06240625,280.94970706918025L467.57493750000003,290.7826377695257L468.1606875,298.19747453115207L468.23390625,325.85151901028377L468.7464375,239.83477130261335L469.0393125,300.7795144861395L469.7715,299.4906113743782L470.21081250000003,314.8371014513753L471.235875,327.2885107966987L472.04128125000005,306.4800781390884L475.4825625,326.63111801580953L476.21475,307.07433265447617L477.02015625,240.9329675381834L477.093375,239.15471861037344L477.16659375,336.3342636525631L477.97200000000004,329.1579458225857L478.4113125,298.6828879307617L478.48453125000003,258.05346259745687L479.50959375,328.54945289546794L482.14546875,331.93863409215754L484.04915624999995,293.65932296351957L484.63490625000003,307.2661732922901L486.53859374999996,314.1066985076124L489.17446874999996,282.2304287119345L490.7120625,310.0229197848927L491.37103125000004,295.9497104016217L492.24965625,316.4171770187942L492.32287499999995,295.9040279794823L493.27471875,249.33364067294383L494.29978124999997,262.25819632140076L494.44621874999996,270.2959329540079L495.5445,297.31397801908577L496.8624375,334.8778779032556L497.08209374999996,312.61877426776016L497.15531250000004,308.44011706113815L498.25359375,319.4434881047769L498.69290625,351.92399411445314L499.42509375,329.5031302733855L499.57153124999996,331.8035121776841L500.01084375,311.3677602437409L500.59659375,313.9791247898882L501.91453125000004,309.6721431314945L502.50028125,290.61050007018173L502.79315625,288.08209929682994L505.209375,280.87441916899246L506.52731250000005,325.2132316448472L508.431,225.14647070386195L509.01675,312.71831036697733L509.67571875000004,310.74112202362585L510.9204375,289.7534273537723L511.5061875,297.77788059007037L511.72584375,289.7191285111688L515.53321875,296.5173419470137L517.2904687500001,316.6358346939087L519.853125,328.85904131694275L522.8550937499999,311.1821144385772L524.75878125,279.16522755947983L525.0516562500001,343.0870372503996L525.63740625,256.5104334571145L526.0035,296.2320834371177L527.6143125,299.3419200696729L528.27328125,312.2984917163849L528.639375,324.1170118315654L529.225125,332.4506142843853L529.518,297.0412828136574L531.93421875,284.43923127651215L532.8860625,289.56706145676696L534.71653125,291.03348508206284L536.254125,293.22645584019745L536.4005625,307.8009053224867L538.1578125,340.5770166936246L539.5489687500001,319.3330791294575L541.81875,325.1100133738734L542.77059375,287.66800052469426L543.3563437500001,346.8141406950625L543.6492187499999,318.0921770334244L544.38140625,240.5578967224468L544.52784375,307.5624629963528L545.040375,328.20736841451037L545.99221875,325.1015408039093L547.0905,318.19439432566816L548.33521875,268.5359672091224L548.554875,351.2925706031648L551.4104062499999,343.2287497926842L554.33915625,338.6426227444952L554.5588124999999,278.5862226486206L555.2177812499999,312.7378090240739L555.65709375,327.9398823841052L555.80353125,280.4092500534925L555.87675,312.25462739846927L556.6821562499999,323.27735410224307L557.4143437500001,318.17210212078965L558.512625,328.9301720911806L558.9519375,316.38323056155986L561.441375,326.9517120962793L561.5878125,323.278293796561L563.56471875,353.8401125412096L564.5165625,330.4563990885561L565.02909375,346.13446336984634L567.51853125,301.2310835692016L568.3239375,313.10500479286367L569.056125,311.3168277903037L569.27578125,305.2472247291695L569.7150937499999,267.59215662154287L569.86153125,355.9203914796764L571.9116562500001,316.4287648797035L572.4241875,282.035952844403L572.64384375,313.7178846624764L572.79028125,325.7788101624359L573.81534375,290.5451606728814L574.84040625,330.5533152791587L575.79225,315.4086449850689L575.86546875,276.9521759423343L576.8173125,316.7176187417724L577.1834062500001,335.74483528462326L577.62271875,302.58233335614204L580.47825,294.5818729671565L581.43009375,268.3369358669628L582.16228125,353.1773880164732L584.50528125,327.3781801055778L584.9445937500001,299.2542986815626L586.26253125,322.7181951268153L587.0679375,327.95856902274215L587.50725,284.56006370891225L588.2394375,317.15506176785993L588.31265625,297.3698387606578L588.45909375,350.28518509864807L588.8251875,305.34571388634765L590.36278125,322.52570589564067L591.68071875,280.71907339854675L595.122,306.06210823492574L596.4399375,328.3863648609682L596.65959375,314.0826596969908L598.7829375,329.8556535325267L602.5903125,323.2023726241155L605.44584375,326.7608928653327L608.37459375,306.6169109100645L608.4478125,327.8022018454291L609.69253125,253.13738027485937L612.10875,319.39178959618914L614.52496875,346.1505862772465L614.67140625,314.7438010410829L616.501875,351.1119603338567L616.57509375,321.336619769985L617.16084375,296.01558603752744L618.6984375,325.45866550098765L618.9913125,351.48112997141754L619.430625,330.9810447259383L619.79671875,339.7126919884573L620.602125,321.19503745707595L620.67534375,328.77141992883253L620.895,293.12150117754936L621.773625,313.919009888714L623.01834375,338.04574832049286L623.5308749999999,311.3695732409304L624.2630625,308.67816614562815L626.38640625,291.7026802193035L627.26503125,333.24044778672135L628.9490625,325.77572551369667L631.65815625,266.2020627314394L633.19575,295.5788682103157L634.660125,327.57050080461937L635.31909375,325.26731003143567L635.6119687500001,276.11592971194875L635.831625,342.8226435292851L637.07634375,336.76465131071484L637.5888749999999,311.53163476152855L637.88175,348.6780448027633L640.517625,296.86824627627027L640.6640625,288.7789949883114L642.1284375,262.2149908109145L642.7141875,351.7478933564641L645.71615625,321.30303591218865L646.4483437499999,339.09693941203034L649.9628437499999,308.5393160960891L650.10928125,314.65988225286657L650.6218124999999,306.0390040115877L653.11125,349.4923588741909L653.404125,229.9073502529751L658.675875,327.70626109838486L662.7761250000001,324.95213451439685L663.5815312499999,327.25528443130577L663.87440625,335.52848598902875L665.2655625,327.30656927011233L666.5102812499999,334.7175093645399L666.5835,330.9376298270442L667.7550000000001,312.1549483022907L668.70684375,328.18867156180465L670.390875,352.3602803972634L672.2945625,342.0105178220706L672.36778125,334.85578231919897L673.53928125,334.5201505761255L673.68571875,324.57624146613205L675.0768750000001,331.80009046467865L675.58940625,329.64521307565946L676.1751562500001,354.91576888073575L677.5663125,349.0838855003769L679.68965625,336.3312913585793L679.83609375,335.0152979831804L681.2272499999999,277.7196202061393L681.4469062500001,298.95584359494126L684.3024375,311.42532673478127L685.10784375,292.5023141205311L685.7668125,342.6438232755119L686.3525625,333.7481636052782L687.2311875,342.7279693267562L687.7437187500001,342.3598849339919L688.91521875,327.1906957680529L690.7456874999999,338.63034288043326L692.063625,286.7353539141742L692.2100625,310.7095758725296L692.28328125,321.16712240739304L692.5761562499999,358.68103463947773L693.8208750000001,348.9631986184554L694.11375,288.8077680197629L694.2601875,326.2949372665449L695.4316875,308.20234886353666L696.45675,355.42772864482623L696.67640625,279.55725372921336L697.26215625,309.05942157994616L697.40859375,299.56267162886536L698.214,351.9986334212802L698.2872187500001,351.6522794596173L698.3604375,317.53488723256373L698.58009375,332.94137474894524L700.4105625000001,327.7629849287597L701.2159687499999,302.7931772687219L702.0213749999999,331.07987094738263L702.38746875,333.4155884222551L703.70540625,323.369903778488L703.85184375,312.7026624137705L706.04840625,336.48596810752696L706.4145000000001,319.2844601625746L713.8828125,337.4057220098647L714.6882187499999,336.42411936819553L716.2258125,347.49616214903915L716.5186874999999,334.96709013256157L716.59190625,347.08982606909495L717.32409375,301.2342601445588L720.179625,323.95475113662803L720.54571875,310.5133125429804L721.644,334.1666595339775L727.5015000000001,306.55350707877767L729.9909375,347.196039615707L732.2607187499999,353.65949461134994L733.7983125000001,342.0656891140071L733.87153125,345.660515262322L734.5305000000001,351.4663042507388L734.6769375,345.31721275367516L736.1413125,347.29438322240657L736.28775,319.6125105131756L736.6538437500001,347.32276045869696L738.99684375,335.7667725506154L740.97375,364.64299418438566L742.438125,354.8146879036318L742.5845625,326.8396586559035L742.8042187499999,340.7594322995706L742.8774374999999,366.6177739226682L743.8292812500001,340.8444516536864L744.12215625,345.9255422556942L744.195375,335.51353514600885L745.44009375,334.2208681499416L745.7329687499999,265.3082397959449L746.6848125,308.8482252819972L750.4921875,355.62913858822805L752.4690937500001,349.593715631149L752.68875,290.20553267543966L753.1280624999999,338.387963030826L754.8853125,356.88991470838135L755.03175,330.512198545716L758.8391250000001,320.2665530795401L759.20521875,261.682735692371L759.4248749999999,307.1629397002133L760.5231562499999,261.71472615545446L761.0356875,318.2351076033982L761.25534375,319.5162020596591L761.6946562500001,318.7133915830742L762.13396875,320.5117111558264L762.5000625,346.6892149746418L762.6465,310.8475475121628L763.9644375,364.24490596489477L764.40375,351.74777334115726L767.9914687500001,344.26603953675794L768.57721875,335.2137318023227L768.9433124999999,347.274215543812L769.30940625,355.04778571833265L769.382625,351.7931850904768L769.9683749999999,345.7673850628463L770.62734375,302.42175287550145L772.38459375,303.60576260902667L773.482875,316.93483623320407L774.2150625,351.92614672942597L776.04553125,310.8526596535336L779.5600312500001,321.7842002592304L780.14578125,353.594783379273L781.3905,316.7977736456828L781.5369374999999,296.4035316868262L782.7816562500001,361.0446186472069L783.0013125,303.2678097188473L783.14775,354.09887831048536L784.6853437499999,299.68846809864044L785.0514375,315.65163257176226L785.12465625,352.8989371833476L785.3443125,294.62755538929594L785.9300625000001,353.95172933014953L786.88190625,354.9602128470486L787.3944375,340.2893451100046L787.8337499999999,352.87801111015403L788.05340625,311.7117190063L789.22490625,361.2733320729299L789.4445625,336.4156391376799L789.8838750000001,363.4000403373079L790.9089375000001,357.4423732547598L792.51975,343.5981543538245L794.4234375,345.58765320344406L795.8878125,357.8884778110819L798.8897812499999,353.9148310070688L799.03621875,349.27355820211494L799.3290937500001,296.69800839369947L801.52565625,311.1632184115323L801.7453125,309.3913685977459L802.11140625,340.7531608614055L803.72221875,340.61093506217003L804.30796875,342.3676935894923L804.6740625,337.3840835053812L808.042125,331.26120130853224L808.70109375,341.9609259651466L811.7030625000001,338.5437939695336L811.9959375000001,300.56098448688334L813.899625,334.38493162799966L814.0460625000001,314.7263962680643L816.02296875,333.42930591648275L816.0961875,323.1896101453088L819.0249375000001,330.0796735936945L824.8824375,317.7435197992759L826.9325625,293.45603235472333L827.2254375,330.35608161308545L827.957625,354.41919150406665L828.1040624999999,344.92289863255894L828.6898125,329.5684900988232L829.20234375,342.40853965011513L829.49521875,359.85556188699877L830.95959375,316.86376163634384L834.18121875,306.45975214242935L834.6205312500001,336.25544679164886L834.91340625,355.3643248135393L836.08490625,311.3254127150232L836.5242187499999,299.3054098812016L837.329625,350.20427435365593L837.9885937500001,358.6332519494675L839.2333125,336.5407895676114L840.1119375000001,333.5311146459796L842.1620625,346.58765138279307L843.0406875000001,339.2202691842209L843.11390625,334.63210953636604L843.6264375,362.6429212201725L843.69965625,348.6003080796112L844.9443749999999,339.7223519439047L845.823,333.1149883812124L847.7266875,335.9524030346762L847.94634375,344.7318981018933L848.5320937500001,342.50146469338375L850.14290625,320.4602935341271L850.801875,352.2877400815487L853.730625,354.1434601667253L854.3895937499999,309.46427151289856L854.5360312500001,339.3703853515061L856.5129374999999,347.6718032739379L857.6844375000001,349.476315125823L858.6362812499999,325.075837100094L858.7095,358.0376862030138L858.92915625,313.58766550096595L860.24709375,337.91384894468564L860.4667499999999,352.4627428271554L861.85790625,300.8983704962514L863.3955,354.20982607792723L864.567,335.45852472565394L865.8849375000001,361.9034801023928L867.3493125,335.2211344485933L868.8136875,341.0507094494321L869.6923125,356.23072808168155L869.83875,347.0490361858498L870.05840625,336.4648300924085L870.717375,353.73742540180683L872.98715625,339.11229115724564L873.0603749999999,319.558886652643L873.1335937499999,340.6771043525501L873.42646875,341.5602382651784L873.5729062500001,332.1211339641701L873.8657812499999,344.36302722584117L876.4284375000001,305.5886299745603L876.7213125000001,315.0991638113152L877.3802812499999,346.99472798271614L877.5999375,315.4259629385038L878.25890625,326.8390100625428L878.3321249999999,347.7435111430558L880.01615625,319.64719238335437L880.2358125,362.73043663732034L880.38225,305.20153209296143L882.1395,364.2747335989367L882.432375,350.84111642837524L882.65203125,345.8170024549419L883.7503125000001,349.12848778475416L884.189625,352.4058657857505L884.6289375000001,313.6914149035107L884.775375,356.68798257071865L889.9006874999999,351.8504553735256L890.7060937499999,325.3730460703373L891.58471875,360.0714911290191L892.90265625,330.25158147649336L893.7080625,337.9062318029729L893.78128125,335.9424826204777L894.65990625,344.1194880794395L894.733125,325.6378202655099L896.3439375,328.1355430836027L896.6368125,297.19058696248317L899.1262499999999,363.0686882890083L899.2726875000001,357.00607803463936L899.3459062500001,350.80903403867376L900.004875,352.9524027258158L900.6638437500001,348.6940042850646L901.6156875,341.3616180392829L903.29971875,361.76469261402434L905.34984375,334.0183870060878L905.7159375,335.32937548783696L908.6446874999999,310.01609167998487L909.01078125,323.9977727938782L911.5734375,337.6274694407528L911.7198750000001,347.8935302766887L911.7930937499999,354.6369733227925L912.5985,296.6789131923156L913.9164374999999,318.59184927290136L914.3557500000001,355.17224925214595L914.57540625,313.02762811563235L914.6486249999999,360.27992579815066L915.6736875,303.90022399479693L915.820125,351.22583187845623L916.113,320.9652055908333L916.9916250000001,312.18710729750717L917.0648437499999,346.1189405389808L917.35771875,320.8029244677587L918.0899062499999,333.8317146870223L918.67565625,355.8483810187741L919.70071875,301.9302314628254L920.28646875,333.8944801390171L920.506125,319.24995703859764L921.8240625,308.7289045317607L921.9705,343.4508368413557L923.5080937500001,335.511701720682L923.72775,323.20855724269694L924.97246875,334.53418470648205L925.3385625000001,304.2117020189762L926.14396875,354.25526080890137L926.5100624999999,307.9395868398927L927.828,356.1220503910022L928.5601875000001,363.015561087565L929.21915625,339.9927796260877L929.5852500000001,330.6242979494008L929.8781250000001,367.9668762016703L930.39065625,327.8208323066885L930.5370937499999,357.4680514234034L932.88009375,352.6483299014243L933.31940625,323.96907636794174L934.05159375,305.9408927749504L935.66240625,296.4793915748596L937.0535625,361.2595673386346L937.71253125,338.8845787102526L938.0054062500001,350.5434861277992L938.5179375,354.62673371894795L940.8609375,347.89973532340747L941.0073749999999,342.81383644857186L941.30025,323.0785985399376L941.37346875,310.40723943981254L941.593125,362.7437787645243L941.81278125,363.5314034745097L942.3253125,339.95299838212406L943.7896875,356.5078893886371L947.4506250000001,325.18769136613065L947.67028125,355.91033062203365L947.7435,336.593274559487L948.036375,331.7542803666808L950.01328125,356.4938833469694L950.3793750000001,363.15600070154125L952.79559375,340.9155185899951L952.94203125,353.8715386769988L953.893875,337.7807443087751L953.96709375,314.4051740223711L954.4796249999999,355.6292688176036L955.2118125,360.1609536030076L955.28503125,350.4799061038278L956.01721875,361.4722395695068L957.2619375,345.02374723960054L958.87275,331.06072467565536L959.97103125,355.02149725908583L960.4835625,325.756574134935L960.55678125,342.5582293800332L962.46046875,330.9869790998372L962.60690625,348.0543431273915L963.7051875,365.1010772897439L964.73025,362.71238327094096L965.53565625,349.4473122778264L965.90175,280.2134463570335L966.1946250000001,326.1610001840375L967.5125625000001,357.0497840344906L970.51453125,358.1486288634213L970.7341875,344.68496700985867L973.6629375,351.6096050807021L975.2005312499999,354.9565817456354L976.0059375,359.2925049676137L977.10421875,357.5835584957491L977.7631875000001,343.53122666884553L978.5685937500001,351.39094740558755L980.6919374999999,304.5325667722659L981.424125,341.31974546475846L982.4491875,329.1485284512693L983.25459375,329.19077894633466L984.352875,338.7099896344272L984.7189687499999,315.8168859888207L985.81725,326.13665495135564L986.1833437500001,354.94636512344533L987.7941562500001,358.4722118357366L990.9425625000001,302.89681431651115L991.7479687499999,316.4446222213181L994.3106250000001,311.52245231379163L994.53028125,295.3460436219519L994.7499375,304.1469652517276L996.4339687500001,358.6493237865242L997.3125937499999,361.9187986518849L998.2644375,357.41198129342365L998.5573125000001,364.6381207968701L998.77696875,321.4883344390176L999.06984375,317.4599261825735L999.21628125,349.0624972405759L1002.5843437499999,359.9213213378733L1004.6344687500001,360.87644528326666L1006.025625,367.3242306208069L1008.07575,365.70106955820864L1008.5150625,354.151182002642L1009.24725,337.3643141754649L1009.9062187499999,347.32968304374L1011.59025,351.62370304898786L1011.8099062499999,347.86626382036644L1012.2492187500001,346.60665210404176L1012.3224375,344.872397723523L1014.44578125,356.8935573006218L1017.37453125,347.32781642269003L1017.8138437499999,355.5053683343259L1019.2782187500001,367.39601190354335L1020.44971875,350.3601589162241L1020.6693750000001,347.39394741031253L1020.88903125,301.42127974195915L1024.47675,353.8275237015702L1026.0143437499999,363.3738399744034L1026.526875,346.99388532205063L1027.8448125,362.0151773271235L1028.7234375,360.0684422295202L1029.455625,341.1433025354689L1029.67528125,342.90567880056125L1030.92,346.5022387870334L1030.9932187499999,337.0813410634344L1031.0664375,344.8584146635099L1031.57896875,363.6758291287856L1032.0915,336.4887105849656L1034.94703125,336.9725229293108L1035.313125,310.04193327372724L1036.0453125,341.71680717034775L1037.2900312499999,360.1827619163828L1039.19371875,330.418264863166L1040.65809375,316.8269654539498L1040.87775,351.94106693023986L1041.09740625,355.51108310574836L1041.756375,342.0882647592913L1042.56178125,349.7238556336273L1042.85465625,362.0741878321225L1043.3671875,354.4087476188486L1045.19765625,360.13099701634866L1047.68709375,354.617216760462L1048.0531875000001,357.8431822467934L1048.12640625,337.7929960841482L1048.3460625,299.62916010889137L1048.71215625,359.05314465205777L1049.07825,360.2440820776604L1049.29790625,326.5229510285638L1051.42125,345.0503855306994L1051.78734375,325.0709343471311L1052.4463125,334.9222963343967L1052.7391875,360.1094261800701L1053.76425,338.81007729335266L1055.1554062500002,343.45566809583795L1056.693,325.6174687336792L1056.8394375,353.5071696517142L1058.23059375,362.73388771577316L1058.3038125,352.5572050877593L1058.8895625,355.3976890688593L1059.25565625,317.258831598542L1060.42715625,351.82770608907396L1060.72003125,313.6345174339684L1060.86646875,329.65920634974134L1062.5504999999998,342.21091274239797L1064.1613125,352.3952252797105L1064.23453125,347.2131047709422L1064.30775,323.0137698460709L1064.82028125,351.2103269222108L1066.065,352.83253041587096L1066.357875,344.5450802323493L1067.01684375,269.83990542997014L1068.8473125,361.77057974785566L1069.5795,352.58149669658053L1071.11709375,362.4934983327985L1072.72790625,334.60142647407275L1072.87434375,338.0437412559986L1073.386875,341.0180908211253L1078.73184375,368.003280419179L1079.46403125,335.30161364918405L1079.61046875,340.2595813138919L1079.830125,344.71403369578445L1080.78196875,363.7428270354867L1080.8551875,364.63178807429296L1084.9554375,361.1342470998114L1086.34659375,367.9622102874247L1087.0055625,340.19050612097436L1087.5180937500002,344.0070337368684L1087.95740625,342.0422273982655L1088.3235,351.99305909330195L1089.202125,346.18782932514495L1089.4217812499999,348.99598322537815L1089.6414375,327.57038844986397L1090.373625,360.95005935295063L1092.49696875,346.65361894531685L1094.25421875,342.62032836404717L1094.69353125,351.865899045359L1094.98640625,365.3457297696309L1095.8650312500001,355.47374813123184L1097.9883750000001,368.9789754988795L1098.0615937500002,362.26180878281593L1099.08665625,356.65819834646857L1099.9652812499999,349.93451058593666L1100.917125,337.9309421886097L1103.62621875,351.97560324994004L1103.845875,333.6638260402463L1104.50484375,321.07428163019097L1108.9711875,367.9804755957289L1109.04440625,339.2430720925331L1110.7284375,343.65450281717557L1110.94809375,318.70000604607844L1111.3141875,334.5388499823483L1112.632125,351.79713538153607L1115.1215625,338.4956422962926L1115.6340937500001,362.15646981583404L1115.85375,341.7424776784398L1116.65915625,336.35936472632665L1120.32009375,363.9753630764105L1120.75940625,314.38133438608867L1122.88275,348.9885729185559L1124.85965625,272.28687964786184L1125.22575,336.07853656871754L1127.20265625,338.8141092969613L1128.3009375000001,353.06183625757694L1129.98496875,313.3101441480897L1131.2296875,328.5551523457874L1133.35303125,354.55911913785064L1133.719125,283.65144058791077L1134.81740625,350.362222158096L1135.476375,362.59806486083704L1135.98890625,359.5454716994004L1136.57465625,360.53470042009246L1136.94075,346.5172279328108L1137.74615625,310.723349544135L1138.11225,331.7478301823139L1138.47834375,344.44422651827335L1138.8444375000001,343.5600916269151L1138.990875,353.5692686357282L1140.3088125,358.1510776863857L1140.45525,340.7248602306301L1140.52846875,339.110626264052L1141.26065625,339.46510296382684L1141.7731875,361.3318395350467L1142.2125,300.462219549851L1145.06803125,364.14900352060795L1145.21446875,364.3876028880477L1146.53240625,310.5419170422988L1146.97171875,345.06116903370076L1148.2164375,322.8462284776298L1149.2415,334.52642201429063L1150.19334375,320.6747583340515L1150.48621875,368.24259987846017L1150.5594375,351.87652423029596L1150.99875,354.37010013650763L1151.1451875,364.5391566854986L1151.4380625000001,365.62001326273787L1151.51128125,343.8125553158196L1152.68278125,353.10203117132187L1154.1471562499999,355.15499513664025L1155.2454375,361.2667567662217L1156.7098125,351.26663452928716L1157.66165625,352.76616195115173L1157.80809375,363.62574061277235L1158.320625,352.8410566096956L1158.6135,302.3063441135667L1159.56534375,343.6160877048969L1160.5171874999999,342.86826211349535L1161.9815625,352.325299765576L1162.20121875,352.6657678701661L1163.1530625,319.2859054532918L1165.05675,342.03569550134915L1166.8139999999999,347.0422438301824L1168.1319375,330.6048605767163L1168.57125,351.1137503493916L1170.25528125,322.9939698739486L1172.2321875,349.3658959364349L1172.59828125,322.2439865605398L1172.964375,363.39302710240537L1175.3805937500001,344.4124224619432L1176.3324375,349.4719741466371" style="fill: none;" fill="none"></path></g></g></g></g></g></g><g transform="translate(51, 377)" clip-path="url(#clip_1)"><clipPath id="clip_1"><rect width="1317" height="23"></rect></clipPath><g><g><line x1="0" y1="0" x2="0" y2="5" style="visibility: inherit;" fill="rgb(0, 0, 0)" stroke="rgb(204, 204, 204)" stroke-width="1px"></line><line x1="146.4375" y1="0" x2="146.4375" y2="5" style="visibility: inherit;" fill="rgb(0, 0, 0)" stroke="rgb(204, 204, 204)" stroke-width="1px"></line><line x1="292.875" y1="0" x2="292.875" y2="5" style="visibility: inherit;" fill="rgb(0, 0, 0)" stroke="rgb(204, 204, 204)" stroke-width="1px"></line><line x1="439.3125" y1="0" x2="439.3125" y2="5" style="visibility: inherit;" fill="rgb(0, 0, 0)" stroke="rgb(204, 204, 204)" stroke-width="1px"></line><line x1="585.75" y1="0" x2="585.75" y2="5" style="visibility: inherit;" fill="rgb(0, 0, 0)" stroke="rgb(204, 204, 204)" stroke-width="1px"></line><line x1="732.1875" y1="0" x2="732.1875" y2="5" style="visibility: inherit;" fill="rgb(0, 0, 0)" stroke="rgb(204, 204, 204)" stroke-width="1px"></line><line x1="878.625" y1="0" x2="878.625" y2="5" style="visibility: inherit;" fill="rgb(0, 0, 0)" stroke="rgb(204, 204, 204)" stroke-width="1px"></line><line x1="1025.0625" y1="0" x2="1025.0625" y2="5" style="visibility: inherit;" fill="rgb(0, 0, 0)" stroke="rgb(204, 204, 204)" stroke-width="1px"></line><line x1="1171.5" y1="0" x2="1171.5" y2="5" style="visibility: inherit;" fill="rgb(0, 0, 0)" stroke="rgb(204, 204, 204)" stroke-width="1px"></line><line x1="1317.9375" y1="0" x2="1317.9375" y2="5" style="visibility: inherit;" fill="rgb(0, 0, 0)" stroke="rgb(204, 204, 204)" stroke-width="1px"></line></g><g transform="translate(0, 8)"><text x="0" y="0" dx="0em" dy="0.95em" style="text-anchor: middle; visibility: hidden; font-family: Roboto, sans-serif; font-size: 12px; font-weight: 200;" fill="rgb(33, 33, 33)" stroke="none" stroke-width="1px">-2k</text><text x="146.4375" y="0" dx="0em" dy="0.95em" style="text-anchor: middle; visibility: inherit; font-family: Roboto, sans-serif; font-size: 12px; font-weight: 200;" fill="rgb(33, 33, 33)" stroke="none" stroke-width="1px">0</text><text x="292.875" y="0" dx="0em" dy="0.95em" style="text-anchor: middle; visibility: inherit; font-family: Roboto, sans-serif; font-size: 12px; font-weight: 200;" fill="rgb(33, 33, 33)" stroke="none" stroke-width="1px">2k</text><text x="439.3125" y="0" dx="0em" dy="0.95em" style="text-anchor: middle; visibility: inherit; font-family: Roboto, sans-serif; font-size: 12px; font-weight: 200;" fill="rgb(33, 33, 33)" stroke="none" stroke-width="1px">4k</text><text x="585.75" y="0" dx="0em" dy="0.95em" style="text-anchor: middle; visibility: inherit; font-family: Roboto, sans-serif; font-size: 12px; font-weight: 200;" fill="rgb(33, 33, 33)" stroke="none" stroke-width="1px">6k</text><text x="732.1875" y="0" dx="0em" dy="0.95em" style="text-anchor: middle; visibility: inherit; font-family: Roboto, sans-serif; font-size: 12px; font-weight: 200;" fill="rgb(33, 33, 33)" stroke="none" stroke-width="1px">8k</text><text x="878.625" y="0" dx="0em" dy="0.95em" style="text-anchor: middle; visibility: inherit; font-family: Roboto, sans-serif; font-size: 12px; font-weight: 200;" fill="rgb(33, 33, 33)" stroke="none" stroke-width="1px">10k</text><text x="1025.0625" y="0" dx="0em" dy="0.95em" style="text-anchor: middle; visibility: inherit; font-family: Roboto, sans-serif; font-size: 12px; font-weight: 200;" fill="rgb(33, 33, 33)" stroke="none" stroke-width="1px">12k</text><text x="1171.5" y="0" dx="0em" dy="0.95em" style="text-anchor: middle; visibility: inherit; font-family: Roboto, sans-serif; font-size: 12px; font-weight: 200;" fill="rgb(33, 33, 33)" stroke="none" stroke-width="1px">14k</text><text x="1317.9375" y="0" dx="0em" dy="0.95em" style="text-anchor: middle; visibility: hidden; font-family: Roboto, sans-serif; font-size: 12px; font-weight: 200;" fill="rgb(33, 33, 33)" stroke="none" stroke-width="1px">16k</text></g><line x1="0" y1="0" x2="1317.9375" y2="0" fill="rgb(0, 0, 0)" stroke="rgb(204, 204, 204)" stroke-width="1px"></line></g></g></g></g></svg>