<svg viewBox="0 0 330 200" xmlns="http://www.w3.org/2000/svg"><g><g><g><g><g><line x1="50" y1="177" x2="45" y2="177" style="visibility: inherit;" fill="rgb(0, 0, 0)" stroke="rgb(204, 204, 204)" stroke-width="1px"></line><line x1="50" y1="160.9090909090909" x2="45" y2="160.9090909090909" style="visibility: inherit;" fill="rgb(0, 0, 0)" stroke="rgb(204, 204, 204)" stroke-width="1px"></line><line x1="50" y1="144.8181818181818" x2="45" y2="144.8181818181818" style="visibility: inherit;" fill="rgb(0, 0, 0)" stroke="rgb(204, 204, 204)" stroke-width="1px"></line><line x1="50" y1="128.72727272727272" x2="45" y2="128.72727272727272" style="visibility: inherit;" fill="rgb(0, 0, 0)" stroke="rgb(204, 204, 204)" stroke-width="1px"></line><line x1="50" y1="112.63636363636364" x2="45" y2="112.63636363636364" style="visibility: inherit;" fill="rgb(0, 0, 0)" stroke="rgb(204, 204, 204)" stroke-width="1px"></line><line x1="50" y1="96.54545454545453" x2="45" y2="96.54545454545453" style="visibility: inherit;" fill="rgb(0, 0, 0)" stroke="rgb(204, 204, 204)" stroke-width="1px"></line><line x1="50" y1="80.45454545454547" x2="45" y2="80.45454545454547" style="visibility: inherit;" fill="rgb(0, 0, 0)" stroke="rgb(204, 204, 204)" stroke-width="1px"></line><line x1="50" y1="64.36363636363635" x2="45" y2="64.36363636363635" style="visibility: inherit;" fill="rgb(0, 0, 0)" stroke="rgb(204, 204, 204)" stroke-width="1px"></line><line x1="50" y1="48.272727272727266" x2="45" y2="48.272727272727266" style="visibility: inherit;" fill="rgb(0, 0, 0)" stroke="rgb(204, 204, 204)" stroke-width="1px"></line><line x1="50" y1="32.181818181818194" x2="45" y2="32.181818181818194" style="visibility: inherit;" fill="rgb(0, 0, 0)" stroke="rgb(204, 204, 204)" stroke-width="1px"></line><line x1="50" y1="16.090909090909076" x2="45" y2="16.090909090909076" style="visibility: inherit;" fill="rgb(0, 0, 0)" stroke="rgb(204, 204, 204)" stroke-width="1px"></line><line x1="50" y1="0" x2="45" y2="0" style="visibility: inherit;" fill="rgb(0, 0, 0)" stroke="rgb(204, 204, 204)" stroke-width="1px"></line></g><g transform="translate(40, 0)"><text x="0" y="177" dx="0em" dy="0.3em" style="text-anchor: end; visibility: hidden; font-family: Roboto, sans-serif; font-size: 12px; font-weight: 200;" fill="rgb(33, 33, 33)" stroke="none" stroke-width="1px">0</text><text x="0" y="160.9090909090909" dx="0em" dy="0.3em" style="text-anchor: end; visibility: inherit; font-family: Roboto, sans-serif; font-size: 12px; font-weight: 200;" fill="rgb(33, 33, 33)" stroke="none" stroke-width="1px">0.02</text><text x="0" y="144.8181818181818" dx="0em" dy="0.3em" style="text-anchor: end; visibility: hidden; font-family: Roboto, sans-serif; font-size: 12px; font-weight: 200;" fill="rgb(33, 33, 33)" stroke="none" stroke-width="1px">0.04</text><text x="0" y="128.72727272727272" dx="0em" dy="0.3em" style="text-anchor: end; visibility: inherit; font-family: Roboto, sans-serif; font-size: 12px; font-weight: 200;" fill="rgb(33, 33, 33)" stroke="none" stroke-width="1px">0.06</text><text x="0" y="112.63636363636364" dx="0em" dy="0.3em" style="text-anchor: end; visibility: hidden; font-family: Roboto, sans-serif; font-size: 12px; font-weight: 200;" fill="rgb(33, 33, 33)" stroke="none" stroke-width="1px">0.08</text><text x="0" y="96.54545454545453" dx="0em" dy="0.3em" style="text-anchor: end; visibility: inherit; font-family: Roboto, sans-serif; font-size: 12px; font-weight: 200;" fill="rgb(33, 33, 33)" stroke="none" stroke-width="1px">0.1</text><text x="0" y="80.45454545454547" dx="0em" dy="0.3em" style="text-anchor: end; visibility: hidden; font-family: Roboto, sans-serif; font-size: 12px; font-weight: 200;" fill="rgb(33, 33, 33)" stroke="none" stroke-width="1px">0.12</text><text x="0" y="64.36363636363635" dx="0em" dy="0.3em" style="text-anchor: end; visibility: inherit; font-family: Roboto, sans-serif; font-size: 12px; font-weight: 200;" fill="rgb(33, 33, 33)" stroke="none" stroke-width="1px">0.14</text><text x="0" y="48.272727272727266" dx="0em" dy="0.3em" style="text-anchor: end; visibility: hidden; font-family: Roboto, sans-serif; font-size: 12px; font-weight: 200;" fill="rgb(33, 33, 33)" stroke="none" stroke-width="1px">0.16</text><text x="0" y="32.181818181818194" dx="0em" dy="0.3em" style="text-anchor: end; visibility: inherit; font-family: Roboto, sans-serif; font-size: 12px; font-weight: 200;" fill="rgb(33, 33, 33)" stroke="none" stroke-width="1px">0.18</text><text x="0" y="16.090909090909076" dx="0em" dy="0.3em" style="text-anchor: end; visibility: hidden; font-family: Roboto, sans-serif; font-size: 12px; font-weight: 200;" fill="rgb(33, 33, 33)" stroke="none" stroke-width="1px">0.2</text><text x="0" y="0" dx="0em" dy="0.3em" style="text-anchor: end; visibility: hidden; font-family: Roboto, sans-serif; font-size: 12px; font-weight: 200;" fill="rgb(33, 33, 33)" stroke="none" stroke-width="1px">0.22</text></g><line x1="50" y1="0" x2="50" y2="177" fill="rgb(0, 0, 0)" stroke="rgb(204, 204, 204)" stroke-width="1px"></line></g></g><g transform="translate(50, 0)" clip-path="url(#clip_0)"><clipPath id="clip_0"><rect width="280" height="177"></rect></clipPath><g><g><g><line x1="0" y1="0" x2="0" y2="177" fill="rgb(0, 0, 0)" stroke="rgb(66, 66, 66)" stroke-width="1px" opacity="0.25"></line><line x1="31.11111111111111" y1="0" x2="31.11111111111111" y2="177" fill="rgb(0, 0, 0)" stroke="rgb(66, 66, 66)" stroke-width="1px" opacity="0.25"></line><line x1="62.22222222222222" y1="0" x2="62.22222222222222" y2="177" fill="rgb(0, 0, 0)" stroke="rgb(66, 66, 66)" stroke-width="1px" opacity="0.25"></line><line x1="93.33333333333333" y1="0" x2="93.33333333333333" y2="177" fill="rgb(0, 0, 0)" stroke="rgb(66, 66, 66)" stroke-width="1px" opacity="0.25"></line><line x1="124.44444444444444" y1="0" x2="124.44444444444444" y2="177" fill="rgb(0, 0, 0)" stroke="rgb(66, 66, 66)" stroke-width="1px" opacity="0.25"></line><line x1="155.55555555555557" y1="0" x2="155.55555555555557" y2="177" fill="rgb(0, 0, 0)" stroke="rgb(66, 66, 66)" stroke-width="1px" opacity="0.25"></line><line x1="186.66666666666666" y1="0" x2="186.66666666666666" y2="177" fill="rgb(0, 0, 0)" stroke="rgb(66, 66, 66)" stroke-width="1px" opacity="0.25"></line><line x1="217.77777777777777" y1="0" x2="217.77777777777777" y2="177" fill="rgb(0, 0, 0)" stroke="rgb(66, 66, 66)" stroke-width="1px" opacity="0.25"></line><line x1="248.88888888888889" y1="0" x2="248.88888888888889" y2="177" fill="rgb(0, 0, 0)" stroke="rgb(66, 66, 66)" stroke-width="1px" opacity="0.25"></line><line x1="280" y1="0" x2="280" y2="177" fill="rgb(0, 0, 0)" stroke="rgb(66, 66, 66)" stroke-width="1px" opacity="0.25"></line></g><g><line x1="0" y1="177" x2="280" y2="177" fill="rgb(0, 0, 0)" stroke="rgb(66, 66, 66)" stroke-width="1px" opacity="0.25"></line><line x1="0" y1="160.9090909090909" x2="280" y2="160.9090909090909" fill="rgb(0, 0, 0)" stroke="rgb(66, 66, 66)" stroke-width="1px" opacity="0.25"></line><line x1="0" y1="144.8181818181818" x2="280" y2="144.8181818181818" fill="rgb(0, 0, 0)" stroke="rgb(66, 66, 66)" stroke-width="1px" opacity="0.25"></line><line x1="0" y1="128.72727272727272" x2="280" y2="128.72727272727272" fill="rgb(0, 0, 0)" stroke="rgb(66, 66, 66)" stroke-width="1px" opacity="0.25"></line><line x1="0" y1="112.63636363636364" x2="280" y2="112.63636363636364" fill="rgb(0, 0, 0)" stroke="rgb(66, 66, 66)" stroke-width="1px" opacity="0.25"></line><line x1="0" y1="96.54545454545453" x2="280" y2="96.54545454545453" fill="rgb(0, 0, 0)" stroke="rgb(66, 66, 66)" stroke-width="1px" opacity="0.25"></line><line x1="0" y1="80.45454545454547" x2="280" y2="80.45454545454547" fill="rgb(0, 0, 0)" stroke="rgb(66, 66, 66)" stroke-width="1px" opacity="0.25"></line><line x1="0" y1="64.36363636363635" x2="280" y2="64.36363636363635" fill="rgb(0, 0, 0)" stroke="rgb(66, 66, 66)" stroke-width="1px" opacity="0.25"></line><line x1="0" y1="48.272727272727266" x2="280" y2="48.272727272727266" fill="rgb(0, 0, 0)" stroke="rgb(66, 66, 66)" stroke-width="1px" opacity="0.25"></line><line x1="0" y1="32.181818181818194" x2="280" y2="32.181818181818194" fill="rgb(0, 0, 0)" stroke="rgb(66, 66, 66)" stroke-width="1px" opacity="0.25"></line><line x1="0" y1="16.090909090909076" x2="280" y2="16.090909090909076" fill="rgb(0, 0, 0)" stroke="rgb(66, 66, 66)" stroke-width="1px" opacity="0.25"></line><line x1="0" y1="0" x2="280" y2="0" fill="rgb(0, 0, 0)" stroke="rgb(66, 66, 66)" stroke-width="1px" opacity="0.25"></line></g></g></g><g><g><line x1="0" y1="177" x2="280" y2="177" fill="rgb(0, 0, 0)" stroke="rgb(153, 153, 153)" stroke-width="1.5px"></line></g></g><g><g><line x1="31.11111111111111" y1="0" x2="31.11111111111111" y2="177" fill="rgb(0, 0, 0)" stroke="rgb(153, 153, 153)" stroke-width="1.5px"></line></g></g><g><g><g><g><g><path stroke="rgb(255, 112, 67)" stroke-width="2px" d="M39.69777777777778,-40.724125979779444L39.88444444444445,1.6585589929887679L40.257777777777775,-4.8793851004892295L40.32,4.359202481094994L40.50666666666667,-34.71071539324415L41.00444444444444,-26.410682874892974L41.06666666666667,17.961402711943958L41.25333333333334,9.867689058191251L41.626666666666665,14.221668545662288L42.12444444444444,-12.559091859744312L42.31111111111111,17.966495136620765L42.497777777777785,14.175872860261439L42.62222222222223,35.90137078106076L42.74666666666667,52.566579680131696L42.995555555555555,13.310027869402806L43.30666666666667,31.764817473607224L43.36888888888889,40.06366841850404L43.49333333333333,13.205477080245593L44.42666666666667,42.459198866465954L44.48888888888889,34.63359109141347L44.73777777777777,62.043821177895076L44.86222222222222,30.254517173882977L45.42222222222222,-3.5938964639325235L45.85777777777778,20.277416575516703L46.044444444444444,40.41192386010687L46.480000000000004,57.04717588481774L46.91555555555556,65.32980710573209L47.28888888888889,46.97530820769572L47.35111111111111,45.27936218046467L47.413333333333334,52.49550658166223L47.47555555555555,6.5690982356385295L47.66222222222222,5.604176380210973L47.848888888888894,20.257258893019085L48.284444444444446,14.504176533798054L48.47111111111111,10.810534997548631L48.782222222222224,34.87282952728195L49.03111111111111,70.92860904860798L49.093333333333334,59.4181392413981L49.217777777777776,63.180922095605894L49.59111111111111,53.459607549738905L49.653333333333336,45.98180662234006L49.839999999999996,44.764491604151054L50.026666666666664,56.709354743643196L50.08888888888889,71.21192360239243L50.46222222222222,68.01819508481417L50.52444444444444,77.62887618232442L50.586666666666666,82.66222854211948L50.71111111111111,85.00912456908291L50.77333333333334,94.52580538347803L50.96,107.50167165534599L51.14666666666667,78.91154714373344L51.519999999999996,54.04793347305791L52.08,68.39993607578175L52.702222222222225,52.611451682910314L52.76444444444444,60.654591554517914L52.82666666666667,80.05616545434805L53.2,94.3845528961941L53.69777777777777,88.55141855326008L53.76,99.92642894956948L53.94666666666667,112.43173733857995L54.32,81.27372130404005L54.50666666666666,76.16800195474569L54.56888888888889,86.62881394651292L55.004444444444445,99.28147555898231L55.12888888888889,106.08591379610876L55.31555555555556,107.4518453363776L55.937777777777775,111.9116726107283L56.06222222222222,114.90446766265804L56.18666666666667,96.13855678847395L56.31111111111111,101.25189171439985L56.373333333333335,91.6079672040031L56.43555555555555,95.38275946961934L56.684444444444445,69.03086765552543L57.55555555555555,61.93533123156961L57.61777777777778,77.06562438869308L57.68,72.47857481777785L57.86666666666667,67.91904476227612L58.17777777777778,97.91806126012844L58.675555555555555,91.7297795068778L58.86222222222222,78.7956259573976L59.04888888888888,96.49069476929729L59.111111111111114,81.8986380180888L59.23555555555556,74.84189998395281L59.48444444444444,91.28886172834169L59.733333333333334,87.55816335802427L60.41777777777778,104.87685264596975L60.54222222222222,120.55190213509364L60.60444444444444,98.8027632485019L60.66666666666667,98.72936834558605L60.791111111111114,99.98915588818481L61.16444444444444,96.73068505178115L61.22666666666667,78.99587691163607L61.413333333333334,111.54642354788642L61.47555555555556,102.76079845578285L61.97333333333333,72.4683675178934L62.09777777777777,80.26657908558595L62.22222222222222,91.29623091296565L62.284444444444446,93.78885066500486L62.40888888888889,105.17627911345689L62.471111111111114,113.34087788535346L62.595555555555556,81.208124373287L62.657777777777774,99.28341515135929L62.96888888888889,106.15783463174311L63.093333333333334,73.3853424629278L63.217777777777776,89.77664128622023L63.28,104.92610811807168L63.84,109.23690033706318L64.02666666666667,108.06743112112999L64.58666666666666,115.43328916970442L64.71111111111111,109.09502796063589L64.77333333333334,102.97227722245316L65.39555555555555,116.65048914102881L65.64444444444445,108.07822351804097L65.7688888888889,93.71724747238264L66.01777777777778,77.19199121366564L66.20444444444445,94.83306845322352L66.39111111111112,99.00330853800672L66.76444444444444,88.74407629194458L66.88888888888889,78.94951781264685L66.9511111111111,101.74839984013231L67.13777777777779,78.56227842513513L67.57333333333334,87.6016584016961L67.82222222222222,105.6428550932023L67.88444444444444,82.32062939939358L68.19555555555556,84.97954481488578L68.63111111111111,115.90281125461907L68.81777777777778,120.64179108636723L69.12888888888888,130.06676593020214L69.19111111111111,123.7943286123824L69.56444444444445,132.8754330396786L69.62666666666667,138.0674316407414L69.93777777777777,109.92661494522143L70.18666666666667,122.56377948771679L70.37333333333333,91.9710701194451L70.43555555555555,83.54169656557119L70.49777777777777,110.24996606325293L70.56,117.18593024609686L71.49333333333334,129.21976382780088L71.55555555555554,96.17629416732794L71.61777777777777,107.88296969394081L71.80444444444444,113.74747722596587L72.05333333333334,102.61644020392531L72.11555555555555,103.0941905215948L72.24000000000001,105.65318600042984L72.86222222222223,105.6208859659041L73.0488888888889,110.15425529991958L73.73333333333332,97.95767015168295L73.98222222222223,103.78789513676898L74.10666666666667,104.93062259720936L74.16888888888889,94.39869149145154L74.48,95.1799662643039L74.66666666666667,113.20779352630812L74.72888888888889,116.34203450501073L75.04,117.73236272325364L75.28888888888889,119.12860728745717L75.41333333333333,110.39482966872544L75.47555555555556,118.21173324202266L75.60000000000001,128.82109717464576L76.16000000000001,138.6931910214356L76.22222222222221,125.68166744098257L76.9688888888889,123.81099658296169L77.46666666666667,123.91585896012039L77.71555555555555,114.74774200459251L78.08888888888889,110.33386219043041L78.58666666666667,114.71146779790983L79.02222222222221,116.23917682381659L79.39555555555556,117.25671799645319L79.52,135.24501076073562L80.08,131.61412624664862L80.3288888888889,110.91080449528334L80.45333333333333,125.12544976070535L80.57777777777778,127.53898852702982L80.64,112.05745531646072L80.70222222222222,111.47093933376628L80.76444444444445,121.13850684197521L81.13777777777779,117.54671151884553L81.75999999999999,90.01193283792503L82.00888888888888,84.25416942875918L82.07111111111111,90.81026672983967L82.44444444444444,71.30651146949033L82.69333333333333,84.81251954305588L82.94222222222223,85.07646768469843L83.06666666666668,95.8862779758039L83.31555555555556,120.65793784836907L83.37777777777777,97.45214461964896L83.50222222222222,99.64725144045346L83.56444444444445,119.43048321995124L83.68888888888888,130.58274504391866L83.81333333333333,124.5410154859227L83.93777777777777,127.43357281739075L84.06222222222222,140.67524188074205L84.18666666666667,130.4844076142745L84.37333333333333,137.3594155911229L84.68444444444445,144.31286152771844L84.93333333333334,123.41205161825586L85.43111111111111,123.03377504249781L86.17777777777778,92.96089720948397L86.55111111111111,102.088299321837L86.8,113.63639701007574L86.86222222222223,117.36268491234914L87.04888888888888,91.07908636632393L87.54666666666667,98.34101862058377L87.85777777777777,121.37504398838969L87.92,119.54491019963092L88.04444444444445,106.93640332108602L88.16888888888889,112.85058771238788L88.23111111111112,131.16992117360326L88.54222222222222,120.23728709239636L88.72888888888889,116.00499356985505L88.79111111111112,114.74764655406074L89.10222222222222,134.99335170652256L89.72444444444444,125.28111037206848L90.09777777777778,125.8921899148086L90.53333333333333,116.68111514520022L90.59555555555555,117.3989972088473L90.90666666666667,111.68940256970095L90.96888888888888,122.23254404734841L91.09333333333332,108.19135706152916L91.46666666666667,125.83948640730728L91.52888888888889,132.36840739237948L92.33777777777777,137.57584186508686L92.58666666666667,142.83975112641872L92.64888888888889,149.18581943661258L92.83555555555556,118.58233217133888L93.2088888888889,127.58254341730849L93.27111111111111,129.90015151280878L94.57777777777778,143.33414028352817L94.76444444444444,134.7781881559597L94.8888888888889,139.2885347691762L94.9511111111111,135.52602784153257L95.07555555555555,144.0220611318842L95.44888888888889,142.0641985566716L95.5111111111111,150.3930350529568L95.57333333333332,145.14374005556965L96.07111111111111,138.07477349090007L96.25777777777778,142.4837451252188L96.44444444444444,139.87105582302974L96.56888888888889,145.61201862305828L96.63111111111111,129.38600751915558L96.88,120.80221870419591L97.44,124.59522194924644L97.56444444444445,124.44523213283018L97.81333333333333,130.79010555052417L98,125.63165556622648L98.06222222222222,141.2012069714688L98.37333333333333,146.80736859694855L98.93333333333334,126.64415057876603L98.99555555555555,127.85599101032335L99.30666666666667,141.92680161698337L99.43111111111111,132.44510729992413L99.55555555555556,117.32400887214283L100.05333333333333,135.5346145730314L100.11555555555556,147.1557613895675L100.48888888888888,142.6982956547615L100.8,119.61569756220602L100.86222222222221,100.57638860694878L100.98666666666668,114.55318396306875L101.11111111111111,132.31798028305732L101.23555555555556,113.32595375554733L101.48444444444445,127.60472859666928L101.54666666666668,132.4116694959662L101.79555555555557,124.26343372821417L101.85777777777777,141.34771928960936L102.41777777777777,138.7381151706107L102.48,128.23805687151932L102.66666666666666,131.02457731748083L102.85333333333334,136.96737831458668L103.16444444444446,121.4903157325644L103.72444444444444,115.99973397305145L103.78666666666666,125.03840513980165L104.03555555555555,126.86405748834044L104.09777777777778,127.34807631417193L104.16,141.17653555530572L104.40888888888888,131.42078189060956L104.59555555555555,132.4337936090147L104.84444444444445,140.0292915046967L105.03111111111112,148.8470788077784L105.21777777777777,147.53925783438572L105.71555555555555,142.18548973638036L106.08888888888889,150.85690987076023L106.15111111111112,145.47075329835968L106.21333333333334,133.45021955954667L106.27555555555556,136.61617667223322L106.33777777777777,147.38611782948993L106.4,135.40006746864807L106.96000000000001,138.39249709285468L107.02222222222223,137.96266147895773L107.08444444444444,134.98928631920452L107.52,96.53358212891882L107.89333333333335,113.59335251971824L108.20444444444443,83.41867135848358L108.51555555555555,98.58606447346823L108.57777777777778,125.30300701179071L108.82666666666667,130.2029453489984L109.26222222222223,133.10442354902275L109.57333333333332,131.00166166959627L109.69777777777777,124.57645446307153L109.76,128.58343800805568L110.00888888888889,123.85671352686025L110.19555555555556,137.78667689142276L110.56888888888889,148.04448011601738L110.69333333333333,155.51723386045612L110.75555555555556,154.6648419676366L110.94222222222221,155.71719045522303L111.50222222222222,141.84157762685007L111.6888888888889,116.81140560147136L111.87555555555555,127.02575074060759L112.12444444444444,128.87340341435996L112.43555555555555,127.38760670840654L112.62222222222222,137.62126728324404L112.74666666666667,138.2036496315281L112.8711111111111,147.33353036941554L113.18222222222222,148.2318033043992L113.55555555555556,145.85477931368874L113.61777777777777,141.51186264333606L113.86666666666667,123.23155274041798L114.24,119.9478878235445L114.73777777777778,127.6811448539489L115.79555555555555,116.84278876487305L116.04444444444445,123.86396716152687L116.66666666666667,123.25851386203857L117.03999999999999,133.23826897689398L117.22666666666667,146.85476361968878L117.41333333333333,135.055944480596L117.53777777777779,114.07745921173304L117.72444444444444,129.0817569939357L118.28444444444445,110.31091807662727L118.59555555555556,129.38758810280243L118.78222222222222,132.6206076955813L119.52888888888889,135.04567730982842L119.84,124.32366414891438L119.96444444444445,135.33246975177758L120.27555555555556,146.5261279747576L120.52444444444446,151.9847500808542L120.58666666666666,151.41109484386746L120.71111111111111,156.3987803807179L120.77333333333334,132.6459185191367L120.96,107.91057727982843L121.20888888888888,123.04458213814425L121.27111111111111,140.2605003420069L121.33333333333334,136.19445376173528L121.52,148.59229750563318L121.89333333333335,149.84301325620615L121.95555555555555,148.88989466800226L122.14222222222223,148.27444952597037L122.20444444444445,157.40089215108236L122.32888888888888,140.7578422416087L122.76444444444445,126.88458570012828L122.88888888888889,136.34049055135424L123.01333333333334,130.2699742191043L123.13777777777777,143.58862987907406L124.50666666666666,145.22471713194437L124.88,134.18678322535268L125.1288888888889,131.20714812962396L125.75111111111111,125.72785318839009L125.81333333333333,127.23889264514337L125.87555555555555,126.78495549427011L125.93777777777778,129.80038411586497L126.06222222222223,132.77472459016016L126.31111111111112,131.0444343499788L126.49777777777778,123.54079064096607L126.56,134.9903229884243L126.62222222222223,138.51256353574067L127.12,107.0724556500737L127.30666666666667,114.40379613911709L127.74222222222221,124.69140219148267L127.80444444444444,120.2308982394061L127.86666666666666,128.86700575135586L127.99111111111112,128.3936342114247L128.24,138.43363935069283L128.48888888888888,138.0001483264167L128.5511111111111,140.07017235988155L128.67555555555555,137.354106206445L129.23555555555555,143.57658423164918L129.29777777777778,149.15434319294243L129.67111111111112,157.73376698409115L129.79555555555555,142.14970765290508L130.04444444444445,132.45332723777747L130.35555555555555,142.4780062501451L130.7911111111111,144.6865964565116L131.10222222222222,137.6957975437306L131.16444444444446,145.1192753024301L131.41333333333333,152.96793677695186L131.5377777777778,156.55437303289148L131.6,156.34934605671498L131.66222222222223,141.73821466871223L131.8488888888889,140.35439456337653L133.0311111111111,140.56213476233785L133.15555555555557,146.07744276358548L133.28,131.9998500245119L133.46666666666667,110.64875428389608L133.65333333333334,116.94838293987085L133.84,132.59379998937155L133.9022222222222,138.73297054932547L134.27555555555557,125.57808369724663L134.33777777777777,140.10483516366148L134.83555555555557,143.2425504555591L134.96,139.32008750185733L135.0222222222222,142.49628513883408L135.2711111111111,146.87529755851867L135.51999999999998,154.77984555895148L135.5822222222222,157.48485646786213L136.07999999999998,157.05815376290468L136.32888888888888,153.30297273339826L136.51555555555555,146.11744823746358L136.70222222222222,145.4931804484222L137.32444444444445,143.63529625511728L137.57333333333332,144.11604438626887L137.69777777777776,124.66845657957973L137.94666666666666,105.5846218330574L138.07111111111112,119.6493372957383L138.13333333333333,119.10219122250092L138.32,126.80672519183773L138.38222222222223,136.6967683074381L138.5688888888889,146.34412802396886L138.81777777777776,142.88628806798317L138.94222222222223,152.1200934665665L139.06666666666666,156.29870752903503L139.1911111111111,144.35214184768606L139.44,151.1467443116815L139.62666666666667,130.19948391259487L139.6888888888889,141.46680285106927L140,113.9926091938014L140.12444444444446,131.11697538940336L140.49777777777777,140.6039981908313L140.99555555555554,135.40472029736816L141.12,146.13545518734398L141.18222222222224,136.85715651284661L141.55555555555554,138.16502129976374L141.68,146.40057580898494L141.9911111111111,121.61247726328438L142.0533333333333,133.8019768193472L142.36444444444444,145.59645377666408L142.42666666666668,154.30542438844506L142.48888888888888,137.88912376968227L142.73777777777778,131.23717499120116L142.8,135.3988026685465L142.98666666666668,145.58400959170098L143.04888888888888,150.85558816105592L143.36,141.39286346078742L143.48444444444445,137.44383058398913L143.79555555555555,124.79913049066579L143.92000000000002,137.45515100109017L144.1688888888889,141.6274211037819L144.66666666666669,119.20488009027626L144.9777777777778,131.5145502734682L145.04,141.0508329274086L145.2266666666667,143.1691045932884L145.72444444444446,135.73971730688518L145.97333333333333,133.40861093451346L146.22222222222223,136.71347066838496L146.40888888888887,115.71269455219857L146.4711111111111,101.10219071253923L146.53333333333333,126.07044793727326L146.96888888888887,134.45446084910392L147.09333333333333,136.20761451868108L147.28,149.22587201343438L147.84,145.240899222445L147.90222222222224,150.95326825506942L148.02666666666664,138.3018822983189L148.21333333333334,129.93239195492114L148.52444444444447,134.43867928754673L148.83555555555554,142.29294791191018L149.58222222222224,143.32927774898633L149.64444444444445,142.76745068600866L149.70666666666665,140.42889896104663L149.8311111111111,137.9253214932405L149.95555555555555,134.7203630778256L150.01777777777778,129.88268066592482L150.14222222222224,122.71967976127004L150.51555555555555,127.11590308773154L150.57777777777778,142.49190373690507L150.70222222222225,140.30546157261858L150.76444444444442,138.74755417282603L151.38666666666666,139.3729134365794L151.63555555555556,126.93703451976803L152.44444444444443,139.64949865137007L152.88000000000002,141.27063074135734L153.25333333333333,152.72014224124956L153.56444444444443,157.51342016154967L154.0622222222222,161.60228309516953L154.12444444444444,161.46552606554644L154.37333333333333,149.61958995242009L154.8711111111111,142.54890660620276L154.93333333333334,148.83298677947954L155.1822222222222,145.89519792021144L155.30666666666667,142.64393566463704L155.61777777777777,146.8236187360815L155.68,150.924664746948L155.7422222222222,155.70409909993447L155.86666666666667,160.6323426780161L156.11555555555557,152.6376639227305L156.36444444444444,142.31695619860875L156.8,142.5324591504094L157.11111111111111,146.1931422535513L157.92,131.3149359433395L158.10666666666665,136.77425970269314L158.1688888888889,123.25980305344612L158.4177777777778,128.94928960332996L158.54222222222222,129.59434042579855L159.5377777777778,119.94971334136409L159.6,106.33152139412582L160.28444444444443,127.89749262617362L160.53333333333333,135.50935914963466L161.2177777777778,132.0265843975814L162.0888888888889,146.37149165173003L162.1511111111111,152.58900405282102L162.21333333333334,158.90407000039522L162.33777777777777,144.6208812066639L162.7111111111111,136.03403514491413L162.77333333333334,146.66651814500625L163.2711111111111,148.55663904711415L164.07999999999998,139.49316210574068L164.26666666666668,148.069900965982L164.32888888888888,148.86827357054983L164.57777777777775,154.63641045844207L164.82666666666665,147.89414200588365L164.88888888888889,156.34396698553306L164.95111111111112,160.38638243073407L165.07555555555558,161.97491972253323L165.32444444444445,155.71877918875305L165.4488888888889,151.16432541072203L165.69777777777776,147.77486990855942L166.07111111111112,154.21668875685327L166.44444444444446,146.80166164240023L166.75555555555553,127.91806314165406L167.31555555555553,140.70137089261962L167.6888888888889,150.8414277276343L167.81333333333336,129.594947658075L168.68444444444444,139.7302949814918L168.74666666666667,144.82748602779424L168.8088888888889,148.74667886439718L168.87111111111113,153.31972831053156L169.1822222222222,156.45357790978863L169.3688888888889,142.22084846838675L169.4933333333333,143.4568445206707L169.7422222222222,150.43376238484967L169.86666666666667,151.33835749408746L169.99111111111114,144.81821342646674L170.61333333333332,137.68471369593553L170.92444444444445,132.97263960510023L170.98666666666668,143.03572448785457L171.11111111111111,150.51925034422706L171.23555555555555,153.9984231754267L171.54666666666668,159.18060802332573L172.10666666666668,144.44013029338672L172.1688888888889,155.62491424867068L172.54222222222222,153.22329067824867L172.60444444444445,144.25736339689627L172.85333333333332,146.46241934343612L172.91555555555556,143.90926448685948L173.10222222222222,153.26765798703556L173.16444444444446,155.7645220548906L173.3511111111111,158.09029932225823L173.41333333333333,158.18083584373966L173.72444444444446,162.1614980490904L174.22222222222223,152.77275311817317L174.78222222222223,154.28137960329136L174.84444444444446,128.65374498109347L174.90666666666667,133.19279104251405L175.21777777777777,128.9449966390383L175.40444444444447,132.3873622600814L175.5288888888889,143.01650733381715L176.1511111111111,150.39758801117935L176.7733333333333,130.21200916941024L177.14666666666668,140.65035947887768L177.20888888888888,140.44899586331593L177.33333333333331,151.47402160995884L177.45777777777778,146.51701900388466L177.70666666666668,127.6162390905523L177.8311111111111,142.9114132010229L178.08,148.3380789127738L178.51555555555555,144.9771997727302L178.82666666666668,134.47964976955987L178.9511111111111,145.04472171028902L179.07555555555555,144.5758349978734L180.13333333333333,151.5540942802857L180.56888888888886,156.7704640625723L180.75555555555556,156.873558913913L180.8177777777778,154.09394659577245L181.00444444444446,122.80303702883438L181.06666666666666,133.16236659773787L181.1911111111111,147.4324248869444L181.31555555555556,144.09548013633747L181.50222222222223,152.77355265589674L181.56444444444446,151.61538319408533L181.62666666666667,144.42107684683583L181.81333333333333,148.19594879745873L182,144.27098216836765L182.06222222222223,144.66836269604957L182.3111111111111,138.2425458433876L182.37333333333333,149.78134620239325L182.49777777777777,142.19930838538835L182.93333333333334,149.07882935360342L183.36888888888888,144.83385555451997L184.17777777777778,140.06677257367957L184.5511111111111,127.4211602692381L184.61333333333334,143.3640718984622L184.67555555555555,150.07368931232907L184.8,154.22911773426924L184.98666666666665,123.78480708942605L185.79555555555555,141.5742262813469L186.04444444444442,147.69546112712527L186.10666666666665,138.40554570190437L186.60444444444443,143.9269671986621L186.9777777777778,132.19651837214195L187.22666666666666,146.19444830930126L187.2888888888889,137.76302512064566L187.41333333333333,136.19251204584126L187.66222222222223,148.64613046075536L187.78666666666666,152.0201547063654L187.8488888888889,150.58901560626202L188.03555555555556,153.92574445891896L188.0977777777778,159.30831067399475L188.6577777777778,155.71968490670986L189.09333333333333,144.0957821584287L189.28,140.35644294723582L189.52888888888887,129.28705656471678L190.1511111111111,129.83816846737597L190.21333333333334,146.68857876228887L190.77333333333334,145.16502601555456L191.64444444444445,143.83776389315244L191.76888888888888,151.58527610020187L191.8311111111111,153.81651559931572L192.39111111111112,154.37459842296508L192.51555555555555,157.8831866963358L192.57777777777778,157.2039976023553L192.76444444444445,157.20887611877973L193.4488888888889,157.69250659470808L193.63555555555556,140.7995401510193L193.6977777777778,147.2046963945006L193.88444444444443,138.91530066254313L193.94666666666666,141.38073918236836L194.0088888888889,142.81847596853916L194.13333333333333,153.33441855621032L194.2577777777778,152.9627932662198L194.63111111111112,156.0338592930204L194.88,160.5144294384622L195.06666666666666,164.03121081424592L195.44,161.8982219884402L195.9377777777778,160.76633280995583L196,157.62543855773538L196.12444444444444,145.47426726240374L196.2488888888889,155.2880351219004L196.37333333333333,146.5235460414544L196.68444444444444,144.5705533667294L196.74666666666667,152.5772419440219L196.99555555555557,149.47117009673423L197.05777777777777,153.37230784232125L197.1822222222222,144.19811908813054L197.24444444444444,152.0857985265033L197.49333333333334,152.1142784036926L197.67999999999998,143.24716452498353L198.3022222222222,149.68679426089216L198.42666666666668,150.9012679299052L198.67555555555558,155.3574487837536L198.73777777777775,138.7794637343895L198.86222222222221,142.92842898763163L198.92444444444445,147.36102510688866L199.29777777777775,154.3699154182211L199.42222222222222,155.96503416361207L199.54666666666668,159.3995365354309L199.79555555555558,155.95005911009844L199.85777777777776,161.35783211200925L200.29333333333335,151.2652520534149L200.60444444444445,129.69078331895452L200.79111111111112,138.49222968371652L200.91555555555553,146.7038750665412L201.2888888888889,147.68264899057303L201.35111111111112,147.5672423088679L202.03555555555553,151.77649143736699L202.16,157.08008982432838L202.47111111111113,155.4032098807381L202.78222222222223,151.3509710291968L202.84444444444443,146.2447523301808L202.9688888888889,134.4470570157097L203.15555555555554,146.51703989124508L203.21777777777777,147.1995383743689L203.46666666666667,144.88560080385588L203.65333333333334,146.25387272451152L203.71555555555554,153.85070957147377L204.0888888888889,158.60963764485243L204.6488888888889,149.93124154489786L205.2088888888889,151.49669527836662L205.45777777777778,150.82376888454408L205.5822222222222,127.21608098781375L205.64444444444445,137.25445863268536L205.70666666666668,141.09799930793557L206.3288888888889,134.86309434650576L207.01333333333332,147.8120253186798L207.13777777777779,146.23888344122676L207.4488888888889,149.6993682020582L207.63555555555556,141.2994780966935L207.69777777777776,136.4125768998659L207.76,140.16419289764144L207.82222222222222,142.80662826046085L208.19555555555556,150.20036339775655L208.44444444444446,151.6832198971647L208.5688888888889,140.73686457393126L209.31555555555553,148.87131524730438L209.6888888888889,152.6740994817213L209.81333333333333,149.27077071356857L210.49777777777777,156.38243690945555L210.74666666666667,154.72274020761054L210.8711111111111,141.4241739337812L210.99555555555554,141.30892355348234L211.12,152.52565080200338L211.18222222222224,142.10680871390306L211.30666666666667,149.4808588340949L211.55555555555554,154.86104298445736L211.74222222222224,143.21999005563947L212.0533333333333,151.86516272735423L212.61333333333332,153.51237244921927L212.8,144.1184418896101L212.98666666666668,143.95227602011445L213.1111111111111,143.71764890863207L213.17333333333332,135.33605854113034L213.23555555555555,137.13286673203947L213.48444444444445,148.62169130075208L213.6711111111111,136.8129756075201L213.92000000000002,145.69876111457367L214.04444444444445,123.78230843706879L214.4177777777778,130.23748060486724L214.60444444444445,135.28553627303629L214.91555555555556,136.24623804693073L215.16444444444446,146.24770420394222L215.2266666666667,146.1777241238793L215.28888888888886,152.67457145369727L215.41333333333333,157.17309419883026L215.72444444444446,158.53427442071117L215.84888888888887,156.80939830323783L215.97333333333333,156.92093334674186L216.16,160.87887696765924L216.34666666666666,156.6602443666749L216.59555555555556,154.80024042956623L216.72,157.31704287626988L216.78222222222223,151.95897422182836L216.96888888888887,159.9435075176337L217.0311111111111,146.37157141012693L217.09333333333333,152.29374599877823L217.21777777777777,144.95155496470608L217.52888888888887,143.98158290673237L217.96444444444447,149.33285239058642L218.02666666666664,152.8469505948896L218.1511111111111,150.13798408494117L218.77333333333334,152.0970203523706L218.83555555555554,124.20511406548226L219.02222222222224,125.34134331820307L219.08444444444447,138.94444285739922L219.2711111111111,146.6581640160919L219.39555555555555,142.14855079480327L219.52,143.1498124715477L219.70666666666665,135.49706298104573L219.76888888888888,130.4915047482513L220.32888888888888,142.06515695861518L220.51555555555555,140.73583870656213L221.26222222222225,143.04002619212116L221.94666666666666,125.28193325816375L222.13333333333333,135.6593966005643L222.6311111111111,146.19035856223863L223.25333333333333,143.8271385064257L223.62666666666667,141.4334145458496L223.6888888888889,150.79512661582513L224.3111111111111,145.83027186461425L224.37333333333333,155.82858067115572L224.6222222222222,152.38141152694263L225.24444444444444,144.8701642051495L225.4311111111111,138.17070520789366L225.7422222222222,136.26152457084459L225.80444444444444,150.12473137403657L225.86666666666667,139.07550793695256L225.92888888888888,141.15362285775805L225.9911111111111,145.15481725699877L226.05333333333334,141.52243420998556L226.24,151.66101120343174L226.48888888888888,158.7420147578061L226.61333333333334,159.34663415319022L226.86222222222221,156.672620285386L226.98666666666665,156.35549809050428L227.17333333333335,142.32322409674825L227.23555555555555,150.8398839484173L227.48444444444445,154.81025028475685L227.73333333333335,154.43150891565963L227.79555555555555,151.46654174476348L227.98222222222222,157.20954109355498L228.29333333333335,143.62883173247445L228.60444444444443,142.68060919318577L229.04,149.4919238660356L229.6,152.28066971740844L229.97333333333333,141.18375324241626L230.0977777777778,110.27001631875221L230.16,129.88620166511058L230.34666666666666,132.05329412375684L230.59555555555556,122.28842264343542L230.72,137.7139170315979L231.0311111111111,139.8329766900339L231.09333333333333,147.492500035443L231.28,154.13595235704068L231.40444444444444,149.00378169278963L231.9022222222222,154.2604018443104L231.96444444444444,155.1952331278868L232.02666666666667,159.94657161367547L232.0888888888889,156.3004591808312L232.27555555555557,158.13016401841708L232.33777777777777,150.51984340562558L232.39999999999998,141.08963407020974L232.95999999999998,132.70247070591736L233.0222222222222,132.08885044271946L233.08444444444444,146.35246590630152L233.14666666666668,150.65837833348476L233.5822222222222,154.05320630653296L233.64444444444445,147.09248315259518L234.14222222222222,138.2295927614579L234.64,134.94039759915907L235.57333333333335,145.71732373885146L236.07111111111112,152.67899298173197L236.38222222222223,153.72686995377435L236.44444444444446,148.28400205721272L236.75555555555553,142.5800117569338L237.37777777777777,135.66111365875807L237.50222222222223,140.51412037672415L237.56444444444443,147.79614878853883L237.75111111111113,150.81600721601353L237.81333333333336,144.9766098399925L238.31111111111113,143.06663617702858L238.43555555555554,139.99618767626603L238.74666666666667,148.89825352617433L238.8088888888889,155.83951508624804L239.24444444444444,153.5811856726939L239.3688888888889,157.92152425703125L240.17777777777778,157.80876852077455L240.92444444444445,134.1601306227252L240.98666666666668,148.51715668921557L241.29777777777778,146.6827553980642L241.35999999999999,141.49863025277324L241.54666666666668,153.66554704516403L241.6088888888889,156.2469520093647L241.73333333333332,148.30538231778212L242.1688888888889,155.66047196327486L242.54222222222222,140.7665446780634L242.91555555555556,146.64555560462927L243.41333333333333,154.92922653727683L243.53777777777776,145.02435796515644L243.6,146.4391984853536L243.66222222222223,151.21605346689054L243.72444444444446,139.2586001125161L243.9111111111111,148.84585159591126L244.03555555555556,148.506306207334L244.16,153.1020585793097L245.28,159.23683913222078L245.40444444444447,164.73156242774013L245.84,161.2849000390372L246.1511111111111,148.38181768388105L246.2133333333333,145.91037568739117L246.27555555555554,130.92330114039598L246.33777777777777,147.16898478373668L246.46222222222224,153.1893281108155L246.7111111111111,157.7501528336983L247.14666666666668,152.71990390619467L247.20888888888888,127.74419850653364L247.39555555555555,142.68098599328533L247.45777777777778,152.0047567026877L247.58222222222224,141.5152913056054L247.89333333333332,151.13398924805693L248.01777777777778,155.60312967772794L248.08,162.88377499554952L248.45333333333332,165.76747495611602L248.51555555555555,143.54120162047093L248.57777777777778,152.63432279416844L248.76444444444445,148.83914634589618L249.01333333333332,145.31604929568925L249.07555555555555,152.14083697908475L249.6977777777778,147.72809921592307L250.00888888888886,149.81630214617368L250.13333333333333,129.4300705260704L250.44444444444446,145.81454904734207L250.69333333333333,151.79071424411114L250.94222222222223,145.35370052460655L251.87555555555556,147.2738850900488L252.12444444444446,147.8654587674061L252.24888888888887,142.47829927253244L252.43555555555557,142.71939814969772L252.62222222222223,149.62343207488473L252.74666666666664,149.25287965584351L253.18222222222224,157.57253786278537L253.36888888888888,158.64813999730373L253.74222222222224,157.5213175529124L254.17777777777778,132.3996994845038L254.30222222222224,143.86985300222102L254.36444444444447,143.81171136478386L254.5511111111111,142.64297474307247L254.73777777777778,151.4720092382386L255.23555555555555,152.50465752119314L255.29777777777778,138.88005978886616L255.54666666666665,149.33548451568194L255.60888888888888,154.133644849149L255.79555555555555,157.62204460019217L255.92000000000002,156.1877067322665L256.1066666666667,160.56820844194547L256.1688888888889,151.49409014305948L256.48,153.2721972794892L256.7288888888889,122.09414357731113L256.85333333333335,117.8135530762689L256.97777777777776,134.27330979456136L257.1022222222222,145.2614766355243L257.1644444444444,145.5159965780906L257.47555555555556,155.2973306996056L257.8488888888889,148.85231378862375L257.9111111111111,151.2392650446189L258.03555555555556,148.29437608182332L258.16,141.9636086329866L258.53333333333336,145.0208150923552L258.65777777777777,129.6158285584413L258.72,142.75381602094927L258.84444444444443,146.24012235495715L259.15555555555557,136.2260914491664L259.34222222222223,146.3499640987275L259.40444444444444,140.26048682372968L259.77777777777777,146.1061752527428L260.27555555555557,149.25609481610599L260.3377777777778,149.1079267428979L260.40000000000003,153.5484519121772L260.6488888888889,149.7910410775108L260.96000000000004,152.96471523315793L261.08444444444444,153.76969793549014L261.2088888888889,145.04358103639385L261.3955555555556,145.765727783567L261.52000000000004,132.11695899251313L262.1422222222222,135.40564464141855L262.20444444444445,139.6988970099304L262.5155555555556,142.40453098141364L262.82666666666665,144.03881025647863L263.38666666666666,142.40357056866623L263.5111111111111,153.17578590341097L263.6977777777778,153.67214457485053L263.94666666666666,158.09322852152192L264.3822222222222,141.7849487330879L264.44444444444446,150.78142456902708L264.50666666666666,153.08114321807847L264.8177777777778,156.23543417999855L264.9422222222222,162.7689895653843L265.06666666666666,159.91751826440915L265.81333333333333,154.40323861538923L265.8755555555556,157.4439043232501L266,157.79674829822076L266.18666666666667,164.1683229260996L266.4355555555556,151.64764652895335L266.49777777777774,158.05529894312482L266.99555555555554,158.7266175719461L267.1822222222222,136.87674760707927L267.3688888888889,135.30538842313715L267.43111111111114,146.85661824281405L268.05333333333334,154.41752244340523L268.17777777777775,160.28344118209242L268.24,161.6644747671632L268.3022222222222,158.7182760216357L268.4266666666667,147.16495088855342L268.4888888888889,146.4081127420442L268.55111111111114,152.93056864713617L268.9244444444444,151.89220887635236L269.23555555555555,146.66483247136793L269.4222222222222,145.5718392149497" style="fill: none;" fill="none"></path></g></g></g></g><g opacity="0.2"><g><g><g><path stroke="rgb(255, 112, 67)" stroke-width="2px" d="M36.21333333333333,-102.8153355717659L36.4,5.799060393463483L36.586666666666666,32.11006028814749L36.64888888888889,-39.33129675279966L37.89333333333333,-29.88943456519732L37.955555555555556,52.879697027531535L38.266666666666666,-92.68285454945132L39.69777777777778,-16.930806422775454L39.88444444444445,65.23258605870333L40.257777777777775,-14.686301204291272L40.32,18.217083822597154L40.50666666666667,-93.31559212641284L40.75555555555555,13.131337759169671L40.94222222222222,19.55928641015832L41.00444444444444,-63.74577431787142L41.06666666666667,84.51953108066861L41.25333333333334,-2.2728814211758843L41.626666666666665,20.75263777646151L42.12444444444444,-52.730232466350884L42.31111111111111,63.754875630140305L42.497777777777785,8.489939445799038L42.62222222222223,68.48961766199633L42.74666666666667,77.5643930286169L42.995555555555555,-45.57479984651914L43.30666666666667,59.44700187986548L43.36888888888889,52.511944835836246L43.49333333333333,-27.081809927116723L44.42666666666667,86.33978154577993L44.48888888888889,22.89517942883752L44.73777777777777,103.15916630761191L44.86222222222222,-17.429438832131314L45.42222222222222,-54.36651692065327L45.85777777777778,56.084386134689495L46.044444444444444,70.61368478699163L46.480000000000004,82.00005392188375L46.91555555555556,77.75375393710353L47.28888888888889,19.443559860641315L47.35111111111111,42.735443139618084L47.413333333333334,63.31972318345849L47.47555555555555,-62.320514283396975L47.66222222222222,4.156793597069648L47.848888888888894,42.23688266223128L48.284444444444446,5.874552994966507L48.47111111111111,5.2700726931745265L48.782222222222224,70.9662713218819L49.03111111111111,125.012278330597L49.093333333333334,42.15243453058329L49.217777777777776,68.82509637691759L49.59111111111111,38.87763573093847L49.653333333333336,34.76510523124174L49.839999999999996,42.93851907686754L50.026666666666664,74.62664945288137L50.08888888888889,92.96577689051628L50.46222222222222,63.22760230844672L50.52444444444444,92.04489782858978L50.586666666666666,90.21225708181208L50.71111111111111,88.5294686095281L50.77333333333334,108.80082660507072L50.96,126.96547106314789L51.14666666666667,36.02636037631468L51.519999999999996,16.752512967044666L52.08,89.92793997986749L52.702222222222225,28.928725093603134L52.76444444444444,72.71930136192928L52.82666666666667,109.15852630409329L53.2,115.87713405896316L53.69777777777777,79.80171703885902L53.76,116.98894454403356L53.94666666666667,131.18969992209566L54.32,34.536697252230205L54.50666666666666,68.50942293080416L54.56888888888889,102.3200319341638L55.004444444444445,118.26046797768637L55.12888888888889,116.29257115179843L55.31555555555556,109.50074264678089L55.937777777777775,118.60141352225433L56.06222222222222,119.39366024055265L56.18666666666667,67.98969047719781L56.31111111111111,108.92189410328865L56.373333333333335,77.14208043840799L56.43555555555555,101.04494786804372L56.684444444444445,29.503029934384603L57.55555555555555,51.29202659563585L57.61777777777778,99.76106412437828L57.68,65.59800046140496L57.86666666666667,61.07974967902358L58.17777777777778,142.9165860069069L58.675555555555555,82.44735687700185L58.86222222222222,59.39439563317732L59.04888888888888,123.03329798714682L59.111111111111114,60.010552891276106L59.23555555555556,64.2567929327488L59.48444444444444,115.959304344925L59.733333333333334,81.96211580254815L60.41777777777778,130.85488657788798L60.54222222222222,144.06447636877948L60.60444444444444,66.1790549186143L60.66666666666667,98.61927599121223L60.791111111111114,101.87883720208298L61.16444444444444,91.84297879717566L61.22666666666667,52.39366470141844L61.413333333333334,160.37224350226197L61.47555555555556,89.58236081762746L61.97333333333333,27.02972111105919L62.09777777777777,91.96389643712476L62.22222222222222,107.84070865403523L62.284444444444446,97.52778029306367L62.40888888888889,122.2574217861349L62.471111111111114,125.58777604319833L62.595555555555556,33.00899410518733L62.657777777777774,126.39635131846775L62.96888888888889,116.46946385231884L63.093333333333334,24.22660420970484L63.217777777777776,114.36358952115883L63.28,127.65030836584894L63.84,115.70308866555041L64.02666666666667,106.31322729723021L64.58666666666666,126.48207624256611L64.71111111111111,99.58763614703308L64.77333333333334,93.78815111517906L65.39555555555555,137.16780701889232L65.64444444444445,95.21982508355921L65.7688888888889,72.17578340389512L66.01777777777778,52.404106825590134L66.20444444444445,121.29468431256034L66.39111111111112,105.2586686651815L66.76444444444444,73.3552279228514L66.88888888888889,64.25768009370024L66.9511111111111,135.9467228813605L67.13777777777779,43.78309630263936L67.57333333333334,101.16072836653754L67.82222222222222,132.70465013046157L67.88444444444444,47.33729085868056L68.19555555555556,88.96791793812405L68.63111111111111,162.28771091421896L68.81777777777778,127.75026083398949L69.12888888888888,144.20422819595444L69.19111111111111,114.3856726356528L69.56444444444445,146.49708968062293L69.62666666666667,145.8554295423356L69.93777777777777,67.71538990194146L70.18666666666667,141.51952630145982L70.37333333333333,46.08200606703758L70.43555555555555,70.89763623476028L70.49777777777777,150.31237030977553L70.56,127.58987652036278L71.49333333333334,147.27051420035687L71.55555555555554,46.611089676618576L71.61777777777777,125.44298298386009L71.80444444444444,122.54423852400348L72.05333333333334,85.91988467086445L72.11555555555555,103.81081599809907L72.24000000000001,109.49167921868236L72.86222222222223,105.57243591411546L73.0488888888889,116.95430930094287L73.73333333333332,79.66279242932796L73.98222222222223,112.533232614398L74.10666666666667,106.64471378786996L74.16888888888889,78.60079483281483L74.48,96.35187842358242L74.66666666666667,140.24953441931441L74.72888888888889,121.04339597306468L75.04,119.817855050618L75.28888888888889,121.22297413376243L75.41333333333333,97.2941632406278L75.47555555555556,129.9370886019685L75.60000000000001,144.73514307358047L76.16000000000001,153.50133179162037L76.22222222222221,106.16438207030296L76.9688888888889,121.00499029593036L77.46666666666667,124.07315252585843L77.71555555555555,100.99556657130069L78.08888888888889,103.71304246918723L78.58666666666667,121.27787620912899L79.02222222222221,118.5307403626767L79.39555555555556,118.78302975540811L79.52,162.22744990715927L80.08,126.16779947551815L80.3288888888889,79.85582186823542L80.45333333333333,146.44741765883836L80.57777777777778,131.15929667651653L80.64,88.83515550060704L80.70222222222222,110.59116535972466L80.76444444444445,135.63985810428858L81.13777777777779,112.159018534151L81.75999999999999,48.70976481654428L82.00888888888888,75.61752431501041L82.07111111111111,100.64441268146038L82.44444444444444,42.050878578966305L82.69333333333333,105.07153165340424L82.94222222222223,85.47238989716227L83.06666666666668,112.10099341246216L83.31555555555556,157.8154276572168L83.37777777777777,62.64345477656885L83.50222222222222,102.93991167166017L83.56444444444445,149.10533088919792L83.68888888888888,147.31113777986982L83.81333333333333,115.47842114892872L83.93777777777777,131.7724088145928L84.06222222222222,160.53774547576904L84.18666666666667,115.19815621457316L84.37333333333333,147.67192755639553L84.68444444444445,154.7430304326117L84.93333333333334,92.06083675406195L85.43111111111111,122.46636017886074L86.17777777777778,47.851580459963195L86.55111111111111,115.77940249036659L86.8,130.95854354243386L86.86222222222223,122.95211676575921L87.04888888888888,51.65368854728612L87.54666666666667,109.2339170019735L87.85777777777777,155.92608204009858L87.92,116.79970951649277L88.04444444444445,88.02364300326869L88.16888888888889,121.7218642993407L88.23111111111112,158.64892136542633L88.54222222222222,103.838335970586L88.72888888888889,109.65655328604309L88.79111111111112,112.86162603036925L89.10222222222222,165.36190943521532L89.72444444444444,110.71274837038733L90.09777777777778,126.80880922891878L90.53333333333333,102.86450299078768L90.59555555555555,118.47582030431792L90.90666666666667,103.12501061098143L90.96888888888888,138.0472562638196L91.09333333333332,87.12957658280025L91.46666666666667,152.31168042597446L91.52888888888889,142.16178886998784L92.33777777777777,145.38699357414788L92.58666666666667,150.73561501841652L92.64888888888889,158.70492190190336L92.83555555555556,72.6771012734283L93.2088888888889,141.0828602862629L93.27111111111111,133.37656365605918L94.57777777777778,163.4851234396073L94.76444444444444,121.94425996460699L94.8888888888889,146.05405468900096L94.9511111111111,129.8822674500671L95.07555555555555,156.76611106741157L95.44888888888889,139.12740469385278L95.5111111111111,162.88628979738462L95.57333333333332,137.2697975594889L96.07111111111111,127.4713236438957L96.25777777777778,149.09720257669687L96.44444444444444,135.95202186974612L96.56888888888889,154.22346282310107L96.63111111111111,105.04699086330153L96.88,107.92653548175639L97.44,130.28472681682217L97.56444444444445,124.22024740820581L97.81333333333333,140.3074156770652L98,117.89398058977993L98.06222222222222,164.55553407933223L98.37333333333333,155.21661103516817L98.93333333333334,96.39932355149224L98.99555555555555,129.67375165765935L99.30666666666667,163.03301752697337L99.43111111111111,118.22256582433528L99.55555555555556,94.64236123047091L100.05333333333333,162.8505231243643L100.11555555555556,164.5874816143716L100.48888888888888,136.0120970525525L100.8,84.99180042337288L100.86222222222221,72.0174251740629L100.98666666666668,135.51837699724868L101.11111111111111,158.9651747630401L101.23555555555556,84.83791396428238L101.48444444444445,149.02289085835218L101.54666666666668,139.62208084491166L101.79555555555557,112.04108007658611L101.85777777777777,166.9741476317021L102.41777777777777,134.82370899211276L102.48,112.48796942288226L102.66666666666666,135.2043579864231L102.85333333333334,145.88157981024548L103.16444444444446,98.27472185953096L103.72444444444444,107.76386133378202L103.78666666666666,138.59641188992694L104.03555555555555,129.60253601114857L104.09777777777778,128.0741045529192L104.16,161.91922441700643L104.40888888888888,116.78715139356525L104.59555555555555,133.9533111866225L104.84444444444445,151.4225383482196L105.03111111111112,162.07375976240093L105.21777777777777,145.5775263742967L105.71555555555555,134.15483758937228L106.08888888888889,163.86404007233003L106.15111111111112,137.3915184397589L106.21333333333334,115.41941895132715L106.27555555555556,141.36511234126309L106.33777777777777,163.54102956537497L106.4,117.42099192738533L106.96000000000001,142.88114152916452L107.02222222222223,137.31790805811232L107.08444444444444,130.5292235795747L107.52,38.85002584349025L107.89333333333335,139.18300810591742L108.20444444444443,38.1566496166316L108.51555555555555,121.3371541459452L108.57777777777778,165.3784208192744L108.82666666666667,137.55285285480997L109.26222222222223,137.45664084905928L109.57333333333332,127.84751885045658L109.69777777777777,114.93864365328442L109.76,134.59391332553193L110.00888888888889,116.76662680506706L110.19555555555556,158.68162193826655L110.56888888888889,163.4311849529093L110.69333333333333,166.72636447711423L110.75555555555556,153.38625412840736L110.94222222222221,157.2957131866027L111.50222222222222,121.02815838429062L111.6888888888889,79.2661475634033L111.87555555555555,142.3472684493119L112.12444444444444,131.64488242498854L112.43555555555555,125.1589116494764L112.62222222222222,152.9717581455003L112.74666666666667,139.0772231539542L112.8711111111111,161.02835147624666L113.18222222222222,149.57921270687473L113.55555555555556,142.28924332762307L113.61777777777777,134.997487637807L113.86666666666667,95.81108788604087L114.24,115.0223904482343L114.73777777777778,139.2810303995555L115.79555555555555,100.58525463125922L116.04444444444445,134.39573475650766L116.66666666666667,122.35033391280606L117.03999999999999,148.20790164917707L117.22666666666667,167.279505583881L117.41333333333333,117.35771577195689L117.53777777777779,82.60973130843855L117.72444444444444,151.5882036672397L118.28444444444445,82.15465970066461L118.59555555555556,158.00259314206514L118.78222222222222,137.4701370847496L119.52888888888889,138.68328173119914L119.84,108.24064440754326L119.96444444444445,151.84567815607244L120.27555555555556,163.3166153092276L120.52444444444446,160.17268323999915L120.58666666666666,150.55061198838732L120.71111111111111,163.8803086859936L120.77333333333334,97.01662572676486L120.96,70.80756542086601L121.20888888888888,145.745589425618L121.27111111111111,166.0843776478009L121.33333333333334,130.09538389132783L121.52,167.18906312148002L121.89333333333335,151.71908688206565L121.95555555555555,147.46021678569642L122.14222222222223,147.3512818129225L122.20444444444445,171.09055608875033L122.32888888888888,115.79326737739824L122.76444444444445,106.07470088790764L122.88888888888889,150.52434782819316L123.01333333333334,121.16419972072948L123.13777777777777,163.5666133690287L124.50666666666666,147.67884801124984L124.88,117.62988236546516L125.1288888888889,126.7376954860308L125.75111111111111,117.5089107765393L125.81333333333333,129.50545183027333L125.87555555555555,126.1040497679602L125.93777777777778,134.32352704825726L126.06222222222223,137.23623530160296L126.31111111111112,128.4489989897067L126.49777777777778,112.28532507744701L126.56,152.1646215096116L126.62222222222223,143.79592435671523L127.12,59.91229382157326L127.30666666666667,125.40080687268213L127.74222222222221,140.12281127003106L127.80444444444444,113.54014231129125L127.86666666666666,141.82116701928052L127.99111111111112,127.68357690152796L128.24,153.49364705959505L128.48888888888888,137.34991179000247L128.5511111111111,143.17520841007882L128.67555555555555,133.2800069762902L129.23555555555555,152.9103012694554L129.29777777777778,157.52098163488236L129.67111111111112,170.60290267081425L129.79555555555555,118.77361865612595L130.04444444444445,117.90875661508605L130.35555555555555,157.51502476869658L130.7911111111111,147.99948176606134L131.10222222222222,127.20959917455912L131.16444444444446,156.2544919404794L131.41333333333333,164.74092898873442L131.5377777777778,161.93402741680092L131.6,156.04180559245023L131.66222222222223,119.82151758670807L131.8488888888889,138.278664405373L133.0311111111111,140.87374506077984L133.15555555555557,154.35040476545691L133.28,110.88346091590144L133.46666666666667,78.62211067297243L133.65333333333334,126.39782592383297L133.84,156.0619255636226L133.9022222222222,147.9417263892564L134.27555555555557,105.84575341912834L134.33777777777777,161.89496236328375L134.83555555555557,147.94912339340556L134.96,133.43639307130468L135.0222222222222,147.2605815942992L135.2711111111111,153.44381618804553L135.51999999999998,166.63666755960068L135.5822222222222,161.5423728312281L136.07999999999998,156.41809970546853L136.32888888888888,147.67020118913868L136.51555555555555,135.33916149356148L136.70222222222222,144.55677876486018L137.32444444444445,140.8484699651599L137.57333333333332,144.8371665829962L137.69777777777776,95.49707486954601L137.94666666666666,76.95886971327391L138.07111111111112,140.74641048975965L138.13333333333333,118.2814721126448L138.32,138.36352614584294L138.38222222222223,151.5318329808387L138.5688888888889,160.81516759876502L138.81777777777776,137.69952813400462L138.94222222222223,165.97080156444147L139.06666666666666,162.5666286227378L139.1911111111111,126.43229332566261L139.44,161.33864800767466L139.62666666666667,98.77859331396492L139.6888888888889,158.36778125878084L140,72.7813187078996L140.12444444444446,156.80352468280628L140.49777777777777,154.83453239297324L140.99555555555554,127.60580345717342L141.12,162.23155752230775L141.18222222222224,122.93970850110054L141.55555555555554,140.12681848013943L141.68,158.75390757281673L141.9911111111111,84.43032944473353L142.0533333333333,152.08622615344146L142.36444444444444,163.28816921263933L142.42666666666668,167.36888030611655L142.48888888888888,113.26467284153809L142.73777777777778,121.25925182347947L142.8,141.64124418456447L142.98666666666668,160.86181997643277L143.04888888888888,158.76295601508835L143.36,127.19877641038462L143.48444444444445,131.5202812687917L143.79555555555555,105.8320803506808L143.92000000000002,156.43918176672676L144.1688888888889,147.88582625781947L144.66666666666669,85.57106857001781L144.9777777777778,149.9790555482561L145.04,155.3552569083192L145.2266666666667,146.34651209210807L145.72444444444446,124.59563637728041L145.97333333333333,129.91195137595588L146.22222222222223,141.67076026919213L146.40888888888887,84.21153037791903L146.4711111111111,79.18643495305017L146.53333333333333,163.52283377437428L146.96888888888887,147.03048021684992L147.09333333333333,138.83734502304685L147.28,168.75325825556436L147.84,139.26344003596088L147.90222222222224,159.52182180400598L148.02666666666664,119.32480336319317L148.21333333333334,117.37815643982455L148.52444444444447,141.19811028648508L148.83555555555554,154.0743508484553L149.58222222222224,144.8837725046006L149.64444444444445,141.92471009154212L149.70666666666665,136.92107137360355L149.8311111111111,134.1699552915313L149.95555555555555,129.91292545470327L150.01777777777778,122.6261570480737L150.14222222222224,111.97517840428785L150.51555555555555,133.71023807742378L150.57777777777778,165.55590471066535L150.70222222222225,137.02579832618886L150.76444444444442,136.41069307313725L151.38666666666666,140.31095233220947L151.63555555555556,108.28321614455093L152.44444444444443,158.71819484877315L152.88000000000002,143.7023288763382L153.25333333333333,169.8944094910879L153.56444444444443,164.70333704199982L154.0622222222222,167.73557749559933L154.12444444444444,161.26039052111182L154.37333333333333,131.85068578273058L154.8711111111111,131.9428815868768L154.93333333333334,158.2591070393947L155.1822222222222,141.4885146313093L155.30666666666667,137.76704228127545L155.61777777777777,153.09314334324816L155.68,157.07623376324773L155.7422222222222,162.8732506294142L155.86666666666667,168.02470804513857L156.11555555555557,140.64564578980207L156.36444444444444,126.8358946124261L156.8,142.8557135781104L157.11111111111111,151.68416690826416L157.92,108.9976264780218L158.10666666666665,144.96324534172362L158.1688888888889,102.98811807957561L158.4177777777778,137.48351942815563L158.54222222222222,130.5619166595015L159.5377777777778,105.4827727147124L159.6,85.90423347326842L160.28444444444443,160.2464494742453L160.53333333333333,146.9271589348262L161.2177777777778,126.80242226950146L162.0888888888889,167.88885253295302L162.1511111111111,161.91527265445754L162.21333333333334,168.37666892175648L162.33777777777777,123.196098016067L162.7111111111111,123.15376605228946L162.77333333333334,162.61524264514446L163.2711111111111,151.39182040027598L164.07999999999998,125.89794669368051L164.26666666666668,160.93500925634396L164.32888888888888,150.0658324774016L164.57777777777775,163.28861579028043L164.82666666666665,137.780739327046L164.88888888888889,169.0187044550072L164.95111111111112,166.4500055985356L165.07555555555558,164.35772566023198L165.32444444444445,146.33456838808277L165.4488888888889,144.33264474367553L165.69777777777776,142.6906866553155L166.07111111111112,163.8794170292941L166.44444444444446,135.6791209707206L166.75555555555553,99.59266539053485L167.31555555555553,159.87633251906797L167.6888888888889,166.05151298015633L167.81333333333336,97.72522755373608L168.68444444444444,154.933315966617L168.74666666666667,152.4732725972479L168.8088888888889,154.6254681193016L168.87111111111113,160.1793024797331L169.1822222222222,161.1543523086743L169.3688888888889,120.87175430628388L169.4933333333333,145.31083859909666L169.7422222222222,160.89913918111813L169.86666666666667,152.69525015794417L169.99111111111114,135.03799732503566L170.61333333333332,126.9844641001387L170.92444444444445,125.90452846884727L170.98666666666668,158.1303518119861L171.11111111111111,161.7445391287858L171.23555555555555,159.21718242222613L171.54666666666668,166.95388529517433L172.10666666666668,122.32941369847819L172.1688888888889,172.40209018159658L172.54222222222222,149.62085532261565L172.60444444444445,130.80847247486764L172.85333333333332,149.77000326324594L172.91555555555556,140.07953220199454L173.10222222222222,167.30524823729965L173.16444444444446,159.50981815667316L173.3511111111111,161.57896522330967L173.41333333333333,158.3166406259618L173.72444444444446,168.13249135711655L174.22222222222223,138.6896357217973L174.78222222222223,156.54431933096865L174.84444444444446,90.21229304779659L174.90666666666667,140.00136013464495L175.21777777777777,122.57330503382467L175.40444444444447,137.550910691646L175.5288888888889,158.96022494442084L176.1511111111111,161.4692090272226L176.7733333333333,99.93364090675658L177.14666666666668,156.30788494307888L177.20888888888888,140.14695043997332L177.33333333333331,168.01156022992325L177.45777777777778,139.08151509477332L177.70666666666668,99.26506922055374L177.8311111111111,165.8541743667288L178.08,156.47807748040015L178.51555555555555,139.93588106266478L178.82666666666668,118.7333247648044L178.9511111111111,160.89232962138274L179.07555555555555,143.87250492924994L180.13333333333333,162.02148320390418L180.56888888888886,164.59501873600212L180.75555555555556,157.0282011909241L180.8177777777778,149.92452811856162L181.00444444444446,75.86667267842725L181.06666666666666,148.7013609510931L181.1911111111111,168.8375123207542L181.31555555555556,139.0900630104271L181.50222222222223,165.79066143523562L181.56444444444446,149.87812900136817L181.62666666666667,133.6296173259616L181.81333333333333,153.85825672339308L182,138.383532224731L182.06222222222223,145.26443348757246L182.3111111111111,128.60382056439465L182.37333333333333,167.08954674090174L182.49777777777777,130.826251659881L182.93333333333334,159.398110805926L183.36888888888888,138.46639485589483L184.17777777777778,132.91614810241893L184.5511111111111,108.45274181257595L184.61333333333334,167.2784393422983L184.67555555555555,160.1381154331294L184.8,160.46226036717945L184.98666666666665,78.11834112216125L185.79555555555555,168.2583550692282L186.04444444444442,156.87731339579278L186.10666666666665,124.47067256407306L186.60444444444443,152.20909944379872L186.9777777777778,114.60084513236175L187.22666666666666,167.19134321504018L187.2888888888889,125.11589033766225L187.41333333333333,133.83674243363467L187.66222222222223,167.32655808312649L187.78666666666666,157.08119107478043L187.8488888888889,148.44230695610696L188.03555555555556,158.93083773790434L188.0977777777778,167.38215999660844L188.6577777777778,150.33674625578251L189.09333333333333,126.659928036007L189.28,134.74743413044646L189.52888888888887,112.68297699093819L190.1511111111111,130.66483632136476L190.21333333333334,171.96419420465827L190.77333333333334,142.87969689545307L191.64444444444445,141.8468707095493L191.76888888888888,163.20654441077602L191.8311111111111,157.1633748479865L192.39111111111112,155.21172265843913L192.51555555555555,163.14606910639188L192.57777777777778,156.1852139613845L192.76444444444445,157.21619389341637L193.4488888888889,158.4179523086006L193.63555555555556,115.4600904854861L193.6977777777778,156.81243075972253L193.88444444444443,126.48120706460692L193.94666666666666,145.07889696210623L194.0088888888889,144.97508114779538L194.13333333333333,169.1083324377171L194.2577777777778,152.40535533123395L194.63111111111112,160.64045833322135L194.88,167.2352846566249L195.06666666666666,169.30638287792152L195.44,158.69873874973166L195.9377777777778,159.0684990422292L196,152.9140971794047L196.12444444444444,127.24751031940633L196.2488888888889,170.0086869111454L196.37333333333333,133.37681242078543L196.68444444444444,141.64106435464188L196.74666666666667,164.5872748099606L196.99555555555557,144.8120623258027L197.05777777777777,159.22401446070182L197.1822222222222,130.4368359568444L197.24444444444444,163.9173176840625L197.49333333333334,152.1569982194765L197.67999999999998,129.94649370691994L198.3022222222222,159.3462388647551L198.42666666666668,152.72297843342477L198.67555555555558,162.04172006452626L198.73777777777775,113.91248616034335L198.86222222222221,149.1518768674948L198.92444444444445,154.00991928577423L199.29777777777775,164.88325088521972L199.42222222222222,158.35771228169853L199.54666666666668,164.55129009315914L199.79555555555558,150.77584297209978L199.85777777777776,169.46949161487547L200.29333333333335,136.12638196552342L200.60444444444445,97.32908021726392L200.79111111111112,151.6943992308595L200.91555555555553,159.0213431407782L201.2888888888889,149.15080987662077L201.35111111111112,147.3941322863102L202.03555555555553,158.09036513011563L202.16,165.03548740477046L202.47111111111113,152.88788996535268L202.78222222222223,145.2726127518849L202.84444444444443,138.58542428165674L202.9688888888889,116.75051404400304L203.15555555555554,164.62201420454815L203.21777777777777,148.2232860990546L203.46666666666667,141.41469444808635L203.65333333333334,148.30628060549498L203.71555555555554,165.24596484191716L204.0888888888889,165.74802975492045L204.6488888888889,136.913647394966L205.2088888888889,153.84487587856975L205.45777777777778,149.81437929381025L205.5822222222222,91.80454914271832L205.64444444444445,152.31202509999275L205.70666666666668,146.86331032081083L206.3288888888889,125.51073690436102L207.01333333333332,167.23542177694088L207.13777777777779,143.87917062504724L207.4488888888889,154.89009534330532L207.63555555555556,128.69964293864638L207.69777777777776,129.08222510462457L207.76,145.79161689430475L207.82222222222222,146.77028130468997L208.19555555555556,161.29096610370007L208.44444444444446,153.9075046462769L208.5688888888889,124.31733158908106L209.31555555555553,161.0729912573641L209.6888888888889,158.37827583334663L209.81333333333333,144.16577756133947L210.49777777777777,167.04993620328605L210.74666666666667,152.233195154843L210.8711111111111,121.47632452303714L210.99555555555554,141.1360479830341L211.12,169.3507416747849L211.18222222222224,126.4785455817526L211.30666666666667,160.5419340143827L211.55555555555554,162.93131921000102L211.74222222222224,125.75841066241264L212.0533333333333,164.83292173492637L212.61333333333332,155.98318703201684L212.8,130.02754605019635L212.98666666666668,143.70302721587095L213.1111111111111,143.36570824140853L213.17333333333332,122.76367298987778L213.23555555555555,139.82807901840317L213.48444444444445,165.85492815382102L213.6711111111111,119.09990206767212L213.92000000000002,159.027439375154L214.04444444444445,90.90762942081147L214.4177777777778,139.92023885656488L214.60444444444445,142.85761977528983L214.91555555555556,137.68729070777243L215.16444444444446,161.24990343945947L215.2266666666667,146.07275400378487L215.28888888888886,162.41984244842422L215.41333333333333,163.92087831652978L215.72444444444446,160.57604475353253L215.84888888888887,154.22208412702787L215.97333333333333,157.08823591199788L216.16,166.81579239903525L216.34666666666666,150.33229546519843L216.59555555555556,152.01023452390325L216.72,161.09224654632536L216.78222222222223,143.9218712401661L216.96888888888887,171.92030746134168L217.0311111111111,126.01366724886678L217.09333333333333,161.17700788175517L217.21777777777777,133.93826841359788L217.52888888888887,142.5266248197718L217.96444444444447,157.35975661636755L218.02666666666664,158.1180979013443L218.1511111111111,146.0745343200185L218.77333333333334,155.03557475351474L218.83555555555554,82.36725463514979L219.02222222222224,127.04568719728425L219.08444444444447,159.34909216619351L219.2711111111111,158.22874575413087L219.39555555555555,135.38413096287033L219.52,144.65170498666438L219.70666666666665,124.01793874529274L219.76888888888888,122.98316739905964L220.32888888888888,159.42563527416098L220.51555555555555,138.74186132848263L221.26222222222225,146.49630742045966L221.94666666666666,98.64479385722767L222.13333333333333,151.2255916141651L222.6311111111111,161.98680150475013L223.25333333333333,140.28230842270634L223.62666666666667,137.84282860498536L223.6888888888889,164.83769472078845L224.3111111111111,138.38298973779786L224.37333333333333,170.82604388096794L224.6222222222222,147.210657810623L225.24444444444444,133.60329322245988L225.4311111111111,128.1215167120099L225.7422222222222,133.39775361527097L225.80444444444444,170.91954157882455L225.86666666666667,122.50167278132655L225.92888888888888,144.2707952389663L225.9911111111111,151.1566088558598L226.05333333333334,136.0738596394658L226.24,166.86887669360095L226.48888888888888,169.36352008936757L226.61333333333334,160.2535632462664L226.86222222222221,152.66159948367965L226.98666666666665,155.8798147981817L227.17333333333335,121.27481310611421L227.23555555555555,163.61487372592092L227.48444444444445,160.76579978926614L227.73333333333335,153.8633968620138L227.79555555555555,147.01909098841926L227.98222222222222,165.82404011674225L228.29333333333335,123.25776769085363L228.60444444444443,141.25827538425273L229.04,159.70889587531036L229.6,156.46378849446774L229.97333333333333,124.53837852992795L230.0977777777778,63.89941093325615L230.16,159.3104796846482L230.34666666666666,135.3039328117262L230.59555555555556,107.64111542295326L230.72,160.85215861384165L231.0311111111111,143.01156617768785L231.09333333333333,158.98178505355662L231.28,164.10113083943725L231.40444444444444,141.30552569641307L231.9022222222222,162.1453320715915L231.96444444444444,156.59748005325145L232.02666666666667,167.0735793423585L232.0888888888889,150.83129053156483L232.27555555555557,160.87472127479586L232.33777777777777,139.1043624864383L232.39999999999998,126.944320067086L232.95999999999998,120.1217256594788L233.0222222222222,131.16842004792258L233.08444444444444,167.74788910167462L233.14666666666668,157.11724697425961L233.5822222222222,159.1454482661052L233.64444444444445,136.65139842168853L234.14222222222222,124.93525717475198L234.64,130.0066048557108L235.57333333333335,161.88271294839004L236.07111111111112,163.12149684605274L236.38222222222223,155.29868541183797L236.44444444444446,140.11970021237028L236.75555555555553,134.0240263065154L237.37777777777777,125.28276651149446L237.50222222222223,147.79363045367327L237.56444444444443,158.71919140626085L237.75111111111113,155.34579485722563L237.81333333333336,136.21751377596095L238.31111111111113,140.20167568258265L238.43555555555554,135.39051492512226L238.74666666666667,162.25135230103677L238.8088888888889,166.2514074263586L239.24444444444444,150.19369155236265L239.3688888888889,164.43203213353726L240.17777777777778,157.63963491638953L240.92444444444445,98.68717377565123L240.98666666666668,170.05269578895107L241.29777777777778,143.9311534613371L241.35999999999999,133.72244253483686L241.54666666666668,171.9159222337502L241.6088888888889,160.11905945566568L241.73333333333332,136.3930277804082L242.1688888888889,166.69310643151402L242.54222222222222,118.42565375024623L242.91555555555556,155.46407199447805L243.41333333333333,167.35473293624818L243.53777777777776,130.16705510697582L243.6,148.56145926564932L243.66222222222223,158.38133593919602L243.72444444444446,121.32242008095437L243.9111111111111,163.22672882100397L244.03555555555556,147.99698812446812L244.16,159.99568713727322L245.28,168.43900996158746L245.40444444444447,172.97364737101915L245.84,156.1149064559828L246.1511111111111,129.02719415114686L246.2133333333333,142.2032126926563L246.27555555555554,108.4426893199032L246.33777777777777,171.53751024874774L246.46222222222224,162.21984310143372L246.7111111111111,164.59138991802254L247.14666666666668,145.17453051493928L247.20888888888888,90.28064040704206L247.39555555555555,165.08616722341287L247.45777777777778,165.9904127667912L247.58222222222224,125.78109320998192L247.89333333333332,165.5620361617343L248.01777777777778,162.30684032223442L248.08,173.80474297228184L248.45333333333332,170.09302489696577L248.51555555555555,110.20179161700337L248.57777777777778,166.27400455471468L248.76444444444445,143.14638167348775L249.01333333333332,140.03140372037888L249.07555555555555,162.378018504178L249.6977777777778,141.10899257118052L250.00888888888886,152.94860654154962L250.13333333333333,98.85072309591554L250.44444444444446,170.39126682924953L250.69333333333333,160.75496203926477L250.94222222222223,135.6981799453497L251.87555555555556,150.15416193821213L252.12444444444446,148.75281928344205L252.24888888888887,134.39756003022194L252.43555555555557,143.08104646544564L252.62222222222223,159.97948296266523L252.74666666666664,148.69705102728173L253.18222222222224,170.0520251731981L253.36888888888888,160.2615431990813L253.74222222222224,155.83108388632536L254.17777777777778,94.71727238189091L254.30222222222224,161.07508327879688L254.36444444444447,143.7244989086281L254.5511111111111,140.88986981050536L254.73777777777778,164.71556098098782L255.23555555555555,154.05362994562495L255.29777777777778,118.44316319037567L255.54666666666665,165.01862160590562L255.60888888888888,161.33088534934953L255.79555555555555,162.85464422675696L255.92000000000002,154.036199930378L256.1066666666667,167.13896100646392L256.1688888888889,137.88291269473055L256.48,155.93935798413375L256.7288888888889,75.32706302404404L256.85333333333335,111.39266732470557L256.97777777777776,158.962944872L257.1022222222222,161.74372689696875L257.1644444444444,145.89777649194002L257.47555555555556,169.96933188187805L257.8488888888889,139.18478842215106L257.9111111111111,154.81969192861155L258.03555555555556,143.87704263762996L258.16,132.46745745973155L258.53333333333336,149.6066247814081L258.65777777777777,106.50834875757045L258.72,162.46079721471125L258.84444444444443,151.46958185596898L259.15555555555557,121.2050450904803L259.34222222222223,161.53577307306907L259.40444444444444,131.12627091123298L259.77777777777777,154.8747078962624L260.27555555555557,153.98097416115078L260.3377777777778,148.88567463308573L260.40000000000003,160.20923966609618L260.6488888888889,144.1549248255112L260.96000000000004,157.72522646662864L261.08444444444444,154.97717198898846L261.2088888888889,131.9544056877494L261.3955555555556,146.8489479043267L261.52000000000004,111.64380580593239L262.1422222222222,140.3386731147766L262.20444444444445,146.13877556269819L262.5155555555556,146.46298193863848L262.82666666666665,146.49022916907614L263.38666666666666,139.95071103694764L263.5111111111111,169.33410890552807L263.6977777777778,154.4166825820099L263.94666666666666,164.72485444152898L264.3822222222222,117.3225290504369L264.44444444444446,164.27613832293585L264.50666666666666,156.53072119165552L264.8177777777778,160.96687062287873L264.9422222222222,172.5693226434629L265.06666666666666,155.6403113129464L265.81333333333333,146.13181914185935L265.8755555555556,162.00490288504145L266,158.32601426067677L266.18666666666667,173.7256848679178L266.4355555555556,132.86663193323395L266.49777777777774,167.66677756438202L266.99555555555554,159.733595515178L267.1822222222222,104.10194265977904L267.3688888888889,132.94834964722395L267.43111111111114,164.1834629723294L268.05333333333334,165.758878744292L268.17777777777775,169.0823192901232L268.24,163.7360251447694L268.3022222222222,154.29897790334442L268.4266666666667,129.83496318893L268.4888888888889,145.2728555222804L268.55111111111114,162.71425250477412L268.9244444444444,150.3346692201766L269.23555555555555,138.82376786389133L269.4222222222222,143.9323493303223" style="fill: none;" fill="none"></path></g></g></g></g></g></g><g transform="translate(50, 177)" clip-path="url(#clip_1)"><clipPath id="clip_1"><rect width="280" height="23"></rect></clipPath><g><g><line x1="0" y1="0" x2="0" y2="5" style="visibility: inherit;" fill="rgb(0, 0, 0)" stroke="rgb(204, 204, 204)" stroke-width="1px"></line><line x1="31.11111111111111" y1="0" x2="31.11111111111111" y2="5" style="visibility: inherit;" fill="rgb(0, 0, 0)" stroke="rgb(204, 204, 204)" stroke-width="1px"></line><line x1="62.22222222222222" y1="0" x2="62.22222222222222" y2="5" style="visibility: inherit;" fill="rgb(0, 0, 0)" stroke="rgb(204, 204, 204)" stroke-width="1px"></line><line x1="93.33333333333333" y1="0" x2="93.33333333333333" y2="5" style="visibility: inherit;" fill="rgb(0, 0, 0)" stroke="rgb(204, 204, 204)" stroke-width="1px"></line><line x1="124.44444444444444" y1="0" x2="124.44444444444444" y2="5" style="visibility: inherit;" fill="rgb(0, 0, 0)" stroke="rgb(204, 204, 204)" stroke-width="1px"></line><line x1="155.55555555555557" y1="0" x2="155.55555555555557" y2="5" style="visibility: inherit;" fill="rgb(0, 0, 0)" stroke="rgb(204, 204, 204)" stroke-width="1px"></line><line x1="186.66666666666666" y1="0" x2="186.66666666666666" y2="5" style="visibility: inherit;" fill="rgb(0, 0, 0)" stroke="rgb(204, 204, 204)" stroke-width="1px"></line><line x1="217.77777777777777" y1="0" x2="217.77777777777777" y2="5" style="visibility: inherit;" fill="rgb(0, 0, 0)" stroke="rgb(204, 204, 204)" stroke-width="1px"></line><line x1="248.88888888888889" y1="0" x2="248.88888888888889" y2="5" style="visibility: inherit;" fill="rgb(0, 0, 0)" stroke="rgb(204, 204, 204)" stroke-width="1px"></line><line x1="280" y1="0" x2="280" y2="5" style="visibility: inherit;" fill="rgb(0, 0, 0)" stroke="rgb(204, 204, 204)" stroke-width="1px"></line></g><g transform="translate(0, 8)"><text x="0" y="0" dx="0em" dy="0.95em" style="text-anchor: middle; visibility: hidden; font-family: Roboto, sans-serif; font-size: 12px; font-weight: 200;" fill="rgb(33, 33, 33)" stroke="none" stroke-width="1px">-500</text><text x="31.11111111111111" y="0" dx="0em" dy="0.95em" style="text-anchor: middle; visibility: inherit; font-family: Roboto, sans-serif; font-size: 12px; font-weight: 200;" fill="rgb(33, 33, 33)" stroke="none" stroke-width="1px">0</text><text x="62.22222222222222" y="0" dx="0em" dy="0.95em" style="text-anchor: middle; visibility: inherit; font-family: Roboto, sans-serif; font-size: 12px; font-weight: 200;" fill="rgb(33, 33, 33)" stroke="none" stroke-width="1px">500</text><text x="93.33333333333333" y="0" dx="0em" dy="0.95em" style="text-anchor: middle; visibility: inherit; font-family: Roboto, sans-serif; font-size: 12px; font-weight: 200;" fill="rgb(33, 33, 33)" stroke="none" stroke-width="1px">1k</text><text x="124.44444444444444" y="0" dx="0em" dy="0.95em" style="text-anchor: middle; visibility: inherit; font-family: Roboto, sans-serif; font-size: 12px; font-weight: 200;" fill="rgb(33, 33, 33)" stroke="none" stroke-width="1px">1.5k</text><text x="155.55555555555557" y="0" dx="0em" dy="0.95em" style="text-anchor: middle; visibility: inherit; font-family: Roboto, sans-serif; font-size: 12px; font-weight: 200;" fill="rgb(33, 33, 33)" stroke="none" stroke-width="1px">2k</text><text x="186.66666666666666" y="0" dx="0em" dy="0.95em" style="text-anchor: middle; visibility: inherit; font-family: Roboto, sans-serif; font-size: 12px; font-weight: 200;" fill="rgb(33, 33, 33)" stroke="none" stroke-width="1px">2.5k</text><text x="217.77777777777777" y="0" dx="0em" dy="0.95em" style="text-anchor: middle; visibility: inherit; font-family: Roboto, sans-serif; font-size: 12px; font-weight: 200;" fill="rgb(33, 33, 33)" stroke="none" stroke-width="1px">3k</text><text x="248.88888888888889" y="0" dx="0em" dy="0.95em" style="text-anchor: middle; visibility: inherit; font-family: Roboto, sans-serif; font-size: 12px; font-weight: 200;" fill="rgb(33, 33, 33)" stroke="none" stroke-width="1px">3.5k</text><text x="280" y="0" dx="0em" dy="0.95em" style="text-anchor: middle; visibility: hidden; font-family: Roboto, sans-serif; font-size: 12px; font-weight: 200;" fill="rgb(33, 33, 33)" stroke="none" stroke-width="1px">4k</text></g><line x1="0" y1="0" x2="280" y2="0" fill="rgb(0, 0, 0)" stroke="rgb(204, 204, 204)" stroke-width="1px"></line></g></g></g></g></svg>