<svg viewBox="0 0 330 200" xmlns="http://www.w3.org/2000/svg"><g><g><g><g><g><line x1="50" y1="177" x2="45" y2="177" style="visibility: inherit;" fill="rgb(0, 0, 0)" stroke="rgb(204, 204, 204)" stroke-width="1px"></line><line x1="50" y1="162.25" x2="45" y2="162.25" style="visibility: inherit;" fill="rgb(0, 0, 0)" stroke="rgb(204, 204, 204)" stroke-width="1px"></line><line x1="50" y1="147.5" x2="45" y2="147.5" style="visibility: inherit;" fill="rgb(0, 0, 0)" stroke="rgb(204, 204, 204)" stroke-width="1px"></line><line x1="50" y1="132.75" x2="45" y2="132.75" style="visibility: inherit;" fill="rgb(0, 0, 0)" stroke="rgb(204, 204, 204)" stroke-width="1px"></line><line x1="50" y1="118.00000000000001" x2="45" y2="118.00000000000001" style="visibility: inherit;" fill="rgb(0, 0, 0)" stroke="rgb(204, 204, 204)" stroke-width="1px"></line><line x1="50" y1="103.25" x2="45" y2="103.25" style="visibility: inherit;" fill="rgb(0, 0, 0)" stroke="rgb(204, 204, 204)" stroke-width="1px"></line><line x1="50" y1="88.5" x2="45" y2="88.5" style="visibility: inherit;" fill="rgb(0, 0, 0)" stroke="rgb(204, 204, 204)" stroke-width="1px"></line><line x1="50" y1="73.75000000000001" x2="45" y2="73.75000000000001" style="visibility: inherit;" fill="rgb(0, 0, 0)" stroke="rgb(204, 204, 204)" stroke-width="1px"></line><line x1="50" y1="59.00000000000001" x2="45" y2="59.00000000000001" style="visibility: inherit;" fill="rgb(0, 0, 0)" stroke="rgb(204, 204, 204)" stroke-width="1px"></line><line x1="50" y1="44.25" x2="45" y2="44.25" style="visibility: inherit;" fill="rgb(0, 0, 0)" stroke="rgb(204, 204, 204)" stroke-width="1px"></line><line x1="50" y1="29.500000000000032" x2="45" y2="29.500000000000032" style="visibility: inherit;" fill="rgb(0, 0, 0)" stroke="rgb(204, 204, 204)" stroke-width="1px"></line><line x1="50" y1="14.750000000000007" x2="45" y2="14.750000000000007" style="visibility: inherit;" fill="rgb(0, 0, 0)" stroke="rgb(204, 204, 204)" stroke-width="1px"></line><line x1="50" y1="0" x2="45" y2="0" style="visibility: inherit;" fill="rgb(0, 0, 0)" stroke="rgb(204, 204, 204)" stroke-width="1px"></line></g><g transform="translate(40, 0)"><text x="0" y="177" dx="0em" dy="0.3em" style="text-anchor: end; visibility: hidden; font-family: Roboto, sans-serif; font-size: 12px; font-weight: 200;" fill="rgb(33, 33, 33)" stroke="none" stroke-width="1px">0.05</text><text x="0" y="162.25" dx="0em" dy="0.3em" style="text-anchor: end; visibility: inherit; font-family: Roboto, sans-serif; font-size: 12px; font-weight: 200;" fill="rgb(33, 33, 33)" stroke="none" stroke-width="1px">0.06</text><text x="0" y="147.5" dx="0em" dy="0.3em" style="text-anchor: end; visibility: hidden; font-family: Roboto, sans-serif; font-size: 12px; font-weight: 200;" fill="rgb(33, 33, 33)" stroke="none" stroke-width="1px">0.07</text><text x="0" y="132.75" dx="0em" dy="0.3em" style="text-anchor: end; visibility: inherit; font-family: Roboto, sans-serif; font-size: 12px; font-weight: 200;" fill="rgb(33, 33, 33)" stroke="none" stroke-width="1px">0.08</text><text x="0" y="118.00000000000001" dx="0em" dy="0.3em" style="text-anchor: end; visibility: hidden; font-family: Roboto, sans-serif; font-size: 12px; font-weight: 200;" fill="rgb(33, 33, 33)" stroke="none" stroke-width="1px">0.09</text><text x="0" y="103.25" dx="0em" dy="0.3em" style="text-anchor: end; visibility: inherit; font-family: Roboto, sans-serif; font-size: 12px; font-weight: 200;" fill="rgb(33, 33, 33)" stroke="none" stroke-width="1px">0.1</text><text x="0" y="88.5" dx="0em" dy="0.3em" style="text-anchor: end; visibility: hidden; font-family: Roboto, sans-serif; font-size: 12px; font-weight: 200;" fill="rgb(33, 33, 33)" stroke="none" stroke-width="1px">0.11</text><text x="0" y="73.75000000000001" dx="0em" dy="0.3em" style="text-anchor: end; visibility: inherit; font-family: Roboto, sans-serif; font-size: 12px; font-weight: 200;" fill="rgb(33, 33, 33)" stroke="none" stroke-width="1px">0.12</text><text x="0" y="59.00000000000001" dx="0em" dy="0.3em" style="text-anchor: end; visibility: hidden; font-family: Roboto, sans-serif; font-size: 12px; font-weight: 200;" fill="rgb(33, 33, 33)" stroke="none" stroke-width="1px">0.13</text><text x="0" y="44.25" dx="0em" dy="0.3em" style="text-anchor: end; visibility: inherit; font-family: Roboto, sans-serif; font-size: 12px; font-weight: 200;" fill="rgb(33, 33, 33)" stroke="none" stroke-width="1px">0.14</text><text x="0" y="29.500000000000032" dx="0em" dy="0.3em" style="text-anchor: end; visibility: hidden; font-family: Roboto, sans-serif; font-size: 12px; font-weight: 200;" fill="rgb(33, 33, 33)" stroke="none" stroke-width="1px">0.15</text><text x="0" y="14.750000000000007" dx="0em" dy="0.3em" style="text-anchor: end; visibility: inherit; font-family: Roboto, sans-serif; font-size: 12px; font-weight: 200;" fill="rgb(33, 33, 33)" stroke="none" stroke-width="1px">0.16</text><text x="0" y="0" dx="0em" dy="0.3em" style="text-anchor: end; visibility: hidden; font-family: Roboto, sans-serif; font-size: 12px; font-weight: 200;" fill="rgb(33, 33, 33)" stroke="none" stroke-width="1px">0.17</text></g><line x1="50" y1="0" x2="50" y2="177" fill="rgb(0, 0, 0)" stroke="rgb(204, 204, 204)" stroke-width="1px"></line></g></g><g transform="translate(50, 0)" clip-path="url(#clip_0)"><clipPath id="clip_0"><rect width="280" height="177"></rect></clipPath><g><g><g><line x1="0" y1="0" x2="0" y2="177" fill="rgb(0, 0, 0)" stroke="rgb(66, 66, 66)" stroke-width="1px" opacity="0.25"></line><line x1="31.11111111111111" y1="0" x2="31.11111111111111" y2="177" fill="rgb(0, 0, 0)" stroke="rgb(66, 66, 66)" stroke-width="1px" opacity="0.25"></line><line x1="62.22222222222222" y1="0" x2="62.22222222222222" y2="177" fill="rgb(0, 0, 0)" stroke="rgb(66, 66, 66)" stroke-width="1px" opacity="0.25"></line><line x1="93.33333333333333" y1="0" x2="93.33333333333333" y2="177" fill="rgb(0, 0, 0)" stroke="rgb(66, 66, 66)" stroke-width="1px" opacity="0.25"></line><line x1="124.44444444444444" y1="0" x2="124.44444444444444" y2="177" fill="rgb(0, 0, 0)" stroke="rgb(66, 66, 66)" stroke-width="1px" opacity="0.25"></line><line x1="155.55555555555557" y1="0" x2="155.55555555555557" y2="177" fill="rgb(0, 0, 0)" stroke="rgb(66, 66, 66)" stroke-width="1px" opacity="0.25"></line><line x1="186.66666666666666" y1="0" x2="186.66666666666666" y2="177" fill="rgb(0, 0, 0)" stroke="rgb(66, 66, 66)" stroke-width="1px" opacity="0.25"></line><line x1="217.77777777777777" y1="0" x2="217.77777777777777" y2="177" fill="rgb(0, 0, 0)" stroke="rgb(66, 66, 66)" stroke-width="1px" opacity="0.25"></line><line x1="248.88888888888889" y1="0" x2="248.88888888888889" y2="177" fill="rgb(0, 0, 0)" stroke="rgb(66, 66, 66)" stroke-width="1px" opacity="0.25"></line><line x1="280" y1="0" x2="280" y2="177" fill="rgb(0, 0, 0)" stroke="rgb(66, 66, 66)" stroke-width="1px" opacity="0.25"></line></g><g><line x1="0" y1="177" x2="280" y2="177" fill="rgb(0, 0, 0)" stroke="rgb(66, 66, 66)" stroke-width="1px" opacity="0.25"></line><line x1="0" y1="162.25" x2="280" y2="162.25" fill="rgb(0, 0, 0)" stroke="rgb(66, 66, 66)" stroke-width="1px" opacity="0.25"></line><line x1="0" y1="147.5" x2="280" y2="147.5" fill="rgb(0, 0, 0)" stroke="rgb(66, 66, 66)" stroke-width="1px" opacity="0.25"></line><line x1="0" y1="132.75" x2="280" y2="132.75" fill="rgb(0, 0, 0)" stroke="rgb(66, 66, 66)" stroke-width="1px" opacity="0.25"></line><line x1="0" y1="118.00000000000001" x2="280" y2="118.00000000000001" fill="rgb(0, 0, 0)" stroke="rgb(66, 66, 66)" stroke-width="1px" opacity="0.25"></line><line x1="0" y1="103.25" x2="280" y2="103.25" fill="rgb(0, 0, 0)" stroke="rgb(66, 66, 66)" stroke-width="1px" opacity="0.25"></line><line x1="0" y1="88.5" x2="280" y2="88.5" fill="rgb(0, 0, 0)" stroke="rgb(66, 66, 66)" stroke-width="1px" opacity="0.25"></line><line x1="0" y1="73.75000000000001" x2="280" y2="73.75000000000001" fill="rgb(0, 0, 0)" stroke="rgb(66, 66, 66)" stroke-width="1px" opacity="0.25"></line><line x1="0" y1="59.00000000000001" x2="280" y2="59.00000000000001" fill="rgb(0, 0, 0)" stroke="rgb(66, 66, 66)" stroke-width="1px" opacity="0.25"></line><line x1="0" y1="44.25" x2="280" y2="44.25" fill="rgb(0, 0, 0)" stroke="rgb(66, 66, 66)" stroke-width="1px" opacity="0.25"></line><line x1="0" y1="29.500000000000032" x2="280" y2="29.500000000000032" fill="rgb(0, 0, 0)" stroke="rgb(66, 66, 66)" stroke-width="1px" opacity="0.25"></line><line x1="0" y1="14.750000000000007" x2="280" y2="14.750000000000007" fill="rgb(0, 0, 0)" stroke="rgb(66, 66, 66)" stroke-width="1px" opacity="0.25"></line><line x1="0" y1="0" x2="280" y2="0" fill="rgb(0, 0, 0)" stroke="rgb(66, 66, 66)" stroke-width="1px" opacity="0.25"></line></g></g></g><g><g><line x1="0" y1="250.74999999999997" x2="280" y2="250.74999999999997" fill="rgb(0, 0, 0)" stroke="rgb(153, 153, 153)" stroke-width="1.5px"></line></g></g><g><g><line x1="31.11111111111111" y1="0" x2="31.11111111111111" y2="177" fill="rgb(0, 0, 0)" stroke="rgb(153, 153, 153)" stroke-width="1.5px"></line></g></g><g><g><g><g><g><path stroke="rgb(255, 112, 67)" stroke-width="2px" d="M33.16444444444445,-63.99881822682539L33.22666666666667,23.493824794169033L33.47555555555555,20.239888006682566L33.53777777777778,-21.958162569613524L34.766666666666666,-10.333051962508007L34.891111111111115,28.34955089037565L35.077777777777776,59.63316927787936L35.7,31.923780085721575L36.07333333333333,56.276945252460266L36.135555555555555,87.50258122293236L36.21333333333333,75.22125392283317L36.36888888888889,5.113775277722105L36.60222222222222,31.93637426522184L36.72666666666666,-36.55110893474398L36.757777777777775,-30.259670673707262L36.78888888888889,3.539818605273921L36.97555555555556,48.412514347102494L37.16222222222222,35.6507748274958L37.45777777777778,40.51998383482071L37.59777777777778,37.6224949637994L37.940000000000005,62.40125385240814L38.17333333333333,70.13603472789907L38.20444444444445,49.355921532592475L38.220000000000006,101.94731476684073L38.46888888888889,60.565893591709795L39.10666666666666,71.83158985099999L39.24666666666666,117.11459143617996L39.26222222222222,-4.762572776574761L39.34,-16.113691480921727L39.74444444444445,1.8916455089551083L39.97777777777778,36.083688482699884L40.27333333333333,76.47403940652582L40.44444444444444,65.28084926646633L40.70888888888889,25.54916844241505L40.75555555555555,84.44007942688823L40.80222222222222,36.04635794513668L41.05111111111111,-9.212485715508569L41.22222222222222,51.22326565703522L41.36222222222222,-4.99186291745399L41.79777777777778,19.45217206210163L42.32666666666667,-24.37481774611108L43.711111111111116,-20.116313603124812L43.83555555555556,45.93729193413478L43.97555555555556,76.94076359811051L44.25555555555556,69.96433993305328L44.31777777777778,81.71941531077377L44.52,41.28147879466601L44.56666666666667,32.57201666966191L44.62888888888889,-66.91182223954755L44.784444444444446,-16.960518562789883L45.03333333333333,58.17091817468638L45.18888888888889,13.784385936321197L45.22,78.1622148733505L45.31333333333333,112.59178594387582L45.531111111111116,14.676100156527779L45.577777777777776,25.037184579266352L45.67111111111112,94.94497158562734L46.21555555555556,59.597656288359104L46.93111111111111,65.250357546576L47.040000000000006,45.97283365617284L48.44,89.67241241210753L48.53333333333333,119.26253127559458L48.64222222222222,145.52375360133908L49.04666666666667,152.25054283024468L49.12444444444444,122.8741687958336L49.342222222222226,131.4061000034151L49.49777777777778,148.4819306886159L49.559999999999995,122.1131531152703L49.62222222222222,134.6098911049114L49.653333333333336,134.77908409131447L49.76222222222222,143.45154775376847L50.12,153.62370173600752L50.46222222222222,86.57178019563818L50.47777777777778,87.06930418658536L50.68,102.91901275723147L50.77333333333334,25.57010572081191L50.913333333333334,62.88486231222979L51.05333333333333,-17.874619323878115L51.364444444444445,-20.735549752307605L51.72222222222223,2.5877910289808277L52.406666666666666,76.75830407343174L52.422222222222224,85.25270942689097L52.717777777777776,71.82479737306309L52.93555555555556,-3.5806272262056433L53.38666666666667,46.18388069965124L53.44888888888889,41.309850968704694L53.464444444444446,105.41512838023073L53.635555555555555,89.69005134115915L53.66666666666667,103.1019967610258L53.775555555555556,134.52782182333576L53.837777777777774,146.60682445131366L54.16444444444444,144.4502747855343L54.257777777777775,74.90636164556487L55.06666666666666,52.91812928086841L55.42444444444445,15.598748681344544L56.52888888888889,42.113484241007555L56.90222222222222,86.31051750626492L56.93333333333334,84.42444254247145L56.94888888888889,83.74540230505346L57.43111111111111,107.09244754238534L57.602222222222224,153.24802954091794L57.68,151.7631693607221L58.75333333333334,42.92380265746415L59.39111111111111,45.357900860034846L59.65555555555555,79.06654647417274L59.67111111111111,90.49506824867372L59.68666666666667,100.7036991545942L59.76444444444444,124.05730120416801L59.93555555555555,120.01429083988859L59.98222222222223,127.61309806135769L59.997777777777785,115.1518470741956L60.06,137.91103789196302L60.215555555555554,141.86465532771285L60.72888888888889,96.05204382056914L60.74444444444444,92.13982889959169L60.791111111111114,138.0610699715254L61.22666666666667,89.46471870315297L61.257777777777775,103.21402375919953L61.32,109.53008665456376L61.58444444444444,128.83906189688446L61.83333333333333,162.84249236934426L62.160000000000004,168.4634157791915L62.40888888888889,148.89755784423247L62.67333333333333,80.70363066763339L62.891111111111115,89.62197868627703L63.42,47.524452010407416L63.513333333333335,65.20521620190998L64.13555555555556,75.14259220526732L64.19777777777777,69.15890246251892L64.22888888888889,117.7336994118671L64.35333333333334,136.9865713257897L64.52444444444444,129.36187312241245L64.77333333333334,99.2687222256413L64.92888888888889,120.16807625854915L65.28666666666666,103.72478218772953L65.89333333333333,121.01169221042959L66.00222222222222,98.47211668157199L66.14222222222222,137.9886339739777L66.53111111111112,58.761415805567346L66.59333333333333,93.18465055891815L66.65555555555555,86.77135354202356L67.21555555555555,55.13524126363619L67.2311111111111,92.36491380246176L67.58888888888889,146.08116349122938L67.62,102.71089329446563L67.69777777777777,109.85549510792025L67.97777777777777,97.96228509709316L68.32,131.11324723550723L68.33555555555556,103.85726802938609L68.46,119.14008899863617L68.58444444444444,118.33415540955102L69.12888888888888,131.45094967425845L69.50222222222223,132.5616798075496L69.54888888888888,117.80072382524365L69.87555555555555,124.74629427155708L70.04666666666667,135.9370368311456L70.23333333333333,98.72313319979018L70.28,118.25571828983968L70.43555555555555,106.95606617273536L70.82444444444445,99.46705406094578L71.07333333333334,94.9537380229532L71.16666666666666,87.51954948849078L71.35333333333334,14.313615196624955L71.64888888888889,40.960721933054685L71.71111111111111,101.48138105464444L72.06888888888889,130.42759502734225L72.17777777777778,152.50602477971006L72.27111111111111,185.52065139447623L72.83111111111111,154.456837138146L73.1888888888889,127.05272861755479L73.34444444444443,158.03145685158128L73.45333333333332,87.90153125740264L73.54666666666667,65.9038286377023L73.71777777777778,58.70350127035563L73.81111111111112,106.15353381701819L74.27777777777777,138.8537935186536L74.60444444444444,163.07617669964498L74.71333333333332,155.36789830723205L75.41333333333333,179.1516912718046L75.49111111111112,167.44476296242644L75.74000000000001,144.88384335182053L75.88000000000001,101.67869080270495L75.9888888888889,44.293437583238884L76.02000000000001,108.31909234106006L76.14444444444445,71.38770418035665L76.59555555555555,48.46647393505383L76.8288888888889,119.38480219126112L77.07777777777778,88.88581069636564L77.1711111111111,110.26147958831918L77.2488888888889,118.74689634261688L77.34222222222222,133.322871244658L77.3888888888889,127.3431045542413L77.4511111111111,155.3057165089401L77.62222222222222,144.9591218497248L77.8711111111111,164.97209553366253L78.16666666666667,90.46530027654978L78.21333333333332,92.86375744621284L78.38444444444444,126.86175615477758L78.50888888888889,117.15257255070327L78.58666666666667,121.76564550896241L78.68,133.22811858057827L79.02222222222221,127.15465022146614L79.1,163.4392687143082L79.59777777777778,82.76102562315434L80.06444444444445,136.03159391547544L80.12666666666667,110.85952409604373L80.26666666666667,63.47140780984866L80.43777777777778,86.19244790017314L80.57777777777778,70.94843935334508L80.78,69.72623936452761L80.90444444444445,121.05594002525984L80.9511111111111,93.58559040022479L81.18444444444445,73.76925713296288L81.3711111111111,72.75287264272902L81.74444444444444,86.70787499359452L81.86888888888888,124.42297817922355L82.03999999999999,95.75768965278102L82.35111111111111,140.09424710374495L82.47555555555556,128.13675954700363L82.55333333333333,159.1796122655919L82.58444444444444,130.30033699963397L82.77111111111111,146.46925033804123L82.78666666666668,163.1069917212507L83.08222222222223,126.28557993653897L83.16,124.25383291651896L83.42444444444445,102.72633938497358L83.59555555555556,31.06755305234224L83.73555555555556,76.54378212632912L83.75111111111111,84.38926194692955L84.01555555555557,125.37389987757983L84.62222222222222,155.71795917034854L84.8711111111111,185.24682025674406L85.24444444444445,141.65278113522186L85.38444444444445,113.83516436599527L85.39999999999999,98.71262650956412L85.53999999999999,120.69196858566822L86.1,94.1791108641733L86.27111111111111,116.90130889080224L87.15777777777777,74.04954110182678L88.21555555555555,123.15892084000917L88.24666666666666,143.81114811634072L88.74444444444444,106.82675447425272L88.93111111111111,137.6252748332085L88.99333333333334,149.48627025256525L89.08666666666666,93.44048287492973L89.28888888888889,121.70902976555814L89.30444444444444,103.13581295110698L90.5488888888889,75.53865739880752L90.59555555555555,108.61694776820391L91.03111111111112,109.26982275728733L91.17111111111112,110.5244999979994L91.26444444444444,153.99212712601192L91.35777777777778,137.29443742367846L91.77777777777777,141.45245979150067L91.87111111111112,74.8845952923294L92.22888888888889,132.64454891012286L92.35333333333332,150.1653850464593L92.77333333333333,182.30709041661444L92.89777777777778,169.21553427580847L92.94444444444444,164.00069087805662L93.06888888888889,184.59198423065132L93.47333333333333,105.82220134638183L93.67555555555555,95.43350294531841L93.72222222222221,90.80887215317168L94.00222222222222,97.81209595490026L94.06444444444445,138.02926497452574L94.73333333333333,55.05675721045203L95.44888888888889,24.2562414459936L95.6511111111111,56.191450196656746L95.82222222222222,63.71030513534141L96.10222222222222,62.36851857357737L96.74,71.47911791058492L96.77111111111111,101.10958227248257L97.14444444444445,67.36696411211052L97.20666666666666,64.17705131792283L97.4088888888889,121.49855244143758L97.7511111111111,98.12400472750636L97.78222222222222,105.5405564194344L98,110.99985200973883L98.1711111111111,143.35807532407364L98.18666666666667,114.99073926113559L98.26444444444445,108.79085352422307L98.34222222222222,112.17472672999806L98.41999999999999,107.66895588362759L98.51333333333334,77.36578270271151L98.60666666666667,92.21898284539417L98.68444444444445,105.41780771306058L98.8711111111111,106.42740960115734L99.04222222222222,154.13760076504676L99.2911111111111,159.63416455561952L99.94444444444444,165.76162975356004L100.13111111111111,144.18651662364618L100.25555555555556,127.18736536857496L100.56666666666668,152.43638634268646L100.92444444444445,104.76547019233827L101.25111111111111,111.45625239342763L101.32888888888888,117.47601277369449L101.5,83.56574383221978L101.73333333333333,135.91376592497775L101.76444444444445,161.5015506239578L101.87333333333333,158.1770886803773L102.21555555555557,33.14658967406198L102.40222222222222,55.08902030140544L102.55777777777777,29.665060519876395L102.57333333333334,83.63607688081404L102.6511111111111,95.95960653622234L102.80666666666666,116.71882204591802L103.03999999999999,79.05252817499382L103.21111111111111,132.8702480195626L103.24222222222222,116.42722206703809L103.38222222222223,98.32307444746489L103.52222222222223,113.82265147408958L103.72444444444444,23.076546668059326L103.74,79.99527340176508L103.86444444444444,100.12698506142381L103.91111111111111,95.97923842266611L103.92666666666666,107.08909420785554L104.56444444444445,139.30960095892698L104.62666666666667,119.8382774440667L104.79777777777777,105.0153351872099L104.81333333333333,151.17156220444636L105.07777777777777,172.91627281363964L105.14,102.85354704532719L105.21777777777777,60.9607282213789L105.23333333333333,39.11536903574596L105.54444444444445,89.11017664161044L106.01111111111112,33.00320289067458L106.08888888888889,58.827639398169715L106.12,114.49435025882258L106.15111111111112,116.35370973307809L106.18222222222222,143.118690865093L106.22888888888889,89.17017900756211L106.71111111111111,113.30990923530585L106.74222222222222,-12.528949492652819L106.88222222222223,14.14269504935767L108.28222222222223,67.70370339447992L108.31333333333333,53.275565851299376L108.39111111111112,96.66816478435302L108.71777777777778,25.885294130230598L108.84222222222223,56.72178066121618L109.18444444444444,78.11913054792335L109.65111111111112,26.105930266429503L109.71333333333332,33.964531026869736L109.77555555555556,90.43176781838518L109.9,91.84742136124004L110.22666666666666,5.254717834730316L110.61555555555556,45.5451659249898L111.09777777777778,105.8400202803395L111.36222222222221,87.88636945561062L111.79777777777778,57.79117164537605L111.86,97.95142682209786L112.0311111111111,123.96628607699381L112.20222222222222,162.2223747552282L112.77777777777779,127.42351994400303L112.90222222222222,122.38316187849685L112.96444444444444,102.08469247872262L113.13555555555556,150.55649896147625L113.27555555555556,136.39749284197555L113.46222222222222,86.28001879817049L113.61777777777777,101.11550133923173L113.92888888888889,105.27030953466583L113.94444444444444,106.43318832933718L114.44222222222221,133.95765912693628L114.7688888888889,47.448661119710714L115.34444444444445,12.64141063152037L115.79555555555555,80.20836890940832L115.82666666666667,56.84964242103676L116.05999999999999,86.43472473635066L116.07555555555555,135.69505375289194L116.54222222222222,91.46231388845011L116.61999999999999,135.51918263761976L116.86888888888888,136.43318060653672L117.21111111111111,113.12605398367208L117.24222222222222,121.00582409185387L117.78666666666668,149.66869279016385L118.23777777777777,185.90802530993122L118.70444444444445,192.47652809399045L118.78222222222222,154.78902537272975L118.92222222222222,161.97944168982866L119.01555555555557,165.306112700629L119.51333333333334,176.5115065583156L119.60666666666665,130.2230686252455L119.68444444444445,113.2449819210255L119.77777777777777,134.1117837421944L119.94888888888889,126.21848415987789L120.18222222222222,160.47410589624704L120.88222222222223,153.80583380263604L121.24,142.38306625247932L121.34888888888888,129.18075407481751L122.18888888888888,133.15769490859844L122.39111111111112,117.53839600242341L122.5,54.96155170295934L122.85777777777777,39.63054758724155L122.88888888888889,80.11122124145379L122.96666666666667,121.40505004525154L123.24666666666666,94.95919860362989L123.48,97.69148224568356L123.49555555555555,126.53718794569963L123.55777777777777,119.84317475965975L124.02444444444444,113.93337196058846L124.41333333333334,123.06528043119201L124.86444444444444,112.96321212868745L125.36222222222223,125.40772979033503L125.67333333333333,134.25309969528027L126.07777777777778,123.38339685823625L126.10888888888888,104.51946473077598L126.20222222222223,121.67120174441136L126.28,133.92818342967865L126.31111111111112,169.10419624640963L126.45111111111112,169.51644325759662L126.98,86.28379838172584L127.05777777777777,121.96805035772319L127.29111111111112,134.33895575226782L127.32222222222222,117.58292311561966L127.57111111111112,149.0793765984944L128.2711111111111,85.92135034221242L128.5822222222222,101.1200308514704L128.6288888888889,42.810038746182336L129.12666666666667,95.51846928941264L129.17333333333332,139.33381882635985L129.31333333333333,149.91556656556267L129.36,54.70651522396173L129.37555555555556,67.99741809438567L129.39111111111112,80.03825924021542L129.40666666666667,64.93437620534026L130.06,67.66849647780371L130.5111111111111,100.57008647215436L130.91555555555556,110.96887279326957L131.1488888888889,125.13760275706792L131.36666666666667,79.75228172579497L131.64666666666668,99.62899954640322L132.03555555555556,130.11696774973544L132.45555555555555,151.19265109130185L132.51777777777778,84.44804124729897L133.74666666666667,102.81287950692811L133.88666666666668,143.07810762028836L134.07333333333332,114.67326482534972L134.1822222222222,163.78003144614738L134.4622222222222,95.51948209019207L134.69555555555556,114.92711736209216L134.7577777777778,130.21171111730948L134.83555555555557,83.96347368877065L135.0688888888889,44.37763499093607L135.25555555555556,90.54557918681239L135.31777777777776,110.06552666231116L135.4111111111111,136.01802930417134L136.48444444444445,101.83480452407882L136.65555555555557,120.62547359710625L136.87333333333333,65.31960413960036L137.21555555555557,98.03479995791565L137.6511111111111,74.20833235659869L137.66666666666666,42.001213274471034L137.79111111111112,112.89069862861757L138.38222222222223,96.55772915303304L138.44444444444446,137.20938190859314L138.53777777777776,117.40412636424159L138.6,145.94891717627678L138.64666666666665,151.7228447189631L138.83333333333334,113.3409187251748L139.3,76.33081226673252L139.45555555555555,74.29152889327126L139.70444444444445,70.81138826177072L139.7511111111111,120.27877615997522L140.46666666666667,139.02228449350199L140.6688888888889,135.76638183036803L141.02666666666667,100.5290194096527L141.1977777777778,103.79727392151126L141.72666666666666,127.88496606352429L141.83555555555554,78.51820508123934L141.9911111111111,126.83082784701287L142.1,139.69279379242005L142.2711111111111,132.37842052336538L142.39555555555555,159.35929169300798L142.52,171.7937560635424L143.08,180.32292554125883L143.34444444444443,153.73974272516784L143.5622222222222,164.7169380376185L143.88888888888889,182.51909584042102L143.92000000000002,191.30642417512337L144.04444444444445,169.2748188313365L144.57333333333332,155.53280750730755L144.61999999999998,161.77004467886164L144.66666666666669,144.47357022429392L144.71333333333334,76.91840759912064L144.74444444444444,105.43446193634826L144.82222222222222,107.63425818681335L144.9777777777778,53.232791808841334L145.16444444444446,93.39047142422064L145.41333333333333,132.37266598824183L145.67777777777778,42.60161239912222L145.70888888888888,114.85284247329896L145.83333333333334,139.85795252818502L145.95777777777778,132.35298154532097L146.03555555555556,153.71340896653643L146.0977777777778,168.74336777012056L146.56444444444446,144.39192638325991L147.12444444444446,93.88758285956563L147.45111111111112,113.5300343013822L147.76222222222222,157.3135739126515L147.80888888888887,139.96695110849805L147.82444444444445,174.5794901596145L148.16666666666666,121.19239056984404L148.2288888888889,110.9256265037049L148.24444444444447,117.83526955680783L148.33777777777777,74.79501763961754L148.4,115.55100551534915L148.77333333333334,147.03649349832074L148.96,138.8777779240819L149.02222222222224,154.33345993604732L149.08444444444447,161.55345020143076L149.44222222222223,167.65439074753453L149.67555555555555,145.92008693229397L149.86222222222224,163.46065596467994L150.06444444444443,178.63849125788653L150.73333333333332,202.3535250882718L151.1222222222222,109.64061031105594L151.1688888888889,129.75605514563605L151.24666666666667,102.92404523442677L151.34,101.93549970656927L151.4022222222222,112.16187724691807L151.80666666666667,92.84270270003188L152.44444444444443,83.40324863096065L152.5688888888889,64.22607482850542L153.00444444444443,70.70795389640327L153.14444444444445,126.5266848728239L153.22222222222223,95.90501370580074L153.44,121.23765579939533L153.51777777777778,139.9537964095512L154.29555555555555,118.89805030702584L154.46666666666667,96.59326109218021L155.4,94.00421630398881L155.91333333333333,94.14630546603475L155.9911111111111,127.5173513214819L156.22444444444446,122.80044289952711L156.64444444444445,111.55280004755373L156.8311111111111,162.05169004799853L156.87777777777777,156.39014774919707L156.9711111111111,148.35847456670498L156.98666666666665,142.2154956306022L157.8111111111111,146.20502519875774L157.92,162.47179564845567L157.93555555555554,148.8776409924746L157.98222222222222,171.95634594414952L157.99777777777777,150.3975605896373L158.04444444444442,151.12911772616263L158.0911111111111,136.82736767761443L158.12222222222223,94.76318932433448L158.66666666666666,141.41213744795039L158.68222222222224,151.8992943564994L158.74444444444444,137.48237641453406L159.1488888888889,139.16649542629517L159.32,66.21940833556532L159.70888888888888,63.489687146114555L160.2222222222222,97.49864283583595L160.5022222222222,53.60110829104204L160.70444444444445,84.20216472643149L161.07777777777778,136.22607403440793L161.71555555555557,136.69262080754947L161.9022222222222,166.8088070891268L162.02666666666667,169.06882276487153L162.07333333333332,196.3464030245799L162.39999999999998,184.26300735167558L162.7266666666667,164.10939037139352L162.7422222222222,189.93856478384222L162.78888888888886,135.74545199663092L163.14666666666668,139.30672131771237L163.25555555555556,130.41943949934475L163.2711111111111,124.12540072486779L163.33333333333334,148.88051883748759L163.4111111111111,154.55109221858734L163.53555555555556,116.11253643705223L164.01777777777775,119.00757855280503L164.20444444444445,98.2927017158524L164.82666666666665,40.36392152585127L165.34,88.01959527747354L165.48,135.822125948766L165.62,168.06735830444046L165.9,150.90649782084196L166.04,144.21066012360316L166.08666666666664,144.35661384092367L166.14888888888888,103.21913940683959L166.2111111111111,123.21391481742833L166.2888888888889,157.48776939711317L166.6,143.9808142644247L166.66222222222223,101.752766058569L166.94222222222223,137.43266046239427L167.14444444444445,143.52400684770043L167.34666666666666,160.26939202795086L167.73555555555555,178.14829249277508L167.76666666666665,192.57291000467416L167.81333333333336,176.04602501918004L167.90666666666667,131.16121708827689L168.04666666666665,82.09396819756913L168.32666666666665,128.088083749929L168.37333333333333,153.1678233241552L168.5288888888889,173.00805857750854L168.60666666666665,172.0237630022948L168.85555555555555,96.55049352129606L168.99555555555554,122.07445155847257L169.0888888888889,112.93875887553803L169.2288888888889,23.050440624719343L169.41555555555556,62.50662796519133L169.44666666666666,59.519849811923095L169.7888888888889,87.35181865092015L170.38000000000002,97.25309319791732L170.45777777777778,146.72766593767727L170.5511111111111,112.57752368255571L170.78444444444443,126.32434815111232L170.94,152.04098923768086L171.0488888888889,165.41398991951633L171.14222222222222,140.93543382173354L171.35999999999999,116.34741210750089L171.42222222222222,153.36047396398396L171.4688888888889,147.47452748320586L171.74888888888887,150.08796504439167L171.76444444444445,161.38143579990418L171.8111111111111,144.35910143751354L171.9977777777778,156.5574139359501L172.04444444444445,150.7999193550889L172.18444444444444,144.94642670045758L172.21555555555557,136.31005348617117L172.58888888888887,146.86904939177202L173.33555555555557,153.98711131610017L173.61555555555557,155.71701080857244L173.86444444444444,87.80051141535358L173.89555555555557,111.64186063441704L173.95777777777778,134.03464022149487L174.02,151.39923951548244L174.25333333333333,134.85817363573256L174.37777777777777,82.84519671626772L174.39333333333335,65.9257978631728L174.51777777777778,65.91916532717191L174.64222222222222,32.098602052939206L174.67333333333335,84.72876431132096L174.87555555555554,27.790312198309504L175.14,28.795405600970042L175.68444444444447,58.17549763888422L176.58666666666667,48.56952793461265L176.7733333333333,83.89696793295255L176.94444444444443,129.5782507704932L177.42666666666668,163.69180789871447L177.48888888888888,182.63768058215635L177.92444444444445,188.51675629136L178.2822222222222,159.85644906769417L179.06,100.33704428678885L179.18444444444444,55.881041954792366L179.26222222222222,82.72171565940191L179.43333333333334,123.42420639574652L179.82222222222222,38.76174476730898L179.85333333333332,98.13868513696241L179.89999999999998,106.83060331042319L180.0711111111111,22.03032354054277L180.17999999999998,78.19173296563282L180.32,-48.829972694680386L181.39333333333335,26.535154524227796L181.45555555555558,64.40706357227614L181.53333333333333,82.94347228328498L181.87555555555556,127.91604157370398L182.18666666666664,152.9982735459928L182.3111111111111,43.120642277295815L182.46666666666664,100.68739365946978L182.52888888888887,147.7977749707504L182.77777777777777,119.58862866772436L182.90222222222224,137.114512876053L182.98,82.62895475946627L183.07333333333335,91.32389287127714L183.33777777777777,88.12449646278415L183.47777777777776,124.76253879239674L184.00666666666666,136.57547694546292L184.05333333333334,93.35436916412301L184.58222222222224,121.10918898321025L184.75333333333336,137.04207263551254L184.78444444444443,109.8097743550664L185.22,82.58690024970329L185.78,106.6649959746501L185.81111111111113,150.56370178988584L186.15333333333334,158.36372086781867L186.35555555555555,103.58409334646824L186.60444444444443,61.08033104197482L186.6977777777778,95.57311306271731L186.79111111111112,129.67282935454716L186.83777777777777,130.04668520375654L187.19555555555556,128.9904809861455L187.39777777777778,130.92413711065493L187.4288888888889,138.52984921940828L187.46,110.08373425786891L187.49111111111114,141.6080055721712L187.5533333333333,160.2300953723855L187.61555555555555,168.12261326806947L187.88000000000002,152.97354560611964L187.9111111111111,112.28436663459732L187.97333333333333,114.8270669294059L188.0822222222222,107.91696414426923L188.29999999999998,94.90938501403308L188.3777777777778,68.52503532079207L188.50222222222223,119.97575856391997L188.79777777777778,145.5126464077497L188.81333333333333,123.76715768925337L188.90666666666667,154.27663085640663L189.35777777777778,153.69949612487073L189.51333333333332,137.14829338472316L189.74666666666667,90.9987215750291L189.82444444444445,76.86329524832215L190.12,72.68561326931267L190.47777777777776,70.90843261164635L190.7422222222222,103.46069284607297L190.88222222222223,70.627295502003L190.91333333333333,93.52608807860372L191.31777777777776,138.17799004750586L191.81555555555553,120.92065907023631L192.00222222222223,134.14143223763872L192.1888888888889,99.41097377062658L192.20444444444445,134.33284711879983L192.29777777777778,22.43399769093092L192.43777777777777,86.39699744746386L192.65555555555554,39.06387895682632L192.71777777777777,75.22365060948836L192.8111111111111,113.31577553900188L193.38666666666666,131.9083514216668L193.43333333333334,52.60033650416893L193.68222222222224,95.59643721561885L193.7288888888889,87.5020790337399L193.94666666666666,99.11089684300875L194.02444444444444,61.03932555754934L194.39777777777778,93.25360302174067L194.63111111111112,78.52139229800687L194.67777777777778,70.84579484597673L194.69333333333333,72.3206602927198L195.67333333333332,79.57342785275877L195.86,75.97574782178938L195.87555555555556,105.65670215967978L195.95333333333332,106.33830290665438L196.07777777777778,95.08271491307146L196.20222222222222,49.62164744006469L196.3111111111111,38.406545265119505L197.67999999999998,70.02210204219892L198.14666666666668,117.81594280848549L198.38,140.05848111927298L198.61333333333334,165.2596090523588L198.62888888888887,181.58593794484065L198.90888888888887,175.0421555342026L199.62444444444446,168.7668049738853L199.65555555555557,108.76150811946681L199.84222222222223,115.84421155295546L200.12222222222223,138.4898302655922L200.30888888888887,131.8607545644943L200.77555555555557,95.65372565692091L200.80666666666664,124.03289532545462L201.02444444444447,153.70486679007564L201.22666666666666,161.2756161783931L201.50666666666666,188.16279233104274L201.8488888888889,121.62416031125952L201.86444444444447,157.80030178674323L202.16,100.63339925198713L202.20666666666665,123.97019355379916L202.51777777777778,136.06550968815907L202.59555555555553,127.41295389908568L202.73555555555555,140.29812065856464L202.9688888888889,100.54698450026994L203.43555555555554,105.7199675480013L203.65333333333334,137.54568489280254L204.3688888888889,65.87143936685868L204.4622222222222,85.29267413575738L204.52444444444444,121.83364909833246L204.63333333333333,140.00279545006498L205.1311111111111,88.05451117287484L205.17777777777778,66.71167296368127L205.22444444444443,51.631165475834884L205.36444444444444,87.34036715995639L205.64444444444445,145.11390907047016L205.94,141.5807570843567L206.2511111111111,94.73671097330266L206.40666666666667,101.51059501929292L206.5311111111111,139.03350299038416L206.79555555555555,147.54230660014107L207.34,106.53354975469564L207.9622222222222,93.62402819626125L208.02444444444444,107.26815103609918L208.32,145.05626145523522L208.5066666666667,164.2009541408523L208.55333333333334,110.21742491819289L208.8488888888889,72.80342201529639L208.92666666666665,96.85758802675423L209.0822222222222,70.16425953139793L209.39333333333335,109.68451521593292L209.51777777777778,98.18827320514893L209.92222222222222,91.66009966956838L210.06222222222223,115.62475885407487L210.40444444444447,98.72804014954781L210.6688888888889,142.01624299704324L210.8088888888889,104.63119255673463L210.90222222222224,127.06132243675934L211.16666666666666,114.53357053460446L211.69555555555556,133.14911319709879L211.7577777777778,103.84187663732207L211.82,66.78072564684295L211.88222222222223,107.55951062371102L211.89777777777778,154.94541889297824L211.97555555555556,174.67054930399573L212.13111111111112,96.67398485583496L212.61333333333332,129.07489084328668L212.92444444444445,95.78477541283046L213.1111111111111,144.9720465625839L213.22,138.09627299222447L213.34444444444443,92.20403613277136L213.42222222222222,71.08614939229405L213.59333333333333,124.07464933858346L214.04444444444445,86.66170537749548L214.13777777777779,140.01901627424132L214.63555555555556,124.67008622791036L214.6511111111111,162.57127724397577L214.88444444444445,121.26297787015676L214.99333333333334,142.69812871924066L215.04,147.230376782483L215.36666666666667,148.7828052565254L215.38222222222223,124.27794360070212L215.5222222222222,99.74924591749182L215.69333333333333,65.5913872454719L215.89555555555557,78.64054211879709L216.40888888888887,105.48969405534828L216.51777777777775,78.1850573160825L217.17111111111112,78.2314422898637L217.21777777777777,69.41202911574524L217.40444444444447,16.315760498278614L217.71555555555557,80.49197145702439L217.80888888888887,57.08192599655387L218.05777777777777,125.51872624026952L218.08888888888887,159.23299346382748L218.19777777777776,119.11527009019454L218.33777777777777,83.73944335704564L218.61777777777777,31.091031709465476L218.68,70.121120592447L218.74222222222224,127.01112581669801L218.94444444444446,158.5163557611675L219.0688888888889,123.47869441704579L219.33333333333334,119.70839054165259L219.75333333333336,140.68337044881568L219.76888888888888,127.73762574652902L219.78444444444443,144.25226590102955L219.94,169.59791379982858L220.11111111111111,157.30085087308066L220.5,141.35159051709638L220.64000000000001,90.20473119195263L220.79555555555555,110.14802242562747L220.88888888888889,117.17359324244009L221.85333333333332,115.31174055008498L221.94666666666666,150.89449197362904L221.9777777777778,147.0668337244454L222.5377777777778,149.23054635814805L222.8022222222222,156.25638974184977L222.88000000000002,128.7830228982877L223.22222222222223,157.07655840686033L223.57999999999998,169.31335481447618L223.70444444444445,153.5313974347272L223.81333333333333,177.65356708401788L223.95333333333332,130.26427884003135L224.14,97.81956989825137L224.24888888888887,49.250209583403866L224.8711111111111,112.55705368656646L225.16666666666669,98.0085547127648L225.21333333333334,125.50995227893138L225.41555555555556,148.4818403062221L225.4466666666667,127.71944658082703L225.5088888888889,156.0569128267287L225.61777777777777,126.49831835462564L225.96,135.2048711450929L226.05333333333334,158.1651263697168L226.19333333333333,84.7632377185357L226.2866666666667,106.06014988648488L226.48888888888888,113.31743983821629L226.95555555555558,141.4260524073038L227.08,75.74730395429097L227.2511111111111,100.06992080600715L227.8111111111111,145.51388539696728L227.98222222222222,133.91356723502278L227.99777777777777,145.95948956158756L228.15333333333334,145.89899316279292L228.26222222222222,151.16862894057155L228.54222222222222,157.3640297067697L228.7133333333333,145.00048466101498L229.2111111111111,119.6368403320027L229.2577777777778,98.43148540762142L229.47555555555556,128.68151273165392L229.4911111111111,129.79262138208298L229.78666666666666,160.51502810970277L230.26888888888888,96.42472317847806L230.36222222222221,95.35758993943453L230.45555555555555,142.3349238741095L230.58,141.84719381378264L230.67333333333332,129.06485054282055L230.9688888888889,134.9049852871162L231.49777777777777,147.372635275618L231.6222222222222,118.69353655010207L231.70000000000002,132.7566154362544L232.3688888888889,155.8748647115698L232.38444444444445,154.41810253811306L232.5711111111111,133.49225118191495L232.7266666666667,152.72390428144607L233.17777777777778,169.58718020295424L233.45777777777778,135.5508678649385L233.92444444444445,60.87090571490045L234.23555555555558,62.94118686179587L234.32888888888888,123.85469719639579L234.39111111111112,111.70185390336012L234.42222222222222,10.857866294519283L234.8111111111111,17.318407337269882L234.87333333333333,-6.336975025891223L234.99777777777777,11.188577742720279L235.01333333333335,61.2316773005394L235.02888888888887,83.15169568169523L235.52666666666664,105.79134600346332L235.57333333333335,119.51979897907403L235.63555555555553,138.97225641006844L235.66666666666666,156.69011778858075L236.0088888888889,154.56789094344836L236.05555555555554,142.85588379881418L236.39777777777778,173.17047403265022L236.42888888888888,152.59279822712531L236.74,149.06880699637765L236.86444444444447,153.60250650223037L236.94222222222223,151.95350707397427L237.36222222222224,180.07554284900763L237.86,158.42581679028473L237.93777777777777,174.1581746196878L237.9688888888889,120.2555378112872L238.77777777777777,138.79779381356713L238.98000000000002,114.48222950578976L239.15111111111113,145.08765815038234L239.2133333333333,86.22141034208983L239.4622222222222,38.2922224629119L239.6488888888889,59.795190973770325L239.83555555555554,36.524137594516084L239.94444444444443,94.64927485180796L239.96,58.80169924254955L240.2711111111111,92.05117548498954L240.64444444444445,58.78838269706632L241.1888888888889,105.06284038302938L241.23555555555555,99.74309398578193L241.2511111111111,135.13487278280607L241.76444444444445,161.8257631174204L241.79555555555555,146.27445968159898L241.8111111111111,107.86433073978941L242.2,98.33569780648541L242.30888888888887,93.6203041890907L242.32444444444445,98.54244181630895L242.46444444444444,127.35893659065893L242.5577777777778,132.94722366494375L242.9,130.38844265736603L243.11777777777777,150.81763436613954L243.36666666666667,151.4690612597375L243.55333333333334,155.73331406075408L243.75555555555556,113.41090672229917L243.7866666666667,106.12518621096129L243.83333333333334,90.27884211009211L243.92666666666665,84.8257740072338L244.17555555555558,120.01342558306027L244.3311111111111,153.45628235603317L244.95333333333335,138.98878043511476L244.9688888888889,155.449654570931L245.42,128.54113997025118L245.49777777777777,157.51465365441337L245.71555555555554,170.63769584537565L246.02666666666667,157.68765670741212L246.66444444444443,102.76326752117043L246.68,98.75824638849954L246.82,116.04321024803198L247.45777777777778,156.8671834915154L247.70666666666668,130.66572634871437L247.86222222222221,146.21778591868662L247.98666666666668,137.93306946693292L248.01777777777778,153.62156326585074L248.08,169.79505218126215L248.1111111111111,183.87899271060726L249.0288888888889,187.50390319548544L249.80666666666667,148.5079179347902L249.9622222222222,100.54950162418781" style="fill: none;" fill="none"></path></g></g></g></g><g opacity="0.2"><g><g><g><path stroke="rgb(255, 112, 67)" stroke-width="2px" d="M33.05555555555556,-50.37710557878016L33.16444444444445,0.2538572698831755L33.22666666666667,154.5613821297884L33.47555555555555,15.36280770599844L33.53777777777778,-85.22547709941863L33.724444444444444,-205.85992488265035L34.12888888888889,60.76555323600771L34.346666666666664,-99.9312408566475L34.51777777777778,-36.44920814037323L34.766666666666666,49.83425770699979L34.891111111111115,86.37218230217697L35.077777777777776,106.55797921866179L35.7,-9.639975458383548L36.07333333333333,92.80651991069317L36.135555555555555,134.34090201556683L36.21333333333333,56.799294397234924L36.36888888888889,-100.04733505845068L36.60222222222222,72.17024803906679L36.72666666666666,-139.28229588270185L36.757777777777775,-20.82251536846161L36.78888888888889,54.239045798778555L36.97555555555556,115.72155260294677L37.16222222222222,16.508166462183024L37.45777777777778,47.82379713654519L37.59777777777778,33.276261731982245L37.940000000000005,99.56939180195332L38.17333333333333,81.73820596933366L38.20444444444445,18.185751855373407L38.220000000000006,180.83440444245934L38.46888888888889,-1.5062380880117285L39.10666666666666,88.73013422638178L39.24666666666666,185.03909378126264L39.34,-33.14036953449251L39.74444444444445,28.899650990962996L39.97777777777778,87.37175294011833L40.27333333333333,137.05956578999758L40.44444444444444,48.491064056754134L40.70888888888889,-34.04835279285908L40.75555555555555,172.776445902884L40.80222222222222,-36.54422427713871L41.05111111111111,-77.1007512062788L41.22222222222222,141.87689271569252L41.36222222222222,-89.31455577909948L41.79777777777778,56.11822453141213L42.32666666666667,-90.11530245840551L43.711111111111116,-10.411577701568591L43.83555555555556,145.01770024001598L43.97555555555556,123.44597109407187L44.25555555555556,59.49970443546773L44.31777777777778,99.35202837735415L44.52,-19.375425979495063L44.56666666666667,19.507823482155814L44.62888888888889,-216.13758060336113L44.644444444444446,18.796488240361228L44.784444444444446,6.541450664401068L45.03333333333333,170.86807328090072L45.18888888888889,-52.7954124212265L45.22,174.72895827889442L45.31333333333333,164.23614254966378L45.531111111111116,-132.19742852449414L45.577777777777776,40.57881121337416L45.67111111111112,199.80665209516883L46.21555555555556,6.576683342456837L46.93111111111111,73.72940943390131L47.040000000000006,17.056547820568106L48.44,155.22178054600954L48.53333333333333,163.6477095708251L48.64222222222222,184.9155870899558L49.04666666666667,162.34072667360306L49.12444444444444,78.80960774421692L49.342222222222226,144.2039968147874L49.49777777777778,174.09567671641707L49.559999999999995,82.5599867552519L49.62222222222222,153.3549980893731L49.653333333333336,135.03287357091904L49.76222222222222,156.4602432474494L50.12,168.88193270936608L50.46222222222222,-14.006102114915835L50.47777777777778,87.81559017300607L50.68,126.69357561320068L50.77333333333334,-90.45325483381748L50.913333333333334,118.85699719935656L51.05333333333333,-139.01384177803993L51.30222222222223,19.19580657780172L51.364444444444445,-47.2692009359598L51.72222222222223,37.572802200913436L52.406666666666666,188.0140736401081L52.422222222222224,97.9943174570799L52.717777777777776,51.68292929232121L52.93555555555556,-116.68876412510869L53.38666666666667,120.8306425884366L53.44888888888889,33.9988063722849L53.464444444444446,201.57304449751973L53.635555555555555,66.10243578255177L53.66666666666667,123.21991489082576L53.775555555555556,181.66655941680074L53.837777777777774,164.7253283932805L54.16444444444444,141.21545028686523L54.257777777777775,-29.40950806438923L55.06666666666666,19.935780733823798L55.42444444444445,-40.3803222179413L56.52888888888889,81.88558758050205L56.90222222222222,152.60606740415096L56.93333333333334,81.59533009678127L56.94888888888889,82.72684194892646L57.43111111111111,142.11301539838314L57.602222222222224,222.4814025387168L57.68,149.53587909042835L58.75333333333334,-120.33524739742276L59.39111111111111,49.00904816389085L59.65555555555555,129.62951489537954L59.67111111111111,107.63785091042519L59.68666666666667,116.01664551347494L59.76444444444444,159.0877042785287L59.93555555555555,113.94977529346944L59.98222222222223,139.01130889356136L59.997777777777785,96.45997059345245L60.06,172.0498241186142L60.215555555555554,147.79508148133755L60.72888888888889,27.333126559853575L60.74444444444444,86.27150651812553L60.791111111111114,206.94293157942593L61.22666666666667,16.57019180059435L61.257777777777775,123.83798134326936L61.32,119.00418099761009L61.58444444444444,157.8025247603655L61.83333333333333,213.84763807803392L62.160000000000004,176.89480089396238L62.40888888888889,119.54877094179393L62.67333333333333,-21.587260097265244L62.891111111111115,102.99950071424246L63.42,-15.621838003396975L63.513333333333335,91.72636248916388L64.13555555555556,90.0486562103033L64.19777777777777,60.183367848396315L64.22888888888889,190.59589483588934L64.35333333333334,165.86587919667363L64.52444444444444,117.92482581734659L64.77333333333334,54.1289958804846L64.92888888888889,151.51710730791092L65.28666666666666,79.05984108150005L65.89333333333333,146.94205724447966L66.00222222222222,64.66275338828564L66.14222222222222,197.2634099125862L66.53111111111112,-60.07941144704819L66.59333333333333,144.81950268894434L66.65555555555555,77.15140801668167L67.21555555555555,7.68107284605505L67.2311111111111,148.20942261070013L67.58888888888889,226.6555380243808L67.62,37.65548799932004L67.69777777777777,120.57239782810211L67.97777777777777,80.12247008085252L68.32,180.83969044312835L68.33555555555556,62.97329922020436L68.46,142.0643204525113L68.58444444444444,117.12525502592325L69.12888888888888,151.12614107131958L69.50222222222223,134.22777500748634L69.54888888888888,95.6592898517847L69.87555555555555,135.16464994102716L70.04666666666667,152.7231506705284L70.23333333333333,42.90227775275708L70.28,147.55459592491388L70.43555555555555,90.0065879970789L70.82444444444445,88.23353589326145L71.07333333333334,88.18376396596432L71.16666666666666,76.36826668679714L71.35333333333334,-95.49528624117376L71.64888888888889,80.93138203769922L71.71111111111111,192.26236973702908L72.06888888888889,173.84691598638892L72.17777777777778,185.62366940826178L72.27111111111111,235.04259131662548L72.83111111111111,107.86111575365067L73.1888888888889,85.94656583666801L73.34444444444443,204.49954920262098L73.45333333333332,-17.293357133865342L73.54666666666667,32.90727470815183L73.71777777777778,47.90301021933557L73.81111111111112,177.328582637012L74.60444444444444,199.40975147113204L74.71333333333332,143.80548071861267L75.41333333333333,214.82738071866333L75.49111111111112,149.8843704983592L75.74000000000001,111.04246393591166L75.88000000000001,36.87096197903157L75.9888888888889,-41.78444224596022L76.02000000000001,204.3575744777918L76.14444444444445,15.990621939301517L76.59555555555555,14.084628567099598L76.8288888888889,225.762294575572L77.07777777777778,43.13732345402243L77.1711111111111,142.3249829262495L77.2488888888889,131.4750214740634L77.34222222222222,155.18683359771967L77.3888888888889,118.3734545186162L77.4511111111111,197.2496344409883L77.62222222222222,129.43922986090183L77.8711111111111,194.99155605956912L78.16666666666667,-21.294892609119415L78.21333333333332,96.46144320070744L78.38444444444444,177.85875421762466L78.50888888888889,102.58879714459181L78.58666666666667,128.68525494635105L78.68,150.4218281880021L79.02222222222221,118.04444768279791L79.1,217.86619645357132L80.06444444444445,215.93744635395706L80.12666666666667,73.10141936689615L80.26666666666667,-7.610766619443907L80.43777777777778,120.27400803565979L80.57777777777778,48.082426533103L80.78,67.8929393813014L80.90444444444445,198.05049101635814L80.9511111111111,52.380065962672255L81.18444444444445,44.04475723206999L81.3711111111111,71.2282959073782L81.74444444444444,107.64037851989269L81.86888888888888,180.9956329576671L82.03999999999999,52.759756863117225L82.35111111111111,206.59908328019083L82.47555555555556,110.20052821189167L82.55333333333333,205.7438913434744L82.58444444444444,86.98142410069704L82.77111111111111,170.7226203456521L82.78666666666668,188.06360379606485L83.08222222222223,71.05346225947142L83.16,121.20621238648893L83.42444444444445,70.43509908765554L83.59555555555556,-76.42062644660471L83.73555555555556,144.75812573730946L83.75111111111111,96.15748167783022L84.01555555555557,186.85085677355528L84.8711111111111,229.5401118863374L85.24444444444445,76.26172245293857L85.38444444444445,72.10873921215536L85.39999999999999,76.02881972491741L85.53999999999999,153.66098169982433L86.1,54.409824281930945L86.27111111111111,150.9846059307456L87.15777777777777,9.77188941836359L88.21555555555555,196.8229904472828L88.24666666666666,174.789489030838L88.74444444444444,51.35016401112081L88.93111111111111,183.8230553716421L88.99333333333334,167.27776338160038L89.08666666666666,9.371801808476475L89.28888888888889,164.11185010150075L89.30444444444444,75.27598772943021L90.5488888888889,34.14292407035828L90.59555555555555,158.23438332229853L91.03111111111112,110.24913524091244L91.17111111111112,112.40651585906744L91.26444444444444,219.19356781803071L91.35777777777778,112.24790287017822L91.77777777777777,147.68949334323406L91.87111111111112,-24.96720145642759L92.22888888888889,219.2844793368131L92.35333333333332,176.44663925096393L92.77333333333333,230.51964847184718L92.89777777777778,149.5782000645995L92.94444444444444,156.1784257814288L93.06888888888889,215.47892425954342L93.47333333333333,-12.332472980022418L93.67555555555555,79.85045534372331L93.72222222222221,83.87192596495153L94.00222222222222,108.31693165749311L94.06444444444445,198.35501850396395L95.44888888888889,-21.94453220069407L95.6511111111111,104.09426332265139L95.82222222222222,74.98858754336834L96.10222222222222,60.35583873093129L96.74,85.14501691609622L96.77111111111111,145.55527881532907L97.14444444444445,16.75303687155249L97.20666666666666,59.39218212664129L97.4088888888889,207.4808041267097L97.7511111111111,63.06218315660954L97.78222222222222,116.66538395732643L98,119.18879539519548L98.1711111111111,191.89541029557586L98.18666666666667,72.4397351667285L98.26444444444445,99.49102491885424L98.34222222222222,117.25053653866053L98.41999999999999,100.91029961407185L98.51333333333334,31.91102293133737L98.60666666666667,114.4987830594182L98.68444444444445,125.21604501456024L98.8711111111111,107.9418124333024L99.04222222222222,225.70288751088083L99.2911111111111,167.87901024147868L99.94444444444444,174.95282755047083L100.13111111111111,111.82384692877532L100.25555555555556,101.68863848596813L100.56666666666668,190.30991780385375L100.92444444444445,33.259095966815956L101.25111111111111,121.49242569506168L101.32888888888888,126.50565334409477L101.5,32.70034042000771L101.73333333333333,214.4357990641147L101.76444444444445,199.8832276724279L101.87333333333333,153.19039576500654L102.21555555555557,-154.39915883541104L102.40222222222222,88.00266624242067L102.55777777777777,-8.470879152417183L102.57333333333334,164.59260142222047L102.6511111111111,114.44490101933481L102.80666666666666,147.85764531046152L103.03999999999999,22.553087368607535L103.21111111111111,213.59682778641582L103.24222222222222,91.76268313825132L103.38222222222223,71.16685301810504L103.52222222222223,137.07201701402664L103.72444444444444,-113.04261054098608L103.74,165.37336350232363L103.86444444444444,130.3245525509119L103.91111111111111,89.75761846452953L103.92666666666666,123.75387788563968L104.56444444444445,187.6403610855341L104.62666666666667,90.63129217177631L104.79777777777777,82.78092180192472L104.81333333333333,220.40590273030102L105.21777777777777,-1.8785000145435333L105.23333333333333,6.3473302572965755L105.54444444444445,164.10238805040717L106.01111111111112,-51.15725773572922L106.08888888888889,97.56429415941238L106.12,197.99441654980183L106.15111111111112,119.14274894446135L106.18222222222222,183.26616256311536L106.22888888888889,8.247411221265812L106.71111111111111,149.51950457692146L106.74222222222222,-201.2872375845909L106.88222222222223,54.15016186237337L108.28222222222223,148.04521591216326L108.31333333333333,31.6333595365286L108.39111111111112,161.7570631839335L108.71777777777778,-80.28901185095312L108.84222222222223,102.97651045769453L109.18444444444444,110.21515537798405L109.65111111111112,-51.913870155811324L109.71333333333332,45.75243216753007L109.77555555555556,175.1326230056584L109.9,93.97090167552234L110.22666666666666,-124.63433745503426L110.61555555555556,105.98083806037903L111.09777777777778,196.28230181336403L111.36222222222221,60.95589321851732L111.79777777777778,12.648374930024174L111.86,158.19180958718061L112.0311111111111,162.9885749593377L112.20222222222222,219.6065077725798L112.77777777777779,75.22523772716522L112.90222222222222,114.82262478023769L112.96444444444444,71.63698837906124L113.13555555555556,223.26420868560672L113.27555555555556,115.1589836627245L113.46222222222222,11.103807732462895L113.61777777777777,123.3687251508236L113.92888888888889,111.50252182781696L113.94444444444444,108.17750652134418L114.44222222222221,175.24436532333493L114.7688888888889,-82.31483589112759L115.79555555555555,181.5588063262403L115.82666666666667,21.811552688479438L116.05999999999999,130.8123482093215L116.07555555555555,209.58554727770388L116.54222222222222,25.11320409178736L116.61999999999999,201.60448576137424L116.86888888888888,137.8041775599122L117.21111111111111,78.16536404937506L117.24222222222222,132.82547925412655L117.78666666666668,192.66299583762884L118.23777777777777,240.26702408958226L118.54888888888888,164.66746811568737L118.70444444444445,215.07361658662558L118.78222222222222,98.25777129083873L118.92222222222222,172.76506616547704L119.01555555555557,170.29611921682954L119.51333333333334,193.31959734484553L119.60666666666665,60.79041172564032L119.68444444444445,87.77785186469555L119.77777777777777,165.41198647394776L119.94888888888889,114.3785347864032L120.18222222222222,211.85753850080073L120.88222222222223,143.80342566221952L121.24,125.2489149272442L121.34888888888888,109.37728580832481L122.18888888888888,139.1231061592698L122.39111111111112,94.10944764316082L122.5,-38.903714746236815L122.85777777777777,16.634041413664843L122.88888888888889,140.83223172277212L122.96666666666667,183.3457932509482L123.24666666666666,55.29042144119742L123.48,101.78990770876408L123.49555555555555,169.80574649572372L123.55777777777777,109.80215498059988L124.02444444444444,105.0686677619815L124.41333333333334,136.76314313709736L124.86444444444444,97.81010967493057L125.36222222222223,144.0745062828064L125.67333333333333,147.52115455269814L126.07777777777778,107.0788426026702L126.10888888888888,76.22356653958559L126.20222222222223,147.39880726486444L126.28,152.3136559575796L126.31111111111112,221.86821547150612L126.45111111111112,170.1348137743771L126.98,-38.565168932080255L127.05777777777777,175.49442832171917L127.29111111111112,152.89531384408474L127.32222222222222,92.44887416064739L127.57111111111112,196.3240568228066L128.2711111111111,-8.815689042210566L128.5822222222222,123.9180516153574L128.6288888888889,-44.65494941174984L129.12666666666667,174.58111510425806L129.17333333333332,205.05684313178062L129.31333333333333,165.78818817436695L129.36,-88.10706178843975L129.37555555555556,87.93377240002157L129.39111111111112,98.09952095896007L129.40666666666667,42.278551653027556L130.06,71.76967688649893L130.5111111111111,149.92247146368027L130.91555555555556,126.5670522749424L131.1488888888889,146.39069770276546L131.36666666666667,11.674300178885472L131.64666666666668,129.44407627731562L132.03555555555556,175.84892005473375L132.45555555555555,182.80617610365152L132.51777777777778,-15.66887351870538L133.74666666666667,130.36013689637184L133.88666666666668,203.47594979032874L134.07333333333332,72.06600063294172L134.1822222222222,237.44018137734383L134.4622222222222,-6.871341943740818L134.69555555555556,144.03857026994228L134.7577777777778,153.13860175013542L134.83555555555557,14.591117545962346L135.0688888888889,-15.00112305581571L135.25555555555556,159.79749548062682L135.31777777777776,139.34544787555933L135.4111111111111,174.94678326696157L136.48444444444445,50.559967353940024L136.65555555555557,148.8114772066474L136.87333333333333,-17.6392000466585L137.21555555555557,147.10759368538857L137.6511111111111,38.46863095462323L137.66666666666666,-6.309465348720537L137.79111111111112,219.22492665983737L138.38222222222223,72.05827493965627L138.44444444444446,198.1868610419333L138.53777777777776,87.69624304771425L138.6,188.76610339432955L138.64666666666665,160.3837360329926L138.83333333333334,55.76802973449231L139.3,20.81565257906916L139.45555555555555,71.23260383307935L139.70444444444445,65.5911773145199L139.7511111111111,194.47985800728202L140.46666666666667,167.13754699379206L140.6688888888889,130.88252783566713L141.02666666666667,47.67297577857973L141.1977777777778,108.69965568929912L141.72666666666666,164.01650427654386L141.83555555555554,4.468063607811947L141.9911111111111,199.29976199567318L142.1,158.98574271053076L142.2711111111111,121.40686061978342L142.39555555555555,199.83059844747186L143.08,193.11667975783348L143.34444444444443,113.8649685010314L143.5622222222222,181.1827310062945L143.92000000000002,204.48741667717695L144.04444444444445,136.22741081565619L144.57333333333332,134.91979052126408L144.61999999999998,171.12590043619275L144.66666666666669,118.52885854244232L144.71333333333334,-24.41433633863926L144.74444444444444,148.2085434421897L144.82222222222222,110.93395256251098L144.9777777777778,-28.369407758116722L145.16444444444446,153.62699084728956L145.41333333333333,190.84595783427358L145.83333333333334,177.36561761051416L145.95777777777778,121.0955250710249L146.03555555555556,185.75405009835958L146.0977777777778,191.28830597549677L146.56444444444446,107.86476430296898L147.12444444444446,18.13106757402422L147.45111111111112,142.99371146410704L147.76222222222222,222.9888833295554L147.80888888888887,113.94701690226793L147.82444444444445,226.49829873628914L148.16666666666666,41.1117411851883L148.2288888888889,95.52548040449621L148.24444444444447,128.1997341364622L148.33777777777777,10.234639763832112L148.4,176.6849873289466L148.77333333333334,194.26472547277808L148.96,126.63970456272365L149.02222222222224,177.51698295399547L149.08444444444447,172.3834355995059L149.44222222222223,176.8058015666902L149.67555555555555,113.31863120943308L149.86222222222224,189.77150951325893L151.1222222222222,-29.4287618547678L151.1688888888889,159.92922239750624L151.24666666666667,62.67603036761286L151.34,100.452681414783L151.4022222222222,127.50144355744125L151.80666666666667,63.86394087970258L152.44444444444443,69.24406752735376L152.5688888888889,35.46031412482263L153.00444444444443,80.43077249825002L153.14444444444445,210.25478133745492L153.22222222222223,49.972506955266006L153.44,159.23661893978715L153.51777777777778,168.028007324785L154.29555555555555,87.31443115323783L154.46666666666667,63.13607726991179L155.4,90.12064912170172L155.91333333333333,94.3594392091036L155.9911111111111,177.57392010465264L156.22444444444446,115.7250802665949L156.64444444444445,94.68133576959372L156.8311111111111,237.8000250486657L156.87777777777777,147.89783430099487L156.9711111111111,136.31096479296684L156.98666666666665,133.00102722644806L157.8111111111111,152.18931955099106L157.92,186.87195132300258L157.93555555555554,128.48640900850296L157.98222222222222,206.5744033716619L157.99777777777777,118.05938255786896L158.04444444444442,152.22645343095064L158.0911111111111,115.37474260479212L158.12222222222223,31.666921794414534L158.66666666666666,211.3855596333742L158.68222222222224,167.63002971932292L158.74444444444444,115.85699950158596L159.1488888888889,141.69267394393682L159.32,-43.20122230052948L159.70888888888888,59.3951053619385L160.2222222222222,148.51207637041807L160.5022222222222,-12.245193526148809L160.70444444444445,130.10374937951565L161.07777777777778,214.26193799637258L161.71555555555557,137.3924409672618L161.9022222222222,211.98308651149273L162.02666666666667,172.45884627848864L162.07333333333332,237.26277341414243L162.24444444444444,190.46032705157995L162.39999999999998,164.82336117699742L162.7266666666667,133.87896490097046L162.7422222222222,228.68232640251517L162.78888888888886,54.45578281581404L163.14666666666668,144.64862529933453L163.25555555555556,117.08851677179337L163.2711111111111,114.68434256315231L163.33333333333334,186.01319600641727L163.4111111111111,163.05695229023695L163.53555555555556,58.45470276474955L164.01777777777775,123.35014172643425L164.20444444444445,67.22038646042348L164.82666666666665,-46.52924875915049L165.34,159.503105904907L165.48,207.5259219557047L165.62,216.43520683795214L165.9,125.16520709544422L166.04,134.16690357774496L166.08666666666664,144.57554441690445L166.14888888888888,41.51292775571348L166.2111111111111,153.20607793331146L166.2888888888889,208.89855126664042L166.6,123.72038156539203L166.66222222222223,38.41069374978544L166.94222222222223,190.95250206813216L167.14444444444445,152.66102642565966L167.34666666666666,185.3874697983265L167.76666666666665,214.2098362725228L167.81333333333336,151.25569754093885L167.90666666666667,63.8340051919222L168.04666666666665,8.493094861507435L168.32666666666665,197.0792570784688L168.5288888888889,202.7684114575386L168.60666666666665,170.54731963947415L168.85555555555555,-16.659410700201988L168.99555555555554,160.3603886142373L169.0888888888889,99.23521985113621L169.2288888888889,-111.78203675150871L169.41555555555556,121.69090897589922L169.44666666666666,55.03968258202077L169.7888888888889,129.09977190941572L170.38000000000002,112.10500501841308L170.45777777777778,220.93952504731715L170.5511111111111,61.352310299873366L170.78444444444443,146.94458485394716L170.94,190.61595086753368L171.0488888888889,185.47349094226956L171.14222222222222,104.21759967505932L171.35999999999999,79.4653795361519L171.42222222222222,208.8800667487085L171.4688888888889,138.6456077620387L171.74888888888887,154.0081213861704L171.76444444444445,178.32164193317294L171.8111111111111,118.82559989392759L171.9977777777778,174.85488268360496L172.04444444444445,142.16367748379707L172.18444444444444,136.16618771851063L172.21555555555557,123.35549366474152L172.58888888888887,162.70754325017333L173.33555555555557,164.66420420259237L173.61555555555557,158.3118600472808L173.86444444444444,-14.074237674474729L173.89555555555557,147.40388446301222L173.95777777777778,167.62380960211158L174.02,177.4461384564638L174.25333333333333,110.04657481610775L174.37777777777777,4.825731337070492L174.39333333333335,40.54669958353045L174.51777777777778,65.90921652317049L174.64222222222222,-18.632242858409896L174.67333333333335,163.67400769889355L174.87555555555554,-57.61736597120762L175.14,30.30304570496083L175.68444444444447,102.24563569575548L176.58666666666667,34.16057337820532L176.7733333333333,136.88812793046236L176.94444444444443,198.1001750268042L177.92444444444445,197.33536985516548L178.2822222222222,116.86598823219538L179.06,11.057937115430851L179.18444444444444,-10.8029615432024L179.26222222222222,122.98272621631622L179.43333333333334,184.47794250026345L179.85333333333332,187.2040956914425L179.89999999999998,119.86848057061434L180.0711111111111,-105.17009611427783L180.17999999999998,162.4338471032679L180.32,-239.36253118515015L181.39333333333335,139.58284535259008L181.45555555555558,121.21492714434862L181.53333333333333,110.7480853497982L181.87555555555556,195.37489550933242L182.52888888888887,218.4633469376713L182.77777777777777,77.27490921318531L182.90222222222224,163.40333918854594L182.98,0.9006175845861566L183.07333333333335,104.36630003899337L183.33777777777777,83.32540185004474L183.47777777777776,179.71960228681564L184.00666666666666,154.29488417506218L184.05333333333334,28.522707492113135L184.58222222222224,162.7414187118411L184.75333333333336,160.941398113966L184.78444444444443,68.96132693439722L185.22,41.7525890916586L185.78,142.78213956207037L185.81111111111113,216.41176051273942L186.15333333333334,170.06374948471785L186.35555555555555,21.41465206444264L186.60444444444443,-2.6753124147653446L186.6977777777778,147.31228609383106L186.79111111111112,180.82240379229188L186.83777777777777,130.60746897757053L187.19555555555556,127.406174659729L187.39777777777778,133.82462129741907L187.4288888888889,149.93841738253832L187.46,67.41456181555986L187.49111111111114,188.89441254362464L187.61555555555555,179.9613901115954L187.88000000000002,130.24994411319494L187.9111111111111,51.25059817731382L187.97333333333333,118.64111737161875L188.0822222222222,97.55180996656419L188.29999999999998,75.39801631867887L188.3777777777778,28.948510780930533L188.50222222222223,197.15184342861176L188.79777777777778,183.81797817349434L188.81333333333333,91.14892461150885L188.90666666666667,200.0408406071365L189.35777777777778,152.8337940275669L189.51333333333332,112.3214892745018L189.74666666666667,21.774363860487952L189.82444444444445,55.66015575826169L190.12,66.41909030079843L190.47777777777776,68.24266162514688L190.7422222222222,152.2890831977129L190.88222222222223,21.377199485898025L190.91333333333333,127.87427694350481L191.31777777777776,205.15584300085902L191.81555555555553,95.03466260433197L192.00222222222223,153.97259198874235L192.1888888888889,47.31528607010842L192.20444444444445,186.71565714105964L192.65555555555554,-31.935798779129968L192.71777777777777,129.46330808848143L192.8111111111111,170.45396293327212L193.38666666666666,159.79721524566412L193.43333333333334,-66.36168587207794L193.68222222222224,160.09058828279376L193.7288888888889,75.36054176092148L193.94666666666666,116.52412355691195L194.02444444444444,3.9319686293602123L194.39777777777778,141.5750192180276L194.63111111111112,56.42307621240617L194.67777777777778,59.33239866793158L194.69333333333333,74.53295846283436L195.67333333333332,90.45257919281721L195.86,70.57922777533533L195.87555555555556,150.17813366651535L195.95333333333332,107.3607040271163L196.07777777777778,78.19933292269708L196.20222222222222,-18.56995376944542L196.3111111111111,21.58389200270178L197.67999999999998,117.44543720781803L198.14666666666668,189.5067039579153L198.38,173.42228858545423L198.61333333333334,203.0613009519875L198.62888888888887,206.07543128356338L198.90888888888887,165.22648191824555L199.62444444444446,159.35377913340926L199.65555555555557,18.75356283783914L199.84222222222223,126.46826670318843L200.12222222222223,172.45825833454728L200.30888888888887,121.91714101284742L200.77555555555557,41.343182295560844L200.80666666666664,166.60164982825518L201.02444444444447,198.21282398700714L201.22666666666666,172.63174026086926L201.50666666666666,228.49355656001717L201.8488888888889,21.816212281584747L201.86444444444447,212.06451399996877L202.16,14.883045449852963L202.20666666666665,158.97538500651717L202.51777777777778,154.20848388969898L202.59555555555553,114.43412021547557L202.73555555555555,159.62587079778314L202.9688888888889,40.92028026282789L203.43555555555554,113.4794421195984L203.65333333333334,185.28426091000438L204.3688888888889,-41.639928922057166L204.4622222222222,114.42452628910543L204.52444444444444,176.64511154219508L204.63333333333333,167.25651497766376L205.1311111111111,10.132084757089627L205.17777777777778,34.697415649890914L205.22444444444443,29.010404244065292L205.36444444444444,140.90416968613863L205.64444444444445,231.7742219362408L205.94,136.28102910518646L206.2511111111111,24.47064180672171L206.40666666666667,111.6714210882783L206.5311111111111,195.317864947021L206.79555555555555,160.30551201477647L207.34,45.02041448652746L207.9622222222222,74.25974585860968L208.02444444444444,127.73433529585601L208.32,201.7384270839393L208.5066666666667,192.9179931692779L208.55333333333334,29.242131084203734L208.8488888888889,16.682417660951636L208.92666666666665,132.93883704394102L209.0822222222222,30.124266788363478L209.39333333333335,168.9648987427354L209.51777777777778,80.94391018897295L209.92222222222222,81.8678393661976L210.06222222222223,151.57174763083458L210.40444444444447,73.38296209275724L210.6688888888889,206.94854726828635L210.8088888888889,48.55361689627172L210.90222222222224,160.70651725679636L211.16666666666666,95.74194268137217L211.69555555555556,161.07242719084024L211.7577777777778,59.88102179765702L211.82,11.188999161124242L211.88222222222223,168.7276880890131L211.89777777777778,226.02428129687905L212.61333333333332,177.67624982446432L212.92444444444445,45.84960226714613L213.1111111111111,218.75295328721404L213.22,127.78261263668537L213.34444444444443,23.365680843591697L213.42222222222222,39.40931928157808L213.59333333333333,203.55739925801754L214.04444444444445,30.54228943586351L214.13777777777779,220.0549826193601L214.63555555555556,101.64669115841389L214.6511111111111,219.42306376807392L214.88444444444445,59.30052880942823L214.99333333333334,174.85085499286652L215.04,154.02874887734652L215.36666666666667,151.1114479675889L215.38222222222223,87.52065111696722L215.5222222222222,62.956199392676375L215.69333333333333,14.354599237442029L215.89555555555557,98.21427442878485L216.40888888888887,145.76342196017504L216.51777777777775,37.22810220718385L217.17111111111112,78.3010197505355L217.21777777777777,56.182909354567535L217.40444444444447,-63.32864242792128L217.71555555555557,176.75628789514303L217.80888888888887,21.966857805848143L218.05777777777777,228.173926605843L218.08888888888887,209.80439429916441L218.19777777777776,58.93868502974512L218.33777777777777,30.675703257322333L218.61777777777777,-47.88158576190473L218.68,128.66625391691923L218.74222222222224,212.3461336530745L218.94444444444446,205.7742006778717L219.0688888888889,70.92220240086318L219.33333333333334,114.05293472856285L219.75333333333336,172.1458403095603L219.76888888888888,108.31900869309902L219.78444444444443,169.0242261327803L219.94,207.61638564802706L220.11111111111111,138.8552564829588L220.5,117.42769998311996L220.64000000000001,13.484442204237004L220.79555555555555,140.06295927613974L220.88888888888889,127.71194946765901L221.85333333333332,112.51896151155235L221.94666666666666,204.26861910894513L221.9777777777778,141.32534635066986L222.5377777777778,152.476115308702L222.8022222222222,166.79515481740236L222.88000000000002,87.5729726329446L223.22222222222223,199.51686166971922L223.57999999999998,187.66854942589998L223.70444444444445,129.85846136510372L223.81333333333333,213.83682155795395L223.95333333333332,59.1803464740515L224.14,49.152506485581405L224.24888888888887,-23.60383088886738L224.8711111111111,207.51731984131038L225.16666666666669,76.18580625206233L225.21333333333334,166.76204862818122L225.41555555555556,182.9396723471582L225.4466666666667,96.57585599273443L225.5088888888889,198.5631121955812L225.61777777777777,82.16042664647102L225.96,148.26470033079386L226.05333333333334,192.60550920665264L226.19333333333333,-25.339595258235917L226.2866666666667,138.00551813840866L226.48888888888888,124.20337476581336L226.95555555555558,183.58897126093507L227.08,-22.770818725228324L227.2511111111111,136.55384608358145L227.8111111111111,213.67983228340745L227.98222222222222,116.51308999210596L227.99777777777777,164.02837305143476L228.15333333333334,145.80824856460094L228.26222222222222,159.07308260723948L228.54222222222222,166.65713085606694L228.7133333333333,126.45516709238291L229.2111111111111,81.5913738384843L229.2577777777778,66.62345302104951L229.47555555555556,174.05655371770263L229.4911111111111,131.45928435772657L229.78666666666666,206.59863820113242L230.26888888888888,0.2892657816410261L230.36222222222221,93.7568900808692L230.45555555555555,212.80092477612197L230.58,141.11559872329235L230.67333333333332,109.89133563637733L230.9688888888889,143.66518740355968L231.49777777777777,166.07411025837064L231.6222222222222,75.67488846182825L231.70000000000002,153.8512337654829L232.3688888888889,190.55223862454295L232.38444444444445,152.23295927792788L232.5711111111111,102.10347414761782L232.7266666666667,181.57138393074274L233.17777777777778,194.88209408521652L233.45777777777778,84.49639935791492L233.92444444444445,-51.14903751015662L234.23555555555558,66.04660858213903L234.32888888888888,215.2249626982957L234.39111111111112,93.47258896380663L234.42222222222222,-140.40811511874196L234.8111111111111,27.009218901395812L234.87333333333333,-41.82004857063292L234.99777777777777,37.47690689563753L235.01333333333335,136.29632663726807L235.02888888888887,116.03172325342895L235.52666666666664,139.75082148611546L235.57333333333335,140.1124784424901L235.63555555555553,168.15094255656004L235.66666666666666,183.26690985634923L236.0088888888889,151.38455067574978L236.05555555555554,125.28787308186293L236.39777777777778,218.64235938340425L236.42888888888888,121.72628451883793L236.74,143.78282015025616L236.86444444444447,160.40305576100945L236.94222222222223,149.48000793159008L237.36222222222224,222.2585965115577L237.86,125.95122770220041L237.93777777777777,197.75671136379242L237.9688888888889,39.401582598686225L238.77777777777777,166.61117781698704L238.98000000000002,78.00888304412366L239.15111111111113,190.99580111727118L239.4622222222222,-33.60155935585499L239.6488888888889,92.04964374005796L239.83555555555554,1.6175575256347787L239.94444444444443,181.83698073774576L239.96,5.030335828661945L240.2711111111111,141.9253898486495L240.64444444444445,8.894193515181561L241.1888888888889,174.47452691197395L241.23555555555555,91.76347438991071L241.2511111111111,188.2225409783423L241.76444444444445,201.86209861934185L241.79555555555555,122.94750452786684L241.8111111111111,50.24913732707502L242.2,84.04274840652943L242.30888888888887,86.5472137629986L242.32444444444445,105.92564825713634L242.46444444444444,170.5836787521839L242.5577777777778,141.329654276371L242.9,126.55027114599943L243.11777777777777,181.46142192929983L243.36666666666667,152.44620160013437L243.55333333333334,162.12969326227903L243.75555555555556,49.92729571461679L243.7866666666667,95.19660544395447L243.83333333333334,66.50932595878841L243.92666666666665,76.6461718529463L244.17555555555558,172.7949029468L244.3311111111111,203.62056751549244L244.95333333333335,117.28752755373716L244.9688888888889,180.14096577465534L245.42,88.17836806923152L245.49777777777777,200.97492418065667L245.71555555555554,190.322259131819L246.02666666666667,138.26259800046682L246.66444444444443,20.376683741807952L246.68,92.75071468949318L246.82,141.97065603733063L247.45777777777778,218.10314335674047L247.70666666666668,91.3635406345129L247.86222222222221,169.54587527364492L247.98666666666668,125.50599478930235L248.01777777777778,177.15430396422744L248.37555555555556,202.2888909727335L248.88888888888889,168.24404100701213L249.0288888888889,195.6946765705943L249.80666666666667,90.01394004374743L249.9622222222222,28.611877158284194" style="fill: none;" fill="none"></path></g></g></g></g></g></g><g transform="translate(50, 177)" clip-path="url(#clip_1)"><clipPath id="clip_1"><rect width="280" height="23"></rect></clipPath><g><g><line x1="0" y1="0" x2="0" y2="5" style="visibility: inherit;" fill="rgb(0, 0, 0)" stroke="rgb(204, 204, 204)" stroke-width="1px"></line><line x1="31.11111111111111" y1="0" x2="31.11111111111111" y2="5" style="visibility: inherit;" fill="rgb(0, 0, 0)" stroke="rgb(204, 204, 204)" stroke-width="1px"></line><line x1="62.22222222222222" y1="0" x2="62.22222222222222" y2="5" style="visibility: inherit;" fill="rgb(0, 0, 0)" stroke="rgb(204, 204, 204)" stroke-width="1px"></line><line x1="93.33333333333333" y1="0" x2="93.33333333333333" y2="5" style="visibility: inherit;" fill="rgb(0, 0, 0)" stroke="rgb(204, 204, 204)" stroke-width="1px"></line><line x1="124.44444444444444" y1="0" x2="124.44444444444444" y2="5" style="visibility: inherit;" fill="rgb(0, 0, 0)" stroke="rgb(204, 204, 204)" stroke-width="1px"></line><line x1="155.55555555555557" y1="0" x2="155.55555555555557" y2="5" style="visibility: inherit;" fill="rgb(0, 0, 0)" stroke="rgb(204, 204, 204)" stroke-width="1px"></line><line x1="186.66666666666666" y1="0" x2="186.66666666666666" y2="5" style="visibility: inherit;" fill="rgb(0, 0, 0)" stroke="rgb(204, 204, 204)" stroke-width="1px"></line><line x1="217.77777777777777" y1="0" x2="217.77777777777777" y2="5" style="visibility: inherit;" fill="rgb(0, 0, 0)" stroke="rgb(204, 204, 204)" stroke-width="1px"></line><line x1="248.88888888888889" y1="0" x2="248.88888888888889" y2="5" style="visibility: inherit;" fill="rgb(0, 0, 0)" stroke="rgb(204, 204, 204)" stroke-width="1px"></line><line x1="280" y1="0" x2="280" y2="5" style="visibility: inherit;" fill="rgb(0, 0, 0)" stroke="rgb(204, 204, 204)" stroke-width="1px"></line></g><g transform="translate(0, 8)"><text x="0" y="0" dx="0em" dy="0.95em" style="text-anchor: middle; visibility: hidden; font-family: Roboto, sans-serif; font-size: 12px; font-weight: 200;" fill="rgb(33, 33, 33)" stroke="none" stroke-width="1px">-2k</text><text x="31.11111111111111" y="0" dx="0em" dy="0.95em" style="text-anchor: middle; visibility: inherit; font-family: Roboto, sans-serif; font-size: 12px; font-weight: 200;" fill="rgb(33, 33, 33)" stroke="none" stroke-width="1px">0</text><text x="62.22222222222222" y="0" dx="0em" dy="0.95em" style="text-anchor: middle; visibility: inherit; font-family: Roboto, sans-serif; font-size: 12px; font-weight: 200;" fill="rgb(33, 33, 33)" stroke="none" stroke-width="1px">2k</text><text x="93.33333333333333" y="0" dx="0em" dy="0.95em" style="text-anchor: middle; visibility: inherit; font-family: Roboto, sans-serif; font-size: 12px; font-weight: 200;" fill="rgb(33, 33, 33)" stroke="none" stroke-width="1px">4k</text><text x="124.44444444444444" y="0" dx="0em" dy="0.95em" style="text-anchor: middle; visibility: inherit; font-family: Roboto, sans-serif; font-size: 12px; font-weight: 200;" fill="rgb(33, 33, 33)" stroke="none" stroke-width="1px">6k</text><text x="155.55555555555557" y="0" dx="0em" dy="0.95em" style="text-anchor: middle; visibility: inherit; font-family: Roboto, sans-serif; font-size: 12px; font-weight: 200;" fill="rgb(33, 33, 33)" stroke="none" stroke-width="1px">8k</text><text x="186.66666666666666" y="0" dx="0em" dy="0.95em" style="text-anchor: middle; visibility: inherit; font-family: Roboto, sans-serif; font-size: 12px; font-weight: 200;" fill="rgb(33, 33, 33)" stroke="none" stroke-width="1px">10k</text><text x="217.77777777777777" y="0" dx="0em" dy="0.95em" style="text-anchor: middle; visibility: inherit; font-family: Roboto, sans-serif; font-size: 12px; font-weight: 200;" fill="rgb(33, 33, 33)" stroke="none" stroke-width="1px">12k</text><text x="248.88888888888889" y="0" dx="0em" dy="0.95em" style="text-anchor: middle; visibility: inherit; font-family: Roboto, sans-serif; font-size: 12px; font-weight: 200;" fill="rgb(33, 33, 33)" stroke="none" stroke-width="1px">14k</text><text x="280" y="0" dx="0em" dy="0.95em" style="text-anchor: middle; visibility: hidden; font-family: Roboto, sans-serif; font-size: 12px; font-weight: 200;" fill="rgb(33, 33, 33)" stroke="none" stroke-width="1px">16k</text></g><line x1="0" y1="0" x2="280" y2="0" fill="rgb(0, 0, 0)" stroke="rgb(204, 204, 204)" stroke-width="1px"></line></g></g></g></g></svg>