<svg viewBox="0 0 330 200" xmlns="http://www.w3.org/2000/svg"><g><g><g><g><g><line x1="50" y1="177" x2="45" y2="177" style="visibility: inherit;" fill="rgb(0, 0, 0)" stroke="rgb(204, 204, 204)" stroke-width="1px"></line><line x1="50" y1="159.3" x2="45" y2="159.3" style="visibility: inherit;" fill="rgb(0, 0, 0)" stroke="rgb(204, 204, 204)" stroke-width="1px"></line><line x1="50" y1="141.6" x2="45" y2="141.6" style="visibility: inherit;" fill="rgb(0, 0, 0)" stroke="rgb(204, 204, 204)" stroke-width="1px"></line><line x1="50" y1="123.89999999999999" x2="45" y2="123.89999999999999" style="visibility: inherit;" fill="rgb(0, 0, 0)" stroke="rgb(204, 204, 204)" stroke-width="1px"></line><line x1="50" y1="106.20000000000002" x2="45" y2="106.20000000000002" style="visibility: inherit;" fill="rgb(0, 0, 0)" stroke="rgb(204, 204, 204)" stroke-width="1px"></line><line x1="50" y1="88.5" x2="45" y2="88.5" style="visibility: inherit;" fill="rgb(0, 0, 0)" stroke="rgb(204, 204, 204)" stroke-width="1px"></line><line x1="50" y1="70.8" x2="45" y2="70.8" style="visibility: inherit;" fill="rgb(0, 0, 0)" stroke="rgb(204, 204, 204)" stroke-width="1px"></line><line x1="50" y1="53.09999999999999" x2="45" y2="53.09999999999999" style="visibility: inherit;" fill="rgb(0, 0, 0)" stroke="rgb(204, 204, 204)" stroke-width="1px"></line><line x1="50" y1="35.40000000000001" x2="45" y2="35.40000000000001" style="visibility: inherit;" fill="rgb(0, 0, 0)" stroke="rgb(204, 204, 204)" stroke-width="1px"></line><line x1="50" y1="17.700000000000017" x2="45" y2="17.700000000000017" style="visibility: inherit;" fill="rgb(0, 0, 0)" stroke="rgb(204, 204, 204)" stroke-width="1px"></line><line x1="50" y1="0" x2="45" y2="0" style="visibility: inherit;" fill="rgb(0, 0, 0)" stroke="rgb(204, 204, 204)" stroke-width="1px"></line></g><g transform="translate(40, 0)"><text x="0" y="177" dx="0em" dy="0.3em" style="text-anchor: end; visibility: hidden; font-family: Roboto, sans-serif; font-size: 12px; font-weight: 200;" fill="rgb(33, 33, 33)" stroke="none" stroke-width="1px">0</text><text x="0" y="159.3" dx="0em" dy="0.3em" style="text-anchor: end; visibility: inherit; font-family: Roboto, sans-serif; font-size: 12px; font-weight: 200;" fill="rgb(33, 33, 33)" stroke="none" stroke-width="1px">0.01</text><text x="0" y="141.6" dx="0em" dy="0.3em" style="text-anchor: end; visibility: hidden; font-family: Roboto, sans-serif; font-size: 12px; font-weight: 200;" fill="rgb(33, 33, 33)" stroke="none" stroke-width="1px">0.02</text><text x="0" y="123.89999999999999" dx="0em" dy="0.3em" style="text-anchor: end; visibility: inherit; font-family: Roboto, sans-serif; font-size: 12px; font-weight: 200;" fill="rgb(33, 33, 33)" stroke="none" stroke-width="1px">0.03</text><text x="0" y="106.20000000000002" dx="0em" dy="0.3em" style="text-anchor: end; visibility: hidden; font-family: Roboto, sans-serif; font-size: 12px; font-weight: 200;" fill="rgb(33, 33, 33)" stroke="none" stroke-width="1px">0.04</text><text x="0" y="88.5" dx="0em" dy="0.3em" style="text-anchor: end; visibility: inherit; font-family: Roboto, sans-serif; font-size: 12px; font-weight: 200;" fill="rgb(33, 33, 33)" stroke="none" stroke-width="1px">0.05</text><text x="0" y="70.8" dx="0em" dy="0.3em" style="text-anchor: end; visibility: hidden; font-family: Roboto, sans-serif; font-size: 12px; font-weight: 200;" fill="rgb(33, 33, 33)" stroke="none" stroke-width="1px">0.06</text><text x="0" y="53.09999999999999" dx="0em" dy="0.3em" style="text-anchor: end; visibility: inherit; font-family: Roboto, sans-serif; font-size: 12px; font-weight: 200;" fill="rgb(33, 33, 33)" stroke="none" stroke-width="1px">0.07</text><text x="0" y="35.40000000000001" dx="0em" dy="0.3em" style="text-anchor: end; visibility: hidden; font-family: Roboto, sans-serif; font-size: 12px; font-weight: 200;" fill="rgb(33, 33, 33)" stroke="none" stroke-width="1px">0.08</text><text x="0" y="17.700000000000017" dx="0em" dy="0.3em" style="text-anchor: end; visibility: inherit; font-family: Roboto, sans-serif; font-size: 12px; font-weight: 200;" fill="rgb(33, 33, 33)" stroke="none" stroke-width="1px">0.09</text><text x="0" y="0" dx="0em" dy="0.3em" style="text-anchor: end; visibility: hidden; font-family: Roboto, sans-serif; font-size: 12px; font-weight: 200;" fill="rgb(33, 33, 33)" stroke="none" stroke-width="1px">0.1</text></g><line x1="50" y1="0" x2="50" y2="177" fill="rgb(0, 0, 0)" stroke="rgb(204, 204, 204)" stroke-width="1px"></line></g></g><g transform="translate(50, 0)" clip-path="url(#clip_0)"><clipPath id="clip_0"><rect width="280" height="177"></rect></clipPath><g><g><g><line x1="0" y1="0" x2="0" y2="177" fill="rgb(0, 0, 0)" stroke="rgb(66, 66, 66)" stroke-width="1px" opacity="0.25"></line><line x1="31.11111111111111" y1="0" x2="31.11111111111111" y2="177" fill="rgb(0, 0, 0)" stroke="rgb(66, 66, 66)" stroke-width="1px" opacity="0.25"></line><line x1="62.22222222222222" y1="0" x2="62.22222222222222" y2="177" fill="rgb(0, 0, 0)" stroke="rgb(66, 66, 66)" stroke-width="1px" opacity="0.25"></line><line x1="93.33333333333333" y1="0" x2="93.33333333333333" y2="177" fill="rgb(0, 0, 0)" stroke="rgb(66, 66, 66)" stroke-width="1px" opacity="0.25"></line><line x1="124.44444444444444" y1="0" x2="124.44444444444444" y2="177" fill="rgb(0, 0, 0)" stroke="rgb(66, 66, 66)" stroke-width="1px" opacity="0.25"></line><line x1="155.55555555555557" y1="0" x2="155.55555555555557" y2="177" fill="rgb(0, 0, 0)" stroke="rgb(66, 66, 66)" stroke-width="1px" opacity="0.25"></line><line x1="186.66666666666666" y1="0" x2="186.66666666666666" y2="177" fill="rgb(0, 0, 0)" stroke="rgb(66, 66, 66)" stroke-width="1px" opacity="0.25"></line><line x1="217.77777777777777" y1="0" x2="217.77777777777777" y2="177" fill="rgb(0, 0, 0)" stroke="rgb(66, 66, 66)" stroke-width="1px" opacity="0.25"></line><line x1="248.88888888888889" y1="0" x2="248.88888888888889" y2="177" fill="rgb(0, 0, 0)" stroke="rgb(66, 66, 66)" stroke-width="1px" opacity="0.25"></line><line x1="280" y1="0" x2="280" y2="177" fill="rgb(0, 0, 0)" stroke="rgb(66, 66, 66)" stroke-width="1px" opacity="0.25"></line></g><g><line x1="0" y1="177" x2="280" y2="177" fill="rgb(0, 0, 0)" stroke="rgb(66, 66, 66)" stroke-width="1px" opacity="0.25"></line><line x1="0" y1="159.3" x2="280" y2="159.3" fill="rgb(0, 0, 0)" stroke="rgb(66, 66, 66)" stroke-width="1px" opacity="0.25"></line><line x1="0" y1="141.6" x2="280" y2="141.6" fill="rgb(0, 0, 0)" stroke="rgb(66, 66, 66)" stroke-width="1px" opacity="0.25"></line><line x1="0" y1="123.89999999999999" x2="280" y2="123.89999999999999" fill="rgb(0, 0, 0)" stroke="rgb(66, 66, 66)" stroke-width="1px" opacity="0.25"></line><line x1="0" y1="106.20000000000002" x2="280" y2="106.20000000000002" fill="rgb(0, 0, 0)" stroke="rgb(66, 66, 66)" stroke-width="1px" opacity="0.25"></line><line x1="0" y1="88.5" x2="280" y2="88.5" fill="rgb(0, 0, 0)" stroke="rgb(66, 66, 66)" stroke-width="1px" opacity="0.25"></line><line x1="0" y1="70.8" x2="280" y2="70.8" fill="rgb(0, 0, 0)" stroke="rgb(66, 66, 66)" stroke-width="1px" opacity="0.25"></line><line x1="0" y1="53.09999999999999" x2="280" y2="53.09999999999999" fill="rgb(0, 0, 0)" stroke="rgb(66, 66, 66)" stroke-width="1px" opacity="0.25"></line><line x1="0" y1="35.40000000000001" x2="280" y2="35.40000000000001" fill="rgb(0, 0, 0)" stroke="rgb(66, 66, 66)" stroke-width="1px" opacity="0.25"></line><line x1="0" y1="17.700000000000017" x2="280" y2="17.700000000000017" fill="rgb(0, 0, 0)" stroke="rgb(66, 66, 66)" stroke-width="1px" opacity="0.25"></line><line x1="0" y1="0" x2="280" y2="0" fill="rgb(0, 0, 0)" stroke="rgb(66, 66, 66)" stroke-width="1px" opacity="0.25"></line></g></g></g><g><g><line x1="0" y1="177" x2="280" y2="177" fill="rgb(0, 0, 0)" stroke="rgb(153, 153, 153)" stroke-width="1.5px"></line></g></g><g><g><line x1="31.11111111111111" y1="0" x2="31.11111111111111" y2="177" fill="rgb(0, 0, 0)" stroke="rgb(153, 153, 153)" stroke-width="1.5px"></line></g></g><g><g><g><g><g><path stroke="rgb(255, 112, 67)" stroke-width="2px" d="M36.4,-11.462144627428959L36.78888888888889,18.48667702757674L36.88222222222222,-2.1417813926986797L37.846666666666664,-11.926456508840356L38.01777777777778,0.39187483040718585L38.220000000000006,29.73797089356701L38.37555555555556,-15.393908276326604L38.67111111111111,-5.6628002903135L38.81111111111111,8.898643890798672L38.82666666666667,52.658445249748475L39.02888888888889,-14.89352732905555L39.24666666666666,-12.84620215867873L39.26222222222222,11.170787917830866L39.511111111111106,25.966121070496534L39.635555555555555,59.457622420295415L39.85333333333333,68.67276016277827L40.242222222222225,86.49611855403737L40.56888888888889,4.262247102196494L40.64666666666667,20.446539698132597L40.67777777777778,44.31987376997389L41.00444444444444,66.24358528848512L41.42444444444444,29.673505943966894L41.766666666666666,52.99750459311471L41.89111111111111,83.08322348516708L41.95333333333334,71.48224700284754L42.357777777777784,46.64586187477361L42.37333333333333,48.49803035900272L42.79333333333333,23.495478859216913L42.839999999999996,39.05275697152101L42.87111111111111,7.157331422807142L43.05777777777778,47.92852443208803L43.07333333333333,7.165401397648358L43.44666666666667,35.19631679266872L43.52444444444444,58.01172806865089L43.55555555555556,-2.7619569775694615L43.97555555555556,-27.350957600905538L44.61333333333333,19.286476609925003L44.815555555555555,3.0651224957820924L44.92444444444445,40.39945078533394L44.94,50.58401888991298L45.002222222222215,54.02735018363538L45.06444444444445,44.32819111127223L45.64,60.68990882324316L45.78,97.81079629264556L45.95111111111112,95.41970464409758L45.98222222222222,97.37767565739972L45.99777777777778,59.80396775300995L46.2,79.6470337414485L46.74444444444445,70.78128028534303L47.27333333333333,102.03749287350445L47.36666666666667,112.33011718823593L47.38222222222222,107.91378342648794L47.63111111111111,105.17834336483749L47.78666666666666,98.60714366390867L47.94222222222222,42.41473769160846L48.22222222222222,-3.870666903181415L48.3,38.16466966156747L48.79777777777778,81.28159455588215L50.19777777777778,93.7320712365553L50.36888888888888,62.04793089376959L50.46222222222222,71.2665787145321L50.72666666666667,30.926160431195775L50.85111111111111,-2.966597857302741L51.11555555555555,-22.234305740729734L51.56666666666667,16.193292500772607L51.8,56.33679387998494L52.01777777777777,85.52789348233885L52.36,89.7589979670593L52.51555555555556,86.6147461773246L52.67111111111112,61.67612773426113L52.717777777777776,81.37214782981717L52.76444444444444,95.0430796363869L52.87333333333333,73.88450778239482L52.888888888888886,100.07379089870163L53.06,116.45847932593887L53.29333333333333,107.063350105863L53.34,65.72435415064166L54.30444444444444,92.4054667682938L54.53777777777778,81.11606154629543L54.58444444444444,107.62951721572253L54.78666666666666,98.37753783359153L54.98888888888889,99.07926919277921L55.797777777777775,103.08152356872806L56.093333333333334,77.73009349185138L56.12444444444445,89.12396737800782L56.15555555555555,93.63936860481945L56.20222222222222,101.57282995951205L56.513333333333335,100.03391847474593L56.7,100.78298746623527L57.026666666666664,55.136486214863844L57.05777777777778,52.89568150190569L57.151111111111106,48.96832643239533L57.166666666666664,84.53207946591876L57.18222222222222,114.12892091511668L57.21333333333334,128.3929916507839L57.29111111111111,102.84125882904762L57.47777777777778,93.26184854818007L57.57111111111111,95.11130232460869L57.94444444444444,120.06734850986345L58.30222222222222,135.60490457554783L58.42666666666667,146.573762573839L58.519999999999996,121.15265872063682L58.55111111111111,124.39146988232402L58.59777777777778,140.39396728583853L58.628888888888895,129.1033314228575L58.8,110.45693351987128L58.86222222222222,107.37182299591973L58.87777777777778,74.26333575426266L58.94,90.51059461819366L59.422222222222224,95.04790102057002L59.702222222222225,107.08713204480613L59.748888888888885,86.85485657344702L60.01333333333333,97.557038243356L60.26222222222223,107.70864253088394L60.41777777777778,107.4702986797366L60.66666666666667,71.98668846611224L60.9,85.94606899991061L61.00888888888889,109.15182649656788L61.44444444444444,126.30075508394633L61.67777777777778,112.50402664863344L62.12888888888889,78.56339045598077L62.160000000000004,82.33532562097292L62.39333333333333,88.9320058956169L62.44,72.63578090872903L62.657777777777774,84.79035503748976L63.01555555555556,106.45930871417477L63.077777777777776,67.07287387877913L63.18666666666666,96.18629433113463L63.20222222222222,82.30611372231321L63.28,110.49604711674975L63.34222222222222,72.45996898855763L63.731111111111105,36.79990523723362L63.871111111111105,72.54472802083252L63.99555555555556,107.61757991388774L64.2911111111111,121.74221926734052L64.33777777777777,110.3507415163827L64.47777777777777,80.50170955111457L65.3488888888889,97.53124833881778L65.53555555555555,113.73236786591961L65.8,110.10731961886856L65.95555555555555,104.27154640591604L65.98666666666666,43.2730184092311L66.12666666666667,60.249757194172595L66.68666666666667,68.3344734332867L66.71777777777778,102.9384643649702L66.74888888888889,70.58941597435741L66.76444444444444,90.15278674777667L66.8111111111111,97.60938868293954L66.88888888888889,113.78454158973571L67.18444444444444,133.36505209742117L67.3711111111111,143.2455785287209L68.11777777777777,134.46013261454033L68.42888888888889,128.12473972187476L68.44444444444444,129.49727176157256L68.63111111111111,128.20489437298548L68.70888888888888,140.35129197041138L68.78666666666666,135.5823344624039L68.91111111111111,124.24999904251078L69.05111111111111,96.16580682764041L69.20666666666666,76.08518067461009L69.59555555555555,104.21488019950243L70.74666666666666,119.24492420182854L70.80888888888889,118.82004120603939L70.93333333333334,101.98543513808094L71.29111111111112,105.11234198804762L71.4,121.60381418643037L71.50888888888889,99.2611294101336L71.72666666666666,99.12667095128644L71.89777777777778,101.65748505272836L72.4888888888889,37.56193605946524L73.03333333333333,37.571527635377784L73.0488888888889,27.462728443933795L73.74888888888889,70.14634365778761L74.40222222222224,100.6260152857995L74.51111111111112,117.38266849526738L74.72888888888889,83.4526001036702L74.74444444444444,107.61245973679654L74.93111111111112,106.81740686758297L75.55333333333333,106.49571894683801L75.60000000000001,125.74827487515428L76.08222222222221,130.13392217902552L76.11333333333333,119.19005640416272L76.14444444444445,83.72759822648125L76.45555555555555,95.93110911036347L76.72,115.1687772422124L76.84444444444445,108.93133879596525L77.04666666666667,100.23756044444164L77.3888888888889,118.04193756185006L77.46666666666667,112.12463415683527L77.51333333333334,112.03734435153734L77.54444444444444,123.4686866954728L77.5911111111111,114.7140857640364L77.65333333333334,83.99748321553817L77.90222222222222,66.59628599393815L78.02666666666667,101.26103203003674L78.68,115.02142711582822L79.25555555555556,114.37118778886224L79.6288888888889,105.06743072427405L80.17333333333333,78.98568696950136L80.26666666666667,79.52675742014799L80.45333333333333,69.09979301753374L80.71777777777778,91.35717368014295L81.02888888888889,89.60914913646958L81.07555555555555,119.5609252692466L81.19999999999999,121.98431817240744L81.54222222222222,123.8722934681012L81.66666666666667,107.96351317511999L82.07111111111111,73.25760800806883L82.14888888888888,91.90136007766844L82.25777777777779,113.00455694825007L82.33555555555556,119.84658174026343L82.77111111111111,124.3540570903321L83.02,123.7141206677854L83.03555555555556,135.73595752514004L83.06666666666668,144.84802669701935L83.09777777777776,154.34833758163725L83.20666666666668,124.6049002324836L83.44,130.12507825734L83.67333333333333,139.64880204285254L84.38888888888889,102.00656780055205L84.52888888888889,103.67492631942655L84.56,110.75082088333741L84.76222222222222,109.0369771738194L84.96444444444445,112.26774389263049L85.19777777777777,124.17335183302198L85.67999999999999,96.94809546398899L85.69555555555556,120.93214186774364L85.78888888888889,85.82747719136876L85.88222222222223,67.30273940830232L85.92888888888889,99.84022479753972L86.19333333333334,123.39519560039808L86.41111111111111,137.01000715166788L86.78444444444445,102.27681897801436L87.22,89.09131637646124L87.76444444444445,66.34687360783438L87.90444444444445,82.6665725538732L87.93555555555555,57.06286987838753L87.98222222222222,85.13383522884614L88.18444444444445,107.81076921228507L88.40222222222222,97.68494627597298L88.44888888888889,68.49704429341773L88.57333333333334,78.45346956153762L88.83777777777777,89.92921664834053L89.14888888888889,121.44907601934689L89.18,108.01249929524671L89.25777777777778,89.32349223647839L89.41333333333334,94.20918702634766L90.03555555555555,93.60683706434128L90.08222222222223,104.3086233885977L90.86,108.99730242502052L91.38888888888889,88.45616060621359L91.48222222222223,120.56369318925928L91.51333333333332,136.94250705756897L91.96444444444444,141.32951030682418L92.05777777777777,113.73141510814962L92.21333333333332,96.39747951346955L92.41555555555556,107.25674204181624L92.63333333333333,113.087906436032L92.92888888888889,102.64940075630304L93.05333333333333,80.19336378904794L93.22444444444444,88.19348874290357L93.28666666666666,95.00939336776479L93.58222222222221,106.49705343907917L94.03333333333333,99.50242721418051L94.0488888888889,114.76577259677356L94.45333333333333,126.56417606370273L94.78,134.85820484815017L94.92,136.1988392064451L95.71333333333332,141.38654565152396L95.94666666666667,143.27360773585363L96.07111111111111,144.25124496222807L96.08666666666667,133.13451367915437L96.35111111111111,121.02529758990268L96.81777777777778,138.93893340397156L97.02,128.40255602996513L97.20666666666666,111.89053972244838L97.23777777777778,129.5979772444402L97.3,99.76592044447868L97.4088888888889,119.4574306363762L97.42444444444445,113.59550301759842L97.6111111111111,106.43768414872528L97.8911111111111,121.75049247901227L97.95333333333333,138.1558379638826L97.9688888888889,141.34427460483522L98.3111111111111,124.02998456628211L98.76222222222222,136.60574260962656L98.91777777777779,104.37151742942721L99.32222222222222,129.24356534908767L99.47777777777779,116.65493038493724L99.75777777777779,135.42635418406624L100.13111111111111,127.88000162203015L100.50444444444445,122.21178280567466L100.58222222222223,140.38140730153228L100.59777777777776,141.6481603255314L101.48444444444445,106.78769373121514L102.24666666666666,118.96074581874998L102.69777777777777,75.18537367423532L102.85333333333334,78.78429846787546L103.39777777777778,91.21863903000411L103.72444444444444,98.12641429540191L104.02,118.66293829686448L104.33111111111111,108.94205385450724L104.86,126.93267848792196L105.37333333333333,124.9311543014796L105.42,136.31504468215414L105.66888888888889,145.60323734636847L105.7,150.12794428724493L105.84,147.35705300663975L106.41555555555556,119.21662394699496L106.49333333333334,100.56057733295584L106.82000000000001,108.35592100023167L107.02222222222223,122.58923701643309L107.75333333333334,122.49750711142636L107.84666666666666,134.53704420473943L107.89333333333335,141.45805467588764L108.12666666666667,148.09869113891162L108.26666666666667,114.65708250599405L108.34444444444443,110.80408576308072L108.48444444444443,125.96779274152743L108.76444444444444,118.66360740486996L108.82666666666667,96.72385751977097L108.92,110.36294014915545L109.16888888888889,115.1082746664567L109.27777777777777,124.98002693980236L109.30888888888889,131.94771775710166L109.68222222222224,131.04080694679965L109.97777777777777,144.86314748497037L110.02444444444444,128.75488637549418L110.47555555555556,120.1670632312461L110.53777777777778,127.45599988697553L110.75555555555556,101.63168803810231L110.97333333333333,114.4271355954358L111.30000000000001,111.75354532227215L111.39333333333333,112.45808151260194L111.51777777777778,119.43731624570596L111.64222222222222,122.78262771926585L111.81333333333333,124.97024899430433L112.48222222222222,136.41628021721456L112.57555555555555,144.8247263854707L113.22888888888889,117.70084399437694L113.36888888888889,108.95400282118193L113.46222222222222,95.8227343223898L113.72666666666667,119.83166895657232L113.86666666666667,123.055466803011L113.88222222222223,108.50309406047863L113.96,106.59971330956104L114.86222222222221,94.80383469102075L115.0488888888889,94.27969641350084L115.26666666666667,118.43216868035421L115.51555555555555,115.66725185389772L115.5311111111111,116.21158684119854L115.71777777777778,129.4745867197232L115.99777777777778,109.4415862139771L116.41777777777779,114.03006065349041L116.55777777777779,118.7738870171324L117.27333333333334,135.70579826907013L117.38222222222223,124.25192308769044L117.39777777777779,137.0293267315353L117.50666666666667,131.99761590634137L117.81777777777776,141.94022526904553L118.40888888888888,141.20230814704067L118.59555555555556,142.8827471890376L118.92222222222222,151.02590090235032L119.65333333333334,148.49353188544484L119.84,143.5252765924929L120.16666666666666,149.87182084686745L120.78888888888889,141.98354713301177L121.19333333333334,141.5775399665851L121.30222222222223,151.02309642722122L121.39555555555556,143.3770006611342L121.98666666666666,138.54089281793802L122.23555555555555,140.18991553685885L122.45333333333333,139.297958228897L122.59333333333333,143.8352747038966L122.60888888888888,122.65713872468267L122.71777777777777,137.55687257993694L122.84222222222223,122.50947507827566L123.54222222222222,125.52820574855258L123.72888888888889,134.81938741871986L124.11777777777777,138.60848935108942L124.32000000000001,133.06075227058864L124.46000000000001,136.61992142973506L124.61555555555555,126.54163066076137L124.81777777777778,127.84905947909891L124.9888888888889,126.33989448497378L125.59555555555555,133.0734858402591L125.79777777777778,132.9841945120085L125.98444444444443,147.2440137530648L126.12444444444444,140.09348238201636L126.7,130.82478746886076L126.74666666666667,140.8701879195274L126.99555555555555,128.66685412597067L127.30666666666667,108.56848693055753L127.52444444444444,128.71450701229477L127.72666666666666,121.2783503196997L128.1,128.0770325191237L128.24,138.90523605510103L128.5511111111111,148.26153001391592L128.56666666666666,138.22038109870974L129.39111111111112,150.29055164767635L129.62444444444444,153.73553617008528L130.15333333333334,148.7230242115736L130.21555555555557,132.64589642718315L130.26222222222222,144.45263411915232L130.5888888888889,142.26158587971884L130.6977777777778,142.37066923433278L130.85333333333332,136.99956492694457L131.44444444444446,147.51133688196384L131.45999999999998,79.80748493018653L131.47555555555556,107.14896752859894L131.7088888888889,114.85280282751171L132.03555555555556,128.60275632414488L132.50222222222223,126.92457603230041L132.59555555555556,132.392886361861L133.28,113.97438000821099L133.7,133.08188660328403L134.16666666666669,110.80744815698155L134.26,123.97817568231159L134.29111111111112,134.71250650211294L134.55555555555557,139.13345689281297L134.8511111111111,117.41517666104122L134.96,119.77707851602246L135.2711111111111,127.43595559402472L135.89333333333335,138.57331956999997L136.32888888888888,138.5408684452027L136.45333333333335,146.07802519289552L136.51555555555555,145.94670711957156L136.67111111111112,146.00194111915076L136.92,146.892661167393L137.02888888888887,130.81296187234514L137.2,124.87014917786475L137.32444444444445,139.21357315409514L137.52666666666667,142.81990018265446L137.69777777777776,131.47004909680487L137.9,142.95038607189775L138.07111111111112,151.16291901711955L138.19555555555556,150.55208960842688L138.22666666666666,153.09377018092036L138.25777777777776,148.9846809743521L138.53777777777776,145.46262822828757L138.58444444444444,151.05409158561864L138.63111111111112,147.38307224985502L138.70888888888888,151.48894000963298L138.8488888888889,146.7964584643598L138.91111111111113,135.3613403478238L139.0511111111111,144.85209757992467L139.76666666666665,101.55417125170733L139.82888888888888,106.35585933175865L140.17111111111112,119.20308509318342L141.01111111111112,108.65057451634593L141.2133333333333,84.48121208613506L141.35333333333335,116.24112283872302L141.5088888888889,132.93389565459927L141.82,137.20136132664706L141.96,120.68187251584068L142.2711111111111,121.21777382729255L142.28666666666666,102.17869998656393L142.5511111111111,113.02449954088142L142.58222222222224,126.47171920857197L143.12666666666667,131.74389292640308L143.65555555555557,137.90302891488562L143.68666666666667,149.00938377018687L143.7488888888889,138.32394014737557L143.96666666666667,141.04767701889008L143.98222222222222,126.70687255182821L144.0911111111111,137.55680342715357L144.43333333333334,144.64074447796568L144.6977777777778,145.4242656785001L144.71333333333334,101.28427844987806L144.91555555555556,106.40865880099832L146.56444444444446,118.15218480436742L146.57999999999998,131.41899105539167L146.59555555555556,136.80910853821183L146.81333333333333,140.61417919414131L146.84444444444446,141.60376513759425L146.96888888888887,141.5445098966964L147.14,148.449778723902L147.24888888888887,152.72848077010303L147.32666666666665,135.69716327125545L147.52888888888887,135.28454184970087L147.62222222222223,142.00693210775154L147.80888888888887,148.55309668221767L147.82444444444445,124.90235579632937L148.05777777777777,140.49742046928836L148.68,134.94129515848417L149.24,142.2973791184238L149.3488888888889,150.28787536753487L149.5511111111111,155.38331954230827L149.67555555555555,152.15440283894515L150.08,149.84981050300584L150.42222222222225,125.333269898343L150.57777777777778,134.2128916944551L150.71777777777777,144.08651962745117L150.99777777777777,144.57386183212952L151.10666666666665,142.48304353189917L151.8688888888889,137.70566674490246L151.93111111111114,137.0142200465171L152.07111111111112,126.40672772676757L152.38222222222223,128.66886673898105L152.5688888888889,133.13004314321643L152.64666666666668,141.9322982164822L152.7088888888889,137.80972089812767L152.72444444444443,134.27821433213717L152.7711111111111,132.9278175229869L152.88000000000002,126.39357657701026L153.1911111111111,114.65206586998853L153.34666666666666,127.78508296866508L153.4088888888889,110.79596039211329L153.45555555555555,119.27489188048587L154.45111111111112,122.38449483205882L155.0577777777778,134.7565343802572L155.12,126.66928965600734L155.19777777777776,125.16921762676479L155.33777777777777,133.49910127849247L155.4311111111111,126.7881527139596L155.4622222222222,129.1975309412987L155.69555555555556,142.71684716709325L156.25555555555556,154.60109728559326L156.47333333333333,147.63545799842163L156.70666666666665,146.70711913162876L156.87777777777777,151.78885998698718L157.48444444444445,121.98060436768915L157.56222222222223,132.72829235627407L157.62444444444446,139.79130085354538L157.8111111111111,135.3530941474169L158.80666666666667,139.89675704346476L159.0088888888889,151.81031330015585L159.04,145.01161089739995L159.07111111111112,151.5514515851545L159.6,154.57232487586782L159.75555555555556,120.8721318864086L159.9422222222222,125.35219209332817L160.39333333333332,137.27027641200752L160.62666666666667,115.575625759147L160.75111111111113,128.41624725120212L160.79777777777778,99.6549632028159L161.10888888888888,116.59551715406279L161.65333333333334,110.3275280508548L161.70000000000002,106.47273389179408L161.71555555555557,125.46423777224958L161.79333333333332,121.0220027403971L162.4311111111111,125.73359721076133L162.5711111111111,96.2735549877384L162.80444444444444,115.60548279108396L163.1,122.26681503010865L163.38,117.18697141321347L163.47333333333333,127.74709831900503L163.53555555555556,126.3555971188969L163.86222222222221,139.59706078193346L164.29777777777775,140.4464780805812L164.5,140.2876170765344L164.64,135.90132690018316L164.70222222222222,129.18272742358386L164.84222222222223,128.9299078239652L165.10666666666665,111.30652751050307L165.38666666666666,127.97189552946041L165.41777777777776,132.7750445000121L165.46444444444447,140.4340208257311L165.66666666666666,150.41571942814133L165.69777777777776,155.21980527176225L165.9,93.29886258324244L166.0088888888889,102.09109208691275L166.36666666666665,86.97562396352384L166.38222222222223,97.38855727210579L166.42888888888888,111.30301965442263L166.72444444444443,92.78236664037084L167.1288888888889,70.13240733564007L167.44,106.30120295253458L167.45555555555555,122.82887805084626L168.54444444444442,141.76587533030056L168.57555555555555,114.9895280991384L168.6222222222222,107.77551801171235L168.87111111111113,126.87981819237073L168.93333333333334,138.3380840010929L168.99555555555554,149.97984250970114L169.2288888888889,156.3248775554444L169.91333333333333,138.91176013366854L170.2711111111111,144.33677513132378L170.33333333333331,135.03511350887945L170.5511111111111,144.14551621772605L171.11111111111111,148.65756307004546L171.23555555555555,155.48538123866115L171.8888888888889,159.72830632619676L172.41777777777776,160.88980715225705L172.69777777777776,152.01937854290347L173.27333333333334,149.07225181460583L173.39777777777778,135.52545368850355L173.5222222222222,140.2731282155521L174.1911111111111,152.2685490345691L174.22222222222223,158.79677187290696L174.4088888888889,155.8703773476893L174.4711111111111,137.2205277716049L174.70444444444445,134.16289421826175L174.73555555555555,146.0735370123957L174.98444444444445,135.16566982594577L175.10888888888888,133.12591973678735L175.34222222222223,141.3645190402059L175.37333333333333,137.3139060857408L175.40444444444447,64.9689162148543L175.93333333333334,104.8265648066108L176.26,89.25941449279217L176.54,100.30808651372571L176.61777777777777,114.34198100522026L176.85111111111112,109.30688805672447L176.88222222222223,127.31188725482177L177.08444444444444,135.29677475423068L177.16222222222223,146.3815201062289L177.25555555555556,141.11325365533395L177.39555555555555,151.03458365190008L177.52,149.07973784737572L177.5977777777778,129.7705616297292L177.73777777777778,137.356499398766L177.76888888888888,132.50795410276535L177.98666666666668,129.0908222597902L178.4688888888889,128.3739485816398L179.01333333333332,127.70805379904742L179.43333333333334,116.86779303346535L179.54222222222222,134.88254209455528L180.05555555555557,124.81408198533462L180.2111111111111,139.2742375082255L180.66222222222223,144.223408905952L181.14444444444445,149.2898361203306L181.1911111111111,156.005919860213L181.42444444444445,155.92214120412407L182.06222222222223,136.8645268737348L182.07777777777775,114.93557696694567L182.18666666666664,136.05759837682209L182.23333333333335,137.93750459823107L182.28,131.35666057689843L182.3111111111111,121.69309640362178L182.38888888888889,124.94874423703143L182.7,130.86006605005616L182.90222222222224,137.83862308488102L183.01111111111112,137.17296999738105L183.07333333333335,134.89406005320245L183.21333333333334,122.72968561218555L183.47777777777776,116.99093710640894L183.72666666666666,138.50995902741596L183.80444444444447,99.74893493965055L184.16222222222223,112.54863261589281L184.30222222222224,122.74255446290297L184.36444444444447,132.2808046099265L184.38,122.0717640672159L184.8311111111111,135.98196456605385L185.00222222222223,132.8718461708676L185.14222222222224,143.50465471172043L185.22,150.27286616041488L185.34444444444443,154.54186650037303L185.36,132.87525364708623L185.37555555555554,138.801446695338L185.40666666666667,138.29116685343402L185.73333333333332,136.84246188344133L185.78,149.72562199572667L185.85777777777778,154.0378654300567L185.87333333333333,140.64376499351243L186.1222222222222,146.1286792664014L186.3088888888889,152.4470034946968L186.55777777777777,151.68161557301698L186.6822222222222,156.59376141129326L186.7288888888889,154.72782056226367L186.9,160.98594389077445L187.3511111111111,157.6861974431063L187.50666666666666,147.83797295439155L187.75555555555556,149.2972238260383L187.83333333333331,143.2119027196094L187.8488888888889,146.1445278506711L187.9888888888889,135.05354297943325L188.29999999999998,144.64039000220544L188.50222222222223,142.81295152960683L188.64222222222222,144.32175970350784L188.73555555555555,150.00984636634635L188.84444444444443,114.02907202059058L188.85999999999999,120.44778411784188L189.3111111111111,116.96663126765738L189.6222222222222,121.73752306204469L190.08888888888887,131.9834093603577L190.16666666666669,141.44405492190037L190.38444444444445,145.67108681302378L190.63333333333333,141.6115066245264L190.66444444444446,146.95624091908732L190.7888888888889,121.83696245661615L190.94444444444446,139.5744875152334L191.16222222222223,99.11474966284182L191.3488888888889,93.75912145541038L191.50444444444446,77.41415836671548L191.66,92.55164491390919L192.68666666666667,114.82484269294581L193.10666666666665,113.58326853009129L193.7288888888889,132.18536671589055L193.88444444444443,144.82872537465536L193.9311111111111,152.25290421957757L194.2577777777778,131.18644380459182L194.50666666666666,147.12323082805568L194.80222222222224,143.3787444312626L194.95777777777778,129.77087091679894L195.06666666666666,142.7682845325799L195.19111111111113,146.25849335754106L195.4088888888889,153.97237377719097L195.53333333333333,160.05100236113972L195.75111111111113,163.19596054420535L195.76666666666668,160.30148212024966L195.87555555555556,157.34314800074338L196.07777777777778,145.44911952329062L196.35777777777778,151.52429733134738L196.56,141.00310860697883L196.6222222222222,145.6113226473299L196.71555555555557,141.76265254229114L196.82444444444445,132.52776844864968L196.88666666666668,137.56471481362513L197.07333333333332,145.89737210088688L197.21333333333334,131.08092980929445L197.32222222222222,131.5209132006659L197.4622222222222,124.97641744440162L198.44222222222223,132.9069215072713L198.78444444444446,143.23584728694092L198.92444444444445,147.6554613858827L198.9711111111111,150.1939430482905L199.07999999999998,156.78190447078472L199.35999999999999,157.9810114774783L199.59333333333333,156.23084276161669L199.68666666666664,123.87285457397745L199.70222222222222,126.05700986442116L199.78,140.02335771460622L199.85777777777776,147.59362959885175L199.88888888888889,154.5048120663975L199.98222222222222,127.66574654557792L200.0911111111111,126.93751253383451L200.13777777777776,122.39164314089473L200.41777777777776,141.25108752052935L200.57333333333335,98.2691174829063L200.63555555555553,121.97092138284788L200.6511111111111,136.08069637375678L201.33555555555554,148.7877355409122L201.36666666666665,144.34859294846393L201.91111111111113,152.0825607029631L202.03555555555553,144.22208925324884L202.11333333333334,124.55136234008197L202.22222222222223,139.08619330416872L202.3311111111111,139.1649733429596L202.54888888888888,134.66308501335652L202.65777777777777,149.3266595535214L202.67333333333335,114.19914739923092L202.75111111111113,127.02579162625321L203.20222222222225,105.86905674700645L203.79333333333332,116.674834040193L203.9488888888889,103.42062008523241L204.3688888888889,119.71495304342088L204.43111111111114,130.58733614138353L204.58666666666667,116.24218264133685L205.16222222222223,129.08392907327982L205.45777777777778,133.95170013842923L205.50444444444443,136.51760509602988L205.53555555555556,146.89957724283792L206.3288888888889,150.56780793828165L207.21555555555557,143.47360716201302L207.29333333333332,124.09081048630142L207.35555555555555,136.12751181341687L207.3711111111111,149.20783494400965L207.5577777777778,152.83266803242557L207.58888888888887,144.84403856764908L207.62,135.25812035006686L207.63555555555556,119.68090126337056L207.66666666666669,109.16241751564411L208.0088888888889,130.94354044692437L208.19555555555556,131.4008898544116L209.62666666666667,131.6503236402752L209.72,118.497061431985L209.89111111111112,121.75985086296852L210.07777777777778,129.64777899584087L210.29555555555555,140.70295511290976L210.35777777777778,130.450943568978L210.65333333333334,144.43685432836907L210.85555555555555,148.69183436671196L210.88666666666666,134.8675931312996L210.93333333333334,124.82815385570275L211.35333333333335,135.78046759194223L211.4311111111111,147.7925724672591L211.69555555555556,149.83674654736015L211.80444444444444,154.07105241268215L212.1,145.43204453318916L212.3177777777778,148.79504590692878L212.38,151.65983679495906L212.41111111111113,159.63469855939692L212.7222222222222,109.41784525487031L212.73777777777778,127.07210871248368L212.78444444444443,134.76975983779982L212.98666666666668,144.6181540714285L213.04888888888888,152.99468385512122L213.1577777777778,146.50852506062083L213.25111111111113,149.40625827879128L213.29777777777778,123.74183159691343L213.4688888888889,110.71111222876459L213.57777777777778,128.2511285358569L213.64000000000001,128.1759919949711L213.6711111111111,136.89695444499498L213.70222222222222,137.78459168103365L213.87333333333333,149.18537624330537L213.9511111111111,158.01407975346575L214.0911111111111,160.70765596488553L214.18444444444444,141.38291573440694L214.3711111111111,133.8297244096736L214.6977777777778,145.98760207093895L214.88444444444445,150.8933984717556L215.10222222222222,155.446358675112L215.6,145.15697175821646L215.84888888888887,148.52604759893407L215.94222222222223,140.9956224182939L216.0822222222222,141.65405744133562L216.0977777777778,120.47155382822855L216.12888888888887,133.9995096286589L216.17555555555558,140.85316720369184L216.57999999999998,142.0923005983992L216.61111111111111,126.87373694752237L216.68888888888887,140.33853987589228L216.85999999999999,133.72513377061338L216.87555555555556,123.67681036228448L217.07777777777775,96.0186409821183L217.12444444444446,124.62495209731581L217.5911111111111,119.12302738403037L217.68444444444447,132.54350860550855L218.04222222222222,146.12186068376812L218.7111111111111,152.5357050647194L218.86666666666665,151.8177346326324L218.91333333333336,136.6584772758134L219.52,139.08784088149355L219.56666666666666,129.61161392721345L219.73777777777778,133.66738179053553L219.86222222222224,110.65998769835048L220.43777777777777,127.44007659352073L220.73333333333332,136.81540822473912L220.81111111111113,130.8464348822102L220.92000000000002,140.87276877071054L221.01333333333332,139.74246677968256L221.35555555555555,141.38117990024898L221.4022222222222,141.46624746398933L221.51111111111112,120.53039801404958L221.62,137.24155075273563L221.79111111111112,141.38057308597357L221.80666666666667,143.2401570838868L221.94666666666666,114.10556001735803L222.49111111111114,131.03388949869915L222.61555555555555,141.10122057133225L223.01999999999998,150.6903509275365L223.14444444444445,159.9270941751822L223.89111111111112,149.84578956589843L223.95333333333332,150.33085111856906L223.98444444444445,137.552489650729L224.01555555555555,147.11629706545634L224.12444444444444,146.2590142916081L224.54444444444445,138.51002366128193L224.5911111111111,118.01216449607985L224.6222222222222,107.75908246201026L224.8711111111111,119.65906355566828L225.10444444444445,124.99990418873458L225.27555555555557,122.54914173973937L225.4,131.62524862583481L225.54,129.92136980739832L225.55555555555557,144.17231383299887L225.80444444444444,152.3092402558837L226.05333333333334,154.0658257844337L226.20888888888888,134.6049392814808L226.38,142.28665748359995L226.47333333333333,141.27011725081348L226.5822222222222,126.85471637113896L226.75333333333333,139.02215704956058L226.87777777777777,145.27002530851007L227.45333333333335,151.6933647948983L227.48444444444445,147.57054555168645L227.5311111111111,147.86984292120275L227.71777777777777,152.674174538705L228.04444444444442,148.47893576261595L228.12222222222223,139.36287762038228L228.38666666666666,141.2595873210568L228.62,115.16680992744797L229.16444444444443,110.80288755954763L229.44444444444443,121.89777335412182L230.59555555555556,129.7812279843502L230.64222222222222,133.68482126046496L230.70444444444445,145.39898388087317L230.75111111111113,146.2416566491101L230.76666666666668,143.90305874526345L230.86,146.17955320420768L230.90666666666667,135.89049690272157L231.07777777777778,133.46111036125268L231.51333333333332,146.2097620559987L231.85555555555555,147.31251037974695L231.88666666666668,155.30717017604138L232.04222222222222,141.8049747666909L232.0888888888889,129.70533892340623L232.10444444444445,132.34866273598172L232.1977777777778,142.10623270762738L232.3688888888889,142.55639727856385L232.95999999999998,148.59073930350343L233.0222222222222,153.1881849139476L233.50444444444446,154.17774787363672L233.51999999999998,137.26875101815025L233.70666666666668,118.70944914692855L233.9711111111111,131.69293891548645L234.26666666666668,120.5982102999659L234.29777777777775,137.00343203020523L234.42222222222222,123.143539574578L234.71777777777777,93.58702828099406L235.0911111111111,118.48593696644949L235.30888888888887,132.9988753397229L235.52666666666664,130.89063105875033L235.76,136.32893908556565L236.4911111111111,131.58590114287296L236.53777777777776,137.98871175451134L236.86444444444447,143.8092393964711L237.02,153.66973626964887L237.11333333333334,159.4172149176365L237.37777777777777,160.04516523033178L237.58,155.22376280397054L237.72,157.9205096736245L238.03111111111113,151.98632907269553L238.09333333333336,149.1470334121475L238.15555555555554,122.42903573744829L238.28,122.95826003064714L238.8088888888889,118.82060070699455L238.87111111111113,123.24289964357617L240.10000000000002,96.2569096965766L240.4111111111111,103.96307023365355L240.53555555555556,120.50294005870256L240.56666666666666,122.80527672618291L240.6911111111111,126.6851626601795L240.86222222222221,138.8858220691669L241.09555555555556,148.75378793382274L241.1577777777778,154.32779053317682L242.06,148.07511060665354L242.54222222222222,141.87048667508546L242.97777777777776,150.85056964844873L243.2888888888889,142.74069528901822L243.38222222222223,140.0768082164183L243.42888888888888,136.30600354805318L243.44444444444446,139.3724002226277L243.61555555555557,149.04636914597953L243.66222222222223,135.10396978597046L243.7711111111111,138.00087396407247L244.28444444444446,147.7638426660247L244.50222222222223,154.46196743704363L244.56444444444446,153.19995553408555L244.64222222222222,157.58302116611296L245.04666666666665,151.00815218519386L245.12444444444446,143.0553248663617L245.46666666666667,147.46509052082138L245.79333333333335,139.00475369998358L245.88666666666666,120.46235171025126L246.05777777777777,126.02117706874088L246.24444444444444,138.28180814557717L246.63333333333333,139.57000000937848L246.68,150.3999927441124L246.7888888888889,156.31346012315714L246.83555555555554,149.46434637553432L247.25555555555556,149.96560902459584L247.3177777777778,151.61482494511105L247.41111111111113,135.30609511994064L247.48888888888888,111.51145646967136L247.9088888888889,130.28836734889532L248.01777777777778,121.2398976731216L248.23555555555555,133.81905546846482L248.31333333333333,119.8175754193216L248.37555555555556,131.56750790588558L248.8111111111111,137.74661186523736L248.92000000000002,146.62278921492398L249.32444444444445,146.96401041202245L249.8688888888889,152.4660839741081L249.9622222222222,152.39851284948884" style="fill: none;" fill="none"></path></g></g></g></g><g opacity="0.2"><g><g><g><path stroke="rgb(255, 112, 67)" stroke-width="2px" d="M35.342222222222226,-20.719731777906418L35.715555555555554,93.43838491290808L35.73111111111111,-12.024113416671753L36.04222222222222,-154.23461365699768L36.120000000000005,41.98716004192829L36.30666666666667,-78.67659482359886L36.4,46.1930978000164L36.78888888888889,63.40986353158951L36.88222222222222,-33.08445002138615L37.27111111111112,-233.22162705659866L37.31777777777778,76.86749812960625L37.45777777777778,-41.69150094687939L37.67555555555556,-105.05325901508331L37.846666666666664,62.26326075196266L38.01777777777778,18.869371309876442L38.220000000000006,73.75711423158646L38.37555555555556,-83.09172633290291L38.67111111111111,8.93386159837246L38.81111111111111,30.740810081362724L38.82666666666667,118.29814714193344L39.02888888888889,-116.22148606181145L39.12222222222222,-53.41762635111809L39.13777777777778,2.8115914463996887L39.24666666666666,-4.512484475970268L39.26222222222222,47.196273028850555L39.511111111111106,48.15912079811096L39.635555555555555,109.6948744431138L39.85333333333333,82.49546677619219L40.242222222222225,113.23115614056587L40.56888888888889,-119.0885600745678L40.64666666666667,44.722978591918945L40.67777777777778,80.12987487763166L41.00444444444444,99.12915256619453L41.42444444444444,-25.181613072752953L41.766666666666666,87.98350256681442L41.89111111111111,128.2118018232286L41.95333333333334,54.080782279372215L42.357777777777784,9.391284182667732L42.37333333333333,51.27628308534622L42.79333333333333,-14.008348390460014L42.839999999999996,62.3886741399765L42.87111111111111,-40.68580690026283L43.05777777777778,109.08531394600868L43.07333333333333,-53.97928315401077L43.44666666666667,77.24268988519907L43.52444444444444,92.23484498262405L43.55555555555556,-93.9224845468998L43.97555555555556,-64.23445853590965L44.61333333333333,89.24262792617083L44.815555555555555,-21.266908675432205L44.92444444444445,96.40094321966171L44.94,65.86087104678154L45.002222222222215,59.19234712421894L45.06444444444445,29.77945250272751L45.64,85.23248539119959L45.78,153.49212749674916L45.95111111111112,91.83306717127562L45.98222222222222,100.3146321773529L45.99777777777778,3.443405896425247L46.2,109.41163272410631L46.74444444444445,57.482650101184845L47.27333333333333,148.9218117557466L47.36666666666667,127.76905366033316L47.38222222222222,101.28928278386593L47.63111111111111,101.07518327236176L47.78666666666666,88.75034411251545L47.94222222222222,-41.87387126684189L48.22222222222222,-73.29877379536629L48.3,101.21767450869083L48.79777777777778,145.95698189735413L50.19777777777778,112.40778625756502L50.36888888888888,14.521720379590988L50.46222222222222,85.09455044567585L50.72666666666667,-29.584466993808746L51.11555555555555,-51.135867565870285L51.56666666666667,73.83468986302614L51.8,116.55204594880342L52.01777777777777,129.31454288586974L52.36,96.10565469413996L52.51555555555556,81.89836849272251L52.67111111111112,24.26820006966591L52.717777777777776,110.9161779731512L52.76444444444444,115.54947734624147L52.87333333333333,42.14665000140667L52.888888888888886,139.35771557316184L53.06,141.03551196679473L53.29333333333333,92.9706562757492L53.34,3.715860217809677L54.30444444444444,132.427135694772L54.53777777777778,64.18195371329784L54.58444444444444,147.39970071986318L54.78666666666666,84.49956876039505L54.98888888888889,100.1318662315607L55.797777777777775,109.08490513265133L56.093333333333334,39.70294837653637L56.12444444444445,106.21477820724249L56.15555555555555,100.41247044503689L56.20222222222222,113.47302199155092L56.513333333333335,97.72555124759674L56.7,101.90659095346928L57.026666666666664,-13.333265662193298L57.05777777777778,49.534474432468414L57.151111111111106,43.07729382812977L57.166666666666664,137.87770901620388L57.18222222222222,158.52418308891356L57.21333333333334,149.78909775428474L57.29111111111111,64.51365959644318L57.47777777777778,78.89273312687874L57.57111111111111,97.88548298925161L57.94444444444444,157.5014177877456L58.30222222222222,158.9112386740744L58.42666666666667,163.0270495712757L58.519999999999996,83.02100294083357L58.55111111111111,129.2496866248548L58.59777777777778,164.3977133911103L58.628888888888895,112.16737762838602L58.8,82.48733666539192L58.86222222222222,102.74415720999241L58.87777777777778,24.60060489177704L58.94,114.88148291409016L59.422222222222224,101.85386062413454L59.702222222222225,125.1459785811603L59.748888888888885,56.50644336640835L60.01333333333333,113.61031074821949L60.26222222222223,122.93604896217585L60.41777777777778,107.11278290301561L60.66666666666667,18.76127314567566L60.9,106.88513980060816L61.00888888888889,143.96046274155378L61.44444444444444,152.02414796501398L61.67777777777778,91.80893399566412L62.12888888888889,27.652436167001724L62.160000000000004,87.99322836846113L62.39333333333333,98.82702630758286L62.44,48.19144342839718L62.657777777777774,103.02221623063087L63.01555555555556,138.96273922920227L63.077777777777776,7.993221625685692L63.18666666666666,139.85642500966787L63.20222222222222,61.48584280908108L63.28,152.78094720840454L63.34222222222222,15.405851796269417L63.731111111111105,-16.690190389752388L63.871111111111105,126.16196219623089L63.99555555555556,160.22685775347054L64.2911111111111,142.92917829751968L64.33777777777777,93.26352488994598L64.47777777777777,35.72816160321236L65.3488888888889,123.07555652037263L65.53555555555555,138.03404715657234L65.8,104.66974724829197L65.95555555555555,95.5178865864873L65.98666666666666,-48.224773585796356L66.12666666666667,85.71486537158489L66.68666666666667,80.46154779195786L66.71777777777778,154.8444507624954L66.74888888888889,22.065843388438225L66.76444444444444,119.49784290790558L66.8111111111111,108.79429158568382L66.88888888888889,138.04727094992995L67.18444444444444,162.7358178589493L67.3711111111111,158.0663681756705L68.11777777777777,121.28196374326944L68.42888888888889,118.6216503828764L68.44444444444444,131.5560698211193L68.63111111111111,126.26632829010487L68.70888888888888,158.5708883665502L68.78666666666666,128.42889820039272L68.91111111111111,107.25149591267109L69.05111111111111,54.039518505334854L69.20666666666666,45.964241445064545L69.59555555555555,146.40942948684096L70.74666666666666,141.78999020531774L70.80888888888889,118.18271671235561L70.93333333333334,76.7335260361433L71.29111111111112,109.80270226299763L71.4,146.3410224840045L71.50888888888889,65.74710224568844L71.72666666666666,98.92498326301575L71.89777777777778,105.4537062048912L72.4888888888889,-58.58138743042946L73.03333333333333,37.5859149992466L73.0488888888889,12.299529656767845L73.74888888888889,134.17176647856832L74.40222222222224,146.3455227278173L74.51111111111112,142.51764830946922L74.72888888888889,32.55749751627445L74.74444444444444,143.852249186486L74.93111111111112,105.62482756376266L75.55333333333333,106.01318706572056L75.60000000000001,154.62710876762867L76.08222222222221,136.71239313483238L76.11333333333333,102.7742577418685L76.14444444444445,30.53391095995903L76.45555555555555,114.23637543618679L76.72,144.02527943998575L76.84444444444445,99.57518112659454L77.04666666666667,87.19689291715622L77.3888888888889,144.74850323796272L77.46666666666667,103.24867904931307L77.51333333333334,111.90640964359045L77.54444444444444,140.61570021137595L77.5911111111111,101.58218436688185L77.65333333333334,37.922579392790794L77.90222222222222,40.494490161538124L78.02666666666667,153.25815108418465L78.68,135.66201974451542L79.25555555555556,113.39582879841328L79.6288888888889,91.11179512739182L80.17333333333333,39.86307133734226L80.26666666666667,80.33836309611797L80.45333333333333,53.459346413612366L80.71777777777778,124.74324467405677L81.02888888888889,86.98711232095957L81.07555555555555,164.4885894684121L81.19999999999999,125.61940752714872L81.54222222222222,126.70425641164184L81.66666666666667,84.10034273564816L82.07111111111111,21.198750257492065L82.14888888888888,119.86698818206787L82.25777777777779,144.6593522541225L82.33555555555556,130.10961892828345L82.77111111111111,131.11527011543512L83.02,122.75421603396535L83.03555555555556,153.768712811172L83.06666666666668,158.51613045483828L83.09777777777776,168.59880390856415L83.20666666666668,79.98974420875311L83.44,138.40534529462457L83.67333333333333,153.9343877211213L84.38888888888889,45.543216437101364L84.52888888888889,106.17746409773827L84.56,121.3646627292037L84.76222222222222,106.46621160954237L84.96444444444445,117.11389397084713L85.19777777777777,142.0317637436092L85.67999999999999,56.11021091043949L85.69555555555556,156.90821147337556L85.78888888888889,33.17048017680645L85.88222222222223,39.51563273370266L85.92888888888889,148.64645288139582L86.19333333333334,158.7276518046856L86.41111111111111,157.4322244785726L86.78444444444445,50.177036717534065L87.22,69.31306247413158L87.76444444444445,32.230209454894066L87.90444444444445,107.14612097293139L87.93555555555555,18.657315865159035L87.98222222222222,127.240283254534L88.18444444444445,141.8261701874435L88.40222222222222,82.49621187150478L88.44888888888889,24.715191319584846L88.57333333333334,93.38810746371746L88.83777777777777,107.1428372785449L89.14888888888889,168.72886507585645L89.18,87.85763420909643L89.25777777777778,61.28998164832592L89.41333333333334,101.5377292111516L90.03555555555555,92.70331212133169L90.08222222222223,120.36130287498236L90.86,116.03032097965479L91.38888888888889,57.64444787800312L91.48222222222223,168.7249920638278L91.51333333333332,161.5107278600335L91.96444444444444,147.91001518070698L92.05777777777777,72.33427231013775L92.21333333333332,70.39657612144947L92.41555555555556,123.54563583433628L92.63333333333333,121.83465302735567L92.92888888888889,86.9916422367096L93.05333333333333,46.50930833816528L93.22444444444444,100.19367617368698L93.28666666666666,105.23325030505657L93.58222222222221,123.72854354605079L94.03333333333333,89.01048787683249L94.0488888888889,137.66079067066312L94.45333333333333,144.2617812640965L94.78,147.29924802482128L94.92,138.20979074388742L95.71333333333332,149.16810531914234L95.94666666666667,146.10420086234808L96.07111111111111,145.71770080178976L96.08666666666667,116.45941675454378L96.35111111111111,102.86147345602512L96.81777777777778,165.80938712507486L97.02,112.59798996895552L97.20666666666666,87.12251526117325L97.23777777777778,156.1591335274279L97.3,55.0178352445364L97.4088888888889,148.99469592422247L97.42444444444445,104.80261158943176L97.6111111111111,95.70095584541559L97.8911111111111,144.71970497444272L97.95333333333333,162.7638561911881L97.9688888888889,146.12692956626415L98.3111111111111,98.05854950845242L98.76222222222222,155.46937967464328L98.91777777777779,56.02017965912819L99.32222222222222,166.55163722857833L99.47777777777779,97.77197793871164L99.75777777777779,163.58348988275975L100.13111111111111,116.56047277897596L100.50444444444445,113.70945458114147L100.58222222222223,167.63584404531866L100.59777777777776,143.54828986153007L101.48444444444445,54.49699383974075L102.24666666666666,137.22032395005226L102.69777777777777,9.522315457463264L102.85333333333334,84.18268565833569L103.39777777777778,109.87014987319708L103.72444444444444,108.48807719349861L104.02,149.46772429905832L104.33111111111111,94.36072719097137L104.86,153.91861543804407L105.37333333333333,121.92886802181602L105.42,153.39088025316596L105.66888888888889,159.53552634269L105.7,156.91500469855964L105.84,143.20071608573198L106.41555555555556,77.00598035752773L106.49333333333334,72.57650741189718L106.82000000000001,120.04893650114536L107.02222222222223,143.93921104073524L107.75333333333334,122.35991225391626L107.84666666666666,152.59634984470904L107.89333333333335,151.83957038260996L108.12666666666667,158.05964583344758L108.26666666666667,64.49466955661774L108.34444444444443,105.02459064871073L108.48444444444443,148.71335320919752L108.76444444444444,107.70732939988375L108.82666666666667,63.81423269212246L108.92,130.82156409323215L109.16888888888889,122.22627644240856L109.27777777777777,139.78765534982085L109.30888888888889,142.39925398305058L109.68222222222224,129.6804407313466L109.97777777777777,165.5966582922265L110.02444444444444,104.59249471127987L110.47555555555556,107.28532851487398L110.53777777777778,138.3894048705697L110.75555555555556,62.89522026479244L110.97333333333333,133.62030693143606L111.30000000000001,107.74315991252661L111.39333333333333,113.51488579809666L111.51777777777778,129.90616834536195L111.64222222222222,127.80059492960572L111.81333333333333,128.25168090686202L112.48222222222222,153.58532705157995L112.57555555555555,157.43739563785493L113.22888888888889,77.0150204077363L113.36888888888889,95.83374106138945L113.46222222222222,76.12583157420158L113.72666666666667,155.8450709078461L113.86666666666667,127.89116357266903L113.88222222222223,86.67453494668007L113.96,103.74464218318462L114.86222222222221,77.1100167632103L115.0488888888889,93.493488997221L115.26666666666667,154.66087708063424L115.51555555555555,111.51987661421299L115.5311111111111,117.02808932214975L115.71777777777778,149.36908653751016L115.99777777777778,79.39208545535803L116.41777777777779,120.91277231276035L116.55777777777779,125.88962656259537L117.27333333333334,161.1036651469767L117.38222222222223,107.0711103156209L117.39777777777779,156.19543219730258L117.50666666666667,124.45004966855049L117.81777777777776,156.85413931310177L118.40888888888888,140.09543246403337L118.59555555555556,145.403405752033L118.92222222222222,163.24063147231936L119.65333333333334,144.69497836008668L119.84,136.07289365306497L120.16666666666666,159.39163722842932L120.78888888888889,130.1511365622282L121.19333333333334,140.96852921694517L121.30222222222223,165.1914311181754L121.39555555555556,131.90785701200366L121.98666666666666,131.28673105314374L122.23555555555555,142.6634496152401L122.45333333333333,137.96002226695418L122.59333333333333,150.64124941639602L122.60888888888888,90.88993475586176L122.71777777777777,159.90647336281836L122.84222222222223,99.93837882578373L123.54222222222222,130.056301753968L123.72888888888889,148.7561599239707L124.11777777777777,144.2921422496438L124.32000000000001,124.7391466498375L124.46000000000001,141.95867516845465L124.61555555555555,111.42419450730085L124.81777777777778,129.8102027066052L124.9888888888889,124.0761469937861L125.59555555555555,143.17387287318707L125.79777777777778,132.85025751963258L125.98444444444443,168.63374261464924L126.12444444444444,129.36768532544374L126.7,116.92174509912729L126.74666666666667,155.9382885955274L126.99555555555555,110.36185343563557L127.30666666666667,78.42093613743782L127.52444444444444,158.9335371349007L127.72666666666666,110.12411528080702L128.1,138.27505581825972L128.24,155.14754135906696L128.5511111111111,162.2959709521383L128.56666666666666,123.15865772590041L129.39111111111112,168.39580747112632L129.62444444444444,158.90301295369864L130.15333333333334,141.2042562738061L130.21555555555557,108.53020475059748L130.26222222222222,162.16274065710604L130.5888888888889,138.9750135205686L130.6977777777778,142.5342942662537L130.85333333333332,128.94290846586227L131.44444444444446,163.27899481449276L131.45999999999998,-21.74829299747944L131.47555555555556,148.16119142621756L131.7088888888889,126.40855577588081L132.03555555555556,149.22768656909466L132.50222222222223,124.40730559453368L132.59555555555556,140.5953518562019L133.28,86.346620477736L133.7,161.7431464958936L134.16666666666669,77.39579048752785L134.26,143.73426697030663L134.29111111111112,150.81400273181498L134.55555555555557,145.764882478863L134.8511111111111,84.83775631338358L134.96,123.31993129849434L135.2711111111111,138.9242712110281L135.89333333333335,155.27936553396285L136.32888888888888,138.4921917580068L136.45333333333335,157.38376031443477L136.51555555555555,145.74973000958562L136.67111111111112,146.08479211851954L136.92,148.22874123975635L137.02888888888887,106.69341292977333L137.2,115.95593013614416L137.32444444444445,160.72870911844075L137.52666666666667,148.22939072549343L137.69777777777776,114.44527246803045L137.9,160.17089153453708L138.07111111111112,163.4817184349522L138.19555555555556,149.6358454953879L138.22666666666666,156.90629103966057L138.25777777777776,142.82104716449976L138.53777777777776,140.1795491091907L138.58444444444444,159.4412866216153L138.63111111111112,141.87654324620962L138.70888888888888,157.64774164929986L138.8488888888889,139.75773614645004L138.91111111111113,118.20866317301989L139.0511111111111,159.0882334280759L139.76666666666665,36.607281759381294L139.82888888888888,113.55839145183563L140.17111111111112,138.47392373532057L141.01111111111112,92.82180865108967L141.2133333333333,48.22716844081879L141.35333333333335,163.88098896760494L141.5088888888889,157.97305487841368L141.82,143.6025598347187L141.96,95.90263929963112L142.2711111111111,122.02162579447031L142.28666666666666,73.62008922547102L142.5511111111111,129.2931988723576L142.58222222222224,146.6425487101078L143.12666666666667,139.65215350314975L143.65555555555557,147.14173289760947L143.68666666666667,165.66891605313867L143.7488888888889,122.29577471315861L143.96666666666667,145.13328232616186L143.98222222222222,105.19566585123539L144.0911111111111,153.83169974014163L144.43333333333334,155.26665605418384L144.6977777777778,146.5995474793017L144.71333333333334,35.07429760694504L144.91555555555556,114.09522932767868L146.56444444444446,135.76747380942106L146.57999999999998,151.31920043192804L146.59555555555556,144.8942847624421L146.81333333333333,146.3217851780355L146.84444444444446,143.0881440527737L146.96888888888887,141.4556270353496L147.14,158.80768196471035L147.24888888888887,159.14653383940458L147.32666666666665,110.15018702298403L147.52888888888887,134.66560971736908L147.62222222222223,152.0905174948275L147.80888888888887,158.37234354391694L147.82444444444445,89.42624446749687L148.05777777777777,163.8900174787268L148.68,126.60710719227791L149.24,153.33150505833328L149.3488888888889,162.2736197412014L149.5511111111111,163.0264858044684L149.67555555555555,147.3110277839005L150.08,146.39292199909687L150.42222222222225,88.55845899134874L150.57777777777778,147.53232438862324L150.71777777777777,158.89696152694523L150.99777777777777,145.30487513914704L151.10666666666665,139.3468160815537L151.8688888888889,130.53960156440735L151.93111111111114,135.97704999893904L152.07111111111112,110.49548924714327L152.38222222222223,132.06207525730133L152.5688888888889,139.82180774956942L152.64666666666668,155.13568082638085L152.7088888888889,131.62585492059588L152.72444444444443,128.98095448315144L152.7711111111111,130.90222230926156L152.88000000000002,116.59221515804529L153.1911111111111,97.03979980945587L153.34666666666666,147.4846086166799L153.4088888888889,85.31227652728558L153.45555555555555,131.99328911304474L154.45111111111112,127.04889925941825L155.0577777777778,153.3145937025547L155.12,114.53842256963253L155.19777777777776,122.919109582901L155.33777777777777,145.99392675608397L155.4311111111111,116.72172986716032L155.4622222222222,132.8115982823074L155.69555555555556,162.995821505785L156.25555555555556,172.4274724633433L156.47333333333333,137.18699906766415L156.70666666666665,145.3146108314395L156.87777777777777,159.41147127002478L157.48444444444445,77.26822093874216L157.56222222222223,148.84982433915138L157.62444444444446,150.38581359945238L157.8111111111111,128.69578408822417L158.80666666666667,146.71225138753653L159.0088888888889,169.68064768519253L159.04,134.81355729326606L159.07111111111112,161.36121261678636L159.6,159.1036348119378L159.75555555555556,70.32184240221977L159.9422222222222,132.0722824037075L160.39333333333332,155.14740289002657L160.62666666666667,83.0336497798562L160.75111111111113,147.67717948928475L160.79777777777778,56.513037130236626L161.10888888888888,142.0063480809331L161.65333333333334,100.92554439604282L161.70000000000002,100.69054265320301L161.71555555555557,153.95149359293282L161.79333333333332,114.35865019261837L162.4311111111111,132.8009889163077L162.5711111111111,52.083491653203964L162.80444444444444,144.60337449610233L163.1,132.25881338864565L163.38,109.5672059878707L163.47333333333333,143.5872886776924L163.53555555555556,124.26834531873465L163.86222222222221,159.4592562764883L164.29777777777775,141.72060402855277L164.5,140.04932557046413L164.64,129.32189163565636L164.70222222222222,119.10482820868492L164.84222222222223,128.55067842453718L165.10666666666665,84.8714570403099L165.38666666666666,152.96994755789638L165.41777777777776,139.97976795583963L165.46444444444447,151.9224853143096L165.66666666666666,165.38826733175665L165.69777777777776,162.42593403719366L165.9,0.4174485504627228L166.0088888888889,115.2794363424182L166.36666666666665,64.30242177844048L166.38222222222223,113.00795723497868L166.42888888888888,132.17471322789788L166.72444444444443,65.00138711929321L167.1288888888889,36.157468378543854L167.44,160.5543963778764L167.45555555555555,147.6203906983137L168.54444444444442,170.17137124948204L168.57555555555555,74.82500725239515L168.6222222222222,96.95450288057327L168.87111111111113,155.53626846335828L168.93333333333334,155.52548271417618L168.99555555555554,167.44248027261347L169.2288888888889,165.84243012405932L169.91333333333333,112.7920840010047L170.2711111111111,152.47429762780666L170.33333333333331,121.08262107521296L170.5511111111111,157.81112028099597L171.11111111111111,155.42563334852457L171.23555555555555,165.72710849158466L171.8888888888889,166.09269395750016L172.41777777777776,162.63205839134753L172.69777777777776,138.7137356288731L173.27333333333334,144.65156172215939L173.39777777777778,115.20525649935007L173.5222222222222,147.39464000612497L174.1911111111111,170.2616802630946L174.22222222222223,168.5891061304137L174.4088888888889,151.48078555986285L174.4711111111111,109.24575340747833L174.70444444444445,129.576443888247L174.73555555555555,163.9395012035966L174.98444444444445,118.80386904627085L175.10888888888888,130.06629460304976L175.34222222222223,153.72241799533367L175.37333333333333,131.2379866540432L175.40444444444447,-43.54856859147549L175.93333333333334,164.61303769424558L176.26,65.90868902206421L176.54,116.88109454512596L176.61777777777777,135.39282274246216L176.85111111111112,101.75424863398075L176.88222222222223,154.31938605196774L177.08444444444444,147.27410600334406L177.16222222222223,163.0086381342262L177.25555555555556,133.2108539789915L177.39555555555555,165.91657864674926L177.52,146.14746914058924L177.5977777777778,100.80679730325937L177.73777777777778,148.7354060523212L177.76888888888888,125.23513615876436L177.98666666666668,123.96512449532747L178.4688888888889,127.29863806441426L179.01333333333332,126.70921162515879L179.43333333333334,100.60740188509226L179.54222222222222,161.90466568619013L180.05555555555557,109.71139182150364L180.2111111111111,160.96447079256177L180.66222222222223,151.64716600254178L181.14444444444445,156.88947694189847L181.1911111111111,166.08004547003657L181.42444444444445,155.79647321999073L182.06222222222223,108.27810537815094L182.07777777777775,82.04215210676193L182.18666666666664,167.7406304916367L182.23333333333335,140.75736393034458L182.28,121.48539454489946L182.3111111111111,107.1977501437068L182.38888888888889,129.8322159871459L182.7,139.72704876959324L182.90222222222224,148.30645863711834L183.01111111111112,136.17449036613107L183.07333333333335,131.47569513693452L183.21333333333334,104.48312395066023L183.47777777777776,108.38281434774399L183.72666666666666,170.78849190892652L183.80444444444447,41.60739880800247L184.16222222222223,131.74817913025618L184.30222222222224,138.03343723341823L184.36444444444447,146.58817983046174L184.38,106.75820325314999L184.8311111111111,156.8472653143108L185.00222222222223,128.20666857808828L185.14222222222224,159.45386752299964L185.22,160.42518333345652L185.34444444444443,160.9453670103103L185.36,100.37533436715603L185.37555555555554,147.6907362677157L185.40666666666667,137.52574709057808L185.73333333333332,134.66940442845225L185.78,169.05036216415465L185.85777777777778,160.5062305815518L185.87333333333333,120.552614338696L186.1222222222222,154.35605067573488L186.3088888888889,161.92448983713984L186.55777777777777,150.53353369049728L186.6822222222222,163.96198016870767L186.7288888888889,151.9289092887193L186.9,170.37312888354063L187.3511111111111,152.73657777160406L187.50666666666666,133.06563622131944L187.75555555555556,151.48610013350844L187.83333333333331,134.0839210599661L187.8488888888889,150.54346554726362L187.9888888888889,118.41706567257643L188.29999999999998,159.02066053636372L188.50222222222223,140.071793820709L188.64222222222222,146.58497196435928L188.73555555555555,158.54197636060417L188.84444444444443,60.05791050195694L188.85999999999999,130.07585226371884L189.3111111111111,111.74490199238062L189.6222222222222,128.89386075362563L190.08888888888887,147.35223880782723L190.16666666666669,155.6350232642144L190.38444444444445,152.01163464970887L190.63333333333333,135.52213634178042L190.66444444444446,154.97334236092865L190.7888888888889,84.15804476290941L190.94444444444446,166.18077510315925L191.16222222222223,38.425142884254456L191.3488888888889,85.72567914426327L191.50444444444446,52.896713733673096L191.66,115.25787473469973L192.68666666666667,148.23463936150074L193.10666666666665,111.72090728580952L193.7288888888889,160.08851399458945L193.88444444444443,163.79376336280257L193.9311111111111,163.3891724869609L194.2577777777778,99.58675318211317L194.50666666666666,171.0284113632515L194.80222222222224,137.76201483607292L194.95777777777778,109.35906064510345L195.06666666666666,162.26440495625138L195.19111111111113,151.49380659498274L195.4088888888889,165.54319440666586L195.53333333333333,169.16894523706287L195.75111111111113,167.9133978188038L195.76666666666668,155.9597644843161L195.87555555555556,152.90564682148397L196.07777777777778,127.6080768071115L196.35777777777778,160.63706404343247L196.56,125.22132552042603L196.6222222222222,152.52364370785654L196.71555555555557,135.98964738473296L196.82444444444445,118.67544230818748L196.88666666666668,145.12013436108828L197.07333333333332,158.39635803177953L197.21333333333334,108.8562663719058L197.32222222222222,132.18088828772306L197.4622222222222,115.15967381000519L198.44222222222223,144.80267760157585L198.78444444444446,158.72923595644534L198.92444444444445,154.28488253429532L198.9711111111111,154.00166554190218L199.07999999999998,166.66384660452604L199.35999999999999,159.77967198751867L199.59333333333333,153.60558968782425L199.68666666666664,75.33587229251862L199.70222222222222,129.33324280008674L199.78,160.97287948988378L199.85777777777776,158.94903742522L199.88888888888889,164.87158576771617L199.98222222222222,87.4071482643485L200.0911111111111,125.84516151621938L200.13777777777776,115.57283905148506L200.41777777777776,169.54025408998132L200.57333333333335,33.79616242647171L200.63555555555553,157.5236272327602L200.6511111111111,157.24535886012018L201.33555555555554,167.8482942916453L201.36666666666665,137.68987905979156L201.91111111111113,163.68351233471185L202.03555555555553,132.43138207867742L202.11333333333334,95.04527197033167L202.22222222222223,160.88843975029886L202.3311111111111,139.28314340114594L202.54888888888888,127.91025251895189L202.65777777777777,171.32202136376873L202.67333333333335,61.50787916779518L202.75111111111113,146.26575796678662L203.20222222222225,74.13395442813635L203.79333333333332,132.88349997997284L203.9488888888889,83.5392991527915L204.3688888888889,144.1564524807036L204.43111111111114,146.89591078832746L204.58666666666667,94.72445239126682L205.16222222222223,148.34654872119427L205.45777777777778,141.25335673615336L205.50444444444443,140.3664625324309L205.53555555555556,162.47253546305L206.3288888888889,156.07015398144722L207.21555555555557,132.8323059976101L207.29333333333332,95.01661547273397L207.35555555555555,154.18256380409002L207.3711111111111,168.82831963989884L207.5577777777778,158.26991766504943L207.58888888888887,132.86109437048435L207.62,120.87924302369356L207.63555555555556,96.31507263332605L207.66666666666669,93.38469189405441L208.0088888888889,163.61522484384477L208.19555555555556,132.08691396564245L209.62666666666667,132.02447431907058L209.72,98.76716811954975L209.89111111111112,126.65403500944376L210.07777777777778,141.47967119514942L210.29555555555555,157.28571928851306L210.35777777777778,115.07292625308037L210.65333333333334,165.41572046745569L210.85555555555555,155.07430442422628L210.88666666666666,114.13123127818108L210.93333333333334,109.76899494230747L211.35333333333335,152.20893819630146L211.4311111111111,165.8107297802344L211.69555555555556,152.9030076675117L211.80444444444444,160.4225112106651L212.1,132.47353271394968L212.3177777777778,153.83954796753824L212.38,155.9570231270045L212.41111111111113,171.59699120605364L212.7222222222222,34.092565298080444L212.73777777777778,153.55350389890373L212.78444444444443,146.316236525774L212.98666666666668,159.39074542187154L213.04888888888888,165.55947853066027L213.1577777777778,136.77928686887026L213.25111111111113,153.75285810604692L213.29777777777778,85.24519157409668L213.4688888888889,91.16503317654133L213.57777777777778,154.56115299649537L213.64000000000001,128.0632871836424L213.6711111111111,149.97839812003076L213.70222222222222,139.11604753509164L213.87333333333333,166.28655308671296L213.9511111111111,171.25713501870632L214.0911111111111,164.7480202820152L214.18444444444444,112.39580538868904L214.3711111111111,122.49993742257357L214.6977777777778,164.22441856283695L214.88444444444445,158.25209307298064L215.10222222222222,162.27579898014665L215.6,129.72289138287306L215.84888888888887,153.5796613600105L215.94222222222223,129.69998464733362L216.0822222222222,142.64170997589827L216.0977777777778,88.6977984085679L216.12888888888887,154.29144332930446L216.17555555555558,151.13365356624126L216.57999999999998,143.9510006904602L216.61111111111111,104.04589147120714L216.68888888888887,160.53574426844716L216.85999999999999,123.80502461269498L216.87555555555556,108.60432524979115L217.07777777777775,54.53138691186905L217.12444444444446,167.5344187701121L217.5911111111111,110.87014031410217L217.68444444444447,152.67423043772578L218.04222222222222,166.48938880115747L218.7111111111111,162.1564716361463L218.86666666666665,150.74077898450196L218.91333333333336,113.91959124058485L219.52,142.7318862900138L219.56666666666666,115.39727349579334L219.73777777777778,139.7510335855186L219.86222222222224,76.1488965600729L220.43777777777777,152.61020993627608L220.73333333333332,150.87840567156672L220.81111111111113,121.89297486841679L220.92000000000002,155.91226960346103L221.01333333333332,138.04701379314065L221.35555555555555,143.83924958109856L221.4022222222222,141.59384880959988L221.51111111111112,89.12662383913994L221.62,162.30827986076474L221.79111111111112,147.58910658583045L221.80666666666667,146.02953308075666L221.94666666666666,70.40366441756487L222.49111111111114,156.42638372071087L222.61555555555555,156.20221718028188L223.01999999999998,165.07404646184295L223.14444444444445,173.78220904665068L223.89111111111112,134.72383265197277L223.95333333333332,151.05844344757497L223.98444444444445,118.38494744896889L224.01555555555555,161.46200818754733L224.12444444444444,144.97309013083577L224.54444444444445,126.88653771579266L224.5911111111111,87.26537574827671L224.6222222222222,92.37945941090584L224.8711111111111,137.5090351961553L225.10444444444445,133.01116513833404L225.27555555555557,118.87299806624651L225.4,145.239408954978L225.54,127.36555157974362L225.55555555555557,165.5487298713997L225.80444444444444,164.51462989021093L226.05333333333334,156.7007040772587L226.20888888888888,105.41360952705145L226.38,153.8092347867787L226.47333333333333,139.74530690163374L226.5822222222222,105.23161505162716L226.75333333333333,157.27331806719303L226.87777777777777,154.64182769693434L227.45333333333335,161.32837402448058L227.48444444444445,141.38631668686867L227.5311111111111,148.31878897547722L227.71777777777777,159.8806719649583L228.04444444444442,142.18607759848237L228.12222222222223,125.68879040703177L228.38666666666666,144.10465187206864L228.62,76.0276438370347L229.16444444444443,104.2570040076971L229.44444444444443,138.54010204598308L230.59555555555556,141.60640992969275L230.64222222222222,139.54021117463708L230.70444444444445,162.97022781148553L230.75111111111113,147.5056658014655L230.76666666666668,140.39516188949347L230.86,149.59429489262402L230.90666666666667,120.45691245049238L231.07777777777778,129.81703054904938L231.51333333333332,165.33273959811777L231.85555555555555,148.96663286536932L231.88666666666668,167.29915987048298L232.04222222222222,121.55168165266514L232.0888888888889,111.55588515847921L232.10444444444445,136.31364845484495L232.1977777777778,156.74258766509593L232.3688888888889,143.23164413496852L232.95999999999998,157.64225234091282L233.0222222222222,160.0843533296138L233.50444444444446,155.66209231317043L233.51999999999998,111.9052557349205L233.70666666666668,90.870496340096L233.9711111111111,151.16817356832325L234.26666666666668,103.95611737668514L234.29777777777775,161.61126462556422L234.42222222222222,102.35370089113712L234.71777777777777,49.25226134061813L235.0911111111111,155.8342999946326L235.30888888888887,154.76828289963305L235.52666666666664,127.72826463729143L235.76,144.4864011257887L236.4911111111111,124.47134422883391L236.53777777777776,147.59292767196894L236.86444444444447,152.54003085941076L237.02,168.4604815794155L237.11333333333334,168.03843288961798L237.37777777777777,160.98709069937468L237.58,147.9916591644287L237.72,161.96562997810543L238.03111111111113,143.08505817130208L238.09333333333336,144.88808992132545L238.15555555555554,82.3520392253995L238.28,123.7520964704454L238.8088888888889,112.61411172151566L238.87111111111113,129.87634804844856L240.10000000000002,55.77792477607727L240.4111111111111,115.52231103926897L240.53555555555556,145.3127447962761L240.56666666666666,126.2587817274034L240.6911111111111,132.5049915611744L240.86222222222221,157.18681118264794L241.09555555555556,163.55573673080653L241.1577777777778,162.68879443220794L242.06,138.69609071686864L242.54222222222222,132.56355077773333L242.97777777777776,164.32069410849363L243.2888888888889,130.57588374987245L243.38222222222223,136.08097760751843L243.42888888888888,130.64979654550552L243.44444444444446,143.97199523448944L243.61555555555557,163.55732253100723L243.66222222222223,114.1903707459569L243.7711111111111,142.3462302312255L244.28444444444446,162.408295718953L244.50222222222223,164.50915459357202L244.56444444444446,151.3069376796484L244.64222222222222,164.1576196141541L245.04666666666665,141.1458487138152L245.12444444444446,131.1260838881135L245.46666666666667,154.0797390025109L245.79333333333335,126.31424846872687L245.88666666666666,92.6487487256527L246.05777777777777,134.35941510647535L246.24444444444444,156.6727547608316L246.63333333333333,141.5022878050804L246.68,166.64498184621334L246.7888888888889,165.18366119172424L246.83555555555554,139.19067575410008L247.25555555555556,150.71750299818814L247.3177777777778,154.08864882588387L247.41111111111113,110.84300038218498L247.48888888888888,75.81949849426746L247.9088888888889,158.45373366773129L248.01777777777778,107.66719315946102L248.23555555555555,152.6877921614796L248.31333333333333,98.8153553456068L248.37555555555556,149.19240663573146L248.8111111111111,147.01526780426502L248.92000000000002,159.9370552394539L249.32444444444445,147.4758422076702L249.8688888888889,160.71919431723654L249.9622222222222,152.29715616256" style="fill: none;" fill="none"></path></g></g></g></g></g></g><g transform="translate(50, 177)" clip-path="url(#clip_1)"><clipPath id="clip_1"><rect width="280" height="23"></rect></clipPath><g><g><line x1="0" y1="0" x2="0" y2="5" style="visibility: inherit;" fill="rgb(0, 0, 0)" stroke="rgb(204, 204, 204)" stroke-width="1px"></line><line x1="31.11111111111111" y1="0" x2="31.11111111111111" y2="5" style="visibility: inherit;" fill="rgb(0, 0, 0)" stroke="rgb(204, 204, 204)" stroke-width="1px"></line><line x1="62.22222222222222" y1="0" x2="62.22222222222222" y2="5" style="visibility: inherit;" fill="rgb(0, 0, 0)" stroke="rgb(204, 204, 204)" stroke-width="1px"></line><line x1="93.33333333333333" y1="0" x2="93.33333333333333" y2="5" style="visibility: inherit;" fill="rgb(0, 0, 0)" stroke="rgb(204, 204, 204)" stroke-width="1px"></line><line x1="124.44444444444444" y1="0" x2="124.44444444444444" y2="5" style="visibility: inherit;" fill="rgb(0, 0, 0)" stroke="rgb(204, 204, 204)" stroke-width="1px"></line><line x1="155.55555555555557" y1="0" x2="155.55555555555557" y2="5" style="visibility: inherit;" fill="rgb(0, 0, 0)" stroke="rgb(204, 204, 204)" stroke-width="1px"></line><line x1="186.66666666666666" y1="0" x2="186.66666666666666" y2="5" style="visibility: inherit;" fill="rgb(0, 0, 0)" stroke="rgb(204, 204, 204)" stroke-width="1px"></line><line x1="217.77777777777777" y1="0" x2="217.77777777777777" y2="5" style="visibility: inherit;" fill="rgb(0, 0, 0)" stroke="rgb(204, 204, 204)" stroke-width="1px"></line><line x1="248.88888888888889" y1="0" x2="248.88888888888889" y2="5" style="visibility: inherit;" fill="rgb(0, 0, 0)" stroke="rgb(204, 204, 204)" stroke-width="1px"></line><line x1="280" y1="0" x2="280" y2="5" style="visibility: inherit;" fill="rgb(0, 0, 0)" stroke="rgb(204, 204, 204)" stroke-width="1px"></line></g><g transform="translate(0, 8)"><text x="0" y="0" dx="0em" dy="0.95em" style="text-anchor: middle; visibility: hidden; font-family: Roboto, sans-serif; font-size: 12px; font-weight: 200;" fill="rgb(33, 33, 33)" stroke="none" stroke-width="1px">-2k</text><text x="31.11111111111111" y="0" dx="0em" dy="0.95em" style="text-anchor: middle; visibility: inherit; font-family: Roboto, sans-serif; font-size: 12px; font-weight: 200;" fill="rgb(33, 33, 33)" stroke="none" stroke-width="1px">0</text><text x="62.22222222222222" y="0" dx="0em" dy="0.95em" style="text-anchor: middle; visibility: inherit; font-family: Roboto, sans-serif; font-size: 12px; font-weight: 200;" fill="rgb(33, 33, 33)" stroke="none" stroke-width="1px">2k</text><text x="93.33333333333333" y="0" dx="0em" dy="0.95em" style="text-anchor: middle; visibility: inherit; font-family: Roboto, sans-serif; font-size: 12px; font-weight: 200;" fill="rgb(33, 33, 33)" stroke="none" stroke-width="1px">4k</text><text x="124.44444444444444" y="0" dx="0em" dy="0.95em" style="text-anchor: middle; visibility: inherit; font-family: Roboto, sans-serif; font-size: 12px; font-weight: 200;" fill="rgb(33, 33, 33)" stroke="none" stroke-width="1px">6k</text><text x="155.55555555555557" y="0" dx="0em" dy="0.95em" style="text-anchor: middle; visibility: inherit; font-family: Roboto, sans-serif; font-size: 12px; font-weight: 200;" fill="rgb(33, 33, 33)" stroke="none" stroke-width="1px">8k</text><text x="186.66666666666666" y="0" dx="0em" dy="0.95em" style="text-anchor: middle; visibility: inherit; font-family: Roboto, sans-serif; font-size: 12px; font-weight: 200;" fill="rgb(33, 33, 33)" stroke="none" stroke-width="1px">10k</text><text x="217.77777777777777" y="0" dx="0em" dy="0.95em" style="text-anchor: middle; visibility: inherit; font-family: Roboto, sans-serif; font-size: 12px; font-weight: 200;" fill="rgb(33, 33, 33)" stroke="none" stroke-width="1px">12k</text><text x="248.88888888888889" y="0" dx="0em" dy="0.95em" style="text-anchor: middle; visibility: inherit; font-family: Roboto, sans-serif; font-size: 12px; font-weight: 200;" fill="rgb(33, 33, 33)" stroke="none" stroke-width="1px">14k</text><text x="280" y="0" dx="0em" dy="0.95em" style="text-anchor: middle; visibility: hidden; font-family: Roboto, sans-serif; font-size: 12px; font-weight: 200;" fill="rgb(33, 33, 33)" stroke="none" stroke-width="1px">16k</text></g><line x1="0" y1="0" x2="280" y2="0" fill="rgb(0, 0, 0)" stroke="rgb(204, 204, 204)" stroke-width="1px"></line></g></g></g></g></svg>