<svg viewBox="0 0 330 200" xmlns="http://www.w3.org/2000/svg"><g><g><g><g><g><line x1="51.5625" y1="177" x2="46.5625" y2="177" style="visibility: inherit;" fill="rgb(0, 0, 0)" stroke="rgb(204, 204, 204)" stroke-width="1px"></line><line x1="51.5625" y1="157.33333333333331" x2="46.5625" y2="157.33333333333331" style="visibility: inherit;" fill="rgb(0, 0, 0)" stroke="rgb(204, 204, 204)" stroke-width="1px"></line><line x1="51.5625" y1="137.66666666666669" x2="46.5625" y2="137.66666666666669" style="visibility: inherit;" fill="rgb(0, 0, 0)" stroke="rgb(204, 204, 204)" stroke-width="1px"></line><line x1="51.5625" y1="118.00000000000001" x2="46.5625" y2="118.00000000000001" style="visibility: inherit;" fill="rgb(0, 0, 0)" stroke="rgb(204, 204, 204)" stroke-width="1px"></line><line x1="51.5625" y1="98.33333333333331" x2="46.5625" y2="98.33333333333331" style="visibility: inherit;" fill="rgb(0, 0, 0)" stroke="rgb(204, 204, 204)" stroke-width="1px"></line><line x1="51.5625" y1="78.66666666666663" x2="46.5625" y2="78.66666666666663" style="visibility: inherit;" fill="rgb(0, 0, 0)" stroke="rgb(204, 204, 204)" stroke-width="1px"></line><line x1="51.5625" y1="58.99999999999995" x2="46.5625" y2="58.99999999999995" style="visibility: inherit;" fill="rgb(0, 0, 0)" stroke="rgb(204, 204, 204)" stroke-width="1px"></line><line x1="51.5625" y1="39.33333333333337" x2="46.5625" y2="39.33333333333337" style="visibility: inherit;" fill="rgb(0, 0, 0)" stroke="rgb(204, 204, 204)" stroke-width="1px"></line><line x1="51.5625" y1="19.666666666666675" x2="46.5625" y2="19.666666666666675" style="visibility: inherit;" fill="rgb(0, 0, 0)" stroke="rgb(204, 204, 204)" stroke-width="1px"></line><line x1="51.5625" y1="0" x2="46.5625" y2="0" style="visibility: inherit;" fill="rgb(0, 0, 0)" stroke="rgb(204, 204, 204)" stroke-width="1px"></line></g><g transform="translate(41.5625, 0)"><text x="0" y="177" dx="0em" dy="0.3em" style="text-anchor: end; visibility: hidden; font-family: Roboto, sans-serif; font-size: 12px; font-weight: 200;" fill="rgb(33, 33, 33)" stroke="none" stroke-width="1px">0.44</text><text x="0" y="157.33333333333331" dx="0em" dy="0.3em" style="text-anchor: end; visibility: inherit; font-family: Roboto, sans-serif; font-size: 12px; font-weight: 200;" fill="rgb(33, 33, 33)" stroke="none" stroke-width="1px">0.46</text><text x="0" y="137.66666666666669" dx="0em" dy="0.3em" style="text-anchor: end; visibility: hidden; font-family: Roboto, sans-serif; font-size: 12px; font-weight: 200;" fill="rgb(33, 33, 33)" stroke="none" stroke-width="1px">0.48</text><text x="0" y="118.00000000000001" dx="0em" dy="0.3em" style="text-anchor: end; visibility: inherit; font-family: Roboto, sans-serif; font-size: 12px; font-weight: 200;" fill="rgb(33, 33, 33)" stroke="none" stroke-width="1px">0.5</text><text x="0" y="98.33333333333331" dx="0em" dy="0.3em" style="text-anchor: end; visibility: hidden; font-family: Roboto, sans-serif; font-size: 12px; font-weight: 200;" fill="rgb(33, 33, 33)" stroke="none" stroke-width="1px">0.52</text><text x="0" y="78.66666666666663" dx="0em" dy="0.3em" style="text-anchor: end; visibility: inherit; font-family: Roboto, sans-serif; font-size: 12px; font-weight: 200;" fill="rgb(33, 33, 33)" stroke="none" stroke-width="1px">0.54</text><text x="0" y="58.99999999999995" dx="0em" dy="0.3em" style="text-anchor: end; visibility: hidden; font-family: Roboto, sans-serif; font-size: 12px; font-weight: 200;" fill="rgb(33, 33, 33)" stroke="none" stroke-width="1px">0.56</text><text x="0" y="39.33333333333337" dx="0em" dy="0.3em" style="text-anchor: end; visibility: inherit; font-family: Roboto, sans-serif; font-size: 12px; font-weight: 200;" fill="rgb(33, 33, 33)" stroke="none" stroke-width="1px">0.58</text><text x="0" y="19.666666666666675" dx="0em" dy="0.3em" style="text-anchor: end; visibility: hidden; font-family: Roboto, sans-serif; font-size: 12px; font-weight: 200;" fill="rgb(33, 33, 33)" stroke="none" stroke-width="1px">0.6</text><text x="0" y="0" dx="0em" dy="0.3em" style="text-anchor: end; visibility: hidden; font-family: Roboto, sans-serif; font-size: 12px; font-weight: 200;" fill="rgb(33, 33, 33)" stroke="none" stroke-width="1px">0.62</text></g><line x1="51.5625" y1="0" x2="51.5625" y2="177" fill="rgb(0, 0, 0)" stroke="rgb(204, 204, 204)" stroke-width="1px"></line></g></g><g transform="translate(51, 0)" clip-path="url(#clip_0)"><clipPath id="clip_0"><rect width="278" height="177"></rect></clipPath><g><g><g><line x1="0" y1="0" x2="0" y2="177" fill="rgb(0, 0, 0)" stroke="rgb(66, 66, 66)" stroke-width="1px" opacity="0.25"></line><line x1="30.9375" y1="0" x2="30.9375" y2="177" fill="rgb(0, 0, 0)" stroke="rgb(66, 66, 66)" stroke-width="1px" opacity="0.25"></line><line x1="61.875" y1="0" x2="61.875" y2="177" fill="rgb(0, 0, 0)" stroke="rgb(66, 66, 66)" stroke-width="1px" opacity="0.25"></line><line x1="92.8125" y1="0" x2="92.8125" y2="177" fill="rgb(0, 0, 0)" stroke="rgb(66, 66, 66)" stroke-width="1px" opacity="0.25"></line><line x1="123.75" y1="0" x2="123.75" y2="177" fill="rgb(0, 0, 0)" stroke="rgb(66, 66, 66)" stroke-width="1px" opacity="0.25"></line><line x1="154.6875" y1="0" x2="154.6875" y2="177" fill="rgb(0, 0, 0)" stroke="rgb(66, 66, 66)" stroke-width="1px" opacity="0.25"></line><line x1="185.625" y1="0" x2="185.625" y2="177" fill="rgb(0, 0, 0)" stroke="rgb(66, 66, 66)" stroke-width="1px" opacity="0.25"></line><line x1="216.5625" y1="0" x2="216.5625" y2="177" fill="rgb(0, 0, 0)" stroke="rgb(66, 66, 66)" stroke-width="1px" opacity="0.25"></line><line x1="247.5" y1="0" x2="247.5" y2="177" fill="rgb(0, 0, 0)" stroke="rgb(66, 66, 66)" stroke-width="1px" opacity="0.25"></line><line x1="278.4375" y1="0" x2="278.4375" y2="177" fill="rgb(0, 0, 0)" stroke="rgb(66, 66, 66)" stroke-width="1px" opacity="0.25"></line></g><g><line x1="0" y1="177" x2="278.4375" y2="177" fill="rgb(0, 0, 0)" stroke="rgb(66, 66, 66)" stroke-width="1px" opacity="0.25"></line><line x1="0" y1="157.33333333333331" x2="278.4375" y2="157.33333333333331" fill="rgb(0, 0, 0)" stroke="rgb(66, 66, 66)" stroke-width="1px" opacity="0.25"></line><line x1="0" y1="137.66666666666669" x2="278.4375" y2="137.66666666666669" fill="rgb(0, 0, 0)" stroke="rgb(66, 66, 66)" stroke-width="1px" opacity="0.25"></line><line x1="0" y1="118.00000000000001" x2="278.4375" y2="118.00000000000001" fill="rgb(0, 0, 0)" stroke="rgb(66, 66, 66)" stroke-width="1px" opacity="0.25"></line><line x1="0" y1="98.33333333333331" x2="278.4375" y2="98.33333333333331" fill="rgb(0, 0, 0)" stroke="rgb(66, 66, 66)" stroke-width="1px" opacity="0.25"></line><line x1="0" y1="78.66666666666663" x2="278.4375" y2="78.66666666666663" fill="rgb(0, 0, 0)" stroke="rgb(66, 66, 66)" stroke-width="1px" opacity="0.25"></line><line x1="0" y1="58.99999999999995" x2="278.4375" y2="58.99999999999995" fill="rgb(0, 0, 0)" stroke="rgb(66, 66, 66)" stroke-width="1px" opacity="0.25"></line><line x1="0" y1="39.33333333333337" x2="278.4375" y2="39.33333333333337" fill="rgb(0, 0, 0)" stroke="rgb(66, 66, 66)" stroke-width="1px" opacity="0.25"></line><line x1="0" y1="19.666666666666675" x2="278.4375" y2="19.666666666666675" fill="rgb(0, 0, 0)" stroke="rgb(66, 66, 66)" stroke-width="1px" opacity="0.25"></line><line x1="0" y1="0" x2="278.4375" y2="0" fill="rgb(0, 0, 0)" stroke="rgb(66, 66, 66)" stroke-width="1px" opacity="0.25"></line></g></g></g><g><g><line x1="0" y1="609.6666666666667" x2="278.4375" y2="609.6666666666667" fill="rgb(0, 0, 0)" stroke="rgb(153, 153, 153)" stroke-width="1.5px"></line></g></g><g><g><line x1="30.9375" y1="0" x2="30.9375" y2="177" fill="rgb(0, 0, 0)" stroke="rgb(153, 153, 153)" stroke-width="1.5px"></line></g></g><g><g><g><g><g><path stroke="rgb(255, 112, 67)" stroke-width="2px" d="M38.7646875,-19.941195618943837L39.05859375,29.98212184847237L39.08953125,-25.844453036477727L39.77015625,-12.648129522875932L40.156875,11.658463554088051L40.23421875,22.65620899006851L40.63640624999999,52.730390372947404L40.945781249999996,85.00788716276772L41.28609375,104.11616758392023L41.45625,35.02538689692136L41.47171875,38.898127321720246L41.626406249999995,68.33417965830435L41.8584375,84.98629116532466L42.09046875,74.17387566278494L42.19875,-3.8222800494730027L42.4153125,64.52973173450985L42.755625,55.751504332173866L42.77109375,55.61419964850879L42.95671875,88.29209720902263L43.003125,110.66709121751394L43.126875,112.45002098493342L43.3434375,121.6424049910659L43.358906250000004,101.97418235799195L43.76109375,145.68629297650185L44.00859375,124.04597551645627L44.10140625,78.09540412637668L45.27703125,101.98491593487896L45.617343749999996,104.32614325853893L45.725625,99.38056344612068L46.35984375,75.8742683737891L46.468125,90.92367224749434L46.9940625,126.0769276908428L47.055937500000006,68.21103836842721L47.2725,95.47892171789219L47.473593750000006,85.98247355609547L47.489062499999996,160.06257080071813L47.59734375,129.91054353137994L47.7984375,135.08540818504602L47.89125,89.56548600243798L48.09234375,101.3173575054443L48.463593749999994,128.94785762136198L49.05140625,111.03545096897096L49.0978125,127.79659183452334L49.70109375,106.99377002495409L49.76296875,111.11790554232137L49.793906250000006,150.8935843021079L49.85578125,165.95714326562913L49.88671875,174.1006953787551L50.11875,169.99276867340475L50.38171875,160.39543574748717L50.72203125,169.44361693281903L50.7684375,172.28147537679854L50.783906249999994,112.86301237248215L51.170625,77.60193372112211L51.3871875,49.850584922284064L51.449062500000004,65.48703991058477L51.52640625,99.6513485988955L52.005937499999995,91.75718676731864L52.08328125,117.67973385464676L52.578281249999996,61.96706553823664L52.82578125,69.99643293535858L52.91859375,67.12522069324747L53.07328125,58.695422282078084L53.22796875,112.90249180213107L53.2434375,154.5314260527422L53.58375,105.77814003258524L54.511874999999996,125.66144291021175L54.65109375,160.6015621152982L54.945,115.45520943765632L55.006875,92.32004567602154L55.02234375,113.96035613587823L55.0996875,90.40658045195342L55.5946875,92.09951234091996L55.795781250000005,76.05703447796708L55.873124999999995,145.18096880041247L56.07421875,137.39706509067233L56.84765625,139.07720318289768L57.68296875,128.09881978940268L57.9459375,112.14510499861622L58.08515625,89.42738444463484L58.3790625,126.15642700308203L58.440937500000004,81.8948759975849L58.6884375,100.97952144599867L58.951406250000005,100.78345940067513L59.01328125,101.536785111154L59.028749999999995,137.45184763192628L59.1215625,79.23794692309389L59.16796875,98.1858968191446L59.19890625,97.99135017314164L59.22984375,98.98434384615392L59.3071875,104.40248482992945L59.47734375,92.27434427879662L59.77125,81.65556460624374L59.81765625,94.88743358058996L59.91046875,90.12812633436879L60.52921875,93.70170202526629L60.946875,94.1055861235053L60.99328125,65.54464473249857L61.178906250000004,98.36408749772518L61.194374999999994,153.4540782822375L61.441875,128.25522297540533L61.6275,93.06936915270028L61.766718749999995,126.26084868640622L61.936875,80.26882213273198L62.04515625,124.23959923139341L62.07609375,105.39181135704789L62.23078125,118.28229877120656L62.447343749999995,158.35019352892874L62.555625,160.91514123395984L62.7103125,161.60703685829583L63.174375,172.4247539378179L63.18984375,164.1177473189616L63.514687499999994,135.67199386689168L63.5765625,104.9988112620499L63.65390625,89.39084511828344L63.932343749999994,87.16950885751993L64.28812500000001,69.77153196513149L64.30359375,69.38180601544873L64.42734375,138.37414440282808L65.04609375,80.12132967771264L65.278125,126.79925308979256L65.91234375,114.64302240822731L66.144375,144.30215488481926L66.15984375,173.14771582250842L66.1753125,135.14384183227048L66.19078125,153.23704881433065L66.2990625,129.70087382175575L66.6703125,139.4809003967725L67.505625,124.69546625010271L67.64484374999999,88.98305047149718L67.7221875,101.06415927764925L67.8459375,111.11676255280072L67.876875,125.57311501948608L67.9696875,186.75885279287047L68.000625,138.1307913739034L68.0934375,178.56648201218536L68.51109375,97.33755699677047L68.5265625,75.39707062969275L68.72765625,67.56630732812287L68.94421875,61.294395602928454L68.9596875,69.13017733724134L69.3928125,114.39948234457512L70.18171874999999,122.02917638718331L70.35187499999999,127.73641957024287L70.5065625,65.77019273348377L70.53750000000001,59.04876906339951L70.66125,18.07304305234332L70.8159375,47.06284702459246L70.89328125,76.1051729478793L70.93968749999999,76.80167975177498L71.15625,105.24070048819061L71.1871875,117.07781952514301L71.28,110.89229119158212L71.60484375,139.08074786863583L71.6821875,136.67749330958836L71.8678125,116.74863130387338L72.331875,36.734715596059985L72.53296875000001,67.58006831917359L72.826875,40.203850505232L73.0434375,104.7734881783401L73.2290625,117.66491495837022L73.39921875,118.14598609170866L74.04890625,103.14439964986778L74.20359375000001,122.5493706347362L74.5903125,133.0915756393561L75.0234375,122.17391903613546L75.03890625000001,136.48907677778323L75.31734375,103.83130086530474L75.48750000000001,83.36510971229812L76.1990625,90.53438425287527L76.32281250000001,81.89132971897682L76.35374999999999,86.75413518350291L76.41562499999999,105.12498681466363L76.5084375,90.63284367355064L76.52390625,131.33517616211788L76.5703125,135.503639570193L76.663125,154.98626767276716L76.910625,163.02083625800802L77.281875,142.8415416463657L77.4675,130.94773177213136L77.73046875,132.5220247263114L78.1171875,157.10747691121105L79.4475,123.27723267153739L79.74140625000001,114.00482047285148L79.80328125,113.19530690124931L80.4684375,116.71252331978859L80.54578125,156.64516310203146L80.56125,152.95407676085674L80.5921875,131.99334853123534L80.623125,122.51561720310194L80.63859375,119.7301876016768L80.9015625,108.44546834637592L81.0871875,101.70178551679774L81.10265625000001,99.23423424088512L81.3346875,121.41496487492452L81.62859375000001,95.88129301886238L82.37109375,137.13995594990536L82.479375,99.23931080825496L82.5103125,103.7050160014273L83.26828125,115.46507760546457L83.39203125,120.45652212696385L83.8715625,150.6828832268543L83.964375,182.59407477616233L84.0571875,162.70086655441304L84.27374999999999,115.68372671657825L84.3665625,148.47771491718706L84.96984375,82.56584595508818L85.51125,94.5917809577829L86.20734375,111.52754623325937L86.60953124999999,116.1423312661982L86.70234375,142.6517764074367L86.73328125,74.8938573127644L87.27468750000001,0.11695829584132333L87.41390625000001,23.52195795111213L87.4603125,57.358510699266354L87.47578125,35.171423907912256L87.5221875,43.543640420339415L87.55312500000001,40.547617176474304L87.78515625,25.535748850882673L87.81609375,27.9389456738515L88.171875,90.192820689846L88.37296875,126.7346109440539L88.5740625,112.66265793784136L89.85796875000001,99.47296084648576L90.10546875,84.86243399194603L90.53859375,86.16723933346108L90.92531249999999,124.29791591878947L91.00265624999999,146.4247969050182L91.17281249999999,156.3502501920247L91.18828125,148.83326113275993L91.20375,126.70198702048646L91.34296875,119.88539243875775L91.5440625,151.9268115190993L91.83796874999999,161.94098959535344L91.99265625,145.02851837180052L92.1628125,144.21886022072232L92.626875,77.55040864456409L93.04453125,55.51656460151303L93.245625,38.53151794702948L93.29203125,90.46999225078707L93.66328125,106.59305906926797L93.69421875,141.76897530934338L94.09640625,83.96842446236487L94.80796875,76.63457186008692L94.91625,101.46957899919275L95.08640625000001,132.35836814517452L95.101875,76.06013542021118L95.17921875,97.71758821172399L95.22562500000001,81.18270034728184L95.41125,72.2815327672426L95.48859374999999,62.13290580282193L95.535,84.03851811192186L95.596875,126.98964839837001L95.64328125,127.26248215234904L95.92171875,136.18234910128493L96.01453125,146.1585080795962L96.81890625,145.63503909350305L97.0509375,150.77193141127148L97.34484375,121.30656865523964L97.515,96.35937042605907L98.05640625000001,120.43399897956073L98.13375,58.97667709833318L99.07734375,94.23947864281698L99.4021875,62.68750241701336L99.60328125,95.81272818627679L99.88171875,105.04543505102036L100.09828125,127.95091136687783L100.22203125,141.4764329774804L100.2375,115.08813302816712L100.2684375,112.60503383339498L100.37671875,142.91169844385618L100.65515624999999,155.3224203247823L100.85625,151.9987344220677L101.28937499999999,164.07736150475736L101.81531249999999,127.46940867137354L101.9390625,162.9488275529828L102.23296875,119.47772351594092L102.40312499999999,104.47739044641253L102.8671875,64.44554308145129L103.54781249999999,85.24864910695281L103.67156250000001,19.777313574075606L103.7953125,32.30023178890549L103.8571875,28.538845849644332L104.15109374999999,118.35805916345788L104.1665625,105.7328698767623L104.18203125,93.96393495401139L104.46046874999999,95.99355151017745L104.52234375,86.22286384360144L104.70796874999999,83.11932891839439L104.94,99.87328467111011L105.01734375,113.94933106108641L105.373125,105.75718716941753L105.91453125,106.8469030946244L106.0846875,97.50167956887178L106.363125,85.05435655279051L106.4559375,124.94169466751673L106.51781249999999,84.64393344556011L106.54875,79.55291596473086L106.6725,143.1998591388513L106.8271875,106.91907620222858L106.90453124999999,105.07549544845918L106.92,66.14965112611591L106.99734375,87.84026561342645L107.01281250000001,73.21187661188624L107.33765625000001,59.39242496946124L107.83265625,106.1200337024053L107.87906249999999,107.43135322798412L107.92546875000001,158.75962015987903L108.03375,135.128078395137L108.35859375,124.27531742295159L108.42046875,114.59281652315775L108.45140625,134.96127343859862L108.6834375,141.56090896538845L108.9,122.34858651883575L109.0546875,144.87366357600993L109.44140625,91.56414288971601L109.580625,112.20556301292054L109.6425,105.86929532537623L109.76625,104.81340069363374L110.2303125,113.06116559578895L110.80265625,124.78623269284118L110.8490625,102.42065884839113L111.00375,153.8300517211593L111.22031249999999,117.12129343809107L111.82359374999999,133.94031732039505L111.931875,109.66295973910997L112.04015625000001,113.45895247730087L112.24125,77.51475574020031L112.41140625,69.16912686890454L112.51968749999999,51.26394894162468L112.56609375000001,98.19499980473306L112.59703125,120.28558581906829L112.65890624999999,116.26744120421972L112.90640625,139.76402104558332L113.4478125,139.28165081736515L113.6953125,152.9885913665915L113.98921875,133.88741300120898L114.1284375,144.01091419228882L114.159375,135.71613093953707L114.26765625,153.06994187479043L114.29859375,143.35459144698478L114.46875,118.01488532893003L114.62343750000001,126.42566851539696L114.91734375,152.31940414764452L115.6753125,154.58634347672043L115.9228125,99.28325257473058L115.96921875,128.50307917856895L116.24765624999999,86.89627517221604L116.49515625,98.10596796447976L116.52609375,32.198796537965194L116.58796875,63.260868422657L116.68078125000001,45.97605988530504L116.758125,76.35874973027819L116.95921875,58.31095205717632L117.93375,114.94693366074576L118.07296875,110.09882624576893L118.18125,105.9013586499119L118.32046875,61.12216213094143L118.49062500000001,74.28984473594194L118.84640625,120.31300613749922L119.109375,149.16630785546047L119.233125,156.61191991695569L119.61984375,141.5313504361836L120.0065625,128.71579512499142L120.285,107.81893612867023L120.51703125,94.99233623698609L120.76453125,101.76505175643322L120.78,125.43568618742519L121.0584375,117.52296980012197L121.213125,115.6098026898825L121.4915625,137.607291185895L121.6153125,91.36459173602228L122.0484375,32.17864013021601L122.17218749999999,39.461194246840854L122.38874999999999,74.90394132723345L122.450625,101.68624303374645L122.77546875,120.41889508744453L123.39421875,126.39200905271589L123.47156249999999,129.71499882921506L123.53343749999999,148.71974214783265L124.430625,149.7318596256035L124.63171875,136.91183561954443L124.74000000000001,113.24821305398268L124.97203124999999,149.3433899330544L124.9875,86.4001382498412L125.12671875,103.1256259068927L125.32781250000001,118.63287503233043L125.46703125,98.79339794344006L125.5134375,91.57582051769674L125.52890624999999,135.49195535510253L125.66812499999999,109.8721803796061L125.7609375,73.25268805653457L125.99296875,100.92328949350488L126.03937499999999,76.11848979539687L126.05484375,89.75049111056538L126.20953125,96.67974872276109L126.34875,112.5243364665007L126.36421874999999,49.892358825192574L126.56531249999999,53.156387229116234L126.67359375,47.849590146155066L126.76640625,67.50105823096285L127.215,67.68700852205343L127.33874999999999,87.79237107163661L127.41609375,125.12776804601742L127.58624999999999,149.08361060203467L127.81828125,177.32299849260664L128.08125,156.8422446859011L128.15859375,137.02039671413874L128.4215625,100.25263332012952L128.87015625,102.69142421891492L128.97843749999998,110.54644138501212L129.47343750000002,140.7206992480325L129.50437499999998,111.85049506265922L129.8446875,111.87907960557345L130.38609375000001,113.66035814211811L130.494375,106.03909548397493L130.5253125,139.72480917935945L130.75734375,125.58971431036024L130.88109375,122.57261934784592L130.8965625,118.81003388707362L130.94296875,129.22035134401636L130.97390625,77.2649651481711L131.22140625,112.73867314541361L131.236875,62.67681426297038L131.3296875,3.8420537620211066L131.360625,82.39954479790275L131.43796875,92.51656723175378L131.4534375,122.37036373707012L132.2578125,123.9332840750159L132.67546875,188.09796359794584L133.20140625,161.99415627314988L133.4953125,112.13082187490271L133.60359375,131.08899890452582L134.11406250000002,161.8062453532415L134.1759375,140.72433385834282L134.26875,162.25873565029212L134.53171875,135.43634148846732L134.76375,135.48450917647673L135.30515625,157.1549280642255L135.568125,108.7697187677294L135.63,126.79653315635149L135.80015625,153.35207085346156L135.98578125,162.03310898463909L136.10953125,145.89063225301695L136.31062500000002,126.59993718134912L136.32609375,129.88594135880996L137.08406250000002,142.22710200095491L137.09953124999998,143.67200883196386L137.23875,147.19447555522078L137.31609375,146.84656509387466L137.43984375,165.39814949409944L137.48624999999998,150.95561205770645L137.53265625,117.43707425252238L137.548125,110.39290419532246L138.105,121.45795589673546L138.24421875,117.94702163132845L138.33703125,151.04754946307034L138.39890624999998,119.54245766207988L138.52265625,101.27144268476212L138.95578125,117.7632031638816L138.98671875,124.4108219742414L139.0021875,159.45234010614772L139.11046875,135.22472458281803L139.40437500000002,99.24905675172015L139.528125,136.60327710421404L139.71375,90.40376386867872L139.8375,97.17714226540073L140.08499999999998,111.02624449111708L140.10046875,115.60565172619238L140.146875,94.92928122075374L140.30156250000002,83.39088173662805L140.81203125,97.42445288472481L140.8584375,90.11974070691926L140.95125000000002,86.04473960135698L140.98218749999998,112.13944779078757L141.508125,107.91653779093782L141.94125,159.65559883283194L142.17328125,150.7896029275653L142.3434375,151.52400663626176L142.45171875,130.205990174206L142.5909375,108.79166254527883L143.2096875,83.72267056183526L143.44171875,98.70167982981506L143.62734375000002,106.0000854595854L143.6428125,61.96479597077889L143.735625,143.22838972242346L143.7975,141.17344285387796L143.8284375,132.40412503881655L144.02953125,142.47622956277965L144.045,117.69113195801991L144.27703125,138.27880325833095L144.41625000000002,105.49160076132891L144.80296875000002,80.77238312334697L145.29796875000002,119.65670046987663L145.90125,112.482804515655L146.14874999999998,84.31849001568267L146.41171875,88.31060968272911L146.47359375000002,124.52900624930676L146.58187500000003,148.26313000118623L146.92218749999998,126.92740575390584L147.01500000000001,142.11358567824476L147.18515625,138.41918444286097L147.20062499999997,51.688426460724926L147.46359375,106.9290555989158L147.6028125,110.64244663767488L148.005,104.45744817288204L148.14421875,114.3482409526794L148.45359375,79.47042491892314L148.56187500000001,56.91115454152826L148.62375,78.18131097544591L148.70109374999998,99.08417701953275L148.88671875,111.81834077179599L149.056875,118.2436640302748L149.28890625,125.00971458993813L149.61375,123.651322452083L149.8303125,90.45018091669957L150.06234375,144.0512521279133L150.1396875,129.34444139871655L150.26343749999998,141.58470497016305L150.3253125,124.95678633938749L150.43359375,121.00133134419038L150.49546875,142.85625449117603L150.8821875,147.6735149818455L150.99046875,182.47208497113758L151.33078125,146.33571894876223L152.59921874999998,120.2916527424975L152.93953125,120.72612125683175L153.2334375,124.22190803890435L153.31078125000002,144.66386407974366L153.511875,154.19816447712782L153.55828125,142.19119087110641L153.77484375,88.49090230813039L153.92953125,78.49095132559786L153.96046875000002,93.22069576547689L153.97593750000001,83.83260553975593L154.05328125,74.45913555959672L154.23890625,99.02156226678579L154.625625,69.54883407459988L154.65656249999998,59.49984961493611L154.73390625,99.39974581645217L155.4609375,73.5103817032552L155.56921875,79.95696066499416L155.81671874999998,82.37864067562816L156.09515624999997,111.7343120321139L156.54375,110.07733748820455L156.83765625,106.7060686655861L156.853125,106.53797781713938L156.93046875,151.6511069630472L156.99234375,154.48388390311928L157.08515625,147.3828388327519L157.5028125,158.62752069676876L158.02875,153.83521967119944L158.6784375,111.48740016412913L159.01875,146.7020075420072L159.2971875,122.51466409958581L159.31265625,131.18979999580287L159.4209375,148.1471138466893L159.52921875,142.54934802469603L159.699375,123.79847586244539L160.02421875000002,58.58960651610416L160.24078125,60.232383739476134L160.6584375,90.25369202188133L160.7821875,124.36135630066089L160.87499999999997,117.79868546478882L161.23078125,52.93123540492614L161.4628125,73.30407005078654L161.63296875,94.92081892605862L161.75671875,110.62664137750612L162.298125,112.5374406484946L162.54562499999997,95.83330621966823L163.02515625,83.18907473076841L163.11796875,32.258801493581835L163.1334375,62.1954256416579L163.24171875,80.09822622862771L163.3190625,119.68755885716662L163.3809375,153.6005132402364L163.411875,112.43350991837487L164.773125,113.57425078490755L164.92781250000002,92.61281635407231L165.639375,93.10813644355707L165.8559375,84.82696484025027L166.0725,37.66021304823376L166.258125,35.56095436511886L166.815,77.32850389062438L166.83046875,103.31194954144408L166.86140625000002,102.02438459214045L166.9696875,111.77967753459892L166.98515625000002,92.44651586880212L167.01609375,125.79829380752597L167.1553125,101.1566498150942L167.51109375,102.02072223845225L167.5575,93.81664184425135L167.86687500000002,113.90974962528861L168.25359375,141.1260078101336L168.3,171.91770960583162L168.4546875,178.41874862726854L168.82593749999998,52.61936936984259L168.8878125,80.39873981203513L169.21265625,106.86332362329486L169.3209375,115.55899756810379L169.5065625,107.67621673938417L169.52203125,117.98838295418088L169.55296875,85.78632078495461L169.81593750000002,104.8372019564718L169.84687499999998,91.55057615651347L169.8778125,111.27041597334743L169.92421875,153.7685146202735L170.01703125,139.74595936954572L170.28,117.18224421036568L170.35734375,100.39838286375401L170.51203125,65.81576953809697L170.63578125,32.03624432771144L170.77499999999998,67.46530789626875L170.91421875,104.49713911906825L171.19265625,101.01429739572175L171.25453125,82.4247563142234L171.455625,79.22195033979345L172.58484375,131.60331719369844L172.67765624999998,112.46501381348263L172.87875000000003,120.29041266729843L172.95609375,135.29754838321847L173.04890625000002,120.40618208830105L173.17265625,115.62666435908001L173.18812499999999,119.35948128623205L173.21906249999998,139.88305139813286L173.7759375,101.04430929982738L173.82234375000002,125.04885197578315L174.5184375,128.17578426737654L175.33828125,137.61428155743525L175.77140625,155.72208053018718L175.80234375,91.38759715246803L175.89515624999999,86.39254904719773L175.9415625,90.61386876662121L176.11171875,116.71892670011249L176.1271875,99.04194565146604L176.65312500000002,94.63560646889276L176.776875,107.95335343351564L177.16359375000002,90.55068446916705L177.7978125,44.09862223698125L178.014375,67.25488791128058L178.4165625,107.25935424125235L178.43203125000002,93.13607102685789L178.46296875,123.13412828080031L178.61765624999998,123.50584499934617L178.64859375,157.82442481259088L178.98890625,161.60648033781595L179.05078125,104.52039828557024L179.1590625,137.85964613750525L179.49937500000001,134.28172678308653L179.6540625,146.53650559518917L179.66953124999998,161.3194252423496L180.07171875,127.40906003547018L180.10265625000002,123.24945852418129L180.75234375,67.60001347815617L180.76781250000002,84.61727371825154L180.90703125,95.87421550162654L181.44843749999998,82.51879584277485L182.33015625000002,101.94145097425476L182.51578125,84.20569502964156L182.88703125,87.08519670757372L182.9334375,121.73985671237736L182.964375,101.91341469626998L183.01078124999998,94.19655391737648L183.16546875,113.72917656798064L183.24281249999999,155.75164904216265L183.25828125,143.76147589297693L183.38203125,98.92239622202472L183.62953124999999,70.17367921626735L183.76875,102.97090546899733L183.84609375,104.48227895466707L184.03171875,68.91101832291415L184.27921875,93.0643531904673L184.31015625,67.77506918267746L184.51125,35.63129585518243L184.68140624999998,71.98125342647516L184.71234375,106.25510616374187L184.8515625,119.91126331849199L184.89796875,111.39865763086055L185.14546875,125.32559652585573L185.57859374999998,138.8770362027016L185.6559375,131.53966856921872L185.7178125,109.13116183832388L186.2746875,109.16073361409761L186.32109375000002,100.41462018910873L186.38296875,94.60805885090734L186.73874999999998,168.15152158793393L186.83156250000002,165.2942948090429L187.31109375,62.14845902208849L187.65140625,83.52168527335542L187.6978125,97.54189975514385L187.71328125,106.596899903542L187.8834375,62.40529203219779L188.1309375,97.80276876173554L188.36296875,84.366579136146L189.01265625,93.38059194935936L189.32203125,144.99236436716862L189.4921875,159.35459560572394L189.53859375,175.54703779073137L189.646875,136.17334393094924L189.81703125,68.37309030352604L189.89437500000003,21.03917983964232L189.90984375,44.99474847194637L190.32750000000001,84.59849100834387L190.389375,74.86826117948446L190.55953125000002,98.50560737519915L190.62140624999998,57.12023972393752L191.5340625,51.08995567314831L191.54953125,23.25160711538596L191.565,32.5141717684177L191.68875,90.05110690346802L191.85890625,92.03022429159154L192.245625,114.59176993853374L192.988125,87.29988897931494L193.1428125,116.90312832847394L193.235625,154.55614226413857L193.46765625,143.0640996457324L193.9471875,109.47965082493536L193.99359375,141.53766502321037L194.16375000000002,128.15940114685066L194.2565625,149.5655392696152L194.30296875,113.57205611207226L194.3184375,96.9200816973337L194.39578125,101.83535153215861L195.24656249999998,103.77902599103695L195.50953125,119.12550368265775L195.63328124999998,141.59719461415096L195.78796875,189.12493129301401L195.81890625,145.57989334103465L195.89625,121.94809146942896L196.00453125,124.64157867564086L196.14374999999998,88.08873423020034L196.28296875,145.44012733348202L196.43765625,177.62608075170516L196.77796875,169.3911699217287L196.88625000000002,160.26372847726313L197.11828125000002,161.22087810300013L197.21109375,125.81145719207653L197.2575,123.39016223460833L197.39671875000002,135.65992798314727L197.7525,63.40715907756238L197.78343750000002,88.98353978838767L198.07734374999998,106.8885574152842L198.2784375,73.52504360342675L198.46406249999998,98.83184659281167L198.51046875,93.94624618569294L198.66515625,80.12810710993975L198.7115625,31.250866547788647L198.74249999999998,30.91767101420884L199.23749999999998,94.10131367604288L199.50046875,111.99367629226258L199.51593749999998,122.28941582880144L199.8871875,106.63988360906677L199.90265625,93.01808151291823L200.13468749999998,120.4522040964386L200.30484375,128.67171541936526L200.58328125,105.15268521360953L200.97,93.89103906662697L201.00093750000002,90.89178170350065L201.155625,100.56389934373018L201.46499999999997,123.74050091834138L201.650625,104.9853985893603L201.88265625,85.66454771684859L201.94453125,93.55330949342604L202.19203124999999,126.78524754832002L202.40859375,126.43806589279464L203.011875,146.6841515181495L203.259375,99.43527210621232L203.32125,101.73739262939407L203.64609375,149.22289463194755L204.249375,126.84733449009583L204.45046875,117.87893730752178L204.54328125,165.12049502344433L204.60515625,107.33584613528747L204.80624999999998,132.93299597259502L205.115625,132.74927461399324L205.56421875,98.41268346460869L205.7034375,123.07830654235015L206.12109375,129.97227919887305L206.53875,113.28835824007272L206.6315625,81.98156689131947L206.89453125,144.9753204178295L206.91,162.48250848401474L207.219375,146.8058512509796L207.35859374999998,184.43716572329993L207.54421875,191.09789264498173L207.63703124999998,169.76605922558713L207.72984375000001,160.93203260051493L207.94640625,178.64449710973471L208.11656250000001,141.3358988960288L208.395,99.13775152760955L208.68890625,89.13015710591202L209.1375,69.50465444293974L209.97281249999997,45.63351803362785L210.189375,110.98561139110974L210.4678125,79.12415824256887L210.57609375,139.4691855545196L210.63796875,132.73605283312122L211.44234375,114.11370989608037L211.64343749999998,84.99190315958226L212.18484375,75.99419111424498L212.24671875,80.67245268671007L212.49421875,102.89270462104652L212.61796875000002,136.3446154207526L212.80359374999998,55.183223875991814L213.00468750000002,108.94737154998327L213.36046875,88.98621636286146L213.5615625,63.706390796034135L213.57703125,19.589305077748616L213.6234375,56.14959816620176L213.84,64.4947666276619L213.8709375,83.02992663080245L213.9946875,130.88111221767315L214.10296875,136.77458738472168L214.22671875,137.55508876156475L214.5515625,149.781037578851L214.86093749999998,100.48993750206826L214.98468749999998,141.99519580081426L215.07750000000001,179.31614882235922L215.55703125,171.9782190629951L215.61890625,109.09330083782153L215.77359375,92.19097725066355L215.9128125,135.43079604812152L216.25312499999998,175.76415555938692L216.315,151.47719563602175L216.68625,159.09774144624927L216.74812500000002,142.40638211648817L217.01109375000001,75.77888179191645L217.13484375000002,86.77835361382581L217.25859375,59.43451274367891L217.44421875,58.77399902104966L217.8,84.94010277128002L218.79,79.6058694096552L219.285,69.34077668818712L219.36234375,55.77478496610851L219.470625,51.53274321782425L219.54796875,107.82429994877884L219.78,120.01677239181625L219.98109374999999,132.14153033241845L220.16671875,121.27791961279647L221.12578125000002,122.61193537064673L221.46609375,103.00781664459873L221.49703125,133.78166311507803L221.68265625,140.21276815052065L221.89921875000002,139.8485152044807L222.05390624999998,117.10871398362997L222.08484375,135.72016611842406L222.14671875,87.99029632696362L222.23953125,126.34721872978716L222.36328125,135.4399146424133L222.37875,140.92713536737753L222.4715625,135.69936371198332L222.48703125,156.5112978320382L222.62625,129.18689481224985L222.79640625000002,86.6032766330622L223.01296875,38.89883293082611L223.16765625,64.3758127214727L223.26046875,91.69658666782883L223.29140625,111.58866920828805L223.56984375000002,120.24088079190243L223.87921874999998,165.2408992834249L224.0184375,109.35498977426836L224.11124999999998,119.28598338399813L224.173125,80.9253549935489L225.1940625,103.25316060952757L225.30234375,107.63552996340842L225.54984374999998,62.53611225777937L226.16859374999999,79.57004466192373L226.771875,57.13180250249175L227.14312500000003,85.2958216169787L227.15859375,37.86690329110497L227.2978125,70.49810735342422L227.4525,56.379133065288386L227.65359375,109.89743955120151L227.90109375,103.27745182822972L228.31875,72.62881391551588L228.38062499999998,22.59190924151643L228.4425,83.86194467058125L228.5353125,97.7273349653304L228.58171875000002,130.3770184451712L228.82921875,101.03348146683217L228.89109374999998,67.99312235597519L229.06125,31.788239202998525L229.4015625,56.111677989623466L230.15953125,86.9140567532747L230.175,85.21524930108997L230.3296875,83.01694124604909L230.360625,93.65249126155555L230.5771875,88.83569956421488L230.87109375000003,84.29210785587406L231.30421875000002,121.78073816831775L231.33515624999998,122.84035073917629L231.4434375,140.96677724044434L231.474375,143.297865443553L231.5053125,177.48492040621764L231.58265625,160.47282296650127L231.7528125,113.23211489259707L231.98484375,153.59169652147793L232.01578125,124.42317304263736L232.0621875,156.21328621655837L232.20140625000002,134.51820028752167L232.30968750000002,136.97709340808836L232.340625,69.37388529951201L232.49531249999998,100.16593318725523L234.073125,117.39777147896027L234.61453125,57.218944065532796L235.14046875,74.16156642800274L235.5890625,81.17795824109938L235.66640625,109.75317492742995L235.80562500000002,141.12832717096606L235.8984375,106.81783352690411L236.20781250000002,84.371052660927L236.22328124999999,115.70391098561969L236.8265625,96.5914650275494L237.05859375,100.96356622661267L237.2596875,92.35339783202672L237.27515624999998,88.12451387189465L237.5690625,70.05975470985557L237.8784375,69.17409486400439L238.3115625,120.5543055464468L238.32703124999998,119.57356430270127L238.71374999999998,127.07087923593038L238.91484375000002,154.6008456637862L239.47171875,159.73374569954882L240.27609375,165.0197415145779L240.39984375,65.15534503018122L240.4153125,93.66934876494763L240.69375,104.15245433362225L241.3125,102.98252597478171L241.63734375,108.34040789024316L241.7146875,58.090485137003334L242.16328124999998,77.32293438194056L242.5809375,85.22213051683423L243.10687499999997,55.93442739228439L243.18421874999999,58.60882186798271L244.23609375,70.41211805288802L244.31343750000002,59.904090763398834L244.49906249999998,89.1462962158136L244.57640625,104.04252065386052L244.62281249999998,129.17843106487797L244.82390625000002,159.41799121160952L244.8703125,170.6738405767658L244.94765625,159.38494852444998L245.10234375000002,95.73721768415858L245.25703125,95.95241805289322L245.31890625,160.73146430079618L245.7984375,131.6382518575061L246.1078125,105.37493147644216L246.3553125,123.88169966256311L246.77296875000002,100.01581323613144L246.86578125,135.39465743980458L246.92765625,107.49303120780976L247.03593750000002,110.95708273098259L247.2525,77.715727573109L247.36078125,100.3134566975469L247.57734375,112.11723865863692L248.56734375,109.34404055553888" style="fill: none;" fill="none"></path></g></g></g></g><g opacity="0.2"><g><g><g><path stroke="rgb(255, 112, 67)" stroke-width="2px" d="M37.88296875,-104.82490730285647L38.28515625,33.81047177314759L38.40890625,-45.14671436945597L38.7646875,21.171955545743305L39.05859375,104.86709801355997L39.08953125,-109.58431533972423L39.12046875,-115.80736311276756L39.36796875,34.96581641832987L39.77015625,3.0468417008717896L40.156875,48.11835316816966L40.23421875,39.15282714366912L40.63640624999999,97.84166244665782L40.945781249999996,133.42413234710693L41.28609375,132.77858821551004L41.45625,-68.61078413327537L41.47171875,44.70723795890808L41.626406249999995,112.48825816313426L41.8584375,109.96445842583975L42.09046875,57.95525240898133L42.19875,-120.81651361783348L42.4153125,167.05774941047034L42.755625,42.58416322867075L42.77109375,55.40824262301126L42.95671875,137.30894354979196L43.003125,144.22958223025003L43.126875,115.12441563606262L43.3434375,135.43098100026447L43.358906250000004,72.47184840838113L43.76109375,211.25445890426636L44.00859375,91.58549932638805L44.10140625,9.169547041257227L45.27703125,137.8191836476326L45.617343749999996,107.83798424402872L45.725625,91.96219372749327L46.35984375,40.61482576529185L46.468125,113.49777805805208L46.9940625,178.80681085586548L47.055937500000006,-18.587795615196242L47.2725,136.38074674208957L47.473593750000006,71.73780131340027L47.489062499999996,271.18271666765213L47.59734375,84.68250262737274L47.7984375,142.84770516554514L47.89125,21.28560272852579L48.09234375,118.94516475995383L48.463593749999994,170.3936077952385L49.05140625,84.16684099038442L49.0978125,152.93830313285193L49.70109375,75.78953731060028L49.76296875,117.3041088183721L49.793906250000006,210.55710244178772L49.88671875,186.31602354844412L50.11875,163.83087861537933L50.38171875,145.9994363586108L50.72203125,183.0158887108167L50.7684375,176.53826304276785L50.783906249999994,23.73531786600748L51.170625,24.710315744082124L51.3871875,8.22356172402699L51.449062500000004,88.94172239303587L51.52640625,150.89781163136166L52.005937499999995,79.9159440199534L52.08328125,156.56355448563895L52.578281249999996,-21.601936936378493L52.82578125,82.04048403104146L52.91859375,62.818402330080666L53.07328125,46.05072466532389L53.22796875,194.21309608221054L53.2434375,216.9748274286588L53.58375,32.648211002349846L54.511874999999996,155.48639722665152L54.65109375,213.01174092292786L54.945,47.73568042119344L55.006875,57.617300033569336L55.02234375,146.42082182566324L55.0996875,55.07591692606607L55.5946875,94.63891017436981L55.795781250000005,51.993317683537796L55.873124999999995,248.86687028408053L56.07421875,125.721209526062L56.84765625,141.59741032123566L57.68296875,111.63124469916025L57.9459375,88.21453281243643L58.08515625,55.35080361366271L58.3790625,181.2499908407529L58.440937500000004,15.502549489339184L58.6884375,129.6064896186193L58.951406250000005,100.48936633268991L59.01328125,102.66677367687224L59.028749999999995,191.32444141308468L59.1215625,-8.082904140154517L59.16796875,126.60782166322072L59.19890625,97.69953020413718L59.22984375,100.4738343556722L59.3071875,112.52969630559286L59.47734375,74.08213345209757L59.77125,65.72739509741466L59.81765625,114.73523704210918L59.91046875,82.98916546503702L60.52921875,99.06206556161246L60.946875,94.71141227086385L60.99328125,22.703232645988457L61.178906250000004,147.59325164556503L61.194374999999994,236.08906445900598L61.441875,90.45694001515707L61.6275,40.29058841864267L61.766718749999995,176.04806798696518L61.936875,11.28078230222066L62.04515625,190.19576487938562L62.07609375,77.1201295455297L62.23078125,137.6180298924446L62.447343749999995,218.45203566551208L62.555625,164.76256279150644L62.7103125,162.6448802947998L63.174375,188.65132955710095L63.18984375,151.65723739067712L63.514687499999994,93.00336368878682L63.5765625,58.989037354787186L63.65390625,65.97889590263367L63.932343749999994,83.83750446637471L64.28812500000001,43.67456662654876L64.30359375,68.79721709092459L64.42734375,241.86265198389688L65.278125,196.81613820791245L65.91234375,96.40867638587952L66.144375,188.7908535997073L66.15984375,216.41605722904205L66.1753125,78.13803084691365L66.19078125,180.3768592874209L66.2990625,94.39661133289336L66.6703125,154.15094025929767L67.505625,102.51731503009798L67.64484374999999,35.41442680358886L67.7221875,119.18582248687746L67.8459375,126.19566746552786L67.876875,147.25764371951422L67.9696875,278.53745945294696L68.000625,65.18869924545288L68.0934375,239.2200179696083L68.51109375,-24.505830526351943L68.5265625,42.48634107907612L68.72765625,55.82016237576803L68.94421875,51.88652801513672L68.9596875,80.88384993871054L69.3928125,182.30343985557556L70.18171874999999,133.47371745109558L70.35187499999999,136.2972843448321L70.5065625,-27.179147521654773L70.53750000000001,48.96663355827332L70.66125,-43.390545964241014L70.8159375,90.5475529829661L70.89328125,119.66866183280943L70.93968749999999,77.84643995761871L71.15625,147.89923159281415L71.1871875,134.8334980805715L71.28,101.61399869124094L71.60484375,181.3634328842163L71.6821875,133.0726114710172L71.8678125,86.8553382953008L72.331875,-83.2861579656601L72.53296875000001,113.84809740384419L72.826875,-0.8604762156804446L73.0434375,201.62794468800226L73.2290625,137.00205512841544L73.39921875,118.86759279171626L74.04890625,80.64201998710632L74.20359375000001,151.65682711203894L74.5903125,148.904883146286L75.0234375,105.79743413130443L75.03890625000001,157.96181339025497L75.31734375,54.844636996587106L75.48750000000001,52.66582298278808L76.1990625,101.28829606374104L76.32281250000001,68.92674791812897L76.35374999999999,94.04834338029225L76.41562499999999,132.68126426140466L76.5084375,68.894628961881L76.52390625,192.3886748949687L76.5703125,141.75633468230566L76.663125,184.21020982662836L76.910625,175.07268913586935L77.281875,112.57259972890218L77.4675,113.10701696077983L77.73046875,134.88346415758133L78.1171875,193.9856551885605L79.4475,72.53186631202698L79.74140625000001,100.0962021748225L79.80328125,111.98103654384613L80.4684375,121.98834794759749L80.54578125,216.54412277539572L80.56125,147.41744724909464L80.5921875,100.55225618680319L80.623125,108.29902021090189L80.63859375,115.55204319953917L80.9015625,91.5183894634247L81.0871875,91.58626127243042L81.10265625000001,95.53290732701619L81.3346875,154.6860608259837L81.62859375000001,57.58078523476917L82.37109375,199.02795034646988L82.479375,42.38834309577942L82.5103125,110.40357379118602L83.26828125,133.10517001152039L83.39203125,127.94368890921274L83.8715625,196.0224248766899L83.964375,230.46086210012436L84.0571875,132.86105422178903L84.27374999999999,45.158016959826156L84.3665625,197.66869721810025L84.96984375,-16.301957488059998L85.51125,112.63068346182506L86.20734375,136.93119414647418L86.60953124999999,123.06450881560643L86.70234375,182.4159441192945L87.27468750000001,-112.04839022954307L87.41390625000001,58.62945743401844L87.4603125,108.11333982149759L87.47578125,1.8907937208811463L87.5221875,56.101965188980095L87.55312500000001,36.053582310676575L87.78515625,3.0179463624954157L87.81609375,31.54374090830485L88.171875,183.57363321383792L88.37296875,181.5472963253657L88.5740625,91.55472842852275L89.85796875000001,79.6884152094523L90.10546875,62.946643710136414L90.53859375,88.12444734573364L90.92531249999999,181.4939307967822L91.00265624999999,179.61511838436127L91.17281249999999,171.23843012253442L91.18828125,137.55777754386267L91.20375,93.50507585207622L91.34296875,109.66050056616464L91.5440625,199.98894013961154L91.83796874999999,176.9622567097346L91.99265625,119.65981153647104L92.1628125,143.004372994105L92.626875,-22.45226871967317L93.04453125,22.465798536936433L93.245625,13.053947965304053L93.29203125,168.37770370642343L93.66328125,130.77765929698944L93.69421875,194.53284966945648L94.09640625,-2.732401808102917L94.80796875,65.63379295667013L94.91625,138.7220897078514L95.08640625000001,178.6915518641472L95.101875,-8.387213667233777L95.17921875,130.20376739899316L95.22562500000001,56.38036855061849L95.41125,58.92978139718374L95.48859374999999,46.90996535619099L95.535,116.8969365755717L95.596875,191.41634382804236L95.64328125,127.67173278331758L95.92171875,149.56214952468872L96.01453125,161.1227465470632L96.81890625,144.84983561436334L97.0509375,158.4772698879242L97.34484375,77.10852452119192L97.515,58.938573082288094L98.05640625000001,156.54594180981317L98.13375,-33.20930572350819L99.07734375,147.1336809595426L99.4021875,15.359538078308093L99.60328125,145.5005668401718L99.88171875,118.89449534813564L100.09828125,162.3091258406639L100.22203125,161.7647153933843L100.2375,75.50568310419719L100.2684375,108.88038504123688L100.37671875,188.37169535954794L100.65515624999999,173.93850314617157L100.85625,147.0132055679957L101.28937499999999,182.1953021287918L101.81531249999999,72.55747942129771L101.9390625,216.16795587539673L102.23296875,54.271067460378006L102.40312499999999,81.97689084211984L102.8671875,4.397772034009302L103.54781249999999,116.45330814520518L103.67156250000001,-78.4296897252401L103.7953125,51.084609111150094L103.8571875,22.896766940752656L104.15109374999999,253.0868791341782L104.1665625,86.79508594671884L104.18203125,76.31053256988525L104.46046874999999,99.03797634442647L104.52234375,71.56683234373729L104.70796874999999,78.4640265305837L104.94,125.00421830018361L105.01734375,135.06340064605078L105.373125,93.46897133191428L105.91453125,108.48147698243459L106.0846875,83.48384428024292L106.363125,66.38337202866873L106.4559375,184.77270183960596L106.51781249999999,24.197291612625108L106.54875,71.91638974348703L106.6725,238.67027390003207L106.8271875,52.49790179729462L106.90453124999999,102.31012431780498L106.92,7.760884642601L106.99734375,120.37618734439214L107.01281250000001,51.269293109575905L107.33765625000001,38.66324750582376L107.83265625,176.21144680182138L107.87906249999999,109.39833251635233L107.92546875000001,235.75202055772147L108.03375,99.68076574802399L108.35859375,107.99617596467336L108.42046875,100.06906517346701L108.45140625,165.51395881175995L108.6834375,151.46036225557327L108.9,93.53010284900665L109.0546875,178.66127916177112L109.44140625,11.599861860275261L109.580625,143.1676931977272L109.6425,96.36489379405975L109.76625,103.22955874602L110.2303125,125.43281294902165L110.80265625,142.3738333384196L110.8490625,68.8722980817159L111.00375,230.94414103031158L111.22031249999999,62.05815601348878L111.82359374999999,159.16885314385095L111.931875,73.24692336718242L112.04015625000001,119.1529415845871L112.24125,23.598460634549458L112.41140625,56.65068356196086L112.51968749999999,24.406182050704942L112.56609375000001,168.59157609939575L112.59703125,153.42146484057108L112.65890624999999,110.24022428194681L112.90640625,175.00889080762863L113.4478125,138.5580954750379L113.6953125,173.54900219043097L113.98921875,105.23564545313518L114.1284375,159.19616597890854L114.159375,123.27395606040956L114.26765625,179.10065827767056L114.29859375,128.78156580527622L114.46875,80.00532615184784L114.62343750000001,139.04184329509735L114.91734375,191.16000759601593L115.6753125,157.98675247033438L115.9228125,16.3286162217458L115.96921875,172.33281908432645L116.24765624999999,24.48606916268667L116.49515625,114.92050715287526L116.52609375,-66.66196060180664L116.58796875,109.85397624969481L116.68078125000001,20.04884707927703L116.758125,121.9327844977379L116.95921875,31.23925554752349L117.93375,199.9009060660998L118.07296875,102.82666512330373L118.18125,99.60515725612639L118.32046875,-6.04663264751433L118.49062500000001,94.0413686434428L118.84640625,189.3477482398351L119.109375,192.44626043240228L119.233125,167.78033800919852L119.61984375,118.91049621502557L120.0065625,109.49246215820314L120.285,76.47364763418834L120.51703125,75.75243639945984L120.76453125,111.92412503560385L120.78,160.94163783391318L121.0584375,105.65389521916707L121.213125,112.74005202452341L121.4915625,170.60352392991385L121.6153125,22.000542561213166L122.0484375,-56.600287278493234L122.17218749999999,50.385025421778366L122.38874999999999,128.06806194782257L122.450625,141.85969559351602L122.77546875,148.51787316799164L123.39421875,135.35168000062308L123.47156249999999,134.69948349396387L123.53343749999999,177.22685712575912L124.430625,151.25003584225973L124.63171875,117.68179961045584L124.74000000000001,77.75277920564015L124.97203124999999,203.48615525166193L124.9875,-8.014739274978625L125.12671875,128.21385739247003L125.32781250000001,141.89374872048697L125.46703125,69.03418231010437L125.5134375,80.74945437908173L125.52890624999999,201.36615761121115L125.66812499999999,71.44251791636148L125.7609375,18.323449571927387L125.99296875,142.4291916489601L126.03937499999999,38.91129024823506L126.05484375,110.19849308331807L126.20953125,107.07363514105478L126.34875,136.29121808211008L126.36421874999999,-44.05560763676963L126.56531249999999,58.052429835001625L126.67359375,39.889394521713264L126.76640625,96.97826035817464L127.215,67.96593395868936L127.33874999999999,117.95041489601137L127.41609375,181.1308635075887L127.81828125,219.6820803284645L128.08125,126.12111397584279L128.15859375,107.28762475649516L128.4215625,45.1009882291158L128.87015625,106.34961056709291L128.97843749999998,122.3289671341578L129.47343750000002,185.9820860425631L129.50437499999998,68.5451887845993L129.8446875,111.92195641994476L130.38609375000001,116.33227594693501L130.494375,94.60720149676004L130.5253125,190.25337972243625L130.75734375,104.38707200686136L130.88109375,118.04697690407434L130.8965625,113.16615569591521L130.94296875,144.8358275294304L130.97390625,-0.6681141455968396L131.22140625,165.9492351412773L131.236875,-12.415974060694385L131.360625,200.23578135172528L131.43796875,107.69210088253023L131.4534375,167.1510584950447L132.2578125,126.27766458193462L132.67546875,284.34498288234073L133.20140625,122.83844528595607L133.4953125,37.33582027753193L133.60359375,159.52626444896063L134.11406250000002,207.88211502631506L134.1759375,109.10146661599478L134.26875,194.56033833821616L134.53171875,95.20275024573007L134.76375,135.55676070849103L135.30515625,189.6605563958486L135.568125,36.19190482298532L135.63,153.83675473928452L135.80015625,193.18537739912668L135.98578125,175.0546661814054L136.10953125,121.6769171555837L136.31062500000002,97.66389457384746L136.32609375,134.81494762500128L137.08406250000002,160.73884296417236L137.09953124999998,145.8393690784772L137.23875,152.4781756401062L137.31609375,146.32469940185547L137.43984375,193.22552609443665L137.48624999999998,129.29180590311685L137.53265625,67.1592675447464L137.548125,99.8266491095225L138.105,138.0555334488551L138.24421875,112.68062023321788L138.33703125,200.6983412106832L138.39890624999998,72.28481996059418L138.52265625,73.86492021878561L138.95578125,142.50084388256073L138.98671875,134.3822501897812L139.0021875,212.01461730400723L139.11046875,98.88330129782359L139.40437500000002,45.28555500507354L139.528125,192.63460763295492L139.71375,21.104494015375774L139.8375,107.33720986048381L140.08499999999998,131.7998978296916L140.10046875,122.47476257880528L140.146875,63.91472546259561L140.30156250000002,66.08328251043955L140.81203125,118.47480960687001L140.8584375,79.16267244021097L140.95125000000002,79.93223794301352L140.98218749999998,151.28151007493338L141.508125,101.58217279116313L141.94125,237.26419039567313L142.17328125,137.49060906966525L142.3434375,152.6256121993065L142.45171875,98.22896548112233L142.5909375,76.67017110188803L143.2096875,46.11918258666993L143.44171875,121.1701937317848L143.62734375000002,116.94769390424092L143.6428125,-4.088138262430823L143.735625,265.1237803498904L143.7975,138.09102255105972L143.8284375,119.25014831622441L144.02953125,157.58438634872437L144.045,80.51348555088043L144.27703125,169.16031020879745L144.41625000000002,56.3107970158259L144.80296875000002,43.6935566663742L145.29796875000002,177.98317648967105L145.90125,101.72196058432262L146.14874999999998,42.072018265724175L146.41171875,94.29878918329875L146.47359375000002,178.85660109917322L146.58187500000003,183.86431562900543L146.92218749999998,94.92381938298544L147.01500000000001,164.8928555647532L147.18515625,132.87758258978528L147.20062499999997,-78.40771051247914L147.46359375,189.78999930620193L147.6028125,116.21253319581349L148.005,95.17995047569273L148.14421875,129.1844301223755L148.45359375,27.153700868288666L148.56187500000001,23.072248975435887L148.62375,110.08654562632243L148.70109374999998,130.43847608566284L148.88671875,130.91958640019098L149.056875,127.8816489179929L149.28890625,135.15879042943317L149.61375,121.6137342453003L149.8303125,40.64846861362458L150.06234375,224.45285894473392L150.1396875,107.28422530492148L150.26343749999998,159.94510032733282L150.3253125,100.01490839322408L150.43359375,115.06814885139467L150.49546875,175.63863921165466L150.8821875,154.89940571784973L150.99046875,234.6699399550756L151.33078125,92.13116991519928L152.59921874999998,81.22555343310037L152.93953125,121.37782402833302L153.2334375,129.46558821201324L153.31078125000002,175.32679814100266L153.511875,168.49961507320404L153.55828125,124.1807304620743L153.77484375,7.940469463666284L153.92953125,63.49102485179901L153.96046875000002,115.3153124252955L153.97593750000001,69.75047020117441L154.05328125,60.398930589358L154.23890625,135.86520232756934L154.625625,25.339741786321003L154.65656249999998,44.426372925440475L154.73390625,159.2495901187261L155.4609375,34.676335533459984L155.56921875,89.62682910760243L155.81671874999998,86.01116069157919L156.09515624999997,155.7678190668424L156.54375,107.59187567234041L156.83765625,101.64916543165843L156.853125,106.28584154446919L156.93046875,219.3208006819089L156.99234375,158.73304931322735L157.08515625,136.7312712272008L157.5028125,175.49454349279404L158.02875,146.64676813284555L158.6784375,47.965670903523765L159.01875,199.52391860882443L159.2971875,86.23364893595377L159.31265625,144.2025038401286L159.4209375,173.5830846230189L159.52921875,134.15269929170609L159.699375,95.67216761906941L160.02421875000002,-39.22369750340781L160.24078125,62.696549574534096L160.6584375,135.28565444548923L160.7821875,175.5228527188301L160.87499999999997,107.95467921098074L161.23078125,-44.36993968486787L161.4628125,103.86332201957703L161.63296875,127.34594223896663L161.75671875,134.18537505467734L162.298125,115.40363955497743L162.54562499999997,70.77710457642873L163.02515625,64.22272749741873L163.11796875,-44.136608362197876L163.1334375,107.10036186377208L163.24171875,106.95242710908255L163.3190625,179.07155779997507L163.3809375,204.46994481484094L163.411875,50.683004935582474L164.773125,115.28536208470663L164.92781250000002,61.17066470781961L165.639375,93.85111657778423L165.8559375,72.40520743529001L166.0725,-33.08991463979087L166.258125,32.41206634044648L166.815,139.9798281788826L166.83046875,142.2871180176735L166.86140625000002,100.09303716818492L166.9696875,126.41261694828668L166.98515625000002,63.44677337010702L167.01609375,175.82596071561179L167.1553125,64.19418382644653L167.51109375,103.31683087348938L167.5575,81.51052125295004L167.86687500000002,144.04941129684448L168.25359375,181.95039508740106L168.82593749999998,-136.0796995162964L168.8878125,122.06779547532399L169.21265625,146.5601993401845L169.3209375,128.60250848531723L169.5065625,95.85204549630483L169.52203125,133.4566322763761L169.55296875,37.483227531115205L169.81593750000002,133.41352371374768L169.84687499999998,71.62063745657603L169.8778125,140.85017569859824L169.92421875,217.51566259066266L170.01703125,118.712126493454L170.28,83.33667147159576L170.35734375,75.22259084383646L170.51203125,13.941849549611414L170.63578125,-18.633043487866725L170.77499999999998,120.60890324910483L170.91421875,160.04488595326742L171.19265625,95.79003481070201L171.25453125,54.540444691975914L171.455625,74.4177413781484L172.58484375,210.17536747455597L172.67765624999998,83.75755874315897L172.87875000000003,132.02851094802222L172.95609375,157.80825195709863L173.04890625000002,98.06913264592488L173.17265625,108.45738776524863L173.18812499999999,124.95870667695998L173.21906249999998,170.6684065659841L173.7759375,42.78619615236917L173.82234375000002,161.05566598971683L174.5184375,132.8661827047666L175.33828125,151.7720274925232L175.77140625,182.88377898931503L175.80234375,-5.114127914110815L175.89515624999999,78.89997688929239L175.9415625,96.94584834575654L176.11171875,155.87651360034943L176.1271875,72.52647407849629L176.65312500000002,88.02609769503275L176.776875,127.92997388044992L177.16359375000002,64.44668102264404L177.7978125,-25.579471111297593L178.014375,101.9892864227295L178.4165625,167.26605373620987L178.43203125000002,71.95114620526633L178.46296875,168.13121416171393L178.61765624999998,124.06342007716496L178.64859375,209.30229453245798L178.98890625,167.2795636256536L179.05078125,18.891275207201634L179.1590625,187.86851791540784L179.49937500000001,128.9148477514585L179.6540625,164.91867381334305L179.66953124999998,183.49380471309027L180.07171875,76.54351222515106L180.10265625000002,117.01005625724791L180.75234375,-15.874154090881348L180.76781250000002,110.14316407839456L180.90703125,112.75962817668915L181.44843749999998,62.485666354497276L182.33015625000002,131.07543367147446L182.51578125,57.60206111272176L182.88703125,91.40444922447206L182.9334375,173.72184671958289L182.964375,72.17375167210898L183.01078124999998,82.62126274903615L183.16546875,143.0281105438868L183.24281249999999,218.7853577534358L183.25828125,125.77621616919835L183.38203125,31.663776715596523L183.62953124999999,27.05060370763142L183.76875,152.16674484809238L183.84609375,106.7493391831716L184.03171875,15.554127375284834L184.27921875,129.29435549179712L184.31015625,29.841143170992527L184.51125,-12.584364136060096L184.68140624999998,126.5061897834142L184.71234375,157.66588526964188L184.8515625,140.39549905061722L184.89796875,98.62974909941356L185.14546875,146.21600486834842L185.57859374999998,159.20419571797052L185.6559375,120.53361711899439L185.7178125,75.5184017419815L186.2746875,109.20509127775829L186.32109375000002,87.29545005162556L186.38296875,85.89821684360504L186.73874999999998,278.4667156934738L186.83156250000002,161.00845464070636L187.31109375,-92.570294658343L187.65140625,115.58152465025584L187.6978125,118.57222147782645L187.71328125,120.17940012613931L187.8834375,-3.8821197748184337L188.1309375,150.89898385604224L188.36296875,64.21229469776154L189.01265625,106.90161116917928L189.32203125,222.4100229938825L189.53859375,199.83570106824237L189.646875,77.11280314127603L189.81703125,-33.32729013760886L189.89437500000003,-49.96168585618336L189.90984375,80.92810142040253L190.32750000000001,144.00410481293997L190.389375,60.272916436195366L190.55953125000002,133.9616266687711L190.62140624999998,-4.95781175295514L191.5340625,42.04452959696451L191.54953125,-18.505915721257534L191.565,46.408018747965485L191.68875,176.3565096060435L191.85890625,94.99890037377675L192.245625,148.434088408947L192.988125,46.362067540486656L193.1428125,161.30798735221228L193.235625,211.0356631676356L193.46765625,125.82603571812311L193.9471875,59.10297759373982L193.99359375,189.62468632062277L194.16375000000002,108.09200533231099L194.2565625,181.67474645376205L194.30296875,59.581831375757844L194.3184375,71.94212007522583L194.39578125,109.20825628439586L195.24656249999998,106.69453767935435L195.50953125,142.14522022008896L195.63328124999998,175.3047310113907L195.78796875,260.41653631130856L195.81890625,80.26233641306558L195.89625,86.50038866202037L196.00453125,128.68180948495865L196.14374999999998,33.259467562039696L196.28296875,231.4672169884046L196.43765625,225.9050108790398L196.77796875,157.03880367676416L196.88625000000002,146.5725663105647L197.11828125000002,162.65660254160565L197.21109375,72.69732582569122L197.2575,119.75821979840596L197.39671875000002,154.06457660595575L197.7525,-44.97199428081511L197.78343750000002,127.34811085462572L198.07734374999998,133.74608385562897L198.2784375,23.47977288564046L198.46406249999998,136.79205107688904L198.51046875,86.61784557501474L198.66515625,59.40089849630991L198.7115625,-42.06499429543812L198.74249999999998,30.417877713839204L199.23749999999998,188.876777668794L199.50046875,138.83222021659216L199.51593749999998,137.73302513360977L199.8871875,83.16558527946472L199.90265625,72.58537836869557L200.13468749999998,161.60338797171912L200.30484375,141.0009824037552L200.58328125,69.87413990497589L200.97,76.99856984615326L201.00093750000002,86.39289565881093L201.155625,115.0720758040746L201.46499999999997,158.50540328025818L201.650625,76.85274509588876L201.88265625,56.68327140808105L201.94453125,105.38645215829213L202.19203124999999,176.633154630661L202.40859375,125.91729340950647L203.011875,177.05327995618185L203.259375,28.561952988306675L203.32125,105.19057341416678L203.64609375,220.4511476357778L204.249375,93.28399427731831L204.45046875,104.4263415336609L204.54328125,235.9828315973282L204.60515625,20.658872803052258L204.80624999999998,171.32872072855633L205.115625,132.47369257609049L205.56421875,46.90779674053193L205.7034375,160.07674115896225L206.12109375,140.31323818365735L206.53875,88.26247680187225L206.6315625,35.021379868189484L206.89453125,239.46595070759454L206.91,188.74329058329263L207.219375,123.29086540142694L207.35859374999998,240.8841374317805L207.38953125,232.50179318586984L207.54421875,172.25020654996237L207.63703124999998,137.76830909649533L207.72984375000001,147.68099266290665L207.94640625,205.2131938735644L208.11656250000001,85.37300157546997L208.395,35.840530474980675L208.68890625,74.11876547336578L209.1375,40.06640044848123L209.97281249999997,9.826813419659937L210.189375,209.01375142733255L210.4678125,31.331978519757595L210.57609375,229.98672652244568L210.63796875,122.63635375102362L211.44234375,86.18019549051921L211.64343749999998,41.30919305483499L212.18484375,62.497623046239205L212.24671875,87.68984504540761L212.49421875,136.2230825225512L212.61796875000002,186.52248162031174L213.00468750000002,189.5935930609703L213.36046875,59.044483582178756L213.5615625,25.786652445793138L213.57703125,-46.586323499679565L213.6234375,110.99003779888154L213.84,77.0125193198522L213.8709375,110.8326666355133L213.9946875,202.65789059797922L214.10296875,145.6148001352946L214.22671875,138.72584082682928L214.5515625,168.11996080478033L214.86093749999998,26.553287386894226L214.98468749999998,204.25308324893317L215.07750000000001,235.29757835467657L215.55703125,160.97132442394891L215.61890625,14.765923500061028L215.77359375,66.83749186992645L215.9128125,200.29052424430847L216.25312499999998,236.26419482628503L216.315,115.04675575097401L216.68625,170.52856016159058L216.74812500000002,117.36934312184651L217.01109375000001,-24.16236869494121L217.13484375000002,103.27756134668986L217.25859375,18.418751438458767L217.44421875,57.78322843710582L217.8,124.18925839662552L218.79,71.60451936721802L219.285,53.943137605984994L219.36234375,35.42579738299052L219.470625,45.169680595397956L219.54796875,192.2616350452105L219.78,138.30548105637232L219.98109374999999,150.32866724332172L220.16671875,104.98250353336333L221.12578125000002,124.61295900742213L221.46609375,73.60163855552673L221.49703125,179.94243282079697L221.68265625,149.8594257036845L221.89921875000002,139.30213578542075L222.05390624999998,82.99901215235391L222.08484375,163.63734432061514L222.14671875,16.395491639773052L222.23953125,183.88260233402252L222.36328125,149.07895851135254L222.37875,149.15796645482382L222.4715625,127.857706228892L222.48703125,187.72919901212057L222.62625,88.20029028256735L222.79640625000002,22.7278493642807L223.01296875,-32.65783262252809L223.16765625,102.59128240744273L223.26046875,132.67774758736292L223.29140625,141.42679301897687L223.56984375000002,133.21919816732407L223.87921874999998,232.74092702070874L224.0184375,25.526125510533642L224.11124999999998,134.1824737985929L224.173125,23.384412407875047L225.1940625,136.74486903349558L225.30234375,114.20908399422963L225.54984374999998,-5.113014300664258L226.16859374999999,105.12094326814017L226.771875,23.474439263343804L227.14312500000003,127.54185028870901L227.15859375,-33.27647419770559L227.2978125,119.44491344690323L227.4525,35.20067163308462L227.65359375,190.17489928007126L227.90109375,93.34747024377187L228.31875,26.65585704644521L228.38062499999998,-52.46344776948295L228.4425,175.76699781417847L228.5353125,118.52542040745416L228.58171875000002,179.35154366493225L228.82921875,57.01817599932352L228.89109374999998,18.43258368968963L229.06125,-22.51908552646637L229.4015625,92.59683616956075L230.15953125,133.11762489875156L230.175,82.66703812281291L230.3296875,79.71947916348775L230.360625,109.60581628481548L230.5771875,81.61051201820374L230.87109375000003,77.47672029336294L231.30421875000002,178.01368363698325L231.33515624999998,124.42976959546407L231.4434375,168.15641699234644L231.474375,146.794497748216L231.5053125,228.76550285021463L231.58265625,134.95467680692673L231.7528125,42.371052781740815L231.98484375,214.13106896479925L232.01578125,80.67038782437642L232.0621875,203.89845597743988L232.20140625000002,101.97557139396669L232.30968750000002,140.66543308893839L232.340625,-32.030926863352455L232.49531249999998,146.35400501887003L234.073125,143.24552891651788L234.61453125,-33.04929705460868L235.14046875,99.57549997170766L235.5890625,91.70254596074422L235.66640625,152.61599995692572L235.80562500000002,188.19105553627014L235.8984375,55.35209306081135L236.20781250000002,50.70088136196136L236.22328124999999,162.70319847265878L236.8265625,67.92279609044392L237.05859375,107.52171802520753L237.2596875,79.4381452401479L237.27515624999998,81.78118793169656L237.5690625,42.96261596679688L237.8784375,67.84560509522757L238.3115625,197.62462157011032L238.32703124999998,118.10245243708293L238.71374999999998,138.316851635774L238.91484375000002,195.89579530556995L239.47171875,167.4330957531929L240.27609375,172.94873523712158L240.39984375,-84.64124969641367L240.4153125,136.4403543670972L240.69375,119.87711268663408L241.3125,101.22763343652089L241.63734375,116.37723076343536L241.7146875,-17.28439899285636L242.16328124999998,106.1716082493464L242.5809375,97.0709247191747L243.10687499999997,12.002872705459588L243.18421874999999,62.62041358153026L244.23609375,88.11706233024597L244.31343750000002,44.142049829165146L244.49906249999998,133.00960439443588L244.57640625,126.38685731093089L244.62281249999998,166.8822966814041L244.82390625000002,204.77733143170673L244.8703125,187.55761462450027L244.94765625,142.45161044597626L245.10234375000002,0.2656214237213004L245.25703125,96.27521860599518L245.31890625,257.90003367265064L245.7984375,87.998433192571L246.1078125,65.97995090484619L246.3553125,151.6418519417445L246.77296875000002,64.21698359648386L246.86578125,188.46292374531427L246.92765625,65.6405918598175L247.03593750000002,116.15316001574199L247.2525,27.853694836298615L247.36078125,134.2100503842036L247.57734375,129.82291160027185L248.56734375,105.18424340089163" style="fill: none;" fill="none"></path></g></g></g></g></g></g><g transform="translate(51, 177)" clip-path="url(#clip_1)"><clipPath id="clip_1"><rect width="278" height="23"></rect></clipPath><g><g><line x1="0" y1="0" x2="0" y2="5" style="visibility: inherit;" fill="rgb(0, 0, 0)" stroke="rgb(204, 204, 204)" stroke-width="1px"></line><line x1="30.9375" y1="0" x2="30.9375" y2="5" style="visibility: inherit;" fill="rgb(0, 0, 0)" stroke="rgb(204, 204, 204)" stroke-width="1px"></line><line x1="61.875" y1="0" x2="61.875" y2="5" style="visibility: inherit;" fill="rgb(0, 0, 0)" stroke="rgb(204, 204, 204)" stroke-width="1px"></line><line x1="92.8125" y1="0" x2="92.8125" y2="5" style="visibility: inherit;" fill="rgb(0, 0, 0)" stroke="rgb(204, 204, 204)" stroke-width="1px"></line><line x1="123.75" y1="0" x2="123.75" y2="5" style="visibility: inherit;" fill="rgb(0, 0, 0)" stroke="rgb(204, 204, 204)" stroke-width="1px"></line><line x1="154.6875" y1="0" x2="154.6875" y2="5" style="visibility: inherit;" fill="rgb(0, 0, 0)" stroke="rgb(204, 204, 204)" stroke-width="1px"></line><line x1="185.625" y1="0" x2="185.625" y2="5" style="visibility: inherit;" fill="rgb(0, 0, 0)" stroke="rgb(204, 204, 204)" stroke-width="1px"></line><line x1="216.5625" y1="0" x2="216.5625" y2="5" style="visibility: inherit;" fill="rgb(0, 0, 0)" stroke="rgb(204, 204, 204)" stroke-width="1px"></line><line x1="247.5" y1="0" x2="247.5" y2="5" style="visibility: inherit;" fill="rgb(0, 0, 0)" stroke="rgb(204, 204, 204)" stroke-width="1px"></line><line x1="278.4375" y1="0" x2="278.4375" y2="5" style="visibility: inherit;" fill="rgb(0, 0, 0)" stroke="rgb(204, 204, 204)" stroke-width="1px"></line></g><g transform="translate(0, 8)"><text x="0" y="0" dx="0em" dy="0.95em" style="text-anchor: middle; visibility: hidden; font-family: Roboto, sans-serif; font-size: 12px; font-weight: 200;" fill="rgb(33, 33, 33)" stroke="none" stroke-width="1px">-2k</text><text x="30.9375" y="0" dx="0em" dy="0.95em" style="text-anchor: middle; visibility: inherit; font-family: Roboto, sans-serif; font-size: 12px; font-weight: 200;" fill="rgb(33, 33, 33)" stroke="none" stroke-width="1px">0</text><text x="61.875" y="0" dx="0em" dy="0.95em" style="text-anchor: middle; visibility: inherit; font-family: Roboto, sans-serif; font-size: 12px; font-weight: 200;" fill="rgb(33, 33, 33)" stroke="none" stroke-width="1px">2k</text><text x="92.8125" y="0" dx="0em" dy="0.95em" style="text-anchor: middle; visibility: inherit; font-family: Roboto, sans-serif; font-size: 12px; font-weight: 200;" fill="rgb(33, 33, 33)" stroke="none" stroke-width="1px">4k</text><text x="123.75" y="0" dx="0em" dy="0.95em" style="text-anchor: middle; visibility: inherit; font-family: Roboto, sans-serif; font-size: 12px; font-weight: 200;" fill="rgb(33, 33, 33)" stroke="none" stroke-width="1px">6k</text><text x="154.6875" y="0" dx="0em" dy="0.95em" style="text-anchor: middle; visibility: inherit; font-family: Roboto, sans-serif; font-size: 12px; font-weight: 200;" fill="rgb(33, 33, 33)" stroke="none" stroke-width="1px">8k</text><text x="185.625" y="0" dx="0em" dy="0.95em" style="text-anchor: middle; visibility: inherit; font-family: Roboto, sans-serif; font-size: 12px; font-weight: 200;" fill="rgb(33, 33, 33)" stroke="none" stroke-width="1px">10k</text><text x="216.5625" y="0" dx="0em" dy="0.95em" style="text-anchor: middle; visibility: inherit; font-family: Roboto, sans-serif; font-size: 12px; font-weight: 200;" fill="rgb(33, 33, 33)" stroke="none" stroke-width="1px">12k</text><text x="247.5" y="0" dx="0em" dy="0.95em" style="text-anchor: middle; visibility: inherit; font-family: Roboto, sans-serif; font-size: 12px; font-weight: 200;" fill="rgb(33, 33, 33)" stroke="none" stroke-width="1px">14k</text><text x="278.4375" y="0" dx="0em" dy="0.95em" style="text-anchor: middle; visibility: hidden; font-family: Roboto, sans-serif; font-size: 12px; font-weight: 200;" fill="rgb(33, 33, 33)" stroke="none" stroke-width="1px">16k</text></g><line x1="0" y1="0" x2="278.4375" y2="0" fill="rgb(0, 0, 0)" stroke="rgb(204, 204, 204)" stroke-width="1px"></line></g></g></g></g></svg>