<svg viewBox="0 0 330 200" xmlns="http://www.w3.org/2000/svg"><g><g><g><g><g><line x1="70" y1="177" x2="65" y2="177" style="visibility: inherit;" fill="rgb(0, 0, 0)" stroke="rgb(204, 204, 204)" stroke-width="1px"></line><line x1="70" y1="151.7142857142857" x2="65" y2="151.7142857142857" style="visibility: inherit;" fill="rgb(0, 0, 0)" stroke="rgb(204, 204, 204)" stroke-width="1px"></line><line x1="70" y1="126.42857142857142" x2="65" y2="126.42857142857142" style="visibility: inherit;" fill="rgb(0, 0, 0)" stroke="rgb(204, 204, 204)" stroke-width="1px"></line><line x1="70" y1="101.14285714285714" x2="65" y2="101.14285714285714" style="visibility: inherit;" fill="rgb(0, 0, 0)" stroke="rgb(204, 204, 204)" stroke-width="1px"></line><line x1="70" y1="75.85714285714286" x2="65" y2="75.85714285714286" style="visibility: inherit;" fill="rgb(0, 0, 0)" stroke="rgb(204, 204, 204)" stroke-width="1px"></line><line x1="70" y1="50.57142857142857" x2="65" y2="50.57142857142857" style="visibility: inherit;" fill="rgb(0, 0, 0)" stroke="rgb(204, 204, 204)" stroke-width="1px"></line><line x1="70" y1="25.285714285714274" x2="65" y2="25.285714285714274" style="visibility: inherit;" fill="rgb(0, 0, 0)" stroke="rgb(204, 204, 204)" stroke-width="1px"></line></g><g transform="translate(60, 0)"><text x="0" y="177" dx="0em" dy="0.3em" style="text-anchor: end; visibility: hidden; font-family: Roboto, sans-serif; font-size: 12px; font-weight: 200;" fill="rgb(33, 33, 33)" stroke="none" stroke-width="1px">-5e-5</text><text x="0" y="151.7142857142857" dx="0em" dy="0.3em" style="text-anchor: end; visibility: inherit; font-family: Roboto, sans-serif; font-size: 12px; font-weight: 200;" fill="rgb(33, 33, 33)" stroke="none" stroke-width="1px">0</text><text x="0" y="126.42857142857142" dx="0em" dy="0.3em" style="text-anchor: end; visibility: inherit; font-family: Roboto, sans-serif; font-size: 12px; font-weight: 200;" fill="rgb(33, 33, 33)" stroke="none" stroke-width="1px">5e-5</text><text x="0" y="101.14285714285714" dx="0em" dy="0.3em" style="text-anchor: end; visibility: inherit; font-family: Roboto, sans-serif; font-size: 12px; font-weight: 200;" fill="rgb(33, 33, 33)" stroke="none" stroke-width="1px">1e-4</text><text x="0" y="75.85714285714286" dx="0em" dy="0.3em" style="text-anchor: end; visibility: inherit; font-family: Roboto, sans-serif; font-size: 12px; font-weight: 200;" fill="rgb(33, 33, 33)" stroke="none" stroke-width="1px">1.5e-4</text><text x="0" y="50.57142857142857" dx="0em" dy="0.3em" style="text-anchor: end; visibility: inherit; font-family: Roboto, sans-serif; font-size: 12px; font-weight: 200;" fill="rgb(33, 33, 33)" stroke="none" stroke-width="1px">2e-4</text><text x="0" y="25.285714285714274" dx="0em" dy="0.3em" style="text-anchor: end; visibility: inherit; font-family: Roboto, sans-serif; font-size: 12px; font-weight: 200;" fill="rgb(33, 33, 33)" stroke="none" stroke-width="1px">2.5e-4</text></g><line x1="70" y1="0" x2="70" y2="177" fill="rgb(0, 0, 0)" stroke="rgb(204, 204, 204)" stroke-width="1px"></line></g></g><g transform="translate(70, 0)" clip-path="url(#clip_0)"><clipPath id="clip_0"><rect width="260" height="177"></rect></clipPath><g><g><g><line x1="0" y1="0" x2="0" y2="177" fill="rgb(0, 0, 0)" stroke="rgb(66, 66, 66)" stroke-width="1px" opacity="0.25"></line><line x1="28.888888888888886" y1="0" x2="28.888888888888886" y2="177" fill="rgb(0, 0, 0)" stroke="rgb(66, 66, 66)" stroke-width="1px" opacity="0.25"></line><line x1="57.77777777777777" y1="0" x2="57.77777777777777" y2="177" fill="rgb(0, 0, 0)" stroke="rgb(66, 66, 66)" stroke-width="1px" opacity="0.25"></line><line x1="86.66666666666666" y1="0" x2="86.66666666666666" y2="177" fill="rgb(0, 0, 0)" stroke="rgb(66, 66, 66)" stroke-width="1px" opacity="0.25"></line><line x1="115.55555555555554" y1="0" x2="115.55555555555554" y2="177" fill="rgb(0, 0, 0)" stroke="rgb(66, 66, 66)" stroke-width="1px" opacity="0.25"></line><line x1="144.44444444444446" y1="0" x2="144.44444444444446" y2="177" fill="rgb(0, 0, 0)" stroke="rgb(66, 66, 66)" stroke-width="1px" opacity="0.25"></line><line x1="173.33333333333331" y1="0" x2="173.33333333333331" y2="177" fill="rgb(0, 0, 0)" stroke="rgb(66, 66, 66)" stroke-width="1px" opacity="0.25"></line><line x1="202.22222222222223" y1="0" x2="202.22222222222223" y2="177" fill="rgb(0, 0, 0)" stroke="rgb(66, 66, 66)" stroke-width="1px" opacity="0.25"></line><line x1="231.1111111111111" y1="0" x2="231.1111111111111" y2="177" fill="rgb(0, 0, 0)" stroke="rgb(66, 66, 66)" stroke-width="1px" opacity="0.25"></line><line x1="260" y1="0" x2="260" y2="177" fill="rgb(0, 0, 0)" stroke="rgb(66, 66, 66)" stroke-width="1px" opacity="0.25"></line></g><g><line x1="0" y1="177" x2="260" y2="177" fill="rgb(0, 0, 0)" stroke="rgb(66, 66, 66)" stroke-width="1px" opacity="0.25"></line><line x1="0" y1="151.7142857142857" x2="260" y2="151.7142857142857" fill="rgb(0, 0, 0)" stroke="rgb(66, 66, 66)" stroke-width="1px" opacity="0.25"></line><line x1="0" y1="126.42857142857142" x2="260" y2="126.42857142857142" fill="rgb(0, 0, 0)" stroke="rgb(66, 66, 66)" stroke-width="1px" opacity="0.25"></line><line x1="0" y1="101.14285714285714" x2="260" y2="101.14285714285714" fill="rgb(0, 0, 0)" stroke="rgb(66, 66, 66)" stroke-width="1px" opacity="0.25"></line><line x1="0" y1="75.85714285714286" x2="260" y2="75.85714285714286" fill="rgb(0, 0, 0)" stroke="rgb(66, 66, 66)" stroke-width="1px" opacity="0.25"></line><line x1="0" y1="50.57142857142857" x2="260" y2="50.57142857142857" fill="rgb(0, 0, 0)" stroke="rgb(66, 66, 66)" stroke-width="1px" opacity="0.25"></line><line x1="0" y1="25.285714285714274" x2="260" y2="25.285714285714274" fill="rgb(0, 0, 0)" stroke="rgb(66, 66, 66)" stroke-width="1px" opacity="0.25"></line></g></g></g><g><g><line x1="0" y1="151.7142857142857" x2="260" y2="151.7142857142857" fill="rgb(0, 0, 0)" stroke="rgb(153, 153, 153)" stroke-width="1.5px"></line></g></g><g><g><line x1="28.888888888888886" y1="0" x2="28.888888888888886" y2="177" fill="rgb(0, 0, 0)" stroke="rgb(153, 153, 153)" stroke-width="1.5px"></line></g></g><g><g><g><g><g><path stroke="rgb(255, 112, 67)" stroke-width="2px" d="M37.00666666666667,-0.928271892558957L37.41111111111111,7.089439220015818L37.46888888888889,11.900065887491523L37.49777777777778,14.786441887952034L37.974444444444444,16.518267488219394L38.089999999999996,17.5573628483766L38.17666666666667,18.18082006446976L38.19111111111111,18.55489439412522L38.39333333333333,18.77933899191837L38.52333333333333,18.914005750594193L38.638888888888886,18.994805805799686L39.303333333333335,19.043285838922987L39.36111111111111,19.072373858796944L39.92444444444445,19.08982667072131L40.083333333333336,19.10029835787593L40.184444444444445,19.106581370168705L40.27111111111111,19.110351177544363L40.502222222222215,19.112613061969796L40.906666666666666,19.11397019262503L41.26777777777777,19.114784471018165L41.397777777777776,19.115273038054024L41.68666666666667,19.115566178275596L42.495555555555555,19.115742062408493L43.318888888888885,66.85122825654118L43.391111111111115,95.49251997302075L43.550000000000004,112.67729500290851L43.65111111111111,122.98816002084118L43.708888888888886,129.17467903160076L43.73777777777778,132.88659043805652L43.867777777777775,135.11373728192999L44.14222222222222,136.45002538825403L44.358888888888885,137.25179825204847L44.44555555555556,137.73286197032513L44.748888888888885,138.02150020129113L44.90777777777778,138.19468313987073L44.93666666666667,138.2985929030185L45.138888888888886,138.36093876090717L45.239999999999995,138.39834627564034L45.51444444444444,138.4207907844803L45.528888888888886,138.43425748978422L45.702222222222225,138.4423375129666L45.84666666666667,138.447185526876L45.87555555555555,138.45009433522168L45.99111111111112,138.45183962022907L46.12111111111111,138.45288679123348L46.48222222222223,138.45351509383616L46.583333333333336,138.45389207539776L46.88666666666667,138.4541182643347L46.973333333333336,138.45425397769688L47.00222222222222,138.45433540571418L47.04555555555555,138.45438426252457L47.10333333333333,138.45441357661082L47.19,138.45443116506252L47.24777777777778,138.45444171813358L47.32,138.4544480499762L47.63777777777778,138.45445184908178L48.02777777777778,138.4544541285451L48.31666666666666,138.45445549622312L48.59111111111111,138.45445631682992L48.75,138.454456809194L48.76444444444444,138.45445710461246L49.35666666666666,138.45445728186354L49.67444444444445,138.45445738821417L49.934444444444445,138.45445745202457L49.94888888888889,138.45445749031077L50.46888888888889,138.45445751328253L50.58444444444444,143.2279956486242L50.7,146.0921185298292L50.74333333333333,147.8105922585522L51.248888888888885,148.841676495786L51.29222222222222,149.46032703812628L51.49444444444445,149.83151736353045L51.53777777777778,150.05423155877295L51.61,150.18786007591845L51.78333333333333,150.26803718620576L51.94222222222222,150.31614345237813L52.39,150.34500721208155L52.50555555555556,150.36232546790362L53.01111111111111,150.37271642139686L53.227777777777774,150.3789509934928L53.47333333333333,150.38269173675036L53.50222222222222,150.3849361827049L53.54555555555556,150.3862828502776L53.60333333333333,150.38709085082124L54.52777777777778,150.38757565114744L54.55666666666667,150.38786653134315L54.73,150.38804105946056L54.77333333333333,150.38814577633102L55.56777777777778,150.3882086064533L55.62555555555555,150.38824630452666L55.75555555555555,150.38826892337067L55.85666666666666,150.3882824946771L56.31888888888889,150.38829063746095L56.36222222222223,150.38829552313123L56.44888888888889,150.38829845453344L56.46333333333334,150.38830021337475L56.68,150.38830126867953L56.85333333333334,150.3883019018624L56.91111111111111,150.38830228177213L56.983333333333334,150.38830250971796L57.01222222222222,150.38830264648544L57.2,150.38830272854597L57.214444444444446,150.38830277778226L57.474444444444444,150.38830280732404L58.78888888888889,150.8656566579025L58.918888888888894,151.15206896824952L59.06333333333333,151.32391635445777L59.22222222222222,151.4270247861827L59.43888888888888,151.48888984521767L59.49666666666667,151.52600888063867L59.785555555555554,151.54828030189123L60.580000000000005,151.56164315464278L60.79666666666667,151.5696608662937L60.88333333333333,151.57447149328428L61.23,151.57735786947862L61.30222222222222,151.57908969519522L62.385555555555555,151.58012879062517L62.717777777777776,151.58075224788314L62.96333333333333,151.58112632223796L63.46888888888889,151.58135076685082L64.07555555555555,151.58148543361852L64.14777777777778,151.58156623367918L64.33555555555556,151.58161471371554L64.4511111111111,151.58164380173736L64.49444444444444,151.58166125455045L64.78333333333333,151.58167172623834L64.97111111111111,151.58167800925105L65.04333333333332,151.62941715975683L65.24555555555557,151.6580606500603L65.27444444444444,151.67524674424237L65.43333333333332,151.68555840075163L65.95333333333333,151.69174539465718L66.11222222222221,151.6954575910005L66.12666666666668,151.6976849088065L66.43,151.6990212994901L66.83444444444444,151.69982313390025L66.95,151.70030423454637L67.06555555555555,151.700592894934L67.45555555555555,151.7007660911666L67.51333333333334,151.70087000890615L67.61444444444444,151.70093235954988L67.65777777777778,151.70096976993614L67.78777777777778,151.7009922161679L68.00444444444445,151.7010056839069L68.07666666666665,151.70101376455034L68.13444444444444,151.7010186129364L68.30777777777779,151.70102152196804L68.38000000000001,151.701023267387L68.45222222222222,151.7010243146384L68.46666666666665,151.70102494298922L68.65444444444444,151.70102531999973L68.66888888888889,151.70102554620604L68.68333333333334,151.70102568192982L68.82777777777778,151.70102576336407L68.87111111111112,151.70102581222466L69.01555555555555,151.701025841541L69.11666666666666,151.7010258591308L69.50666666666666,151.70102586968466L69.82444444444444,151.70102587601698L69.9688888888889,151.7010258798164L70.21444444444444,151.70102588209602L70.22888888888889,151.7010258834638L71.08111111111111,151.7010258842845L71.52888888888889,151.7010258847769L71.57222222222222,151.7010258850723L71.67333333333333,151.7010258852496L71.71666666666667,151.70102588535596L71.83222222222223,151.70102588541977L72.49666666666667,151.7057994238333L72.71333333333334,151.7086635468814L72.90111111111112,151.7103820207103L73.42111111111112,151.71141310500764L73.43555555555555,151.71203175558603L73.71,151.71240294593306L73.72444444444444,151.71262566014127L73.73888888888888,151.7127592886662L73.94111111111111,151.71283946578117L73.95555555555555,151.71288757205014L73.97,151.71291643581154L74.07111111111112,151.71293375406836L74.31666666666666,151.71294414502245L74.72111111111111,151.7129503795949L74.99555555555555,151.7129541203384L75.09666666666666,151.71295636478447L75.16888888888889,151.71295771145213L75.35666666666667,151.71295851945274L75.39999999999999,151.7129590042531L75.53,151.7129592951333L75.70333333333333,151.7129594696614L76.05,151.7129595743783L76.09333333333333,151.7129596372084L76.64222222222223,151.7129596749065L77.13333333333334,151.71295969752535L77.36444444444444,151.71295971109663L77.62444444444445,151.71295971923942L77.78333333333335,151.7129597241251L77.89888888888889,151.7129597270565L78.05777777777777,151.71295972881535L78.25999999999999,151.71295972987065L78.88111111111111,151.71295973050383L79.19888888888889,151.71295973088374L79.21333333333332,151.71295973111168L79.31444444444445,151.71295973124845L79.34333333333333,151.71295973133053L79.44444444444446,151.71343708519595L79.82,151.7137234975152L80.39777777777778,151.71389534490675L80.44111111111111,151.71399845334167L80.54222222222222,151.71406031840263L80.71555555555557,151.7140974374392L80.88888888888889,151.71411970886115L81.07666666666667,151.71413307171431L81.0911111111111,151.71414108942622L81.12,151.71414590005338L81.32222222222222,151.71414878642966L81.66888888888889,151.71415051825542L81.71222222222222,151.71415155735087L81.74111111111111,151.71415218080816L81.77,151.71415255488253L81.81333333333333,151.71415277932715L81.8711111111111,151.71415291399393L81.91444444444444,151.71415299479398L82.1888888888889,151.71415304327402L82.50666666666667,151.71415307236205L82.5788888888889,151.71415308981486L83.02666666666667,151.71415310028652L83.11333333333333,151.71415310656957L83.21444444444444,151.71415311033937L83.24333333333333,151.71415311260125L83.51777777777778,151.7141531139584L83.63333333333333,151.71415311477267L84.47111111111111,151.7141531152612L84.5,151.71415311555438L84.64444444444445,151.71415311573026L84.77444444444444,151.71415311583579L85.25111111111111,151.7141531158991L85.38111111111111,151.7141531159371L85.4388888888889,151.7141531159599L85.52555555555556,151.71415311597357L85.69888888888889,151.71415311598176L85.74222222222222,151.7141531159867L86.17555555555555,151.71415311598966L86.30555555555556,151.71415311599142L86.39222222222223,151.71415311599247L86.84,151.7142008513783L86.86888888888889,151.71422949260983L86.9988888888889,151.7142466773487L87.15777777777777,151.71425698819206L87.24444444444444,151.71426317469806L87.34555555555555,151.71426688660168L87.88000000000001,151.71426911374382L88.24111111111111,151.71427045002912L88.32777777777777,151.7142712518003L88.41444444444444,151.714271732863L88.45777777777778,151.71427202150065L88.77555555555556,151.71427219468322L89.28111111111112,151.71427229859276L89.44,151.71427236093848L89.94555555555556,151.7142723983459L90.26333333333334,151.71427242079037L90.30666666666667,151.71427243425705L90.37888888888888,151.71427244233706L91.25999999999999,151.71427244718507L91.33222222222223,151.71427245009386L91.40444444444445,151.71427245183915L91.49111111111111,151.71427245288632L92.37222222222223,151.71427245351464L92.76222222222223,151.7142724538916L92.95,151.7142724541178L93.06555555555556,151.7142724542535L93.22444444444444,151.71427245433495L93.39777777777778,151.71427245438377L93.72999999999999,151.7142724544131L93.81666666666666,151.7142724544307L94.25,151.71427722797955L94.39444444444445,151.71428009210885L94.45222222222222,151.71428181058644L94.81333333333333,151.714282841673L94.8711111111111,151.71428346032494L94.95777777777778,151.7142838315161L95.46333333333332,151.71428405423077L95.50666666666667,151.7142841878596L96.0411111111111,151.7142842680369L96.18555555555557,151.71428431614328L96.46,151.7142843450071L96.57555555555557,151.71428436232537L96.63333333333333,151.71428437271635L96.66222222222221,151.71428437895094L96.74888888888889,151.7142843826917L96.8788888888889,151.71428438493615L97.00888888888889,151.71428438628283L97.21111111111111,151.71428438709083L97.31222222222222,151.71428438757562L97.63,151.71428438786648L97.7311111111111,151.71428438804102L97.81777777777778,151.71428438814576L97.87555555555556,151.71428438820857L97.89,151.71428438824628L98.28,151.7142843882689L98.32333333333332,151.71428438828246L98.42444444444443,151.7142843882906L98.65555555555555,151.71428438829548L98.68444444444444,151.71428438829844L98.72777777777779,151.7142843883002L98.74222222222222,151.71428438830125L98.85777777777778,151.71428438830188L99.40666666666667,151.71428438830225L99.59444444444443,151.71428438830247L99.81111111111112,151.71428438830262L100.08555555555554,151.7142843883027L100.14333333333333,151.71428438830276L100.24444444444444,151.7142843883028L100.37444444444444,151.71428438830281L100.82222222222222,151.71428438830281L100.98111111111112,151.71428438830281L101.44333333333333,151.71428486565665L101.79,151.71428515206898L102.06444444444445,151.71428532391636L102.25222222222223,151.71428542702478L102.26666666666667,151.71428548888983L102.38222222222223,151.71428552600887L102.41111111111111,151.7142855482803L103.01777777777777,151.71428556164315L103.07555555555555,151.71428556966086L103.13333333333334,151.71428557447146L103.29222222222222,151.71428557735786L103.30666666666666,151.71428557908968L103.33555555555556,151.71428558012877L103.35000000000001,151.71428558075223L103.81222222222222,151.71428558112632L103.97111111111111,151.71428558135077L104,151.71428558148543L104.07222222222222,151.7142855815662L104.10111111111111,151.71428558161472L104.26,151.7142855816438L104.36111111111111,151.71428558166124L104.54888888888888,151.71428558167173L104.76555555555555,151.71428558167798L104.89555555555556,151.71428558168176L104.93888888888888,151.71428558168404L105.37222222222222,151.71428558168537L105.70444444444445,151.7142855816862L105.71888888888888,151.71428558168668L105.76222222222222,151.714285581687L105.79111111111112,151.71428558168716L105.84888888888888,151.71428558168725L105.93555555555555,151.71428558168734L106.33999999999999,151.71428558168736L106.45555555555555,151.7142855816874L106.78777777777778,151.7142855816874L106.91777777777777,151.71428558168742L106.93222222222222,151.71428558168742L107.53888888888889,151.71428558168742L107.66888888888889,151.71428558168742L107.74111111111111,151.71428558168742L108.3911111111111,151.7142856294228L108.46333333333334,151.71428565806406L108.63666666666667,151.71428567524876L108.98333333333333,151.71428568555962L109.30111111111111,151.71428569174614L109.83555555555556,151.71428569545805L110.54333333333334,151.71428569768517L110.74555555555555,151.71428569902145L111.55444444444446,151.71428569982322L111.65555555555557,151.7142857003043L112.04555555555557,151.71428570059294L112.06,151.7142857007661L112.39222222222222,151.71428570087002L112.50777777777778,151.71428570093235L113.1288888888889,151.71428570096978L113.62,151.7142857009922L113.80777777777779,151.7142857010057L113.85111111111111,151.71428570101378L114.80444444444444,151.7142857010186L114.92,151.71428570102154L115.03555555555555,151.71428570102327L115.28111111111112,151.71428570102432L115.41111111111111,151.71428570102495L115.51222222222222,151.71428570102532L115.5988888888889,151.71428570579909L115.68555555555555,151.71428570866334L116.20555555555555,151.71428571038192L116.32111111111111,151.71428571141303L116.68222222222222,151.7142857120317L116.69666666666666,151.71428571240293L117.1588888888889,151.71428571262564L117.18777777777778,151.71428571275928L117.47666666666666,151.71428571283946L117.5488888888889,151.71428571288757L117.57777777777778,151.71428571291642L117.60666666666665,151.71428571293373L117.98222222222222,151.71428571294416L118.51666666666667,151.71428571295039L118.60333333333334,151.7142857129541L118.80555555555556,151.71428571295635L119.06555555555555,151.71428571295772L119.58555555555556,151.7142857129585L119.61444444444444,151.71428571295903L119.71555555555555,151.71428571295928L119.84555555555555,151.71428571295945L119.8888888888889,151.71428571295957L120.29333333333334,151.71428571295965L120.35111111111111,151.71428571295968L120.38000000000001,151.7142857129597L120.56777777777778,151.7142857129597L120.72666666666666,151.7142857129597L120.74111111111111,151.7142857129597L120.81333333333333,151.7142857129597L120.88555555555556,151.7142857129597L121.42,151.7142857129597L121.68,151.7142857129597L121.95444444444445,151.7142857129597L122.18555555555555,151.7142857129597L122.38777777777777,151.7142857129597L122.64777777777778,151.7142857129597L122.69111111111111,151.7142857129597L123.18222222222222,151.71428571343708L123.22555555555556,151.71428571372348L123.35555555555555,151.71428571389535L123.44222222222223,151.71428571399844L123.51444444444445,151.71428571406034L123.70222222222223,151.71428571409743L123.77444444444444,151.7142857141197L124.00555555555556,151.71428571413307L124.07777777777778,151.71428571414108L124.14999999999999,151.7142857141459L124.20777777777778,151.7142857141488L124.43888888888888,151.71428571415052L124.92999999999999,151.71428571415154L125.27666666666667,151.71428571415217L125.88333333333334,151.71428571415254L125.95555555555556,151.71428571415277L126.1,151.7142857141529L126.15777777777778,151.714285714153L126.38888888888889,151.71428571415305L126.54777777777778,151.71428571415308L126.89444444444445,151.71428571415308L127.14,151.7142857141531L127.41444444444446,151.7142857141531L127.71777777777778,151.7142857141531L127.74666666666667,151.7142857141531L127.83333333333333,151.7142857141531L127.96333333333332,151.7142857141531L128.19444444444446,151.7142857141531L128.7577777777778,151.7142857141531L128.78666666666666,151.7142857141531L128.83,151.7142857141531L128.98888888888888,151.7142857141531L129.09,151.7142857141531L129.63888888888889,151.7142857141531L129.87,151.7142857141531L129.94222222222223,151.7142857141531L129.9711111111111,151.7142857141531L130.26,151.71428571420086L130.4188888888889,151.71428571422948L130.63555555555556,151.71428571424667L130.78,151.714285714257L131.69,151.71428571426316L131.73333333333335,151.71428571426688L131.82,151.71428571426912L132.36888888888888,151.71428571427046L132.55666666666667,151.71428571427126L132.5711111111111,151.71428571427174L132.6,151.71428571427202L132.68666666666667,151.7142857142722L132.73,151.7142857142723L132.98999999999998,151.71428571427236L133.25,151.7142857142724L133.59666666666666,151.71428571427242L133.65444444444447,151.71428571427245L133.82777777777778,151.71428571427245L133.95777777777778,151.71428571427245L134.4488888888889,151.71428571427245L134.82444444444445,151.71428571427245L134.88222222222223,151.71428571427245L134.9111111111111,151.71428571427245L135.0988888888889,151.71428571427245L135.1711111111111,151.71428571427245L135.3011111111111,151.71428571427245L135.5611111111111,151.71428571427245L136.12444444444444,151.71428571427245L136.28333333333333,151.71428571427245L136.29777777777778,151.71428571427245L136.70222222222222,151.71428571427245L136.76000000000002,151.71428571427245L136.7888888888889,151.71428571427245L136.96222222222224,151.71428571427245L137.30888888888887,151.71428571427722L137.48222222222222,151.7142857142801L137.5977777777778,151.71428571428183L137.68444444444444,151.71428571428282L137.84333333333333,151.71428571428345L137.9588888888889,151.71428571428385L137.98777777777778,151.71428571428405L138.07444444444442,151.7142857142842L138.56555555555556,151.71428571428427L138.69555555555556,151.7142857142843L138.72444444444446,151.71428571428436L138.76777777777778,151.71428571428436L139.21555555555554,151.71428571428436L139.23,151.71428571428436L139.30222222222224,151.7142857142844L139.53333333333333,151.7142857142844L139.54777777777778,151.7142857142844L140.41444444444443,151.7142857142844L140.50111111111113,151.7142857142844L140.54444444444445,151.7142857142844L140.92000000000002,151.7142857142844L140.9922222222222,151.7142857142844L141.4688888888889,151.7142857142844L141.48333333333335,151.7142857142844L141.8588888888889,151.7142857142844L142.10444444444445,151.7142857142844L142.16222222222223,151.7142857142844L142.2777777777778,151.7142857142844L142.35,151.7142857142844L142.36444444444444,151.7142857142844L142.45111111111112,151.7142857142844L142.74,151.7142857142844L142.92777777777778,151.7142857142844L143.01444444444442,151.7142857142844L143.37555555555554,151.7142857142844L143.41888888888892,151.7142857142844L144.24222222222224,151.7142857142844L144.87777777777777,151.71428571428487L144.90666666666667,151.71428571428515L145.10888888888888,151.71428571428532L145.22444444444446,151.71428571428544L145.55666666666664,151.7142857142855L145.57111111111112,151.71428571428552L145.8311111111111,151.71428571428555L146.20666666666668,151.71428571428558L146.52444444444444,151.71428571428558L146.79888888888888,151.71428571428558L146.81333333333333,151.71428571428558L147.21777777777777,151.71428571428558L147.33333333333334,151.71428571428558L147.3477777777778,151.71428571428558L147.56444444444446,151.71428571428558L147.75222222222223,151.71428571428558L147.76666666666668,151.71428571428558L148.1277777777778,151.71428571428558L148.44555555555556,151.71428571428558L148.53222222222223,151.71428571428558L148.57555555555555,151.71428571428558L148.64777777777778,151.71428571428558L148.72,151.71428571428558L148.79222222222222,151.71428571428558L149.48555555555558,151.71428571428558L149.5288888888889,151.71428571428558L149.6877777777778,151.71428571428558L149.89000000000001,151.71428571428558L150.17888888888888,151.71428571428558L150.3811111111111,151.71428571428558L150.45333333333332,151.71428571428558L151.04555555555555,151.71428571428558L151.10333333333335,151.71428571428558L151.53666666666666,151.71428571428558L151.72444444444446,151.71428571428564L151.97,151.71428571428564L152.1,151.7142857142857L152.35999999999999,151.7142857142857L152.4466666666667,151.7142857142857L152.57666666666665,151.7142857142857L153.19777777777776,151.7142857142857L153.3711111111111,151.7142857142857L153.4,151.7142857142857L153.5011111111111,151.7142857142857L153.9633333333333,151.7142857142857L154.0211111111111,151.7142857142857L154.4688888888889,151.7142857142857L154.55555555555554,151.7142857142857L154.81555555555556,151.7142857142857L154.9022222222222,151.7142857142857L155.30666666666667,151.7142857142857L155.33555555555554,151.7142857142857L155.65333333333334,151.7142857142857L155.6822222222222,151.7142857142857L155.82666666666668,151.7142857142857L155.98555555555555,151.7142857142857L156.33222222222224,151.7142857142857L156.47666666666666,151.7142857142857L156.9388888888889,151.7142857142857L157.01111111111112,151.7142857142857L157.11222222222221,151.7142857142857L157.2711111111111,151.7142857142857L157.35777777777778,151.7142857142857L157.69,151.7142857142857L157.7477777777778,151.7142857142857L158.0222222222222,151.7142857142857L158.39777777777778,151.7142857142857L158.45555555555555,151.7142857142857L158.58555555555554,151.7142857142857L158.67222222222222,151.7142857142857L158.74444444444444,151.7142857142857L158.97555555555556,151.7142857142857L159.36555555555555,151.7142857142857L159.59666666666666,151.7142857142857L159.72666666666666,151.7142857142857L159.82777777777775,151.7142857142857L159.9,151.7142857142857L160.57888888888888,151.7142857142857L160.63666666666666,151.7142857142857L161.08444444444444,151.7142857142857L161.2577777777778,151.7142857142857L161.63333333333335,151.7142857142857L161.67666666666668,151.7142857142857L161.77777777777777,151.7142857142857L161.82111111111112,151.7142857142857L161.89333333333335,151.7142857142857L161.95111111111112,151.7142857142857L162.09555555555556,151.7142857142857L162.15333333333334,151.7142857142857L162.26888888888888,151.7142857142857L162.52888888888887,151.7142857142857L163.09222222222223,151.7142857142857L163.26555555555555,151.7142857142857L163.29444444444445,151.7142857142857L163.39555555555557,151.7142857142857L163.54,151.7142857142857L163.55444444444444,151.7142857142857L163.61222222222224,151.7142857142857L163.6988888888889,151.7142857142857L163.7422222222222,151.7142857142857L163.87222222222223,151.7142857142857L163.97333333333336,151.7142857142857L164.07444444444445,151.7142857142857L164.1611111111111,151.7142857142857L164.17555555555558,151.7142857142857L164.26222222222222,151.7142857142857L164.33444444444444,151.7142857142857L164.4788888888889,151.7142857142857L164.62333333333333,151.7142857142857L164.92666666666665,151.7142857142857L165.2588888888889,151.7142857142857L165.28777777777776,151.7142857142857L165.47555555555556,151.7142857142857L165.67777777777778,151.7142857142857L165.70666666666665,151.7142857142857L165.9377777777778,151.7142857142857L165.95222222222225,151.7142857142857L165.96666666666667,151.7142857142857L166.4,151.7142857142857L166.66,151.7142857142857L166.79,151.7142857142857L166.92000000000002,151.7142857142857L167.06444444444443,151.7142857142857L167.13666666666668,151.7142857142857L167.45444444444445,151.7142857142857L167.57,151.7142857142857L167.65666666666667,151.7142857142857L167.84444444444443,151.7142857142857L168.32111111111112,151.7142857142857L168.5811111111111,151.7142857142857L168.59555555555556,151.7142857142857L168.63888888888889,151.7142857142857L168.82666666666665,151.7142857142857L168.88444444444445,151.7142857142857L169.0577777777778,151.7142857142857L169.07222222222222,151.7142857142857L169.17333333333332,151.7142857142857L169.52,151.7142857142857L169.54888888888888,151.7142857142857L169.76555555555555,151.7142857142857L169.78,151.7142857142857L170.04000000000002,151.7142857142857L170.2711111111111,151.7142857142857L170.41555555555556,151.7142857142857L170.63222222222223,151.7142857142857L170.7911111111111,151.7142857142857L170.9788888888889,151.7142857142857L171.16666666666666,151.7142857142857L171.41222222222223,151.7142857142857L171.51333333333332,151.7142857142857L171.80222222222224,151.7142857142857L171.94666666666666,151.7142857142857L172.12,151.7142857142857L172.13444444444443,151.7142857142857L172.58222222222224,151.7142857142857L172.5966666666667,151.7142857142857L172.61111111111111,151.7142857142857L172.75555555555553,151.7142857142857L172.94333333333333,151.7142857142857L173.03,151.7142857142857L173.14555555555555,151.7142857142857L173.23222222222222,151.7142857142857L174.24333333333334,151.7142857142857L174.63333333333333,151.7142857142857L175.0811111111111,151.7142857142857L175.15333333333334,151.7142857142857L175.32666666666668,151.7142857142857L176.06333333333333,151.7142857142857L176.0922222222222,151.7142857142857L176.33777777777777,151.7142857142857L176.4388888888889,151.7142857142857L176.58333333333334,151.7142857142857L177.21888888888887,151.7142857142857L177.30555555555557,151.7142857142857L177.37777777777777,151.7142857142857L177.60888888888888,151.7142857142857L178.18666666666667,151.7142857142857L178.27333333333334,151.7142857142857L178.31666666666666,151.7142857142857L178.3311111111111,151.7142857142857L179.03888888888886,151.7142857142857L179.1688888888889,151.7142857142857L179.32777777777778,151.7142857142857L179.76111111111112,151.7142857142857L179.8477777777778,151.7142857142857L179.86222222222224,151.7142857142857L179.9488888888889,151.7142857142857L180.57,151.7142857142857L180.81555555555556,151.7142857142857L181.14777777777778,151.7142857142857L181.29222222222222,151.7142857142857L181.43666666666667,151.7142857142857L181.61,151.7142857142857L181.72555555555556,151.7142857142857L181.94222222222223,151.7142857142857L182.20222222222225,151.7142857142857L182.47666666666666,151.7142857142857L182.6211111111111,151.7142857142857L182.65,151.7142857142857L183.54555555555555,151.7142857142857L183.69,151.7142857142857L183.79111111111112,151.7142857142857L183.86333333333334,151.7142857142857L184.09444444444443,151.7142857142857L184.19555555555556,151.7142857142857L184.21,151.7142857142857L184.38333333333333,151.7142857142857L184.47,151.7142857142857L185.01888888888888,151.7142857142857L185.49555555555554,151.7142857142857L185.97222222222223,151.7142857142857L186.29000000000002,151.7142857142857L186.3477777777778,151.7142857142857L187.4311111111111,151.7142857142857L187.61888888888888,151.7142857142857L188.09555555555556,151.7142857142857L188.11,151.7142857142857L188.1822222222222,151.7142857142857L188.29777777777778,151.7142857142857L188.55777777777777,151.7142857142857L188.71666666666667,151.7142857142857L189.13555555555556,151.7142857142857L189.48222222222222,151.7142857142857L189.5688888888889,151.7142857142857L189.58333333333331,151.7142857142857L189.67000000000002,151.7142857142857L189.6988888888889,151.7142857142857L190.07444444444445,151.7142857142857L190.23333333333335,151.7142857142857L190.7822222222222,151.7142857142857L190.84,151.7142857142857L190.92666666666665,151.7142857142857L191.0277777777778,151.7142857142857L191.04222222222222,151.7142857142857L191.21555555555557,151.7142857142857L191.47555555555556,151.7142857142857L191.88,151.7142857142857L192.0388888888889,151.7142857142857L192.35666666666668,151.7142857142857L192.54444444444442,151.7142857142857L192.5588888888889,151.7142857142857L192.67444444444445,151.7142857142857L192.84777777777776,151.7142857142857L193.03555555555556,151.7142857142857L193.46888888888887,151.7142857142857L193.61333333333334,151.7142857142857L193.65666666666667,151.7142857142857L193.68555555555554,151.7142857142857L194.17666666666668,151.7142857142857L194.24888888888887,151.7142857142857L194.27777777777777,151.7142857142857L194.39333333333335,151.7142857142857L194.43666666666667,151.7142857142857L194.46555555555554,151.7142857142857L194.52333333333334,151.7142857142857L194.82666666666665,151.7142857142857L194.85555555555555,151.7142857142857L195.04333333333332,151.7142857142857L195.37555555555556,151.7142857142857L195.39,151.7142857142857L195.80888888888887,151.7142857142857L196.01111111111112,151.7142857142857L196.12666666666667,151.7142857142857L196.60333333333332,151.7142857142857L197.06555555555556,151.7142857142857L197.74444444444444,151.7142857142857L197.83111111111108,151.7142857142857L198.07666666666668,151.7142857142857L198.40888888888887,151.7142857142857L198.6111111111111,151.7142857142857L198.6977777777778,151.7142857142857L198.78444444444443,151.7142857142857L198.82777777777778,151.7142857142857L198.95777777777778,151.7142857142857L199.10222222222222,151.7142857142857L199.1311111111111,151.7142857142857L199.57888888888888,151.7142857142857L199.60777777777778,151.7142857142857L199.66555555555556,151.7142857142857L199.85333333333335,151.7142857142857L199.96888888888887,151.7142857142857L200.01222222222222,151.7142857142857L200.07,151.7142857142857L200.3011111111111,151.7142857142857L200.4311111111111,151.7142857142857L200.51777777777778,151.7142857142857L200.59,151.7142857142857L201.0377777777778,151.7142857142857L201.0522222222222,151.7142857142857L201.12444444444444,151.7142857142857L201.37,151.7142857142857L201.57222222222222,151.7142857142857L201.58666666666667,151.7142857142857L201.7888888888889,151.7142857142857L201.8177777777778,151.7142857142857L201.89,151.7142857142857L202.15,151.7142857142857L202.39555555555557,151.7142857142857L202.48222222222222,151.7142857142857L202.61222222222221,151.7142857142857L202.9011111111111,151.7142857142857L203.04555555555555,151.7142857142857L203.13222222222223,151.7142857142857L203.20444444444445,151.7142857142857L203.32,151.7142857142857L204.17222222222222,151.7142857142857L204.47555555555553,151.7142857142857L204.64888888888888,151.7142857142857L204.75,151.7142857142857L204.80777777777777,151.7142857142857L205.25555555555553,151.7142857142857L205.61666666666667,151.7142857142857L205.66,151.7142857142857L205.77555555555554,151.7142857142857L206.00666666666666,151.7142857142857L206.13666666666666,151.7142857142857L206.58444444444444,151.7142857142857L206.61333333333332,151.7142857142857L206.67111111111112,151.7142857142857L206.7577777777778,151.7142857142857L206.78666666666666,151.7142857142857L206.8011111111111,151.7142857142857L207.20555555555555,151.7142857142857L207.33555555555554,151.7142857142857L207.40777777777777,151.7142857142857L207.5088888888889,151.7142857142857L207.56666666666666,151.7142857142857L207.91333333333333,151.7142857142857L207.9711111111111,151.7142857142857L208,151.7142857142857L208.30333333333334,151.7142857142857L208.31777777777776,151.7142857142857L208.3322222222222,151.7142857142857L208.53444444444443,151.7142857142857L208.62111111111113,151.7142857142857L208.70777777777778,151.7142857142857L208.7511111111111,151.7142857142857L209.09777777777776,151.7142857142857L209.12666666666667,151.7142857142857L209.15555555555554,151.7142857142857L209.76222222222222,151.7142857142857L210.22444444444446,151.7142857142857L210.90333333333334,151.7142857142857L211.49555555555554,151.7142857142857L211.58222222222224,151.7142857142857L211.65444444444444,151.7142857142857L211.7122222222222,151.7142857142857L212.03,151.7142857142857L212.13111111111112,151.7142857142857L212.4488888888889,151.7142857142857L212.72333333333336,151.7142857142857L213.51777777777778,151.7142857142857L213.64777777777778,151.7142857142857L214.45666666666665,151.7142857142857L214.61555555555555,151.7142857142857L215.23666666666665,151.7142857142857L215.29444444444445,151.7142857142857L215.35222222222222,151.7142857142857L215.54,151.7142857142857L215.85777777777778,151.7142857142857L216.26222222222222,151.7142857142857L216.32,151.7142857142857L216.3488888888889,151.7142857142857L216.39222222222222,151.7142857142857L216.62333333333333,151.7142857142857L216.8111111111111,151.7142857142857L216.92666666666668,151.7142857142857L216.98444444444445,151.7142857142857L217.01333333333332,151.7142857142857L217.07111111111112,151.7142857142857L217.18666666666667,151.7142857142857L217.2011111111111,151.7142857142857L217.2588888888889,151.7142857142857L217.34555555555556,151.7142857142857L217.35999999999999,151.7142857142857L217.93777777777777,151.7142857142857L217.99555555555554,151.7142857142857L219.38222222222223,151.7142857142857L219.52666666666667,151.7142857142857L219.7,151.7142857142857L219.94555555555556,151.7142857142857L220.04666666666668,151.7142857142857L220.17666666666668,151.7142857142857L220.27777777777777,151.7142857142857L220.43666666666667,151.7142857142857L220.92777777777778,151.7142857142857L221.05777777777777,151.7142857142857L221.70777777777778,151.7142857142857L222.2711111111111,151.7142857142857L222.47333333333333,151.7142857142857L222.70444444444445,151.7142857142857L223.23888888888888,151.7142857142857L223.61444444444444,151.7142857142857L223.77333333333334,151.7142857142857L224.20666666666665,151.7142857142857L224.33666666666667,151.7142857142857L224.35111111111112,151.7142857142857L224.61111111111111,151.7142857142857L224.72666666666666,151.7142857142857L224.98666666666665,151.7142857142857L225.16,151.7142857142857L225.21777777777777,151.7142857142857L225.66555555555556,151.7142857142857L225.94,151.7142857142857L225.96888888888887,151.7142857142857L225.99777777777777,151.7142857142857L226.01222222222222,151.7142857142857L226.2,151.7142857142857L226.80666666666664,151.7142857142857L227.00888888888886,151.7142857142857L227.29777777777778,151.7142857142857L227.63,151.7142857142857L227.94777777777776,151.7142857142857L228.25111111111113,151.7142857142857L228.67,151.7142857142857L228.92999999999998,151.7142857142857L229.19,151.7142857142857L229.29111111111112,151.7142857142857L229.5222222222222,151.7142857142857L229.73888888888888,151.7142857142857L229.89777777777778,151.7142857142857L230.1,151.7142857142857L230.54777777777778,151.7142857142857L230.69222222222223,151.7142857142857L230.82222222222222,151.7142857142857L231.1977777777778,151.7142857142857L231.61666666666667,151.7142857142857L231.77555555555557,151.7142857142857L232.10777777777778,151.7142857142857" style="fill: none;" fill="none"></path></g></g></g></g><g opacity="0.2"><g><g><g><path stroke="rgb(255, 112, 67)" stroke-width="2px" d="M35.836666666666666,-1174.2685419789384L36.25555555555556,19.11600588860787L36.28444444444444,19.11600588860787L36.29888888888889,19.11600588860787L36.58777777777778,19.11600588860787L36.66,19.11600588860787L36.68888888888889,19.11600588860787L36.919999999999995,19.11600588860787L37.00666666666667,19.11600588860787L37.41111111111111,19.11600588860787L37.46888888888889,19.11600588860787L37.49777777777778,19.11600588860787L37.974444444444444,19.11600588860787L38.089999999999996,19.11600588860787L38.17666666666667,19.11600588860787L38.19111111111111,19.11600588860787L38.39333333333333,19.11600588860787L38.52333333333333,19.11600588860787L38.638888888888886,19.11600588860787L39.303333333333335,19.11600588860787L39.36111111111111,19.11600588860787L39.92444444444445,19.11600588860787L40.083333333333336,19.11600588860787L40.184444444444445,19.11600588860787L40.27111111111111,19.11600588860787L40.502222222222215,19.11600588860787L40.906666666666666,19.11600588860787L41.26777777777777,19.11600588860787L41.397777777777776,19.11600588860787L41.68666666666667,19.11600588860787L42.495555555555555,19.11600588860787L43.318888888888885,138.45445754774016L43.391111111111115,138.45445754774016L43.550000000000004,138.45445754774016L43.65111111111111,138.45445754774016L43.708888888888886,138.45445754774016L43.73777777777778,138.45445754774016L43.867777777777775,138.45445754774016L44.14222222222222,138.45445754774016L44.358888888888885,138.45445754774016L44.44555555555556,138.45445754774016L44.748888888888885,138.45445754774016L44.90777777777778,138.45445754774016L44.93666666666667,138.45445754774016L45.138888888888886,138.45445754774016L45.239999999999995,138.45445754774016L45.51444444444444,138.45445754774016L45.528888888888886,138.45445754774016L45.702222222222225,138.45445754774016L45.84666666666667,138.45445754774016L45.87555555555555,138.45445754774016L45.99111111111112,138.45445754774016L46.12111111111111,138.45445754774016L46.48222222222223,138.45445754774016L46.583333333333336,138.45445754774016L46.88666666666667,138.45445754774016L46.973333333333336,138.45445754774016L47.00222222222222,138.45445754774016L47.04555555555555,138.45445754774016L47.10333333333333,138.45445754774016L47.19,138.45445754774016L47.24777777777778,138.45445754774016L47.32,138.45445754774016L47.63777777777778,138.45445754774016L48.02777777777778,138.45445754774016L48.31666666666666,138.45445754774016L48.59111111111111,138.45445754774016L48.75,138.45445754774016L48.76444444444444,138.45445754774016L49.35666666666666,138.45445754774016L49.67444444444445,138.45445754774016L49.934444444444445,138.45445754774016L49.94888888888889,138.45445754774016L50.46888888888889,138.45445754774016L50.58444444444444,150.3883028516367L50.7,150.3883028516367L50.74333333333333,150.3883028516367L51.248888888888885,150.3883028516367L51.29222222222222,150.3883028516367L51.49444444444445,150.3883028516367L51.53777777777778,150.3883028516367L51.61,150.3883028516367L51.78333333333333,150.3883028516367L51.94222222222222,150.3883028516367L52.39,150.3883028516367L52.50555555555556,150.3883028516367L53.01111111111111,150.3883028516367L53.227777777777774,150.3883028516367L53.47333333333333,150.3883028516367L53.50222222222222,150.3883028516367L53.54555555555556,150.3883028516367L53.60333333333333,150.3883028516367L54.52777777777778,150.3883028516367L54.55666666666667,150.3883028516367L54.73,150.3883028516367L54.77333333333333,150.3883028516367L55.56777777777778,150.3883028516367L55.62555555555555,150.3883028516367L55.75555555555555,150.3883028516367L55.85666666666666,150.3883028516367L56.31888888888889,150.3883028516367L56.36222222222223,150.3883028516367L56.44888888888889,150.3883028516367L56.46333333333334,150.3883028516367L56.68,150.3883028516367L56.85333333333334,150.3883028516367L56.91111111111111,150.3883028516367L56.983333333333334,150.3883028516367L57.01222222222222,150.3883028516367L57.2,150.3883028516367L57.214444444444446,150.3883028516367L57.474444444444444,150.3883028516367L58.78888888888889,151.5816874337701L58.918888888888894,151.5816874337701L59.06333333333333,151.5816874337701L59.22222222222222,151.5816874337701L59.43888888888888,151.5816874337701L59.49666666666667,151.5816874337701L59.785555555555554,151.5816874337701L60.580000000000005,151.5816874337701L60.79666666666667,151.5816874337701L60.88333333333333,151.5816874337701L61.23,151.5816874337701L61.30222222222222,151.5816874337701L62.385555555555555,151.5816874337701L62.717777777777776,151.5816874337701L62.96333333333333,151.5816874337701L63.46888888888889,151.5816874337701L64.07555555555555,151.5816874337701L64.14777777777778,151.5816874337701L64.33555555555556,151.5816874337701L64.4511111111111,151.5816874337701L64.49444444444444,151.5816874337701L64.78333333333333,151.5816874337701L64.97111111111111,151.5816874337701L65.04333333333332,151.7010258855155L65.24555555555557,151.7010258855155L65.27444444444444,151.7010258855155L65.43333333333332,151.7010258855155L65.95333333333333,151.7010258855155L66.11222222222221,151.7010258855155L66.12666666666668,151.7010258855155L66.43,151.7010258855155L66.83444444444444,151.7010258855155L66.95,151.7010258855155L67.06555555555555,151.7010258855155L67.45555555555555,151.7010258855155L67.51333333333334,151.7010258855155L67.61444444444444,151.7010258855155L67.65777777777778,151.7010258855155L67.78777777777778,151.7010258855155L68.00444444444445,151.7010258855155L68.07666666666665,151.7010258855155L68.13444444444444,151.7010258855155L68.30777777777779,151.7010258855155L68.38000000000001,151.7010258855155L68.45222222222222,151.7010258855155L68.46666666666665,151.7010258855155L68.65444444444444,151.7010258855155L68.66888888888889,151.7010258855155L68.68333333333334,151.7010258855155L68.82777777777778,151.7010258855155L68.87111111111112,151.7010258855155L69.01555555555555,151.7010258855155L69.11666666666666,151.7010258855155L69.50666666666666,151.7010258855155L69.82444444444444,151.7010258855155L69.9688888888889,151.7010258855155L70.21444444444444,151.7010258855155L70.22888888888889,151.7010258855155L71.08111111111111,151.7010258855155L71.52888888888889,151.7010258855155L71.57222222222222,151.7010258855155L71.67333333333333,151.7010258855155L71.71666666666667,151.7010258855155L71.83222222222223,151.7010258855155L72.49666666666667,151.71295973145362L72.71333333333334,151.71295973145362L72.90111111111112,151.71295973145362L73.42111111111112,151.71295973145362L73.43555555555555,151.71295973145362L73.71,151.71295973145362L73.72444444444444,151.71295973145362L73.73888888888888,151.71295973145362L73.94111111111111,151.71295973145362L73.95555555555555,151.71295973145362L73.97,151.71295973145362L74.07111111111112,151.71295973145362L74.31666666666666,151.71295973145362L74.72111111111111,151.71295973145362L74.99555555555555,151.71295973145362L75.09666666666666,151.71295973145362L75.16888888888889,151.71295973145362L75.35666666666667,151.71295973145362L75.39999999999999,151.71295973145362L75.53,151.71295973145362L75.70333333333333,151.71295973145362L76.05,151.71295973145362L76.09333333333333,151.71295973145362L76.64222222222223,151.71295973145362L77.13333333333334,151.71295973145362L77.36444444444444,151.71295973145362L77.62444444444445,151.71295973145362L77.78333333333335,151.71295973145362L77.89888888888889,151.71295973145362L78.05777777777777,151.71295973145362L78.25999999999999,151.71295973145362L78.88111111111111,151.71295973145362L79.19888888888889,151.71295973145362L79.21333333333332,151.71295973145362L79.31444444444445,151.71295973145362L79.34333333333333,151.71295973145362L79.44444444444446,151.7141531159941L79.82,151.7141531159941L80.39777777777778,151.7141531159941L80.44111111111111,151.7141531159941L80.54222222222222,151.7141531159941L80.71555555555557,151.7141531159941L80.88888888888889,151.7141531159941L81.07666666666667,151.7141531159941L81.0911111111111,151.7141531159941L81.12,151.7141531159941L81.32222222222222,151.7141531159941L81.66888888888889,151.7141531159941L81.71222222222222,151.7141531159941L81.74111111111111,151.7141531159941L81.77,151.7141531159941L81.81333333333333,151.7141531159941L81.8711111111111,151.7141531159941L81.91444444444444,151.7141531159941L82.1888888888889,151.7141531159941L82.50666666666667,151.7141531159941L82.5788888888889,151.7141531159941L83.02666666666667,151.7141531159941L83.11333333333333,151.7141531159941L83.21444444444444,151.7141531159941L83.24333333333333,151.7141531159941L83.51777777777778,151.7141531159941L83.63333333333333,151.7141531159941L84.47111111111111,151.7141531159941L84.5,151.7141531159941L84.64444444444445,151.7141531159941L84.77444444444444,151.7141531159941L85.25111111111111,151.7141531159941L85.38111111111111,151.7141531159941L85.4388888888889,151.7141531159941L85.52555555555556,151.7141531159941L85.69888888888889,151.7141531159941L85.74222222222222,151.7141531159941L86.17555555555555,151.7141531159941L86.30555555555556,151.7141531159941L86.39222222222223,151.7141531159941L86.84,151.71427245445707L86.86888888888889,151.71427245445707L86.9988888888889,151.71427245445707L87.15777777777777,151.71427245445707L87.24444444444444,151.71427245445707L87.34555555555555,151.71427245445707L87.88000000000001,151.71427245445707L88.24111111111111,151.71427245445707L88.32777777777777,151.71427245445707L88.41444444444444,151.71427245445707L88.45777777777778,151.71427245445707L88.77555555555556,151.71427245445707L89.28111111111112,151.71427245445707L89.44,151.71427245445707L89.94555555555556,151.71427245445707L90.26333333333334,151.71427245445707L90.30666666666667,151.71427245445707L90.37888888888888,151.71427245445707L91.25999999999999,151.71427245445707L91.33222222222223,151.71427245445707L91.40444444444445,151.71427245445707L91.49111111111111,151.71427245445707L92.37222222222223,151.71427245445707L92.76222222222223,151.71427245445707L92.95,151.71427245445707L93.06555555555556,151.71427245445707L93.22444444444444,151.71427245445707L93.39777777777778,151.71427245445707L93.72999999999999,151.71427245445707L93.81666666666666,151.71427245445707L94.25,151.71428438830281L94.39444444444445,151.71428438830281L94.45222222222222,151.71428438830281L94.81333333333333,151.71428438830281L94.8711111111111,151.71428438830281L94.95777777777778,151.71428438830281L95.46333333333332,151.71428438830281L95.50666666666667,151.71428438830281L96.0411111111111,151.71428438830281L96.18555555555557,151.71428438830281L96.46,151.71428438830281L96.57555555555557,151.71428438830281L96.63333333333333,151.71428438830281L96.66222222222221,151.71428438830281L96.74888888888889,151.71428438830281L96.8788888888889,151.71428438830281L97.00888888888889,151.71428438830281L97.21111111111111,151.71428438830281L97.31222222222222,151.71428438830281L97.63,151.71428438830281L97.7311111111111,151.71428438830281L97.81777777777778,151.71428438830281L97.87555555555556,151.71428438830281L97.89,151.71428438830281L98.28,151.71428438830281L98.32333333333332,151.71428438830281L98.42444444444443,151.71428438830281L98.65555555555555,151.71428438830281L98.68444444444444,151.71428438830281L98.72777777777779,151.71428438830281L98.74222222222222,151.71428438830281L98.85777777777778,151.71428438830281L99.40666666666667,151.71428438830281L99.59444444444443,151.71428438830281L99.81111111111112,151.71428438830281L100.08555555555554,151.71428438830281L100.14333333333333,151.71428438830281L100.24444444444444,151.71428438830281L100.37444444444444,151.71428438830281L100.82222222222222,151.71428438830281L100.98111111111112,151.71428438830281L101.44333333333333,151.71428558168742L101.79,151.71428558168742L102.06444444444445,151.71428558168742L102.25222222222223,151.71428558168742L102.26666666666667,151.71428558168742L102.38222222222223,151.71428558168742L102.41111111111111,151.71428558168742L103.01777777777777,151.71428558168742L103.07555555555555,151.71428558168742L103.13333333333334,151.71428558168742L103.29222222222222,151.71428558168742L103.30666666666666,151.71428558168742L103.33555555555556,151.71428558168742L103.35000000000001,151.71428558168742L103.81222222222222,151.71428558168742L103.97111111111111,151.71428558168742L104,151.71428558168742L104.07222222222222,151.71428558168742L104.10111111111111,151.71428558168742L104.26,151.71428558168742L104.36111111111111,151.71428558168742L104.54888888888888,151.71428558168742L104.76555555555555,151.71428558168742L104.89555555555556,151.71428558168742L104.93888888888888,151.71428558168742L105.37222222222222,151.71428558168742L105.70444444444445,151.71428558168742L105.71888888888888,151.71428558168742L105.76222222222222,151.71428558168742L105.79111111111112,151.71428558168742L105.84888888888888,151.71428558168742L105.93555555555555,151.71428558168742L106.33999999999999,151.71428558168742L106.45555555555555,151.71428558168742L106.78777777777778,151.71428558168742L106.91777777777777,151.71428558168742L106.93222222222222,151.71428558168742L107.53888888888889,151.71428558168742L107.66888888888889,151.71428558168742L107.74111111111111,151.71428558168742L108.3911111111111,151.7142857010259L108.46333333333334,151.7142857010259L108.63666666666667,151.7142857010259L108.98333333333333,151.7142857010259L109.30111111111111,151.7142857010259L109.83555555555556,151.7142857010259L110.54333333333334,151.7142857010259L110.74555555555555,151.7142857010259L111.55444444444446,151.7142857010259L111.65555555555557,151.7142857010259L112.04555555555557,151.7142857010259L112.06,151.7142857010259L112.39222222222222,151.7142857010259L112.50777777777778,151.7142857010259L113.1288888888889,151.7142857010259L113.62,151.7142857010259L113.80777777777779,151.7142857010259L113.85111111111111,151.7142857010259L114.80444444444444,151.7142857010259L114.92,151.7142857010259L115.03555555555555,151.7142857010259L115.28111111111112,151.7142857010259L115.41111111111111,151.7142857010259L115.51222222222222,151.7142857010259L115.5988888888889,151.7142857129597L115.68555555555555,151.7142857129597L116.20555555555555,151.7142857129597L116.32111111111111,151.7142857129597L116.68222222222222,151.7142857129597L116.69666666666666,151.7142857129597L117.1588888888889,151.7142857129597L117.18777777777778,151.7142857129597L117.47666666666666,151.7142857129597L117.5488888888889,151.7142857129597L117.57777777777778,151.7142857129597L117.60666666666665,151.7142857129597L117.98222222222222,151.7142857129597L118.51666666666667,151.7142857129597L118.60333333333334,151.7142857129597L118.80555555555556,151.7142857129597L119.06555555555555,151.7142857129597L119.58555555555556,151.7142857129597L119.61444444444444,151.7142857129597L119.71555555555555,151.7142857129597L119.84555555555555,151.7142857129597L119.8888888888889,151.7142857129597L120.29333333333334,151.7142857129597L120.35111111111111,151.7142857129597L120.38000000000001,151.7142857129597L120.56777777777778,151.7142857129597L120.72666666666666,151.7142857129597L120.74111111111111,151.7142857129597L120.81333333333333,151.7142857129597L120.88555555555556,151.7142857129597L121.42,151.7142857129597L121.68,151.7142857129597L121.95444444444445,151.7142857129597L122.18555555555555,151.7142857129597L122.38777777777777,151.7142857129597L122.64777777777778,151.7142857129597L122.69111111111111,151.7142857129597L123.18222222222222,151.7142857141531L123.22555555555556,151.7142857141531L123.35555555555555,151.7142857141531L123.44222222222223,151.7142857141531L123.51444444444445,151.7142857141531L123.70222222222223,151.7142857141531L123.77444444444444,151.7142857141531L124.00555555555556,151.7142857141531L124.07777777777778,151.7142857141531L124.14999999999999,151.7142857141531L124.20777777777778,151.7142857141531L124.43888888888888,151.7142857141531L124.92999999999999,151.7142857141531L125.27666666666667,151.7142857141531L125.88333333333334,151.7142857141531L125.95555555555556,151.7142857141531L126.1,151.7142857141531L126.15777777777778,151.7142857141531L126.38888888888889,151.7142857141531L126.54777777777778,151.7142857141531L126.89444444444445,151.7142857141531L127.14,151.7142857141531L127.41444444444446,151.7142857141531L127.71777777777778,151.7142857141531L127.74666666666667,151.7142857141531L127.83333333333333,151.7142857141531L127.96333333333332,151.7142857141531L128.19444444444446,151.7142857141531L128.7577777777778,151.7142857141531L128.78666666666666,151.7142857141531L128.83,151.7142857141531L128.98888888888888,151.7142857141531L129.09,151.7142857141531L129.63888888888889,151.7142857141531L129.87,151.7142857141531L129.94222222222223,151.7142857141531L129.9711111111111,151.7142857141531L130.26,151.71428571427245L130.4188888888889,151.71428571427245L130.63555555555556,151.71428571427245L130.78,151.71428571427245L131.69,151.71428571427245L131.73333333333335,151.71428571427245L131.82,151.71428571427245L132.36888888888888,151.71428571427245L132.55666666666667,151.71428571427245L132.5711111111111,151.71428571427245L132.6,151.71428571427245L132.68666666666667,151.71428571427245L132.73,151.71428571427245L132.98999999999998,151.71428571427245L133.25,151.71428571427245L133.59666666666666,151.71428571427245L133.65444444444447,151.71428571427245L133.82777777777778,151.71428571427245L133.95777777777778,151.71428571427245L134.4488888888889,151.71428571427245L134.82444444444445,151.71428571427245L134.88222222222223,151.71428571427245L134.9111111111111,151.71428571427245L135.0988888888889,151.71428571427245L135.1711111111111,151.71428571427245L135.3011111111111,151.71428571427245L135.5611111111111,151.71428571427245L136.12444444444444,151.71428571427245L136.28333333333333,151.71428571427245L136.29777777777778,151.71428571427245L136.70222222222222,151.71428571427245L136.76000000000002,151.71428571427245L136.7888888888889,151.71428571427245L136.96222222222224,151.71428571427245L137.30888888888887,151.7142857142844L137.48222222222222,151.7142857142844L137.5977777777778,151.7142857142844L137.68444444444444,151.7142857142844L137.84333333333333,151.7142857142844L137.9588888888889,151.7142857142844L137.98777777777778,151.7142857142844L138.07444444444442,151.7142857142844L138.56555555555556,151.7142857142844L138.69555555555556,151.7142857142844L138.72444444444446,151.7142857142844L138.76777777777778,151.7142857142844L139.21555555555554,151.7142857142844L139.23,151.7142857142844L139.30222222222224,151.7142857142844L139.53333333333333,151.7142857142844L139.54777777777778,151.7142857142844L140.41444444444443,151.7142857142844L140.50111111111113,151.7142857142844L140.54444444444445,151.7142857142844L140.92000000000002,151.7142857142844L140.9922222222222,151.7142857142844L141.4688888888889,151.7142857142844L141.48333333333335,151.7142857142844L141.8588888888889,151.7142857142844L142.10444444444445,151.7142857142844L142.16222222222223,151.7142857142844L142.2777777777778,151.7142857142844L142.35,151.7142857142844L142.36444444444444,151.7142857142844L142.45111111111112,151.7142857142844L142.74,151.7142857142844L142.92777777777778,151.7142857142844L143.01444444444442,151.7142857142844L143.37555555555554,151.7142857142844L143.41888888888892,151.7142857142844L144.24222222222224,151.7142857142844L144.87777777777777,151.71428571428558L144.90666666666667,151.71428571428558L145.10888888888888,151.71428571428558L145.22444444444446,151.71428571428558L145.55666666666664,151.71428571428558L145.57111111111112,151.71428571428558L145.8311111111111,151.71428571428558L146.20666666666668,151.71428571428558L146.52444444444444,151.71428571428558L146.79888888888888,151.71428571428558L146.81333333333333,151.71428571428558L147.21777777777777,151.71428571428558L147.33333333333334,151.71428571428558L147.3477777777778,151.71428571428558L147.56444444444446,151.71428571428558L147.75222222222223,151.71428571428558L147.76666666666668,151.71428571428558L148.1277777777778,151.71428571428558L148.44555555555556,151.71428571428558L148.53222222222223,151.71428571428558L148.57555555555555,151.71428571428558L148.64777777777778,151.71428571428558L148.72,151.71428571428558L148.79222222222222,151.71428571428558L149.48555555555558,151.71428571428558L149.5288888888889,151.71428571428558L149.6877777777778,151.71428571428558L149.89000000000001,151.71428571428558L150.17888888888888,151.71428571428558L150.3811111111111,151.71428571428558L150.45333333333332,151.71428571428558L151.04555555555555,151.71428571428558L151.10333333333335,151.71428571428558L151.53666666666666,151.71428571428558L151.72444444444446,151.7142857142857L151.97,151.7142857142857L152.1,151.7142857142857L152.35999999999999,151.7142857142857L152.4466666666667,151.7142857142857L152.57666666666665,151.7142857142857L153.19777777777776,151.7142857142857L153.3711111111111,151.7142857142857L153.4,151.7142857142857L153.5011111111111,151.7142857142857L153.9633333333333,151.7142857142857L154.0211111111111,151.7142857142857L154.4688888888889,151.7142857142857L154.55555555555554,151.7142857142857L154.81555555555556,151.7142857142857L154.9022222222222,151.7142857142857L155.30666666666667,151.7142857142857L155.33555555555554,151.7142857142857L155.65333333333334,151.7142857142857L155.6822222222222,151.7142857142857L155.82666666666668,151.7142857142857L155.98555555555555,151.7142857142857L156.33222222222224,151.7142857142857L156.47666666666666,151.7142857142857L156.9388888888889,151.7142857142857L157.01111111111112,151.7142857142857L157.11222222222221,151.7142857142857L157.2711111111111,151.7142857142857L157.35777777777778,151.7142857142857L157.69,151.7142857142857L157.7477777777778,151.7142857142857L158.0222222222222,151.7142857142857L158.39777777777778,151.7142857142857L158.45555555555555,151.7142857142857L158.58555555555554,151.7142857142857L158.67222222222222,151.7142857142857L158.74444444444444,151.7142857142857L158.97555555555556,151.7142857142857L159.36555555555555,151.7142857142857L159.59666666666666,151.7142857142857L159.72666666666666,151.7142857142857L159.82777777777775,151.7142857142857L159.9,151.7142857142857L160.57888888888888,151.7142857142857L160.63666666666666,151.7142857142857L161.08444444444444,151.7142857142857L161.2577777777778,151.7142857142857L161.63333333333335,151.7142857142857L161.67666666666668,151.7142857142857L161.77777777777777,151.7142857142857L161.82111111111112,151.7142857142857L161.89333333333335,151.7142857142857L161.95111111111112,151.7142857142857L162.09555555555556,151.7142857142857L162.15333333333334,151.7142857142857L162.26888888888888,151.7142857142857L162.52888888888887,151.7142857142857L163.09222222222223,151.7142857142857L163.26555555555555,151.7142857142857L163.29444444444445,151.7142857142857L163.39555555555557,151.7142857142857L163.54,151.7142857142857L163.55444444444444,151.7142857142857L163.61222222222224,151.7142857142857L163.6988888888889,151.7142857142857L163.7422222222222,151.7142857142857L163.87222222222223,151.7142857142857L163.97333333333336,151.7142857142857L164.07444444444445,151.7142857142857L164.1611111111111,151.7142857142857L164.17555555555558,151.7142857142857L164.26222222222222,151.7142857142857L164.33444444444444,151.7142857142857L164.4788888888889,151.7142857142857L164.62333333333333,151.7142857142857L164.92666666666665,151.7142857142857L165.2588888888889,151.7142857142857L165.28777777777776,151.7142857142857L165.47555555555556,151.7142857142857L165.67777777777778,151.7142857142857L165.70666666666665,151.7142857142857L165.9377777777778,151.7142857142857L165.95222222222225,151.7142857142857L165.96666666666667,151.7142857142857L166.4,151.7142857142857L166.66,151.7142857142857L166.79,151.7142857142857L166.92000000000002,151.7142857142857L167.06444444444443,151.7142857142857L167.13666666666668,151.7142857142857L167.45444444444445,151.7142857142857L167.57,151.7142857142857L167.65666666666667,151.7142857142857L167.84444444444443,151.7142857142857L168.32111111111112,151.7142857142857L168.5811111111111,151.7142857142857L168.59555555555556,151.7142857142857L168.63888888888889,151.7142857142857L168.82666666666665,151.7142857142857L168.88444444444445,151.7142857142857L169.0577777777778,151.7142857142857L169.07222222222222,151.7142857142857L169.17333333333332,151.7142857142857L169.52,151.7142857142857L169.54888888888888,151.7142857142857L169.76555555555555,151.7142857142857L169.78,151.7142857142857L170.04000000000002,151.7142857142857L170.2711111111111,151.7142857142857L170.41555555555556,151.7142857142857L170.63222222222223,151.7142857142857L170.7911111111111,151.7142857142857L170.9788888888889,151.7142857142857L171.16666666666666,151.7142857142857L171.41222222222223,151.7142857142857L171.51333333333332,151.7142857142857L171.80222222222224,151.7142857142857L171.94666666666666,151.7142857142857L172.12,151.7142857142857L172.13444444444443,151.7142857142857L172.58222222222224,151.7142857142857L172.5966666666667,151.7142857142857L172.61111111111111,151.7142857142857L172.75555555555553,151.7142857142857L172.94333333333333,151.7142857142857L173.03,151.7142857142857L173.14555555555555,151.7142857142857L173.23222222222222,151.7142857142857L174.24333333333334,151.7142857142857L174.63333333333333,151.7142857142857L175.0811111111111,151.7142857142857L175.15333333333334,151.7142857142857L175.32666666666668,151.7142857142857L176.06333333333333,151.7142857142857L176.0922222222222,151.7142857142857L176.33777777777777,151.7142857142857L176.4388888888889,151.7142857142857L176.58333333333334,151.7142857142857L177.21888888888887,151.7142857142857L177.30555555555557,151.7142857142857L177.37777777777777,151.7142857142857L177.60888888888888,151.7142857142857L178.18666666666667,151.7142857142857L178.27333333333334,151.7142857142857L178.31666666666666,151.7142857142857L178.3311111111111,151.7142857142857L179.03888888888886,151.7142857142857L179.1688888888889,151.7142857142857L179.32777777777778,151.7142857142857L179.76111111111112,151.7142857142857L179.8477777777778,151.7142857142857L179.86222222222224,151.7142857142857L179.9488888888889,151.7142857142857L180.57,151.7142857142857L180.81555555555556,151.7142857142857L181.14777777777778,151.7142857142857L181.29222222222222,151.7142857142857L181.43666666666667,151.7142857142857L181.61,151.7142857142857L181.72555555555556,151.7142857142857L181.94222222222223,151.7142857142857L182.20222222222225,151.7142857142857L182.47666666666666,151.7142857142857L182.6211111111111,151.7142857142857L182.65,151.7142857142857L183.54555555555555,151.7142857142857L183.69,151.7142857142857L183.79111111111112,151.7142857142857L183.86333333333334,151.7142857142857L184.09444444444443,151.7142857142857L184.19555555555556,151.7142857142857L184.21,151.7142857142857L184.38333333333333,151.7142857142857L184.47,151.7142857142857L185.01888888888888,151.7142857142857L185.49555555555554,151.7142857142857L185.97222222222223,151.7142857142857L186.29000000000002,151.7142857142857L186.3477777777778,151.7142857142857L187.4311111111111,151.7142857142857L187.61888888888888,151.7142857142857L188.09555555555556,151.7142857142857L188.11,151.7142857142857L188.1822222222222,151.7142857142857L188.29777777777778,151.7142857142857L188.55777777777777,151.7142857142857L188.71666666666667,151.7142857142857L189.13555555555556,151.7142857142857L189.48222222222222,151.7142857142857L189.5688888888889,151.7142857142857L189.58333333333331,151.7142857142857L189.67000000000002,151.7142857142857L189.6988888888889,151.7142857142857L190.07444444444445,151.7142857142857L190.23333333333335,151.7142857142857L190.7822222222222,151.7142857142857L190.84,151.7142857142857L190.92666666666665,151.7142857142857L191.0277777777778,151.7142857142857L191.04222222222222,151.7142857142857L191.21555555555557,151.7142857142857L191.47555555555556,151.7142857142857L191.88,151.7142857142857L192.0388888888889,151.7142857142857L192.35666666666668,151.7142857142857L192.54444444444442,151.7142857142857L192.5588888888889,151.7142857142857L192.67444444444445,151.7142857142857L192.84777777777776,151.7142857142857L193.03555555555556,151.7142857142857L193.46888888888887,151.7142857142857L193.61333333333334,151.7142857142857L193.65666666666667,151.7142857142857L193.68555555555554,151.7142857142857L194.17666666666668,151.7142857142857L194.24888888888887,151.7142857142857L194.27777777777777,151.7142857142857L194.39333333333335,151.7142857142857L194.43666666666667,151.7142857142857L194.46555555555554,151.7142857142857L194.52333333333334,151.7142857142857L194.82666666666665,151.7142857142857L194.85555555555555,151.7142857142857L195.04333333333332,151.7142857142857L195.37555555555556,151.7142857142857L195.39,151.7142857142857L195.80888888888887,151.7142857142857L196.01111111111112,151.7142857142857L196.12666666666667,151.7142857142857L196.60333333333332,151.7142857142857L197.06555555555556,151.7142857142857L197.74444444444444,151.7142857142857L197.83111111111108,151.7142857142857L198.07666666666668,151.7142857142857L198.40888888888887,151.7142857142857L198.6111111111111,151.7142857142857L198.6977777777778,151.7142857142857L198.78444444444443,151.7142857142857L198.82777777777778,151.7142857142857L198.95777777777778,151.7142857142857L199.10222222222222,151.7142857142857L199.1311111111111,151.7142857142857L199.57888888888888,151.7142857142857L199.60777777777778,151.7142857142857L199.66555555555556,151.7142857142857L199.85333333333335,151.7142857142857L199.96888888888887,151.7142857142857L200.01222222222222,151.7142857142857L200.07,151.7142857142857L200.3011111111111,151.7142857142857L200.4311111111111,151.7142857142857L200.51777777777778,151.7142857142857L200.59,151.7142857142857L201.0377777777778,151.7142857142857L201.0522222222222,151.7142857142857L201.12444444444444,151.7142857142857L201.37,151.7142857142857L201.57222222222222,151.7142857142857L201.58666666666667,151.7142857142857L201.7888888888889,151.7142857142857L201.8177777777778,151.7142857142857L201.89,151.7142857142857L202.15,151.7142857142857L202.39555555555557,151.7142857142857L202.48222222222222,151.7142857142857L202.61222222222221,151.7142857142857L202.9011111111111,151.7142857142857L203.04555555555555,151.7142857142857L203.13222222222223,151.7142857142857L203.20444444444445,151.7142857142857L203.32,151.7142857142857L204.17222222222222,151.7142857142857L204.47555555555553,151.7142857142857L204.64888888888888,151.7142857142857L204.75,151.7142857142857L204.80777777777777,151.7142857142857L205.25555555555553,151.7142857142857L205.61666666666667,151.7142857142857L205.66,151.7142857142857L205.77555555555554,151.7142857142857L206.00666666666666,151.7142857142857L206.13666666666666,151.7142857142857L206.58444444444444,151.7142857142857L206.61333333333332,151.7142857142857L206.67111111111112,151.7142857142857L206.7577777777778,151.7142857142857L206.78666666666666,151.7142857142857L206.8011111111111,151.7142857142857L207.20555555555555,151.7142857142857L207.33555555555554,151.7142857142857L207.40777777777777,151.7142857142857L207.5088888888889,151.7142857142857L207.56666666666666,151.7142857142857L207.91333333333333,151.7142857142857L207.9711111111111,151.7142857142857L208,151.7142857142857L208.30333333333334,151.7142857142857L208.31777777777776,151.7142857142857L208.3322222222222,151.7142857142857L208.53444444444443,151.7142857142857L208.62111111111113,151.7142857142857L208.70777777777778,151.7142857142857L208.7511111111111,151.7142857142857L209.09777777777776,151.7142857142857L209.12666666666667,151.7142857142857L209.15555555555554,151.7142857142857L209.76222222222222,151.7142857142857L210.22444444444446,151.7142857142857L210.90333333333334,151.7142857142857L211.49555555555554,151.7142857142857L211.58222222222224,151.7142857142857L211.65444444444444,151.7142857142857L211.7122222222222,151.7142857142857L212.03,151.7142857142857L212.13111111111112,151.7142857142857L212.4488888888889,151.7142857142857L212.72333333333336,151.7142857142857L213.51777777777778,151.7142857142857L213.64777777777778,151.7142857142857L214.45666666666665,151.7142857142857L214.61555555555555,151.7142857142857L215.23666666666665,151.7142857142857L215.29444444444445,151.7142857142857L215.35222222222222,151.7142857142857L215.54,151.7142857142857L215.85777777777778,151.7142857142857L216.26222222222222,151.7142857142857L216.32,151.7142857142857L216.3488888888889,151.7142857142857L216.39222222222222,151.7142857142857L216.62333333333333,151.7142857142857L216.8111111111111,151.7142857142857L216.92666666666668,151.7142857142857L216.98444444444445,151.7142857142857L217.01333333333332,151.7142857142857L217.07111111111112,151.7142857142857L217.18666666666667,151.7142857142857L217.2011111111111,151.7142857142857L217.2588888888889,151.7142857142857L217.34555555555556,151.7142857142857L217.35999999999999,151.7142857142857L217.93777777777777,151.7142857142857L217.99555555555554,151.7142857142857L219.38222222222223,151.7142857142857L219.52666666666667,151.7142857142857L219.7,151.7142857142857L219.94555555555556,151.7142857142857L220.04666666666668,151.7142857142857L220.17666666666668,151.7142857142857L220.27777777777777,151.7142857142857L220.43666666666667,151.7142857142857L220.92777777777778,151.7142857142857L221.05777777777777,151.7142857142857L221.70777777777778,151.7142857142857L222.2711111111111,151.7142857142857L222.47333333333333,151.7142857142857L222.70444444444445,151.7142857142857L223.23888888888888,151.7142857142857L223.61444444444444,151.7142857142857L223.77333333333334,151.7142857142857L224.20666666666665,151.7142857142857L224.33666666666667,151.7142857142857L224.35111111111112,151.7142857142857L224.61111111111111,151.7142857142857L224.72666666666666,151.7142857142857L224.98666666666665,151.7142857142857L225.16,151.7142857142857L225.21777777777777,151.7142857142857L225.66555555555556,151.7142857142857L225.94,151.7142857142857L225.96888888888887,151.7142857142857L225.99777777777777,151.7142857142857L226.01222222222222,151.7142857142857L226.2,151.7142857142857L226.80666666666664,151.7142857142857L227.00888888888886,151.7142857142857L227.29777777777778,151.7142857142857L227.63,151.7142857142857L227.94777777777776,151.7142857142857L228.25111111111113,151.7142857142857L228.67,151.7142857142857L228.92999999999998,151.7142857142857L229.19,151.7142857142857L229.29111111111112,151.7142857142857L229.5222222222222,151.7142857142857L229.73888888888888,151.7142857142857L229.89777777777778,151.7142857142857L230.1,151.7142857142857L230.54777777777778,151.7142857142857L230.69222222222223,151.7142857142857L230.82222222222222,151.7142857142857L231.1977777777778,151.7142857142857L231.61666666666667,151.7142857142857L231.77555555555557,151.7142857142857L232.10777777777778,151.7142857142857" style="fill: none;" fill="none"></path></g></g></g></g></g></g><g transform="translate(70, 177)" clip-path="url(#clip_1)"><clipPath id="clip_1"><rect width="260" height="23"></rect></clipPath><g><g><line x1="0" y1="0" x2="0" y2="5" style="visibility: inherit;" fill="rgb(0, 0, 0)" stroke="rgb(204, 204, 204)" stroke-width="1px"></line><line x1="28.888888888888886" y1="0" x2="28.888888888888886" y2="5" style="visibility: inherit;" fill="rgb(0, 0, 0)" stroke="rgb(204, 204, 204)" stroke-width="1px"></line><line x1="57.77777777777777" y1="0" x2="57.77777777777777" y2="5" style="visibility: inherit;" fill="rgb(0, 0, 0)" stroke="rgb(204, 204, 204)" stroke-width="1px"></line><line x1="86.66666666666666" y1="0" x2="86.66666666666666" y2="5" style="visibility: inherit;" fill="rgb(0, 0, 0)" stroke="rgb(204, 204, 204)" stroke-width="1px"></line><line x1="115.55555555555554" y1="0" x2="115.55555555555554" y2="5" style="visibility: inherit;" fill="rgb(0, 0, 0)" stroke="rgb(204, 204, 204)" stroke-width="1px"></line><line x1="144.44444444444446" y1="0" x2="144.44444444444446" y2="5" style="visibility: inherit;" fill="rgb(0, 0, 0)" stroke="rgb(204, 204, 204)" stroke-width="1px"></line><line x1="173.33333333333331" y1="0" x2="173.33333333333331" y2="5" style="visibility: inherit;" fill="rgb(0, 0, 0)" stroke="rgb(204, 204, 204)" stroke-width="1px"></line><line x1="202.22222222222223" y1="0" x2="202.22222222222223" y2="5" style="visibility: inherit;" fill="rgb(0, 0, 0)" stroke="rgb(204, 204, 204)" stroke-width="1px"></line><line x1="231.1111111111111" y1="0" x2="231.1111111111111" y2="5" style="visibility: inherit;" fill="rgb(0, 0, 0)" stroke="rgb(204, 204, 204)" stroke-width="1px"></line><line x1="260" y1="0" x2="260" y2="5" style="visibility: inherit;" fill="rgb(0, 0, 0)" stroke="rgb(204, 204, 204)" stroke-width="1px"></line></g><g transform="translate(0, 8)"><text x="0" y="0" dx="0em" dy="0.95em" style="text-anchor: middle; visibility: hidden; font-family: Roboto, sans-serif; font-size: 12px; font-weight: 200;" fill="rgb(33, 33, 33)" stroke="none" stroke-width="1px">-2k</text><text x="28.888888888888886" y="0" dx="0em" dy="0.95em" style="text-anchor: middle; visibility: inherit; font-family: Roboto, sans-serif; font-size: 12px; font-weight: 200;" fill="rgb(33, 33, 33)" stroke="none" stroke-width="1px">0</text><text x="57.77777777777777" y="0" dx="0em" dy="0.95em" style="text-anchor: middle; visibility: inherit; font-family: Roboto, sans-serif; font-size: 12px; font-weight: 200;" fill="rgb(33, 33, 33)" stroke="none" stroke-width="1px">2k</text><text x="86.66666666666666" y="0" dx="0em" dy="0.95em" style="text-anchor: middle; visibility: inherit; font-family: Roboto, sans-serif; font-size: 12px; font-weight: 200;" fill="rgb(33, 33, 33)" stroke="none" stroke-width="1px">4k</text><text x="115.55555555555554" y="0" dx="0em" dy="0.95em" style="text-anchor: middle; visibility: inherit; font-family: Roboto, sans-serif; font-size: 12px; font-weight: 200;" fill="rgb(33, 33, 33)" stroke="none" stroke-width="1px">6k</text><text x="144.44444444444446" y="0" dx="0em" dy="0.95em" style="text-anchor: middle; visibility: inherit; font-family: Roboto, sans-serif; font-size: 12px; font-weight: 200;" fill="rgb(33, 33, 33)" stroke="none" stroke-width="1px">8k</text><text x="173.33333333333331" y="0" dx="0em" dy="0.95em" style="text-anchor: middle; visibility: inherit; font-family: Roboto, sans-serif; font-size: 12px; font-weight: 200;" fill="rgb(33, 33, 33)" stroke="none" stroke-width="1px">10k</text><text x="202.22222222222223" y="0" dx="0em" dy="0.95em" style="text-anchor: middle; visibility: inherit; font-family: Roboto, sans-serif; font-size: 12px; font-weight: 200;" fill="rgb(33, 33, 33)" stroke="none" stroke-width="1px">12k</text><text x="231.1111111111111" y="0" dx="0em" dy="0.95em" style="text-anchor: middle; visibility: inherit; font-family: Roboto, sans-serif; font-size: 12px; font-weight: 200;" fill="rgb(33, 33, 33)" stroke="none" stroke-width="1px">14k</text><text x="260" y="0" dx="0em" dy="0.95em" style="text-anchor: middle; visibility: hidden; font-family: Roboto, sans-serif; font-size: 12px; font-weight: 200;" fill="rgb(33, 33, 33)" stroke="none" stroke-width="1px">16k</text></g><line x1="0" y1="0" x2="260" y2="0" fill="rgb(0, 0, 0)" stroke="rgb(204, 204, 204)" stroke-width="1px"></line></g></g></g></g></svg>