<svg viewBox="0 0 330 200" xmlns="http://www.w3.org/2000/svg"><g><g><g><g><g><line x1="51.5625" y1="177" x2="46.5625" y2="177" style="visibility: inherit;" fill="rgb(0, 0, 0)" stroke="rgb(204, 204, 204)" stroke-width="1px"></line><line x1="51.5625" y1="154.875" x2="46.5625" y2="154.875" style="visibility: inherit;" fill="rgb(0, 0, 0)" stroke="rgb(204, 204, 204)" stroke-width="1px"></line><line x1="51.5625" y1="132.75" x2="46.5625" y2="132.75" style="visibility: inherit;" fill="rgb(0, 0, 0)" stroke="rgb(204, 204, 204)" stroke-width="1px"></line><line x1="51.5625" y1="110.625" x2="46.5625" y2="110.625" style="visibility: inherit;" fill="rgb(0, 0, 0)" stroke="rgb(204, 204, 204)" stroke-width="1px"></line><line x1="51.5625" y1="88.49999999999999" x2="46.5625" y2="88.49999999999999" style="visibility: inherit;" fill="rgb(0, 0, 0)" stroke="rgb(204, 204, 204)" stroke-width="1px"></line><line x1="51.5625" y1="66.375" x2="46.5625" y2="66.375" style="visibility: inherit;" fill="rgb(0, 0, 0)" stroke="rgb(204, 204, 204)" stroke-width="1px"></line><line x1="51.5625" y1="44.25" x2="46.5625" y2="44.25" style="visibility: inherit;" fill="rgb(0, 0, 0)" stroke="rgb(204, 204, 204)" stroke-width="1px"></line><line x1="51.5625" y1="22.12499999999998" x2="46.5625" y2="22.12499999999998" style="visibility: inherit;" fill="rgb(0, 0, 0)" stroke="rgb(204, 204, 204)" stroke-width="1px"></line><line x1="51.5625" y1="0" x2="46.5625" y2="0" style="visibility: inherit;" fill="rgb(0, 0, 0)" stroke="rgb(204, 204, 204)" stroke-width="1px"></line></g><g transform="translate(41.5625, 0)"><text x="0" y="177" dx="0em" dy="0.3em" style="text-anchor: end; visibility: hidden; font-family: Roboto, sans-serif; font-size: 12px; font-weight: 200;" fill="rgb(33, 33, 33)" stroke="none" stroke-width="1px">0.03</text><text x="0" y="154.875" dx="0em" dy="0.3em" style="text-anchor: end; visibility: inherit; font-family: Roboto, sans-serif; font-size: 12px; font-weight: 200;" fill="rgb(33, 33, 33)" stroke="none" stroke-width="1px">0.04</text><text x="0" y="132.75" dx="0em" dy="0.3em" style="text-anchor: end; visibility: hidden; font-family: Roboto, sans-serif; font-size: 12px; font-weight: 200;" fill="rgb(33, 33, 33)" stroke="none" stroke-width="1px">0.05</text><text x="0" y="110.625" dx="0em" dy="0.3em" style="text-anchor: end; visibility: inherit; font-family: Roboto, sans-serif; font-size: 12px; font-weight: 200;" fill="rgb(33, 33, 33)" stroke="none" stroke-width="1px">0.06</text><text x="0" y="88.49999999999999" dx="0em" dy="0.3em" style="text-anchor: end; visibility: hidden; font-family: Roboto, sans-serif; font-size: 12px; font-weight: 200;" fill="rgb(33, 33, 33)" stroke="none" stroke-width="1px">0.07</text><text x="0" y="66.375" dx="0em" dy="0.3em" style="text-anchor: end; visibility: inherit; font-family: Roboto, sans-serif; font-size: 12px; font-weight: 200;" fill="rgb(33, 33, 33)" stroke="none" stroke-width="1px">0.08</text><text x="0" y="44.25" dx="0em" dy="0.3em" style="text-anchor: end; visibility: hidden; font-family: Roboto, sans-serif; font-size: 12px; font-weight: 200;" fill="rgb(33, 33, 33)" stroke="none" stroke-width="1px">0.09</text><text x="0" y="22.12499999999998" dx="0em" dy="0.3em" style="text-anchor: end; visibility: inherit; font-family: Roboto, sans-serif; font-size: 12px; font-weight: 200;" fill="rgb(33, 33, 33)" stroke="none" stroke-width="1px">0.1</text><text x="0" y="0" dx="0em" dy="0.3em" style="text-anchor: end; visibility: hidden; font-family: Roboto, sans-serif; font-size: 12px; font-weight: 200;" fill="rgb(33, 33, 33)" stroke="none" stroke-width="1px">0.11</text></g><line x1="51.5625" y1="0" x2="51.5625" y2="177" fill="rgb(0, 0, 0)" stroke="rgb(204, 204, 204)" stroke-width="1px"></line></g></g><g transform="translate(51, 0)" clip-path="url(#clip_0)"><clipPath id="clip_0"><rect width="278" height="177"></rect></clipPath><g><g><g><line x1="0" y1="0" x2="0" y2="177" fill="rgb(0, 0, 0)" stroke="rgb(66, 66, 66)" stroke-width="1px" opacity="0.25"></line><line x1="30.9375" y1="0" x2="30.9375" y2="177" fill="rgb(0, 0, 0)" stroke="rgb(66, 66, 66)" stroke-width="1px" opacity="0.25"></line><line x1="61.875" y1="0" x2="61.875" y2="177" fill="rgb(0, 0, 0)" stroke="rgb(66, 66, 66)" stroke-width="1px" opacity="0.25"></line><line x1="92.8125" y1="0" x2="92.8125" y2="177" fill="rgb(0, 0, 0)" stroke="rgb(66, 66, 66)" stroke-width="1px" opacity="0.25"></line><line x1="123.75" y1="0" x2="123.75" y2="177" fill="rgb(0, 0, 0)" stroke="rgb(66, 66, 66)" stroke-width="1px" opacity="0.25"></line><line x1="154.6875" y1="0" x2="154.6875" y2="177" fill="rgb(0, 0, 0)" stroke="rgb(66, 66, 66)" stroke-width="1px" opacity="0.25"></line><line x1="185.625" y1="0" x2="185.625" y2="177" fill="rgb(0, 0, 0)" stroke="rgb(66, 66, 66)" stroke-width="1px" opacity="0.25"></line><line x1="216.5625" y1="0" x2="216.5625" y2="177" fill="rgb(0, 0, 0)" stroke="rgb(66, 66, 66)" stroke-width="1px" opacity="0.25"></line><line x1="247.5" y1="0" x2="247.5" y2="177" fill="rgb(0, 0, 0)" stroke="rgb(66, 66, 66)" stroke-width="1px" opacity="0.25"></line><line x1="278.4375" y1="0" x2="278.4375" y2="177" fill="rgb(0, 0, 0)" stroke="rgb(66, 66, 66)" stroke-width="1px" opacity="0.25"></line></g><g><line x1="0" y1="177" x2="278.4375" y2="177" fill="rgb(0, 0, 0)" stroke="rgb(66, 66, 66)" stroke-width="1px" opacity="0.25"></line><line x1="0" y1="154.875" x2="278.4375" y2="154.875" fill="rgb(0, 0, 0)" stroke="rgb(66, 66, 66)" stroke-width="1px" opacity="0.25"></line><line x1="0" y1="132.75" x2="278.4375" y2="132.75" fill="rgb(0, 0, 0)" stroke="rgb(66, 66, 66)" stroke-width="1px" opacity="0.25"></line><line x1="0" y1="110.625" x2="278.4375" y2="110.625" fill="rgb(0, 0, 0)" stroke="rgb(66, 66, 66)" stroke-width="1px" opacity="0.25"></line><line x1="0" y1="88.49999999999999" x2="278.4375" y2="88.49999999999999" fill="rgb(0, 0, 0)" stroke="rgb(66, 66, 66)" stroke-width="1px" opacity="0.25"></line><line x1="0" y1="66.375" x2="278.4375" y2="66.375" fill="rgb(0, 0, 0)" stroke="rgb(66, 66, 66)" stroke-width="1px" opacity="0.25"></line><line x1="0" y1="44.25" x2="278.4375" y2="44.25" fill="rgb(0, 0, 0)" stroke="rgb(66, 66, 66)" stroke-width="1px" opacity="0.25"></line><line x1="0" y1="22.12499999999998" x2="278.4375" y2="22.12499999999998" fill="rgb(0, 0, 0)" stroke="rgb(66, 66, 66)" stroke-width="1px" opacity="0.25"></line><line x1="0" y1="0" x2="278.4375" y2="0" fill="rgb(0, 0, 0)" stroke="rgb(66, 66, 66)" stroke-width="1px" opacity="0.25"></line></g></g></g><g><g><line x1="0" y1="243.375" x2="278.4375" y2="243.375" fill="rgb(0, 0, 0)" stroke="rgb(153, 153, 153)" stroke-width="1.5px"></line></g></g><g><g><line x1="30.9375" y1="0" x2="30.9375" y2="177" fill="rgb(0, 0, 0)" stroke="rgb(153, 153, 153)" stroke-width="1.5px"></line></g></g><g><g><g><g><g><path stroke="rgb(255, 112, 67)" stroke-width="2px" d="M35.37703125,-9.201138447169175L35.392500000000005,12.807629519780113L35.438906249999995,-0.014940657869080498L35.76375,-26.395388154271412L35.90296875,0.7774406016585459L35.93390625,-20.605683562173642L37.326093750000005,-41.80939873115408L37.341562499999995,1.295484922983992L38.053124999999994,-87.08679000482714L38.19234375,-5.154587467123666L38.71828125,49.87083564182559L38.99671875,7.669656483314164L39.21328125,36.207524431207304L39.290625,51.68981559445177L39.414375,61.42420998545191L39.491718750000004,22.923631084865367L39.6309375,-0.8852820970514927L40.4353125,-21.755294434964547L40.54359375,33.33992965491041L40.59,61.5828483340976L40.60546875,64.30953687522948L40.71375,51.712943744749204L40.96125,80.530857529149L41.023125,48.576027897109576L41.6109375,24.436087388862727L41.9203125,31.63361861653814L42.21421875,66.32271023311988L42.430781249999995,97.14650094644905L42.678281250000005,96.86031833223483L42.8175,95.38310286958112L42.83296875,129.6505039639697L42.98765625,87.13672575695898L43.18875,-12.091878021709208L43.266093749999996,52.05321107882659L43.38984375,54.52551883803861L43.42078125,66.35271224884458L43.43625,114.48716867980906L43.621875,93.3031493798942L43.85390625,135.13247670276792L44.116875,125.528971642517L44.41078125,122.03535084814605L44.9521875,150.3416864980953L44.983125,65.71448119042496L45.044999999999995,69.31502269988167L45.354375,66.60712561479158L45.601875,89.72139469889369L45.8184375,99.90280254174806L46.01953125,95.38572760367116L46.096875000000004,125.09575008492902L46.591875,75.05823523635408L46.7465625,95.40526402345144L47.055937500000006,75.12612560153511L47.2725,32.5562811330587L47.334375,38.95502799961748L47.44265625,49.95020447053782L47.50453125,55.77223319636748L47.62828124999999,84.86143936113693L47.705625,120.77323561397897L48.1078125,127.75390770800537L48.12328125,141.93513037423864L48.37078125,132.02693102231967L48.49453125,129.99947859553305L48.64921875,92.39816666220311L48.74203125,107.05341995701005L48.88125,138.605920367359L49.08234375,64.65489724452425L49.14421875,123.32995378423558L49.1596875,105.12902424155966L49.23703125,88.27419775825321L49.3453125,112.69817409501422L49.62375,150.88722615963783L50.01046875,156.36698980570776L50.056875000000005,128.16662225390039L50.13421875,113.84317757495977L50.2734375,148.64572837946557L50.50546875,170.87153608760383L50.53640625,175.6811670432159L50.5828125,103.55689493236952L50.7684375,88.83638854871994L50.9540625,88.12190474302058L51.18609375,53.6281425191789L51.294375,44.06549497150354L51.309843750000006,56.956133259552566L51.43359375,30.72330893469921L51.80484375,69.18987198855324L52.0678125,18.50292758754397L52.08328125,-24.78269255094821L52.26890625,47.25232754315081L52.98046875,-10.556398793070663L53.16609375,73.7773091806417L53.475468750000005,113.12822670122655L53.58375,124.90210406187578L53.8003125,96.35354830743911L53.8621875,94.93740680767324L53.893125000000005,145.11595930187093L54.573750000000004,99.55778895484319L54.58921875,105.08077570224945L54.635625,129.22883386567318L54.774843749999995,125.67204384076645L55.06875,139.92221353020102L55.26984375,129.89260873833794L55.31625,85.48897279882134L55.455468749999994,110.86098506798567L55.76484375,102.62296750843657L56.01234375,74.65783275336108L56.10515625,118.86209484775415L56.1515625,102.50717800312964L56.507343750000004,97.59942112090424L56.56921875,117.74787856249353L56.60015625,115.05957659920062L56.66203125,120.89174933189157L56.75484375,73.00778343054058L56.832187499999996,64.82156747443915L56.84765625,64.13746254809764L57.0796875,107.60546803500097L57.1725,45.62651913479471L57.20343750000001,30.60044714579284L57.234375,37.87661627542555L57.54375,80.57700342900502L57.899531249999995,73.02502534071772L58.100625,33.18791250753503L58.2553125,70.06659711967768L58.51828125,91.10516099450506L59.50828125,113.42751820723723L60.637499999999996,114.76904882246559L60.77671874999999,97.47361073198499L61.070625,71.57425857515683L61.33359375,94.08825728926986L61.64296875,81.67816330274302L61.8440625,112.63564137163971L62.01421875,64.36512538667449L62.137968750000006,62.5494865395184L63.236250000000005,104.7301782730255L63.406406249999996,62.5316886924525L63.48375,58.60100426809906L63.53015625,105.31963491163803L63.669374999999995,148.39110451957376L63.68484375,136.2561600522446L63.71578125,150.94053724952028L63.932343749999994,128.73671624390772L64.1953125,78.81416819589428L64.24171875,132.0055516584044L65.01515625,132.9797483011082L65.07703125,129.06690065184208L65.29359375,134.05656430941207L65.4328125,153.65900023361374L66.0515625,129.0013551687022L66.34546875,140.56813149227617L66.40734375,149.05221610262345L66.4846875,124.44804709401339L66.9796875,128.83943065477376L67.6603125,125.11485581381896L67.7221875,123.39678175842033L67.815,127.43495590892591L67.876875,109.57540330086447L67.89234375000001,123.39879901137529L67.92328125,129.2530548054074L67.9696875,149.47656474169162L68.17078124999999,145.52681415248554L68.5265625,133.09328780304574L68.805,92.8542730315398L69.16078125,101.65866898470348L69.62484375,137.0855451962246L69.70218750000001,103.39362473433575L69.733125,109.87870912415003L69.84140625,133.67105774454603L69.94968750000001,98.49331403298574L70.24359375,114.22462184294103L70.47562500000001,107.7321807745936L70.80046875,147.73778635025576L70.90875,126.81428764021726L70.92421875000001,99.25394244346818L71.10984375,101.35797597976806L71.35734375,110.1320151516037L72.19265625,126.42716924120408L72.331875,133.16889175113693L72.40921875,128.69718252099548L72.47109375,135.53616517097944L72.65671875,111.43834666497229L72.826875,152.79986054017672L72.93515624999999,167.65948984251636L73.27546875,149.70705627188812L73.30640625,135.46524547657808L73.3528125,124.00795067323111L73.8478125,129.91562453492205L73.940625,135.34726515313218L74.0025,75.62900019973652L74.0953125,106.26636870154822L74.43562499999999,64.80967423140456L74.74499999999999,73.0307670493093L74.8996875,56.98805996979278L75.22453125,99.71993386867642L75.25546875,105.06001119984985L75.27093749999999,111.92263053684711L75.75046875,124.75771509307197L75.796875,-0.8731918561603731L75.87421875000001,59.36239914651835L75.95156250000001,60.61549984697175L76.01343750000001,104.35783664455218L76.1371875,111.6335340653074L76.168125,141.99380811165048L76.40015625000001,147.73234598106308L76.4465625,173.61980089349993L77.09625000000001,178.37650844151344L77.17359375,167.33278606649975L77.29734375,133.4448273126289L77.42109375,147.3569952842L77.68406250000001,88.32320375719088L78.395625,123.50048881830821L78.59671875000001,99.56043802536755L79.09171875,127.67380997590561L79.29281250000001,135.29240785793866L79.4165625,85.61796065274717L79.509375,51.91732740911151L79.91156249999999,75.19339630760136L79.92703125,112.43601632197131L80.1590625,130.02636696743625L80.375625,149.55276949128603L80.42203125,167.0730765770143L80.685,176.5279029937992L80.82421875,29.48392884328419L80.88609375,61.281641486403075L80.97890625,65.83458649999898L81.1490625,82.24771121598485L81.27281249999999,66.62271257762433L81.55125,95.92654408901525L81.613125,119.6780376681065L81.6440625,129.34777462994313L81.675,149.1789323774144L81.7678125,174.0473123857552L82.15453125,154.9128945213064L83.16000000000001,118.65704659470943L83.36109375,135.38807998507633L83.67046875,106.85899072980531L83.840625,89.46262756047041L83.94890625,35.95504327152602L84.32015625,74.74037730416316L84.44390625,70.5721043033639L84.7996875,119.27053964261648L85.1709375,137.8610008373823L85.38749999999999,119.13760500490464L85.55765625,104.19075096899152L85.6659375,107.28511843832659L85.68140625000001,112.51380622611836L85.80515625,109.67669632271763L85.8515625,145.26820966257654L86.315625,106.81838692518477L86.53218749999999,120.77138920749665L86.563125,142.4475036814835L86.73328125,100.873902200462L86.82609375,104.85389297086094L86.85703125,104.06411526875551L87.05812499999999,113.18131002725276L87.35203125000001,132.95417648667762L87.3984375,139.09013769396944L87.56859375,148.6973486423123L87.676875,124.59174374071527L88.0171875,127.31776922391514L88.048125,140.55033149091398L88.28015624999999,121.65019715737103L88.74421875,151.7164461201328L89.11546874999999,134.7559679477452L89.39390625,125.60793235698571L89.47125000000001,153.0122403289332L89.56406249999999,149.401059524593L90.08999999999999,158.57688423551753L90.38390625000001,141.22301312197825L90.52312500000001,131.28133023774373L90.78609374999999,149.19348664430228L91.141875,165.42182853764265L91.17281249999999,159.03054504511337L91.513125,99.77604056845652L92.0390625,87.63135772317975L92.08546874999999,68.35846347284513L92.30203125,89.5755084040594L93.05999999999999,83.10854914980122L93.16828125,81.68700350342387L93.555,20.24093397866603L94.15828125,49.33420653290103L94.52953125,64.90882418243021L94.77703125000001,43.221199223029195L94.8853125,101.60658473141643L94.94718750000001,85.9546789325336L95.0090625,120.27341783923265L95.11734374999999,109.24460302670212L95.1328125,114.75475908818491L95.33390625000001,95.01397662611393L95.3803125,140.8029650358578L95.596875,172.51278705217513L95.7825,163.20933802615448L96.64874999999999,148.38118636051323L97.0509375,153.3362304423124L97.2675,160.18696367987215L97.34484375,117.68093409388196L97.5459375,133.75807238816577L97.7934375,144.69703968509648L97.87078125,164.04474235859283L97.948125,95.68587766311627L98.195625,84.59096887542047L98.4740625,104.01793457095765L98.53593749999999,67.79451009198985L98.58234375,99.49391074517348L99.13921875,74.79599360995873L99.23203124999999,122.04531152768962L99.44859375,136.65852620511671L99.7734375,132.40480996852767L99.78890625,149.97119218445215L99.99,135.40344256214138L100.20656249999999,148.44125621200703L100.45406249999999,147.06666259799064L100.98,130.58855177362952L101.2275,117.40426927000401L101.4440625,148.44643046633968L102.31031250000001,158.61683230430822L102.34125,152.13760166216457L102.44953125,150.21576647742725L102.78984374999999,160.3322319695898L102.89812500000001,156.27875181567956L102.97546875,146.39456328247363L103.021875,70.33257697519284L103.03734375,115.86124852223172L103.25390625,117.68309984161242L103.4240625,98.20196629794708L103.54781249999999,123.61310824219746L103.62515624999999,87.11168102451778L103.7334375,78.5081648932613L103.90359375,68.61841226856212L103.95,94.28224291274134L104.1665625,93.43144008141269L104.38312499999999,97.50353193057484L104.92453125,105.90411089299862L105.38859375,131.4930891301557L105.435,105.56984419562367L105.51234375,129.47813960351317L106.1465625,137.8760166261361L106.16203125,80.76382729522982L106.28578125,81.25785412855507L106.3321875,84.3854939473722L106.363125,110.51443573135458L106.486875,73.65869094311192L106.51781249999999,110.80386115836498L106.53328125,99.83057450340627L106.68796875,65.29031647495293L106.7034375,97.9589334756247L106.74984375,118.41420709223222L107.02828125,109.8442134566943L107.105625,117.24600236313584L107.15203125000001,125.00806112481382L107.53875000000001,112.8124305852844L107.6315625,135.47746674931608L107.9409375,121.93247828761675L107.98734375,140.25768096673454L108.1575,126.71840302752234L109.00828125000001,130.77685779620276L109.0546875,127.05573229365983L109.65796875,117.71327839418315L110.02921875,77.35114060118237L110.0446875,107.08147848486567L110.09109375,100.76825736218493L110.26125,124.5309491858113L110.61703125,115.52604902566839L110.7253125,150.74969954472107L110.81812500000001,92.61285832185341L110.98828125000001,96.59631637727496L111.11203125,106.71139434871242L111.26671875,83.40042301653129L111.91640625,20.910575059880617L112.48875000000001,94.34202047047305L112.72078125,114.0835927895146L113.0765625,102.54850686767325L113.15390625,145.77310505690352L113.2003125,146.8037718671988L113.71078125000001,157.04848359456244L113.78812500000001,149.76874914500468L113.8190625,153.05366374318808L114.39140625,158.37543140435227L114.45328125,35.229171404743234L114.48421875000001,91.11465775750818L114.68531250000001,99.46327259262051L114.70078125,112.84978876557734L114.73171875,126.94551160810462L114.76265625,77.52076983081143L114.97921875,80.56043014303947L115.47421874999999,116.97884344384731L115.65984375,116.66484551847375L115.72171875,69.22861116063831L116.15484375000001,89.18978080038568L116.27859375,91.31753250738586L116.5725,114.88396037090186L116.74265625000001,114.94524445440389L116.758125,107.25781950238954L117.23765625,146.7462208465255L118.53703125,143.0560033661435L119.2021875,136.13191770343838L119.40328125,75.15081064599072L119.58890625,70.73867867259574L119.61984375,116.1395004257166L119.6971875,98.93891213623304L119.72812499999999,115.96904314629805L119.9446875,111.72294251216991L120.20765625,107.18225767072165L120.26953125,120.31255189094618L120.36234375,149.02671056509718L120.79546875,137.1203091764194L120.8728125,146.92540198184503L121.1203125,159.63679464156897L121.4296875,139.40383734178823L121.50703125,118.90658929420876L121.89375,136.7713801292978L121.955625,136.2515006857158L122.4196875,156.44540375826008L122.49703125,123.2927314928606L122.58984375,61.585548376526496L122.821875,71.35387692033414L122.89921875,101.16149889188507L123.30140625,106.97212233175335L123.39421875,128.1930044630438L123.62625,2.185525920347557L123.90468750000001,40.78053135356675L124.10578125,19.37792707044705L124.13671875000001,-14.624705034143775L124.63171875,53.90896148151334L124.87921875,44.81795644859178L124.925625,96.45741588383736L125.3896875,114.91925380012286L125.52890624999999,90.97928028482728L125.72999999999999,123.51059949206433L125.7609375,150.99591548141612L126.27140625,64.98561716614232L126.30234375,103.77009907015004L126.75093749999999,112.19971602572703L127.07578125,125.50017892294349L127.29234375,150.02970930545465L127.66359375,165.3636279522415L127.72546874999999,141.24852913135504L127.9575,160.4812567126853L128.4215625,127.83724399907011L128.7928125,105.28750659377944L128.80828125,135.02352248043758L128.87015625,130.04098666182722L128.97843749999998,142.6570018513296L129.07125,118.03392398257816L129.30328125,146.54288815796232L129.6590625,136.67441187554513L129.72093750000002,90.47676379533955L129.89109375,89.0148853871366L129.95296875,124.21154625307862L129.98390625,132.66003274152484L130.5253125,124.68386072951441L130.8346875,118.02927714981365L130.94296875,73.52555968402463L131.00484375,85.98241339050911L131.31421874999998,98.9180149118494L131.49984375,134.40908529902347L131.5153125,137.63302487608698L131.93296875,139.49723756895605L131.979375,150.11594801447478L132.1340625,163.6448549255084L132.3196875,142.28390914942926L132.33515625,127.06926890460318L133.0621875,114.51424638478557L133.20140625,144.27465279466568L133.4334375,166.56306313874816L133.47984375,162.8153240883499L133.51078125,164.5573551053792L133.5571875,141.39456218153177L133.7428125,94.10378495854103L134.31515625,95.02665753514744L134.43890625,127.92272342429267L134.454375,109.27314146867816L134.46984375,138.38890782303469L134.50078125000002,149.4739821839741L134.64000000000001,105.11313781967233L134.68640625,58.38340305137915L135.21234375,97.74226193933656L135.49078125,122.4908837269781L136.91390625,140.30009299165238L137.115,89.9618838542475L137.2696875,86.22071508549293L137.40890625,95.52998264868641L137.50171875,131.2064217924451L138.46078125,126.37546822424977L138.80109375,88.9869417831078L139.1259375,61.75065140782445L139.20328125,72.49299948280243L139.48171875,116.93769231581801L139.72921875,118.87070975389548L139.80656249999998,86.07381678483765L139.88390625,133.95070031873513L139.9921875,134.8016048392184L140.53359375,122.88010697934197L140.641875,116.92191584705215L140.70374999999999,97.89825759708225L141.46171875000002,110.23224157619083L141.49265625,104.75371882931951L141.52359375,124.41694857771138L142.003125,157.52329855953118L142.2196875,78.88333063301123L142.3125,112.78635177449392L142.35890625000002,99.72790875694757L142.46718750000002,72.53202259338856L142.48265625,97.82576947389224L142.79203125,106.61872341843355L142.82296875,107.90222235016171L142.9003125,114.82727055470433L143.13234375000002,113.13226934951713L143.47265624999997,99.82411041219335L144.19968749999998,89.74016946023286L144.58640624999998,111.2568445613419L145.0040625,-43.32090689477714L145.20515625,18.89338930554755L145.29796875000002,83.90327167984884L145.591875,87.10248040990258L145.6846875,78.75287786177529L145.8084375,51.44379172355969L145.85484375000001,73.5586544700327L145.91671875,78.05524850206746L145.96312500000002,107.58369150201783L146.19515625000003,137.26511209646048L146.39625,88.35486954712378L146.72109375,124.2691201143772L146.9840625,107.13198883970442L147.06140625,113.36184971937456L147.66468749999999,84.75747006034207L148.23703125,76.30790113148302L148.6546875,80.20554670534854L148.85578125,108.48643734584644L148.88671875,113.57911513689396L149.08781249999998,94.45263761993192L149.11875,35.16589049825635L149.3971875,66.04042346599438L149.5209375,49.20239550663674L149.675625,85.94709704097296L149.69109375000002,114.43982322976699L149.86125,117.33945796841805L150.789375,137.3298737426366L151.5009375,116.06774672834668L151.6246875,138.9913442863142L151.67109375,108.92615736175271L151.79484375,121.95594383268771L152.07328125,120.56138803579934L152.58375,146.36653806317466L152.87765625,135.16198055624136L153.06328125,133.4331946346412L153.83671875,127.69758611907065L154.2234375,125.96171121143999L154.254375,71.19525359626829L154.36265625000001,105.22352485019697L154.5328125,132.04871610423166L154.67203125,147.40600846555972L155.0278125,167.9531945711204L155.44546875,166.68797416393926L155.70843749999997,137.37454106751065L156.110625,115.04716730173219L156.12609375,151.42081694226437L156.17249999999999,149.58347479951962L156.24984375,137.93727190168252L156.6365625,114.96045753730269L156.68296875000001,134.91594421191772L156.96140625,121.34113120033595L157.06968750000001,152.1325836434618L157.08515625,111.74057353017659L157.23984375,96.18009018586832L157.5028125,19.289291880647887L157.6884375,73.15420316062601L157.73484375,95.71106609643836L157.76578124999997,49.46600889677605L157.78125,88.15039675468087L158.1215625,82.23404374440838L158.2453125,74.77701146286923L158.41546875,83.33079022843955L158.6784375,82.48362804162096L158.833125,133.37672817570026L159.12703125000002,114.00753341681991L159.43640624999998,134.91053470860263L159.99328125,136.9102126874944L160.194375,142.21881131043557L160.42640625,105.89965001172138L160.50375,103.16891776875447L160.61203125,98.2905930033671L160.813125,121.07417679809615L160.87499999999997,145.68591162291517L160.92140625000002,113.83813307867855L161.184375,136.40578541717775L161.19984375,97.60858084000257L161.88046874999998,11.0776663794345L161.97328125,63.2210709236101L162.00421875,75.6871236969254L162.26718749999998,95.5340682504607L162.4528125,139.52655015963512L162.5146875,166.68179090628442L162.74671875,156.55738158484945L162.793125,143.31121998331338L162.80859375,167.4886717303925L162.96328125,83.15578514363368L163.45828125,88.68159724042415L163.55109374999998,93.68012293437481L163.5665625,97.23385960763311L164.0615625,126.54559940863022L164.278125,124.9938712299965L164.44828124999998,133.9994254115881L164.54109375000002,138.30894151724348L164.773125,79.0508995303331L165.020625,109.7048844552826L165.15984375,130.21133170317358L166.10343749999998,100.7126100095555L166.14984375,109.4983305682209L166.2890625,56.937014274267355L166.30453125,64.73814474640366L166.38187499999998,71.5197346544151L167.07796875,75.83063357537297L167.1553125,106.37286882156315L167.31,124.56760399224868L167.38734374999999,110.417243055597L167.44921875,124.44258040016594L167.4646875,148.1362308875513L167.69671875,134.28035030012083L167.8978125,129.49924959015698L168.114375,49.361465539168414L168.238125,46.80119107701247L168.82593749999998,-25.46133286334358L169.0115625,-3.0229418982701355L169.10437499999998,54.7971002364375L169.24359375,81.01490926097142L169.30546875000002,51.395299240054506L169.76953125000003,97.94561035654057L169.92421875,102.67610715386934L170.7440625,82.0451985601048L171.71859375,48.84279554506899L171.78046874999998,92.72368072820163L172.13625,68.92706540437014L173.11078124999997,119.08963854848724L173.38921875,133.55461956479778L173.93062500000002,120.84221517246144L173.9925,144.86751762934733L174.0234375,120.77567057405834L174.06984375,103.72837574836568L174.301875,129.8336915041921L174.36375,138.21426662227017L174.37921875,126.25928168547455L174.3946875,66.84333284826455L174.70406250000002,111.47815108042286L174.78140624999997,125.44416587124063L174.98250000000002,129.84080511149642L175.16812499999997,103.8640790362172L175.24546875,51.031506778539004L175.30734375,85.61748538940594L175.33828125,59.25197810250187L175.43109375,90.26709023158347L175.86421875,128.76174750165998L176.3128125,60.68767221711192L176.405625,105.12620682160326L176.9315625,63.95750865721866L177.21,115.67975657885768L177.61218749999998,129.25463859337864L177.6740625,133.33029568998992L177.9834375,111.47713614588369L178.18453125,117.31162293455236L178.20000000000002,76.34891047895688L178.24640625,55.899328631584275L178.30828125,89.7637679777589L178.46296875,88.7909670741586L178.77234375,135.2735925195353L178.95796875,94.37149795608146L179.06625,128.3019453434135L179.12812499999998,139.72277242305788L179.14359375,122.41018913306542L179.51484374999998,98.6941170505747L179.87062500000002,134.77357635495454L180.0253125,90.6301567590081L180.30375,83.83393438821095L180.31921875,127.75834831433032L180.76781250000002,136.45746705732665L180.81421875,161.17320115895225L180.984375,129.4305118562648L181.12359375,142.10370463829452L181.1390625,143.49006697133908L181.37109375,110.23273530212478L181.71140625,148.31151556883714L181.7578125,135.61696584769763L182.26828125,117.46077050565884L182.67046875,114.10002625464918L182.70140625,147.5000649708034L183.5521875,131.30399808988102L183.583125,39.37508636239247L183.76875,78.91066297604488L183.9234375,101.92002091982273L184.10906250000002,120.8275571513373L184.26375000000002,126.30739082534305L184.325625,143.025940649296L184.6659375,141.09989965488623L184.696875,157.26551403234964L184.75875,155.51453977826577L184.99078125,124.48707290591801L185.20734375,146.9240504803628L185.5321875,157.08328719972792L186.01171875,127.48694717609418L186.0271875,120.01823027118165L186.13546875,142.0416476271845L186.2746875,161.2144395529358L186.29015625,161.5762478810029L186.676875,173.26654622824353L186.90890625,184.22651263659515L187.11,181.88908704644632L187.58953125,172.746785991795L187.83703125000002,124.64555697048135L188.3165625,101.82230709436193L188.36296875,134.75844941328558L188.7496875,135.9269208739137L189.13640625,148.26527159317942L189.151875,93.27029155584935L189.523125,79.62862468744974L189.6778125,97.88847486964262L189.87890625,133.0206986418599L190.51312499999997,149.97163780972267L190.68328125,111.63702890691103L190.89984374999997,138.61470205063785L190.97718749999999,148.6949926933656L191.08546875,170.30216497457087L191.255625,182.53229560048018L191.93625,192.1192178738751L192.16828125,174.8104492403649L192.5859375,158.400063830768L192.81796875,130.03504906037745L192.84890625,132.05753775649845L193.0190625,152.8150392738794L193.25109375,135.09291627364246L193.40578125,99.4653015247398L193.56046875,98.21888042309364L194.17921875,94.39245877455761L194.47312499999998,67.88348738128596L196.12828125,93.38548416510018L196.205625,107.29448812821384L196.43765625,126.43222356136961L196.63875,108.58310976056053L196.6696875,146.56257548773462L196.8553125,148.1018031826268L197.1646875,34.73652811590734L197.42765625,88.13840512331667L197.5978125,103.71134900984967L197.67515625000001,105.27695987336517L197.69062499999998,134.25265907138697L197.98453125,126.64724387535519L198,141.48963292350808L198.0928125,117.60630641675259L198.44859375000001,105.69262823639073L198.63421875,69.57609145151233L198.69609375,113.24503786076103L198.81984375,98.84805123632545L198.91265625,136.52444650084016L198.928125,129.03963583544038L199.5778125,97.39321997067417L199.65515625,53.02845932573728L199.73250000000002,90.89048427585155L199.84078125000002,79.05259526219005L199.99546875000001,98.88046814469118L200.0109375,28.16727450172676L200.52140624999998,-1.3976063330139525L200.79984374999998,80.457492258822L200.97,105.44114249001447L200.98546875,39.628970328274384L201.0628125,75.05423551100674L201.40312500000002,48.0169320928942L201.44953125,58.95621500479523L201.6815625,102.45537924359645L201.82078125,108.93248941654211L201.85171874999997,135.30787832456377L202.13015625,104.38685708741872L202.28484375000002,24.705787491801548L202.53234375,74.15243238330076L202.71796875,106.06875101772066L202.84171875,113.06170554710695L203.15109375,117.1922065966026L203.24390624999998,136.45910690368387L203.33671875000002,107.01631245697244L203.35218749999999,132.83072220867697L203.383125,120.37720256945981L203.4140625,120.33721541927157L203.58421875,121.82487645561038L203.5996875,144.93152878136655L204.38859375,134.48651361063853L204.868125,27.397759801719967L205.0846875,20.31419384871386L205.56421875,91.59850205306388L205.8890625,83.79820705249415L205.981875,119.80477392625515L206.77078125,77.68488911361517L206.86359374999998,118.64627736327661L206.91,88.66221037368544L207.4978125,128.05667201830784L208.27125,123.52602131607435L208.333125,93.03818575109423L208.62703125000002,110.06513860860694L208.73531250000002,140.4883380601658L208.76624999999999,162.50969041331732L209.40046875000002,159.25283591043424L209.92640624999999,104.24695777798576L210.08109374999998,129.6554087111645L210.11203125,128.83796508516627L210.25125,151.77912607323086L210.39046875,146.68680048677896L210.48328125,133.5900754046057L210.59156249999998,125.18031705761638L210.6225,145.29126674514822L210.97828124999998,151.05757434491403L211.22578125,148.18339266821198L211.44234375,157.93683628034265L211.53515625,152.90771183098357L211.73625,160.81363116338852L211.85999999999999,154.24590400984886L211.98375,109.37791410464645L212.06109375,106.61088809745671L212.2003125,101.91355849878289L212.30859375,75.01931790456949L212.37046875,35.93610617486106L212.6334375,12.155159005328812L212.86546875,44.36759465116548L213.00468750000002,38.536860058774266L213.39140625,61.771291804355194L213.530625,48.4111442846309L213.76265625,79.55904571904247L214.13390625000002,93.50275258164707L214.396875,101.27591050232114L214.69078125000001,119.09613781460918L215.2940625,103.75893652015206L215.37140624999998,123.445965517004L215.386875,118.88419251348951L215.83546875,142.23338705945838L215.86640624999998,139.6874200360407L216.25312499999998,112.83227972128567L216.9028125,123.53520880155908L216.94921875,133.8184721604773L217.38234375,151.8653664979064L217.78453125000001,132.76018412963887L217.985625,66.25714771781169L218.15578125,117.36571814169767L218.233125,81.19736039072443L219.06843750000002,113.7854705158184L219.16125,103.7570075692719L219.39328125,115.70989458125746L219.40875,85.80784019447515L219.42421875,94.47338092396946L219.48609374999998,142.44520179745726L219.7490625,137.17771547402245L219.96562500000002,103.3779516271669L219.98109374999999,107.48823450070134L220.0275,119.72185208387083L220.0584375,113.09497362367455L220.58437500000002,95.41196108306733L220.73906250000002,128.8090866536366L220.87828125,124.86897334191009L221.21859375,137.37068767164828L221.28046875,127.24401398861218L221.326875,140.5222297742296L221.68265625,151.9195154240327L222.6571875,166.9814246538637L222.7190625,125.64703458508005L222.811875,138.15030619850845L223.3378125,140.34935659230405L224.2040625,143.19530249870212L224.28140625,113.40074794582361L224.5753125,94.94035502130887L224.77640625,100.74249963226977L225.02390625,84.87969442464744L225.5653125,41.84136665766139L225.95203125,64.60368135812698L226.276875,34.82198048527728L226.53984375,88.24673238334474L227.00390625,109.21405755095132L227.20499999999998,134.10002813033728L227.32874999999999,129.73335175614042L227.42156250000002,96.76423904985475L227.90109375,124.81278362462096L228.07125,62.07834155761702L228.19500000000002,71.0618110963911L228.21046875,110.65124016667666L228.504375,143.75592785240866L228.81375000000003,116.23843449748549L229.185,141.6307075807273L229.38609375,168.04841572575685L229.80375,164.86815242041897L229.81921874999998,156.15979634788482L229.86562500000002,137.9748882595709L230.09765625,101.02553270572487L230.236875,98.16795906164684L230.360625,95.72854923002981L230.74734375,130.9657054318819L230.77828125,153.40896359228094L230.91750000000002,96.76617730196119L230.93296875,122.95457111394883L231.350625,130.2790771057992L231.48984374999998,67.45821164433892L231.5053125,88.02260793304286L231.89203125,67.52975818101073L231.9075,67.02373761733476L232.0003125,113.26979173787L232.29421875,121.70428501184321L232.32515625,100.14111987570249L232.340625,79.3581781853397L232.77374999999998,94.907063024888L232.78921875,130.25097476699924L232.835625,159.22789115538583L233.25328125000001,146.34071953121057L233.6709375,140.8890082457556L234.21234374999997,147.28071377017463L234.28968749999999,65.86756578885532L234.58359375,106.8791772480489L234.6609375,125.07827498201617L235.75921875,147.3704497698491L235.88296874999997,175.6913388102752L235.91390625,168.65151115086687L236.11499999999998,147.23603370459085L236.23875,120.12303490144734L236.3625,95.75700566740468L236.68734375,132.24588728701553L236.85750000000002,46.983401463958494L237.32156250000003,103.57997036332362L237.3525,138.23395765486046L237.414375,154.05141456522156L237.80109375,109.92803458629614L237.8475,38.14379795049768L238.21875,57.81450789216245L238.52812500000002,68.12470575894764L238.63640625,65.91676531270654L238.71374999999998,1.0985391380519336L238.8065625,67.23127359253947L238.82203125,49.480952293293385L238.91484375000002,67.87038116491838L239.40984375,82.81250188775066L239.53359375,93.4217875661087L239.59546875,81.6639375276346L239.75015625,122.34080140289538L239.889375,139.84677006972953L240.21421875,164.59202559805289L240.22968749999998,141.87756094644294L240.5390625,97.18763229584592L240.67828125,86.7293084686154L241.065,71.17651921511613L241.2196875,99.7740972854252L241.32796875,108.76250258714289L241.63734375,134.18406383398374L241.69921875,89.13834582837346L241.97765625,103.86554202927304L242.17875,111.00687011699766L242.64281250000002,79.9350382424646L242.859375,123.37028699441275L243.230625,129.13495421155406L243.7875,109.51948465105362L243.95765624999999,132.371099473962L243.98859375,121.7156581420772L244.01953125,130.82538380855758L244.35984375,132.2789534815218L244.3753125,128.76289270747102L244.42171875,144.8257880415225L244.45265625,149.23149892572783L245.0559375,142.2615145139946L245.6746875,63.630444234195544L245.7675,105.51413604875395L245.78296874999998,90.66154430216545L245.89124999999999,133.35512411203084L246.015,80.31746950808821L246.15421875,83.42085686661991L246.38625,123.63633751251217L246.6028125,55.93936415241908L246.68015624999998,44.89376253024788L246.7884375,74.37565237811837L247.03593750000002,65.87607733328124L247.57734375,101.28725017111884L247.60828124999998,122.91061933562985L247.88671874999997,108.68502546385427L248.22703124999998,109.77489281094371L248.304375,108.87100354594766L248.41265625,94.1225014285015L248.56734375,131.09660857763987" style="fill: none;" fill="none"></path></g></g></g></g><g opacity="0.2"><g><g><g><path stroke="rgb(255, 112, 67)" stroke-width="2px" d="M35.03671875,-31.055670216679573L35.37703125,121.5516526401043L35.392500000000005,45.81742865592241L35.438906249999995,-19.24762389063835L35.469843749999995,-160.0101072192192L35.76375,30.031908597797155L35.90296875,41.53614725545049L35.93390625,-52.68011650443077L37.26421875,-181.86576383560896L37.326093750000005,110.77345331758261L37.341562499999995,65.95280525833368L38.053124999999994,-219.6601960659027L38.19234375,117.74371281825006L38.71828125,132.40896888636053L38.99671875,-55.632111601531506L39.21328125,79.01432608813047L39.290625,74.91325225308537L39.414375,76.02580153942108L39.491718750000004,-34.82723718881607L40.4353125,-53.06031292676926L40.54359375,115.98276576586068L40.59,103.9472263455391L40.60546875,68.39956968650222L40.71375,32.81805405020714L40.96125,123.75772820413113L41.023125,0.643783450126648L41.6109375,-11.773823373019695L41.9203125,42.42991545796394L42.21421875,118.35634765774012L42.430781249999995,143.3821870163083L42.678281250000005,96.43104441091418L42.8175,93.16727967560291L42.83296875,181.0516056055203L42.98765625,23.366058446466923L43.18875,-160.93478368967772L43.266093749999996,148.27084472961724L43.38984375,58.23398047685623L43.42078125,84.0935023650527L43.43625,186.6888533262536L43.621875,61.52712043002248L43.85390625,197.87646768707782L44.116875,111.12371405214071L44.41078125,116.79491965658963L44.9521875,192.80118997301906L44.983125,-61.226326771080494L45.044999999999995,74.71583496406674L45.354375,62.54527998715639L45.601875,124.3927983250469L45.8184375,115.17491430602968L46.01953125,88.61011519655585L46.096875000000004,169.66078380681574L46.591875,0.001962963491678238L46.7465625,125.92580720409751L47.055937500000006,44.70741796866059L47.2725,-31.298485569655895L47.334375,48.55314829945564L47.44265625,66.44296917691827L47.50453125,64.5052762851119L47.62828124999999,128.49524860829115L47.705625,174.64092999324203L48.1078125,138.22491584904492L48.12328125,163.20696437358856L48.37078125,117.16463199444115L48.49453125,126.95829995535314L48.64921875,35.99619876220822L48.74203125,129.03629989922047L48.88125,185.93467098288238L49.14421875,211.3425385938026L49.1596875,77.82762992754579L49.23703125,62.991958033293486L49.3453125,149.3341386001557L49.62375,208.17080425657332L50.01046875,164.58663527481258L50.056875000000005,85.86607092618942L50.13421875,92.35801055654883L50.2734375,200.84955458622426L50.5828125,-4.62951323390007L50.7684375,66.75562897324562L50.9540625,87.05017903447151L51.18609375,1.8874991834163666L51.294375,29.72152364999056L51.309843750000006,76.29209069162607L51.43359375,-8.625927552580833L51.80484375,126.88971656933427L52.0678125,-57.5274890139699L52.08328125,-89.71112275868654L52.26890625,155.30485768429935L52.98046875,-97.26948829740286L53.16609375,200.2778711412102L53.475468750000005,172.15460298210382L53.58375,142.5629201028496L53.8003125,53.53071467578411L53.8621875,92.8131945580244L53.893125000000005,220.38378804316744L54.573750000000004,31.220533434301615L54.58921875,113.3652558233589L54.635625,165.45092111080885L54.774843749999995,120.33685880340636L55.06875,161.29746806435287L55.26984375,114.84820155054331L55.31625,18.883518889546394L55.455468749999994,148.91900347173214L55.76484375,90.26594116911292L56.01234375,32.710130620747805L56.10515625,185.1684879893437L56.1515625,77.97480273619294L56.507343750000004,90.23778579756618L56.56921875,147.97056472487748L56.60015625,111.02712365426123L56.66203125,129.640008430928L56.75484375,1.1818345785140991L56.832187499999996,52.54224354028702L56.84765625,63.11130515858531L57.0796875,172.80747626535594L57.1725,-47.34190421551466L57.20343750000001,8.061339162290096L57.234375,48.79086996987462L57.54375,144.62758415937424L57.899531249999995,61.69705820828676L58.100625,-26.567756742239L58.2553125,125.38462403789163L58.51828125,122.66300680674613L59.50828125,146.91105402633548L60.637499999999996,116.78134474530816L60.77671874999999,71.53045359626412L61.070625,32.72523033991456L61.33359375,127.85925536043942L61.64296875,63.06302232295275L61.8440625,159.07185847498477L62.01421875,-8.040648590773344L62.137968750000006,59.826028268784285L63.236250000000005,168.00121587328613L63.406406249999996,-0.7660456784069538L63.48375,52.70497763156891L63.53015625,175.39758087694645L63.669374999999995,212.99830893147737L63.68484375,118.05374335125089L63.71578125,172.96710304543376L63.932343749999994,95.43098473548889L64.1953125,3.9303461238741875L64.24171875,211.79262685216963L65.01515625,134.4410432651639L65.07703125,123.19762917794287L65.29359375,141.54105979576707L65.4328125,183.06265411991626L66.0515625,92.01488757133484L66.34546875,157.91829597763717L66.40734375,161.77834301814437L66.4846875,87.54179358109832L66.9796875,135.42650599591434L67.6603125,119.52799355238676L67.7221875,120.81967067532241L67.815,133.49221713468432L67.876875,82.78607438877225L67.89234375000001,144.13389257714152L67.92328125,138.03443849645555L67.9696875,179.81182964611799L68.17078124999999,139.6021882686764L68.5265625,114.44299827888608L68.805,32.49575087428093L69.16078125,114.86526291444898L69.62484375,190.2258595135063L69.70218750000001,52.855744041502476L69.733125,119.60633570887148L69.84140625,169.35958067514002L69.94968750000001,45.72669846564531L70.24359375,137.82158355787396L70.47562500000001,97.99351917207241L70.80046875,207.746194713749L70.90875,95.42903957515955L70.92421875000001,57.91342464834452L71.10984375,104.51402628421783L71.35734375,123.29307390935719L72.19265625,150.86990037560463L72.331875,143.28147551603615L72.40921875,121.98961867578328L72.47109375,145.79463914595544L72.65671875,75.29161890596151L72.826875,214.84213135298342L72.93515624999999,189.9489337960258L73.27546875,122.77840591594577L73.30640625,114.10252928361297L73.3528125,106.8220084682107L73.8478125,138.77713532745838L73.940625,143.49472608044744L74.0025,-13.948397230356932L74.0953125,152.2224214542657L74.43562499999999,2.624632526189089L74.74499999999999,85.36240627616644L74.8996875,32.92399935051799L75.22453125,163.81774471700191L75.25546875,113.07012719660997L75.27093749999999,122.21655954234302L75.75046875,144.01034192740917L75.796875,-189.3195522800088L75.87421875000001,149.71578565053642L75.95156250000001,62.49515089765191L76.01343750000001,169.97134184092283L76.1371875,122.54708019644022L76.168125,187.5342191811651L76.40015625000001,156.340152785182L76.4465625,212.4509832621552L77.09625000000001,185.51156976353377L77.17359375,150.7672025039792L77.29734375,82.61288918182254L77.42109375,168.22524724155664L77.68406250000001,-0.22748353332281113L78.395625,176.26641640998423L78.59671875000001,63.65036183595657L79.09171875,169.84386790171266L79.29281250000001,146.7203046809882L79.4165625,11.106289844959974L79.509375,1.3663775436580181L79.91156249999999,110.10749965533614L79.92703125,168.29994634352624L80.1590625,156.41189293563366L80.375625,178.8423732770607L80.82421875,-191.08203238248825L80.88609375,108.9782104510814L80.97890625,72.6640040203929L81.1490625,106.8673982899636L81.27281249999999,43.18521462008357L81.55125,139.88229135610163L81.613125,155.3052780367434L81.6440625,143.852380072698L81.675,178.9256689986214L81.7678125,211.34988239826635L82.15453125,126.21126772463322L83.16000000000001,64.27327470481396L83.36109375,160.48463007062674L83.67046875,64.0653568468988L83.840625,63.36808280646801L83.94890625,-44.30633316189051L84.32015625,132.9183783531189L84.44390625,64.31969480216503L84.7996875,192.31819265149534L85.1709375,165.74669262953103L85.38749999999999,91.05251125618815L85.55765625,81.7704699151218L85.6659375,111.92666964232922L85.68140625000001,120.35683790780604L85.80515625,105.42103146761656L85.8515625,198.6554796723649L86.315625,49.14365281909704L86.53218749999999,141.70089263096452L86.563125,174.9616753924638L86.73328125,38.51349997892976L86.82609375,110.82387912645936L86.85703125,102.87944871559739L87.05812499999999,126.85710216499865L87.35203125000001,162.61347617581487L87.3984375,148.29407950490713L87.56859375,163.1081650648266L87.676875,88.43333638831973L88.0171875,131.40680744871497L88.048125,160.39917489141226L88.28015624999999,93.29999565705657L88.74421875,196.81581956427544L89.11546874999999,109.3152506891638L89.39390625,111.88587897084653L89.47125000000001,194.1187022868544L89.56406249999999,143.9842883180827L90.08999999999999,172.34062130190432L90.38390625000001,115.19220645166934L90.52312500000001,116.36880591139197L90.78609374999999,176.06172125414014L91.141875,189.76434137765318L91.17281249999999,149.44361980631948L91.513125,10.89428385347128L92.0390625,69.41433345526457L92.08546874999999,39.449122097343206L92.30203125,121.40107580088079L93.05999999999999,73.40811026841402L93.16828125,79.55468503385782L93.555,-71.92817030847073L94.15828125,92.97411536425352L94.52953125,88.27075065672398L94.77703125000001,10.689761783927679L94.8853125,189.18466299399734L94.94718750000001,62.4768202342093L95.0090625,171.75152619928122L95.11734374999999,92.70138080790639L95.1328125,123.01999318040907L95.33390625000001,65.40280293300748L95.3803125,209.48644765047356L95.596875,220.07752007665113L95.7825,149.2541644871235L96.64874999999999,126.13895886205137L97.0509375,160.76879656501114L97.2675,170.46306353621185L97.34484375,53.92188971489668L97.5459375,157.8737798295915L97.7934375,161.10549063049257L97.87078125,193.06629636883736L97.948125,-6.852419380098581L98.195625,67.94860569387674L98.4740625,133.15838311426342L98.53593749999999,13.459373373538256L98.58234375,147.04301172494888L99.13921875,37.74911790713668L99.23203124999999,192.9192884042859L99.44859375,158.57834822125733L99.7734375,126.02423561364412L99.78890625,176.3207655083388L99.99,113.55181812867522L100.20656249999999,167.9979766868055L100.45406249999999,145.00477217696607L100.98,105.87138553708792L101.2275,97.6278455145657L101.4440625,195.00967226084322L102.31031250000001,173.87243506126106L102.34125,142.4187556989491L102.44953125,147.33301370032132L102.78984374999999,175.50693020783365L102.89812500000001,150.1985315848142L102.97546875,131.5682804826647L103.021875,-43.760402485728264L103.03734375,184.15425584279L103.25390625,120.41587682068348L103.4240625,68.98026598244905L103.54781249999999,161.72982115857303L103.62515624999999,32.359540197998285L103.7334375,65.60289069637656L103.90359375,53.783783331513405L103.95,132.77798887901008L104.1665625,92.15523583441973L104.38312499999999,103.61166970431805L104.92453125,118.50497933663428L105.38859375,169.87655648589134L105.435,66.68497679382563L105.51234375,165.3405827153474L106.1465625,150.47283216007054L106.16203125,-4.904456701129675L106.28578125,81.9988943785429L106.3321875,89.0769536755979L106.363125,149.70784840732813L106.486875,18.37507376074791L106.51781249999999,166.52161648124456L106.53328125,83.3706445209682L106.68796875,13.479929432272911L106.7034375,146.96185897663236L106.74984375,149.0971175171435L107.02828125,96.98922300338745L107.105625,128.3486857227981L107.15203125000001,136.65114926733077L107.53875000000001,94.51898477599025L107.6315625,169.4750209953636L107.9409375,101.61499559506774L107.98734375,167.74548498541117L108.1575,106.40948611870408L109.00828125000001,136.8645399492234L109.0546875,121.47404403984547L109.65796875,103.69959754496813L110.02921875,16.807933911681175L110.0446875,151.6769853103906L110.09109375,91.29842567816377L110.26125,160.17498692125082L110.61703125,102.01869878545403L110.7253125,203.58517532330006L110.81812500000001,5.407596487551928L110.98828125000001,102.57150346040726L111.11203125,121.88401130586863L111.26671875,48.433966018259525L111.91640625,-72.82419687509537L112.48875000000001,204.4891885863617L112.72078125,143.6959512680769L113.0765625,85.2458779849112L113.15390625,210.6100023407489L113.2003125,148.34977208264172L113.71078125000001,172.4155511856079L113.78812500000001,138.84914747066796L113.8190625,157.98103564046323L114.39140625,166.3580828960985L114.45328125,-149.4902185946703L114.48421875000001,174.9428872866556L114.68531250000001,111.98619484528899L114.70078125,132.9295630250126L114.73171875,148.08909587189555L114.76265625,3.3836571648716927L114.97921875,85.11992061138153L115.47421874999999,171.6064633950591L115.65984375,116.19384863041341L115.72171875,-1.9257403761148453L116.15484375000001,119.13153526000679L116.27859375,94.50916006788611L116.5725,150.23360216617584L116.74265625000001,115.03717057965696L116.758125,95.726682074368L117.23765625,205.97882286272943L118.53703125,137.52067714557052L119.2021875,125.74578920938075L119.40328125,-16.32084994018078L119.58890625,64.1204807125032L119.61984375,184.24073305539787L119.6971875,73.13802970200777L119.72812499999999,141.51423966139555L119.9446875,105.3537915609777L120.20765625,100.37123040854931L120.26953125,140.00799322128296L120.36234375,192.0979485763237L120.79546875,119.26070709340274L120.8728125,161.6330411899835L121.1203125,178.7038836311549L121.4296875,109.05440139211714L121.50703125,88.1607172228396L121.89375,163.5685663819313L121.955625,135.47168152034283L122.4196875,186.73625836707652L122.49703125,73.56372309476137L122.58984375,-30.975226297974586L122.821875,86.0063697360456L122.89921875,145.87293184921145L123.30140625,115.68805749155581L123.39421875,160.02432765997946L123.62625,-186.82569189369678L123.90468750000001,98.67303950339556L124.10578125,-12.72597935423255L124.13671875000001,-65.62865319103003L124.63171875,156.70946125499904L124.87921875,31.1814488992095L124.925625,173.91660503670573L125.3896875,142.61201067455113L125.52890624999999,55.069320011883974L125.72999999999999,172.30757830291986L125.7609375,192.2238894654438L126.27140625,-64.02983030676842L126.30234375,161.94682192616165L126.75093749999999,124.8441414590925L127.07578125,145.4508732687682L127.29234375,186.82400487922132L127.66359375,188.3645059224218L127.72546874999999,105.07588090002537L127.9575,189.33034808468074L128.4215625,78.87122492864728L128.7928125,71.46290048584342L128.80828125,179.6275463104248L128.87015625,122.56718293391168L128.97843749999998,161.58102463558316L129.07125,81.09930717945099L129.30328125,189.30633442103863L129.6590625,121.87169745191932L129.72093750000002,21.180291675031185L129.89109375,86.82206777483225L129.95296875,177.00653755199164L129.98390625,145.33276247419417L130.5253125,112.71960271149874L130.8346875,108.04740178026259L130.94296875,6.769983485341072L131.00484375,104.66769395023584L131.31421874999998,118.32141719385982L131.49984375,187.64569087978452L131.5153125,142.4689342416823L131.93296875,142.29355660825968L131.979375,166.04401368275285L132.1340625,183.93821529205889L132.3196875,110.24249048531055L132.33515625,104.247308537364L133.0621875,95.68171260505915L133.20140625,188.91526240948588L133.4334375,199.99567865487188L133.47984375,157.19371551275253L133.51078125,167.17040163092315L133.5571875,106.65037279576063L133.7428125,23.16761912405491L134.31515625,96.41096640005708L134.43890625,177.2668222580105L134.454375,81.29876853525639L134.46984375,182.06255735456944L134.50078125000002,166.10159372538328L134.64000000000001,38.571871273219585L134.68640625,-11.711199101060629L135.21234375,156.78055027127266L135.49078125,159.61381640844047L136.91390625,167.01390688866377L137.115,14.454570148140192L137.2696875,80.60896193236113L137.40890625,109.49388399347663L137.50171875,184.7210805080831L138.46078125,119.12903787195683L138.80109375,32.90415212139487L139.1259375,20.896215844899416L139.20328125,88.60652159526944L139.48171875,183.60473156534135L139.72921875,121.7702359110117L139.80656249999998,36.878477331250906L139.88390625,205.76602561958134L139.9921875,136.07796161994338L140.53359375,104.99786018952727L140.641875,107.98462914861739L140.70374999999999,69.36277022212744L141.46171875000002,128.7332175448537L141.49265625,96.53593470901251L141.52359375,153.91179320029914L142.003125,207.18282353226095L142.2196875,-39.0766212567687L142.3125,163.64088348671794L142.35890625000002,80.14024423062801L142.46718750000002,31.738193348050117L142.48265625,135.7663897946477L142.79203125,119.80815433524549L142.82296875,109.82747074775398L142.9003125,125.21484286151826L143.13234375000002,110.58976754173636L143.47265624999997,79.8618720062077L144.19968749999998,74.61425803229213L144.58640624999998,143.53185721300542L145.0040625,-275.18753407895565L145.20515625,112.21483360603452L145.29796875000002,181.41809524130076L145.591875,91.90129350498319L145.6846875,66.2284740395844L145.8084375,10.480162516236305L145.85484375000001,106.73094858974218L145.91671875,84.80013955011964L145.96312500000002,151.87635600194335L146.19515625000003,181.7872429881245L146.39625,14.989505723118782L146.72109375,178.1404959652573L146.9840625,81.42629192769527L147.06140625,122.70664103887975L147.66468749999999,41.85090057179332L148.23703125,63.633547738194466L148.6546875,86.05201506614685L148.85578125,150.9077733065933L148.88671875,121.21813182346523L149.08781249999998,65.76292134448886L149.11875,-53.76423018425703L149.3971875,112.35222291760147L149.5209375,23.94535356760025L149.675625,141.06414934247732L149.69109375000002,157.17891251295805L149.86125,121.68891007639468L150.789375,167.3154974039644L151.5009375,84.1745562069118L151.6246875,173.3767406232655L151.67109375,63.8283769749105L151.79484375,141.50062353909016L152.07328125,118.46955434046686L152.58375,185.07426310423762L152.87765625,118.35514429584146L153.06328125,130.84001575224102L153.83671875,119.09417334571481L154.2234375,123.35789884999394L154.254375,-10.95443282648921L154.36265625000001,156.26593173108995L154.5328125,172.28650298528373L154.67203125,170.4419470075518L155.0278125,198.77397372946143L155.44546875,164.79014355316758L155.70843749999997,93.40439142286777L156.110625,81.55610665306449L156.12609375,205.98129140306264L156.17249999999999,146.8274615854025L156.24984375,120.46796755492687L156.6365625,80.49523599073291L156.68296875000001,164.84917422384024L156.96140625,100.97891168296337L157.06968750000001,198.31976230815053L157.08515625,51.152558360248804L157.23984375,72.83936516940594L157.5028125,-96.04690557718277L157.6884375,153.95157008059323L157.73484375,129.54636050015688L157.76578124999997,-19.901576902717352L157.78125,146.17697854153812L158.1215625,73.35951422899961L158.2453125,63.591463040560484L158.41546875,96.16145837679505L158.6784375,81.21288476139307L158.833125,209.7163783768192L159.12703125000002,84.95374127849936L159.43640624999998,166.2650366462767L159.99328125,139.90972965583205L160.194375,150.1817092448473L160.42640625,51.42090806365013L160.50375,99.07281940430403L160.61203125,90.97310585528612L160.813125,155.24955249018967L160.87499999999997,182.60351386014372L160.92140625000002,66.06646526232362L161.184375,170.25726392492652L161.19984375,39.412773974239826L161.88046874999998,-118.71870531141758L161.97328125,141.43617773987353L162.00421875,94.38620285689831L162.26718749999998,125.3044850807637L162.4528125,205.51527302339673L162.5146875,207.4146520262584L162.74671875,141.37076760269701L162.793125,123.44197758100927L162.80859375,203.75484935101122L162.96328125,-43.343544736504555L163.45828125,96.97031538560987L163.55109374999998,101.17791147530079L163.5665625,102.56446461752057L164.0615625,170.5132091101259L164.278125,122.66627896204591L164.44828124999998,147.50775668397546L164.54109375000002,144.77321567572653L164.773125,-9.836163450032473L165.020625,155.6858618427068L165.15984375,160.97100257501006L166.10343749999998,56.46452746912837L166.14984375,122.676911406219L166.2890625,-21.90496016666293L166.30453125,76.4398404546082L166.38187499999998,81.69211951643229L167.07796875,82.29698195680976L167.1553125,152.18622169084847L167.31,151.85970674827695L167.38734374999999,89.1917016506195L167.44921875,145.48058641701937L167.4646875,183.6767066186294L167.69671875,113.49652941897511L167.8978125,122.32759852521122L168.114375,-70.84521053731441L168.238125,42.96077938377857L168.82593749999998,-133.85511877387762L169.0115625,30.63464454934001L169.10437499999998,141.52716343849897L169.24359375,120.34162279777229L169.30546875000002,6.965884208679199L169.76953125000003,167.77107703126967L169.92421875,109.77185234986246L170.7440625,51.09883566945791L171.71859375,-0.9608089774847031L171.78046874999998,158.5450085029006L172.13625,33.23214241862297L173.11078124999997,194.33349826466292L173.38921875,155.25209108926356L173.93062500000002,101.77360858395696L173.9925,180.9054713146761L174.0234375,84.63789999112487L174.06984375,78.15743350982666L174.301875,168.9916651379317L174.36375,150.78512929938734L174.37921875,108.32680428028107L174.3946875,-22.280590407550335L174.70406250000002,178.43037842866033L174.78140624999997,146.39318805746734L174.98250000000002,136.43576397188008L175.16812499999997,64.89898992329836L175.24546875,-28.217351607978344L175.30734375,137.49645330570638L175.33828125,19.703717172145844L175.43109375,136.78975842520595L175.86421875,186.5037334067747L176.3128125,-41.42344070971012L176.405625,171.78400872834027L176.9315625,2.2044614106416702L177.21,193.26312846131623L177.61218749999998,149.6169616151601L177.6740625,139.44378133490682L177.9834375,78.69739682972431L178.18453125,126.06335311755538L178.20000000000002,14.904841795563698L178.24640625,25.22495586052537L178.30828125,140.56042699702084L178.46296875,87.3317657187581L178.77234375,204.99753068760037L178.95796875,33.01835611090064L179.06625,179.19761642441154L179.12812499999998,156.85401304252446L179.14359375,96.44131419807673L179.51484374999998,63.120008926838636L179.87062500000002,188.89276531152427L180.0253125,24.415027365088463L180.30375,73.63960083201528L180.31921875,193.6449692035094L180.76781250000002,149.50614517182112L180.81421875,198.24680231139064L180.984375,81.8164779022336L181.12359375,161.11349381133914L181.1390625,145.5696104709059L181.37109375,60.346737798303366L181.71140625,205.4296859689057L181.7578125,116.57514126598835L182.26828125,90.22647749260068L182.67046875,109.05890987813473L182.70140625,197.6001230450347L183.5521875,107.00989776849747L183.583125,-98.51828122884035L183.76875,138.21402789652348L183.9234375,136.4340578354895L184.10906250000002,149.18886149860919L184.26375000000002,134.52714133635163L184.325625,168.10376538522542L184.6659375,138.21083816327155L184.696875,181.51393559854478L184.75875,152.8880783971399L184.99078125,77.94587259739637L185.20734375,180.57951684203L185.5321875,172.32214227877557L186.01171875,83.0924371406436L186.0271875,108.81515491381288L186.13546875,175.07677366118878L186.2746875,189.9736274415627L186.29015625,162.11896037310362L186.676875,190.80199374910444L187.11,178.38294866122305L187.58953125,159.03333440981805L187.83703125000002,52.493713438510895L188.3165625,67.58743228018284L188.36296875,184.16266289167106L188.7496875,137.67962806485593L189.13640625,166.772797672078L189.151875,10.777821499854326L189.523125,59.166124384850264L189.6778125,125.27825014293194L189.87890625,185.71903430018574L190.51312499999997,175.39804656151682L190.68328125,54.135115552693605L190.89984374999997,179.08121176622808L190.97718749999999,163.81542865745723L191.08546875,202.71292339637876L191.93625,188.11936214659363L192.16828125,148.84729629009962L192.5859375,133.78448571637273L192.81796875,87.4875269047916L192.84890625,135.09127080067992L193.0190625,183.95129154995084L193.25109375,108.50973177328706L193.40578125,46.023879401385784L193.56046875,96.3492487706244L194.17921875,88.65282630175352L194.47312499999998,28.120030291378498L196.12828125,131.6384793408215L196.205625,128.15799407288432L196.43765625,155.13882671110332L196.63875,81.80943905934691L196.6696875,203.5317740784958L196.8553125,150.4106447249651L197.1646875,-135.31138448417187L197.42765625,168.24122063443065L197.5978125,127.0707648396492L197.67515625000001,107.62537616863847L197.69062499999998,177.7162078684196L197.98453125,115.23912108130753L198,163.75321649573743L198.0928125,81.78131665661931L198.44859375000001,87.82211096584797L198.63421875,15.401286274194717L198.69609375,178.74845747463405L198.81984375,77.25257129967213L198.91265625,193.0390393976122L198.928125,117.81241983734071L199.5778125,49.92359617352486L199.65515625,-13.518681641668081L199.73250000000002,147.68352170102298L199.84078125000002,61.29576174169779L199.99546875000001,128.62227746844292L200.0109375,-77.90251596271992L200.79984374999998,203.24014014657587L200.97,142.9166178368032L200.98546875,-59.08928791433573L201.0628125,128.19213328510523L201.40312500000002,7.460976965725422L201.44953125,75.36513937264681L201.6815625,167.7041256017983L201.82078125,118.64815467596054L201.85171874999997,174.87096168659627L202.13015625,58.005325231701136L202.28484375000002,-94.8158169016242L202.53234375,148.32239972054958L202.71796875,153.94322896935046L202.84171875,123.5511373411864L203.15109375,123.3879581708461L203.24390624999998,165.35945736430585L203.33671875000002,62.85212078690529L203.35218749999999,171.55233683623374L203.383125,101.69692311063409L203.4140625,120.27723469398916L203.58421875,124.0563680101186L203.5996875,179.59150727000087L204.38859375,118.81899085454643L204.868125,-133.2353709116578L205.0846875,9.688844919204712L205.56421875,198.52496435958892L205.8890625,72.09776455163956L205.981875,173.81462423689663L206.77078125,14.505061894655228L206.86359374999998,180.08835973776877L206.91,43.68610988929868L207.4978125,187.14836448524147L208.27125,116.73004526272416L208.333125,47.30643240362406L208.62703125000002,135.605567894876L208.73531250000002,186.12313723750412L208.76624999999999,195.54171894304454L209.40046875000002,154.3675541561097L209.92640624999999,21.73814057931304L210.08109374999998,167.7680851109326L210.11203125,127.61179964616895L210.25125,186.1908675553277L210.39046875,139.04831210710108L210.48328125,113.94498778134584L210.59156249999998,112.56567953713238L210.6225,175.45769127644598L210.97828124999998,159.70703574456275L211.22578125,143.8721201531589L211.44234375,172.56700169853866L211.53515625,145.364025156945L211.73625,172.6725101619959L211.85999999999999,144.39431327953935L211.98375,42.07592924684286L212.06109375,102.46034908667207L212.2003125,94.86756410077214L212.30859375,34.6779570132494L212.37046875,-22.688711419701576L212.6334375,-23.516261748969555L212.86546875,92.68624811992049L213.00468750000002,29.790758170187473L213.39140625,96.62293942272663L213.530625,28.37092300504446L213.76265625,126.28089787065983L214.13390625000002,114.41831287555397L214.396875,112.93564738333225L214.69078125000001,145.82647878304124L215.2940625,80.75313457846642L215.37140624999998,152.9765090122819L215.386875,112.04153300821781L215.83546875,177.25717887841165L215.86640624999998,135.86846950091422L216.25312499999998,72.54956924915314L216.9028125,139.58960242196918L216.94921875,149.24336719885468L217.38234375,178.93570800404996L217.78453125000001,104.1024105772376L217.985625,-33.49740689992905L218.15578125,194.02857377752662L218.233125,26.944823764264584L219.06843750000002,162.66763570345938L219.16125,88.71431314945221L219.39328125,133.63922509923577L219.40875,40.95475861430168L219.42421875,107.47169201821089L219.48609374999998,214.40293310768902L219.7490625,129.27648598887026L219.96562500000002,52.678305856883526L219.98109374999999,113.65365881100297L220.0275,138.07227845862508L220.0584375,103.15465593338013L220.58437500000002,68.88744227215648L220.73906250000002,178.90477500949055L220.87828125,118.95880337432027L221.21859375,156.1232591662556L221.28046875,112.05400346405804L221.326875,160.43955345265567L221.68265625,169.01544389873743L222.6571875,189.57428849861026L222.7190625,63.64544948190451L222.811875,156.90521361865103L223.3378125,143.64793218299747L224.2040625,147.46422135829926L224.28140625,68.70891611650586L224.5753125,67.24976563453674L224.77640625,109.44571654871106L225.02390625,61.085486613214016L225.5653125,-22.71612499281764L225.95203125,98.7471534088254L226.276875,-9.85057082399726L226.53984375,168.38386023044586L227.00390625,140.66504530236125L227.20499999999998,171.42898399941623L227.32874999999999,123.18333719484508L227.42156250000002,47.3105699904263L227.90109375,166.88560048677027L228.07125,-32.02332154288888L228.19500000000002,84.53701540455222L228.21046875,170.03538377210498L228.504375,193.41295938100666L228.81375000000003,74.96219446510077L229.185,179.71911720559L229.38609375,207.6749779433012L229.80375,160.09775746241212L229.81921874999998,143.09726223908365L229.86562500000002,110.69752612709999L230.09765625,45.60149937495589L230.236875,93.8815985955298L230.360625,92.06943448260427L230.74734375,183.8214397346601L230.77828125,187.07385083287954L230.91750000000002,11.801997866481543L230.93296875,162.23716183193028L231.350625,141.26583609357476L231.48984374999998,-26.773086547851562L231.5053125,118.86920236609876L231.89203125,36.79048355296254L231.9075,66.26470677182078L232.0003125,182.63887291867286L232.29421875,134.35602492280304L232.32515625,67.79637217149138L232.340625,48.18376564979553L232.77374999999998,118.23039028421044L232.78921875,183.26684238016605L232.835625,202.6932657379657L233.25328125000001,127.0099620949477L233.6709375,132.7114413175732L234.21234374999997,156.8682720568031L234.28968749999999,-56.25215618312359L234.58359375,168.39659443683922L234.6609375,152.37692158296704L235.75921875,180.80871195159853L235.88296874999997,218.17267237091437L235.91390625,158.09176966175437L236.11499999999998,115.11281753517687L236.23875,79.45353669673204L236.3625,59.207961816340685L236.68734375,186.9792097164318L237.414375,177.77759993076324L237.80109375,43.742964617908L237.8475,-69.53255700320005L238.21875,87.3205728046596L238.52812500000002,83.59000255912542L238.63640625,62.60485464334488L238.71374999999998,-96.12880012392998L238.8065625,166.43037527427077L238.82203125,22.855470344424248L238.91484375000002,95.45452447235584L239.40984375,105.22568297199905L239.53359375,109.33571608364582L239.59546875,64.0271624699235L239.75015625,183.35609721578658L239.889375,166.10572306998074L240.21421875,201.70990889053792L240.22968749999998,107.805863969028L240.5390625,30.152739319950342L240.67828125,71.04182272776961L241.065,47.84733533486724L241.2196875,142.6704643908888L241.32796875,122.24511053971946L241.63734375,172.31640570424497L241.69921875,21.56976881995797L241.97765625,125.95633633062243L242.17875,121.71886224858463L242.64281250000002,33.327290430665016L242.859375,188.52316012233496L243.230625,137.78195503726602L243.7875,80.09628031030297L243.95765624999999,166.64852170832455L243.98859375,105.73249614425004L244.01953125,144.48997230827808L244.35984375,134.45930799096823L244.3753125,123.48880154639482L244.42171875,168.92013104259968L244.45265625,155.84006525203586L245.0559375,131.80653789639473L245.6746875,-54.316161185503006L245.7675,168.33967377059162L245.78296874999998,68.38265668228269L245.89124999999999,197.3954938268289L246.015,0.7609876021742821L246.15421875,88.07593790441751L246.38625,183.95955848135054L246.6028125,-45.606095887720585L246.68015624999998,28.325360096991062L246.7884375,118.59848714992404L247.03593750000002,53.12671476602554L247.57734375,154.40400942787528L247.60828124999998,155.3456730823964L247.88671874999997,87.34663465619087L248.22703124999998,111.4096938315779L248.304375,107.5151696484536L248.41265625,71.99974825233221L248.56734375,186.55776930134743" style="fill: none;" fill="none"></path></g></g></g></g></g></g><g transform="translate(51, 177)" clip-path="url(#clip_1)"><clipPath id="clip_1"><rect width="278" height="23"></rect></clipPath><g><g><line x1="0" y1="0" x2="0" y2="5" style="visibility: inherit;" fill="rgb(0, 0, 0)" stroke="rgb(204, 204, 204)" stroke-width="1px"></line><line x1="30.9375" y1="0" x2="30.9375" y2="5" style="visibility: inherit;" fill="rgb(0, 0, 0)" stroke="rgb(204, 204, 204)" stroke-width="1px"></line><line x1="61.875" y1="0" x2="61.875" y2="5" style="visibility: inherit;" fill="rgb(0, 0, 0)" stroke="rgb(204, 204, 204)" stroke-width="1px"></line><line x1="92.8125" y1="0" x2="92.8125" y2="5" style="visibility: inherit;" fill="rgb(0, 0, 0)" stroke="rgb(204, 204, 204)" stroke-width="1px"></line><line x1="123.75" y1="0" x2="123.75" y2="5" style="visibility: inherit;" fill="rgb(0, 0, 0)" stroke="rgb(204, 204, 204)" stroke-width="1px"></line><line x1="154.6875" y1="0" x2="154.6875" y2="5" style="visibility: inherit;" fill="rgb(0, 0, 0)" stroke="rgb(204, 204, 204)" stroke-width="1px"></line><line x1="185.625" y1="0" x2="185.625" y2="5" style="visibility: inherit;" fill="rgb(0, 0, 0)" stroke="rgb(204, 204, 204)" stroke-width="1px"></line><line x1="216.5625" y1="0" x2="216.5625" y2="5" style="visibility: inherit;" fill="rgb(0, 0, 0)" stroke="rgb(204, 204, 204)" stroke-width="1px"></line><line x1="247.5" y1="0" x2="247.5" y2="5" style="visibility: inherit;" fill="rgb(0, 0, 0)" stroke="rgb(204, 204, 204)" stroke-width="1px"></line><line x1="278.4375" y1="0" x2="278.4375" y2="5" style="visibility: inherit;" fill="rgb(0, 0, 0)" stroke="rgb(204, 204, 204)" stroke-width="1px"></line></g><g transform="translate(0, 8)"><text x="0" y="0" dx="0em" dy="0.95em" style="text-anchor: middle; visibility: hidden; font-family: Roboto, sans-serif; font-size: 12px; font-weight: 200;" fill="rgb(33, 33, 33)" stroke="none" stroke-width="1px">-2k</text><text x="30.9375" y="0" dx="0em" dy="0.95em" style="text-anchor: middle; visibility: inherit; font-family: Roboto, sans-serif; font-size: 12px; font-weight: 200;" fill="rgb(33, 33, 33)" stroke="none" stroke-width="1px">0</text><text x="61.875" y="0" dx="0em" dy="0.95em" style="text-anchor: middle; visibility: inherit; font-family: Roboto, sans-serif; font-size: 12px; font-weight: 200;" fill="rgb(33, 33, 33)" stroke="none" stroke-width="1px">2k</text><text x="92.8125" y="0" dx="0em" dy="0.95em" style="text-anchor: middle; visibility: inherit; font-family: Roboto, sans-serif; font-size: 12px; font-weight: 200;" fill="rgb(33, 33, 33)" stroke="none" stroke-width="1px">4k</text><text x="123.75" y="0" dx="0em" dy="0.95em" style="text-anchor: middle; visibility: inherit; font-family: Roboto, sans-serif; font-size: 12px; font-weight: 200;" fill="rgb(33, 33, 33)" stroke="none" stroke-width="1px">6k</text><text x="154.6875" y="0" dx="0em" dy="0.95em" style="text-anchor: middle; visibility: inherit; font-family: Roboto, sans-serif; font-size: 12px; font-weight: 200;" fill="rgb(33, 33, 33)" stroke="none" stroke-width="1px">8k</text><text x="185.625" y="0" dx="0em" dy="0.95em" style="text-anchor: middle; visibility: inherit; font-family: Roboto, sans-serif; font-size: 12px; font-weight: 200;" fill="rgb(33, 33, 33)" stroke="none" stroke-width="1px">10k</text><text x="216.5625" y="0" dx="0em" dy="0.95em" style="text-anchor: middle; visibility: inherit; font-family: Roboto, sans-serif; font-size: 12px; font-weight: 200;" fill="rgb(33, 33, 33)" stroke="none" stroke-width="1px">12k</text><text x="247.5" y="0" dx="0em" dy="0.95em" style="text-anchor: middle; visibility: inherit; font-family: Roboto, sans-serif; font-size: 12px; font-weight: 200;" fill="rgb(33, 33, 33)" stroke="none" stroke-width="1px">14k</text><text x="278.4375" y="0" dx="0em" dy="0.95em" style="text-anchor: middle; visibility: hidden; font-family: Roboto, sans-serif; font-size: 12px; font-weight: 200;" fill="rgb(33, 33, 33)" stroke="none" stroke-width="1px">16k</text></g><line x1="0" y1="0" x2="278.4375" y2="0" fill="rgb(0, 0, 0)" stroke="rgb(204, 204, 204)" stroke-width="1px"></line></g></g></g></g></svg>