<svg viewBox="0 0 330 200" xmlns="http://www.w3.org/2000/svg"><g><g><g><g><g><line x1="70" y1="177" x2="65" y2="177" style="visibility: inherit;" fill="rgb(0, 0, 0)" stroke="rgb(204, 204, 204)" stroke-width="1px"></line><line x1="70" y1="164.35714285714286" x2="65" y2="164.35714285714286" style="visibility: inherit;" fill="rgb(0, 0, 0)" stroke="rgb(204, 204, 204)" stroke-width="1px"></line><line x1="70" y1="151.7142857142857" x2="65" y2="151.7142857142857" style="visibility: inherit;" fill="rgb(0, 0, 0)" stroke="rgb(204, 204, 204)" stroke-width="1px"></line><line x1="70" y1="139.07142857142856" x2="65" y2="139.07142857142856" style="visibility: inherit;" fill="rgb(0, 0, 0)" stroke="rgb(204, 204, 204)" stroke-width="1px"></line><line x1="70" y1="126.42857142857142" x2="65" y2="126.42857142857142" style="visibility: inherit;" fill="rgb(0, 0, 0)" stroke="rgb(204, 204, 204)" stroke-width="1px"></line><line x1="70" y1="113.78571428571428" x2="65" y2="113.78571428571428" style="visibility: inherit;" fill="rgb(0, 0, 0)" stroke="rgb(204, 204, 204)" stroke-width="1px"></line><line x1="70" y1="101.14285714285714" x2="65" y2="101.14285714285714" style="visibility: inherit;" fill="rgb(0, 0, 0)" stroke="rgb(204, 204, 204)" stroke-width="1px"></line><line x1="70" y1="88.49999999999999" x2="65" y2="88.49999999999999" style="visibility: inherit;" fill="rgb(0, 0, 0)" stroke="rgb(204, 204, 204)" stroke-width="1px"></line><line x1="70" y1="75.85714285714285" x2="65" y2="75.85714285714285" style="visibility: inherit;" fill="rgb(0, 0, 0)" stroke="rgb(204, 204, 204)" stroke-width="1px"></line><line x1="70" y1="63.21428571428569" x2="65" y2="63.21428571428569" style="visibility: inherit;" fill="rgb(0, 0, 0)" stroke="rgb(204, 204, 204)" stroke-width="1px"></line><line x1="70" y1="50.57142857142857" x2="65" y2="50.57142857142857" style="visibility: inherit;" fill="rgb(0, 0, 0)" stroke="rgb(204, 204, 204)" stroke-width="1px"></line><line x1="70" y1="37.92857142857143" x2="65" y2="37.92857142857143" style="visibility: inherit;" fill="rgb(0, 0, 0)" stroke="rgb(204, 204, 204)" stroke-width="1px"></line><line x1="70" y1="25.285714285714274" x2="65" y2="25.285714285714274" style="visibility: inherit;" fill="rgb(0, 0, 0)" stroke="rgb(204, 204, 204)" stroke-width="1px"></line><line x1="70" y1="12.642857142857117" x2="65" y2="12.642857142857117" style="visibility: inherit;" fill="rgb(0, 0, 0)" stroke="rgb(204, 204, 204)" stroke-width="1px"></line><line x1="70" y1="0" x2="65" y2="0" style="visibility: inherit;" fill="rgb(0, 0, 0)" stroke="rgb(204, 204, 204)" stroke-width="1px"></line></g><g transform="translate(60, 0)"><text x="0" y="177" dx="0em" dy="0.3em" style="text-anchor: end; visibility: hidden; font-family: Roboto, sans-serif; font-size: 12px; font-weight: 200;" fill="rgb(33, 33, 33)" stroke="none" stroke-width="1px">-5e-4</text><text x="0" y="164.35714285714286" dx="0em" dy="0.3em" style="text-anchor: end; visibility: inherit; font-family: Roboto, sans-serif; font-size: 12px; font-weight: 200;" fill="rgb(33, 33, 33)" stroke="none" stroke-width="1px">0</text><text x="0" y="151.7142857142857" dx="0em" dy="0.3em" style="text-anchor: end; visibility: hidden; font-family: Roboto, sans-serif; font-size: 12px; font-weight: 200;" fill="rgb(33, 33, 33)" stroke="none" stroke-width="1px">5e-4</text><text x="0" y="139.07142857142856" dx="0em" dy="0.3em" style="text-anchor: end; visibility: inherit; font-family: Roboto, sans-serif; font-size: 12px; font-weight: 200;" fill="rgb(33, 33, 33)" stroke="none" stroke-width="1px">1e-3</text><text x="0" y="126.42857142857142" dx="0em" dy="0.3em" style="text-anchor: end; visibility: hidden; font-family: Roboto, sans-serif; font-size: 12px; font-weight: 200;" fill="rgb(33, 33, 33)" stroke="none" stroke-width="1px">1.5e-3</text><text x="0" y="113.78571428571428" dx="0em" dy="0.3em" style="text-anchor: end; visibility: inherit; font-family: Roboto, sans-serif; font-size: 12px; font-weight: 200;" fill="rgb(33, 33, 33)" stroke="none" stroke-width="1px">2e-3</text><text x="0" y="101.14285714285714" dx="0em" dy="0.3em" style="text-anchor: end; visibility: hidden; font-family: Roboto, sans-serif; font-size: 12px; font-weight: 200;" fill="rgb(33, 33, 33)" stroke="none" stroke-width="1px">2.5e-3</text><text x="0" y="88.49999999999999" dx="0em" dy="0.3em" style="text-anchor: end; visibility: inherit; font-family: Roboto, sans-serif; font-size: 12px; font-weight: 200;" fill="rgb(33, 33, 33)" stroke="none" stroke-width="1px">3e-3</text><text x="0" y="75.85714285714285" dx="0em" dy="0.3em" style="text-anchor: end; visibility: hidden; font-family: Roboto, sans-serif; font-size: 12px; font-weight: 200;" fill="rgb(33, 33, 33)" stroke="none" stroke-width="1px">3.5e-3</text><text x="0" y="63.21428571428569" dx="0em" dy="0.3em" style="text-anchor: end; visibility: inherit; font-family: Roboto, sans-serif; font-size: 12px; font-weight: 200;" fill="rgb(33, 33, 33)" stroke="none" stroke-width="1px">4e-3</text><text x="0" y="50.57142857142857" dx="0em" dy="0.3em" style="text-anchor: end; visibility: hidden; font-family: Roboto, sans-serif; font-size: 12px; font-weight: 200;" fill="rgb(33, 33, 33)" stroke="none" stroke-width="1px">4.5e-3</text><text x="0" y="37.92857142857143" dx="0em" dy="0.3em" style="text-anchor: end; visibility: inherit; font-family: Roboto, sans-serif; font-size: 12px; font-weight: 200;" fill="rgb(33, 33, 33)" stroke="none" stroke-width="1px">5e-3</text><text x="0" y="25.285714285714274" dx="0em" dy="0.3em" style="text-anchor: end; visibility: hidden; font-family: Roboto, sans-serif; font-size: 12px; font-weight: 200;" fill="rgb(33, 33, 33)" stroke="none" stroke-width="1px">5.5e-3</text><text x="0" y="12.642857142857117" dx="0em" dy="0.3em" style="text-anchor: end; visibility: inherit; font-family: Roboto, sans-serif; font-size: 12px; font-weight: 200;" fill="rgb(33, 33, 33)" stroke="none" stroke-width="1px">6e-3</text><text x="0" y="0" dx="0em" dy="0.3em" style="text-anchor: end; visibility: hidden; font-family: Roboto, sans-serif; font-size: 12px; font-weight: 200;" fill="rgb(33, 33, 33)" stroke="none" stroke-width="1px">6.5e-3</text></g><line x1="70" y1="0" x2="70" y2="177" fill="rgb(0, 0, 0)" stroke="rgb(204, 204, 204)" stroke-width="1px"></line></g></g><g transform="translate(70, 0)" clip-path="url(#clip_0)"><clipPath id="clip_0"><rect width="260" height="177"></rect></clipPath><g><g><g><line x1="0" y1="0" x2="0" y2="177" fill="rgb(0, 0, 0)" stroke="rgb(66, 66, 66)" stroke-width="1px" opacity="0.25"></line><line x1="28.888888888888886" y1="0" x2="28.888888888888886" y2="177" fill="rgb(0, 0, 0)" stroke="rgb(66, 66, 66)" stroke-width="1px" opacity="0.25"></line><line x1="57.77777777777777" y1="0" x2="57.77777777777777" y2="177" fill="rgb(0, 0, 0)" stroke="rgb(66, 66, 66)" stroke-width="1px" opacity="0.25"></line><line x1="86.66666666666666" y1="0" x2="86.66666666666666" y2="177" fill="rgb(0, 0, 0)" stroke="rgb(66, 66, 66)" stroke-width="1px" opacity="0.25"></line><line x1="115.55555555555554" y1="0" x2="115.55555555555554" y2="177" fill="rgb(0, 0, 0)" stroke="rgb(66, 66, 66)" stroke-width="1px" opacity="0.25"></line><line x1="144.44444444444446" y1="0" x2="144.44444444444446" y2="177" fill="rgb(0, 0, 0)" stroke="rgb(66, 66, 66)" stroke-width="1px" opacity="0.25"></line><line x1="173.33333333333331" y1="0" x2="173.33333333333331" y2="177" fill="rgb(0, 0, 0)" stroke="rgb(66, 66, 66)" stroke-width="1px" opacity="0.25"></line><line x1="202.22222222222223" y1="0" x2="202.22222222222223" y2="177" fill="rgb(0, 0, 0)" stroke="rgb(66, 66, 66)" stroke-width="1px" opacity="0.25"></line><line x1="231.1111111111111" y1="0" x2="231.1111111111111" y2="177" fill="rgb(0, 0, 0)" stroke="rgb(66, 66, 66)" stroke-width="1px" opacity="0.25"></line><line x1="260" y1="0" x2="260" y2="177" fill="rgb(0, 0, 0)" stroke="rgb(66, 66, 66)" stroke-width="1px" opacity="0.25"></line></g><g><line x1="0" y1="177" x2="260" y2="177" fill="rgb(0, 0, 0)" stroke="rgb(66, 66, 66)" stroke-width="1px" opacity="0.25"></line><line x1="0" y1="164.35714285714286" x2="260" y2="164.35714285714286" fill="rgb(0, 0, 0)" stroke="rgb(66, 66, 66)" stroke-width="1px" opacity="0.25"></line><line x1="0" y1="151.7142857142857" x2="260" y2="151.7142857142857" fill="rgb(0, 0, 0)" stroke="rgb(66, 66, 66)" stroke-width="1px" opacity="0.25"></line><line x1="0" y1="139.07142857142856" x2="260" y2="139.07142857142856" fill="rgb(0, 0, 0)" stroke="rgb(66, 66, 66)" stroke-width="1px" opacity="0.25"></line><line x1="0" y1="126.42857142857142" x2="260" y2="126.42857142857142" fill="rgb(0, 0, 0)" stroke="rgb(66, 66, 66)" stroke-width="1px" opacity="0.25"></line><line x1="0" y1="113.78571428571428" x2="260" y2="113.78571428571428" fill="rgb(0, 0, 0)" stroke="rgb(66, 66, 66)" stroke-width="1px" opacity="0.25"></line><line x1="0" y1="101.14285714285714" x2="260" y2="101.14285714285714" fill="rgb(0, 0, 0)" stroke="rgb(66, 66, 66)" stroke-width="1px" opacity="0.25"></line><line x1="0" y1="88.49999999999999" x2="260" y2="88.49999999999999" fill="rgb(0, 0, 0)" stroke="rgb(66, 66, 66)" stroke-width="1px" opacity="0.25"></line><line x1="0" y1="75.85714285714285" x2="260" y2="75.85714285714285" fill="rgb(0, 0, 0)" stroke="rgb(66, 66, 66)" stroke-width="1px" opacity="0.25"></line><line x1="0" y1="63.21428571428569" x2="260" y2="63.21428571428569" fill="rgb(0, 0, 0)" stroke="rgb(66, 66, 66)" stroke-width="1px" opacity="0.25"></line><line x1="0" y1="50.57142857142857" x2="260" y2="50.57142857142857" fill="rgb(0, 0, 0)" stroke="rgb(66, 66, 66)" stroke-width="1px" opacity="0.25"></line><line x1="0" y1="37.92857142857143" x2="260" y2="37.92857142857143" fill="rgb(0, 0, 0)" stroke="rgb(66, 66, 66)" stroke-width="1px" opacity="0.25"></line><line x1="0" y1="25.285714285714274" x2="260" y2="25.285714285714274" fill="rgb(0, 0, 0)" stroke="rgb(66, 66, 66)" stroke-width="1px" opacity="0.25"></line><line x1="0" y1="12.642857142857117" x2="260" y2="12.642857142857117" fill="rgb(0, 0, 0)" stroke="rgb(66, 66, 66)" stroke-width="1px" opacity="0.25"></line><line x1="0" y1="0" x2="260" y2="0" fill="rgb(0, 0, 0)" stroke="rgb(66, 66, 66)" stroke-width="1px" opacity="0.25"></line></g></g></g><g><g><line x1="0" y1="164.35714285714286" x2="260" y2="164.35714285714286" fill="rgb(0, 0, 0)" stroke="rgb(153, 153, 153)" stroke-width="1.5px"></line></g></g><g><g><line x1="28.888888888888886" y1="0" x2="28.888888888888886" y2="177" fill="rgb(0, 0, 0)" stroke="rgb(153, 153, 153)" stroke-width="1.5px"></line></g></g><g><g><g><g><g><path stroke="rgb(255, 112, 67)" stroke-width="2px" d="M37.91666666666667,-3.7708421427809333L38.147777777777776,5.060235709064976L38.22,10.358882258239152L38.45111111111111,13.53807012944773L38.638888888888886,15.445582831186247L38.69666666666667,16.59009044467423L38.82666666666667,17.27679501004717L39.18777777777778,17.68881774829177L39.21666666666667,17.93603139088603L39.31777777777778,18.084359576315677L39.39,18.17335648752783L39.54888888888889,18.22675463423863L39.635555555555555,18.25879352225922L39.76555555555555,18.27801685506946L39.80888888888889,18.289550854754783L39.93888888888889,18.296471254565702L40.05444444444444,18.300623494452168L40.11222222222223,18.303114838384026L40.184444444444445,18.304609644743117L40.25666666666666,18.305506528558592L40.27111111111111,18.306044658847835L40.473333333333336,18.3063675370214L40.58888888888889,18.306561263925573L40.70444444444445,18.306677500067998L40.97888888888889,18.306747241753524L41.05111111111111,18.30678908676477L41.13777777777777,18.306814193771576L41.48444444444445,18.306829257975668L41.6,18.3068382964981L41.614444444444445,18.306843719611557L41.83111111111111,18.306846973479608L41.88888888888889,18.30684892580046L42.047777777777775,18.30685009719301L42.20666666666666,18.306850800028446L42.55333333333333,18.3068512217298L42.72666666666667,18.30685147475057L43.001111111111115,18.30685162656304L43.160000000000004,18.306851717650506L43.40555555555556,70.88495700431615L43.73777777777778,102.43182017631551L43.78111111111111,121.35993807951513L44.61888888888889,132.7168088214349L44.73444444444444,139.53093126658678L44.748888888888885,143.6194047336779L44.922222222222224,146.07248881393255L45.12444444444444,147.54433926208537L45.16777777777778,148.42744953097704L45.42777777777778,148.95731569231208L45.528888888888886,149.27523538911308L45.61555555555555,149.46598720719368L45.861111111111114,149.58043829804203L46.72777777777778,149.64910895255105L47.01666666666667,149.69031134525645L47.58,149.7150327808797L48.013333333333335,149.72986564225366L48.23,149.73876535907803L48.287777777777784,149.74410518917264L48.30222222222222,149.7473090872294L48.38888888888889,149.7492314260635L48.403333333333336,149.75038482936392L48.62,149.7510768713442L48.894444444444446,149.75149209653233L49.22666666666667,149.7517412316452L49.24111111111111,149.75189071271296L49.25555555555555,149.75198040135362L49.660000000000004,149.75203421453799L49.86222222222222,149.75206650244863L50.050000000000004,149.752085875195L50.440000000000005,149.75209749884283L50.57,155.00991449581326L50.74333333333333,158.16460469399553L50.757777777777775,160.05741881290487L50.87333333333333,161.1931072842505L51.19111111111111,161.87452036705787L51.52333333333333,162.2833682167423L51.74,162.52867692655295L52.794444444444444,162.67586215243932L52.80888888888889,162.76417328797118L52.83777777777778,162.81715996929026L52.852222222222224,162.84895197808174L52.93888888888889,162.86802718335662L52.967777777777776,162.87947230652154L53.242222222222225,162.88633938042048L53.27111111111111,162.89045962475987L53.48777777777778,162.89293177136346L53.71888888888889,162.89441505932567L54.181111111111115,162.89530503210295L54.224444444444444,162.89583901576933L54.36888888888889,162.89615940596917L54.989999999999995,162.89635164008908L55.09111111111111,162.896466980561L55.13444444444444,162.89653618484417L55.79888888888889,162.89657770741408L56.05888888888889,162.896602620956L56.651111111111106,162.89661756908117L56.68,162.89662653795628L56.96888888888889,162.89663191928133L57.07,162.89663514807637L57.18555555555555,162.89663708535338L57.22888888888889,162.89663824771958L57.34444444444445,162.89663894513933L57.40222222222222,162.89663936359116L57.51777777777777,162.89663961466226L58.03777777777778,163.42242079885932L58.16777777777777,163.73788950937754L58.26888888888889,163.9271707356885L58.28333333333333,164.04073947147506L58.355555555555554,164.108880712947L58.39888888888889,164.14976545783017L58.586666666666666,164.17429630476005L58.65888888888889,164.189014812918L59.12111111111111,164.19784591781277L59.236666666666665,164.2031445807496L59.36666666666667,164.20632377851175L59.71333333333333,164.208231297169L59.97333333333333,164.20937580836335L60.14666666666667,164.21006251507998L60.36333333333333,164.21047453910995L60.406666666666666,164.21072175352793L60.71,164.21087008217873L61.056666666666665,164.2109590793692L61.08555555555556,164.21101247768348L61.96666666666667,164.21104451667205L62.24111111111112,164.21106374006519L62.4,164.2110752741011L62.74666666666667,164.21108219452262L62.79,164.21108634677555L62.87666666666667,164.21108883812727L63.10777777777778,164.2110903329383L63.151111111111106,164.21109122982497L63.23777777777778,164.21109176795696L63.425555555555555,164.21109209083613L63.57,164.21109228456362L63.61333333333334,164.21109240080014L63.64222222222222,164.21109247054204L63.80111111111111,164.21109251238718L64.09,164.21109253749427L64.10444444444444,164.2110925525585L64.13333333333334,164.2110925615971L64.89888888888889,164.2110925670202L65.43333333333332,164.2636706714448L65.46222222222222,164.29521753409955L65.53444444444443,164.3141456516924L65.59222222222222,164.3255025222481L65.80888888888889,164.3323166445815L66.43,164.33640511798157L66.50222222222222,164.3388582020216L66.54555555555555,164.34033005244564L66.58888888888889,164.34121316270003L67.42666666666668,164.3417430288527L67.54222222222222,164.3420609485443L67.61444444444444,164.34225170035924L67.99000000000001,164.3423661514482L68.07666666666665,164.34243482210158L68.16333333333333,164.3424760244936L68.45222222222222,164.34250074592885L68.61111111111111,164.34251557878997L68.69777777777779,164.34252447850665L68.72666666666666,164.34252981833666L68.81333333333333,164.34253302223468L68.87111111111112,164.34253494457346L69.1888888888889,164.34253609797673L69.27555555555556,164.3425367900187L69.39111111111112,164.3425372052439L69.46333333333334,164.342537454379L69.52111111111111,164.34253760386005L70.50333333333333,164.3425376935487L70.67666666666666,164.3425377473619L70.95111111111112,164.3425377796498L71.02333333333334,164.34253779902255L71.44222222222223,164.3425378106462L71.52888888888889,164.34253781762038L71.74555555555555,164.34253782180488L71.81777777777778,164.3425378243156L72.30888888888889,164.34779563629127L72.43888888888888,164.35095032347664L72.72777777777777,164.35284313578785L72.81444444444445,164.3539788231746L72.93,164.35466023560664L73.00222222222223,164.35506908306587L74.1,164.3553143915414L74.50444444444445,164.3554615766267L74.75,164.3555498876779L75.03888888888889,164.35560287430863L75.12555555555555,164.35563466628707L75.18333333333334,164.35565374147413L75.68888888888888,164.35566518658635L76.03555555555556,164.3556720536537L76.05,164.3556761738941L76.06444444444445,164.35567864603834L76.52666666666667,164.3556801293249L76.94555555555556,164.3556810192968L77.01777777777778,164.35568155327996L77.52333333333334,164.35568187366985L77.68222222222222,164.3556820659038L77.91333333333334,164.35568218124416L78.02888888888889,164.35568225044838L78.57777777777778,164.3556822919709L78.95333333333333,164.35568231688444L79.0111111111111,164.35568233183253L79.15555555555557,164.3556823408014L80.65777777777778,164.35620812722246L80.67222222222222,164.35652359907508L80.73,164.35671288218668L80.81666666666668,164.3568264520536L80.91777777777779,164.3568945939738L80.94666666666667,164.3569354791259L81.0188888888889,164.35696001021714L81.17777777777778,164.3569747288719L81.26444444444444,164.35698356006475L81.38,164.35698885878048L81.4088888888889,164.3569920380099L81.64,164.35699394554757L81.92888888888889,164.35699509007014L82.10222222222222,164.3569957767837L82.16,164.35699618881185L82.1888888888889,164.3569964360287L82.24666666666667,164.35699658435885L82.29,164.35699667335692L82.59333333333333,164.35699672675577L82.66555555555554,164.35699675879508L82.82444444444444,164.35699677801864L83.08444444444444,164.35699678955282L83.17111111111112,164.3569967964733L83.21444444444444,164.3569968006256L83.31555555555555,164.35699680311697L83.73444444444443,164.35699680461178L83.7488888888889,164.3569968055087L83.77777777777779,164.35699680604685L84.00888888888889,164.35699680636972L84.54333333333334,164.35699680656344L84.64444444444445,164.3569968066797L85.10666666666665,164.3569968067494L85.16444444444444,164.35699680679127L85.59777777777778,164.3569968068164L85.8288888888889,164.35699680683143L85.9588888888889,164.35699680684047L86.40666666666667,164.3569968068459L86.42111111111112,164.35699680684917L86.49333333333334,164.3569968068511L86.82555555555555,164.35704938495616L87.23,164.35708093181918L87.57666666666667,164.357099859937L87.67777777777778,164.35711121680765L88.48666666666666,164.35711803093008L88.50111111111111,164.35712211940353L88.74666666666667,164.35712457248758L88.76111111111112,164.35712604433803L88.83333333333333,164.3571269274483L88.99222222222222,164.35712745731445L89.16555555555556,164.35712777523415L89.22333333333333,164.35712796598597L90.16222222222223,164.35712808043706L91.05777777777777,164.35712814910772L91.2311111111111,164.3571281903101L91.63555555555556,164.35712821503154L91.70777777777778,164.3571282298644L91.7511111111111,164.35712823876412L91.83777777777777,164.35712824410396L92.05444444444444,164.35712824730786L92.5311111111111,164.3571282492302L92.69,164.3571282503836L93.21,164.35712825107564L93.7011111111111,164.35712825149085L93.99,164.3571335095505L94.14888888888889,164.35713666438627L94.6111111111111,164.35713855728775L94.66888888888889,164.3571396930286L95.2611111111111,164.35714037447315L95.30444444444446,164.35714078333987L95.55,164.3571410286599L95.7088888888889,164.35714117585192L95.98333333333332,164.35714126416713L96.05555555555556,164.35714131715628L96.08444444444446,164.35714134894974L96.24333333333333,164.35714136802582L96.41666666666667,164.35714137947147L96.72,164.35714138633887L96.85,164.3571413904593L96.8788888888889,164.35714139293157L97.12444444444444,164.35714139441492L97.6588888888889,164.35714139530495L97.71666666666667,164.35714139583894L98.13555555555556,164.35714139615934L98.17888888888889,164.3571413963516L98.39555555555556,164.35714139646694L98.45333333333333,164.35714139653615L98.52555555555554,164.35714139657767L99.00222222222222,164.35714139660257L99.27666666666667,164.35714139661752L99.53666666666668,164.3571413966265L99.7388888888889,164.35714139663187L99.79666666666667,164.35714139663511L100.18666666666667,164.35714139663705L100.20111111111112,164.3571413966382L100.31666666666666,164.35714139663892L100.40333333333334,164.35714139663932L100.41777777777779,164.35714139663958L100.54777777777778,164.35714139663975L100.96666666666665,164.3571413966398L101.31333333333333,164.3571419224209L101.37111111111112,164.35714223788958L101.4,164.35714242717077L101.53,164.3571425407395L101.64555555555555,164.35714260888074L101.87666666666667,164.35714264976548L102.00666666666666,164.35714267429628L102.02111111111111,164.3571426890148L102.15111111111112,164.35714269784592L102.23777777777777,164.35714270314458L102.7,164.35714270632377L102.94555555555556,164.3571427082313L103.11888888888889,164.3571427093758L103.32111111111111,164.3571427100625L103.81222222222222,164.35714271047453L103.88444444444444,164.35714271072175L104.33222222222223,164.35714271087008L104.41888888888889,164.35714271095907L104.46222222222222,164.35714271101247L104.49111111111111,164.3571427110445L104.63555555555556,164.35714271106374L104.66444444444444,164.35714271107526L104.69333333333333,164.3571427110822L105.06888888888888,164.35714271108634L105.14111111111112,164.35714271108884L105.32888888888888,164.35714271109035L105.56,164.35714271109123L105.61777777777777,164.35714271109177L105.79111111111112,164.35714271109208L105.90666666666667,164.35714271109228L105.92111111111112,164.3571427110924L106.00777777777778,164.35714271109245L106.15222222222222,164.3571427110925L106.31111111111112,164.35714271109254L106.58555555555556,164.35714271109254L106.71555555555555,164.35714271109256L106.86,164.35714271109256L107.38,164.35714271109256L107.43777777777778,164.3571427110926L107.59666666666666,164.3571427110926L107.74111111111111,164.3571427110926L107.75555555555556,164.3571427110926L107.8711111111111,164.3571427110926L108.20333333333333,164.3571427110926L108.43444444444445,164.35714276367068L108.53555555555556,164.35714279521753L108.59333333333333,164.35714281414565L108.63666666666667,164.3571428255025L108.83888888888889,164.35714283231664L109.24333333333334,164.35714283640513L109.43111111111111,164.3571428388582L109.63333333333334,164.35714284033006L109.85,164.35714284121315L109.93666666666667,164.357142841743L110.19666666666667,164.35714284206097L110.35555555555555,164.3571428422517L110.4711111111111,164.35714284236616L110.60111111111111,164.35714284243483L110.65888888888888,164.35714284247604L110.70222222222222,164.35714284250074L110.7311111111111,164.35714284251557L111.09222222222222,164.3571428425245L111.1211111111111,164.35714284252984L111.14999999999999,164.35714284253302L111.20777777777778,164.35714284253493L111.22222222222221,164.3571428425361L111.33777777777777,164.35714284253677L111.41,164.3571428425372L111.6411111111111,164.35714284253746L111.71333333333332,164.3571428425376L112.04555555555557,164.35714284253768L112.17555555555556,164.35714284253774L112.71,164.3571428425378L112.72444444444446,164.3571428425378L112.82555555555557,164.3571428425378L112.88333333333333,164.3571428425378L113.17222222222222,164.35714284253783L113.5911111111111,164.35714284253783L113.88,164.35714284253783L114.03888888888889,164.35714284253783L114.06777777777778,164.35714284253783L114.45777777777778,164.35714284253783L115.42555555555555,164.35714284253783L115.9888888888889,164.35714284779564L116.09,164.3571428509503L116.27777777777779,164.35714285284314L116.52333333333333,164.35714285397881L116.62444444444444,164.35714285466025L117.14444444444445,164.35714285506907L117.21666666666665,164.35714285531438L117.41888888888889,164.35714285546157L117.83777777777779,164.35714285554988L117.98222222222222,164.3571428556029L118.18444444444444,164.35714285563466L118.53111111111112,164.35714285565373L118.66111111111111,164.3571428556652L118.69,164.35714285567204L118.89222222222223,164.3571428556762L118.93555555555555,164.35714285567866L119.22444444444444,164.35714285568014L119.52777777777777,164.35714285568102L119.96111111111111,164.35714285568156L120.17777777777778,164.35714285568187L120.45222222222222,164.35714285568207L120.51,164.35714285568218L120.66888888888889,164.35714285568224L120.79888888888888,164.3571428556823L120.92888888888888,164.3571428556823L121.37666666666667,164.35714285568233L121.44888888888889,164.35714285568235L121.70888888888888,164.35714285568235L121.73777777777778,164.35714285568235L122.82111111111112,164.35714285620813L122.97999999999999,164.3571428565236L123.32666666666667,164.35714285671287L123.45666666666666,164.35714285682644L123.87555555555555,164.3571428568946L124.10666666666667,164.3571428569355L124.29444444444445,164.35714285696002L124.43888888888888,164.35714285697472L124.74222222222222,164.35714285698356L124.77111111111111,164.35714285698887L124.97333333333334,164.35714285699206L125.01666666666667,164.35714285699396L125.13222222222223,164.3571428569951L125.26222222222223,164.35714285699578L125.37777777777778,164.35714285699618L125.40666666666667,164.35714285699643L126.01333333333334,164.35714285699657L126.18666666666667,164.3571428569967L126.43222222222222,164.35714285699672L126.46111111111111,164.35714285699675L126.47555555555556,164.35714285699677L126.56222222222222,164.35714285699677L126.60555555555555,164.3571428569968L127.03888888888889,164.3571428569968L127.16888888888889,164.3571428569968L127.53,164.3571428569968L127.57333333333332,164.3571428569968L127.90555555555557,164.3571428569968L128.1222222222222,164.3571428569968L128.4111111111111,164.3571428569968L128.54111111111112,164.3571428569968L129.1911111111111,164.3571428569968L129.29222222222222,164.3571428569968L129.48,164.3571428569968L129.62444444444444,164.3571428569968L129.87,164.3571428569968L130.20222222222222,164.35714285704938L130.24555555555554,164.35714285708093L130.4188888888889,164.35714285709986L130.44777777777776,164.35714285711123L130.92444444444445,164.35714285711802L131.04,164.3571428571221L131.17,164.35714285712456L131.35777777777778,164.35714285712604L131.57444444444445,164.35714285712692L131.58888888888887,164.35714285712746L131.6611111111111,164.35714285712777L131.67555555555558,164.35714285712797L131.80555555555554,164.35714285712808L131.8777777777778,164.35714285712814L132.15222222222224,164.3571428571282L132.25333333333336,164.3571428571282L133.0911111111111,164.35714285712822L133.10555555555555,164.35714285712825L133.64000000000001,164.35714285712825L133.6688888888889,164.35714285712825L133.85666666666668,164.35714285712825L134.08777777777777,164.35714285712825L134.70888888888888,164.35714285712825L134.98333333333332,164.35714285712825L135.0988888888889,164.35714285712825L135.18555555555554,164.35714285712825L135.48888888888888,164.35714285712825L135.60444444444445,164.35714285712825L135.70555555555555,164.35714285712825L135.7777777777778,164.35714285712825L136.0522222222222,164.35714285712825L136.96222222222224,164.35714285712825L137.02,164.35714285712825L137.03444444444446,164.35714285712825L137.35222222222222,164.3571428571335L137.41,164.35714285713667L137.45333333333332,164.35714285713857L137.62666666666667,164.3571428571397L137.8,164.35714285714036L137.82888888888888,164.3571428571408L138.4788888888889,164.35714285714104L138.62333333333333,164.35714285714118L138.92666666666668,164.35714285714127L139.05666666666667,164.3571428571413L139.1,164.35714285714135L139.4177777777778,164.35714285714138L139.5188888888889,164.35714285714138L139.66333333333333,164.35714285714138L139.82222222222222,164.35714285714138L140.0966666666667,164.35714285714138L140.12555555555556,164.35714285714138L140.22666666666666,164.35714285714138L140.38555555555556,164.35714285714138L140.83333333333331,164.35714285714138L140.92000000000002,164.35714285714138L141.22333333333333,164.35714285714138L141.4688888888889,164.35714285714138L141.4977777777778,164.35714285714138L141.58444444444444,164.35714285714138L141.68555555555557,164.35714285714138L141.87333333333333,164.35714285714138L142.00333333333333,164.35714285714138L142.06111111111113,164.35714285714138L142.3788888888889,164.35714285714138L142.52333333333334,164.35714285714138L142.60999999999999,164.35714285714138L142.65333333333334,164.35714285714138L143.18777777777777,164.35714285714138L143.27444444444444,164.35714285714138L143.5922222222222,164.35714285714138L143.60666666666668,164.35714285714138L143.62111111111113,164.35714285714138L143.91,164.35714285714138L143.9388888888889,164.35714285714138L143.98222222222222,164.35714285714138L144.09777777777776,164.35714285714138L144.21333333333334,164.35714285714138L144.50222222222223,164.35714285714192L144.5311111111111,164.35714285714224L144.87777777777777,164.35714285714243L144.95,164.35714285714255L145.16666666666666,164.3571428571426L145.29666666666665,164.35714285714263L145.68666666666667,164.35714285714266L145.74444444444444,164.3571428571427L145.80222222222224,164.35714285714272L145.8311111111111,164.35714285714272L145.90333333333334,164.35714285714272L146.04777777777778,164.35714285714272L146.0911111111111,164.35714285714272L146.43777777777777,164.35714285714272L146.78444444444446,164.35714285714272L146.89999999999998,164.35714285714272L147.40555555555557,164.35714285714272L147.47777777777776,164.35714285714272L147.6511111111111,164.35714285714272L148.1277777777778,164.35714285714272L148.35888888888888,164.35714285714272L148.37333333333333,164.35714285714272L148.80666666666667,164.35714285714272L148.8211111111111,164.35714285714272L149.29777777777778,164.35714285714272L149.44222222222223,164.35714285714272L149.4711111111111,164.35714285714272L149.48555555555558,164.35714285714272L149.58666666666667,164.35714285714272L149.61555555555555,164.35714285714272L149.64444444444445,164.35714285714272L149.89000000000001,164.35714285714272L149.9188888888889,164.35714285714272L149.9622222222222,164.35714285714272L150.23666666666665,164.35714285714272L150.43888888888887,164.35714285714272L150.5688888888889,164.35714285714272L150.59777777777776,164.35714285714272L150.61222222222221,164.35714285714272L150.7277777777778,164.35714285714272L150.75666666666666,164.35714285714272L150.7711111111111,164.35714285714272L150.79999999999998,164.35714285714272L150.91555555555556,164.35714285714272L150.93,164.35714285714272L151.17555555555555,164.35714285714272L151.20444444444445,164.35714285714272L151.27666666666667,164.35714285714272L151.62333333333333,164.35714285714272L151.66666666666669,164.35714285714278L152.18666666666667,164.35714285714278L152.2877777777778,164.3571428571428L152.50444444444446,164.35714285714283L152.63444444444445,164.35714285714283L152.7211111111111,164.35714285714283L152.75,164.35714285714283L152.79333333333332,164.35714285714283L152.9811111111111,164.35714285714283L153.0677777777778,164.35714285714283L153.15444444444444,164.35714285714283L153.51555555555555,164.35714285714283L153.55888888888887,164.35714285714283L154.52666666666667,164.35714285714283L154.64222222222222,164.35714285714283L154.65666666666667,164.35714285714283L155.0611111111111,164.35714285714283L155.22,164.35714285714283L155.26333333333332,164.35714285714283L155.33555555555554,164.35714285714283L155.53777777777776,164.35714285714283L155.82666666666668,164.35714285714283L155.8411111111111,164.35714285714283L156.0288888888889,164.35714285714283L156.07222222222222,164.35714285714283L156.7222222222222,164.35714285714283L156.83777777777777,164.35714285714283L156.9388888888889,164.35714285714283L157.11222222222221,164.35714285714283L157.60333333333332,164.35714285714283L157.77666666666667,164.35714285714283L157.8488888888889,164.35714285714283L157.99333333333334,164.35714285714283L158.09444444444443,164.35714285714283L158.15222222222224,164.35714285714283L158.71555555555557,164.35714285714283L158.87444444444444,164.35714285714283L159.1488888888889,164.35714285714283L159.20666666666665,164.35714285714283L159.4088888888889,164.35714285714286L159.42333333333332,164.35714285714286L159.49555555555557,164.35714285714286L159.55333333333334,164.35714285714286L159.62555555555554,164.35714285714286L160.59333333333333,164.35714285714286L160.82444444444442,164.35714285714286L161.3011111111111,164.35714285714286L161.33,164.35714285714286L161.34444444444443,164.35714285714286L161.41666666666666,164.35714285714286L161.83555555555557,164.35714285714286L161.85000000000002,164.35714285714286L161.96555555555554,164.35714285714286L161.98,164.35714285714286L162.12444444444444,164.35714285714286L162.42777777777778,164.35714285714286L162.86111111111111,164.35714285714286L163.10666666666665,164.35714285714286L163.55444444444444,164.35714285714286L163.61222222222224,164.35714285714286L164.19,164.35714285714286L164.39222222222224,164.35714285714286L164.42111111111112,164.35714285714286L164.4788888888889,164.35714285714286L164.49333333333334,164.35714285714286L164.62333333333333,164.35714285714286L164.84,164.35714285714286L165.02777777777777,164.35714285714286L165.08555555555554,164.35714285714286L165.50444444444443,164.35714285714286L165.75,164.35714285714286L165.90888888888887,164.35714285714286L165.96666666666667,164.35714285714286L166.2122222222222,164.35714285714286L166.31333333333333,164.35714285714286L166.54444444444445,164.35714285714286L166.5588888888889,164.35714285714286L166.79,164.35714285714286L168.22,164.35714285714286L168.4511111111111,164.35714285714286L168.46555555555554,164.35714285714286L169.56333333333333,164.35714285714286L169.60666666666665,164.35714285714286L169.70777777777778,164.35714285714286L169.9388888888889,164.35714285714286L170.05444444444444,164.35714285714286L170.15555555555557,164.35714285714286L170.24222222222224,164.35714285714286L170.44444444444446,164.35714285714286L170.4588888888889,164.35714285714286L170.8777777777778,164.35714285714286L171.25333333333333,164.35714285714286L171.3111111111111,164.35714285714286L171.5711111111111,164.35714285714286L171.64333333333335,164.35714285714286L171.67222222222222,164.35714285714286L171.70111111111112,164.35714285714286L171.9322222222222,164.35714285714286L172.25,164.35714285714286L172.3511111111111,164.35714285714286L172.56777777777776,164.35714285714286L172.68333333333334,164.35714285714286L173.00111111111113,164.35714285714286L173.42000000000002,164.35714285714286L173.4922222222222,164.35714285714286L173.82444444444445,164.35714285714286L174.17111111111112,164.35714285714286L174.2577777777778,164.35714285714286L174.83555555555554,164.35714285714286L175.2111111111111,164.35714285714286L175.35555555555555,164.35714285714286L175.5,164.35714285714286L175.51444444444442,164.35714285714286L175.61555555555555,164.35714285714286L176.33777777777777,164.35714285714286L176.68444444444444,164.35714285714286L176.81444444444443,164.35714285714286L176.94444444444446,164.35714285714286L177.14666666666668,164.35714285714286L177.27666666666664,164.35714285714286L177.36333333333334,164.35714285714286L177.45,164.35714285714286L177.56555555555556,164.35714285714286L177.62333333333333,164.35714285714286L177.86888888888888,164.35714285714286L177.88333333333335,164.35714285714286L178.40333333333334,164.35714285714286L178.50444444444446,164.35714285714286L178.5911111111111,164.35714285714286L179.58777777777777,164.35714285714286L179.64555555555557,164.35714285714286L180.23777777777778,164.35714285714286L180.26666666666668,164.35714285714286L180.28111111111113,164.35714285714286L180.44,164.35714285714286L180.4688888888889,164.35714285714286L180.54111111111112,164.35714285714286L180.57,164.35714285714286L180.71444444444444,164.35714285714286L180.74333333333334,164.35714285714286L180.78666666666666,164.35714285714286L181.16222222222223,164.35714285714286L181.20555555555558,164.35714285714286L181.72555555555556,164.35714285714286L181.9711111111111,164.35714285714286L182.31777777777776,164.35714285714286L182.43333333333334,164.35714285714286L182.78,164.35714285714286L183.15555555555557,164.35714285714286L183.2711111111111,164.35714285714286L183.5022222222222,164.35714285714286L183.54555555555555,164.35714285714286L183.5888888888889,164.35714285714286L183.61777777777777,164.35714285714286L183.63222222222223,164.35714285714286L183.71888888888887,164.35714285714286L183.77666666666667,164.35714285714286L183.8488888888889,164.35714285714286L183.9211111111111,164.35714285714286L184.0222222222222,164.35714285714286L184.1811111111111,164.35714285714286L184.38333333333333,164.35714285714286L184.47,164.35714285714286L184.49888888888887,164.35714285714286L184.7877777777778,164.35714285714286L184.84555555555556,164.35714285714286L184.88888888888889,164.35714285714286L185.0911111111111,164.35714285714286L185.23555555555555,164.35714285714286L185.36555555555557,164.35714285714286L185.39444444444445,164.35714285714286L185.46666666666667,164.35714285714286L185.59666666666666,164.35714285714286L185.8422222222222,164.35714285714286L186.0011111111111,164.35714285714286L186.4488888888889,164.35714285714286L186.66555555555556,164.35714285714286L187.2288888888889,164.35714285714286L187.54666666666668,164.35714285714286L187.59,164.35714285714286L187.73444444444445,164.35714285714286L187.77777777777777,164.35714285714286L187.79222222222222,164.35714285714286L188.15333333333334,164.35714285714286L188.41333333333333,164.35714285714286L188.42777777777778,164.35714285714286L188.51444444444445,164.35714285714286L189.39555555555555,164.35714285714286L189.81444444444446,164.35714285714286L190.36333333333332,164.35714285714286L190.42111111111112,164.35714285714286L190.6811111111111,164.35714285714286L190.7822222222222,164.35714285714286L190.84,164.35714285714286L191.1,164.35714285714286L191.18666666666667,164.35714285714286L191.34555555555553,164.35714285714286L191.47555555555556,164.35714285714286L191.59111111111113,164.35714285714286L191.95222222222222,164.35714285714286L192.57333333333335,164.35714285714286L192.73222222222222,164.35714285714286L192.8188888888889,164.35714285714286L193.06444444444443,164.35714285714286L193.18,164.35714285714286L193.29555555555555,164.35714285714286L193.39666666666668,164.35714285714286L193.45444444444445,164.35714285714286L193.67111111111112,164.35714285714286L193.7288888888889,164.35714285714286L193.97444444444446,164.35714285714286L194.0611111111111,164.35714285714286L194.29222222222222,164.35714285714286L194.81222222222223,164.35714285714286L194.85555555555555,164.35714285714286L194.92777777777778,164.35714285714286L195.05777777777777,164.35714285714286L195.21666666666667,164.35714285714286L195.34666666666666,164.35714285714286L195.44777777777776,164.35714285714286L195.60666666666665,164.35714285714286L195.76555555555555,164.35714285714286L195.95333333333335,164.35714285714286L196.05444444444444,164.35714285714286L196.12666666666667,164.35714285714286L196.2711111111111,164.35714285714286L196.57444444444445,164.35714285714286L196.73333333333335,164.35714285714286L196.99333333333334,164.35714285714286L197.00777777777776,164.35714285714286L197.1811111111111,164.35714285714286L197.26777777777778,164.35714285714286L197.32555555555555,164.35714285714286L197.45555555555558,164.35714285714286L197.70111111111112,164.35714285714286L197.73,164.35714285714286L197.78777777777776,164.35714285714286L198.03333333333336,164.35714285714286L198.42333333333332,164.35714285714286L198.79888888888888,164.35714285714286L198.82777777777778,164.35714285714286L198.8711111111111,164.35714285714286L199.03,164.35714285714286L199.08777777777777,164.35714285714286L199.17444444444445,164.35714285714286L199.18888888888887,164.35714285714286L199.20333333333332,164.35714285714286L199.3911111111111,164.35714285714286L199.50666666666666,164.35714285714286L199.54999999999998,164.35714285714286L199.59333333333333,164.35714285714286L199.62222222222223,164.35714285714286L200.12777777777777,164.35714285714286L200.2577777777778,164.35714285714286L200.54666666666665,164.35714285714286L200.99444444444447,164.35714285714286L201.41333333333333,164.35714285714286L201.4711111111111,164.35714285714286L201.57222222222222,164.35714285714286L201.9911111111111,164.35714285714286L202.19333333333333,164.35714285714286L202.35222222222222,164.35714285714286L202.36666666666667,164.35714285714286L203.16111111111113,164.35714285714286L203.45,164.35714285714286L203.70999999999998,164.35714285714286L204.0711111111111,164.35714285714286L204.08555555555554,164.35714285714286L204.2588888888889,164.35714285714286L204.63444444444443,164.35714285714286L205.42888888888888,164.35714285714286L205.48666666666668,164.35714285714286L205.61666666666667,164.35714285714286L206.4111111111111,164.35714285714286L206.54111111111112,164.35714285714286L206.87333333333333,164.35714285714286L207.52333333333334,164.35714285714286L207.84111111111113,164.35714285714286L207.85555555555555,164.35714285714286L207.94222222222223,164.35714285714286L208,164.35714285714286L208.20222222222222,164.35714285714286L208.4477777777778,164.35714285714286L209.14111111111112,164.35714285714286L209.63222222222223,164.35714285714286L209.99333333333334,164.35714285714286L210.52777777777777,164.35714285714286L210.70111111111112,164.35714285714286L210.7877777777778,164.35714285714286L211.22111111111113,164.35714285714286L211.43777777777777,164.35714285714286L211.58222222222224,164.35714285714286L212.24666666666667,164.35714285714286L212.39111111111112,164.35714285714286L212.57888888888888,164.35714285714286L212.62222222222223,164.35714285714286L212.70888888888888,164.35714285714286L212.75222222222223,164.35714285714286L212.9111111111111,164.35714285714286L212.95444444444445,164.35714285714286L213.15666666666667,164.35714285714286L213.2,164.35714285714286L213.72,164.35714285714286L213.76333333333335,164.35714285714286L213.8211111111111,164.35714285714286L214.0088888888889,164.35714285714286L214.26888888888888,164.35714285714286L214.48555555555558,164.35714285714286L214.5288888888889,164.35714285714286L214.6877777777778,164.35714285714286L215.3088888888889,164.35714285714286L215.3811111111111,164.35714285714286L215.58333333333334,164.35714285714286L215.84333333333333,164.35714285714286L215.98777777777778,164.35714285714286L216.5511111111111,164.35714285714286L216.9411111111111,164.35714285714286L217.08555555555557,164.35714285714286L217.2877777777778,164.35714285714286L217.3311111111111,164.35714285714286L217.43222222222224,164.35714285714286L217.4466666666667,164.35714285714286L217.70666666666668,164.35714285714286L217.79333333333332,164.35714285714286L217.8077777777778,164.35714285714286L217.92333333333332,164.35714285714286L218.21222222222224,164.35714285714286L218.28444444444446,164.35714285714286L218.71777777777777,164.35714285714286L218.87666666666667,164.35714285714286L218.89111111111112,164.35714285714286L219.2088888888889,164.35714285714286L219.25222222222223,164.35714285714286L219.35333333333332,164.35714285714286L219.39666666666668,164.35714285714286L219.55555555555554,164.35714285714286L219.7433333333333,164.35714285714286L219.77222222222224,164.35714285714286L220.2488888888889,164.35714285714286L220.30666666666667,164.35714285714286L220.91333333333333,164.35714285714286L220.95666666666668,164.35714285714286L221.11555555555555,164.35714285714286L221.23111111111112,164.35714285714286L221.4188888888889,164.35714285714286L221.50555555555553,164.35714285714286L221.53444444444446,164.35714285714286L221.60666666666668,164.35714285714286L221.69333333333333,164.35714285714286L221.8088888888889,164.35714285714286L222.43,164.35714285714286L222.63222222222223,164.35714285714286L222.82,164.35714285714286L222.89222222222222,164.35714285714286L223.16666666666666,164.35714285714286L223.25333333333333,164.35714285714286L223.57111111111112,164.35714285714286L224.10555555555555,164.35714285714286L224.20666666666665,164.35714285714286L224.5388888888889,164.35714285714286L224.65444444444444,164.35714285714286L225.14555555555555,164.35714285714286L225.17444444444445,164.35714285714286L226.27222222222224,164.35714285714286L226.54666666666665,164.35714285714286L226.85000000000002,164.35714285714286L227.60111111111112,164.35714285714286L227.64444444444445,164.35714285714286L227.77444444444444,164.35714285714286L227.9188888888889,164.35714285714286L228.30888888888887,164.35714285714286L228.38111111111112,164.35714285714286L228.56888888888886,164.35714285714286L228.84333333333333,164.35714285714286L229.01666666666668,164.35714285714286L229.17555555555558,164.35714285714286L229.24777777777777,164.35714285714286L229.26222222222222,164.35714285714286L229.30555555555554,164.35714285714286L229.4788888888889,164.35714285714286L229.53666666666666,164.35714285714286L229.62333333333333,164.35714285714286L229.86888888888888,164.35714285714286L230.11444444444444,164.35714285714286L230.37444444444446,164.35714285714286L230.48999999999998,164.35714285714286L230.73555555555558,164.35714285714286L230.83666666666667,164.35714285714286L230.89444444444445,164.35714285714286L230.95222222222225,164.35714285714286L231.0822222222222,164.35714285714286L231.67444444444445,164.35714285714286L231.74666666666667,164.35714285714286L232.0211111111111,164.35714285714286" style="fill: none;" fill="none"></path></g></g></g></g><g opacity="0.2"><g><g><g><path stroke="rgb(255, 112, 67)" stroke-width="2px" d="M35.37444444444445,-1296.1457200731552L36.154444444444444,18.30685185428174L36.22666666666667,18.30685185428174L36.37111111111111,18.30685185428174L36.64555555555556,18.30685185428174L36.94888888888889,18.30685185428174L37.51222222222222,18.30685185428174L37.714444444444446,18.30685185428174L37.91666666666667,18.30685185428174L38.147777777777776,18.30685185428174L38.22,18.30685185428174L38.45111111111111,18.30685185428174L38.638888888888886,18.30685185428174L38.69666666666667,18.30685185428174L38.82666666666667,18.30685185428174L39.18777777777778,18.30685185428174L39.21666666666667,18.30685185428174L39.31777777777778,18.30685185428174L39.39,18.30685185428174L39.54888888888889,18.30685185428174L39.635555555555555,18.30685185428174L39.76555555555555,18.30685185428174L39.80888888888889,18.30685185428174L39.93888888888889,18.30685185428174L40.05444444444444,18.30685185428174L40.11222222222223,18.30685185428174L40.184444444444445,18.30685185428174L40.25666666666666,18.30685185428174L40.27111111111111,18.30685185428174L40.473333333333336,18.30685185428174L40.58888888888889,18.30685185428174L40.70444444444445,18.30685185428174L40.97888888888889,18.30685185428174L41.05111111111111,18.30685185428174L41.13777777777777,18.30685185428174L41.48444444444445,18.30685185428174L41.6,18.30685185428174L41.614444444444445,18.30685185428174L41.83111111111111,18.30685185428174L41.88888888888889,18.30685185428174L42.047777777777775,18.30685185428174L42.20666666666666,18.30685185428174L42.55333333333333,18.30685185428174L42.72666666666667,18.30685185428174L43.001111111111115,18.30685185428174L43.160000000000004,18.30685185428174L43.40555555555556,149.7521149343146L43.73777777777778,149.7521149343146L43.78111111111111,149.7521149343146L44.61888888888889,149.7521149343146L44.73444444444444,149.7521149343146L44.748888888888885,149.7521149343146L44.922222222222224,149.7521149343146L45.12444444444444,149.7521149343146L45.16777777777778,149.7521149343146L45.42777777777778,149.7521149343146L45.528888888888886,149.7521149343146L45.61555555555555,149.7521149343146L45.861111111111114,149.7521149343146L46.72777777777778,149.7521149343146L47.01666666666667,149.7521149343146L47.58,149.7521149343146L48.013333333333335,149.7521149343146L48.23,149.7521149343146L48.287777777777784,149.7521149343146L48.30222222222222,149.7521149343146L48.38888888888889,149.7521149343146L48.403333333333336,149.7521149343146L48.62,149.7521149343146L48.894444444444446,149.7521149343146L49.22666666666667,149.7521149343146L49.24111111111111,149.7521149343146L49.25555555555555,149.7521149343146L49.660000000000004,149.7521149343146L49.86222222222222,149.7521149343146L50.050000000000004,149.7521149343146L50.440000000000005,149.7521149343146L50.57,162.8966399912689L50.74333333333333,162.8966399912689L50.757777777777775,162.8966399912689L50.87333333333333,162.8966399912689L51.19111111111111,162.8966399912689L51.52333333333333,162.8966399912689L51.74,162.8966399912689L52.794444444444444,162.8966399912689L52.80888888888889,162.8966399912689L52.83777777777778,162.8966399912689L52.852222222222224,162.8966399912689L52.93888888888889,162.8966399912689L52.967777777777776,162.8966399912689L53.242222222222225,162.8966399912689L53.27111111111111,162.8966399912689L53.48777777777778,162.8966399912689L53.71888888888889,162.8966399912689L54.181111111111115,162.8966399912689L54.224444444444444,162.8966399912689L54.36888888888889,162.8966399912689L54.989999999999995,162.8966399912689L55.09111111111111,162.8966399912689L55.13444444444444,162.8966399912689L55.79888888888889,162.8966399912689L56.05888888888889,162.8966399912689L56.651111111111106,162.8966399912689L56.68,162.8966399912689L56.96888888888889,162.8966399912689L57.07,162.8966399912689L57.18555555555555,162.8966399912689L57.22888888888889,162.8966399912689L57.34444444444445,162.8966399912689L57.40222222222222,162.8966399912689L57.51777777777777,162.8966399912689L58.03777777777778,164.2110925751549L58.16777777777777,164.2110925751549L58.26888888888889,164.2110925751549L58.28333333333333,164.2110925751549L58.355555555555554,164.2110925751549L58.39888888888889,164.2110925751549L58.586666666666666,164.2110925751549L58.65888888888889,164.2110925751549L59.12111111111111,164.2110925751549L59.236666666666665,164.2110925751549L59.36666666666667,164.2110925751549L59.71333333333333,164.2110925751549L59.97333333333333,164.2110925751549L60.14666666666667,164.2110925751549L60.36333333333333,164.2110925751549L60.406666666666666,164.2110925751549L60.71,164.2110925751549L61.056666666666665,164.2110925751549L61.08555555555556,164.2110925751549L61.96666666666667,164.2110925751549L62.24111111111112,164.2110925751549L62.4,164.2110925751549L62.74666666666667,164.2110925751549L62.79,164.2110925751549L62.87666666666667,164.2110925751549L63.10777777777778,164.2110925751549L63.151111111111106,164.2110925751549L63.23777777777778,164.2110925751549L63.425555555555555,164.2110925751549L63.57,164.2110925751549L63.61333333333334,164.2110925751549L63.64222222222222,164.2110925751549L63.80111111111111,164.2110925751549L64.09,164.2110925751549L64.10444444444444,164.2110925751549L64.13333333333334,164.2110925751549L64.89888888888889,164.2110925751549L65.43333333333332,164.34253782808165L65.46222222222222,164.34253782808165L65.53444444444443,164.34253782808165L65.59222222222222,164.34253782808165L65.80888888888889,164.34253782808165L66.43,164.34253782808165L66.50222222222222,164.34253782808165L66.54555555555555,164.34253782808165L66.58888888888889,164.34253782808165L67.42666666666668,164.34253782808165L67.54222222222222,164.34253782808165L67.61444444444444,164.34253782808165L67.99000000000001,164.34253782808165L68.07666666666665,164.34253782808165L68.16333333333333,164.34253782808165L68.45222222222222,164.34253782808165L68.61111111111111,164.34253782808165L68.69777777777779,164.34253782808165L68.72666666666666,164.34253782808165L68.81333333333333,164.34253782808165L68.87111111111112,164.34253782808165L69.1888888888889,164.34253782808165L69.27555555555556,164.34253782808165L69.39111111111112,164.34253782808165L69.46333333333334,164.34253782808165L69.52111111111111,164.34253782808165L70.50333333333333,164.34253782808165L70.67666666666666,164.34253782808165L70.95111111111112,164.34253782808165L71.02333333333334,164.34253782808165L71.44222222222223,164.34253782808165L71.52888888888889,164.34253782808165L71.74555555555555,164.34253782808165L71.81777777777778,164.34253782808165L72.30888888888889,164.3556823542547L72.43888888888888,164.3556823542547L72.72777777777777,164.3556823542547L72.81444444444445,164.3556823542547L72.93,164.3556823542547L73.00222222222223,164.3556823542547L74.1,164.3556823542547L74.50444444444445,164.3556823542547L74.75,164.3556823542547L75.03888888888889,164.3556823542547L75.12555555555555,164.3556823542547L75.18333333333334,164.3556823542547L75.68888888888888,164.3556823542547L76.03555555555556,164.3556823542547L76.05,164.3556823542547L76.06444444444445,164.3556823542547L76.52666666666667,164.3556823542547L76.94555555555556,164.3556823542547L77.01777777777778,164.3556823542547L77.52333333333334,164.3556823542547L77.68222222222222,164.3556823542547L77.91333333333334,164.3556823542547L78.02888888888889,164.3556823542547L78.57777777777778,164.3556823542547L78.95333333333333,164.3556823542547L79.0111111111111,164.3556823542547L79.15555555555557,164.3556823542547L80.65777777777778,164.35699680685406L80.67222222222222,164.35699680685406L80.73,164.35699680685406L80.81666666666668,164.35699680685406L80.91777777777779,164.35699680685406L80.94666666666667,164.35699680685406L81.0188888888889,164.35699680685406L81.17777777777778,164.35699680685406L81.26444444444444,164.35699680685406L81.38,164.35699680685406L81.4088888888889,164.35699680685406L81.64,164.35699680685406L81.92888888888889,164.35699680685406L82.10222222222222,164.35699680685406L82.16,164.35699680685406L82.1888888888889,164.35699680685406L82.24666666666667,164.35699680685406L82.29,164.35699680685406L82.59333333333333,164.35699680685406L82.66555555555554,164.35699680685406L82.82444444444444,164.35699680685406L83.08444444444444,164.35699680685406L83.17111111111112,164.35699680685406L83.21444444444444,164.35699680685406L83.31555555555555,164.35699680685406L83.73444444444443,164.35699680685406L83.7488888888889,164.35699680685406L83.77777777777779,164.35699680685406L84.00888888888889,164.35699680685406L84.54333333333334,164.35699680685406L84.64444444444445,164.35699680685406L85.10666666666665,164.35699680685406L85.16444444444444,164.35699680685406L85.59777777777778,164.35699680685406L85.8288888888889,164.35699680685406L85.9588888888889,164.35699680685406L86.40666666666667,164.35699680685406L86.42111111111112,164.35699680685406L86.49333333333334,164.35699680685406L86.82555555555555,164.3571282521137L87.23,164.3571282521137L87.57666666666667,164.3571282521137L87.67777777777778,164.3571282521137L88.48666666666666,164.3571282521137L88.50111111111111,164.3571282521137L88.74666666666667,164.3571282521137L88.76111111111112,164.3571282521137L88.83333333333333,164.3571282521137L88.99222222222222,164.3571282521137L89.16555555555556,164.3571282521137L89.22333333333333,164.3571282521137L90.16222222222223,164.3571282521137L91.05777777777777,164.3571282521137L91.2311111111111,164.3571282521137L91.63555555555556,164.3571282521137L91.70777777777778,164.3571282521137L91.7511111111111,164.3571282521137L91.83777777777777,164.3571282521137L92.05444444444444,164.3571282521137L92.5311111111111,164.3571282521137L92.69,164.3571282521137L93.21,164.3571282521137L93.7011111111111,164.3571282521137L93.99,164.35714139663995L94.14888888888889,164.35714139663995L94.6111111111111,164.35714139663995L94.66888888888889,164.35714139663995L95.2611111111111,164.35714139663995L95.30444444444446,164.35714139663995L95.55,164.35714139663995L95.7088888888889,164.35714139663995L95.98333333333332,164.35714139663995L96.05555555555556,164.35714139663995L96.08444444444446,164.35714139663995L96.24333333333333,164.35714139663995L96.41666666666667,164.35714139663995L96.72,164.35714139663995L96.85,164.35714139663995L96.8788888888889,164.35714139663995L97.12444444444444,164.35714139663995L97.6588888888889,164.35714139663995L97.71666666666667,164.35714139663995L98.13555555555556,164.35714139663995L98.17888888888889,164.35714139663995L98.39555555555556,164.35714139663995L98.45333333333333,164.35714139663995L98.52555555555554,164.35714139663995L99.00222222222222,164.35714139663995L99.27666666666667,164.35714139663995L99.53666666666668,164.35714139663995L99.7388888888889,164.35714139663995L99.79666666666667,164.35714139663995L100.18666666666667,164.35714139663995L100.20111111111112,164.35714139663995L100.31666666666666,164.35714139663995L100.40333333333334,164.35714139663995L100.41777777777779,164.35714139663995L100.54777777777778,164.35714139663995L100.96666666666665,164.35714139663995L101.31333333333333,164.3571427110926L101.37111111111112,164.3571427110926L101.4,164.3571427110926L101.53,164.3571427110926L101.64555555555555,164.3571427110926L101.87666666666667,164.3571427110926L102.00666666666666,164.3571427110926L102.02111111111111,164.3571427110926L102.15111111111112,164.3571427110926L102.23777777777777,164.3571427110926L102.7,164.3571427110926L102.94555555555556,164.3571427110926L103.11888888888889,164.3571427110926L103.32111111111111,164.3571427110926L103.81222222222222,164.3571427110926L103.88444444444444,164.3571427110926L104.33222222222223,164.3571427110926L104.41888888888889,164.3571427110926L104.46222222222222,164.3571427110926L104.49111111111111,164.3571427110926L104.63555555555556,164.3571427110926L104.66444444444444,164.3571427110926L104.69333333333333,164.3571427110926L105.06888888888888,164.3571427110926L105.14111111111112,164.3571427110926L105.32888888888888,164.3571427110926L105.56,164.3571427110926L105.61777777777777,164.3571427110926L105.79111111111112,164.3571427110926L105.90666666666667,164.3571427110926L105.92111111111112,164.3571427110926L106.00777777777778,164.3571427110926L106.15222222222222,164.3571427110926L106.31111111111112,164.3571427110926L106.58555555555556,164.3571427110926L106.71555555555555,164.3571427110926L106.86,164.3571427110926L107.38,164.3571427110926L107.43777777777778,164.3571427110926L107.59666666666666,164.3571427110926L107.74111111111111,164.3571427110926L107.75555555555556,164.3571427110926L107.8711111111111,164.3571427110926L108.20333333333333,164.3571427110926L108.43444444444445,164.35714284253783L108.53555555555556,164.35714284253783L108.59333333333333,164.35714284253783L108.63666666666667,164.35714284253783L108.83888888888889,164.35714284253783L109.24333333333334,164.35714284253783L109.43111111111111,164.35714284253783L109.63333333333334,164.35714284253783L109.85,164.35714284253783L109.93666666666667,164.35714284253783L110.19666666666667,164.35714284253783L110.35555555555555,164.35714284253783L110.4711111111111,164.35714284253783L110.60111111111111,164.35714284253783L110.65888888888888,164.35714284253783L110.70222222222222,164.35714284253783L110.7311111111111,164.35714284253783L111.09222222222222,164.35714284253783L111.1211111111111,164.35714284253783L111.14999999999999,164.35714284253783L111.20777777777778,164.35714284253783L111.22222222222221,164.35714284253783L111.33777777777777,164.35714284253783L111.41,164.35714284253783L111.6411111111111,164.35714284253783L111.71333333333332,164.35714284253783L112.04555555555557,164.35714284253783L112.17555555555556,164.35714284253783L112.71,164.35714284253783L112.72444444444446,164.35714284253783L112.82555555555557,164.35714284253783L112.88333333333333,164.35714284253783L113.17222222222222,164.35714284253783L113.5911111111111,164.35714284253783L113.88,164.35714284253783L114.03888888888889,164.35714284253783L114.06777777777778,164.35714284253783L114.45777777777778,164.35714284253783L115.42555555555555,164.35714284253783L115.9888888888889,164.35714285568235L116.09,164.35714285568235L116.27777777777779,164.35714285568235L116.52333333333333,164.35714285568235L116.62444444444444,164.35714285568235L117.14444444444445,164.35714285568235L117.21666666666665,164.35714285568235L117.41888888888889,164.35714285568235L117.83777777777779,164.35714285568235L117.98222222222222,164.35714285568235L118.18444444444444,164.35714285568235L118.53111111111112,164.35714285568235L118.66111111111111,164.35714285568235L118.69,164.35714285568235L118.89222222222223,164.35714285568235L118.93555555555555,164.35714285568235L119.22444444444444,164.35714285568235L119.52777777777777,164.35714285568235L119.96111111111111,164.35714285568235L120.17777777777778,164.35714285568235L120.45222222222222,164.35714285568235L120.51,164.35714285568235L120.66888888888889,164.35714285568235L120.79888888888888,164.35714285568235L120.92888888888888,164.35714285568235L121.37666666666667,164.35714285568235L121.44888888888889,164.35714285568235L121.70888888888888,164.35714285568235L121.73777777777778,164.35714285568235L122.82111111111112,164.3571428569968L122.97999999999999,164.3571428569968L123.32666666666667,164.3571428569968L123.45666666666666,164.3571428569968L123.87555555555555,164.3571428569968L124.10666666666667,164.3571428569968L124.29444444444445,164.3571428569968L124.43888888888888,164.3571428569968L124.74222222222222,164.3571428569968L124.77111111111111,164.3571428569968L124.97333333333334,164.3571428569968L125.01666666666667,164.3571428569968L125.13222222222223,164.3571428569968L125.26222222222223,164.3571428569968L125.37777777777778,164.3571428569968L125.40666666666667,164.3571428569968L126.01333333333334,164.3571428569968L126.18666666666667,164.3571428569968L126.43222222222222,164.3571428569968L126.46111111111111,164.3571428569968L126.47555555555556,164.3571428569968L126.56222222222222,164.3571428569968L126.60555555555555,164.3571428569968L127.03888888888889,164.3571428569968L127.16888888888889,164.3571428569968L127.53,164.3571428569968L127.57333333333332,164.3571428569968L127.90555555555557,164.3571428569968L128.1222222222222,164.3571428569968L128.4111111111111,164.3571428569968L128.54111111111112,164.3571428569968L129.1911111111111,164.3571428569968L129.29222222222222,164.3571428569968L129.48,164.3571428569968L129.62444444444444,164.3571428569968L129.87,164.3571428569968L130.20222222222222,164.35714285712825L130.24555555555554,164.35714285712825L130.4188888888889,164.35714285712825L130.44777777777776,164.35714285712825L130.92444444444445,164.35714285712825L131.04,164.35714285712825L131.17,164.35714285712825L131.35777777777778,164.35714285712825L131.57444444444445,164.35714285712825L131.58888888888887,164.35714285712825L131.6611111111111,164.35714285712825L131.67555555555558,164.35714285712825L131.80555555555554,164.35714285712825L131.8777777777778,164.35714285712825L132.15222222222224,164.35714285712825L132.25333333333336,164.35714285712825L133.0911111111111,164.35714285712825L133.10555555555555,164.35714285712825L133.64000000000001,164.35714285712825L133.6688888888889,164.35714285712825L133.85666666666668,164.35714285712825L134.08777777777777,164.35714285712825L134.70888888888888,164.35714285712825L134.98333333333332,164.35714285712825L135.0988888888889,164.35714285712825L135.18555555555554,164.35714285712825L135.48888888888888,164.35714285712825L135.60444444444445,164.35714285712825L135.70555555555555,164.35714285712825L135.7777777777778,164.35714285712825L136.0522222222222,164.35714285712825L136.96222222222224,164.35714285712825L137.02,164.35714285712825L137.03444444444446,164.35714285712825L137.35222222222222,164.35714285714138L137.41,164.35714285714138L137.45333333333332,164.35714285714138L137.62666666666667,164.35714285714138L137.8,164.35714285714138L137.82888888888888,164.35714285714138L138.4788888888889,164.35714285714138L138.62333333333333,164.35714285714138L138.92666666666668,164.35714285714138L139.05666666666667,164.35714285714138L139.1,164.35714285714138L139.4177777777778,164.35714285714138L139.5188888888889,164.35714285714138L139.66333333333333,164.35714285714138L139.82222222222222,164.35714285714138L140.0966666666667,164.35714285714138L140.12555555555556,164.35714285714138L140.22666666666666,164.35714285714138L140.38555555555556,164.35714285714138L140.83333333333331,164.35714285714138L140.92000000000002,164.35714285714138L141.22333333333333,164.35714285714138L141.4688888888889,164.35714285714138L141.4977777777778,164.35714285714138L141.58444444444444,164.35714285714138L141.68555555555557,164.35714285714138L141.87333333333333,164.35714285714138L142.00333333333333,164.35714285714138L142.06111111111113,164.35714285714138L142.3788888888889,164.35714285714138L142.52333333333334,164.35714285714138L142.60999999999999,164.35714285714138L142.65333333333334,164.35714285714138L143.18777777777777,164.35714285714138L143.27444444444444,164.35714285714138L143.5922222222222,164.35714285714138L143.60666666666668,164.35714285714138L143.62111111111113,164.35714285714138L143.91,164.35714285714138L143.9388888888889,164.35714285714138L143.98222222222222,164.35714285714138L144.09777777777776,164.35714285714138L144.21333333333334,164.35714285714138L144.50222222222223,164.35714285714272L144.5311111111111,164.35714285714272L144.87777777777777,164.35714285714272L144.95,164.35714285714272L145.16666666666666,164.35714285714272L145.29666666666665,164.35714285714272L145.68666666666667,164.35714285714272L145.74444444444444,164.35714285714272L145.80222222222224,164.35714285714272L145.8311111111111,164.35714285714272L145.90333333333334,164.35714285714272L146.04777777777778,164.35714285714272L146.0911111111111,164.35714285714272L146.43777777777777,164.35714285714272L146.78444444444446,164.35714285714272L146.89999999999998,164.35714285714272L147.40555555555557,164.35714285714272L147.47777777777776,164.35714285714272L147.6511111111111,164.35714285714272L148.1277777777778,164.35714285714272L148.35888888888888,164.35714285714272L148.37333333333333,164.35714285714272L148.80666666666667,164.35714285714272L148.8211111111111,164.35714285714272L149.29777777777778,164.35714285714272L149.44222222222223,164.35714285714272L149.4711111111111,164.35714285714272L149.48555555555558,164.35714285714272L149.58666666666667,164.35714285714272L149.61555555555555,164.35714285714272L149.64444444444445,164.35714285714272L149.89000000000001,164.35714285714272L149.9188888888889,164.35714285714272L149.9622222222222,164.35714285714272L150.23666666666665,164.35714285714272L150.43888888888887,164.35714285714272L150.5688888888889,164.35714285714272L150.59777777777776,164.35714285714272L150.61222222222221,164.35714285714272L150.7277777777778,164.35714285714272L150.75666666666666,164.35714285714272L150.7711111111111,164.35714285714272L150.79999999999998,164.35714285714272L150.91555555555556,164.35714285714272L150.93,164.35714285714272L151.17555555555555,164.35714285714272L151.20444444444445,164.35714285714272L151.27666666666667,164.35714285714272L151.62333333333333,164.35714285714272L151.66666666666669,164.35714285714283L152.18666666666667,164.35714285714283L152.2877777777778,164.35714285714283L152.50444444444446,164.35714285714283L152.63444444444445,164.35714285714283L152.7211111111111,164.35714285714283L152.75,164.35714285714283L152.79333333333332,164.35714285714283L152.9811111111111,164.35714285714283L153.0677777777778,164.35714285714283L153.15444444444444,164.35714285714283L153.51555555555555,164.35714285714283L153.55888888888887,164.35714285714283L154.52666666666667,164.35714285714283L154.64222222222222,164.35714285714283L154.65666666666667,164.35714285714283L155.0611111111111,164.35714285714283L155.22,164.35714285714283L155.26333333333332,164.35714285714283L155.33555555555554,164.35714285714283L155.53777777777776,164.35714285714283L155.82666666666668,164.35714285714283L155.8411111111111,164.35714285714283L156.0288888888889,164.35714285714283L156.07222222222222,164.35714285714283L156.7222222222222,164.35714285714283L156.83777777777777,164.35714285714283L156.9388888888889,164.35714285714283L157.11222222222221,164.35714285714283L157.60333333333332,164.35714285714283L157.77666666666667,164.35714285714283L157.8488888888889,164.35714285714283L157.99333333333334,164.35714285714283L158.09444444444443,164.35714285714283L158.15222222222224,164.35714285714283L158.71555555555557,164.35714285714283L158.87444444444444,164.35714285714286L159.1488888888889,164.35714285714286L159.20666666666665,164.35714285714286L159.4088888888889,164.35714285714286L159.42333333333332,164.35714285714286L159.49555555555557,164.35714285714286L159.55333333333334,164.35714285714286L159.62555555555554,164.35714285714286L160.59333333333333,164.35714285714286L160.82444444444442,164.35714285714286L161.3011111111111,164.35714285714286L161.33,164.35714285714286L161.34444444444443,164.35714285714286L161.41666666666666,164.35714285714286L161.83555555555557,164.35714285714286L161.85000000000002,164.35714285714286L161.96555555555554,164.35714285714286L161.98,164.35714285714286L162.12444444444444,164.35714285714286L162.42777777777778,164.35714285714286L162.86111111111111,164.35714285714286L163.10666666666665,164.35714285714286L163.55444444444444,164.35714285714286L163.61222222222224,164.35714285714286L164.19,164.35714285714286L164.39222222222224,164.35714285714286L164.42111111111112,164.35714285714286L164.4788888888889,164.35714285714286L164.49333333333334,164.35714285714286L164.62333333333333,164.35714285714286L164.84,164.35714285714286L165.02777777777777,164.35714285714286L165.08555555555554,164.35714285714286L165.50444444444443,164.35714285714286L165.75,164.35714285714286L165.90888888888887,164.35714285714286L165.96666666666667,164.35714285714286L166.2122222222222,164.35714285714286L166.31333333333333,164.35714285714286L166.54444444444445,164.35714285714286L166.5588888888889,164.35714285714286L166.79,164.35714285714286L168.22,164.35714285714286L168.4511111111111,164.35714285714286L168.46555555555554,164.35714285714286L169.56333333333333,164.35714285714286L169.60666666666665,164.35714285714286L169.70777777777778,164.35714285714286L169.9388888888889,164.35714285714286L170.05444444444444,164.35714285714286L170.15555555555557,164.35714285714286L170.24222222222224,164.35714285714286L170.44444444444446,164.35714285714286L170.4588888888889,164.35714285714286L170.8777777777778,164.35714285714286L171.25333333333333,164.35714285714286L171.3111111111111,164.35714285714286L171.5711111111111,164.35714285714286L171.64333333333335,164.35714285714286L171.67222222222222,164.35714285714286L171.70111111111112,164.35714285714286L171.9322222222222,164.35714285714286L172.25,164.35714285714286L172.3511111111111,164.35714285714286L172.56777777777776,164.35714285714286L172.68333333333334,164.35714285714286L173.00111111111113,164.35714285714286L173.42000000000002,164.35714285714286L173.4922222222222,164.35714285714286L173.82444444444445,164.35714285714286L174.17111111111112,164.35714285714286L174.2577777777778,164.35714285714286L174.83555555555554,164.35714285714286L175.2111111111111,164.35714285714286L175.35555555555555,164.35714285714286L175.5,164.35714285714286L175.51444444444442,164.35714285714286L175.61555555555555,164.35714285714286L176.33777777777777,164.35714285714286L176.68444444444444,164.35714285714286L176.81444444444443,164.35714285714286L176.94444444444446,164.35714285714286L177.14666666666668,164.35714285714286L177.27666666666664,164.35714285714286L177.36333333333334,164.35714285714286L177.45,164.35714285714286L177.56555555555556,164.35714285714286L177.62333333333333,164.35714285714286L177.86888888888888,164.35714285714286L177.88333333333335,164.35714285714286L178.40333333333334,164.35714285714286L178.50444444444446,164.35714285714286L178.5911111111111,164.35714285714286L179.58777777777777,164.35714285714286L179.64555555555557,164.35714285714286L180.23777777777778,164.35714285714286L180.26666666666668,164.35714285714286L180.28111111111113,164.35714285714286L180.44,164.35714285714286L180.4688888888889,164.35714285714286L180.54111111111112,164.35714285714286L180.57,164.35714285714286L180.71444444444444,164.35714285714286L180.74333333333334,164.35714285714286L180.78666666666666,164.35714285714286L181.16222222222223,164.35714285714286L181.20555555555558,164.35714285714286L181.72555555555556,164.35714285714286L181.9711111111111,164.35714285714286L182.31777777777776,164.35714285714286L182.43333333333334,164.35714285714286L182.78,164.35714285714286L183.15555555555557,164.35714285714286L183.2711111111111,164.35714285714286L183.5022222222222,164.35714285714286L183.54555555555555,164.35714285714286L183.5888888888889,164.35714285714286L183.61777777777777,164.35714285714286L183.63222222222223,164.35714285714286L183.71888888888887,164.35714285714286L183.77666666666667,164.35714285714286L183.8488888888889,164.35714285714286L183.9211111111111,164.35714285714286L184.0222222222222,164.35714285714286L184.1811111111111,164.35714285714286L184.38333333333333,164.35714285714286L184.47,164.35714285714286L184.49888888888887,164.35714285714286L184.7877777777778,164.35714285714286L184.84555555555556,164.35714285714286L184.88888888888889,164.35714285714286L185.0911111111111,164.35714285714286L185.23555555555555,164.35714285714286L185.36555555555557,164.35714285714286L185.39444444444445,164.35714285714286L185.46666666666667,164.35714285714286L185.59666666666666,164.35714285714286L185.8422222222222,164.35714285714286L186.0011111111111,164.35714285714286L186.4488888888889,164.35714285714286L186.66555555555556,164.35714285714286L187.2288888888889,164.35714285714286L187.54666666666668,164.35714285714286L187.59,164.35714285714286L187.73444444444445,164.35714285714286L187.77777777777777,164.35714285714286L187.79222222222222,164.35714285714286L188.15333333333334,164.35714285714286L188.41333333333333,164.35714285714286L188.42777777777778,164.35714285714286L188.51444444444445,164.35714285714286L189.39555555555555,164.35714285714286L189.81444444444446,164.35714285714286L190.36333333333332,164.35714285714286L190.42111111111112,164.35714285714286L190.6811111111111,164.35714285714286L190.7822222222222,164.35714285714286L190.84,164.35714285714286L191.1,164.35714285714286L191.18666666666667,164.35714285714286L191.34555555555553,164.35714285714286L191.47555555555556,164.35714285714286L191.59111111111113,164.35714285714286L191.95222222222222,164.35714285714286L192.57333333333335,164.35714285714286L192.73222222222222,164.35714285714286L192.8188888888889,164.35714285714286L193.06444444444443,164.35714285714286L193.18,164.35714285714286L193.29555555555555,164.35714285714286L193.39666666666668,164.35714285714286L193.45444444444445,164.35714285714286L193.67111111111112,164.35714285714286L193.7288888888889,164.35714285714286L193.97444444444446,164.35714285714286L194.0611111111111,164.35714285714286L194.29222222222222,164.35714285714286L194.81222222222223,164.35714285714286L194.85555555555555,164.35714285714286L194.92777777777778,164.35714285714286L195.05777777777777,164.35714285714286L195.21666666666667,164.35714285714286L195.34666666666666,164.35714285714286L195.44777777777776,164.35714285714286L195.60666666666665,164.35714285714286L195.76555555555555,164.35714285714286L195.95333333333335,164.35714285714286L196.05444444444444,164.35714285714286L196.12666666666667,164.35714285714286L196.2711111111111,164.35714285714286L196.57444444444445,164.35714285714286L196.73333333333335,164.35714285714286L196.99333333333334,164.35714285714286L197.00777777777776,164.35714285714286L197.1811111111111,164.35714285714286L197.26777777777778,164.35714285714286L197.32555555555555,164.35714285714286L197.45555555555558,164.35714285714286L197.70111111111112,164.35714285714286L197.73,164.35714285714286L197.78777777777776,164.35714285714286L198.03333333333336,164.35714285714286L198.42333333333332,164.35714285714286L198.79888888888888,164.35714285714286L198.82777777777778,164.35714285714286L198.8711111111111,164.35714285714286L199.03,164.35714285714286L199.08777777777777,164.35714285714286L199.17444444444445,164.35714285714286L199.18888888888887,164.35714285714286L199.20333333333332,164.35714285714286L199.3911111111111,164.35714285714286L199.50666666666666,164.35714285714286L199.54999999999998,164.35714285714286L199.59333333333333,164.35714285714286L199.62222222222223,164.35714285714286L200.12777777777777,164.35714285714286L200.2577777777778,164.35714285714286L200.54666666666665,164.35714285714286L200.99444444444447,164.35714285714286L201.41333333333333,164.35714285714286L201.4711111111111,164.35714285714286L201.57222222222222,164.35714285714286L201.9911111111111,164.35714285714286L202.19333333333333,164.35714285714286L202.35222222222222,164.35714285714286L202.36666666666667,164.35714285714286L203.16111111111113,164.35714285714286L203.45,164.35714285714286L203.70999999999998,164.35714285714286L204.0711111111111,164.35714285714286L204.08555555555554,164.35714285714286L204.2588888888889,164.35714285714286L204.63444444444443,164.35714285714286L205.42888888888888,164.35714285714286L205.48666666666668,164.35714285714286L205.61666666666667,164.35714285714286L206.4111111111111,164.35714285714286L206.54111111111112,164.35714285714286L206.87333333333333,164.35714285714286L207.52333333333334,164.35714285714286L207.84111111111113,164.35714285714286L207.85555555555555,164.35714285714286L207.94222222222223,164.35714285714286L208,164.35714285714286L208.20222222222222,164.35714285714286L208.4477777777778,164.35714285714286L209.14111111111112,164.35714285714286L209.63222222222223,164.35714285714286L209.99333333333334,164.35714285714286L210.52777777777777,164.35714285714286L210.70111111111112,164.35714285714286L210.7877777777778,164.35714285714286L211.22111111111113,164.35714285714286L211.43777777777777,164.35714285714286L211.58222222222224,164.35714285714286L212.24666666666667,164.35714285714286L212.39111111111112,164.35714285714286L212.57888888888888,164.35714285714286L212.62222222222223,164.35714285714286L212.70888888888888,164.35714285714286L212.75222222222223,164.35714285714286L212.9111111111111,164.35714285714286L212.95444444444445,164.35714285714286L213.15666666666667,164.35714285714286L213.2,164.35714285714286L213.72,164.35714285714286L213.76333333333335,164.35714285714286L213.8211111111111,164.35714285714286L214.0088888888889,164.35714285714286L214.26888888888888,164.35714285714286L214.48555555555558,164.35714285714286L214.5288888888889,164.35714285714286L214.6877777777778,164.35714285714286L215.3088888888889,164.35714285714286L215.3811111111111,164.35714285714286L215.58333333333334,164.35714285714286L215.84333333333333,164.35714285714286L215.98777777777778,164.35714285714286L216.5511111111111,164.35714285714286L216.9411111111111,164.35714285714286L217.08555555555557,164.35714285714286L217.2877777777778,164.35714285714286L217.3311111111111,164.35714285714286L217.43222222222224,164.35714285714286L217.4466666666667,164.35714285714286L217.70666666666668,164.35714285714286L217.79333333333332,164.35714285714286L217.8077777777778,164.35714285714286L217.92333333333332,164.35714285714286L218.21222222222224,164.35714285714286L218.28444444444446,164.35714285714286L218.71777777777777,164.35714285714286L218.87666666666667,164.35714285714286L218.89111111111112,164.35714285714286L219.2088888888889,164.35714285714286L219.25222222222223,164.35714285714286L219.35333333333332,164.35714285714286L219.39666666666668,164.35714285714286L219.55555555555554,164.35714285714286L219.7433333333333,164.35714285714286L219.77222222222224,164.35714285714286L220.2488888888889,164.35714285714286L220.30666666666667,164.35714285714286L220.91333333333333,164.35714285714286L220.95666666666668,164.35714285714286L221.11555555555555,164.35714285714286L221.23111111111112,164.35714285714286L221.4188888888889,164.35714285714286L221.50555555555553,164.35714285714286L221.53444444444446,164.35714285714286L221.60666666666668,164.35714285714286L221.69333333333333,164.35714285714286L221.8088888888889,164.35714285714286L222.43,164.35714285714286L222.63222222222223,164.35714285714286L222.82,164.35714285714286L222.89222222222222,164.35714285714286L223.16666666666666,164.35714285714286L223.25333333333333,164.35714285714286L223.57111111111112,164.35714285714286L224.10555555555555,164.35714285714286L224.20666666666665,164.35714285714286L224.5388888888889,164.35714285714286L224.65444444444444,164.35714285714286L225.14555555555555,164.35714285714286L225.17444444444445,164.35714285714286L226.27222222222224,164.35714285714286L226.54666666666665,164.35714285714286L226.85000000000002,164.35714285714286L227.60111111111112,164.35714285714286L227.64444444444445,164.35714285714286L227.77444444444444,164.35714285714286L227.9188888888889,164.35714285714286L228.30888888888887,164.35714285714286L228.38111111111112,164.35714285714286L228.56888888888886,164.35714285714286L228.84333333333333,164.35714285714286L229.01666666666668,164.35714285714286L229.17555555555558,164.35714285714286L229.24777777777777,164.35714285714286L229.26222222222222,164.35714285714286L229.30555555555554,164.35714285714286L229.4788888888889,164.35714285714286L229.53666666666666,164.35714285714286L229.62333333333333,164.35714285714286L229.86888888888888,164.35714285714286L230.11444444444444,164.35714285714286L230.37444444444446,164.35714285714286L230.48999999999998,164.35714285714286L230.73555555555558,164.35714285714286L230.83666666666667,164.35714285714286L230.89444444444445,164.35714285714286L230.95222222222225,164.35714285714286L231.0822222222222,164.35714285714286L231.67444444444445,164.35714285714286L231.74666666666667,164.35714285714286L232.0211111111111,164.35714285714286" style="fill: none;" fill="none"></path></g></g></g></g></g></g><g transform="translate(70, 177)" clip-path="url(#clip_1)"><clipPath id="clip_1"><rect width="260" height="23"></rect></clipPath><g><g><line x1="0" y1="0" x2="0" y2="5" style="visibility: inherit;" fill="rgb(0, 0, 0)" stroke="rgb(204, 204, 204)" stroke-width="1px"></line><line x1="28.888888888888886" y1="0" x2="28.888888888888886" y2="5" style="visibility: inherit;" fill="rgb(0, 0, 0)" stroke="rgb(204, 204, 204)" stroke-width="1px"></line><line x1="57.77777777777777" y1="0" x2="57.77777777777777" y2="5" style="visibility: inherit;" fill="rgb(0, 0, 0)" stroke="rgb(204, 204, 204)" stroke-width="1px"></line><line x1="86.66666666666666" y1="0" x2="86.66666666666666" y2="5" style="visibility: inherit;" fill="rgb(0, 0, 0)" stroke="rgb(204, 204, 204)" stroke-width="1px"></line><line x1="115.55555555555554" y1="0" x2="115.55555555555554" y2="5" style="visibility: inherit;" fill="rgb(0, 0, 0)" stroke="rgb(204, 204, 204)" stroke-width="1px"></line><line x1="144.44444444444446" y1="0" x2="144.44444444444446" y2="5" style="visibility: inherit;" fill="rgb(0, 0, 0)" stroke="rgb(204, 204, 204)" stroke-width="1px"></line><line x1="173.33333333333331" y1="0" x2="173.33333333333331" y2="5" style="visibility: inherit;" fill="rgb(0, 0, 0)" stroke="rgb(204, 204, 204)" stroke-width="1px"></line><line x1="202.22222222222223" y1="0" x2="202.22222222222223" y2="5" style="visibility: inherit;" fill="rgb(0, 0, 0)" stroke="rgb(204, 204, 204)" stroke-width="1px"></line><line x1="231.1111111111111" y1="0" x2="231.1111111111111" y2="5" style="visibility: inherit;" fill="rgb(0, 0, 0)" stroke="rgb(204, 204, 204)" stroke-width="1px"></line><line x1="260" y1="0" x2="260" y2="5" style="visibility: inherit;" fill="rgb(0, 0, 0)" stroke="rgb(204, 204, 204)" stroke-width="1px"></line></g><g transform="translate(0, 8)"><text x="0" y="0" dx="0em" dy="0.95em" style="text-anchor: middle; visibility: hidden; font-family: Roboto, sans-serif; font-size: 12px; font-weight: 200;" fill="rgb(33, 33, 33)" stroke="none" stroke-width="1px">-2k</text><text x="28.888888888888886" y="0" dx="0em" dy="0.95em" style="text-anchor: middle; visibility: inherit; font-family: Roboto, sans-serif; font-size: 12px; font-weight: 200;" fill="rgb(33, 33, 33)" stroke="none" stroke-width="1px">0</text><text x="57.77777777777777" y="0" dx="0em" dy="0.95em" style="text-anchor: middle; visibility: inherit; font-family: Roboto, sans-serif; font-size: 12px; font-weight: 200;" fill="rgb(33, 33, 33)" stroke="none" stroke-width="1px">2k</text><text x="86.66666666666666" y="0" dx="0em" dy="0.95em" style="text-anchor: middle; visibility: inherit; font-family: Roboto, sans-serif; font-size: 12px; font-weight: 200;" fill="rgb(33, 33, 33)" stroke="none" stroke-width="1px">4k</text><text x="115.55555555555554" y="0" dx="0em" dy="0.95em" style="text-anchor: middle; visibility: inherit; font-family: Roboto, sans-serif; font-size: 12px; font-weight: 200;" fill="rgb(33, 33, 33)" stroke="none" stroke-width="1px">6k</text><text x="144.44444444444446" y="0" dx="0em" dy="0.95em" style="text-anchor: middle; visibility: inherit; font-family: Roboto, sans-serif; font-size: 12px; font-weight: 200;" fill="rgb(33, 33, 33)" stroke="none" stroke-width="1px">8k</text><text x="173.33333333333331" y="0" dx="0em" dy="0.95em" style="text-anchor: middle; visibility: inherit; font-family: Roboto, sans-serif; font-size: 12px; font-weight: 200;" fill="rgb(33, 33, 33)" stroke="none" stroke-width="1px">10k</text><text x="202.22222222222223" y="0" dx="0em" dy="0.95em" style="text-anchor: middle; visibility: inherit; font-family: Roboto, sans-serif; font-size: 12px; font-weight: 200;" fill="rgb(33, 33, 33)" stroke="none" stroke-width="1px">12k</text><text x="231.1111111111111" y="0" dx="0em" dy="0.95em" style="text-anchor: middle; visibility: inherit; font-family: Roboto, sans-serif; font-size: 12px; font-weight: 200;" fill="rgb(33, 33, 33)" stroke="none" stroke-width="1px">14k</text><text x="260" y="0" dx="0em" dy="0.95em" style="text-anchor: middle; visibility: hidden; font-family: Roboto, sans-serif; font-size: 12px; font-weight: 200;" fill="rgb(33, 33, 33)" stroke="none" stroke-width="1px">16k</text></g><line x1="0" y1="0" x2="260" y2="0" fill="rgb(0, 0, 0)" stroke="rgb(204, 204, 204)" stroke-width="1px"></line></g></g></g></g></svg>