<svg viewBox="0 0 330 200" xmlns="http://www.w3.org/2000/svg"><g><g><g><g><g><line x1="50" y1="177" x2="45" y2="177" style="visibility: inherit;" fill="rgb(0, 0, 0)" stroke="rgb(204, 204, 204)" stroke-width="1px"></line><line x1="50" y1="154.875" x2="45" y2="154.875" style="visibility: inherit;" fill="rgb(0, 0, 0)" stroke="rgb(204, 204, 204)" stroke-width="1px"></line><line x1="50" y1="132.75" x2="45" y2="132.75" style="visibility: inherit;" fill="rgb(0, 0, 0)" stroke="rgb(204, 204, 204)" stroke-width="1px"></line><line x1="50" y1="110.625" x2="45" y2="110.625" style="visibility: inherit;" fill="rgb(0, 0, 0)" stroke="rgb(204, 204, 204)" stroke-width="1px"></line><line x1="50" y1="88.5" x2="45" y2="88.5" style="visibility: inherit;" fill="rgb(0, 0, 0)" stroke="rgb(204, 204, 204)" stroke-width="1px"></line><line x1="50" y1="66.375" x2="45" y2="66.375" style="visibility: inherit;" fill="rgb(0, 0, 0)" stroke="rgb(204, 204, 204)" stroke-width="1px"></line><line x1="50" y1="44.25000000000002" x2="45" y2="44.25000000000002" style="visibility: inherit;" fill="rgb(0, 0, 0)" stroke="rgb(204, 204, 204)" stroke-width="1px"></line><line x1="50" y1="22.12500000000002" x2="45" y2="22.12500000000002" style="visibility: inherit;" fill="rgb(0, 0, 0)" stroke="rgb(204, 204, 204)" stroke-width="1px"></line><line x1="50" y1="0" x2="45" y2="0" style="visibility: inherit;" fill="rgb(0, 0, 0)" stroke="rgb(204, 204, 204)" stroke-width="1px"></line></g><g transform="translate(40, 0)"><text x="0" y="177" dx="0em" dy="0.3em" style="text-anchor: end; visibility: hidden; font-family: Roboto, sans-serif; font-size: 12px; font-weight: 200;" fill="rgb(33, 33, 33)" stroke="none" stroke-width="1px">0</text><text x="0" y="154.875" dx="0em" dy="0.3em" style="text-anchor: end; visibility: inherit; font-family: Roboto, sans-serif; font-size: 12px; font-weight: 200;" fill="rgb(33, 33, 33)" stroke="none" stroke-width="1px">0.05</text><text x="0" y="132.75" dx="0em" dy="0.3em" style="text-anchor: end; visibility: hidden; font-family: Roboto, sans-serif; font-size: 12px; font-weight: 200;" fill="rgb(33, 33, 33)" stroke="none" stroke-width="1px">0.1</text><text x="0" y="110.625" dx="0em" dy="0.3em" style="text-anchor: end; visibility: inherit; font-family: Roboto, sans-serif; font-size: 12px; font-weight: 200;" fill="rgb(33, 33, 33)" stroke="none" stroke-width="1px">0.15</text><text x="0" y="88.5" dx="0em" dy="0.3em" style="text-anchor: end; visibility: hidden; font-family: Roboto, sans-serif; font-size: 12px; font-weight: 200;" fill="rgb(33, 33, 33)" stroke="none" stroke-width="1px">0.2</text><text x="0" y="66.375" dx="0em" dy="0.3em" style="text-anchor: end; visibility: inherit; font-family: Roboto, sans-serif; font-size: 12px; font-weight: 200;" fill="rgb(33, 33, 33)" stroke="none" stroke-width="1px">0.25</text><text x="0" y="44.25000000000002" dx="0em" dy="0.3em" style="text-anchor: end; visibility: hidden; font-family: Roboto, sans-serif; font-size: 12px; font-weight: 200;" fill="rgb(33, 33, 33)" stroke="none" stroke-width="1px">0.3</text><text x="0" y="22.12500000000002" dx="0em" dy="0.3em" style="text-anchor: end; visibility: inherit; font-family: Roboto, sans-serif; font-size: 12px; font-weight: 200;" fill="rgb(33, 33, 33)" stroke="none" stroke-width="1px">0.35</text><text x="0" y="0" dx="0em" dy="0.3em" style="text-anchor: end; visibility: hidden; font-family: Roboto, sans-serif; font-size: 12px; font-weight: 200;" fill="rgb(33, 33, 33)" stroke="none" stroke-width="1px">0.4</text></g><line x1="50" y1="0" x2="50" y2="177" fill="rgb(0, 0, 0)" stroke="rgb(204, 204, 204)" stroke-width="1px"></line></g></g><g transform="translate(50, 0)" clip-path="url(#clip_0)"><clipPath id="clip_0"><rect width="280" height="177"></rect></clipPath><g><g><g><line x1="0" y1="0" x2="0" y2="177" fill="rgb(0, 0, 0)" stroke="rgb(66, 66, 66)" stroke-width="1px" opacity="0.25"></line><line x1="31.11111111111111" y1="0" x2="31.11111111111111" y2="177" fill="rgb(0, 0, 0)" stroke="rgb(66, 66, 66)" stroke-width="1px" opacity="0.25"></line><line x1="62.22222222222222" y1="0" x2="62.22222222222222" y2="177" fill="rgb(0, 0, 0)" stroke="rgb(66, 66, 66)" stroke-width="1px" opacity="0.25"></line><line x1="93.33333333333333" y1="0" x2="93.33333333333333" y2="177" fill="rgb(0, 0, 0)" stroke="rgb(66, 66, 66)" stroke-width="1px" opacity="0.25"></line><line x1="124.44444444444444" y1="0" x2="124.44444444444444" y2="177" fill="rgb(0, 0, 0)" stroke="rgb(66, 66, 66)" stroke-width="1px" opacity="0.25"></line><line x1="155.55555555555557" y1="0" x2="155.55555555555557" y2="177" fill="rgb(0, 0, 0)" stroke="rgb(66, 66, 66)" stroke-width="1px" opacity="0.25"></line><line x1="186.66666666666666" y1="0" x2="186.66666666666666" y2="177" fill="rgb(0, 0, 0)" stroke="rgb(66, 66, 66)" stroke-width="1px" opacity="0.25"></line><line x1="217.77777777777777" y1="0" x2="217.77777777777777" y2="177" fill="rgb(0, 0, 0)" stroke="rgb(66, 66, 66)" stroke-width="1px" opacity="0.25"></line><line x1="248.88888888888889" y1="0" x2="248.88888888888889" y2="177" fill="rgb(0, 0, 0)" stroke="rgb(66, 66, 66)" stroke-width="1px" opacity="0.25"></line><line x1="280" y1="0" x2="280" y2="177" fill="rgb(0, 0, 0)" stroke="rgb(66, 66, 66)" stroke-width="1px" opacity="0.25"></line></g><g><line x1="0" y1="177" x2="280" y2="177" fill="rgb(0, 0, 0)" stroke="rgb(66, 66, 66)" stroke-width="1px" opacity="0.25"></line><line x1="0" y1="154.875" x2="280" y2="154.875" fill="rgb(0, 0, 0)" stroke="rgb(66, 66, 66)" stroke-width="1px" opacity="0.25"></line><line x1="0" y1="132.75" x2="280" y2="132.75" fill="rgb(0, 0, 0)" stroke="rgb(66, 66, 66)" stroke-width="1px" opacity="0.25"></line><line x1="0" y1="110.625" x2="280" y2="110.625" fill="rgb(0, 0, 0)" stroke="rgb(66, 66, 66)" stroke-width="1px" opacity="0.25"></line><line x1="0" y1="88.5" x2="280" y2="88.5" fill="rgb(0, 0, 0)" stroke="rgb(66, 66, 66)" stroke-width="1px" opacity="0.25"></line><line x1="0" y1="66.375" x2="280" y2="66.375" fill="rgb(0, 0, 0)" stroke="rgb(66, 66, 66)" stroke-width="1px" opacity="0.25"></line><line x1="0" y1="44.25000000000002" x2="280" y2="44.25000000000002" fill="rgb(0, 0, 0)" stroke="rgb(66, 66, 66)" stroke-width="1px" opacity="0.25"></line><line x1="0" y1="22.12500000000002" x2="280" y2="22.12500000000002" fill="rgb(0, 0, 0)" stroke="rgb(66, 66, 66)" stroke-width="1px" opacity="0.25"></line><line x1="0" y1="0" x2="280" y2="0" fill="rgb(0, 0, 0)" stroke="rgb(66, 66, 66)" stroke-width="1px" opacity="0.25"></line></g></g></g><g><g><line x1="0" y1="177" x2="280" y2="177" fill="rgb(0, 0, 0)" stroke="rgb(153, 153, 153)" stroke-width="1.5px"></line></g></g><g><g><line x1="31.11111111111111" y1="0" x2="31.11111111111111" y2="177" fill="rgb(0, 0, 0)" stroke="rgb(153, 153, 153)" stroke-width="1.5px"></line></g></g><g><g><g><g><g><path stroke="rgb(255, 112, 67)" stroke-width="2px" d="M38.01777777777778,-0.018246537523155082L38.65555555555555,16.450788656783402L39.013333333333335,16.122726475409323L39.55777777777778,7.936246625692753L39.74444444444445,13.542266589197332L40.16444444444445,11.435122388655872L40.21111111111111,20.26580916782182L40.42888888888889,22.037491261908148L40.77111111111111,31.28882106635696L40.80222222222222,22.52254262210132L40.848888888888894,33.66256339973891L40.89555555555555,15.774941334481873L41.16,7.423270713786553L41.175555555555555,25.450557381954628L41.25333333333334,38.15120025941743L41.79777777777778,29.33954144993252L42,22.54061194346448L42.202222222222225,36.07497510366728L42.248888888888885,30.413059920385457L42.32666666666667,41.58940542359473L42.43555555555555,33.6700071788968L42.51333333333333,19.48604182583745L43.10444444444444,20.39404716600578L43.22888888888889,10.704395231661326L43.38444444444444,20.321346007023816L43.55555555555556,28.743596859118238L43.913333333333334,19.231233398521375L44.73777777777777,34.244296151640754L44.784444444444446,43.716999428417004L45.111111111111114,52.944980452624364L45.12666666666667,56.697396350006706L45.157777777777774,42.09534379369047L45.28222222222222,49.06258109525459L45.437777777777775,46.72834811398752L45.62444444444444,51.52966520660739L45.65555555555556,34.12015705986989L46.12222222222222,56.07432180752855L46.153333333333336,45.8595764464766L46.49555555555556,54.64295076588573L46.68222222222222,66.13611427104344L46.93111111111111,73.95738382730406L47.00888888888889,86.86011739130927L47.14888888888889,65.50324565503665L47.38222222222222,67.32100896140139L47.91111111111111,72.0638947045815L48.626666666666665,70.14784992671086L48.64222222222222,68.22588759026571L48.65777777777778,67.09408453322438L48.72,41.08213659654252L48.75111111111111,56.38468640762681L49.26444444444444,75.57420993279287L49.29555555555555,79.17268291074555L49.91777777777778,87.24980160867287L49.948888888888895,80.92467286154695L50.05777777777778,75.19327092745942L50.08888888888889,67.53171483623412L50.275555555555556,55.21591551868571L50.36888888888888,56.57627085309299L50.54,47.094544157153805L50.66444444444444,61.68373731658844L50.72666666666667,70.71174105039829L50.94444444444444,73.0476256044602L51.162222222222226,63.504581846707794L51.28666666666667,71.82845479423628L51.42666666666667,78.32876257106557L51.90888888888889,75.12129183116492L52.01777777777777,78.05071367921194L52.03333333333333,80.5647295242653L52.157777777777774,69.01637362397348L52.5,78.08249919090649L52.717777777777776,67.69457505031814L52.76444444444444,81.0371571563744L52.842222222222226,83.38107924658438L52.99777777777778,68.99375134109486L53.09111111111111,76.1734270834865L53.13777777777778,85.99220538639676L53.16888888888889,86.42390449347289L53.27777777777777,86.41809993983621L53.40222222222222,74.43191526532956L53.69777777777777,70.00632531166548L54.071111111111115,78.63615329397007L54.36666666666666,84.02420124907664L54.52222222222222,81.13538232147319L54.693333333333335,85.27392469167485L54.77111111111112,89.22309965085849L54.80222222222222,70.24058364744106L55.22222222222222,93.92910372266245L55.37777777777778,69.90664886861487L55.440000000000005,74.74892336386112L55.455555555555556,85.0351969525675L55.61111111111111,83.16596897992254L55.67333333333333,93.1132305595443L56.49777777777778,63.4819568236569L56.544444444444444,87.80114368140099L56.824444444444445,71.11817284547924L57.50888888888889,74.34219303502823L57.63333333333333,81.3130881236445L57.742222222222225,88.32991235831089L58.535555555555554,92.2445245169324L58.56666666666667,81.78414069907204L59.00222222222222,88.27171488878926L59.34444444444444,84.00591146813511L59.593333333333334,90.86728794793297L59.608888888888885,92.19885524463658L59.702222222222225,81.11715986938479L59.76444444444444,92.04514415628435L59.81111111111111,92.68145484964086L60.13777777777778,97.60137548291704L60.15333333333333,96.69518213417543L60.24666666666667,99.44494829443938L60.324444444444445,103.34492462198644L61.32,107.99586902749961L61.78666666666667,114.27724941040532L61.94222222222222,109.75597707310591L62.300000000000004,80.37352261471314L62.56444444444445,82.40129426436165L62.73555555555556,85.16385199616276L63.217777777777776,103.28717014187528L63.31111111111112,108.28849385079117L63.404444444444444,100.97231330213769L63.63777777777778,91.48370542966025L63.84,100.44486695136247L64.19777777777777,100.77807039979467L64.57111111111111,101.85138132550341L64.64888888888889,94.59008596466792L64.75777777777778,95.8376466639448L64.80444444444444,107.48308070496373L65.05333333333333,111.74601814744264L65.42666666666666,115.60097968338366L65.45777777777778,116.21796933566591L65.53555555555555,128.6803914428059L65.89333333333333,126.11017243536136L66.15777777777778,119.61868673248186L66.28222222222222,107.67982280363498L66.34444444444445,108.8656099683634L66.42222222222222,123.21916553953834L66.68666666666667,121.30370610403747L67.02888888888889,119.64789486794311L67.15333333333334,130.4692855916538L68.14888888888889,122.90428675664175L68.41333333333334,124.2771835726661L68.58444444444444,124.32051542563215L69.00444444444445,112.09734409250602L69.31555555555556,106.0068299752342L69.45555555555556,114.10476612638634L69.50222222222223,107.21881591135981L69.79777777777777,115.11065630379153L70.07777777777777,114.07820191242L70.76222222222222,110.02438848768294L71.13555555555556,125.92641154560222L71.19777777777777,125.97172717829211L71.35333333333334,125.27564000981846L71.49333333333334,124.04517576037524L71.52444444444444,111.508654492728L71.66444444444444,110.64021604814059L71.80444444444444,110.15763418708995L71.88222222222223,113.0281279226229L72.00666666666666,111.91532990575347L72.11555555555555,116.15999591642924L72.24000000000001,115.6902791279215L72.33333333333334,103.62862931297175L72.3488888888889,121.74299180272787L72.4888888888889,126.42160009004813L72.75333333333334,126.5707067692765L72.83111111111111,134.52095797476105L73.03333333333333,129.11214271972736L73.42222222222223,123.51794652813767L73.62444444444444,131.1768981333023L73.64,136.7009123751787L73.71777777777778,137.83090982671186L73.79555555555555,131.35091346106293L74.06,130.0236077806435L74.24666666666667,135.19435513026008L74.55777777777777,138.28576162312322L74.71333333333332,139.76622875245747L74.77555555555556,133.37204503245553L74.83777777777777,122.05567725138307L74.85333333333332,123.36341924599672L75.28888888888889,116.56012323577322L75.38222222222221,123.41691497015427L75.52222222222221,129.93191525219365L75.8488888888889,114.43621093260339L75.86444444444444,126.72848285571985L76.00444444444445,126.06128984294091L76.23777777777778,138.25197706581207L76.56444444444445,143.92817273265752L76.8911111111111,140.6191452445187L77.07777777777778,142.85132692167747L77.12444444444444,143.7191804954981L77.80888888888889,142.5847286811218L78.04222222222222,142.11267636750608L78.22888888888889,137.86535856595322L78.38444444444444,140.18658775371722L78.78888888888889,133.35932827760226L79.1,133.05735003065732L79.11555555555556,141.9673222138683L79.14666666666668,124.45774748231173L79.36444444444444,135.71073422837378L79.41111111111111,133.70201934431864L79.45777777777778,130.9030763778381L79.55111111111111,129.44641629000262L79.9711111111111,133.73112258100363L80.06444444444445,128.7642140226594L80.14222222222222,129.83365136158653L80.22,131.92088307155484L80.74888888888889,126.69932102688142L80.87333333333333,128.18381198363295L80.91999999999999,138.79041623989815L81.0911111111111,131.78469049882935L81.13777777777779,137.1573769432428L81.18444444444445,135.06461902303235L81.71333333333334,125.75679307784281L81.89999999999999,128.4672779134252L82.19555555555556,121.02313586123817L82.44444444444444,117.85249929754754L82.70888888888888,111.9391229100753L82.83333333333333,112.19502888010317L82.89555555555556,121.89506197653039L83.11333333333333,118.36417126763956L83.3,117.07592358356175L83.59555555555556,124.2732911820141L83.98444444444445,127.6464310774164L84.18666666666667,120.9386103027437L84.29555555555557,133.95511471693953L84.38888888888889,130.5881412787154L84.46666666666667,134.72491715925423L84.57555555555557,119.03008581744126L84.60666666666665,113.1616579416185L85.30666666666666,128.28293539048965L85.32222222222222,124.06160645164096L85.41555555555556,128.15752777741577L85.63333333333334,132.08187256775037L86.13111111111111,135.20868963016113L86.52,136.08938000507976L86.83111111111111,137.57729632352485L86.84666666666666,147.53562210169252L87.08,139.6932839224745L87.31333333333333,135.7853980687266L87.65555555555555,131.32556383323703L88.07555555555555,133.10078752048037L88.49555555555555,128.65675688539278L88.51111111111112,119.08627874406774L88.62,128.51985053570627L88.69777777777777,135.2571521884296L88.76,134.92466583020052L88.99333333333334,143.7905310894046L89.05555555555554,145.80812673896514L89.21111111111111,144.47630419063546L90.08222222222223,142.9632128580092L90.20666666666666,139.7629648508834L90.44,128.73909381700798L90.51777777777778,133.22202824457432L90.5488888888889,137.70203666182724L90.64222222222223,128.14594582791548L90.86,136.74602218166245L90.89111111111112,145.28444091645034L91.07777777777778,147.84207822407575L91.17111111111112,141.70708135232502L91.31111111111112,136.24765676835284L92.43111111111112,141.9557685178763L92.85111111111112,140.30689584894455L92.96000000000001,143.88921069761204L93.25555555555556,144.19907928651622L93.38000000000001,142.89513554660113L93.41111111111111,145.6106996915497L93.45777777777778,139.58365963737714L93.86222222222221,137.09386806094972L94.1888888888889,142.48786188828544L94.25111111111111,108.95707831184623L94.3911111111111,123.94724345743988L94.65555555555555,136.1438413234969L94.78,143.6915458968234L94.93555555555555,138.49834501182747L95.04444444444444,139.6525604423029L95.6511111111111,144.5144637194957L95.80666666666667,137.3334001268557L96.16444444444444,142.17797303590842L96.28888888888889,143.2180670791487L96.35111111111111,143.34858555755736L96.66222222222221,140.0141517499788L96.91111111111111,145.44584424300214L96.9888888888889,152.80819952080083L97.4711111111111,152.9585774434473L97.70444444444445,153.64745069625175L97.72,145.7933704753649L97.73555555555556,144.69691077619385L97.8911111111111,144.371706166861L98.21777777777778,153.4832320095584L98.41999999999999,138.07244168409616L99.30666666666667,142.17165843957014L99.50888888888888,146.70591430329293L99.58666666666667,138.62425598927143L99.82,134.33056405292635L100.17777777777778,136.69301733587196L100.25555555555556,128.62074044772393L100.42666666666668,137.20541610079056L100.62888888888888,137.86839109961417L100.72222222222223,136.0554202813162L101.26666666666668,142.9642967451068L101.36,142.99610371848655L101.42222222222222,138.33453343636222L101.65555555555557,139.8032777567293L102.2311111111111,145.21922783089195L102.35555555555557,141.13942254503078L102.69777777777777,137.33535776686375L102.75999999999999,139.7652023324472L103.02444444444446,148.45623523155464L103.69333333333334,149.575402979014L104.03555555555555,134.71788823542457L104.05111111111111,148.5021881692109L104.12888888888888,142.66496896639453L104.17555555555555,145.09574965623014L104.59555555555555,148.8947602599084L104.87555555555555,143.45956448699354L104.95333333333333,143.23346815696547L104.96888888888888,143.45123214388605L105.10888888888888,136.99363513806293L105.18666666666667,139.29732946019666L105.28,144.34140466428576L105.37333333333333,141.30095406339632L105.43555555555555,141.1167980549697L105.48222222222222,130.8603771846273L105.87111111111112,134.68551497136227L105.96444444444445,140.43101930454176L106.13555555555556,145.41213357424618L106.41555555555556,147.00396338165334L106.47777777777777,147.88388246780949L106.71111111111111,138.80420175186586L106.91333333333334,135.72651909286853L107.05333333333334,142.10480235588594L107.06888888888889,141.86511133207108L107.10000000000001,148.2696545695855L107.28666666666666,122.37845926735363L107.42666666666666,127.9685525134418L108.14222222222223,129.95379056544385L108.60888888888888,132.46689073152115L108.74888888888889,132.0644833812521L108.88888888888889,138.58693377491272L109.62,135.34680853376648L109.76,138.2674224411837L109.82222222222222,140.14236753644894L110.33555555555556,137.3676758465907L110.56888888888889,143.03823912562376L110.72444444444444,148.0096304523733L111.06666666666666,147.65217065261524L111.16000000000001,137.30179266599848L111.44000000000001,148.80281641762275L111.45555555555555,147.73554492104543L111.64222222222222,144.90490775471028L111.6888888888889,142.34718131521402L111.87555555555555,146.56911425217424L112.29555555555555,148.9599746565487L112.49777777777778,150.08879873308337L112.51333333333334,149.76416021527527L112.56,144.38346625382707L113.38444444444444,149.4043640584648L113.60222222222222,142.73859597539308L113.68,144.29125702557207L114.00666666666667,150.67043472708608L114.19333333333333,156.06856006685703L114.22444444444444,157.0573186393309L114.47333333333333,158.46590916459132L114.52,150.61871298786622L114.58222222222221,154.98360948495042L114.69111111111111,146.4815013541697L115.09555555555556,143.54926168077697L115.1111111111111,139.66355168612904L115.62444444444445,143.56974253009025L115.84222222222222,150.9525498230771L115.98222222222222,157.97758711677884L115.99777777777778,158.43723087043819L116.6511111111111,153.46411472726618L116.71333333333334,151.35540366422387L116.74444444444444,148.73698898852618L117.07111111111111,152.71366272390338L117.11777777777779,157.92865803551942L117.21111111111111,147.57413350768252L117.22666666666667,144.9151528625331L117.42888888888888,150.50638218141447L118.02,146.25336364607125L118.03555555555556,154.85686634451216L118.61111111111111,157.26979770121017L118.62666666666668,150.433936958653L119.17111111111112,153.9728790708734L119.51333333333334,145.65217278828342L119.52888888888889,148.41034914809538L119.54444444444445,140.15990380947633L119.96444444444445,145.5540823191693L120.0111111111111,153.82311185562853L120.22888888888889,147.96602158763554L120.77333333333334,150.32789830949034L120.88222222222223,148.30795966885165L120.96,149.4987521547179L121.14666666666666,148.02815322000387L121.31777777777778,147.1891926939404L121.61333333333334,151.39954318568803L121.90888888888888,150.051630402897L122.11111111111111,143.02822471874606L122.12666666666667,146.4294187193671L123.27777777777777,143.08545328024383L123.58888888888889,148.07189704756948L123.65111111111112,143.6247178601087L123.74444444444444,153.98305181521837L123.80666666666666,153.61261727278628L124.33555555555554,148.83025982150554L124.74000000000001,140.34843007426932L125.20666666666666,142.82731674731656L125.3,139.78523544592193L125.34666666666666,135.3351978666933L125.58,141.13913309990477L125.90666666666667,146.07067033525772L126.21777777777778,134.59960012362282L126.38888888888889,139.2025969652884L126.42,145.76276305488065L127.05777777777777,144.0947766746361L127.13555555555556,141.74533199937815L127.21333333333332,152.01001174924775L127.38444444444444,148.1576180945516L127.49333333333333,145.15395275000813L127.54,152.05799841430235L127.66444444444444,155.76981874732047L128.45777777777778,150.62161862360162L128.53555555555556,151.19143303487732L128.8,145.78770314457438L128.86222222222221,152.08833936409604L129.04888888888888,145.99835183654102L129.09555555555556,146.55530174484176L129.12666666666667,149.40892972669198L129.45333333333332,148.2825881160569L129.62444444444444,143.80775315119453L129.79555555555555,154.71153238652576L130.04444444444445,147.36441111408726L130.29333333333332,152.30093386079704L130.3088888888889,154.36539932671684L130.4488888888889,152.0284242262453L130.74444444444444,158.70763457968891L131.27333333333334,157.29063085931577L131.45999999999998,152.93543236087584L131.5222222222222,156.69564624655737L131.55333333333334,157.34483674856122L131.69333333333333,153.01451050455628L131.8177777777778,149.7281500024513L131.83333333333334,139.93419650929664L132.20666666666668,150.33684945024544L132.44,154.1459845947772L132.45555555555555,154.3098700790137L132.59555555555556,152.03049540808973L132.79777777777778,152.21847070852624L133.14,150.55232104867522L133.17111111111112,140.12784547483815L133.40444444444444,149.44121554978724L133.71555555555557,157.87989297073656L133.79333333333332,161.2875709943418L133.88666666666668,150.87540106102492L133.96444444444444,152.05692487433353L134.26,154.23692237868786L134.30666666666667,150.5334256338172L134.35333333333332,154.06874302682834L134.54,155.87352049593662L135.19333333333333,160.53020301606975L135.48888888888888,158.897944811116L135.95555555555555,145.5943764764847L136.04888888888888,147.54585739262592L136.4688888888889,153.91861534997935L136.57777777777778,157.90228626622326L136.62444444444444,159.3063159368549L137.54222222222222,156.43155279052937L137.62,144.34055570687462L138.05555555555557,153.45347706817452L138.11777777777777,149.60315065737288L138.13333333333333,144.42318922374082L138.19555555555556,144.14351504500766L138.22666666666666,153.6650460330013L138.32,150.05728910370848L138.53777777777776,154.25974803345906L138.95777777777778,156.89351057367034L139.1911111111111,158.8305606148035L139.23777777777778,156.53464240589082L139.51777777777778,147.97611210202183L139.54888888888888,148.83480568352346L139.65777777777777,148.85557130797505L139.76666666666665,152.82522397532344L139.82888888888888,151.9353488738494L140.26444444444445,146.13497739017944L140.5288888888889,149.4455366945621L141.0888888888889,154.77813752614597L141.2288888888889,156.60760555489742L141.33777777777777,156.64319586350848L141.58666666666667,160.53785451073546L141.7111111111111,149.9870423574394L141.7888888888889,148.26758070434008L141.89777777777778,150.83007997509762L141.9288888888889,154.47407871774988L142.00666666666666,155.4362751553485L142.0377777777778,155.7907013817149L142.16222222222223,147.88878320297704L142.48888888888888,142.6508660414285L142.50444444444443,148.10818321472206L142.64444444444445,150.76849233711243L142.70666666666668,155.89027002776848L142.73777777777778,158.8374880657356L143.4377777777778,154.4933605868078L143.5,154.2998449379776L143.7177777777778,142.76119428423488L144.07555555555555,149.15832929266955L144.38666666666668,150.99472184004466L144.52666666666667,155.8700559837197L144.61999999999998,153.37050531670897L145.10222222222222,146.3769260636893L145.32,150.60394584860964L145.58444444444444,152.28038234771228L145.66222222222223,145.85270722961982L145.7711111111111,152.3493815370295L146.16,149.02209994690978L146.29999999999998,149.6940729200683L146.39333333333335,155.77736026301037L146.4711111111111,156.47456280442506L146.56444444444446,158.47997690768497L146.59555555555556,151.37273424733553L147.28,150.7851267493896L147.43555555555557,157.13680294340148L147.51333333333335,159.64726951828774L147.56,159.3923380009006L147.68444444444447,156.56297562758152L148.19777777777776,158.3166014477016L148.44666666666666,162.15090085562477L148.52444444444447,161.49627819655186L148.54,161.58635669498352L148.72666666666666,162.53090313813811L148.92888888888888,157.13262904281453L149.17777777777778,150.85509336945435L149.24,152.51054945189964L149.50444444444443,157.10992451555558L149.97111111111113,151.9764288458051L150.1888888888889,149.66301869558225L150.99777777777777,151.11778024856406L151.48000000000002,151.0732006625781L151.7133333333333,146.442783275035L151.9933333333333,145.00299568700015L152.02444444444444,153.65307506160272L152.60000000000002,153.26488090968925L152.7711111111111,151.5910206372547L153.03555555555556,155.38752962634015L153.6888888888889,161.66180664385138L153.81333333333333,150.2622205813812L153.95333333333332,151.33420417681853L153.98444444444445,157.70750334956062L154.65333333333334,155.4457134699691L155.12,159.5197484025132L155.24444444444444,158.62948111392686L155.7111111111111,153.19436269073265L155.96,148.1546897817765L155.97555555555556,149.84737629020898L155.9911111111111,150.0978788313251L156.05333333333334,155.3198773266066L156.5822222222222,157.50624490685396L156.9088888888889,145.16620363090715L157.00222222222223,154.41179057311584L157.28222222222223,153.24355318904855L157.57777777777778,153.94732378578746L157.73333333333335,151.61001817528347L157.90444444444447,157.12219678659105L158.1688888888889,156.4513527120582L158.51111111111112,158.08193443733046L158.7133333333333,159.34119033972974L158.91555555555556,150.453821889523L159.02444444444444,158.71226274525424L159.11777777777777,155.13264322090328L159.61555555555555,158.46979273257065L160.14444444444445,160.84733287966196L160.16,159.5974096565005L160.19111111111113,156.3393185188506L160.39333333333332,144.85700788051687L160.72,155.5993467985514L161.14000000000001,147.39679661207936L162.2911111111111,150.52866545208417L162.33777777777777,155.0073062733598L162.6488888888889,160.3414807673268L162.69555555555556,165.30249567924275L163.76888888888888,162.66534059553345L164.01777777777775,157.08198594188096L164.07999999999998,160.8538107526177L164.43777777777777,154.8025858477875L164.65555555555557,159.95674223459508L164.82666666666665,149.64125251028983L165.04444444444445,153.164893911058L165.18444444444447,159.09789564618427L165.34,156.9819031419394L165.4488888888889,159.19997747239694L166.2888888888889,156.28575955553188L166.38222222222223,152.35801293834052L166.52222222222224,153.70009590616226L166.5688888888889,158.13657890218735L167.47111111111113,156.2260000949099L167.48666666666665,154.3895158600804L167.67333333333335,153.77340768170336L167.6888888888889,155.35768138180364L167.87555555555554,145.56207416838518L167.89111111111112,151.81570421240397L168.93333333333334,156.06849397618572L169.54000000000002,156.63030640199185L169.7577777777778,157.1349169994259L169.88222222222223,155.99997645526312L169.89777777777778,160.93928816078116L170.10000000000002,155.1419736156345L170.28666666666666,161.17763259038958L170.44222222222223,155.0182902203538L171.14222222222222,159.79818980576326L171.35999999999999,159.9194533858104L171.73333333333332,161.5542573706599L171.78,151.49411993630483L172.15333333333334,154.59827069436164L172.1688888888889,161.1192998017797L172.26222222222222,155.04596031611734L172.32444444444445,151.81119593921647L172.4488888888889,156.8214818220934L172.51111111111112,160.378584408781L172.58888888888887,160.82716045842827L173.14888888888888,153.5579018507377L173.2888888888889,149.445316658257L173.46,156.52278069158706L173.7711111111111,160.6143389601279L173.92666666666665,155.25411260180286L174.62666666666667,160.87924018161067L175.32666666666665,164.8725025290642L175.51333333333335,156.8374262368318L176.02666666666667,155.4721384556971L176.18222222222224,151.83729873519434L176.1977777777778,159.97186893624837L176.46222222222224,160.85022146941887L177.22444444444443,158.9934212025503L177.30222222222224,160.6870579932034L177.47333333333333,164.47980049521624L177.89333333333332,160.98264301953256L177.95555555555555,161.8993305601927L178.1111111111111,162.63697885465638L178.85777777777778,161.75510915215023L179.1688888888889,163.72205596846467L179.26222222222222,158.21473844904975L179.61999999999998,155.25053471958205L179.7288888888889,158.90283583222669L179.9622222222222,160.73124496672355L180.39777777777778,158.3135238716531L181.16,162.90169783373346L181.23777777777775,161.7970271725337L181.28444444444446,156.42379616909506L181.29999999999998,158.35446056776215L181.39333333333335,159.1278704370735L181.62666666666667,162.99500270802844L181.68888888888887,161.87660258408826L181.70444444444445,164.09855397058394L181.72,158.13937741227667L181.82888888888888,154.75556735743714L181.84444444444446,152.5621258917429L182.17111111111112,155.0404305385338L182.24888888888887,157.95565883751433L182.48222222222222,163.26355285289569L182.63777777777776,160.02944430615116L182.88666666666666,159.6890608118809L183.46222222222224,160.32295678239086L183.61777777777777,161.67119592424345L183.94444444444446,152.96871256378958L184.76888888888888,155.6426988775889L185.31333333333336,154.28222190426945L185.39111111111112,158.211236436067L185.56222222222223,159.71689076730487L185.78,162.88717321386264L185.90444444444444,160.97499207306103L185.95111111111112,150.09967546849367L186.6822222222222,155.3405585687692L186.7133333333333,155.34326480560512L186.80666666666667,158.5768799132586L186.88444444444443,144.70647393593077L187.10222222222222,141.7565350349479L187.50666666666666,146.68863347788053L187.69333333333333,153.12319379445552L188.01999999999998,158.53650981386983L188.57999999999998,157.0513675008743L188.61111111111111,156.45364921581918L188.64222222222222,155.14080764676436L188.76666666666668,157.41680341482345L188.9377777777778,161.10778070551265L188.95333333333332,165.58530132882066L189.18666666666667,163.33612893618505L189.56,159.86993697716213L189.7,154.36194002141605L189.99555555555557,150.60062392807038L190.0577777777778,155.16680524352807L190.2288888888889,161.93832812650425L190.54,163.1437480878438L190.58666666666667,163.14329162502915L190.66444444444446,163.32487111621876L191.0066666666667,166.37835784474032L191.44222222222223,167.25540368911038L191.95555555555558,167.5098487788821L192.2511111111111,160.30610211443212L192.39111111111112,159.87137638107723L192.45333333333335,161.14706858218184L192.51555555555555,161.19240862709566L192.99777777777777,164.38782155302036L193.26222222222222,166.66472384877127L193.34,158.3283125313945L193.40222222222224,155.2126197965638L194.04,160.2193947137413L194.2577777777778,164.84360678053008L194.44444444444443,167.23233273416673L194.69333333333333,164.3332407886679L194.72444444444443,166.18796386211486L194.97333333333333,165.38232926250618L195.31555555555556,160.1572420476146L195.81333333333333,158.0340265156786L196.0311111111111,160.59849031661216L196.29555555555555,160.40819701340357L196.3111111111111,155.41434962920283L196.4511111111111,157.73051341174207L196.65333333333334,155.411528775383L196.98000000000002,156.86034373747646L196.99555555555557,153.77629809264744L197.07333333333332,157.82784188946727L197.4466666666667,158.39009813613083L197.49333333333334,161.37197021295955L198.67555555555558,157.53658423066335L198.86222222222221,150.44540258342144L199.20444444444445,153.28037044462036L199.29777777777775,159.02973357025667L199.40666666666664,157.07277369459797L199.42222222222222,157.5990206634124L199.85777777777776,153.76146448761938L199.92,155.74972500569058L200.49555555555557,160.56369551668425L200.68222222222224,164.58495304599322L200.77555555555557,161.01324905374597L201.2111111111111,160.00662888538213L201.58444444444447,159.2736583669565L201.7711111111111,163.78485176083936L201.83333333333334,164.35152679975326L201.91111111111113,164.8704700889915L201.98888888888888,162.93110555173337L202.14444444444445,158.17632985121833L202.26888888888888,160.87347368900078L202.36222222222224,166.1070381118229L202.47111111111113,163.83344758307163L202.56444444444443,164.28548122312262L202.70444444444442,167.53273060856392L203.10888888888888,166.73317779340226L203.54444444444442,169.00075544167535L203.57555555555555,168.6693420674591L204.07333333333332,161.26960578359297L204.30666666666667,156.35140886632877L204.32222222222222,159.05244681598708L204.68,153.6595118052481L204.7733333333333,160.2866363009717L204.80444444444444,162.16460967993174L204.8511111111111,155.81325976810118L204.9288888888889,159.46085851571715L205.0222222222222,159.90486280877445L205.10000000000002,162.09526006175014L205.16222222222223,164.80828826266784L205.19333333333333,163.21579302184736L205.28666666666666,163.3124792558429L205.33333333333331,155.38177225187286L205.6288888888889,160.0692361794851L205.75333333333333,164.79333403724084L205.7688888888889,158.9881752268532L205.89333333333332,163.22350184312813L206.35999999999999,166.538778322213L206.42222222222222,165.88309948952383L206.93555555555557,161.7529567751967L207.0911111111111,165.46621888719102L207.1222222222222,161.97379722650112L207.24666666666667,162.93081971603786L207.34,161.36726442335936L207.52666666666667,161.44502716576395L207.83777777777777,163.0114267077466L208.04,159.13261240237475L208.05555555555557,160.48771606989814L208.2111111111111,160.37474150647589L208.3511111111111,161.34312059768956L208.36666666666667,163.41996118002487L208.5688888888889,157.5924009759626L208.61555555555557,150.27615285542018L209.03555555555556,157.42651963942592L209.3311111111111,160.64253052264957L209.44,161.75162655526702L209.82888888888888,165.39968241346213L209.86,166.81811094786127L210.18666666666667,169.40153098985047L211.33777777777777,169.56968094898457L211.38444444444443,164.29916397999642L211.46222222222224,163.77109541681955L211.4933333333333,162.18074726127116L212.11555555555555,160.12328760735707L212.14666666666668,163.4813215056808L212.19333333333333,161.4950598005802L212.20888888888888,150.34505447145406L212.41111111111113,153.3498668463296L213.23555555555555,159.06245433151818L213.51555555555555,161.3533840342468L213.59333333333333,160.89102013791236L213.65555555555557,162.63908439321597L213.7488888888889,164.11151952225435L213.8422222222222,166.56200786022674L214.21555555555557,168.59216894262036L214.2311111111111,167.04030848922133L214.3088888888889,163.2320224926281L214.99333333333334,155.41562088491963L215.1488888888889,157.78726645134358L215.39777777777778,152.77086513979714L215.47555555555556,156.67252385686922L215.4911111111111,158.46154918265992L215.5377777777778,162.4089417319307L215.56888888888886,162.09711018269118L215.58444444444444,162.939942656844L215.86444444444444,161.88102176942772L216.16,160.6302897432944L216.26888888888888,163.26794430647797L216.73555555555558,167.13545786907974L216.79777777777775,163.8047734644753L217.09333333333333,164.36581830027652L217.34222222222223,163.83269643242926L217.43555555555557,165.33710214692815L217.51333333333335,158.85356101362981L217.8711111111111,163.532202053072L218.07333333333335,154.37730788469432L218.19777777777776,159.60703473034573L218.55555555555554,162.90849970276994L218.58666666666664,166.2459844367331L219.1,166.00377492817495L219.13111111111112,163.06975890748055L219.69111111111113,164.0260027407995L220.06444444444443,163.80851353611894L220.1888888888889,161.63271359894483L220.98222222222225,152.67581030901556L221.04444444444442,159.175905499913L221.10666666666665,162.87759153749508L221.24666666666667,163.82980343039907L221.27777777777777,160.64862979180262L221.32444444444442,163.41571123958616L221.35555555555555,163.78793889767522L221.48000000000002,145.96302427343483L221.8688888888889,153.17584657962297L222.16444444444443,161.3831516901861L222.3511111111111,163.81707411484186L222.36666666666667,166.93497467939562L222.47555555555556,167.93858644570116L222.58444444444444,169.26959733321638L222.60000000000002,163.81460588442906L223.1911111111111,164.4495726295866L223.34666666666666,163.98368921316012L223.39333333333332,167.23477269652543L223.50222222222223,166.47146932225263L223.5488888888889,168.17592434363564L223.61111111111111,166.6797802334398L223.64222222222222,167.8644488921982L223.70444444444445,163.01437694407832L223.9377777777778,161.10367736787992L224.0622222222222,160.3155785736227L224.28,163.9847582086494L224.3422222222222,164.65630771544994L224.54444444444445,167.5291106820996L224.71555555555557,165.71544092645618L225.02666666666667,166.93752709627373L225.36888888888888,156.6898568442477L225.38444444444445,159.07385674989303L225.4622222222222,160.67988884598662L225.5711111111111,160.98544717669873L225.7422222222222,157.05884500274294L225.82,154.69502393188617L226.22444444444446,157.3842129441055L226.66,164.35690169916018L227.04888888888888,165.34264581992008L227.12666666666667,166.75550514627267L227.43777777777777,169.41740485455853L227.85777777777778,165.3996996010915L228.38666666666666,166.25224247056696L228.85333333333335,168.76070324970607L229.13333333333333,168.1874720093955L229.38222222222223,165.8754830144256L229.5688888888889,160.77222697108445L229.58444444444444,156.18008033287202L229.72444444444443,159.62811337658272L229.74,159.76848905383648L229.89555555555555,164.50491584635736L229.91111111111113,162.36821153564432L230.0977777777778,164.4043446532826L230.26888888888888,163.85667141165976L231.28,157.36290685913946L231.37333333333333,158.97062500168076L231.54444444444445,161.66917345322187L231.65333333333334,165.17190215563485L231.6688888888889,155.9207420010907L233.08444444444444,160.00304263700798L233.11555555555557,159.75604605597113L233.17777777777778,160.4894039998761L233.19333333333333,160.75056951614087L233.34888888888887,159.75720234213392L233.39555555555557,159.36986740975453L233.4111111111111,163.51422983697873L233.50444444444446,166.0871075710912L233.66,160.37342552743908L234.23555555555558,163.42795927950772L234.26666666666668,158.21618677752633L234.37555555555556,161.08619796419097L235.02888888888887,162.65401907002303L235.10666666666665,164.51660003094597L235.29333333333335,162.90014367225004L235.3711111111111,164.63580094194253L235.52666666666664,167.34199934514368L235.69777777777776,156.44227934665682L236.30444444444447,163.61898023033336L236.47555555555553,163.8117333253127L236.4911111111111,163.2295364953519L236.64666666666665,166.95199350222595L236.83333333333334,163.34629157307535L236.92666666666665,167.36632344274395L236.97333333333336,157.68893703906937L237.02,162.47891906627538L237.19111111111113,159.9312453186722L237.62666666666667,152.42084907836983L237.76666666666665,158.81685023403028L238.65333333333334,152.0391132855169L238.9022222222222,156.402939727828L239.05777777777777,157.386383724019L239.4,162.01049043494766L239.41555555555556,160.67319741030516L239.55555555555554,162.66142739947128L240.11555555555555,164.709537658292L240.33333333333331,164.606461212455L240.38000000000002,160.42888621042297L240.42666666666668,162.0751424621053L240.6911111111111,165.80394790376766L240.94,166.43937416407792L241.14222222222222,166.47399443705874L241.1888888888889,167.86223343428966L241.85777777777778,168.23168798561096L242.06,164.0385773578298L242.0911111111111,163.40359596008133L242.13777777777779,164.98132258076413L242.2777777777778,168.7187282945786L242.51111111111112,166.85038947722757L242.66666666666669,168.52433612722274L242.88444444444445,166.9836215602047L243.0711111111111,149.74243892590326L243.2888888888889,155.27480579233242L243.74,162.34393455723568L243.7711111111111,165.2806045313307L243.8022222222222,159.43387879801563L244.02,160.91114553807836L244.26888888888888,163.599814985312L245.14,164.16272766351221L245.18666666666667,162.8213096817405L245.71555555555554,165.32180917770094L245.90222222222224,164.19797022199884L246.26,162.85052400562915L246.33777777777777,165.7288040372506L246.74222222222224,157.32830568121523L247.41111111111113,156.42995458523424L247.94,158.8305005486607L248.1111111111111,161.63947821107803L248.14222222222222,161.93596395669755L248.65555555555557,160.14164020236362L248.73333333333332,161.55313580366092L248.79555555555555,163.86881911349067L248.85777777777778,160.7727444378541" style="fill: none;" fill="none"></path></g></g></g></g><g opacity="0.2"><g><g><g><path stroke="rgb(255, 112, 67)" stroke-width="2px" d="M37.38,-33.059340968728065L37.67555555555556,26.56769607961178L37.89333333333333,-21.296817988157272L38.01777777777778,20.09689275920391L38.65555555555555,41.15434129536152L39.013333333333335,15.6306332051754L39.55777777777778,-4.343473121523857L39.74444444444445,21.951296523213387L40.16444444444445,8.274406090378761L40.21111111111111,33.51183933019638L40.42888888888889,24.695014402270317L40.77111111111111,45.16581577062607L40.80222222222222,9.373124957084656L40.848888888888894,50.37259456515312L40.89555555555555,-11.056491762399673L41.16,-5.104235216975212L41.175555555555555,52.49148738384247L41.25333333333334,57.20216457545757L41.79777777777778,16.122053235769272L42,12.342217683792114L42.202222222222225,56.37651984393597L42.248888888888885,21.920187145471573L42.32666666666667,58.35392367839813L42.43555555555555,21.790909811854362L42.51333333333333,-1.7899062037467957L43.10444444444444,21.756055176258087L43.22888888888889,-3.830082669854164L43.38444444444444,34.74677217006683L43.55555555555556,41.37697313725948L43.913333333333334,4.962688207626343L44.73777777777777,56.76389028131962L44.784444444444446,57.9260543435812L45.111111111111114,66.78695198893547L45.12666666666667,62.32602019608021L45.157777777777774,20.192264959216118L45.28222222222222,59.513437047600746L45.437777777777775,43.22699864208698L45.62444444444444,58.731640845537186L45.65555555555556,8.005894839763641L46.12222222222222,89.00556892901659L46.153333333333336,30.537458404898643L46.49555555555556,67.81801224499941L46.68222222222222,83.37585952877998L46.93111111111111,85.689288161695L47.00888888888889,106.21421773731709L47.14888888888889,33.46793805062771L47.38222222222222,70.0476539209485L47.91111111111111,79.17822331935167L48.626666666666665,67.27378275990486L48.64222222222222,65.34294408559799L48.65777777777778,65.39637994766235L48.72,2.0642146915197372L48.75111111111111,79.33851112425327L49.26444444444444,104.35849522054195L49.29555555555555,84.57039237767458L49.91777777777778,99.36547965556383L49.948888888888895,71.43697974085808L50.05777777777778,66.59616802632809L50.08888888888889,56.03938069939613L50.275555555555556,36.74221654236317L50.36888888888888,58.6168038547039L50.54,32.87195411324501L50.66444444444444,83.56752705574036L50.72666666666667,84.25374665111303L50.94444444444444,76.55145243555307L51.162222222222226,49.19001621007919L51.28666666666667,84.31426421552896L51.42666666666667,88.07922423630953L51.90888888888889,70.31008572131395L52.01777777777777,82.4448464512825L52.03333333333333,84.33575329184532L52.157777777777774,51.69383977353573L52.5,91.68168754130602L52.717777777777776,52.11268883943558L52.76444444444444,101.05103031545877L52.842222222222226,86.89696238189936L52.99777777777778,47.412759482860565L53.09111111111111,86.94294069707394L53.13777777777778,100.72037284076214L53.16888888888889,87.07145315408707L53.27777777777777,86.4093931093812L53.40222222222222,56.4526382535696L53.69777777777777,63.36794038116932L54.071111111111115,91.58089526742697L54.36666666666666,92.10627318173647L54.52222222222222,76.80215393006802L54.693333333333335,91.48173824697733L54.77111111111112,95.14686208963394L54.80222222222222,41.76680964231491L55.22222222222222,129.46188383549452L55.37777777777778,33.87296658754349L55.440000000000005,82.01233510673046L55.455555555555556,100.46460733562708L55.61111111111111,80.36212702095509L55.67333333333333,108.03412292897701L56.49777777777778,19.035046219825745L56.544444444444444,124.2799239680171L56.824444444444445,46.0937165915966L57.50888888888889,79.17822331935167L57.63333333333333,91.76943075656891L57.742222222222225,98.85514871031046L58.535555555555554,98.11644275486469L58.56666666666667,66.09356497228146L59.00222222222222,98.00307617336512L59.34444444444444,77.60720633715391L59.593333333333334,101.15935266762972L59.608888888888885,94.19620618969202L59.702222222222225,64.49461680650711L59.76444444444444,108.43712058663368L59.81111111111111,93.63592088967562L60.13777777777778,104.98125643283129L60.15333333333333,95.335892111063L60.24666666666667,103.56959753483534L60.324444444444445,109.194889113307L61.32,114.97228563576937L61.78666666666667,123.69931998476386L61.94222222222222,102.97406856715679L62.300000000000004,36.29984092712402L62.56444444444445,85.44295173883438L62.73555555555556,89.30768859386444L63.217777777777776,130.47214736044407L63.31111111111112,115.79047941416502L63.404444444444444,89.99804247915745L63.63777777777778,77.25079362094402L63.84,113.8866092339158L64.19777777777777,101.27787557244301L64.57111111111111,103.4613477140665L64.64888888888889,83.69814292341471L64.75777777777778,97.70898771286011L64.80444444444444,124.95123176649213L65.05333333333333,118.14042431116104L65.42666666666666,121.38342198729515L65.45777777777778,117.1434538140893L65.53555555555555,147.37402460351586L65.89333333333333,122.25484392419457L66.15777777777778,109.88145817816257L66.28222222222222,89.77152691036463L66.34444444444445,110.64429071545601L66.42222222222222,144.7494988963008L66.68666666666667,118.43051695078611L67.02888888888889,117.16417801380157L67.15333333333334,146.70137167721987L68.14888888888889,111.55678850412369L68.41333333333334,126.33652879670262L68.58444444444444,124.38551320508122L69.00444444444445,93.76258709281683L69.31555555555556,96.87105879932642L69.45555555555556,126.2516703531146L69.50222222222223,96.88989058881998L69.79777777777777,126.94841689243913L70.07777777777777,112.52952032536268L70.76222222222222,103.94366835057735L71.13555555555556,149.7794461324811L71.19777777777777,126.03970062732697L71.35333333333334,124.23150925710797L71.49333333333334,122.19947938621044L71.52444444444444,92.7038725912571L71.66444444444444,109.33755838125944L71.80444444444444,109.43376139551401L71.88222222222223,117.3338685259223L72.00666666666666,110.2461328804493L72.11555555555555,122.5269949324429L72.24000000000001,114.98570394515991L72.33333333333334,85.53615459054708L72.3488888888889,148.9145355373621L72.4888888888889,133.43951252102852L72.75333333333334,126.79436678811908L72.83111111111111,146.44633478298783L73.03333333333333,120.9989198371768L73.42222222222223,115.12665224075317L73.62444444444444,142.66532554104924L73.64,144.98693373799324L73.71777777777778,139.52590600401163L73.79555555555555,121.63091891258955L74.06,128.0326492600143L74.24666666666667,142.95047615468502L74.55777777777777,142.92287136241794L74.71333333333332,141.98692944645882L74.77555555555556,123.78076945245266L74.83777777777777,105.08112557977438L74.85333333333332,125.32503223791718L75.28888888888889,106.355179220438L75.38222222222221,133.70210257172585L75.52222222222221,139.70441567525268L75.8488888888889,91.19265445321798L75.86444444444444,145.1668907403946L76.00444444444445,125.06050032377243L76.23777777777778,156.53800790011883L76.56444444444445,152.44246623292565L76.8911111111111,135.6556040123105L77.07777777777778,146.1995994374156L77.12444444444444,145.02096085622907L77.80888888888889,140.8830509595573L78.04222222222222,141.40459789708257L78.22888888888889,131.49438186362386L78.38444444444444,143.6684315353632L78.78888888888889,123.11843906342983L79.1,132.60438266023993L79.11555555555556,155.33228048868477L79.14666666666668,98.19338538497686L79.36444444444444,152.59021434746683L79.41111111111111,130.68894701823592L79.45777777777778,126.70466192811728L79.55111111111111,127.26142615824938L79.9711111111111,140.15818201750517L80.06444444444445,121.313851185143L80.14222222222222,131.43780736997724L80.22,135.05173063650727L80.74888888888889,118.86697795987129L80.87333333333333,130.4105484187603L80.91999999999999,154.70032262429595L81.0911111111111,121.2761018872261L81.13777777777779,145.21640660986304L81.18444444444445,131.92548214271665L81.71333333333334,111.7950541600585L81.89999999999999,132.53300516679883L82.19555555555556,109.85692278295755L82.44444444444444,113.09654445201159L82.70888888888888,103.06905832886696L82.83333333333333,112.578887835145L82.89555555555556,136.44511162117124L83.11333333333333,113.06783520430326L83.3,115.14355205744505L83.59555555555556,135.0693425796926L83.98444444444445,132.70614092051983L84.18666666666667,110.87687914073467L84.29555555555557,153.47987133823335L84.38888888888889,125.53768112137914L84.46666666666667,140.93008098006248L84.57555555555557,95.48783880472183L84.60666666666665,104.35901612788439L85.30666666666666,150.9648515637964L85.32222222222222,117.72961304336786L85.41555555555556,134.301409766078L85.63333333333334,137.96838975325227L86.13111111111111,139.8989152237773L86.52,137.41041556745768L86.83111111111111,139.80917080119252L86.84666666666666,162.47311076894403L87.08,127.92977665364742L87.31333333333333,129.92356928810477L87.65555555555555,124.63581248000264L88.07555555555555,135.76362305134535L88.49555555555555,121.99071093276143L88.51111111111112,104.73056153208017L88.62,142.67020822316408L88.69777777777777,145.36310466751456L88.76,134.42593629285693L88.99333333333334,157.0893289782107L89.05555555555554,148.83452021330595L89.21111111111111,142.47857036814094L90.08222222222223,140.69357585906982L90.20666666666666,134.9625928401947L90.44,112.20328726619482L90.51777777777778,139.94642988592386L90.5488888888889,144.4220492877066L90.64222222222223,113.81180957704782L90.86,149.6461367122829L90.89111111111112,158.09206901863217L91.07777777777778,151.67853418551385L91.17111111111112,132.50458604469895L91.31111111111112,128.05851989239454L92.43111111111112,150.5179361421615L92.85111111111112,137.83358684554696L92.96000000000001,149.26268297061324L93.25555555555556,144.66388216987252L93.38000000000001,140.93921993672848L93.41111111111111,149.68404590897262L93.45777777777778,130.54309955611825L93.86222222222221,133.3591806963086L94.1888888888889,150.57885262928903L94.25111111111111,58.660902947187424L94.3911111111111,146.43249117583036L94.65555555555555,154.43873812258244L94.78,155.01310275681317L94.93555555555555,130.70854368433356L95.04444444444444,141.38388358801603L95.6511111111111,151.8073186352849L95.80666666666667,126.56180473789573L96.16444444444444,149.4448323994875L96.28888888888889,144.7782081440091L96.35111111111111,143.54436327517033L96.66222222222221,135.01250103861094L96.91111111111111,153.59338298253715L96.9888888888889,163.85173243749887L97.4711111111111,153.18414432741702L97.70444444444445,154.6807605754584L97.72,134.01225014403462L97.73555555555556,143.05222122743726L97.8911111111111,143.88389925286174L98.21777777777778,167.1505207736045L98.41999999999999,114.95625619590282L99.30666666666667,148.3204835727811L99.50888888888888,153.50729809887707L99.58666666666667,126.50176851823926L99.82,127.89002614840865L100.17777777777778,140.23669726029038L100.25555555555556,116.51232511550188L100.42666666666668,150.08242958039045L100.62888888888888,138.8628535978496L100.72222222222223,133.33596405386925L101.26666666666668,153.32761144079268L101.36,143.0438141785562L101.42222222222222,131.34217801317573L101.65555555555557,142.0063942372799L102.2311111111111,153.34315294213593L102.35555555555557,135.01971461623907L102.69777777777777,131.6292605996132L102.75999999999999,143.40996918082237L103.02444444444446,161.4927845802158L103.69333333333334,151.25415460020304L104.03555555555555,112.43161612004042L104.05111111111111,169.17863806989044L104.12888888888888,133.90914016216993L104.17555555555555,148.74192069098353L104.59555555555555,154.59327616542578L104.87555555555555,135.30677082762122L104.95333333333333,142.8943236619234L104.96888888888888,143.77787812426686L105.10888888888888,127.30723962932825L105.18666666666667,142.75287094339728L105.28,151.9075174704194L105.37333333333333,136.74027816206217L105.43555555555555,140.8405640423298L105.48222222222222,115.47574587911367L105.87111111111112,140.4232216514647L105.96444444444445,149.04927580431104L106.13555555555556,152.8838049788028L106.41555555555556,149.39170809276402L106.47777777777777,149.20376109704375L106.71111111111111,125.18468067795038L106.91333333333334,131.1099951043725L107.05333333333334,151.6722272504121L107.06888888888889,141.5055747963488L107.10000000000001,157.87646942585707L107.28666666666666,83.54166631400585L107.42666666666666,136.35369238257408L108.14222222222223,132.93164764344692L108.60888888888888,136.23654098063707L108.74888888888889,131.46087235584855L108.88888888888889,148.37060936540365L109.62,130.48662067204714L109.76,142.6483433023095L109.82222222222222,142.9547851793468L110.33555555555556,133.20563831180334L110.56888888888889,151.54408404417336L110.72444444444444,155.4667174424976L111.06666666666666,147.11598095297813L111.16000000000001,121.7762256860733L111.44000000000001,166.0543520450592L111.45555555555555,146.1346376761794L111.64222222222222,140.65895200520754L111.6888888888889,138.51059165596962L111.87555555555555,152.9020136576146L112.29555555555555,152.5462652631104L112.49777777777778,151.78203484788537L112.51333333333334,149.2772024385631L112.56,136.3124253116548L113.38444444444444,156.9357107654214L113.60222222222222,132.7399438507855L113.68,146.62024860084057L114.00666666666667,160.23920127935708L114.19333333333333,164.1657480765134L114.22444444444444,158.54045649804175L114.47333333333333,160.57879495248199L114.52,138.84791872277856L114.58222222222221,161.53095423057675L114.69111111111111,133.72833915799856L115.09555555555556,139.1509021706879L115.1111111111111,133.83498669415712L115.62444444444445,149.42902879603207L115.84222222222222,162.0267607625574L115.98222222222222,168.51514305733144L115.99777777777778,159.1266965009272L116.6511111111111,146.00444051250815L116.71333333333334,148.19233706966043L116.74444444444444,144.80936697497964L117.07111111111111,158.67867332696915L117.11777777777779,165.75115100294352L117.21111111111111,132.04234671592712L117.22666666666667,140.926681894809L117.42888888888888,158.8932261597365L118.02,139.87383584305644L118.03555555555556,167.76212039217353L118.61111111111111,160.8891947362572L118.62666666666668,140.18014584481716L119.17111111111112,159.28129223920405L119.51333333333334,133.17111336439848L119.52888888888889,152.54761368781328L119.54444444444445,127.78423580154777L119.96444444444445,153.64535008370876L120.0111111111111,166.22665616031736L120.22888888888889,139.18038618564606L120.77333333333334,153.8707133922726L120.88222222222223,145.2780517078936L120.96,151.28494088351727L121.14666666666666,145.82225481793284L121.31777777777778,145.93075190484524L121.61333333333334,157.71506892330945L121.90888888888888,148.0297612287104L122.11111111111111,132.49311619251966L122.12666666666667,151.53120972029865L123.27777777777777,138.0695051215589L123.58888888888889,155.55156269855797L123.65111111111112,136.9539490789175L123.74444444444444,169.5205527478829L123.80666666666666,153.05696545913815L124.33555555555554,141.65672364458442L124.74000000000001,127.62568545341492L125.20666666666666,146.54564675688744L125.3,135.22211349382997L125.34666666666666,128.66014149785042L125.58,149.84503594972193L125.90666666666667,153.46797618828714L126.21777777777778,117.39299480617046L126.38888888888889,146.10709222778678L126.42,155.60301218926907L127.05777777777777,141.59279710426927L127.13555555555556,138.2211649864912L127.21333333333332,167.40703137405217L127.38444444444444,142.37902761250734L127.49333333333333,140.64845473319292L127.54,162.4140669107437L127.66444444444444,161.33754924684763L128.45777777777778,142.89931843802333L128.53555555555556,152.04615465179086L128.8,137.68210830911994L128.86222222222221,161.53929369337857L129.04888888888888,136.86337054520845L129.09555555555556,147.3907266072929L129.12666666666667,153.6893716994673L129.45333333333332,146.59307570010424L129.62444444444444,137.09550070390105L129.79555555555555,171.06720123952255L130.04444444444445,136.34372920542955L130.29333333333332,159.70571798086166L130.3088888888889,157.46209752559662L130.4488888888889,148.52296157553792L130.74444444444444,168.72645010985434L131.27333333333334,155.16512527875602L131.45999999999998,146.40263461321592L131.5222222222222,162.33596707507968L131.55333333333334,158.318622501567L131.69333333333333,146.51902113854885L131.8177777777778,144.7986092492938L131.83333333333334,125.24326626956463L132.20666666666668,165.9408288616687L132.44,159.85968731157482L132.45555555555555,154.55569830536842L132.59555555555556,148.61143340170383L132.79777777777778,152.500433659181L133.14,148.0530965588987L133.17111111111112,124.49113211408257L133.40444444444444,163.41127066221088L133.71555555555557,170.53790910216048L133.79333333333332,166.3990880297497L133.88666666666668,135.2571461610496L133.96444444444444,153.82921059429646L134.26,157.50691863521934L134.30666666666667,144.9781805165112L134.35333333333332,159.37171911634505L134.54,158.58068669959903L135.19333333333333,167.51522679626942L135.48888888888888,156.44955750368536L135.95555555555555,125.63902397453785L136.04888888888888,150.47307876683772L136.4688888888889,163.4777522860095L136.57777777777778,163.87779264058918L136.62444444444444,161.4123604428023L137.54222222222222,152.1194080710411L137.62,126.20406008139253L138.05555555555557,167.1228591101244L138.11777777777777,143.82766104117036L138.13333333333333,136.65324707329273L138.19555555555556,143.72400377690792L138.22666666666666,167.94734251499176L138.32,144.64565370976925L138.53777777777776,160.56343642808497L138.95777777777778,160.8441543839872L139.1911111111111,161.73613567650318L139.23777777777778,153.0907650925219L139.51777777777778,135.1383166462183L139.54888888888888,150.12284605577588L139.65777777777777,148.8867197446525L139.76666666666665,158.77970297634602L139.82888888888888,150.60053622163832L140.26444444444445,137.43442016467452L140.5288888888889,154.41137565113604L141.0888888888889,162.77703877352178L141.2288888888889,159.3518075980246L141.33777777777777,156.69658132642508L141.58666666666667,166.3798424815759L141.7111111111111,134.1608241274953L141.7888888888889,145.68838822469115L141.89777777777778,154.67382888123393L141.9288888888889,159.94007683172822L142.00666666666666,156.87956981174648L142.0377777777778,156.32234072126448L142.16222222222223,136.03590593487024L142.48888888888888,134.79399029910564L142.50444444444443,156.29415897466242L142.64444444444445,154.75895602069795L142.70666666666668,163.5729365637526L142.73777777777778,163.25831512268633L143.4377777777778,147.97716936841607L143.5,154.0095714647323L143.7177777777778,125.45321830362082L144.07555555555555,158.75403180532157L144.38666666666668,153.7493106611073L144.52666666666667,163.18305719923228L144.61999999999998,149.62117931619287L145.10222222222222,135.88655718415976L145.32,156.94447552599013L145.58444444444444,154.7950370963663L145.66222222222223,136.21119455248117L145.7711111111111,162.09439299814403L146.16,144.03117756173015L146.29999999999998,150.70203237980604L146.39333333333335,164.9022912774235L146.4711111111111,157.5203666165471L146.56444444444446,161.48809806257486L146.59555555555556,140.71187025681138L147.28,149.90371550247073L147.43555555555557,166.6643172344193L147.51333333333335,163.41296938061714L147.56,159.0099407248199L147.68444444444447,152.31893206760287L148.19777777777776,160.94704017788172L148.44666666666666,167.9023499675095L148.52444444444447,160.5143442079425L148.54,161.721474442631L148.72666666666666,163.94772280286998L148.92888888888888,149.03521789982915L149.17777777777778,141.4387898594141L149.24,154.9937335755676L149.50444444444443,164.00898711103946L149.97111111111113,144.27618534117937L150.1888888888889,146.19290347024798L150.99777777777777,153.29992257803679L151.48000000000002,151.00633128359914L151.7133333333333,139.49715719372034L151.9933333333333,142.84331430494785L152.02444444444444,166.62819412350655L152.60000000000002,152.68258968181908L152.7711111111111,149.0802302286029L153.03555555555556,161.0822931099683L153.6888888888889,171.07322217011824L153.81333333333333,133.1628414876759L153.95333333333332,152.94217956997454L153.98444444444445,167.26745210867375L154.65333333333334,152.05302865058184L155.12,165.63080080132931L155.24444444444444,157.29408018104732L155.7111111111111,145.04168505594134L155.96,140.59518041834235L155.97555555555556,152.38640605285764L155.9911111111111,150.4736326429993L156.05333333333334,163.15287506952882L156.5822222222222,160.78579627722502L156.9088888888889,126.6561417169869L157.00222222222223,168.28017098642886L157.28222222222223,151.4911971129477L157.57777777777778,155.0029796808958L157.73333333333335,148.10405975952744L157.90444444444447,165.39046470355242L158.1688888888889,155.44508660025895L158.51111111111112,160.52780702523887L158.7133333333333,161.23007419332862L158.91555555555556,137.1227692142129L159.02444444444444,171.0999240288511L159.11777777777777,149.76321393437684L159.61555555555555,163.4755170000717L160.14444444444445,164.41364310029894L160.16,157.72252482175827L160.19111111111113,151.45218181237578L160.39333333333332,127.63354192301631L160.72,171.71285517560318L161.14000000000001,135.09297133237123L162.2911111111111,155.22646871209145L162.33777777777777,161.72526750527322L162.6488888888889,168.3427425082773L162.69555555555556,172.7440180471167L163.76888888888888,158.7096079699695L164.01777777777775,148.70695396140218L164.07999999999998,166.51154796872288L164.43777777777777,145.72574849054217L164.65555555555557,167.68797681480646L164.82666666666665,134.16801792383194L165.04444444444445,158.45035601221025L165.18444444444447,167.99739824887365L165.34,153.80791438557208L165.4488888888889,162.52708896808326L166.2888888888889,151.9144326802343L166.38222222222223,146.46639301255345L166.52222222222224,155.7132203578949L166.5688888888889,164.79130339622498L167.47111111111113,153.36013188399374L167.48666666666665,151.6347895078361L167.67333333333335,152.84924541413784L167.6888888888889,157.73409193195403L167.87555555555554,130.86866334825754L167.89111111111112,161.19614927843213L168.93333333333334,162.44767862185836L169.54000000000002,157.47302504070103L169.7577777777778,157.89183289557695L169.88222222222223,154.297565639019L169.89777777777778,168.34825571905822L170.10000000000002,146.4460017979145L170.28666666666666,170.2311210525222L170.44222222222223,145.77927666530013L171.14222222222222,166.9680391838774L171.35999999999999,160.1013487558812L171.73333333333332,164.0064633479342L171.78,136.40391378477216L172.15333333333334,159.2544968314469L172.1688888888889,170.90084346290678L172.26222222222222,145.93595108762383L172.32444444444445,146.95904937386513L172.4488888888889,164.3369106464088L172.51111111111112,165.71423828881234L172.58888888888887,161.50002453289926L173.14888888888888,142.65401393920183L173.2888888888889,143.27643886953592L173.46,167.13897674158216L173.7711111111111,166.75167636293918L173.92666666666665,147.21377306431532L174.62666666666667,169.31693155132234L175.32666666666665,170.86239605024457L175.51333333333335,144.78481179848313L176.02666666666667,153.42420678399503L176.18222222222224,146.38503915444016L176.1977777777778,172.17372423782945L176.46222222222224,162.16775026917458L177.22444444444443,156.20822080224752L177.30222222222224,163.227513179183L177.47333333333333,170.16891424823552L177.89333333333332,155.73690680600703L177.95555555555555,163.27436187118292L178.1111111111111,163.74345129635185L178.85777777777778,160.43230459839106L179.1688888888889,166.6724761929363L179.26222222222222,149.95376216992736L179.61999999999998,150.80422912538052L179.7288888888889,164.38128750119358L179.9622222222222,163.4738586684689L180.39777777777778,154.68694222904742L181.16,169.78395877685398L181.23777777777775,160.14002118073404L181.28444444444446,148.3639496639371L181.29999999999998,161.25045716576278L181.39333333333335,160.2879852410406L181.62666666666667,168.79570111446083L181.68888888888887,160.19900239817798L181.70444444444445,167.43148105032742L181.72,149.20061257481575L181.82888888888888,149.67985227517784L181.84444444444446,149.27196369320154L182.17111111111112,158.75788750872016L182.24888888888887,162.3285012859851L182.48222222222222,171.2253938759677L182.63777777777776,155.1782814860344L182.88666666666666,159.17848557047546L183.46222222222224,161.27380073815584L183.61777777777777,163.69355463702232L183.94444444444446,139.91498752310872L184.76888888888888,159.65367834828794L185.31333333333336,152.24150644429028L185.39111111111112,164.10475823376328L185.56222222222223,161.9753722641617L185.78,167.6425968836993L185.90444444444444,158.1067203618586L185.95111111111112,133.78670056164265L186.6822222222222,163.2018832191825L186.7133333333333,155.347324160859L186.80666666666667,163.42730257473886L186.88444444444443,123.900864969939L187.10222222222222,137.3316266834736L187.50666666666666,154.0867811422795L187.69333333333333,162.77503426931798L188.01999999999998,166.6564838429913L188.57999999999998,154.823654031381L188.61111111111111,155.5570717882365L188.64222222222222,153.17154529318213L188.76666666666668,160.83079706691206L188.9377777777778,166.6442466415465L188.95333333333332,172.30158226378262L189.18666666666667,159.96237034723163L189.56,154.67064903862774L189.7,146.09994458779693L189.99555555555557,144.95864978805184L190.0577777777778,162.01607721671462L190.2288888888889,172.09561245096847L190.54,164.9518780298531L190.58666666666667,163.14260693080723L190.66444444444446,163.59724035300314L191.0066666666667,170.95858793752268L191.44222222222223,168.57097245566547L191.95555555555558,167.89151641353965L192.2511111111111,149.5004821177572L192.39111111111112,159.21928778104484L192.45333333333335,163.06060688383877L192.51555555555555,161.26041869446635L192.99777777777777,169.18094094190747L193.26222222222222,170.08007729239762L193.34,145.82369555532932L193.40222222222224,150.53908069431782L194.04,167.72955708950758L194.2577777777778,171.77992488071322L194.44444444444443,170.81542166462168L194.69333333333333,159.98460287041962L194.72444444444443,168.97004847228527L194.97333333333333,164.1738773630932L195.31555555555556,152.31961122527719L195.81333333333333,154.84920321777463L196.0311111111111,164.44518601801246L196.29555555555555,160.12275705859065L196.3111111111111,147.92357855290174L196.4511111111111,161.2047590855509L196.65333333333334,151.9330518208444L196.98000000000002,159.03356618061662L196.99555555555557,149.15022962540388L197.07333333333332,163.905157584697L197.4466666666667,159.23348250612617L197.49333333333334,165.84477832820266L198.67555555555558,151.78350525721908L198.86222222222221,139.8086301125586L199.20444444444445,157.53282223641872L199.29777777777775,167.6537782587111L199.40666666666664,154.13733388110995L199.42222222222222,158.388391116634L199.85777777777776,148.00513022392988L199.92,158.73211578279734L200.49555555555557,167.78465128317475L200.68222222222224,170.61683933995664L200.77555555555557,155.6556930653751L201.2111111111111,158.49669863283634L201.58444444444447,158.17420258931816L201.7711111111111,170.5516418516636L201.83333333333334,165.20153935812414L201.91111111111113,165.64888502284884L201.98888888888888,160.02205874584615L202.14444444444445,151.0441663004458L202.26888888888888,164.91918944567442L202.36222222222224,173.95738474605605L202.47111111111113,160.42306178994477L202.56444444444443,164.9635316831991L202.70444444444442,172.40360468672588L203.10888888888888,165.53384857065976L203.54444444444442,172.402121914085L203.57555555555555,168.1722220061347L204.07333333333332,150.1700013577938L204.30666666666667,148.9741134904325L204.32222222222222,163.10400374047458L204.68,145.5701092891395L204.7733333333333,170.22732304455712L204.80444444444444,164.98156974837184L204.8511111111111,146.28623490035534L204.9288888888889,164.9322566371411L205.0222222222222,160.5708692483604L205.10000000000002,165.38085594121367L205.16222222222223,168.87783056404442L205.19333333333333,160.82705016061664L205.28666666666666,163.4575086068362L205.33333333333331,143.4857117459178L205.6288888888889,167.10043207090348L205.75333333333333,171.87948082387447L205.7688888888889,150.28043701127172L205.89333333333332,169.57649176754057L206.35999999999999,171.51169304084033L206.42222222222222,164.89958124049008L206.93555555555557,155.55774270370603L207.0911111111111,171.03611205518246L207.1222222222222,156.73516473546624L207.24666666666667,164.366353450343L207.34,159.02193148434162L207.52666666666667,161.56167127937078L207.83777777777777,165.3610260207206L208.04,153.31439094431698L208.05555555555557,162.5203715711832L208.2111111111111,160.2052796613425L208.3511111111111,162.79568923451006L208.36666666666667,166.53522205352783L208.5688888888889,148.85106066986918L208.61555555555557,139.30178067460656L209.03555555555556,168.15206981543452L209.3311111111111,165.466546847485L209.44,163.4152706041932L209.82888888888888,170.8717662007548L209.86,168.94575374945998L210.18666666666667,173.27666105283424L211.33777777777777,169.82190588768572L211.38444444444443,156.39338852651417L211.46222222222224,162.97899257205427L211.4933333333333,159.79522502794862L212.11555555555555,157.03709812648594L212.14666666666668,168.51837235316634L212.19333333333333,158.51566724292934L212.20888888888888,133.62004647776484L212.41111111111113,157.8570854086429L213.23555555555555,167.63133555930108L213.51555555555555,164.7897785883397L213.59333333333333,160.19747429341078L213.65555555555557,165.2611807761714L213.7488888888889,166.3201722158119L213.8422222222222,170.23774036718532L214.21555555555557,171.63741056621075L214.2311111111111,164.7125178091228L214.3088888888889,157.51959349773824L214.99333333333334,143.69101847335696L215.1488888888889,161.3447348009795L215.39777777777778,145.24626317247748L215.47555555555556,162.52501193247736L215.4911111111111,161.14508717134595L215.5377777777778,168.33003055583686L215.56888888888886,161.62936285883188L215.58444444444444,164.20419136807323L215.86444444444444,160.29264043830335L216.16,158.7541917040944L216.26888888888888,167.22442615125328L216.73555555555558,172.93672821298242L216.79777777777775,158.80874685756862L217.09333333333333,165.20738555397838L217.34222222222223,163.0330136306584L217.43555555555557,167.59371071867645L217.51333333333335,149.12824931368232L217.8711111111111,170.55016361223534L218.07333333333335,140.64496663212776L218.19777777777776,167.4516249988228L218.55555555555554,167.86069716140628L218.58666666666664,171.2522115376778L219.1,165.64046066533774L219.13111111111112,158.66873487643898L219.69111111111113,165.4603684907779L220.06444444444443,163.48227972909808L220.1888888888889,158.36901369318366L220.98222222222225,139.24045537412167L221.04444444444442,168.92604828625917L221.10666666666665,168.4301205938682L221.24666666666667,165.25812126975507L221.27777777777777,155.87686933390796L221.32444444444442,167.56633341126144L221.35555555555555,164.34628038480878L221.48000000000002,119.22565233707428L221.8688888888889,163.99508003890514L222.16444444444443,173.69410935603082L222.3511111111111,167.46795775182545L222.36666666666667,171.6118255262263L222.47555555555556,169.44400409515947L222.58444444444444,171.26611366448924L222.60000000000002,155.63211871124804L223.1911111111111,165.40202274732292L223.34666666666666,163.2848640885204L223.39333333333332,172.11139792157337L223.50222222222223,165.3265142608434L223.5488888888889,170.7326068757102L223.61111111111111,164.43556406814605L223.64222222222222,169.6414518803358L223.70444444444445,155.7392690218985L223.9377777777778,158.23762800358236L224.0622222222222,159.13343038223684L224.28,169.48852766118944L224.3422222222222,165.6636319756508L224.54444444444445,171.83831513207406L224.71555555555557,162.99493629299104L225.02666666666667,168.77065635100007L225.36888888888888,141.3183514662087L225.38444444444445,162.649856608361L225.4622222222222,163.08893699012697L225.5711111111111,161.44378467276692L225.7422222222222,151.16894174180925L225.82,151.14929232560098L226.22444444444446,161.41799646243453L226.66,174.8159348317422L227.04888888888888,166.82126200105995L227.12666666666667,168.8747941358015L227.43777777777777,173.4102544169873L227.85777777777778,159.373141720891L228.38666666666666,167.53105677478015L228.85333333333335,172.52339441841468L229.13333333333333,167.32762514892966L229.38222222222223,162.40749952197075L229.5688888888889,153.11734290607274L229.58444444444444,149.29186037555337L229.72444444444443,164.80016294214875L229.74,159.97905256971717L229.89555555555555,171.60955603513867L229.91111111111113,159.1631550695747L230.0977777777778,167.4585443297401L230.26888888888888,163.03516154922545L231.28,147.62226003035903L231.37333333333333,161.38220221549273L231.54444444444445,165.71699613053352L231.65333333333334,170.42599520925432L231.6688888888889,142.04400176927447L233.08444444444444,166.1264935908839L233.11555555555557,159.38555118441582L233.17777777777778,161.58944091573358L233.19333333333333,161.14231779053807L233.34888888888887,158.26715158112347L233.39555555555557,158.7888650111854L233.4111111111111,169.7307734778151L233.50444444444446,169.94642417225987L233.66,151.8029024619609L234.23555555555558,168.00975990761071L234.26666666666668,150.39852802455425L234.37555555555556,165.3912147441879L235.02888888888887,165.0057507287711L235.10666666666665,167.3104714723304L235.29333333333335,160.47545913420618L235.3711111111111,167.23928684648126L235.52666666666664,171.4012969499454L235.69777777777776,140.09269934892654L236.30444444444447,174.3840315558482L236.47555555555553,164.10086296778172L236.4911111111111,162.35624125041068L236.64666666666665,172.535679012537L236.83333333333334,157.93773867934942L236.92666666666665,173.39637124724686L236.97333333333336,143.1728574335575L237.02,169.6638921070844L237.19111111111113,156.1097346972674L237.62666666666667,141.15525471791625L237.76666666666665,168.410851967521L238.65333333333334,141.87250786274672L238.9022222222222,162.94867939129472L239.05777777777777,158.86154971830547L239.4,168.94665050134063L239.41555555555556,158.66725787334144L239.55555555555554,165.6437723832205L240.11555555555555,167.78170304652303L240.33333333333331,164.4518465436995L240.38000000000002,154.16252370737493L240.42666666666668,164.54452683962882L240.6911111111111,171.39715606626123L240.94,167.39251355454326L241.14222222222222,166.52592484652996L241.1888888888889,169.94459193013608L241.85777777777778,168.78586981259286L242.06,157.74891141615808L242.0911111111111,162.45112386345863L242.13777777777779,167.3479125117883L242.2777777777778,174.3248368653003L242.51111111111112,164.04788125120103L242.66666666666669,171.0352561022155L242.88444444444445,164.6725497096777L243.0711111111111,123.88066497445107L243.2888888888889,163.57335609197617L243.74,172.94762770459056L243.7711111111111,169.6856094924733L243.8022222222222,150.663790198043L244.02,163.1270456481725L244.26888888888888,167.63281915616244L245.14,165.00709668081254L245.18666666666667,160.80918270908296L245.71555555555554,169.0725584216416L245.90222222222224,162.5122117884457L246.26,160.82935468107462L246.33777777777777,170.04622408468276L246.74222222222224,144.7275581471622L247.41111111111113,155.08242794126272L247.94,162.4313194938004L248.1111111111111,165.852944704704L248.14222222222222,162.3806925751269L248.65555555555557,157.45015457086265L248.73333333333332,163.67037920560688L248.79555555555555,167.34234407823533L248.85777777777778,156.12863242439926" style="fill: none;" fill="none"></path></g></g></g></g></g></g><g transform="translate(50, 177)" clip-path="url(#clip_1)"><clipPath id="clip_1"><rect width="280" height="23"></rect></clipPath><g><g><line x1="0" y1="0" x2="0" y2="5" style="visibility: inherit;" fill="rgb(0, 0, 0)" stroke="rgb(204, 204, 204)" stroke-width="1px"></line><line x1="31.11111111111111" y1="0" x2="31.11111111111111" y2="5" style="visibility: inherit;" fill="rgb(0, 0, 0)" stroke="rgb(204, 204, 204)" stroke-width="1px"></line><line x1="62.22222222222222" y1="0" x2="62.22222222222222" y2="5" style="visibility: inherit;" fill="rgb(0, 0, 0)" stroke="rgb(204, 204, 204)" stroke-width="1px"></line><line x1="93.33333333333333" y1="0" x2="93.33333333333333" y2="5" style="visibility: inherit;" fill="rgb(0, 0, 0)" stroke="rgb(204, 204, 204)" stroke-width="1px"></line><line x1="124.44444444444444" y1="0" x2="124.44444444444444" y2="5" style="visibility: inherit;" fill="rgb(0, 0, 0)" stroke="rgb(204, 204, 204)" stroke-width="1px"></line><line x1="155.55555555555557" y1="0" x2="155.55555555555557" y2="5" style="visibility: inherit;" fill="rgb(0, 0, 0)" stroke="rgb(204, 204, 204)" stroke-width="1px"></line><line x1="186.66666666666666" y1="0" x2="186.66666666666666" y2="5" style="visibility: inherit;" fill="rgb(0, 0, 0)" stroke="rgb(204, 204, 204)" stroke-width="1px"></line><line x1="217.77777777777777" y1="0" x2="217.77777777777777" y2="5" style="visibility: inherit;" fill="rgb(0, 0, 0)" stroke="rgb(204, 204, 204)" stroke-width="1px"></line><line x1="248.88888888888889" y1="0" x2="248.88888888888889" y2="5" style="visibility: inherit;" fill="rgb(0, 0, 0)" stroke="rgb(204, 204, 204)" stroke-width="1px"></line><line x1="280" y1="0" x2="280" y2="5" style="visibility: inherit;" fill="rgb(0, 0, 0)" stroke="rgb(204, 204, 204)" stroke-width="1px"></line></g><g transform="translate(0, 8)"><text x="0" y="0" dx="0em" dy="0.95em" style="text-anchor: middle; visibility: hidden; font-family: Roboto, sans-serif; font-size: 12px; font-weight: 200;" fill="rgb(33, 33, 33)" stroke="none" stroke-width="1px">-2k</text><text x="31.11111111111111" y="0" dx="0em" dy="0.95em" style="text-anchor: middle; visibility: inherit; font-family: Roboto, sans-serif; font-size: 12px; font-weight: 200;" fill="rgb(33, 33, 33)" stroke="none" stroke-width="1px">0</text><text x="62.22222222222222" y="0" dx="0em" dy="0.95em" style="text-anchor: middle; visibility: inherit; font-family: Roboto, sans-serif; font-size: 12px; font-weight: 200;" fill="rgb(33, 33, 33)" stroke="none" stroke-width="1px">2k</text><text x="93.33333333333333" y="0" dx="0em" dy="0.95em" style="text-anchor: middle; visibility: inherit; font-family: Roboto, sans-serif; font-size: 12px; font-weight: 200;" fill="rgb(33, 33, 33)" stroke="none" stroke-width="1px">4k</text><text x="124.44444444444444" y="0" dx="0em" dy="0.95em" style="text-anchor: middle; visibility: inherit; font-family: Roboto, sans-serif; font-size: 12px; font-weight: 200;" fill="rgb(33, 33, 33)" stroke="none" stroke-width="1px">6k</text><text x="155.55555555555557" y="0" dx="0em" dy="0.95em" style="text-anchor: middle; visibility: inherit; font-family: Roboto, sans-serif; font-size: 12px; font-weight: 200;" fill="rgb(33, 33, 33)" stroke="none" stroke-width="1px">8k</text><text x="186.66666666666666" y="0" dx="0em" dy="0.95em" style="text-anchor: middle; visibility: inherit; font-family: Roboto, sans-serif; font-size: 12px; font-weight: 200;" fill="rgb(33, 33, 33)" stroke="none" stroke-width="1px">10k</text><text x="217.77777777777777" y="0" dx="0em" dy="0.95em" style="text-anchor: middle; visibility: inherit; font-family: Roboto, sans-serif; font-size: 12px; font-weight: 200;" fill="rgb(33, 33, 33)" stroke="none" stroke-width="1px">12k</text><text x="248.88888888888889" y="0" dx="0em" dy="0.95em" style="text-anchor: middle; visibility: inherit; font-family: Roboto, sans-serif; font-size: 12px; font-weight: 200;" fill="rgb(33, 33, 33)" stroke="none" stroke-width="1px">14k</text><text x="280" y="0" dx="0em" dy="0.95em" style="text-anchor: middle; visibility: hidden; font-family: Roboto, sans-serif; font-size: 12px; font-weight: 200;" fill="rgb(33, 33, 33)" stroke="none" stroke-width="1px">16k</text></g><line x1="0" y1="0" x2="280" y2="0" fill="rgb(0, 0, 0)" stroke="rgb(204, 204, 204)" stroke-width="1px"></line></g></g></g></g></svg>