<svg viewBox="0 0 330 200" xmlns="http://www.w3.org/2000/svg"><g><g><g><g><g><line x1="61.953125" y1="177" x2="56.953125" y2="177" style="visibility: inherit;" fill="rgb(0, 0, 0)" stroke="rgb(204, 204, 204)" stroke-width="1px"></line><line x1="61.953125" y1="164.35714285714286" x2="56.953125" y2="164.35714285714286" style="visibility: inherit;" fill="rgb(0, 0, 0)" stroke="rgb(204, 204, 204)" stroke-width="1px"></line><line x1="61.953125" y1="151.7142857142857" x2="56.953125" y2="151.7142857142857" style="visibility: inherit;" fill="rgb(0, 0, 0)" stroke="rgb(204, 204, 204)" stroke-width="1px"></line><line x1="61.953125" y1="139.07142857142858" x2="56.953125" y2="139.07142857142858" style="visibility: inherit;" fill="rgb(0, 0, 0)" stroke="rgb(204, 204, 204)" stroke-width="1px"></line><line x1="61.953125" y1="126.42857142857142" x2="56.953125" y2="126.42857142857142" style="visibility: inherit;" fill="rgb(0, 0, 0)" stroke="rgb(204, 204, 204)" stroke-width="1px"></line><line x1="61.953125" y1="113.78571428571428" x2="56.953125" y2="113.78571428571428" style="visibility: inherit;" fill="rgb(0, 0, 0)" stroke="rgb(204, 204, 204)" stroke-width="1px"></line><line x1="61.953125" y1="101.14285714285715" x2="56.953125" y2="101.14285714285715" style="visibility: inherit;" fill="rgb(0, 0, 0)" stroke="rgb(204, 204, 204)" stroke-width="1px"></line><line x1="61.953125" y1="88.5" x2="56.953125" y2="88.5" style="visibility: inherit;" fill="rgb(0, 0, 0)" stroke="rgb(204, 204, 204)" stroke-width="1px"></line><line x1="61.953125" y1="75.85714285714286" x2="56.953125" y2="75.85714285714286" style="visibility: inherit;" fill="rgb(0, 0, 0)" stroke="rgb(204, 204, 204)" stroke-width="1px"></line><line x1="61.953125" y1="63.21428571428572" x2="56.953125" y2="63.21428571428572" style="visibility: inherit;" fill="rgb(0, 0, 0)" stroke="rgb(204, 204, 204)" stroke-width="1px"></line><line x1="61.953125" y1="50.57142857142857" x2="56.953125" y2="50.57142857142857" style="visibility: inherit;" fill="rgb(0, 0, 0)" stroke="rgb(204, 204, 204)" stroke-width="1px"></line><line x1="61.953125" y1="37.92857142857143" x2="56.953125" y2="37.92857142857143" style="visibility: inherit;" fill="rgb(0, 0, 0)" stroke="rgb(204, 204, 204)" stroke-width="1px"></line><line x1="61.953125" y1="25.285714285714313" x2="56.953125" y2="25.285714285714313" style="visibility: inherit;" fill="rgb(0, 0, 0)" stroke="rgb(204, 204, 204)" stroke-width="1px"></line><line x1="61.953125" y1="12.642857142857157" x2="56.953125" y2="12.642857142857157" style="visibility: inherit;" fill="rgb(0, 0, 0)" stroke="rgb(204, 204, 204)" stroke-width="1px"></line><line x1="61.953125" y1="0" x2="56.953125" y2="0" style="visibility: inherit;" fill="rgb(0, 0, 0)" stroke="rgb(204, 204, 204)" stroke-width="1px"></line></g><g transform="translate(51.953125, 0)"><text x="0" y="177" dx="0em" dy="0.3em" style="text-anchor: end; visibility: hidden; font-family: Roboto, sans-serif; font-size: 12px; font-weight: 200;" fill="rgb(33, 33, 33)" stroke="none" stroke-width="1px">0.015</text><text x="0" y="164.35714285714286" dx="0em" dy="0.3em" style="text-anchor: end; visibility: inherit; font-family: Roboto, sans-serif; font-size: 12px; font-weight: 200;" fill="rgb(33, 33, 33)" stroke="none" stroke-width="1px">0.02</text><text x="0" y="151.7142857142857" dx="0em" dy="0.3em" style="text-anchor: end; visibility: hidden; font-family: Roboto, sans-serif; font-size: 12px; font-weight: 200;" fill="rgb(33, 33, 33)" stroke="none" stroke-width="1px">0.025</text><text x="0" y="139.07142857142858" dx="0em" dy="0.3em" style="text-anchor: end; visibility: inherit; font-family: Roboto, sans-serif; font-size: 12px; font-weight: 200;" fill="rgb(33, 33, 33)" stroke="none" stroke-width="1px">0.03</text><text x="0" y="126.42857142857142" dx="0em" dy="0.3em" style="text-anchor: end; visibility: hidden; font-family: Roboto, sans-serif; font-size: 12px; font-weight: 200;" fill="rgb(33, 33, 33)" stroke="none" stroke-width="1px">0.035</text><text x="0" y="113.78571428571428" dx="0em" dy="0.3em" style="text-anchor: end; visibility: inherit; font-family: Roboto, sans-serif; font-size: 12px; font-weight: 200;" fill="rgb(33, 33, 33)" stroke="none" stroke-width="1px">0.04</text><text x="0" y="101.14285714285715" dx="0em" dy="0.3em" style="text-anchor: end; visibility: hidden; font-family: Roboto, sans-serif; font-size: 12px; font-weight: 200;" fill="rgb(33, 33, 33)" stroke="none" stroke-width="1px">0.045</text><text x="0" y="88.5" dx="0em" dy="0.3em" style="text-anchor: end; visibility: inherit; font-family: Roboto, sans-serif; font-size: 12px; font-weight: 200;" fill="rgb(33, 33, 33)" stroke="none" stroke-width="1px">0.05</text><text x="0" y="75.85714285714286" dx="0em" dy="0.3em" style="text-anchor: end; visibility: hidden; font-family: Roboto, sans-serif; font-size: 12px; font-weight: 200;" fill="rgb(33, 33, 33)" stroke="none" stroke-width="1px">0.055</text><text x="0" y="63.21428571428572" dx="0em" dy="0.3em" style="text-anchor: end; visibility: inherit; font-family: Roboto, sans-serif; font-size: 12px; font-weight: 200;" fill="rgb(33, 33, 33)" stroke="none" stroke-width="1px">0.06</text><text x="0" y="50.57142857142857" dx="0em" dy="0.3em" style="text-anchor: end; visibility: hidden; font-family: Roboto, sans-serif; font-size: 12px; font-weight: 200;" fill="rgb(33, 33, 33)" stroke="none" stroke-width="1px">0.065</text><text x="0" y="37.92857142857143" dx="0em" dy="0.3em" style="text-anchor: end; visibility: inherit; font-family: Roboto, sans-serif; font-size: 12px; font-weight: 200;" fill="rgb(33, 33, 33)" stroke="none" stroke-width="1px">0.07</text><text x="0" y="25.285714285714313" dx="0em" dy="0.3em" style="text-anchor: end; visibility: hidden; font-family: Roboto, sans-serif; font-size: 12px; font-weight: 200;" fill="rgb(33, 33, 33)" stroke="none" stroke-width="1px">0.075</text><text x="0" y="12.642857142857157" dx="0em" dy="0.3em" style="text-anchor: end; visibility: inherit; font-family: Roboto, sans-serif; font-size: 12px; font-weight: 200;" fill="rgb(33, 33, 33)" stroke="none" stroke-width="1px">0.08</text><text x="0" y="0" dx="0em" dy="0.3em" style="text-anchor: end; visibility: hidden; font-family: Roboto, sans-serif; font-size: 12px; font-weight: 200;" fill="rgb(33, 33, 33)" stroke="none" stroke-width="1px">0.085</text></g><line x1="61.953125" y1="0" x2="61.953125" y2="177" fill="rgb(0, 0, 0)" stroke="rgb(204, 204, 204)" stroke-width="1px"></line></g></g><g transform="translate(61, 0)" clip-path="url(#clip_0)"><clipPath id="clip_0"><rect width="268" height="177"></rect></clipPath><g><g><g><line x1="0" y1="0" x2="0" y2="177" fill="rgb(0, 0, 0)" stroke="rgb(66, 66, 66)" stroke-width="1px" opacity="0.25"></line><line x1="29.78298611111111" y1="0" x2="29.78298611111111" y2="177" fill="rgb(0, 0, 0)" stroke="rgb(66, 66, 66)" stroke-width="1px" opacity="0.25"></line><line x1="59.56597222222222" y1="0" x2="59.56597222222222" y2="177" fill="rgb(0, 0, 0)" stroke="rgb(66, 66, 66)" stroke-width="1px" opacity="0.25"></line><line x1="89.34895833333333" y1="0" x2="89.34895833333333" y2="177" fill="rgb(0, 0, 0)" stroke="rgb(66, 66, 66)" stroke-width="1px" opacity="0.25"></line><line x1="119.13194444444444" y1="0" x2="119.13194444444444" y2="177" fill="rgb(0, 0, 0)" stroke="rgb(66, 66, 66)" stroke-width="1px" opacity="0.25"></line><line x1="148.91493055555557" y1="0" x2="148.91493055555557" y2="177" fill="rgb(0, 0, 0)" stroke="rgb(66, 66, 66)" stroke-width="1px" opacity="0.25"></line><line x1="178.69791666666666" y1="0" x2="178.69791666666666" y2="177" fill="rgb(0, 0, 0)" stroke="rgb(66, 66, 66)" stroke-width="1px" opacity="0.25"></line><line x1="208.48090277777777" y1="0" x2="208.48090277777777" y2="177" fill="rgb(0, 0, 0)" stroke="rgb(66, 66, 66)" stroke-width="1px" opacity="0.25"></line><line x1="238.26388888888889" y1="0" x2="238.26388888888889" y2="177" fill="rgb(0, 0, 0)" stroke="rgb(66, 66, 66)" stroke-width="1px" opacity="0.25"></line><line x1="268.046875" y1="0" x2="268.046875" y2="177" fill="rgb(0, 0, 0)" stroke="rgb(66, 66, 66)" stroke-width="1px" opacity="0.25"></line></g><g><line x1="0" y1="177" x2="268.046875" y2="177" fill="rgb(0, 0, 0)" stroke="rgb(66, 66, 66)" stroke-width="1px" opacity="0.25"></line><line x1="0" y1="164.35714285714286" x2="268.046875" y2="164.35714285714286" fill="rgb(0, 0, 0)" stroke="rgb(66, 66, 66)" stroke-width="1px" opacity="0.25"></line><line x1="0" y1="151.7142857142857" x2="268.046875" y2="151.7142857142857" fill="rgb(0, 0, 0)" stroke="rgb(66, 66, 66)" stroke-width="1px" opacity="0.25"></line><line x1="0" y1="139.07142857142858" x2="268.046875" y2="139.07142857142858" fill="rgb(0, 0, 0)" stroke="rgb(66, 66, 66)" stroke-width="1px" opacity="0.25"></line><line x1="0" y1="126.42857142857142" x2="268.046875" y2="126.42857142857142" fill="rgb(0, 0, 0)" stroke="rgb(66, 66, 66)" stroke-width="1px" opacity="0.25"></line><line x1="0" y1="113.78571428571428" x2="268.046875" y2="113.78571428571428" fill="rgb(0, 0, 0)" stroke="rgb(66, 66, 66)" stroke-width="1px" opacity="0.25"></line><line x1="0" y1="101.14285714285715" x2="268.046875" y2="101.14285714285715" fill="rgb(0, 0, 0)" stroke="rgb(66, 66, 66)" stroke-width="1px" opacity="0.25"></line><line x1="0" y1="88.5" x2="268.046875" y2="88.5" fill="rgb(0, 0, 0)" stroke="rgb(66, 66, 66)" stroke-width="1px" opacity="0.25"></line><line x1="0" y1="75.85714285714286" x2="268.046875" y2="75.85714285714286" fill="rgb(0, 0, 0)" stroke="rgb(66, 66, 66)" stroke-width="1px" opacity="0.25"></line><line x1="0" y1="63.21428571428572" x2="268.046875" y2="63.21428571428572" fill="rgb(0, 0, 0)" stroke="rgb(66, 66, 66)" stroke-width="1px" opacity="0.25"></line><line x1="0" y1="50.57142857142857" x2="268.046875" y2="50.57142857142857" fill="rgb(0, 0, 0)" stroke="rgb(66, 66, 66)" stroke-width="1px" opacity="0.25"></line><line x1="0" y1="37.92857142857143" x2="268.046875" y2="37.92857142857143" fill="rgb(0, 0, 0)" stroke="rgb(66, 66, 66)" stroke-width="1px" opacity="0.25"></line><line x1="0" y1="25.285714285714313" x2="268.046875" y2="25.285714285714313" fill="rgb(0, 0, 0)" stroke="rgb(66, 66, 66)" stroke-width="1px" opacity="0.25"></line><line x1="0" y1="12.642857142857157" x2="268.046875" y2="12.642857142857157" fill="rgb(0, 0, 0)" stroke="rgb(66, 66, 66)" stroke-width="1px" opacity="0.25"></line><line x1="0" y1="0" x2="268.046875" y2="0" fill="rgb(0, 0, 0)" stroke="rgb(66, 66, 66)" stroke-width="1px" opacity="0.25"></line></g></g></g><g><g><line x1="0" y1="214.92857142857142" x2="268.046875" y2="214.92857142857142" fill="rgb(0, 0, 0)" stroke="rgb(153, 153, 153)" stroke-width="1.5px"></line></g></g><g><g><line x1="29.78298611111111" y1="0" x2="29.78298611111111" y2="177" fill="rgb(0, 0, 0)" stroke="rgb(153, 153, 153)" stroke-width="1.5px"></line></g></g><g><g><g><g><g><path stroke="rgb(255, 112, 67)" stroke-width="2px" d="M37.839283854166666,-40.87401678499204L38.00309027777778,13.929865917168916L38.43494357638889,62.77142118309025L38.7327734375,-11.196207255477429L38.77744791666667,40.26731073161256L39.015711805555554,68.21420712775735L39.37310763888889,10.397121046938139L39.61137152777778,34.95608755986043L39.76028645833333,-33.71631417423386L40.28148871527778,0.8076103187185716L40.355946180555556,54.80217936242006L40.63888454861111,37.85312521113885L41.87487847222223,56.79360012646857L41.96422743055555,80.79551920396185L42.27694878472223,80.92602120443337L42.679019097222216,106.80254395457858L43.39381076388889,137.18800080789555L43.512942708333334,26.247939823978403L43.54272569444444,5.218522156332179L43.5576171875,-29.816742350775268L44.0937109375,46.32868063103248L44.30219184027778,41.33497325825449L44.346866319444445,55.836706566585086L44.40643229166666,95.5835660618905L44.42132378472222,89.14615712895167L45.285030381944445,50.69659459108855L45.55307725694445,92.2716937559873L45.64242621527778,85.23530503244235L46.16362847222222,111.43624091269061L46.31254340277778,123.13651304530283L46.327434895833335,130.32149969731933L46.372109374999994,100.70164240459557L46.68483072916666,115.3071995909041L47.34005642361111,128.98770517021572L47.38473090277778,138.33220068631096L47.60810329861111,97.89353931471504L47.72723524305555,106.40632606802123L47.83147569444444,88.0519659338714L47.86125868055555,123.97109407657598L48.29311197916667,133.86293424650557L48.33778645833333,153.50013768237972L48.45691840277778,162.6627488972332L48.739856770833335,144.93913573529977L48.87388020833333,136.15581473754696L49.037686631944446,118.80203026135304L49.171710069444444,136.977429582559L49.51421440972222,84.66816115695927L49.73758680555556,58.27222553000352L50.43748697916667,85.79761377210149L50.46726996527777,115.25830788411677L50.48216145833333,110.31473087752364L50.98847222222222,145.721082759024L51.01825520833333,150.033993251396L51.25651909722222,148.03227268976056L51.43521701388889,151.40571487482492L51.61391493055556,76.48346886954373L51.68837239583333,107.71408609999219L51.70326388888889,107.7435351398766L52.17979166666667,103.21016616233979L52.19468315972222,105.80086389546868L52.611644965277776,42.07742379695766L52.64142795138889,80.55905133837815L52.79034288194445,-9.942673784936748L53.05838975694444,61.72817471903419L53.23708767361111,106.34804365973217L53.31154513888889,142.99864073030335L53.683832465277774,152.79604027017973L53.98166232638889,151.36592955965244L54.145468750000006,163.33034212699883L54.23481770833333,179.315858011952L54.32416666666666,122.68784649530281L54.398624131944445,77.56145970269152L54.48797309027778,107.53575018193789L54.96450086805555,102.40134132421466L55.18787326388889,129.54642462144167L55.30700520833334,133.31441330047087L55.70907552083334,148.52706739342335L56.12603732638889,125.02808907734742L56.394084201388885,139.1739993855372L56.4238671875,160.01317613469791L56.66213107638889,131.3694840073846L56.72169704861111,123.10971027273655L56.94506944444444,143.81659964587945L57.004635416666666,155.90701157882097L57.13865885416667,149.70061173246583L57.7641015625,156.0736554281575L58.13638888888889,58.81082258664404L58.41932725694444,78.95379156495831L59.14901041666667,118.19889901248891L59.17879340277778,134.71756982605623L59.29792534722222,127.88273161445923L59.38727430555556,150.59002457862587L59.46173177083333,116.97404443761147L59.83401909722222,129.8971308702086L60.250980902777776,136.3138672738159L60.29565538194444,131.8328203942281L60.385004340277774,135.1879212715908L60.667942708333335,152.10954963531483L61.17425347222222,132.16151814253394L61.57632378472222,152.8239638365923L61.65078125,132.46136596461136L61.69545572916667,91.69476915480408L61.933719618055555,123.48404753342015L62.73786024305555,143.9196054615661L62.82720920138889,154.82821449762235L62.84210069444445,158.9438190918987L63.33351996527778,138.1753300967623L63.85472222222222,124.13516590594959L64.07809461805556,146.29692948626447L64.09298611111112,162.13800866613965L64.10787760416666,110.48287140682022L64.18233506944443,98.03865332644563L64.3014670138889,97.78215077748442L64.42059895833333,89.94984141299877L64.79288628472223,107.36743928463825L64.82266927083333,110.84258336109859L65.07582465277778,65.09312722170404L65.18006510416667,71.89968057580366L65.20984809027777,48.4138765375555L65.32898003472222,73.24687029962186L65.38854600694444,113.99527011412478L65.41832899305555,141.98161938546954L65.55235243055556,134.42001220525333L65.79061631944444,137.1035998434571L65.89485677083333,139.8585277914595L66.01398871527778,162.97040759463087L66.32671006944445,136.15037195646153L66.38627604166666,100.22682967981586L66.743671875,120.72976842557212L66.81812934027778,102.54702420596034L66.92236979166667,109.41339254289547L66.96704427083333,139.5088996545483L67.04150173611112,138.15155773241236L67.47335503472223,120.60808422748737L67.53292100694445,130.19791947185263L68.15836371527777,133.84530146858935L68.39662760416667,116.1985436401988L68.53065104166666,93.12281961147764L68.87315538194444,66.82191603723037L68.94761284722223,75.74573900563384L69.33479166666666,82.38528923208379L69.34968315972223,120.02224576162783L69.39435763888889,134.89111482016736L69.58794704861111,64.86130235057851L69.94534288194444,109.38024546332231L69.99001736111111,125.35628842872337L70.25806423611111,135.5464304757405L70.27295572916667,104.67866972689988L70.79415798611112,123.25379195786897L70.85372395833333,101.92510029149202L71.07709635416667,136.4108237379832L71.31536024305555,145.6266031144202L71.4047092013889,159.93468480682355L71.62808159722223,166.9423855816738L71.68764756944444,153.04104488771227L72.16417534722221,157.88733670734294L72.58113715277779,123.3219098451823L72.96831597222221,133.9241131171297L72.98320746527779,146.7266267493195L73.08744791666666,125.37673475898835L73.10233940972222,152.8817366390592L73.16190538194444,158.76299433073117L73.35549479166667,135.04533527844717L73.69799913194444,116.6656911993665L74.05539496527778,121.10975334195152L74.1149609375,99.46389824751019L74.23409288194445,111.2993853025956L74.47235677083333,144.3781835239552L74.53192274305556,142.5668793117145L74.59148871527778,95.2146778291121L74.62127170138889,100.18001732911027L75.2169314236111,104.92521560770913L75.4551953125,119.36949161042358L75.76791666666666,66.29454328285551L75.90194010416667,90.32869713533628L76.19976996527778,98.06318074652211L76.21466145833332,96.89592925081986L76.28911892361111,38.61551688363924L76.45292534722222,63.36561318529967L76.46781684027778,107.52305971473733L76.48270833333333,76.66213265166279L76.54227430555555,101.08280249641551L76.8996701388889,108.33066383893447L77.18260850694445,116.12452428022972L77.30174045138888,104.78072614444979L77.40598090277778,85.0265935019219L77.58467881944445,110.53864499065662L77.65913628472222,111.33668290200715L77.98674913194445,137.28690917841894L78.22501302083333,144.1507362079332L78.2994704861111,124.61121255212142L78.31436197916668,149.87556790677291L78.35903645833334,128.45579153773878L78.46327690972223,104.77989314142623L78.55262586805556,115.60353932636662L78.59730034722222,109.28879822833521L79.14828559027777,129.93574902994487L79.7737282986111,148.51763026806404L79.78861979166668,135.7753936744152L79.90775173611111,144.9322675179152L80.0119921875,133.73386234364304L80.87569878472222,156.51659968090888L80.97993923611111,92.00283894040743L80.99483072916667,57.105371059426155L81.00972222222222,90.90454600028816L81.6500564236111,118.80686395117928L81.67983940972222,120.02427018305661L81.84364583333334,146.67162227894323L81.8883203125,162.16411655895044L81.94788628472223,107.52306065241348L81.96277777777777,136.82051647514865L82.0521267361111,148.69042763086333L82.09680121527778,156.82927776941676L82.12658420138888,161.2439332625552L82.1563671875,162.84818017141296L82.40952256944445,147.21095990589168L82.51376302083334,148.8910248838632L82.76691840277778,156.17163981105074L83.06474826388889,165.53388152163907L83.25833767361111,162.02799789266228L83.55616753472222,175.24258552755208L83.66040798611111,175.93666137806605L83.69019097222223,175.9264828329548L83.74975694444446,142.5339461842337L83.79443142361112,119.31271690687207L83.82421440972223,143.04331435831503L84.06247829861111,156.07063767335654L84.10715277777777,159.58106933291714L84.21139322916666,122.65788507528961L84.37519965277778,131.61252521614946L84.49433159722223,145.91681673695788L84.55389756944446,149.09196650555393L84.5687890625,115.95897472500342L84.94107638888889,106.38478414433071L85.20912326388888,96.23741399093872L85.29847222222223,37.62950098847561L85.4771701388889,95.59352490505702L85.506953125,123.23132821739394L85.59630208333334,84.3741243394313L85.65586805555554,110.60899447955987L85.71543402777777,134.86047058140218L86.043046875,140.92536870483403L86.16217881944443,160.7808200609743L86.40044270833334,161.75420586930358L86.77273003472223,118.62910383145L86.87697048611112,115.24994898302205L87.05566840277778,110.06589322195728L87.48752170138889,142.3710767746772L87.71089409722222,109.68065767667667L87.87470052083333,71.95890588613393L87.99383246527778,109.66505980011762L88.02361545138889,113.78701632927024L88.03850694444444,145.15611588675733L88.38101128472223,146.98303009231833L88.47036024305555,144.82203637414287L88.61927517361111,156.11329135466625L89.31917534722221,78.93141664622775L89.33406684027779,99.14314663061913L89.37874131944444,96.74702416364286L89.60211371527778,53.30652122116733L89.66167968750001,94.16915780426481L89.88505208333333,123.163754678922L90.21266493055556,147.98302702627862L90.34668836805555,101.455358016198L90.98702256944445,105.8737530294432L91.25506944444444,122.64499805172524L91.41887586805555,118.4888604331031L91.44865885416667,99.72169337643984L91.73159722222222,110.74443021315899L91.7762717013889,133.99598093994172L92.56552083333334,122.30882785845994L92.69954427083333,140.18207137746845L92.90802517361111,143.38090712704204L93.02715711805556,148.02687686651566L93.26542100694445,165.60597405202674L93.95042968749999,148.9520333797356L93.99510416666666,153.68710046950702L94.30782552083333,163.75228438705722L95.24598958333334,128.61198979234155L95.38001302083333,143.46455686544365L95.4544704861111,122.34615241696572L95.66295138888889,106.30105065402896L95.78208333333333,109.20378365915381L95.84164930555556,117.29803262404846L96.40752604166667,142.05018015164626L96.496875,97.00412027172483L96.764921875,123.15572842353214L96.97340277777778,125.03231725416475L97.50949652777777,107.24978239813296L98.26896267361111,120.13740965583662L98.31363715277777,127.019938700975L98.38809461805556,78.2118019031684L98.55190104166665,53.89794707102778L98.95397135416665,97.74617658055035L99.35604166666666,131.45123178828908L99.57941406249999,126.48529395332001L99.66876302083334,146.4986406912467L100.01126736111111,152.6703510612286L100.99410590277778,107.73387931338596L101.26215277777777,74.48632322538029L101.32171875,76.51608925420635L101.42595920138889,102.48605660243558L101.50041666666667,103.0895715096219L101.589765625,127.11058924045193L101.9918359375,133.54624337308934L102.00672743055556,127.20937784013861L102.11096788194443,111.50490441618989L102.2300998263889,87.00496897432667L102.36412326388889,111.14673215817916L102.45347222222223,101.87836438732533L102.49814670138889,108.84900288089712L102.67684461805555,114.62836166546363L102.94489149305555,98.58301772839626L103.36185329861111,137.0429629276204L103.6001171875,124.37607678456015L103.77881510416667,146.07486180261233L104.16599392361111,157.34307970367857L104.18088541666667,170.71841463731096L104.5084982638889,166.3914707196649L104.59784722222223,116.68695183354L104.70208767361112,103.28934764462001L104.88078559027778,121.92317586258565L104.98502604166667,105.99897576298764L105.11904947916666,137.60253830018652L105.32753038194444,140.35851460766887L105.55090277777778,126.88532418651639L105.65514322916667,145.42677205758676L105.67003472222221,154.8547168196965L105.90829861111112,142.35840159784132L105.96786458333332,152.71178116961258L106.22101996527778,147.3798315243615L106.26569444444443,121.47054469940369L106.34015190972221,129.82763776821847L106.36993489583332,137.51662941532535L106.69754774305555,154.58741328784433L106.75711371527778,147.0238445100446L107.04005208333334,158.2210197966509L107.08472656250001,154.73542269424445L107.1889670138889,136.8801799267453L108.21648003472222,160.67314846866435L108.39517795138889,143.41785757701032L108.4249609375,161.4947724550733L108.84192274305556,136.47946420540453L108.87170572916666,100.66557910664619L109.08018663194444,130.86659822133285L109.18442708333333,128.42870655304168L109.363125,109.35641719317593L109.42269097222221,116.73008187916712L109.43758246527779,138.97789123070908L109.60138888888889,76.30147461796548L110.37574652777778,88.42743423234843L110.46509548611111,84.77691726561952L110.5395529513889,81.54809305049349L110.8373828125,53.07745519777841L110.89694878472223,96.72512188341356L111.44793402777779,95.92644126202633L111.58195746527778,116.4755953911388L111.62663194444444,142.0056645837776L111.67130642361111,119.14812417687232L112.01381076388888,131.43759966409954L112.62436197916668,158.36133596970973L113.08599826388888,133.654832458258L113.2795876736111,142.26199257078528L113.45828559027777,146.39875416195335L113.66676649305556,19.65250684333833L113.6816579861111,70.07167355936846L113.7858984375,30.388476682607248L113.94970486111112,78.23978165518619L114.02416232638889,119.82024556174419L114.23264322916667,118.22689033697483L114.27731770833334,134.05946651786826L114.60493055555555,99.34990938717281L114.69427951388889,51.74953017192152L114.70917100694444,92.00941608667328L114.79851996527778,128.3927677026729L115.64733506944445,152.2106223188075L115.82603298611112,96.93116970552401L115.84092447916666,102.81860997153501L115.85581597222222,102.46024857854184L116.10897135416666,120.65400114380236L116.49615017361111,106.45176717473815L116.52593315972223,140.19090380931434L116.64506510416666,103.0112210466621L116.67484809027778,131.01810780958706L117.136484375,137.16861464089547L117.16626736111111,23.389324367510216L117.56833767361111,89.62402560866464L117.61301215277777,102.13227205437944L118.16399739583333,124.26438287431657L118.32780381944444,142.26220327976995L118.72987413194444,131.28752436939783L118.75965711805556,138.13126181911343L118.80433159722223,96.66517092113531L118.83411458333335,54.92361194855306L119.04259548611111,74.13650166712857L119.19151041666666,109.99067244364414L119.44466579861111,115.70020633938924L119.47444878472223,131.67650616724242L119.62336371527778,113.3514696818698L119.69782118055555,129.12008867761716L119.71271267361111,131.64745207829867L119.89141059027777,143.3749369884603L119.98075954861112,150.80727230042652L120.12967447916667,159.96041600977782L120.32326388888889,141.69305520272923L120.39772135416666,130.98890629165234L120.42750434027778,107.13688741008727L120.44239583333332,47.933824792216534L120.88914062500001,67.48796702904123L121.24653645833332,110.69812196567936L121.33588541666667,93.40382436729072L121.63371527777778,82.32928648737176L122.229375,107.55728646817354L122.3336154513889,104.56518276752561L122.37828993055555,105.8787784598135L123.36112847222222,73.81301777833737L123.77809027777778,121.02027024662345L123.79298177083334,130.65428165567855L123.88233072916667,125.49882380775941L123.89722222222221,74.71213189898756L124.09081163194445,82.38112192066379L124.22483506944444,90.85755036386686L124.37375,115.70107440079097L124.47799045138889,84.93701341958888L124.59712239583332,63.49123256588353L125.2076736111111,72.31794787159188L125.25234809027778,69.99122812234877L125.26723958333334,96.99094630580684L125.50550347222222,97.07468022117511L125.53528645833333,125.03959901415149L125.83311631944444,64.45038315141191L125.90757378472222,97.06595599726944L126.04159722222222,127.38138080369811L126.39899305555555,117.08093770752606L126.69682291666668,144.73360091500777L126.84573784722222,118.88368532774543L127.03932725694445,138.17229255227008L127.62009548611111,153.3316797516723L127.64987847222223,157.78682361171806L127.81368489583333,156.96661674455504L127.96259982638888,114.64454034594971L128.0519487847222,106.105964639696L128.36467013888887,59.864560126610115L128.54336805555556,68.52917759720194L129.10924479166667,61.16919420593633L129.12413628472223,105.76781194553678L129.3326171875,82.7282218132882L129.55598958333334,33.926321521497464L129.64533854166666,91.04215821012231L129.7049045138889,82.55732160013966L129.98784288194446,100.521880342632L130.06230034722222,121.07742659181241L130.09208333333333,142.54311347562006L130.22610677083333,133.6311459412792L130.25588975694444,140.27155805182738L130.28567274305556,106.2794502018741L130.30056423611111,126.72039727544751L130.38991319444446,147.50610912206494L130.46437065972222,116.28043726813715L130.82176649305555,118.35115478985942L130.8366579861111,115.9942794688038L130.9706814236111,83.29110588969881L131.2089453125,114.05317412946452L131.22383680555555,127.25669998393468L131.3131857638889,138.8807956531747L131.35786024305557,162.52511082013356L131.50677517361112,152.36706842562074L131.70036458333334,152.08799543556452L131.81949652777777,149.34705836946466L133.11505642361112,162.91908222468658L133.18951388888888,73.46736982398691L133.23418836805556,92.24268117337077L133.3533203125,101.81585543455442L133.6213671875,128.76557763322108L133.7851736111111,133.15120579245038L134.27659288194442,149.54834575363265L134.291484375,167.48327812114601L134.9913845486111,89.06227243109663L135.22964843749997,87.50591600209374L135.25943142361112,-80.2574248331876L135.49769531249999,-52.899561862661486L135.51258680555554,20.44725386980614L135.60193576388892,37.697925051437174L135.6615017361111,69.00188872156009L135.78063368055555,70.91365872158515L135.9295486111111,114.5988074403468L135.95933159722222,114.66811176734517L136.0040060763889,104.93800012058995L136.03378906249998,103.89618042325026L136.06357204861112,136.0305670482817L136.8974956597222,128.57649157200814L137.00173611111111,149.62446503024606L137.16554253472222,130.97987692123579L137.65696180555554,136.1026255632822L137.73141927083333,138.27394265973305L137.79098524305556,143.70432357388407L137.9399001736111,131.6736333802629L138.08881510416666,139.8823432960427L138.1483810763889,138.4877687685678L138.20794704861112,145.3743316509973L138.32707899305558,138.12326649044715L138.35686197916667,155.2272560043023L138.43131944444445,121.01549075501475L138.93763020833333,88.34269225869963L139.01208767361112,130.3706796945595L139.26524305555554,94.22663976184167L139.39926649305556,131.90509139450234L139.8460112847222,147.57953466105707L139.89068576388888,162.9015639102014L140.12894965277778,176.95232532091535L140.63526041666665,150.4103574579726L141.05222222222224,112.9733500547102L141.15646267361112,132.42462580730435L141.39472656249998,145.64531950040325L141.40961805555557,148.59889956941404L141.42450954861113,141.19107961774841L141.64788194444446,159.40812247148313L141.9903862847222,107.5454783933998L142.0052777777778,128.39408129482172L142.332890625,108.25779149208829L142.7051779513889,61.57551697570986L142.7349609375,83.16966227527377L143.12213975694445,102.82505932522791L143.15192274305554,109.53220347805606L143.53910156249998,117.83199570409444L143.8071484375,130.42778129732943L144.34324218749998,152.36491302868666L144.46237413194444,146.45081255652786L144.5815060763889,156.5306127558674L145.13249131944443,170.97856743832722L145.29629774305553,161.9422422510403L145.5047786458333,137.00647060729884L145.83239149305555,119.90682333333555L145.93663194444443,136.40622600731072L146.0557638888889,122.47303040684777L146.13022135416668,143.18183580341562L146.14511284722224,156.984341536776L146.30891927083331,140.7652667287171L146.36848524305555,138.5146805146955L146.39826822916666,125.10818173457348L146.41315972222225,104.65327788487855L146.51740017361112,132.63660887451724L146.7556640625,102.83624783158496L147.20240885416666,138.60284755634527L147.5300217013889,137.4738281565486L147.79806857638889,143.92536224410406L147.88741753472223,118.72269939388403L148.30437934027776,79.05168248503462L148.4532942708333,111.43320386411752L149.06384548611112,100.90845619492363L149.3467838541667,135.39825597147296L149.45102430555556,136.56606822710467L149.48080729166665,153.98781533497456L149.6297222222222,146.32989494818037L149.9722265625,120.92454209048672L149.98711805555556,85.7058619659576L150.22538194444442,98.62399876296547L150.25516493055557,119.69120731248191L150.49342881944443,131.55787671255737L150.55299479166666,90.28114581153535L150.64234375,128.98775737525753L150.96995659722222,128.16345565684534L150.98484809027778,96.98071782092985L151.14865451388889,111.2932057832864L151.38691840277778,125.1089259269945L151.44648437499998,137.02652192568598L151.5060503472222,82.34192472967993L151.59539930555556,92.62943104668554L151.96768663194445,96.13634740739947L152.2059505208333,128.8123956107746L152.2952994791667,124.6506304339473L152.35486545138892,148.27934468960194L152.48888888888888,145.3299894773347L152.53356336805555,156.7180135331297L152.5484548611111,107.81193940275233L152.9207421875,55.94559526190864L153.30792100694444,62.77321234193865L153.8886892361111,53.26490736172196L154.03760416666665,100.8924018729237L154.126953125,36.69910455192455L154.42478298611113,61.525783035684725L154.7077213541667,89.29168299136023L154.9013107638889,92.58683925874082L155.8096918402778,102.55415429391977L156.33089409722223,127.73824557962556L156.8372048611111,149.10439437212074L156.86698784722222,149.37250002117725L157.5817795138889,160.3968898049358L157.9540668402778,173.14620988445233L158.31146267361112,159.18320746390927L158.47526909722222,81.75376479641231L158.50505208333334,122.40149026403209L158.63907552083333,118.05501144275125L158.69864149305556,136.3531120470723L158.72842447916665,143.65979041381328L158.8177734375,104.72367902148241L159.02625434027777,124.52185503911913L159.14538628472224,118.57257592158965L159.29430121527778,125.41094438547931L159.35386718750001,65.92244863697911L159.51767361111112,94.33913408375057L159.63680555555555,94.44412181513128L159.7559375,83.69652938941236L160.14311631944443,115.92589798586181L160.20268229166666,123.5185167356187L160.48562065972223,104.89385819389972L160.61964409722222,118.35051622533958L160.91747395833335,129.20536123327625L161.67694010416665,87.63612040135305L162.28749131944446,106.30862358278146L162.39173177083333,120.62509602901153L162.6002126736111,35.42428997088984L162.77891059027777,55.836822174708004L163.0022829861111,98.90765727281908L163.10652343750002,129.22140465510094L163.16608940972225,82.1792675617128L163.53837673611113,103.71720569465437L163.67240017361112,116.91277142332038L163.88088107638887,118.8802600969266L163.91066406250002,111.98093219557606L164.26805989583335,131.5026650945752L165.384921875,135.90040615322647L165.8465581597222,140.5172063119558L165.96569010416667,101.42709324403688L166.0848220486111,107.15972943434424L166.3528689236111,94.40808292483018L166.91874565972222,132.70564500181428L167.08255208333333,124.01833134363366L167.2016840277778,122.56534180069984L167.21657552083335,150.66733099428683L167.30592447916666,110.02268527222965L167.58886284722223,137.8747129465112L167.75266927083334,164.17902793288047L167.79734375,176.08943759424236L168.11006510416667,114.53788803403653L168.18452256944445,112.77436813941644L168.42278645833332,144.25435750324158L168.48235243055555,131.77439045350073L168.6759418402778,150.88088527371394L168.9588802083333,160.05705885022823L169.58432291666668,120.36270599834374L169.88215277777778,139.88865787165994L170.00128472222224,147.22852819403874L170.06085069444444,79.56387586311448L170.0757421875,77.77004020249133L170.5820529513889,96.28611330547245L170.85009982638888,108.88083856745124L170.89477430555556,127.01937982704376L171.10325520833334,117.94428545906115L171.1181467013889,140.1953164753895L171.22238715277777,107.05600789123828L171.96696180555554,105.64599753664086L172.16055121527776,141.9865552994592L172.17544270833332,73.2587118207632L172.8604513888889,117.0059220534523L173.15828125000002,98.51184267736943L173.36676215277777,102.32062079273148L174.26025173611112,106.87388997191819L174.61764756944444,77.30507857833797L175.37711371527777,109.17917806220179L175.42178819444445,142.2147028818172L175.55581163194444,139.22747844901335L175.70472656249999,120.03734721381882L175.83875,141.06950459393087L176.55354166666666,108.67227096266879L176.82158854166664,118.07492189352116L177.25344184027776,148.40833340028422L177.35768229166666,139.20904312438324L177.46192274305554,111.13550731994926L177.52148871527777,130.64832574487374L177.6555121527778,128.86928674793631L177.68529513888888,141.20108096813706L177.83421006944442,95.86902184240208L178.0873654513889,126.37795524824116L178.19160590277778,141.4169154058177L178.32562934027777,146.64303334041963L178.3851953125,131.9726970267225L178.42986979166665,106.22914160237569L178.53411024305555,110.38986652035462L178.84683159722223,92.36286867990889L179.33825086805555,-8.94607321420434L179.4573828125,59.787564246574604L179.57651475694445,108.88283351796326L179.74032118055555,99.88677519658822L179.78499565972223,138.48593939016746L179.8892361111111,98.8344941383544L180.08282552083332,119.6319955861705L180.11260850694444,145.5830527404203L180.18706597222223,140.08152404184662L180.63381076388887,126.58166305873112L180.82740017361112,104.58187378268005L181.2294704861111,124.52764526498652L181.85491319444444,131.09190867112903L182.1080685763889,108.52697806985702L182.62927083333335,136.79379077151052L182.6739453125,160.22691558589884L182.71861979166667,162.87913397255323L182.73351128472223,168.5151946566952L183.00155815972224,152.0046343586885L183.1802560763889,150.25859334702406L183.19514756944443,126.31693467365486L183.43341145833332,100.90968345494566L183.53765190972223,128.15451820598372L183.56743489583332,136.01871898118455L183.61210937500002,130.52369143742033L183.83548177083333,140.94079938636844L184.0439626736111,142.1763447461353L184.1184201388889,137.2586099510941L184.77364583333335,126.81391157200396L184.80342881944443,45.0037156347149L185.19060763888888,79.21567454871105L185.56289496527776,79.18723577052863L185.74159288194446,109.86673541540213L185.84583333333333,93.02486329565741L185.90539930555556,97.59268065267979L186.27768663194445,96.78270083480157L186.5308420138889,133.25619381618634L186.57551649305555,129.70277048576298L187.37965711805555,99.52088660853163L187.46900607638887,140.82037349077157L187.54346354166665,144.02284810775063L187.73705295138888,114.61248531242336L188.45184461805556,142.01675263630565L188.58586805555558,85.29260460062584L188.6752170138889,93.72612962779515L188.74967447916669,127.64699255406838L188.92837239583332,104.33472267462516L189.0028298611111,112.19688987281998L189.03261284722223,143.96125836506874L189.09217881944443,134.62969550605138L189.2113107638889,92.76560307554571L189.24109374999998,67.04880311240912L189.53892361111113,58.56885163873532L189.7771875,103.97969390045802L189.83675347222223,133.93177880656583L190.03034288194445,129.0918679915863L190.06012586805556,102.89892851864425L190.2090407986111,120.48360885031386L190.2834982638889,140.46583163221524L190.32817274305555,124.54214660215288L190.3430642361111,135.23581310103225L190.59621961805556,127.60528400619474L190.64089409722223,123.72850910983557L191.29611979166665,136.68011960483832L191.77264756944444,145.09822991080003L191.96623697916667,112.82459293442831L192.17471788194445,143.36119023856526L192.21939236111112,142.6425685378305L192.23428385416665,160.35889362051438L192.51722222222222,170.4993852377197L192.71081163194447,165.2163167838695L192.7554861111111,144.0511239989408L193.00864149305556,68.41868854221836L193.1277734375,85.4375365926538L193.18733940972223,114.93747724955423L193.29157986111113,107.85562052901813L193.79789062499998,126.29324016403606L194.18506944444445,147.09176987198433L194.1999609375,120.84802055061894L194.5722482638889,86.16633503258845L194.61692274305557,127.85650915511538L194.94453559027778,111.60773351725221L194.98921006944445,107.56363750998804L195.0338845486111,139.38350122616322L195.79335069444446,158.0566966134475L195.88269965277777,157.53938478220502L196.07628906250002,143.74541756674475L196.09118055555555,164.9742761084257L196.1060720486111,163.33949814397715L196.29966145833333,159.09367268776074L196.8208637152778,145.5374403267811L197.02934461805555,86.55810665307703L197.05912760416666,116.97375063728252L197.13358506944445,131.5210645585543L197.31228298611111,140.20383160135577L198.23555555555555,143.06575960878817L198.84610677083333,63.78278735429048L198.92056423611112,117.39129424152628L199.17371961805557,110.21530699594108L199.41198350694444,136.79198526679872L199.57578993055554,48.08127067887427L199.70981336805556,100.72721049919764L199.8587282986111,97.81149692036875L199.87361979166667,128.3848893364729L200.05231770833333,142.2886635009155L201.3329861111111,148.70194688274125L201.40744357638889,99.71057947349175L201.6754904513889,78.41016553904447L202.22647569444445,27.899149621776896L202.28604166666668,51.260114532433676L202.3456076388889,96.51318203185791L202.44984809027778,93.27659373915498L202.4796310763889,125.6628660504768L202.50941406249999,146.11970726560907L202.68811197916665,133.73306933929194L202.86680989583334,139.03965428065206L203.41779513888886,159.40726557279194L204.04323784722223,164.41916142219472L204.23682725694445,144.77263204812934L204.57933159722222,162.49550288887494L205.02607638888887,165.42972599165924L205.44303819444445,108.81423312500633L205.47282118055554,27.398639401817864L205.86,55.530963433399556L206.29185329861113,48.20120701009064L206.44076822916668,59.89221979013358L206.5599001736111,95.57752613920734L206.58968315972223,127.77371120954528L206.72370659722222,129.15049169790302L206.91729600694444,138.5606872254788L207.0364279513889,153.9259860498501L207.25980034722224,84.55994576964679L207.60230468749998,58.56684105164436L208.12350694444444,89.6055367984656L208.4660112847222,81.23362703483431L209.12123697916667,52.912882388939074L209.16591145833334,107.54592238402088L209.4488498263889,140.1935677913683L209.58287326388887,146.592724607374L209.68711371527777,124.33076125229256L209.9104861111111,151.781526615291L209.92537760416667,142.5674351198745L210.34233940972223,159.52254307102223L210.71462673611111,133.9447064193806L211.31028645833334,128.4263522901624L211.8910546875,138.9719423366396L211.90594618055556,77.00961730982284L212.01018663194444,101.89337740220165L212.41225694444444,120.98690391195056L212.53138888888887,109.87610425888269L212.72497829861112,146.4278729961356L212.99302517361113,134.6808333417542L213.32063802083331,111.88510772028455L213.5737934027778,116.46329875764866L214.22901909722222,116.8338887179267L214.2736935763889,97.84039094865832L214.42260850694444,115.87607333212547L214.60130642361113,98.76644990022365L214.7353298611111,84.11140695744558L214.78000434027777,51.913756197466725L214.98848524305555,77.56616857140577L215.12250868055557,100.05919383545023L215.7181684027778,69.44188498092984L215.98621527777777,110.81956430965924L216.09045572916668,128.87461571468612L216.1500217013889,119.22193951522954L216.31382812500001,146.49064894579098L217.5200390625,154.3226103105168L217.7880859375,92.54669304086605L218.07102430555557,101.16630288171503L218.0859157986111,128.55211436404002L218.1305902777778,116.48017128925024L218.14548177083333,94.63882302585966L218.4135286458333,55.922087069414424L218.54755208333333,73.66000444824665L218.71135850694446,110.13171655233091L218.91983940972221,126.5657496997865L219.35169270833333,131.87813794309807L219.72398003472222,111.07776327887974L220.02180989583331,133.60784530487962L220.14094184027778,119.61072657528193L220.33453125,124.836535373891L220.4983376736111,144.4261064458704L220.51322916666666,133.19735685503238L220.58768663194445,151.31403196463438L220.64725260416668,136.3304824984637L220.72171006944444,115.87385403936224L220.79616753472223,116.83244191133622L221.85346354166666,130.94695987715508L222.19596788194445,115.25249341973175L222.22575086805554,93.96272444890192L222.3746657986111,124.55831790367513L222.73206163194445,140.8993349086372L222.83630208333335,151.93434520983607L222.92565104166667,160.86900892127187L222.9852170138889,124.7687005987171L223.37239583333334,135.3404778708971L223.40217881944443,158.72983667969444L223.4468532986111,153.50328824267913L223.49152777777778,116.49559378830273L223.53620225694445,132.31301382776138L223.56598524305556,88.38146764650705L223.6106597222222,122.85715700967256L223.7893576388889,94.05655960566827L223.819140625,102.4986208041133L223.83403211805555,128.12513098305763L223.89359809027778,150.66141529002712L224.02762152777777,151.63731338920974L224.35523437499998,117.34044937099686L224.38501736111112,99.80545469917543L224.60838975694446,77.73377370798913L224.66795572916666,104.7303693777751L224.81687065972224,78.8634104371498L224.83176215277777,119.64340459498348L224.99556857638888,131.13564346206877L226.0975390625,139.07704408322815L226.2315625,156.10977987134908L226.24645399305555,88.72440997684954L226.32091145833334,77.34552246798337L226.35069444444446,102.30500911626206L226.499609375,56.077745082268464L226.81233072916666,53.13912323849758L227.02081163194447,59.46094451645573L227.22929253472225,16.38290387911194L227.3782074652778,72.49387551048665L227.49733940972223,81.83089986775168L227.63136284722222,121.94617521472227L228.25680555555553,118.05263771325534L228.33126302083332,123.47408965993891L228.39082899305555,140.99745767532315L228.55463541666668,158.2823847200442L228.56952690972224,158.1643902622102L228.62909288194444,122.25400038989159L228.70355034722223,22.52945370931494L228.91203124999998,35.46821314114628L229.73106336805557,35.624390418297985L230.07356770833331,75.16810348244809L230.1480251736111,7.85280989092261L230.29694010416665,-9.372556828284512L230.84792534722223,57.561789018361075L231.0266232638889,105.06199699466892L231.27977864583335,87.00091317362299L231.4882595486111,122.14601434849585L231.5925,105.68649957953197L231.77119791666667,93.18597158844821L231.81587239583334,131.33721976973234L231.860546875,112.37107333922668L232.0988107638889,107.2599147342699L232.41153211805556,137.08123402090072L232.42642361111112,150.51567384561335L232.60512152777778,129.79230733064503L232.88805989583335,124.71463322420958L233.37947916666667,138.293341412255L233.76665798611108,138.92725691657083L233.82622395833332,140.75430249420722L233.84111545138887,118.71089125934277L233.88578993055555,132.21648681150273L234.0347048611111,98.68624284770213L234.2431857638889,114.0169375707787L234.36231770833334,73.46294402046351L234.45166666666668,116.99715410236244L234.58569010416667,110.57026468851403L234.66014756944446,133.1788031394717L234.94308593749997,140.46929113139475L235.03243489583335,133.97559920590976L235.1664583333333,152.28048889593825L235.56852864583334,158.14472341264639L235.67276909722221,136.61541101257924L235.6876605902778,140.27551794601038L235.92592447916667,60.37641161668971L236.23864583333332,87.16678614779941L236.47690972222222,68.01449452600517L236.74495659722223,66.09986069060349L236.9832204861111,90.38940677370248L237.28105034722222,114.00421702715273L237.54909722222223,138.27543323164974L237.57888020833332,152.18575147005538L237.68312065972222,152.31756519503963L237.8320355902778,134.76030766673853L238.26388888888889,110.89263925889202L238.35323784722223,93.46046367081019L239.14248697916668,116.0967924931595L239.29140190972223,142.93323348119978" style="fill: none;" fill="none"></path></g></g></g></g><g opacity="0.2"><g><g><g><path stroke="rgb(255, 112, 67)" stroke-width="2px" d="M35.739583333333336,-376.5986598219189L35.79914930555556,103.14148837540831L36.171436631944445,35.3634835098471L36.23100260416666,-257.5549983807972L36.55861545138889,-288.0757602453231L36.588398437500004,10.973151109048304L36.73731336805556,-129.54867867912563L37.58612847222222,-106.4208071402141L37.839283854166666,77.8173942395619L38.00309027777778,96.13568966516428L38.43494357638889,136.03375391874997L38.7327734375,-122.1476497650146L38.77744791666667,117.46258765033313L39.015711805555554,110.13455170180117L39.37310763888889,-76.3285080492496L39.61137152777778,71.79453732286181L39.76028645833333,-136.72491676466802L40.28148871527778,52.59349705491748L40.355946180555556,135.7940329249416L40.63888454861111,12.429543984787816L41.87487847222223,85.20431249908039L41.96422743055555,116.79839781991073L42.27694878472223,81.12177420513972L42.679019097222216,145.61732807968346L43.39381076388889,182.7661860877914L43.5576171875,-82.36963911141665L44.0937109375,160.54681510371822L44.30219184027778,33.84441219908851L44.346866319444445,77.58930652907917L44.40643229166666,155.20385530484575L44.42132378472222,79.49004372954369L45.285030381944445,-6.9777492157050425L45.55307725694445,154.63434250333478L45.64242621527778,74.68072194712504L46.16362847222222,150.7376447330628L46.31254340277778,140.68692124422108L46.327434895833335,141.09897967534405L46.372109374999994,56.27185646550998L46.68483072916666,137.21553537036692L47.34005642361111,149.50846353918314L47.38473090277778,152.34894396045377L47.60810329861111,37.23554725732123L47.72723524305555,119.17550619798047L47.83147569444444,60.52042573264667L47.86125868055555,177.84978629063284L48.29311197916667,148.7006945014L48.33778645833333,182.95594283619099L48.45691840277778,176.4066657195134L48.739856770833335,118.35371599239963L48.87388020833333,122.98083324091775L49.037686631944446,92.7713535470622L49.171710069444444,164.240528564368L49.51421440972222,6.204258518559601L49.73758680555556,18.67832208956992L50.43748697916667,127.08569613524847L50.46726996527777,159.4493490521397L50.48216145833333,102.89936536763396L50.98847222222222,198.83061058127453L51.01825520833333,156.503358989954L51.25651909722222,145.02969184730736L51.43521701388889,156.46587815242154L51.61391493055556,-35.89990013837814L51.68837239583333,154.56001194566488L51.70326388888889,107.78770869970322L52.17979166666667,96.41011269603457L52.19468315972222,109.68691049516201L52.611644965277776,-53.507736350808806L52.64142795138889,138.28149265050888L52.79034288194445,-145.69526146990904L53.05838975694444,169.2344474749906L53.23708767361111,173.2778470707791L53.31154513888889,197.97453633616013L53.683832465277774,167.49213957999436L53.98166232638889,149.22076349386145L54.145468750000006,181.2769609780184L54.23481770833333,203.2941318393818L54.32416666666666,37.745829220329014L54.398624131944445,9.871879513774623L54.48797309027778,152.49718590080738L54.96450086805555,94.69972803762981L55.18787326388889,170.2640495672822L55.30700520833334,138.9663963190147L55.70907552083334,171.3460485328521L56.12603732638889,89.77962160323348L56.394084201388885,160.39286484782187L56.4238671875,191.271941258439L56.66213107638889,88.4039458164147L56.72169704861111,110.72004967076438L56.94506944444444,174.87693370559384L57.004635416666666,174.04262947823318L57.13865885416667,140.39101196293322L57.7641015625,165.633220971695L58.13638888888889,-87.08342667562617L58.41932725694444,109.1682450324297L59.14901041666667,177.0665601837848L59.17879340277778,159.49557604640722L59.29792534722222,117.6304742970637L59.38727430555556,184.65096402487583L59.46173177083333,66.55007422608989L59.83401909722222,149.28176051910435L60.250980902777776,145.93897187922684L60.29565538194444,125.11125007484641L60.385004340277774,140.22057258763482L60.667942708333335,177.49199218090092L61.17425347222222,102.23947090336256L61.57632378472222,183.81763237767987L61.65078125,101.91746915663992L61.69545572916667,30.544873940093186L61.933719618055555,171.16796510134424L62.73786024305555,174.57294235378504L62.82720920138889,171.19112805170673L62.84210069444445,165.11722598331315L63.33351996527778,107.02259660405772L63.85472222222222,103.07491961973054L64.07809461805556,179.53957485673683L64.09298611111112,185.89962743595243L64.10787760416666,33.00016551784107L64.18233506944443,79.37232620588371L64.3014670138889,97.39739695404258L64.42059895833333,78.20137736627035L64.79288628472223,133.49383609209744L64.82266927083333,116.05529947578907L65.07582465277778,-3.531056987387782L65.18006510416667,82.10951060695308L65.20984809027777,13.185170480183206L65.32898003472222,110.49636094272137L65.38854600694444,175.1178698358791L65.41832899305555,183.96114329248667L65.55235243055556,123.07760143492904L65.79061631944444,141.12898130076272L65.89485677083333,143.9909197134631L66.01398871527778,197.63822729938795L66.32671006944445,95.9203184992075L66.38627604166666,46.341516264847364L66.743671875,151.4841765442065L66.81812934027778,75.27290787654265L66.92236979166667,119.71294504829817L66.96704427083333,184.65216032202756L67.04150173611112,136.11554484920842L67.47335503472223,94.29287397009986L67.53292100694445,144.58267233840058L68.15836371527777,139.31637446369444L68.39662760416667,89.72840689761298L68.53065104166666,58.509233568395906L68.87315538194444,27.370560675859473L68.94761284722223,89.13147345823901L69.33479166666666,92.34461457175868L69.34968315972223,176.47768055594395L69.39435763888889,157.19441840797663L69.58794704861111,-40.183416353804716L69.94534288194444,176.15866013243794L69.99001736111111,149.320352876825L70.25806423611111,150.83164354626624L70.27295572916667,58.37702860363894L70.79415798611112,151.1164753043226L70.85372395833333,69.93206279192653L71.07709635416667,188.13940890772002L71.31536024305555,159.45027217907565L71.4047092013889,181.39680734542864L71.62808159722223,177.45393674394913L71.68764756944444,132.18903384677003L72.16417534722221,165.15677443678888L72.58113715277779,71.47376955194133L72.96831597222221,149.82741802505086L72.98320746527779,165.93039719760418L73.08744791666666,93.35189677349159L73.10233940972222,194.1392394591655L73.16190538194444,167.58488086823908L73.35549479166667,99.4688467000212L73.69799913194444,89.09622508074557L74.05539496527778,127.77584655582905L74.1149609375,66.99511560584818L74.23409288194445,129.05261588522367L74.47235677083333,193.99638085599457L74.53192274305556,139.84992299335343L74.59148871527778,24.186375605208543L74.62127170138889,107.62802657910757L75.2169314236111,112.0430130256074L75.4551953125,141.03590561449528L75.76791666666666,-13.317879208496633L75.90194010416667,126.37992791405746L76.19976996527778,109.6649061633008L76.21466145833332,95.14505200726646L76.28911892361111,-48.80510166713167L76.45292534722222,100.49075763779027L76.46781684027778,173.7592295088938L76.48270833333333,30.370742057050993L76.54227430555555,137.71380726354462L76.8996701388889,119.20245585271292L77.18260850694445,127.81531494217259L77.30174045138888,87.76502894077983L77.40598090277778,55.3953945381301L77.58467881944445,148.8067222237587L77.65913628472222,112.53373976903302L77.98674913194445,176.21224859303663L78.22501302083333,154.44647675220455L78.2994704861111,95.30192706840378L78.31436197916668,187.77210093875016L78.35903645833334,96.32612698418754L78.46327690972223,69.26604554695743L78.55262586805556,131.83900860377722L78.59730034722222,99.81668658128807L79.14828559027777,160.90617523235935L79.7737282986111,176.39045212524277L79.78861979166668,116.66203878394195L79.90775173611111,158.6675782831652L80.0119921875,116.9362545822348L80.87569878472222,190.69070568680763L80.97993923611111,-4.767802170344728L80.99483072916667,4.759169237954285L81.00972222222222,141.6033084115812L81.6500564236111,160.66034087751595L81.67983940972222,121.85037953087263L81.84364583333334,186.6426504227732L81.8883203125,185.4028579789613L81.94788628472223,25.561476792608012L81.96277777777777,180.76670020925147L82.0521267361111,166.49529436443535L82.09680121527778,169.03755297724692L82.12658420138888,167.86591650226285L82.1563671875,165.25455053469966L82.40952256944445,123.75512950760978L82.51376302083334,151.41112235082048L82.76691840277778,167.09256220183204L83.06474826388889,179.5772440875215L83.25833767361111,156.76917244919707L83.55616753472222,195.0644669798868L83.66040798611111,176.97777515383703L83.69019097222223,175.9112150152879L83.74975694444446,92.44514121115208L83.79443142361112,84.48087299082961L83.82421440972223,178.63921053547944L84.06247829861111,175.61162264591883L84.10715277777777,164.84671682225806L84.21139322916666,67.27310868884837L84.37519965277778,145.0444854274392L84.49433159722223,167.3732540181705L84.55389756944446,153.85469115844796L84.5687890625,66.2594870541777L84.94107638888889,92.02349827332156L85.20912326388888,81.01635876085078L85.29847222222223,-50.282368515218984L85.4771701388889,182.53956077992916L85.506953125,164.68803318589926L85.59630208333334,26.08831852248739L85.65586805555554,149.96129968975274L85.71543402777777,171.23768473416567L86.043046875,150.0227158899818L86.16217881944443,190.56399709518467L86.40044270833334,163.21428458179744L86.77273003472223,53.94145077466967L86.87697048611112,110.18121671038014L87.05566840277778,102.28980958036014L87.48752170138889,190.82885210375701L87.71089409722222,60.6450290296759L87.87470052083333,15.376278200319849L87.99383246527778,166.22429067109314L88.02361545138889,119.96995112299919L88.03850694444444,192.20976522298795L88.38101128472223,149.72340140065978L88.47036024305555,141.5805457968797L88.61927517361111,173.0501738254513L89.31917534722221,-36.84139541643006L89.33406684027779,129.46074160720622L89.37874131944444,93.1528404631785L89.60211371527778,-11.854233192546015L89.66167968750001,155.463112678911L89.88505208333333,166.65564999090773L90.21266493055556,185.21193554731352L90.34668836805555,31.66385450107711L90.98702256944445,112.50134554931097L91.25506944444444,147.80186558514833L91.41887586805555,112.25465400516987L91.44865885416667,71.57094279144492L91.73159722222222,127.27853546823775L91.7762717013889,168.87330703011583L92.56552083333334,104.77809823623726L92.69954427083333,166.99193665598122L92.90802517361111,148.17916075140238L93.02715711805556,154.9958314757262L93.26542100694445,191.9746198302933L93.95042968749999,123.97112237129893L93.99510416666666,160.78970110416412L94.30782552083333,178.85006026338255L95.24598958333334,75.90154790026801L95.38001302083333,165.74340747509683L95.4544704861111,90.6685457442488L95.66295138888889,82.23339800962381L95.78208333333333,113.5578831668411L95.84164930555556,129.43940607139044L96.40752604166667,179.17840144304293L96.496875,29.43503045184272L96.764921875,162.38314065124305L96.97340277777778,127.84720050011362L97.50949652777777,80.57598011408534L98.26896267361111,139.46885054239203L98.31363715277777,137.34373226868254L98.38809461805556,4.999596706458506L98.55190104166665,17.42716482281687L98.95397135416665,163.51852084483417L99.35604166666666,182.0088145998972L99.57941406249999,119.03638720086643L99.66876302083334,176.5186607981367L100.01126736111111,161.9279166162014L100.99410590277778,40.32917169162207L101.26215277777777,24.614989093371804L101.32171875,79.56073829744544L101.42595920138889,141.44100762477944L101.50041666666667,103.99484387040138L101.589765625,163.14211583669695L101.9918359375,143.19972457204548L102.00672743055556,117.7040795407125L102.11096788194443,87.94819428026676L102.2300998263889,50.25506581153189L102.36412326388889,147.35937693395783L102.45347222222223,87.97581273104464L102.49814670138889,119.30496062125479L102.67684461805555,123.29739984231335L102.94489149305555,74.5150018227952L103.36185329861111,194.73288072645664L103.6001171875,105.37574756996972L103.77881510416667,178.62303932969058L104.16599392361111,174.24540655527798L104.18088541666667,190.7814170377595L104.5084982638889,159.90105484319585L104.59784722222223,42.13017350435259L104.70208767361112,83.19294136123999L104.88078559027778,149.87391818953412L104.98502604166667,82.11267561359065L105.11904947916666,185.00788210598486L105.32753038194444,144.49247906889235L105.55090277777778,106.67553855478764L105.65514322916667,173.23894386419227L105.67003472222221,168.99663396286113L105.90829861111112,123.61392876505852L105.96786458333332,168.24185052726952L106.22101996527778,139.38190705648492L106.26569444444443,82.60661446196693L106.34015190972221,142.36327737144063L106.36993489583332,149.05011688598563L106.69754774305555,180.19358909662282L106.75711371527778,135.67849134334494L107.04005208333334,175.01678272656034L107.08472656250001,149.50702704063485L107.1889670138889,110.09731577549663L108.21648003472222,196.36260128154285L108.39517795138889,117.53492123952934L108.4249609375,188.6101447721677L108.84192274305556,98.95650183090143L108.87170572916666,46.944751458508634L109.08018663194444,176.16812689336282L109.18442708333333,124.77186905060496L109.363125,80.74798315337726L109.42269097222221,127.79057890815395L109.43758246527779,172.34960525802205L109.60138888888889,-17.71315030114991L110.37574652777778,106.61637365392276L110.46509548611111,79.30114181552615L110.5395529513889,76.70485672780447L110.8373828125,10.371498418705816L110.89694878472223,162.19662191186634L111.44793402777779,94.72842032994544L111.58195746527778,147.29932658480746L111.62663194444444,180.3007683727358L111.67130642361111,84.86181356651443L112.01381076388888,149.87181289494038L112.62436197916668,198.74694042812501L113.08599826388888,96.59507719108038L113.2795876736111,155.17273273957628L113.45828559027777,152.60389654870545L113.66676649305556,-170.46686413458409L113.6816579861111,145.70042363341366L113.7858984375,-29.136318632534568L113.94970486111112,150.01673911405462L114.02416232638889,182.19094142158116L114.23264322916667,115.83685749982085L114.27731770833334,157.8083307892084L114.60493055555555,47.285573691129706L114.69427951388889,-19.65103865095545L114.70917100694444,152.39924495880092L114.79851996527778,182.9677951266723L115.64733506944445,187.93740424300944L115.82603298611112,14.011990785598774L115.84092447916666,111.64977037055152L115.85581597222222,101.9227064890521L116.10897135416666,147.94462999169318L116.49615017361111,85.14841622114182L116.52593315972223,190.7996087611786L116.64506510416666,47.24169690268382L116.67484809027778,173.0284379539745L117.136484375,146.39437488785813L117.16626736111111,-147.27961104256758L117.56833767361111,188.97607747039623L117.61301215277777,120.89464172295162L118.16399739583333,157.46254910422223L118.32780381944444,169.25893388795L118.72987413194444,114.82550600383964L118.75965711805556,148.3968679936869L118.80433159722223,34.46603457416808L118.83411458333335,-7.688726510320374L119.04259548611111,102.95583624499184L119.19151041666666,163.7719286084175L119.44466579861111,124.26450718300683L119.47444878472223,155.64095590902227L119.62336371527778,85.86391495381083L119.69782118055555,152.77301717123817L119.71271267361111,135.43849717932088L119.89141059027777,160.96616435370277L119.98075954861112,161.95577526837587L120.12967447916667,173.6901315738048L120.32326388888889,114.29201399215631L120.39772135416666,114.93268292503697L120.42750434027778,71.35885908773967L120.44239583333332,-40.87076913458957L120.88914062500001,96.8191803842783L121.24653645833332,175.5133543706366L121.33588541666667,67.46237796970777L121.63371527777778,65.71747966749328L122.229375,145.39928643937623L122.3336154513889,100.07702721655369L122.37828993055555,107.84917199824538L123.36112847222222,25.714376756123148L123.77809027777778,191.8311489490526L123.79298177083334,145.10529876926114L123.88233072916667,117.76563703588077L123.89722222222221,-1.4679059641701666L124.09081163194445,93.88460695317814L124.22483506944444,103.5721930286714L124.37375,152.96636045617717L124.47799045138889,38.79092194778579L124.59712239583332,31.322561285325463L125.2076736111111,85.55802083015442L125.25234809027778,66.50114849848407L125.26723958333334,137.4905235809939L125.50550347222222,97.20028109422752L125.53528645833333,166.98697720361608L125.83311631944444,-26.43344064269746L125.90757378472222,145.98931526605574L126.04159722222222,172.8545180133411L126.39899305555555,101.63027306326799L126.69682291666668,186.21259572623032L126.84573784722222,80.10881194685187L127.03932725694445,167.1052033890571L127.62009548611111,176.0707605507757L127.64987847222223,164.46953940178665L127.81368489583333,155.73630644381046L127.96259982638888,51.161425748041715L128.0519487847222,93.29810108031546L128.36467013888887,-9.497546643018723L128.54336805555556,81.5261038030897L129.10924479166667,50.12921911903792L129.12413628472223,172.66573855493752L129.3326171875,48.16883661491531L129.55598958333334,-39.27652891618862L129.64533854166666,176.71591324305962L129.7049045138889,69.83006668516569L129.98784288194446,127.46871845637048L130.06230034722222,151.91074596558298L130.09208333333333,174.74164380133152L130.22610677083333,120.26319463976793L130.25588975694444,150.23217621764968L130.28567274305556,55.29128842694419L130.30056423611111,157.38181788580758L130.38991319444446,178.68467689199107L130.46437065972222,69.44192948724543L130.82176649305555,121.45723107244288L130.8366579861111,112.45896648722035L130.9706814236111,34.23634552104133L131.2089453125,160.19627648911307L131.22383680555555,147.06198876563994L131.3131857638889,156.31693915703465L131.35786024305557,197.9915835705719L131.50677517361112,137.13000483385156L131.70036458333334,151.6693859504802L131.81949652777777,145.2356527703149L133.11505642361112,183.27711800751942L133.18951388888888,-60.710198777062544L133.23418836805556,120.40564819744655L133.3533203125,116.17561682632991L133.6213671875,169.19016093122107L133.7851736111111,139.72964803129435L134.27659288194442,174.14405569540602L134.291484375,194.38567667241608L134.9913845486111,-28.569236103977453L135.22964843749997,85.17138135858946L135.25943142361112,-331.9024360861097L135.49769531249999,-11.862767406872335L135.51258680555554,130.46747746850764L135.60193576388892,63.57393182388374L135.6615017361111,115.95783422674452L135.78063368055555,73.78131372162275L135.9295486111111,180.12653051848923L135.95933159722222,114.77206825784275L136.0040060763889,90.34283265045711L136.03378906249998,102.33345087724072L136.06357204861112,184.23214698582888L136.8974956597222,117.39537835759776L137.00173611111111,181.19642521760292L137.16554253472222,103.0129947577204L137.65696180555554,143.7867485263518L137.73141927083333,141.53091830440928L137.79098524305556,151.84989494511058L137.9399001736111,113.62759808983122L138.08881510416666,152.19540816971232L138.1483810763889,136.39590697735548L138.20794704861112,155.70417597464154L138.32707899305558,127.24666874962193L138.35686197916667,180.88324027508497L138.43131944444445,69.69784288108349L138.93763020833333,39.333494514226935L139.01208767361112,193.41266084834933L139.26524305555554,40.01057986276492L139.39926649305556,188.4227688434933L139.8460112847222,171.09119956088918L139.89068576388888,185.88460778391786L140.12894965277778,198.02846743698632L140.63526041666665,110.59740566355842L141.05222222222224,56.817838949816576L141.15646267361112,161.6015394361956L141.39472656249998,165.4763600400516L141.40961805555557,153.02926967293024L141.42450954861113,130.07934969024998L141.64788194444446,186.73368675208516L141.9903862847222,29.751512276274827L142.0052777777778,159.6669856469546L142.332890625,78.05335678798812L142.7051779513889,-8.447894798857813L142.7349609375,115.5608802246196L143.12213975694445,132.30815490015917L143.15192274305554,119.59291970729828L143.53910156249998,130.28168404315198L143.8071484375,149.32145968718189L144.34324218749998,185.27061062572258L144.46237413194444,137.57966184828965L144.5815060763889,171.65031305487665L145.13249131944443,192.650499462017L145.29629774305553,148.38775447010994L145.5047786458333,99.60281314168658L145.83239149305555,94.25735242239067L145.93663194444443,161.15533001827342L146.0557638888889,101.57323700615339L146.13022135416668,174.24504389826743L146.14511284722224,177.6881001368165L146.30891927083331,116.4366545166288L146.36848524305555,135.13880119366306L146.39826822916666,104.99843356439047L146.41315972222225,73.97092211033618L146.51740017361112,174.61160535897525L146.7556640625,58.13570626718658L147.20240885416666,192.25274714348572L147.5300217013889,135.78029905685355L147.79806857638889,153.60266337543726L147.88741753472223,80.91870511855399L148.30437934027776,19.545157121760514L148.4532942708333,160.00548593274186L149.06384548611112,85.12133469113283L149.3467838541667,187.13295563629694L149.45102430555556,138.31778661055225L149.48080729166665,180.12043599677938L149.6297222222222,134.84301436798913L149.9722265625,82.81651280394622L149.98711805555556,32.87784177916392L150.22538194444442,118.0012039584773L150.25516493055557,151.29202013675655L150.49342881944443,149.3578808126705L150.55299479166666,28.36604946000236L150.64234375,187.0476747208408L150.96995659722222,126.92700307922703L150.98484809027778,50.20661106705668L151.14865451388889,132.7619377268212L151.38691840277778,145.83250614255667L151.44648437499998,154.90291592372316L151.5060503472222,0.3150289356708723L151.59539930555556,108.06069052219391L151.96768663194445,101.3967219484704L152.2059505208333,177.82646791583724L152.2952994791667,118.40798266870635L152.35486545138892,183.72241607308388L152.48888888888888,140.90595665893386L152.53356336805555,173.80004961682218L152.5484548611111,34.45282820718631L152.9207421875,-21.85392094935687L153.30792100694444,73.01463796198368L153.8886892361111,39.002449891396935L154.03760416666665,172.33364363972632L154.126953125,-59.59084142957414L154.42478298611113,98.76580076132502L154.7077213541667,130.94053292487348L154.9013107638889,97.5295736598117L155.8096918402778,117.50512684668814L156.33089409722223,165.5143825081842L156.8372048611111,181.1536175608635L156.86698784722222,149.774658494762L157.5817795138889,176.93347448057364L157.9540668402778,192.27019000372715L158.31146267361112,138.23870383309466L158.47526909722222,-34.39039920483316L158.50505208333334,183.37307846546173L158.63907552083333,111.53529321083002L158.69864149305556,163.8002629535539L158.72842447916665,154.61980796392476L158.8177734375,46.31951193298613L159.02625434027777,154.21911906557423L159.14538628472224,109.6486572452954L159.29430121527778,135.66849708131383L159.35386718750001,-23.31029498577118L159.51767361111112,136.96416225390774L159.63680555555555,94.60160341220242L159.7559375,67.57514075083392L160.14311631944443,164.26995088053602L160.20268229166666,134.90744486025403L160.48562065972223,76.95687038132124L160.61964409722222,138.53550327249934L160.91747395833335,145.48762874518124L161.67694010416665,25.282259153468278L162.28749131944446,134.31737835492407L162.39173177083333,142.09980469835656L162.6002126736111,-92.37691911629267L162.77891059027777,86.45562048043524L163.0022829861111,163.5139099199857L163.10652343750002,174.69202572852373L163.16608940972225,11.61606192163061L163.53837673611113,136.02411289406675L163.67240017361112,136.70612001631943L163.88088107638887,121.83149310733592L163.91066406250002,101.63194034355027L164.26805989583335,160.78526444307397L165.384921875,142.4970177412033L165.8465581597222,147.44240655004978L165.96569010416667,42.79192364215853L166.0848220486111,115.7586837198053L166.3528689236111,75.28061316055911L166.91874565972222,190.1519881172904L167.08255208333333,110.98736085636276L167.2016840277778,120.3858574862991L167.21657552083335,192.82031478466732L167.30592447916666,49.055716689143864L167.58886284722223,179.65275445793355L167.79734375,193.95505208628518L168.11006510416667,22.21056369372778L168.18452256944445,110.1290882974863L168.42278645833332,191.47434154897928L168.48235243055555,113.0544398788895L168.6759418402778,179.5406275040337L168.9588802083333,173.82131921499968L169.58432291666668,60.82117672051703L169.88215277777778,169.17758568163427L170.00128472222224,158.23833367760693L170.06085069444444,-21.933102633271883L170.0757421875,75.07928671155658L170.5820529513889,124.06022295994418L170.85009982638888,127.77292646041938L170.89477430555556,154.22719171643257L171.10325520833334,104.3316439070872L171.1181467013889,173.571862999882L171.22238715277777,57.34704501501152L171.96696180555554,103.53098200474467L172.16055121527776,196.49739194368678L172.8604513888889,182.62673740248596L173.15828125000002,70.77072361324515L173.36676215277777,108.03378796577454L174.26025173611112,113.70379374069827L174.61764756944444,32.95186148796763L175.37711371527777,156.9903272879975L175.42178819444445,191.76799011124032L175.55581163194444,134.74664179980755L175.70472656249999,91.25215036102705L175.83875,172.61774066409896L176.55354166666666,60.07642051577568L176.82158854166664,132.1788982897997L177.25344184027776,193.90845066042883L177.35768229166666,125.41010771053178L177.46192274305554,69.02520361329829L177.52148871527777,159.91755338226048L177.6555121527778,126.2007282525301L177.68529513888888,159.69877229843823L177.83421006944442,27.870933153799616L178.0873654513889,172.1413553569998L178.19160590277778,163.9753556421825L178.32562934027777,154.4822102423225L178.3851953125,109.96719255617687L178.42986979166665,67.61380846585547L178.53411024305555,116.63095389732294L178.84683159722223,65.32237191924028L179.33825086805555,-160.90948605537406L179.4573828125,162.88802043774297L179.57651475694445,182.52573742504632L179.74032118055555,86.39268771452564L179.78499565972223,196.38468568053628L179.8892361111111,39.357326260634835L180.08282552083332,150.82824775789467L180.11260850694444,184.50963847179497L180.18706597222223,131.82923099398613L180.63381076388887,106.33187158405781L180.82740017361112,71.58218986860344L181.2294704861111,154.44630248844624L181.85491319444444,140.93830378034284L182.1080685763889,74.67958216794901L182.62927083333335,179.1940098239907L182.6739453125,195.37660280748136L182.71861979166667,166.8574615525348L182.73351128472223,176.96928568290812L183.00155815972224,127.23879391167844L183.1802560763889,147.63953182952744L183.19514756944443,90.40444666360106L183.43341145833332,62.79880662688189L183.53765190972223,169.02177033254077L183.56743489583332,147.81502014398575L183.61210937500002,122.281150121774L183.83548177083333,156.5664613097906L184.0439626736111,144.02966278578555L184.1184201388889,129.88200775853227L184.77364583333335,111.14686400336879L184.80342881944443,-77.71157827121867L185.19060763888888,130.53361291970526L185.56289496527776,79.144577603255L185.74159288194446,155.88598488271236L185.84583333333333,67.76205511604037L185.90539930555556,104.44440668821335L186.27768663194445,95.56773110798427L186.5308420138889,187.96643328826343L186.57551649305555,124.37263549012798L187.37965711805555,54.248060792684576L187.46900607638887,202.76960381413144L187.54346354166665,148.8265600332192L187.73705295138888,70.49694111943245L188.45184461805556,183.12315362212914L188.58586805555558,0.2063825471060785L188.6752170138889,106.37641716854912L188.74967447916669,178.52828694347824L188.92837239583332,69.36631785546031L189.0028298611111,123.9901406701122L189.03261284722223,191.6078111034419L189.09217881944443,120.63235121752535L189.2113107638889,29.96946442978724L189.24109374999998,28.473603167704187L189.53892361111113,45.848924428224585L189.7771875,172.09595729304212L189.83675347222223,178.85990616572755L190.03034288194445,121.83200176911694L190.06012586805556,63.60951930923122L190.2090407986111,146.86062934781825L190.2834982638889,170.43916580506732L190.32817274305555,100.65661905705929L190.3430642361111,151.27631284935134L190.59621961805556,116.15949036393847L190.64089409722223,117.91334676529681L191.29611979166665,156.1075353473425L191.77264756944444,157.7253953697426L191.96623697916667,64.41413746987071L192.17471788194445,189.16608619477068L192.21939236111112,141.56463598672835L192.23428385416665,186.93338124454021L192.51722222222222,185.71012266352773L192.71081163194447,157.29171410309417L192.7554861111111,112.3033348215478L193.00864149305556,-45.02996464286531L193.1277734375,110.96580866830689L193.18733940972223,159.18738823490483L193.29157986111113,97.23283544821399L193.79789062499998,153.94966961656297L194.18506944444445,178.28956443390675L194.1999609375,81.48239656857082L194.5722482638889,34.143806755542776L194.61692274305557,190.3917703389057L194.94453559027778,87.23457006045751L194.98921006944445,101.49749349909169L195.0338845486111,187.11329680042607L195.79335069444446,186.06648969437396L195.88269965277777,156.76341703534126L196.07628906250002,123.0544667435544L196.09118055555555,196.81756392094707L196.1060720486111,160.8873311973044L196.29966145833333,152.7249345034361L196.8208637152778,125.2030917853117L197.02934461805555,-1.9108938574790955L197.05912760416666,162.59721661359072L197.13358506944445,153.34203544046198L197.31228298611111,153.227982165558L198.23555555555555,147.35865161993672L198.84610677083333,-55.14167102745599L198.92056423611112,197.80405457238L199.17371961805557,99.4513261275632L199.41198350694444,176.65700267308523L199.57578993055554,-84.98480120301242L199.70981336805556,179.69612022968275L199.8587282986111,93.43792655212539L199.87361979166667,174.24497796062914L200.05231770833333,163.14432474757942L201.3329861111111,158.32187195547988L201.40744357638889,26.22352835961752L201.6754904513889,46.45954463737353L202.22647569444445,-47.86737425412448L202.28604166666668,86.30156189841884L202.3456076388889,164.3927832809942L202.44984809027778,88.42171130010061L202.4796310763889,174.24227451745955L202.50941406249999,176.80496908830744L202.68811197916665,115.15311244981629L202.86680989583334,146.99953169269222L203.41779513888886,189.95868251100183L204.04323784722223,171.93700519629886L204.23682725694445,115.30283798703127L204.57933159722222,189.0798091499933L205.02607638888887,169.83106064583572L205.44303819444445,23.890993825026925L205.47282118055554,-94.72475118296487L205.86,97.72944948077202L206.29185329861113,37.20657237512725L206.44076822916668,77.428738960198L206.5599001736111,149.10548566281796L206.58968315972223,176.0679888150522L206.72370659722222,131.2156624304397L206.91729600694444,152.67598051684243L207.0364279513889,176.97393428640706L207.25980034722224,-19.489114650658195L207.60230468749998,19.57718397464072L208.12350694444444,136.16358041869742L208.4660112847222,68.67576238938742L209.12123697916667,10.431765420096273L209.16591145833334,189.4954823766436L209.4488498263889,189.16503590238946L209.58287326388887,156.19145983138253L209.68711371527777,90.93781621967044L209.9104861111111,192.9576746597886L209.92537760416667,128.74629787674974L210.34233940972223,184.9552049977439L210.71462673611111,95.5779514419181L211.31028645833334,120.14882109633514L211.8910546875,154.79032740635532L211.90594618055556,-15.933870230402242L212.01018663194444,139.21901754076993L212.41225694444444,149.6271936765739L212.53138888888887,93.20990477928095L212.72497829861112,201.25552610201495L212.99302517361113,117.0602738601821L213.32063802083331,77.69151928808009L213.5737934027778,123.33058531369483L214.22901909722222,117.38977365834373L214.2736935763889,69.35014429475581L214.42260850694444,142.92959690732616L214.60130642361113,73.10201475237098L214.7353298611111,62.128842543278424L214.78000434027777,3.6172800574983928L214.98848524305555,116.04478713231427L215.12250868055557,133.798731731517L215.7181684027778,23.515921699149278L215.98621527777777,172.8860833027533L216.09045572916668,155.95719282222646L216.1500217013889,104.74292521604471L216.31382812500001,187.39371309163315L217.5200390625,166.07055235760552L217.7880859375,-0.11718286361010333L218.07102430555557,114.09571764298849L218.0859157986111,169.6308315875275L218.1305902777778,98.37225667706558L218.14548177083333,61.876800630773836L218.4135286458333,-2.1530168652534485L218.54755208333333,100.26688051649504L218.71135850694446,164.8392847084573L218.91983940972221,151.21679942096983L219.35169270833333,139.84672030806541L219.72398003472222,79.87720128255232L220.02180989583331,167.40296834387948L220.14094184027778,98.61504848088538L220.33453125,132.6752485718046L220.4983376736111,173.81046305383953L220.51322916666666,116.35423246877534L220.58768663194445,178.48904462903738L220.64725260416668,113.85515829920769L220.72171006944444,85.18891135071006L220.79616753472223,118.27032371929714L221.85346354166666,152.1187368258834L222.19596788194445,91.7107937335968L222.22575086805554,62.02807099265712L222.3746657986111,170.45170808583498L222.73206163194445,165.41086041608025L222.83630208333335,168.48686066163438L222.92565104166667,174.27100448842558L222.9852170138889,70.61823811488493L223.37239583333334,151.1981437791671L223.40217881944443,193.81387489289045L223.4468532986111,145.66346558715617L223.49152777777778,60.98405210673809L223.53620225694445,156.03914388694932L223.56598524305556,22.48414837462562L223.6106597222222,174.5706910544208L223.7893576388889,50.85566349966186L223.819140625,115.16171260178089L223.83403211805555,166.56489625147412L223.89359809027778,184.4658417504813L224.02762152777777,153.10116053798367L224.35523437499998,65.89515334367752L224.38501736111112,73.50296269144332L224.60838975694446,44.62625222120967L224.66795572916666,145.22526288245407L224.81687065972224,40.06297202621188L224.83176215277777,180.81339583173394L224.99556857638888,148.37400176269668L226.0975390625,150.98914501496722L226.2315625,181.6588835535305L226.24645399305555,-12.35364486489976L226.32091145833334,60.27719120468413L226.35069444444446,139.74423908868005L226.499609375,-13.263150968721929L226.81233072916666,48.731190472841284L227.02081163194447,68.94367643339294L227.22929253472225,-48.23415707690372L227.3782074652778,156.66033295754877L227.49733940972223,95.8364364036492L227.63136284722222,182.11908823517817L228.25680555555553,112.21233146105494L228.33126302083332,131.60626757996422L228.39082899305555,167.28250969839948L228.55463541666668,184.20977528712578L228.56952690972224,157.98739857545922L228.62909288194444,68.38841558141368L228.70355034722223,-127.0573663115501L228.91203124999998,54.87635228889331L229.73106336805557,35.858656334025525L230.07356770833331,134.48367307867323L230.1480251736111,-93.12013049636568L230.29694010416665,-35.210606907095205L230.84792534722223,157.96330778832947L231.0266232638889,176.31230895913075L231.27977864583335,59.90928744205409L231.4882595486111,174.8636661108051L231.5925,80.99722742608616L231.77119791666667,74.43517960182258L231.81587239583334,188.5640920416585L231.860546875,83.92185369346824L232.0988107638889,99.59317682683468L232.41153211805556,181.81321295084697L232.42642361111112,170.66733358268226L232.60512152777778,98.70725755819254L232.88805989583335,117.0981220645564L233.37947916666667,158.66140369432313L233.76665798611108,139.87813017304455L233.82622395833332,143.49487086066176L233.84111545138887,85.64577440704619L233.88578993055555,152.4748801397426L234.0347048611111,48.39087690200125L234.2431857638889,137.01297965539354L234.36231770833334,12.631953694990717L234.45166666666668,182.2984692252108L234.58569010416667,100.9299305677414L234.66014756944446,167.0916108159082L234.94308593749997,151.40502311927932L235.03243489583335,124.23506131768227L235.1664583333333,179.73782343098097L235.56852864583334,166.94107518770863L235.67276909722221,104.32144241247859L235.6876605902778,145.76567834615707L235.92592447916667,-59.47224787729127L236.23864583333332,127.35234794446401L236.47690972222222,39.28605709331378L236.74495659722223,63.227909937500954L236.9832204861111,126.823725898351L237.28105034722222,149.42643240732806L237.54909722222223,174.68225753839525L237.57888020833332,173.05122882766383L237.68312065972222,152.515285782516L237.8320355902778,108.42442137428694L238.26388888888889,75.09113664712225L238.35323784722223,67.31220028868744L239.14248697916668,150.0512857266835L239.29140190972223,183.18789496326022" style="fill: none;" fill="none"></path></g></g></g></g></g></g><g transform="translate(61, 177)" clip-path="url(#clip_1)"><clipPath id="clip_1"><rect width="268" height="23"></rect></clipPath><g><g><line x1="0" y1="0" x2="0" y2="5" style="visibility: inherit;" fill="rgb(0, 0, 0)" stroke="rgb(204, 204, 204)" stroke-width="1px"></line><line x1="29.78298611111111" y1="0" x2="29.78298611111111" y2="5" style="visibility: inherit;" fill="rgb(0, 0, 0)" stroke="rgb(204, 204, 204)" stroke-width="1px"></line><line x1="59.56597222222222" y1="0" x2="59.56597222222222" y2="5" style="visibility: inherit;" fill="rgb(0, 0, 0)" stroke="rgb(204, 204, 204)" stroke-width="1px"></line><line x1="89.34895833333333" y1="0" x2="89.34895833333333" y2="5" style="visibility: inherit;" fill="rgb(0, 0, 0)" stroke="rgb(204, 204, 204)" stroke-width="1px"></line><line x1="119.13194444444444" y1="0" x2="119.13194444444444" y2="5" style="visibility: inherit;" fill="rgb(0, 0, 0)" stroke="rgb(204, 204, 204)" stroke-width="1px"></line><line x1="148.91493055555557" y1="0" x2="148.91493055555557" y2="5" style="visibility: inherit;" fill="rgb(0, 0, 0)" stroke="rgb(204, 204, 204)" stroke-width="1px"></line><line x1="178.69791666666666" y1="0" x2="178.69791666666666" y2="5" style="visibility: inherit;" fill="rgb(0, 0, 0)" stroke="rgb(204, 204, 204)" stroke-width="1px"></line><line x1="208.48090277777777" y1="0" x2="208.48090277777777" y2="5" style="visibility: inherit;" fill="rgb(0, 0, 0)" stroke="rgb(204, 204, 204)" stroke-width="1px"></line><line x1="238.26388888888889" y1="0" x2="238.26388888888889" y2="5" style="visibility: inherit;" fill="rgb(0, 0, 0)" stroke="rgb(204, 204, 204)" stroke-width="1px"></line><line x1="268.046875" y1="0" x2="268.046875" y2="5" style="visibility: inherit;" fill="rgb(0, 0, 0)" stroke="rgb(204, 204, 204)" stroke-width="1px"></line></g><g transform="translate(0, 8)"><text x="0" y="0" dx="0em" dy="0.95em" style="text-anchor: middle; visibility: hidden; font-family: Roboto, sans-serif; font-size: 12px; font-weight: 200;" fill="rgb(33, 33, 33)" stroke="none" stroke-width="1px">-2k</text><text x="29.78298611111111" y="0" dx="0em" dy="0.95em" style="text-anchor: middle; visibility: inherit; font-family: Roboto, sans-serif; font-size: 12px; font-weight: 200;" fill="rgb(33, 33, 33)" stroke="none" stroke-width="1px">0</text><text x="59.56597222222222" y="0" dx="0em" dy="0.95em" style="text-anchor: middle; visibility: inherit; font-family: Roboto, sans-serif; font-size: 12px; font-weight: 200;" fill="rgb(33, 33, 33)" stroke="none" stroke-width="1px">2k</text><text x="89.34895833333333" y="0" dx="0em" dy="0.95em" style="text-anchor: middle; visibility: inherit; font-family: Roboto, sans-serif; font-size: 12px; font-weight: 200;" fill="rgb(33, 33, 33)" stroke="none" stroke-width="1px">4k</text><text x="119.13194444444444" y="0" dx="0em" dy="0.95em" style="text-anchor: middle; visibility: inherit; font-family: Roboto, sans-serif; font-size: 12px; font-weight: 200;" fill="rgb(33, 33, 33)" stroke="none" stroke-width="1px">6k</text><text x="148.91493055555557" y="0" dx="0em" dy="0.95em" style="text-anchor: middle; visibility: inherit; font-family: Roboto, sans-serif; font-size: 12px; font-weight: 200;" fill="rgb(33, 33, 33)" stroke="none" stroke-width="1px">8k</text><text x="178.69791666666666" y="0" dx="0em" dy="0.95em" style="text-anchor: middle; visibility: inherit; font-family: Roboto, sans-serif; font-size: 12px; font-weight: 200;" fill="rgb(33, 33, 33)" stroke="none" stroke-width="1px">10k</text><text x="208.48090277777777" y="0" dx="0em" dy="0.95em" style="text-anchor: middle; visibility: inherit; font-family: Roboto, sans-serif; font-size: 12px; font-weight: 200;" fill="rgb(33, 33, 33)" stroke="none" stroke-width="1px">12k</text><text x="238.26388888888889" y="0" dx="0em" dy="0.95em" style="text-anchor: middle; visibility: inherit; font-family: Roboto, sans-serif; font-size: 12px; font-weight: 200;" fill="rgb(33, 33, 33)" stroke="none" stroke-width="1px">14k</text><text x="268.046875" y="0" dx="0em" dy="0.95em" style="text-anchor: middle; visibility: hidden; font-family: Roboto, sans-serif; font-size: 12px; font-weight: 200;" fill="rgb(33, 33, 33)" stroke="none" stroke-width="1px">16k</text></g><line x1="0" y1="0" x2="268.046875" y2="0" fill="rgb(0, 0, 0)" stroke="rgb(204, 204, 204)" stroke-width="1px"></line></g></g></g></g></svg>