<svg viewBox="0 0 330 200" xmlns="http://www.w3.org/2000/svg"><g><g><g><g><g><line x1="60" y1="177" x2="55" y2="177" style="visibility: inherit;" fill="rgb(0, 0, 0)" stroke="rgb(204, 204, 204)" stroke-width="1px"></line><line x1="60" y1="157.33333333333331" x2="55" y2="157.33333333333331" style="visibility: inherit;" fill="rgb(0, 0, 0)" stroke="rgb(204, 204, 204)" stroke-width="1px"></line><line x1="60" y1="137.66666666666666" x2="55" y2="137.66666666666666" style="visibility: inherit;" fill="rgb(0, 0, 0)" stroke="rgb(204, 204, 204)" stroke-width="1px"></line><line x1="60" y1="118.00000000000001" x2="55" y2="118.00000000000001" style="visibility: inherit;" fill="rgb(0, 0, 0)" stroke="rgb(204, 204, 204)" stroke-width="1px"></line><line x1="60" y1="98.33333333333334" x2="55" y2="98.33333333333334" style="visibility: inherit;" fill="rgb(0, 0, 0)" stroke="rgb(204, 204, 204)" stroke-width="1px"></line><line x1="60" y1="78.66666666666666" x2="55" y2="78.66666666666666" style="visibility: inherit;" fill="rgb(0, 0, 0)" stroke="rgb(204, 204, 204)" stroke-width="1px"></line><line x1="60" y1="58.999999999999986" x2="55" y2="58.999999999999986" style="visibility: inherit;" fill="rgb(0, 0, 0)" stroke="rgb(204, 204, 204)" stroke-width="1px"></line><line x1="60" y1="39.33333333333335" x2="55" y2="39.33333333333335" style="visibility: inherit;" fill="rgb(0, 0, 0)" stroke="rgb(204, 204, 204)" stroke-width="1px"></line><line x1="60" y1="19.666666666666657" x2="55" y2="19.666666666666657" style="visibility: inherit;" fill="rgb(0, 0, 0)" stroke="rgb(204, 204, 204)" stroke-width="1px"></line><line x1="60" y1="0" x2="55" y2="0" style="visibility: inherit;" fill="rgb(0, 0, 0)" stroke="rgb(204, 204, 204)" stroke-width="1px"></line></g><g transform="translate(50, 0)"><text x="0" y="177" dx="0em" dy="0.3em" style="text-anchor: end; visibility: hidden; font-family: Roboto, sans-serif; font-size: 12px; font-weight: 200;" fill="rgb(33, 33, 33)" stroke="none" stroke-width="1px">-5e-3</text><text x="0" y="157.33333333333331" dx="0em" dy="0.3em" style="text-anchor: end; visibility: inherit; font-family: Roboto, sans-serif; font-size: 12px; font-weight: 200;" fill="rgb(33, 33, 33)" stroke="none" stroke-width="1px">0</text><text x="0" y="137.66666666666666" dx="0em" dy="0.3em" style="text-anchor: end; visibility: hidden; font-family: Roboto, sans-serif; font-size: 12px; font-weight: 200;" fill="rgb(33, 33, 33)" stroke="none" stroke-width="1px">5e-3</text><text x="0" y="118.00000000000001" dx="0em" dy="0.3em" style="text-anchor: end; visibility: inherit; font-family: Roboto, sans-serif; font-size: 12px; font-weight: 200;" fill="rgb(33, 33, 33)" stroke="none" stroke-width="1px">0.01</text><text x="0" y="98.33333333333334" dx="0em" dy="0.3em" style="text-anchor: end; visibility: hidden; font-family: Roboto, sans-serif; font-size: 12px; font-weight: 200;" fill="rgb(33, 33, 33)" stroke="none" stroke-width="1px">0.015</text><text x="0" y="78.66666666666666" dx="0em" dy="0.3em" style="text-anchor: end; visibility: inherit; font-family: Roboto, sans-serif; font-size: 12px; font-weight: 200;" fill="rgb(33, 33, 33)" stroke="none" stroke-width="1px">0.02</text><text x="0" y="58.999999999999986" dx="0em" dy="0.3em" style="text-anchor: end; visibility: hidden; font-family: Roboto, sans-serif; font-size: 12px; font-weight: 200;" fill="rgb(33, 33, 33)" stroke="none" stroke-width="1px">0.025</text><text x="0" y="39.33333333333335" dx="0em" dy="0.3em" style="text-anchor: end; visibility: inherit; font-family: Roboto, sans-serif; font-size: 12px; font-weight: 200;" fill="rgb(33, 33, 33)" stroke="none" stroke-width="1px">0.03</text><text x="0" y="19.666666666666657" dx="0em" dy="0.3em" style="text-anchor: end; visibility: hidden; font-family: Roboto, sans-serif; font-size: 12px; font-weight: 200;" fill="rgb(33, 33, 33)" stroke="none" stroke-width="1px">0.035</text><text x="0" y="0" dx="0em" dy="0.3em" style="text-anchor: end; visibility: hidden; font-family: Roboto, sans-serif; font-size: 12px; font-weight: 200;" fill="rgb(33, 33, 33)" stroke="none" stroke-width="1px">0.04</text></g><line x1="60" y1="0" x2="60" y2="177" fill="rgb(0, 0, 0)" stroke="rgb(204, 204, 204)" stroke-width="1px"></line></g></g><g transform="translate(60, 0)" clip-path="url(#clip_0)"><clipPath id="clip_0"><rect width="270" height="177"></rect></clipPath><g><g><g><line x1="0" y1="0" x2="0" y2="177" fill="rgb(0, 0, 0)" stroke="rgb(66, 66, 66)" stroke-width="1px" opacity="0.25"></line><line x1="30" y1="0" x2="30" y2="177" fill="rgb(0, 0, 0)" stroke="rgb(66, 66, 66)" stroke-width="1px" opacity="0.25"></line><line x1="60" y1="0" x2="60" y2="177" fill="rgb(0, 0, 0)" stroke="rgb(66, 66, 66)" stroke-width="1px" opacity="0.25"></line><line x1="90" y1="0" x2="90" y2="177" fill="rgb(0, 0, 0)" stroke="rgb(66, 66, 66)" stroke-width="1px" opacity="0.25"></line><line x1="120" y1="0" x2="120" y2="177" fill="rgb(0, 0, 0)" stroke="rgb(66, 66, 66)" stroke-width="1px" opacity="0.25"></line><line x1="150" y1="0" x2="150" y2="177" fill="rgb(0, 0, 0)" stroke="rgb(66, 66, 66)" stroke-width="1px" opacity="0.25"></line><line x1="180" y1="0" x2="180" y2="177" fill="rgb(0, 0, 0)" stroke="rgb(66, 66, 66)" stroke-width="1px" opacity="0.25"></line><line x1="210" y1="0" x2="210" y2="177" fill="rgb(0, 0, 0)" stroke="rgb(66, 66, 66)" stroke-width="1px" opacity="0.25"></line><line x1="240" y1="0" x2="240" y2="177" fill="rgb(0, 0, 0)" stroke="rgb(66, 66, 66)" stroke-width="1px" opacity="0.25"></line><line x1="270" y1="0" x2="270" y2="177" fill="rgb(0, 0, 0)" stroke="rgb(66, 66, 66)" stroke-width="1px" opacity="0.25"></line></g><g><line x1="0" y1="177" x2="270" y2="177" fill="rgb(0, 0, 0)" stroke="rgb(66, 66, 66)" stroke-width="1px" opacity="0.25"></line><line x1="0" y1="157.33333333333331" x2="270" y2="157.33333333333331" fill="rgb(0, 0, 0)" stroke="rgb(66, 66, 66)" stroke-width="1px" opacity="0.25"></line><line x1="0" y1="137.66666666666666" x2="270" y2="137.66666666666666" fill="rgb(0, 0, 0)" stroke="rgb(66, 66, 66)" stroke-width="1px" opacity="0.25"></line><line x1="0" y1="118.00000000000001" x2="270" y2="118.00000000000001" fill="rgb(0, 0, 0)" stroke="rgb(66, 66, 66)" stroke-width="1px" opacity="0.25"></line><line x1="0" y1="98.33333333333334" x2="270" y2="98.33333333333334" fill="rgb(0, 0, 0)" stroke="rgb(66, 66, 66)" stroke-width="1px" opacity="0.25"></line><line x1="0" y1="78.66666666666666" x2="270" y2="78.66666666666666" fill="rgb(0, 0, 0)" stroke="rgb(66, 66, 66)" stroke-width="1px" opacity="0.25"></line><line x1="0" y1="58.999999999999986" x2="270" y2="58.999999999999986" fill="rgb(0, 0, 0)" stroke="rgb(66, 66, 66)" stroke-width="1px" opacity="0.25"></line><line x1="0" y1="39.33333333333335" x2="270" y2="39.33333333333335" fill="rgb(0, 0, 0)" stroke="rgb(66, 66, 66)" stroke-width="1px" opacity="0.25"></line><line x1="0" y1="19.666666666666657" x2="270" y2="19.666666666666657" fill="rgb(0, 0, 0)" stroke="rgb(66, 66, 66)" stroke-width="1px" opacity="0.25"></line><line x1="0" y1="0" x2="270" y2="0" fill="rgb(0, 0, 0)" stroke="rgb(66, 66, 66)" stroke-width="1px" opacity="0.25"></line></g></g></g><g><g><line x1="0" y1="157.33333333333331" x2="270" y2="157.33333333333331" fill="rgb(0, 0, 0)" stroke="rgb(153, 153, 153)" stroke-width="1.5px"></line></g></g><g><g><line x1="30" y1="0" x2="30" y2="177" fill="rgb(0, 0, 0)" stroke="rgb(153, 153, 153)" stroke-width="1.5px"></line></g></g><g><g><g><g><g><path stroke="rgb(255, 112, 67)" stroke-width="2px" d="M38.339999999999996,-11.176441284591032L38.580000000000005,2.388003679873668L38.625,10.52667065835757L38.67,15.409870845377721L38.745,18.339790957564595L39.015,20.09774302486762L39.120000000000005,21.15251426524614L39.555,21.785377009472104L39.63,22.165094656007213L39.645,22.392925243928143L40.035000000000004,22.529623596680658L40.32,22.611642608332176L41.46,22.66085401532305L41.475,22.690380859517575L41.805,22.70809696603425L41.94,22.71872662994429L42.015,22.725104428290333L42.135,22.728931107297928L42.660000000000004,22.73122711470247L43.065,22.732604719145236L43.44,22.733431281810876L43.665,22.733927219410297L43.725,22.734224781969925L43.785,22.734403319505677L44.19,22.734510442027133L44.265,22.734574715539996L44.355,22.73461327964771L44.505,22.73463641811236L44.550000000000004,22.73465030119116L44.76,22.734658631038425L44.835,22.73466362894678L44.985,71.19018487587235L45.225,100.26349762402769L46.035000000000004,117.70748527292092L46.455,128.17387786225683L46.785000000000004,134.45371341585837L47.415,138.22161474801933L47.519999999999996,140.48235554731588L47.58,141.83880002689384L47.63999999999999,142.6526667146406L47.715,143.14098672728863L48.120000000000005,143.43397873487746L48.315,143.60977393943077L48.375,143.71525106216274L48.525,143.77853733580193L48.78,143.81650909998544L48.795,143.83929215849554L48.825,143.8529619936016L49.23,143.86116389466528L49.305,143.86608503530343L49.335,143.86903771968633L49.394999999999996,143.8708093303161L49.68,143.87187229669397L49.995000000000005,143.87251007652065L50.04,143.87289274441667L50.055,143.8731223451543L50.49,143.87326010559687L51.21,143.8733427618624L51.330000000000005,143.87339235562175L52.08,143.87342211187732L52.245000000000005,143.8734399656307L52.515,148.71900266754486L52.995,151.62634028869334L53.01,153.37074286138247L53.114999999999995,154.41738440499591L53.445,155.04536933116398L53.925,155.42216028686482L53.97,155.64823486028533L54.18,155.78387960433764L54.3,155.865266450769L54.405,155.91409855862784L54.464999999999996,155.94339782334316L54.675000000000004,155.96097738217233L54.75,155.97152511746984L54.915,155.97785375864834L55.08,155.98165094335545L55.155,155.9839292541797L55.2,155.98529624067427L55.275,155.98611643257098L55.575,155.98660854770904L55.87499999999999,155.98690381679185L55.980000000000004,155.98708097824155L56.324999999999996,155.98718727511138L56.475,155.98725105323325L56.895,155.9872893201064L56.955,155.98731228023027L57,155.98732605630462L57.195,155.9873343219492L57.48,155.98733928133595L57.555,155.98734225696802L58.004999999999995,155.98734404234725L58.05,155.9873451135748L58.68,155.9873457563113L59.1,155.98734614195322L59.519999999999996,155.98734637333837L59.64,155.98734651216947L59.82,155.98734659546813L60.105000000000004,156.471901823808L60.120000000000005,156.76263496081194L60.21,156.93707484301433L60.39,157.04173877233575L60.480000000000004,157.10453712992856L60.675,157.1422161444843L60.809999999999995,157.1648235532177L60.93,157.17838799845777L60.96,157.1865266656018L60.975,157.19140986588823L61.575,157.19433978606008L61.68,157.1960977381632L62.115,157.19715250942505L62.205,157.19778537218218L62.265,157.19816508983646L62.4,157.198392920429L62.595,157.19852961878456L63.03,157.19861163779788L63.089999999999996,157.19866084920588L63.225,157.19869037605065L63.614999999999995,157.19870809215752L63.795,157.19871872182165L63.84,157.19872509962013L63.93,157.19872892629922L64.395,157.1987312223067L64.62,157.19873259991115L64.74,157.1987334264738L65.58,157.19873392241144L65.625,157.198734219974L65.83500000000001,157.19873439851156L66.27,157.19873450563406L66.61500000000001,157.1987345699076L66.795,157.19873460847168L67.08,157.19873463161017L67.935,157.24719016569034L68.01,157.27626348613848L68.10000000000001,157.29370747840733L68.295,157.30417387376866L68.49,157.31045371098546L69.015,157.31422161331554L69.72,157.31648235471357L70.035,157.31783879955242L70.21499999999999,157.3186526664557L70.32,157.3191409865977L70.545,157.31943397868287L70.64999999999999,157.319609773934L70.695,157.31971525108466L70.77000000000001,157.31977853737504L71.295,157.3198165091493L71.39999999999999,157.31983929221383L71.55,157.31985296205258L71.79,157.3198611639558L71.985,157.31986608509774L72.375,157.3198690377829L72.675,157.31987080939402L73.155,157.31987187236066L73.545,157.31987251014067L73.56,157.31987289280866L73.59,157.31987312240946L75.315,157.32471881211808L75.39,157.32762622594328L75.73500000000001,157.3293706742384L75.885,157.33041734321546L75.915,157.3310453446017L76.16999999999999,157.33142214543344L76.215,157.3316482259325L76.26,157.33178387423192L76.35000000000001,157.3318652632116L76.77,157.33191409659938L76.845,157.33194339663206L76.86,157.33196097665166L77.295,157.33197152466343L77.64,157.33197785347048L77.745,157.33198165075473L77.83500000000001,157.33198392912524L78.075,157.3319852961476L78.105,157.33198611636098L78.225,157.33198660848902L78.40499999999999,157.33198690376582L78.58500000000001,157.33198708093192L79.065,157.3319871872316L79.21499999999999,157.33198725101138L79.23,157.33198728927925L79.485,157.33198731224L79.53,157.33198732601642L79.815,157.33198733428227L79.92,157.3319873392418L80.085,157.3319873422175L80.115,157.33198734400293L80.235,157.33198734507417L80.31,157.33198734571695L80.385,157.33198734610258L80.415,157.331987346334L80.52,157.33198734647283L80.745,157.3319873465561L81.015,157.3319873466061L81.375,157.33198734663608L81.465,157.33198734665407L81.81,157.33198734666487L81.85499999999999,157.33198734667135L81.96000000000001,157.33198734667525L82.155,157.33198734667755L82.23,157.33198734667897L82.33500000000001,157.3319873466798L82.725,157.33247190187288L82.8,157.33276263498874L83.325,157.33293707485825L83.76,157.33304173877997L83.865,157.33310453713298L84.075,157.33314221614478L84.315,157.3331648235519L84.38999999999999,157.33317838799613L84.435,157.3331865266627L84.51,157.33319140986262L84.645,157.33319433978258L84.765,157.33319609773454L84.915,157.33319715250573L84.97500000000001,157.33319778536844L85.305,157.33319816508606L85.365,157.33319839291664L85.63499999999999,157.333198529615L85.65,157.333198611634L85.77,157.3331986608454L85.875,157.33319869037226L85.935,157.33319870808836L86.505,157.33319871871802L86.78999999999999,157.33319872509583L86.86500000000001,157.3331987289225L87.045,157.33319873121852L87.08999999999999,157.3331987325961L87.105,157.33319873342265L87.195,157.3331987339186L87.24000000000001,157.33319873421615L87.63,157.33319873439473L87.705,157.33319873450182L87.78,157.3331987345661L87.81,157.33319873460465L88.395,157.3331987346278L88.56,157.33319873464168L88.635,157.33319873465L88.67999999999999,157.333198734655L88.75500000000001,157.33319873465803L88.785,157.33319873465982L88.94999999999999,157.3331987346609L89.04,157.33319873466152L89.16,157.33319873466192L89.22,157.33319873466218L89.415,157.3331987346623L89.46,157.3331987346624L89.75999999999999,157.33319873466243L90.15,157.3332471901841L90.18,157.33327626349708L90.57,157.3332937074849L90.66,157.3333041738776L90.735,157.3333104537132L90.9,157.33331422161456L91.44,157.33331648235537L91.515,157.33331783879987L91.77000000000001,157.33331865266655L91.95,157.3333191409866L91.98,157.33331943397857L92.355,157.33331960977378L92.505,157.33331971525092L92.52,157.33331977853717L92.955,157.33331981650898L93.01499999999999,157.33331983929202L93.36,157.33331985296184L93.47999999999999,157.33331986116374L93.54,157.33331986608488L93.705,157.33331986903758L93.88499999999999,157.3333198708092L94.935,157.33331987187213L95.145,157.33331987250992L95.265,157.3333198728926L95.27999999999999,157.3333198731222L95.82,157.33331987325997L95.88,157.33331987334262L95.97,157.3333198733922L96.11999999999999,157.33331987342197L96.645,157.33331987343982L96.81,157.33331987345053L96.855,157.33331987345696L96.915,157.3333198734608L97.005,157.33331987346313L97.23,157.33331987346452L97.365,157.33331987346534L97.515,157.3333247190179L97.69500000000001,157.33332762634942L97.92,157.33332937074832L98.00999999999999,157.33333041738769L98.175,157.3333310453713L98.35499999999999,157.33333142216145L98.595,157.33333164823554L98.685,157.33333178388L98.745,157.33333186526667L98.955,157.3333319140987L99.03,157.3333319433979L99.075,157.3333319609774L99.27,157.33333197152513L99.45,157.33333197785376L99.465,157.33333198165093L99.78,157.33333198392924L99.96000000000001,157.3333319852962L100.065,157.3333319861164L100.185,157.33333198660853L100.23,157.3333319869038L100.29,157.33333198708095L100.80000000000001,157.33333198718725L100.935,157.33333198725103L101.10000000000001,157.3333319872893L101.22,157.33333198731225L101.28,157.33333198732603L101.79,157.3333319873343L101.80499999999999,157.33333198733925L102.315,157.33333198734223L102.585,157.33333198734402L102.825,157.3333319873451L103.575,157.33333198734573L103.62,157.33333198734613L103.815,157.33333198734636L104.025,157.3333319873465L104.04,157.33333198734658L104.07,157.33333198734664L104.175,157.33333198734667L104.385,157.33333198734667L104.445,157.3333319873467L104.71499999999999,157.3333319873467L104.97,157.3333319873467L105.03,157.33333247190188L105.14999999999999,157.333332762635L105.165,157.33333293707489L105.285,157.3333330417388L105.315,157.33333310453713L105.60000000000001,157.33333314221613L105.82499999999999,157.33333316482356L105.855,157.333333178388L105.92999999999999,157.3333331865267L106.19999999999999,157.33333319140988L106.44,157.3333331943398L106.92,157.33333319609775L107.22000000000001,157.3333331971525L107.745,157.33333319778538L107.91,157.3333331981651L108.24000000000001,157.33333319839292L108.42,157.33333319852963L108.89999999999999,157.33333319861163L109.05000000000001,157.33333319866085L109.185,157.33333319869038L109.53,157.3333331987081L109.95,157.33333319871872L109.98,157.33333319872511L110.34,157.33333319872892L110.655,157.33333319873122L110.97,157.33333319873262L111.015,157.33333319873344L111.3,157.33333319873392L111.36,157.3333331987342L111.42,157.3333331987344L111.63,157.33333319873452L111.81,157.33333319873458L111.9,157.3333331987346L112.23,157.33333319873464L112.515,157.33333324719018L112.545,157.3333332762635L112.68,157.33333329370748L112.77000000000001,157.33333330417386L112.89,157.3333333104537L113.16,157.33333331422162L113.25,157.33333331648237L113.475,157.3333333178388L113.625,157.33333331865268L114.01499999999999,157.333333319141L114.09,157.33333331943396L114.27,157.33333331960978L114.435,157.33333331971525L114.55499999999999,157.33333331977855L114.82499999999999,157.3333333198165L115.095,157.33333331983928L115.275,157.33333331985295L115.47,157.33333331986117L115.695,157.33333331986609L115.83,157.33333331986904L116.025,157.3333333198708L116.27999999999999,157.33333331987188L116.67,157.3333333198725L116.86500000000001,157.3333333198729L117.075,157.33333331987313L117.645,157.33333331987325L117.94500000000001,157.33333331987336L118.155,157.3333333198734L118.35000000000001,157.33333331987342L118.77,157.33333331987345L119.10000000000001,157.33333331987345L119.145,157.33333331987345L119.235,157.33333331987347L119.67,157.33333331987347L119.745,157.33333331987347L119.985,157.333333324719L120.16499999999999,157.33333332762635L120.61500000000001,157.33333332937076L120.735,157.3333333304174L120.99000000000001,157.33333333104537L121.18499999999999,157.33333333142215L121.64999999999999,157.33333333164825L121.815,157.33333333178388L122.145,157.33333333186525L122.39999999999999,157.3333333319141L122.42999999999999,157.3333333319434L122.595,157.33333333196097L122.73,157.33333333197152L122.82000000000001,157.33333333197785L122.835,157.33333333198166L122.955,157.33333333198394L123.81,157.3333333319853L124.06500000000001,157.33333333198613L124.44,157.3333333319866L124.635,157.3333333319869L125.19,157.3333333319871L125.265,157.3333333319872L125.30999999999999,157.33333333198726L125.535,157.3333333319873L125.61,157.33333333198732L125.625,157.33333333198732L125.865,157.33333333198732L126.015,157.33333333198732L126.69,157.33333333198732L127.185,157.33333333198732L127.365,157.33333333198735L127.425,157.33333333198735L127.66499999999999,157.3333333324719L127.77,157.33333333276263L128.385,157.3333333329371L128.835,157.33333333304174L129.12,157.33333333310452L129.405,157.3333333331422L129.42,157.33333333316483L129.70499999999998,157.3333333331784L130.23,157.33333333318654L130.41,157.3333333331914L130.48499999999999,157.33333333319433L130.575,157.3333333331961L130.605,157.33333333319715L131.13,157.3333333331978L131.205,157.33333333319817L131.235,157.3333333331984L131.355,157.3333333331985L131.4,157.33333333319862L131.52,157.33333333319865L131.655,157.3333333331987L131.985,157.3333333331987L132.09,157.3333333331987L132.82500000000002,157.3333333331987L132.96,157.3333333331987L133.63500000000002,157.33333333319874L134.46,157.33333333319874L134.805,157.33333333319874L134.88,157.33333333319874L135.48,157.3333333332472L135.67499999999998,157.33333333327627L135.69,157.3333333332937L135.99,157.33333333330415L136.08,157.33333333331046L136.305,157.33333333331421L136.69500000000002,157.3333333333165L136.755,157.33333333331785L136.82999999999998,157.33333333331865L136.86,157.33333333331913L136.92,157.33333333331944L136.935,157.33333333331962L137.31,157.3333333333197L137.39999999999998,157.33333333331979L137.43,157.3333333333198L137.475,157.33333333331984L137.64,157.33333333331984L137.7,157.33333333331987L137.85,157.33333333331987L138.735,157.33333333331987L138.855,157.33333333331987L139.095,157.33333333331987L139.12499999999997,157.33333333331987L139.245,157.33333333331987L139.44,157.33333333331987L139.575,157.33333333331987L139.905,157.33333333331987L140.29500000000002,157.33333333331987L140.34,157.33333333331987L140.505,157.33333333331987L140.52,157.33333333331987L140.985,157.33333333331987L141.015,157.33333333331987L141.285,157.33333333331987L141.29999999999998,157.33333333331987L142.41000000000003,157.33333333331987L142.44,157.33333333331987L142.98,157.33333333332473L143.025,157.33333333332763L143.26500000000001,157.33333333332936L143.475,157.33333333333042L143.565,157.33333333333104L143.82,157.3333333333314L143.88,157.33333333333167L144,157.33333333333178L144.27,157.33333333333186L144.6,157.33333333333192L144.705,157.33333333333195L145.095,157.33333333333198L145.38,157.33333333333198L145.59,157.33333333333198L145.63500000000002,157.33333333333198L145.92,157.33333333333198L146.01000000000002,157.33333333333198L146.07000000000002,157.33333333333198L146.14499999999998,157.33333333333198L146.31,157.33333333333198L146.535,157.33333333333198L146.595,157.33333333333198L147.255,157.33333333333198L147.675,157.33333333333198L148.365,157.33333333333198L148.485,157.33333333333198L148.515,157.33333333333198L148.635,157.33333333333198L148.905,157.33333333333198L149.05499999999998,157.33333333333198L149.07,157.33333333333198L149.085,157.33333333333198L149.11499999999998,157.33333333333198L149.16,157.33333333333198L149.35500000000002,157.33333333333198L149.41500000000002,157.33333333333198L149.445,157.33333333333198L149.54999999999998,157.33333333333198L149.685,157.33333333333198L149.715,157.33333333333198L149.895,157.33333333333198L150.12,157.3333333333325L150.45,157.33333333333275L150.465,157.33333333333294L150.585,157.33333333333306L150.75,157.33333333333312L151.095,157.33333333333314L151.245,157.33333333333317L151.395,157.3333333333332L151.47000000000003,157.3333333333332L151.85999999999999,157.3333333333332L152.13,157.3333333333332L152.60999999999999,157.3333333333332L153.435,157.3333333333332L153.48,157.3333333333332L153.69,157.3333333333332L153.72,157.3333333333332L153.94500000000002,157.3333333333332L154.095,157.3333333333332L154.59,157.3333333333332L154.62,157.3333333333332L154.75500000000002,157.3333333333332L154.76999999999998,157.3333333333332L154.8,157.3333333333332L154.935,157.3333333333332L155.01,157.3333333333332L155.16,157.3333333333332L156.06,157.3333333333332L156.18,157.3333333333332L156.42000000000002,157.3333333333332L156.825,157.3333333333332L156.93,157.3333333333332L156.975,157.3333333333332L156.99,157.3333333333332L157.005,157.3333333333332L157.02,157.3333333333332L157.05,157.3333333333332L157.24499999999998,157.3333333333332L157.59,157.33333333333326L157.67999999999998,157.33333333333326L157.98000000000002,157.3333333333333L158.31,157.33333333333331L158.73000000000002,157.33333333333331L158.745,157.33333333333331L158.775,157.33333333333331L159.495,157.33333333333331L159.96,157.33333333333331L160.125,157.33333333333331L160.17,157.33333333333331L160.20000000000002,157.33333333333331L160.57500000000002,157.33333333333331L160.89000000000001,157.33333333333331L160.92,157.33333333333331L161.085,157.33333333333331L161.26500000000001,157.33333333333331L161.38500000000002,157.33333333333331L161.565,157.33333333333331L162.435,157.33333333333331L163.17,157.33333333333331L163.425,157.33333333333331L163.47,157.33333333333331L163.935,157.33333333333331L163.995,157.33333333333331L164.4,157.33333333333331L164.475,157.33333333333331L164.64,157.33333333333331L164.82,157.33333333333331L165.10500000000002,157.33333333333331L165.405,157.33333333333331L165.525,157.33333333333331L165.75,157.33333333333331L166.44,157.33333333333331L166.59,157.33333333333331L166.72500000000002,157.33333333333331L166.77,157.33333333333331L166.875,157.33333333333331L166.98000000000002,157.33333333333331L167.05499999999998,157.33333333333331L167.205,157.33333333333331L167.325,157.33333333333331L167.46,157.33333333333331L167.52,157.33333333333331L167.565,157.33333333333331L167.715,157.33333333333331L167.82,157.33333333333331L167.91000000000003,157.33333333333331L167.94,157.33333333333331L168.18,157.33333333333331L168.39000000000001,157.33333333333331L168.465,157.33333333333331L168.73499999999999,157.33333333333331L169.02,157.33333333333331L169.04999999999998,157.33333333333331L169.42499999999998,157.33333333333331L170.04,157.33333333333331L170.51999999999998,157.33333333333331L170.535,157.33333333333331L170.94,157.33333333333331L171,157.33333333333331L171.375,157.33333333333331L171.63000000000002,157.33333333333331L171.885,157.33333333333331L171.93,157.33333333333331L171.95999999999998,157.33333333333331L172.17000000000002,157.33333333333331L172.45499999999998,157.33333333333331L172.605,157.33333333333331L173.565,157.33333333333331L173.85,157.33333333333331L174.015,157.33333333333331L174.09,157.33333333333331L174.39,157.33333333333331L174.435,157.33333333333331L174.49499999999998,157.33333333333331L174.69,157.33333333333331L174.91500000000002,157.33333333333331L175.095,157.33333333333331L175.65,157.33333333333331L175.66500000000002,157.33333333333331L175.77,157.33333333333331L175.85999999999999,157.33333333333331L176.385,157.33333333333331L176.445,157.33333333333331L176.625,157.33333333333331L176.97000000000003,157.33333333333331L177.105,157.33333333333331L177.135,157.33333333333331L177.39000000000001,157.33333333333331L177.54,157.33333333333331L177.6,157.33333333333331L177.615,157.33333333333331L177.63,157.33333333333331L178.10999999999999,157.33333333333331L178.395,157.33333333333331L178.69500000000002,157.33333333333331L178.725,157.33333333333331L178.905,157.33333333333331L179.04,157.33333333333331L179.19,157.33333333333331L179.22,157.33333333333331L179.34,157.33333333333331L179.37,157.33333333333331L179.64,157.33333333333331L179.655,157.33333333333331L180.135,157.33333333333331L180.25500000000002,157.33333333333331L180.36,157.33333333333331L180.54,157.33333333333331L180.87,157.33333333333331L180.915,157.33333333333331L180.96,157.33333333333331L181.06500000000003,157.33333333333331L181.59,157.33333333333331L181.60500000000002,157.33333333333331L181.635,157.33333333333331L181.875,157.33333333333331L181.93499999999997,157.33333333333331L182.42999999999998,157.33333333333331L182.73000000000002,157.33333333333331L182.85,157.33333333333331L183.10500000000002,157.33333333333331L183.21,157.33333333333331L183.22500000000002,157.33333333333331L183.33,157.33333333333331L184.10999999999999,157.33333333333331L184.17,157.33333333333331L184.245,157.33333333333331L184.5,157.33333333333331L185.19,157.33333333333331L185.385,157.33333333333331L186.195,157.33333333333331L187.27499999999998,157.33333333333331L187.47,157.33333333333331L187.5,157.33333333333331L187.545,157.33333333333331L188.1,157.33333333333331L188.265,157.33333333333331L188.28,157.33333333333331L188.325,157.33333333333331L188.355,157.33333333333331L188.7,157.33333333333331L188.865,157.33333333333331L188.97,157.33333333333331L189.015,157.33333333333331L189.105,157.33333333333331L189.225,157.33333333333331L189.64499999999998,157.33333333333331L190.18499999999997,157.33333333333331L190.215,157.33333333333331L190.425,157.33333333333331L190.755,157.33333333333331L191.86499999999998,157.33333333333331L191.91,157.33333333333331L192.17999999999998,157.33333333333331L192.55499999999998,157.33333333333331L192.87,157.33333333333331L193.04999999999998,157.33333333333331L193.17,157.33333333333331L193.215,157.33333333333331L193.29,157.33333333333331L193.56,157.33333333333331L193.83,157.33333333333331L193.95000000000002,157.33333333333331L194.26500000000001,157.33333333333331L194.37,157.33333333333331L194.52,157.33333333333331L194.565,157.33333333333331L195.14999999999998,157.33333333333331L195.345,157.33333333333331L195.54,157.33333333333331L195.855,157.33333333333331L195.88500000000002,157.33333333333331L195.94500000000002,157.33333333333331L196.095,157.33333333333331L196.27499999999998,157.33333333333331L196.56,157.33333333333331L197.14499999999998,157.33333333333331L197.445,157.33333333333331L198.075,157.33333333333331L198.80999999999997,157.33333333333331L198.84,157.33333333333331L198.99,157.33333333333331L199.02,157.33333333333331L199.32,157.33333333333331L199.695,157.33333333333331L199.71,157.33333333333331L200.13,157.33333333333331L200.22,157.33333333333331L200.235,157.33333333333331L200.265,157.33333333333331L200.54999999999998,157.33333333333331L200.565,157.33333333333331L200.67000000000002,157.33333333333331L201.105,157.33333333333331L201.195,157.33333333333331L201.48,157.33333333333331L201.975,157.33333333333331L202.32,157.33333333333331L202.365,157.33333333333331L202.725,157.33333333333331L202.98,157.33333333333331L203.33999999999997,157.33333333333331L203.445,157.33333333333331L203.76000000000002,157.33333333333331L203.83499999999998,157.33333333333331L203.88,157.33333333333331L203.895,157.33333333333331L203.98499999999999,157.33333333333331L204,157.33333333333331L204.375,157.33333333333331L204.52499999999998,157.33333333333331L204.915,157.33333333333331L205.245,157.33333333333331L205.32000000000002,157.33333333333331L206.055,157.33333333333331L206.325,157.33333333333331L206.535,157.33333333333331L206.685,157.33333333333331L207.165,157.33333333333331L207.72,157.33333333333331L207.92999999999998,157.33333333333331L208.29000000000002,157.33333333333331L208.38,157.33333333333331L208.56,157.33333333333331L208.79999999999998,157.33333333333331L208.845,157.33333333333331L209.34,157.33333333333331L209.41500000000002,157.33333333333331L209.445,157.33333333333331L209.97,157.33333333333331L210.045,157.33333333333331L210.6,157.33333333333331L210.63,157.33333333333331L211.065,157.33333333333331L211.10999999999999,157.33333333333331L211.51500000000001,157.33333333333331L212.415,157.33333333333331L212.475,157.33333333333331L212.535,157.33333333333331L212.805,157.33333333333331L213.285,157.33333333333331L213.405,157.33333333333331L213.54,157.33333333333331L213.66,157.33333333333331L213.69,157.33333333333331L213.795,157.33333333333331L214.095,157.33333333333331L214.14,157.33333333333331L214.76999999999998,157.33333333333331L214.8,157.33333333333331L215.085,157.33333333333331L215.235,157.33333333333331L215.4,157.33333333333331L215.415,157.33333333333331L215.46,157.33333333333331L215.805,157.33333333333331L215.95499999999998,157.33333333333331L216.05999999999997,157.33333333333331L216.10500000000002,157.33333333333331L216.465,157.33333333333331L216.525,157.33333333333331L216.96,157.33333333333331L218.685,157.33333333333331L218.955,157.33333333333331L219.01500000000001,157.33333333333331L219.21,157.33333333333331L219.435,157.33333333333331L219.705,157.33333333333331L220.02,157.33333333333331L220.08,157.33333333333331L220.335,157.33333333333331L220.41,157.33333333333331L220.455,157.33333333333331L221.07000000000002,157.33333333333331L221.22,157.33333333333331L221.28,157.33333333333331L221.34,157.33333333333331L221.475,157.33333333333331L221.505,157.33333333333331L221.85,157.33333333333331L221.88000000000002,157.33333333333331L221.89499999999998,157.33333333333331L222,157.33333333333331L222.105,157.33333333333331L222.15,157.33333333333331L222.26999999999998,157.33333333333331L222.42000000000002,157.33333333333331L222.435,157.33333333333331L223.06500000000003,157.33333333333331L223.785,157.33333333333331L223.845,157.33333333333331L223.89,157.33333333333331L224.29500000000002,157.33333333333331L224.85,157.33333333333331L225.255,157.33333333333331L225.27,157.33333333333331L225.465,157.33333333333331L225.66,157.33333333333331L225.67499999999998,157.33333333333331L225.79500000000002,157.33333333333331L226.005,157.33333333333331L226.38,157.33333333333331L226.72500000000002,157.33333333333331L226.83,157.33333333333331L227.055,157.33333333333331L227.475,157.33333333333331L227.52,157.33333333333331L227.91,157.33333333333331L228.12,157.33333333333331L228.195,157.33333333333331L228.21,157.33333333333331L228.495,157.33333333333331L228.645,157.33333333333331L228.675,157.33333333333331L228.69,157.33333333333331L228.88500000000002,157.33333333333331L228.945,157.33333333333331L229.005,157.33333333333331L229.185,157.33333333333331L229.21499999999997,157.33333333333331L229.26000000000002,157.33333333333331L229.27499999999998,157.33333333333331L229.455,157.33333333333331L229.545,157.33333333333331L229.935,157.33333333333331L230.07000000000002,157.33333333333331L230.25,157.33333333333331L230.31,157.33333333333331L230.355,157.33333333333331L230.685,157.33333333333331L230.715,157.33333333333331L230.79,157.33333333333331L231.04500000000002,157.33333333333331L231.06,157.33333333333331L231.405,157.33333333333331L231.435,157.33333333333331L231.615,157.33333333333331L231.63,157.33333333333331L232.185,157.33333333333331L232.275,157.33333333333331L232.38,157.33333333333331L232.875,157.33333333333331L233.05499999999998,157.33333333333331L233.1,157.33333333333331L233.41500000000002,157.33333333333331L233.52,157.33333333333331L233.67000000000002,157.33333333333331L233.86499999999998,157.33333333333331L234.03,157.33333333333331L234.29999999999998,157.33333333333331L234.465,157.33333333333331L234.61499999999998,157.33333333333331L234.795,157.33333333333331L235.095,157.33333333333331L235.14000000000001,157.33333333333331L235.59,157.33333333333331L235.605,157.33333333333331L235.79999999999998,157.33333333333331L235.935,157.33333333333331L236.31,157.33333333333331L237.345,157.33333333333331L237.435,157.33333333333331L237.495,157.33333333333331L237.57000000000002,157.33333333333331L237.84,157.33333333333331L237.93,157.33333333333331L238.11,157.33333333333331L238.215,157.33333333333331L238.515,157.33333333333331L238.76999999999998,157.33333333333331L238.905,157.33333333333331L238.95,157.33333333333331L239.08499999999998,157.33333333333331L239.25,157.33333333333331L239.28,157.33333333333331L239.45999999999998,157.33333333333331L239.64,157.33333333333331L239.685,157.33333333333331L239.89499999999998,157.33333333333331L239.97,157.33333333333331L240.18,157.33333333333331L240.51,157.33333333333331L240.75,157.33333333333331" style="fill: none;" fill="none"></path></g></g></g></g><g opacity="0.2"><g><g><g><path stroke="rgb(255, 112, 67)" stroke-width="2px" d="M37.230000000000004,-1188.6533766587575L37.665000000000006,22.73467112580936L37.875,22.73467112580936L37.964999999999996,22.73467112580936L37.995,22.73467112580936L38.145,22.73467112580936L38.190000000000005,22.73467112580936L38.339999999999996,22.73467112580936L38.580000000000005,22.73467112580936L38.625,22.73467112580936L38.67,22.73467112580936L38.745,22.73467112580936L39.015,22.73467112580936L39.120000000000005,22.73467112580936L39.555,22.73467112580936L39.63,22.73467112580936L39.645,22.73467112580936L40.035000000000004,22.73467112580936L40.32,22.73467112580936L41.46,22.73467112580936L41.475,22.73467112580936L41.805,22.73467112580936L41.94,22.73467112580936L42.015,22.73467112580936L42.135,22.73467112580936L42.660000000000004,22.73467112580936L43.065,22.73467112580936L43.44,22.73467112580936L43.665,22.73467112580936L43.725,22.73467112580936L43.785,22.73467112580936L44.19,22.73467112580936L44.265,22.73467112580936L44.355,22.73467112580936L44.505,22.73467112580936L44.550000000000004,22.73467112580936L44.76,22.73467112580936L44.835,22.73467112580936L44.985,143.8734667462607L45.225,143.8734667462607L46.035000000000004,143.8734667462607L46.455,143.8734667462607L46.785000000000004,143.8734667462607L47.415,143.8734667462607L47.519999999999996,143.8734667462607L47.58,143.8734667462607L47.63999999999999,143.8734667462607L47.715,143.8734667462607L48.120000000000005,143.8734667462607L48.315,143.8734667462607L48.375,143.8734667462607L48.525,143.8734667462607L48.78,143.8734667462607L48.795,143.8734667462607L48.825,143.8734667462607L49.23,143.8734667462607L49.305,143.8734667462607L49.335,143.8734667462607L49.394999999999996,143.8734667462607L49.68,143.8734667462607L49.995000000000005,143.8734667462607L50.04,143.8734667462607L50.055,143.8734667462607L50.49,143.8734667462607L51.21,143.8734667462607L51.330000000000005,143.8734667462607L52.08,143.8734667462607L52.245000000000005,143.8734667462607L52.515,155.9873467204161L52.995,155.9873467204161L53.01,155.9873467204161L53.114999999999995,155.9873467204161L53.445,155.9873467204161L53.925,155.9873467204161L53.97,155.9873467204161L54.18,155.9873467204161L54.3,155.9873467204161L54.405,155.9873467204161L54.464999999999996,155.9873467204161L54.675000000000004,155.9873467204161L54.75,155.9873467204161L54.915,155.9873467204161L55.08,155.9873467204161L55.155,155.9873467204161L55.2,155.9873467204161L55.275,155.9873467204161L55.575,155.9873467204161L55.87499999999999,155.9873467204161L55.980000000000004,155.9873467204161L56.324999999999996,155.9873467204161L56.475,155.9873467204161L56.895,155.9873467204161L56.955,155.9873467204161L57,155.9873467204161L57.195,155.9873467204161L57.48,155.9873467204161L57.555,155.9873467204161L58.004999999999995,155.9873467204161L58.05,155.9873467204161L58.68,155.9873467204161L59.1,155.9873467204161L59.519999999999996,155.9873467204161L59.64,155.9873467204161L59.82,155.9873467204161L60.105000000000004,157.19873466631785L60.120000000000005,157.19873466631785L60.21,157.19873466631785L60.39,157.19873466631785L60.480000000000004,157.19873466631785L60.675,157.19873466631785L60.809999999999995,157.19873466631785L60.93,157.19873466631785L60.96,157.19873466631785L60.975,157.19873466631785L61.575,157.19873466631785L61.68,157.19873466631785L62.115,157.19873466631785L62.205,157.19873466631785L62.265,157.19873466631785L62.4,157.19873466631785L62.595,157.19873466631785L63.03,157.19873466631785L63.089999999999996,157.19873466631785L63.225,157.19873466631785L63.614999999999995,157.19873466631785L63.795,157.19873466631785L63.84,157.19873466631785L63.93,157.19873466631785L64.395,157.19873466631785L64.62,157.19873466631785L64.74,157.19873466631785L65.58,157.19873466631785L65.625,157.19873466631785L65.83500000000001,157.19873466631785L66.27,157.19873466631785L66.61500000000001,157.19873466631785L66.795,157.19873466631785L67.08,157.19873466631785L67.935,157.31987346681063L68.01,157.31987346681063L68.10000000000001,157.31987346681063L68.295,157.31987346681063L68.49,157.31987346681063L69.015,157.31987346681063L69.72,157.31987346681063L70.035,157.31987346681063L70.21499999999999,157.31987346681063L70.32,157.31987346681063L70.545,157.31987346681063L70.64999999999999,157.31987346681063L70.695,157.31987346681063L70.77000000000001,157.31987346681063L71.295,157.31987346681063L71.39999999999999,157.31987346681063L71.55,157.31987346681063L71.79,157.31987346681063L71.985,157.31987346681063L72.375,157.31987346681063L72.675,157.31987346681063L73.155,157.31987346681063L73.545,157.31987346681063L73.56,157.31987346681063L73.59,157.31987346681063L75.315,157.33198734668105L75.39,157.33198734668105L75.73500000000001,157.33198734668105L75.885,157.33198734668105L75.915,157.33198734668105L76.16999999999999,157.33198734668105L76.215,157.33198734668105L76.26,157.33198734668105L76.35000000000001,157.33198734668105L76.77,157.33198734668105L76.845,157.33198734668105L76.86,157.33198734668105L77.295,157.33198734668105L77.64,157.33198734668105L77.745,157.33198734668105L77.83500000000001,157.33198734668105L78.075,157.33198734668105L78.105,157.33198734668105L78.225,157.33198734668105L78.40499999999999,157.33198734668105L78.58500000000001,157.33198734668105L79.065,157.33198734668105L79.21499999999999,157.33198734668105L79.23,157.33198734668105L79.485,157.33198734668105L79.53,157.33198734668105L79.815,157.33198734668105L79.92,157.33198734668105L80.085,157.33198734668105L80.115,157.33198734668105L80.235,157.33198734668105L80.31,157.33198734668105L80.385,157.33198734668105L80.415,157.33198734668105L80.52,157.33198734668105L80.745,157.33198734668105L81.015,157.33198734668105L81.375,157.33198734668105L81.465,157.33198734668105L81.81,157.33198734668105L81.85499999999999,157.33198734668105L81.96000000000001,157.33198734668105L82.155,157.33198734668105L82.23,157.33198734668105L82.33500000000001,157.33198734668105L82.725,157.33319873466252L82.8,157.33319873466252L83.325,157.33319873466252L83.76,157.33319873466252L83.865,157.33319873466252L84.075,157.33319873466252L84.315,157.33319873466252L84.38999999999999,157.33319873466252L84.435,157.33319873466252L84.51,157.33319873466252L84.645,157.33319873466252L84.765,157.33319873466252L84.915,157.33319873466252L84.97500000000001,157.33319873466252L85.305,157.33319873466252L85.365,157.33319873466252L85.63499999999999,157.33319873466252L85.65,157.33319873466252L85.77,157.33319873466252L85.875,157.33319873466252L85.935,157.33319873466252L86.505,157.33319873466252L86.78999999999999,157.33319873466252L86.86500000000001,157.33319873466252L87.045,157.33319873466252L87.08999999999999,157.33319873466252L87.105,157.33319873466252L87.195,157.33319873466252L87.24000000000001,157.33319873466252L87.63,157.33319873466252L87.705,157.33319873466252L87.78,157.33319873466252L87.81,157.33319873466252L88.395,157.33319873466252L88.56,157.33319873466252L88.635,157.33319873466252L88.67999999999999,157.33319873466252L88.75500000000001,157.33319873466252L88.785,157.33319873466252L88.94999999999999,157.33319873466252L89.04,157.33319873466252L89.16,157.33319873466252L89.22,157.33319873466252L89.415,157.33319873466252L89.46,157.33319873466252L89.75999999999999,157.33319873466252L90.15,157.3333198734666L90.18,157.3333198734666L90.57,157.3333198734666L90.66,157.3333198734666L90.735,157.3333198734666L90.9,157.3333198734666L91.44,157.3333198734666L91.515,157.3333198734666L91.77000000000001,157.3333198734666L91.95,157.3333198734666L91.98,157.3333198734666L92.355,157.3333198734666L92.505,157.3333198734666L92.52,157.3333198734666L92.955,157.3333198734666L93.01499999999999,157.3333198734666L93.36,157.3333198734666L93.47999999999999,157.3333198734666L93.54,157.3333198734666L93.705,157.3333198734666L93.88499999999999,157.3333198734666L94.935,157.3333198734666L95.145,157.3333198734666L95.265,157.3333198734666L95.27999999999999,157.3333198734666L95.82,157.3333198734666L95.88,157.3333198734666L95.97,157.3333198734666L96.11999999999999,157.3333198734666L96.645,157.3333198734666L96.81,157.3333198734666L96.855,157.3333198734666L96.915,157.3333198734666L97.005,157.3333198734666L97.23,157.3333198734666L97.365,157.3333198734666L97.515,157.3333319873467L97.69500000000001,157.3333319873467L97.92,157.3333319873467L98.00999999999999,157.3333319873467L98.175,157.3333319873467L98.35499999999999,157.3333319873467L98.595,157.3333319873467L98.685,157.3333319873467L98.745,157.3333319873467L98.955,157.3333319873467L99.03,157.3333319873467L99.075,157.3333319873467L99.27,157.3333319873467L99.45,157.3333319873467L99.465,157.3333319873467L99.78,157.3333319873467L99.96000000000001,157.3333319873467L100.065,157.3333319873467L100.185,157.3333319873467L100.23,157.3333319873467L100.29,157.3333319873467L100.80000000000001,157.3333319873467L100.935,157.3333319873467L101.10000000000001,157.3333319873467L101.22,157.3333319873467L101.28,157.3333319873467L101.79,157.3333319873467L101.80499999999999,157.3333319873467L102.315,157.3333319873467L102.585,157.3333319873467L102.825,157.3333319873467L103.575,157.3333319873467L103.62,157.3333319873467L103.815,157.3333319873467L104.025,157.3333319873467L104.04,157.3333319873467L104.07,157.3333319873467L104.175,157.3333319873467L104.385,157.3333319873467L104.445,157.3333319873467L104.71499999999999,157.3333319873467L104.97,157.3333319873467L105.03,157.33333319873466L105.14999999999999,157.33333319873466L105.165,157.33333319873466L105.285,157.33333319873466L105.315,157.33333319873466L105.60000000000001,157.33333319873466L105.82499999999999,157.33333319873466L105.855,157.33333319873466L105.92999999999999,157.33333319873466L106.19999999999999,157.33333319873466L106.44,157.33333319873466L106.92,157.33333319873466L107.22000000000001,157.33333319873466L107.745,157.33333319873466L107.91,157.33333319873466L108.24000000000001,157.33333319873466L108.42,157.33333319873466L108.89999999999999,157.33333319873466L109.05000000000001,157.33333319873466L109.185,157.33333319873466L109.53,157.33333319873466L109.95,157.33333319873466L109.98,157.33333319873466L110.34,157.33333319873466L110.655,157.33333319873466L110.97,157.33333319873466L111.015,157.33333319873466L111.3,157.33333319873466L111.36,157.33333319873466L111.42,157.33333319873466L111.63,157.33333319873466L111.81,157.33333319873466L111.9,157.33333319873466L112.23,157.33333319873466L112.515,157.33333331987347L112.545,157.33333331987347L112.68,157.33333331987347L112.77000000000001,157.33333331987347L112.89,157.33333331987347L113.16,157.33333331987347L113.25,157.33333331987347L113.475,157.33333331987347L113.625,157.33333331987347L114.01499999999999,157.33333331987347L114.09,157.33333331987347L114.27,157.33333331987347L114.435,157.33333331987347L114.55499999999999,157.33333331987347L114.82499999999999,157.33333331987347L115.095,157.33333331987347L115.275,157.33333331987347L115.47,157.33333331987347L115.695,157.33333331987347L115.83,157.33333331987347L116.025,157.33333331987347L116.27999999999999,157.33333331987347L116.67,157.33333331987347L116.86500000000001,157.33333331987347L117.075,157.33333331987347L117.645,157.33333331987347L117.94500000000001,157.33333331987347L118.155,157.33333331987347L118.35000000000001,157.33333331987347L118.77,157.33333331987347L119.10000000000001,157.33333331987347L119.145,157.33333331987347L119.235,157.33333331987347L119.67,157.33333331987347L119.745,157.33333331987347L119.985,157.33333333198735L120.16499999999999,157.33333333198735L120.61500000000001,157.33333333198735L120.735,157.33333333198735L120.99000000000001,157.33333333198735L121.18499999999999,157.33333333198735L121.64999999999999,157.33333333198735L121.815,157.33333333198735L122.145,157.33333333198735L122.39999999999999,157.33333333198735L122.42999999999999,157.33333333198735L122.595,157.33333333198735L122.73,157.33333333198735L122.82000000000001,157.33333333198735L122.835,157.33333333198735L122.955,157.33333333198735L123.81,157.33333333198735L124.06500000000001,157.33333333198735L124.44,157.33333333198735L124.635,157.33333333198735L125.19,157.33333333198735L125.265,157.33333333198735L125.30999999999999,157.33333333198735L125.535,157.33333333198735L125.61,157.33333333198735L125.625,157.33333333198735L125.865,157.33333333198735L126.015,157.33333333198735L126.69,157.33333333198735L127.185,157.33333333198735L127.365,157.33333333198735L127.425,157.33333333198735L127.66499999999999,157.33333333319874L127.77,157.33333333319874L128.385,157.33333333319874L128.835,157.33333333319874L129.12,157.33333333319874L129.405,157.33333333319874L129.42,157.33333333319874L129.70499999999998,157.33333333319874L130.23,157.33333333319874L130.41,157.33333333319874L130.48499999999999,157.33333333319874L130.575,157.33333333319874L130.605,157.33333333319874L131.13,157.33333333319874L131.205,157.33333333319874L131.235,157.33333333319874L131.355,157.33333333319874L131.4,157.33333333319874L131.52,157.33333333319874L131.655,157.33333333319874L131.985,157.33333333319874L132.09,157.33333333319874L132.82500000000002,157.33333333319874L132.96,157.33333333319874L133.63500000000002,157.33333333319874L134.46,157.33333333319874L134.805,157.33333333319874L134.88,157.33333333319874L135.48,157.33333333331987L135.67499999999998,157.33333333331987L135.69,157.33333333331987L135.99,157.33333333331987L136.08,157.33333333331987L136.305,157.33333333331987L136.69500000000002,157.33333333331987L136.755,157.33333333331987L136.82999999999998,157.33333333331987L136.86,157.33333333331987L136.92,157.33333333331987L136.935,157.33333333331987L137.31,157.33333333331987L137.39999999999998,157.33333333331987L137.43,157.33333333331987L137.475,157.33333333331987L137.64,157.33333333331987L137.7,157.33333333331987L137.85,157.33333333331987L138.735,157.33333333331987L138.855,157.33333333331987L139.095,157.33333333331987L139.12499999999997,157.33333333331987L139.245,157.33333333331987L139.44,157.33333333331987L139.575,157.33333333331987L139.905,157.33333333331987L140.29500000000002,157.33333333331987L140.34,157.33333333331987L140.505,157.33333333331987L140.52,157.33333333331987L140.985,157.33333333331987L141.015,157.33333333331987L141.285,157.33333333331987L141.29999999999998,157.33333333331987L142.41000000000003,157.33333333331987L142.44,157.33333333331987L142.98,157.33333333333198L143.025,157.33333333333198L143.26500000000001,157.33333333333198L143.475,157.33333333333198L143.565,157.33333333333198L143.82,157.33333333333198L143.88,157.33333333333198L144,157.33333333333198L144.27,157.33333333333198L144.6,157.33333333333198L144.705,157.33333333333198L145.095,157.33333333333198L145.38,157.33333333333198L145.59,157.33333333333198L145.63500000000002,157.33333333333198L145.92,157.33333333333198L146.01000000000002,157.33333333333198L146.07000000000002,157.33333333333198L146.14499999999998,157.33333333333198L146.31,157.33333333333198L146.535,157.33333333333198L146.595,157.33333333333198L147.255,157.33333333333198L147.675,157.33333333333198L148.365,157.33333333333198L148.485,157.33333333333198L148.515,157.33333333333198L148.635,157.33333333333198L148.905,157.33333333333198L149.05499999999998,157.33333333333198L149.07,157.33333333333198L149.085,157.33333333333198L149.11499999999998,157.33333333333198L149.16,157.33333333333198L149.35500000000002,157.33333333333198L149.41500000000002,157.33333333333198L149.445,157.33333333333198L149.54999999999998,157.33333333333198L149.685,157.33333333333198L149.715,157.33333333333198L149.895,157.33333333333198L150.12,157.3333333333332L150.45,157.3333333333332L150.465,157.3333333333332L150.585,157.3333333333332L150.75,157.3333333333332L151.095,157.3333333333332L151.245,157.3333333333332L151.395,157.3333333333332L151.47000000000003,157.3333333333332L151.85999999999999,157.3333333333332L152.13,157.3333333333332L152.60999999999999,157.3333333333332L153.435,157.3333333333332L153.48,157.3333333333332L153.69,157.3333333333332L153.72,157.3333333333332L153.94500000000002,157.3333333333332L154.095,157.3333333333332L154.59,157.3333333333332L154.62,157.3333333333332L154.75500000000002,157.3333333333332L154.76999999999998,157.3333333333332L154.8,157.3333333333332L154.935,157.3333333333332L155.01,157.3333333333332L155.16,157.3333333333332L156.06,157.3333333333332L156.18,157.3333333333332L156.42000000000002,157.3333333333332L156.825,157.3333333333332L156.93,157.3333333333332L156.975,157.3333333333332L156.99,157.3333333333332L157.005,157.3333333333332L157.02,157.3333333333332L157.05,157.3333333333332L157.24499999999998,157.3333333333332L157.59,157.33333333333331L157.67999999999998,157.33333333333331L157.98000000000002,157.33333333333331L158.31,157.33333333333331L158.73000000000002,157.33333333333331L158.745,157.33333333333331L158.775,157.33333333333331L159.495,157.33333333333331L159.96,157.33333333333331L160.125,157.33333333333331L160.17,157.33333333333331L160.20000000000002,157.33333333333331L160.57500000000002,157.33333333333331L160.89000000000001,157.33333333333331L160.92,157.33333333333331L161.085,157.33333333333331L161.26500000000001,157.33333333333331L161.38500000000002,157.33333333333331L161.565,157.33333333333331L162.435,157.33333333333331L163.17,157.33333333333331L163.425,157.33333333333331L163.47,157.33333333333331L163.935,157.33333333333331L163.995,157.33333333333331L164.4,157.33333333333331L164.475,157.33333333333331L164.64,157.33333333333331L164.82,157.33333333333331L165.10500000000002,157.33333333333331L165.405,157.33333333333331L165.525,157.33333333333331L165.75,157.33333333333331L166.44,157.33333333333331L166.59,157.33333333333331L166.72500000000002,157.33333333333331L166.77,157.33333333333331L166.875,157.33333333333331L166.98000000000002,157.33333333333331L167.05499999999998,157.33333333333331L167.205,157.33333333333331L167.325,157.33333333333331L167.46,157.33333333333331L167.52,157.33333333333331L167.565,157.33333333333331L167.715,157.33333333333331L167.82,157.33333333333331L167.91000000000003,157.33333333333331L167.94,157.33333333333331L168.18,157.33333333333331L168.39000000000001,157.33333333333331L168.465,157.33333333333331L168.73499999999999,157.33333333333331L169.02,157.33333333333331L169.04999999999998,157.33333333333331L169.42499999999998,157.33333333333331L170.04,157.33333333333331L170.51999999999998,157.33333333333331L170.535,157.33333333333331L170.94,157.33333333333331L171,157.33333333333331L171.375,157.33333333333331L171.63000000000002,157.33333333333331L171.885,157.33333333333331L171.93,157.33333333333331L171.95999999999998,157.33333333333331L172.17000000000002,157.33333333333331L172.45499999999998,157.33333333333331L172.605,157.33333333333331L173.565,157.33333333333331L173.85,157.33333333333331L174.015,157.33333333333331L174.09,157.33333333333331L174.39,157.33333333333331L174.435,157.33333333333331L174.49499999999998,157.33333333333331L174.69,157.33333333333331L174.91500000000002,157.33333333333331L175.095,157.33333333333331L175.65,157.33333333333331L175.66500000000002,157.33333333333331L175.77,157.33333333333331L175.85999999999999,157.33333333333331L176.385,157.33333333333331L176.445,157.33333333333331L176.625,157.33333333333331L176.97000000000003,157.33333333333331L177.105,157.33333333333331L177.135,157.33333333333331L177.39000000000001,157.33333333333331L177.54,157.33333333333331L177.6,157.33333333333331L177.615,157.33333333333331L177.63,157.33333333333331L178.10999999999999,157.33333333333331L178.395,157.33333333333331L178.69500000000002,157.33333333333331L178.725,157.33333333333331L178.905,157.33333333333331L179.04,157.33333333333331L179.19,157.33333333333331L179.22,157.33333333333331L179.34,157.33333333333331L179.37,157.33333333333331L179.64,157.33333333333331L179.655,157.33333333333331L180.135,157.33333333333331L180.25500000000002,157.33333333333331L180.36,157.33333333333331L180.54,157.33333333333331L180.87,157.33333333333331L180.915,157.33333333333331L180.96,157.33333333333331L181.06500000000003,157.33333333333331L181.59,157.33333333333331L181.60500000000002,157.33333333333331L181.635,157.33333333333331L181.875,157.33333333333331L181.93499999999997,157.33333333333331L182.42999999999998,157.33333333333331L182.73000000000002,157.33333333333331L182.85,157.33333333333331L183.10500000000002,157.33333333333331L183.21,157.33333333333331L183.22500000000002,157.33333333333331L183.33,157.33333333333331L184.10999999999999,157.33333333333331L184.17,157.33333333333331L184.245,157.33333333333331L184.5,157.33333333333331L185.19,157.33333333333331L185.385,157.33333333333331L186.195,157.33333333333331L187.27499999999998,157.33333333333331L187.47,157.33333333333331L187.5,157.33333333333331L187.545,157.33333333333331L188.1,157.33333333333331L188.265,157.33333333333331L188.28,157.33333333333331L188.325,157.33333333333331L188.355,157.33333333333331L188.7,157.33333333333331L188.865,157.33333333333331L188.97,157.33333333333331L189.015,157.33333333333331L189.105,157.33333333333331L189.225,157.33333333333331L189.64499999999998,157.33333333333331L190.18499999999997,157.33333333333331L190.215,157.33333333333331L190.425,157.33333333333331L190.755,157.33333333333331L191.86499999999998,157.33333333333331L191.91,157.33333333333331L192.17999999999998,157.33333333333331L192.55499999999998,157.33333333333331L192.87,157.33333333333331L193.04999999999998,157.33333333333331L193.17,157.33333333333331L193.215,157.33333333333331L193.29,157.33333333333331L193.56,157.33333333333331L193.83,157.33333333333331L193.95000000000002,157.33333333333331L194.26500000000001,157.33333333333331L194.37,157.33333333333331L194.52,157.33333333333331L194.565,157.33333333333331L195.14999999999998,157.33333333333331L195.345,157.33333333333331L195.54,157.33333333333331L195.855,157.33333333333331L195.88500000000002,157.33333333333331L195.94500000000002,157.33333333333331L196.095,157.33333333333331L196.27499999999998,157.33333333333331L196.56,157.33333333333331L197.14499999999998,157.33333333333331L197.445,157.33333333333331L198.075,157.33333333333331L198.80999999999997,157.33333333333331L198.84,157.33333333333331L198.99,157.33333333333331L199.02,157.33333333333331L199.32,157.33333333333331L199.695,157.33333333333331L199.71,157.33333333333331L200.13,157.33333333333331L200.22,157.33333333333331L200.235,157.33333333333331L200.265,157.33333333333331L200.54999999999998,157.33333333333331L200.565,157.33333333333331L200.67000000000002,157.33333333333331L201.105,157.33333333333331L201.195,157.33333333333331L201.48,157.33333333333331L201.975,157.33333333333331L202.32,157.33333333333331L202.365,157.33333333333331L202.725,157.33333333333331L202.98,157.33333333333331L203.33999999999997,157.33333333333331L203.445,157.33333333333331L203.76000000000002,157.33333333333331L203.83499999999998,157.33333333333331L203.88,157.33333333333331L203.895,157.33333333333331L203.98499999999999,157.33333333333331L204,157.33333333333331L204.375,157.33333333333331L204.52499999999998,157.33333333333331L204.915,157.33333333333331L205.245,157.33333333333331L205.32000000000002,157.33333333333331L206.055,157.33333333333331L206.325,157.33333333333331L206.535,157.33333333333331L206.685,157.33333333333331L207.165,157.33333333333331L207.72,157.33333333333331L207.92999999999998,157.33333333333331L208.29000000000002,157.33333333333331L208.38,157.33333333333331L208.56,157.33333333333331L208.79999999999998,157.33333333333331L208.845,157.33333333333331L209.34,157.33333333333331L209.41500000000002,157.33333333333331L209.445,157.33333333333331L209.97,157.33333333333331L210.045,157.33333333333331L210.6,157.33333333333331L210.63,157.33333333333331L211.065,157.33333333333331L211.10999999999999,157.33333333333331L211.51500000000001,157.33333333333331L212.415,157.33333333333331L212.475,157.33333333333331L212.535,157.33333333333331L212.805,157.33333333333331L213.285,157.33333333333331L213.405,157.33333333333331L213.54,157.33333333333331L213.66,157.33333333333331L213.69,157.33333333333331L213.795,157.33333333333331L214.095,157.33333333333331L214.14,157.33333333333331L214.76999999999998,157.33333333333331L214.8,157.33333333333331L215.085,157.33333333333331L215.235,157.33333333333331L215.4,157.33333333333331L215.415,157.33333333333331L215.46,157.33333333333331L215.805,157.33333333333331L215.95499999999998,157.33333333333331L216.05999999999997,157.33333333333331L216.10500000000002,157.33333333333331L216.465,157.33333333333331L216.525,157.33333333333331L216.96,157.33333333333331L218.685,157.33333333333331L218.955,157.33333333333331L219.01500000000001,157.33333333333331L219.21,157.33333333333331L219.435,157.33333333333331L219.705,157.33333333333331L220.02,157.33333333333331L220.08,157.33333333333331L220.335,157.33333333333331L220.41,157.33333333333331L220.455,157.33333333333331L221.07000000000002,157.33333333333331L221.22,157.33333333333331L221.28,157.33333333333331L221.34,157.33333333333331L221.475,157.33333333333331L221.505,157.33333333333331L221.85,157.33333333333331L221.88000000000002,157.33333333333331L221.89499999999998,157.33333333333331L222,157.33333333333331L222.105,157.33333333333331L222.15,157.33333333333331L222.26999999999998,157.33333333333331L222.42000000000002,157.33333333333331L222.435,157.33333333333331L223.06500000000003,157.33333333333331L223.785,157.33333333333331L223.845,157.33333333333331L223.89,157.33333333333331L224.29500000000002,157.33333333333331L224.85,157.33333333333331L225.255,157.33333333333331L225.27,157.33333333333331L225.465,157.33333333333331L225.66,157.33333333333331L225.67499999999998,157.33333333333331L225.79500000000002,157.33333333333331L226.005,157.33333333333331L226.38,157.33333333333331L226.72500000000002,157.33333333333331L226.83,157.33333333333331L227.055,157.33333333333331L227.475,157.33333333333331L227.52,157.33333333333331L227.91,157.33333333333331L228.12,157.33333333333331L228.195,157.33333333333331L228.21,157.33333333333331L228.495,157.33333333333331L228.645,157.33333333333331L228.675,157.33333333333331L228.69,157.33333333333331L228.88500000000002,157.33333333333331L228.945,157.33333333333331L229.005,157.33333333333331L229.185,157.33333333333331L229.21499999999997,157.33333333333331L229.26000000000002,157.33333333333331L229.27499999999998,157.33333333333331L229.455,157.33333333333331L229.545,157.33333333333331L229.935,157.33333333333331L230.07000000000002,157.33333333333331L230.25,157.33333333333331L230.31,157.33333333333331L230.355,157.33333333333331L230.685,157.33333333333331L230.715,157.33333333333331L230.79,157.33333333333331L231.04500000000002,157.33333333333331L231.06,157.33333333333331L231.405,157.33333333333331L231.435,157.33333333333331L231.615,157.33333333333331L231.63,157.33333333333331L232.185,157.33333333333331L232.275,157.33333333333331L232.38,157.33333333333331L232.875,157.33333333333331L233.05499999999998,157.33333333333331L233.1,157.33333333333331L233.41500000000002,157.33333333333331L233.52,157.33333333333331L233.67000000000002,157.33333333333331L233.86499999999998,157.33333333333331L234.03,157.33333333333331L234.29999999999998,157.33333333333331L234.465,157.33333333333331L234.61499999999998,157.33333333333331L234.795,157.33333333333331L235.095,157.33333333333331L235.14000000000001,157.33333333333331L235.59,157.33333333333331L235.605,157.33333333333331L235.79999999999998,157.33333333333331L235.935,157.33333333333331L236.31,157.33333333333331L237.345,157.33333333333331L237.435,157.33333333333331L237.495,157.33333333333331L237.57000000000002,157.33333333333331L237.84,157.33333333333331L237.93,157.33333333333331L238.11,157.33333333333331L238.215,157.33333333333331L238.515,157.33333333333331L238.76999999999998,157.33333333333331L238.905,157.33333333333331L238.95,157.33333333333331L239.08499999999998,157.33333333333331L239.25,157.33333333333331L239.28,157.33333333333331L239.45999999999998,157.33333333333331L239.64,157.33333333333331L239.685,157.33333333333331L239.89499999999998,157.33333333333331L239.97,157.33333333333331L240.18,157.33333333333331L240.51,157.33333333333331L240.75,157.33333333333331" style="fill: none;" fill="none"></path></g></g></g></g></g></g><g transform="translate(60, 177)" clip-path="url(#clip_1)"><clipPath id="clip_1"><rect width="270" height="23"></rect></clipPath><g><g><line x1="0" y1="0" x2="0" y2="5" style="visibility: inherit;" fill="rgb(0, 0, 0)" stroke="rgb(204, 204, 204)" stroke-width="1px"></line><line x1="30" y1="0" x2="30" y2="5" style="visibility: inherit;" fill="rgb(0, 0, 0)" stroke="rgb(204, 204, 204)" stroke-width="1px"></line><line x1="60" y1="0" x2="60" y2="5" style="visibility: inherit;" fill="rgb(0, 0, 0)" stroke="rgb(204, 204, 204)" stroke-width="1px"></line><line x1="90" y1="0" x2="90" y2="5" style="visibility: inherit;" fill="rgb(0, 0, 0)" stroke="rgb(204, 204, 204)" stroke-width="1px"></line><line x1="120" y1="0" x2="120" y2="5" style="visibility: inherit;" fill="rgb(0, 0, 0)" stroke="rgb(204, 204, 204)" stroke-width="1px"></line><line x1="150" y1="0" x2="150" y2="5" style="visibility: inherit;" fill="rgb(0, 0, 0)" stroke="rgb(204, 204, 204)" stroke-width="1px"></line><line x1="180" y1="0" x2="180" y2="5" style="visibility: inherit;" fill="rgb(0, 0, 0)" stroke="rgb(204, 204, 204)" stroke-width="1px"></line><line x1="210" y1="0" x2="210" y2="5" style="visibility: inherit;" fill="rgb(0, 0, 0)" stroke="rgb(204, 204, 204)" stroke-width="1px"></line><line x1="240" y1="0" x2="240" y2="5" style="visibility: inherit;" fill="rgb(0, 0, 0)" stroke="rgb(204, 204, 204)" stroke-width="1px"></line><line x1="270" y1="0" x2="270" y2="5" style="visibility: inherit;" fill="rgb(0, 0, 0)" stroke="rgb(204, 204, 204)" stroke-width="1px"></line></g><g transform="translate(0, 8)"><text x="0" y="0" dx="0em" dy="0.95em" style="text-anchor: middle; visibility: hidden; font-family: Roboto, sans-serif; font-size: 12px; font-weight: 200;" fill="rgb(33, 33, 33)" stroke="none" stroke-width="1px">-2k</text><text x="30" y="0" dx="0em" dy="0.95em" style="text-anchor: middle; visibility: inherit; font-family: Roboto, sans-serif; font-size: 12px; font-weight: 200;" fill="rgb(33, 33, 33)" stroke="none" stroke-width="1px">0</text><text x="60" y="0" dx="0em" dy="0.95em" style="text-anchor: middle; visibility: inherit; font-family: Roboto, sans-serif; font-size: 12px; font-weight: 200;" fill="rgb(33, 33, 33)" stroke="none" stroke-width="1px">2k</text><text x="90" y="0" dx="0em" dy="0.95em" style="text-anchor: middle; visibility: inherit; font-family: Roboto, sans-serif; font-size: 12px; font-weight: 200;" fill="rgb(33, 33, 33)" stroke="none" stroke-width="1px">4k</text><text x="120" y="0" dx="0em" dy="0.95em" style="text-anchor: middle; visibility: inherit; font-family: Roboto, sans-serif; font-size: 12px; font-weight: 200;" fill="rgb(33, 33, 33)" stroke="none" stroke-width="1px">6k</text><text x="150" y="0" dx="0em" dy="0.95em" style="text-anchor: middle; visibility: inherit; font-family: Roboto, sans-serif; font-size: 12px; font-weight: 200;" fill="rgb(33, 33, 33)" stroke="none" stroke-width="1px">8k</text><text x="180" y="0" dx="0em" dy="0.95em" style="text-anchor: middle; visibility: inherit; font-family: Roboto, sans-serif; font-size: 12px; font-weight: 200;" fill="rgb(33, 33, 33)" stroke="none" stroke-width="1px">10k</text><text x="210" y="0" dx="0em" dy="0.95em" style="text-anchor: middle; visibility: inherit; font-family: Roboto, sans-serif; font-size: 12px; font-weight: 200;" fill="rgb(33, 33, 33)" stroke="none" stroke-width="1px">12k</text><text x="240" y="0" dx="0em" dy="0.95em" style="text-anchor: middle; visibility: inherit; font-family: Roboto, sans-serif; font-size: 12px; font-weight: 200;" fill="rgb(33, 33, 33)" stroke="none" stroke-width="1px">14k</text><text x="270" y="0" dx="0em" dy="0.95em" style="text-anchor: middle; visibility: hidden; font-family: Roboto, sans-serif; font-size: 12px; font-weight: 200;" fill="rgb(33, 33, 33)" stroke="none" stroke-width="1px">16k</text></g><line x1="0" y1="0" x2="270" y2="0" fill="rgb(0, 0, 0)" stroke="rgb(204, 204, 204)" stroke-width="1px"></line></g></g></g></g></svg>