<svg viewBox="0 0 330 200" xmlns="http://www.w3.org/2000/svg"><g><g><g><g><g><line x1="51.5625" y1="177" x2="46.5625" y2="177" style="visibility: inherit;" fill="rgb(0, 0, 0)" stroke="rgb(204, 204, 204)" stroke-width="1px"></line><line x1="51.5625" y1="154.87499999999997" x2="46.5625" y2="154.87499999999997" style="visibility: inherit;" fill="rgb(0, 0, 0)" stroke="rgb(204, 204, 204)" stroke-width="1px"></line><line x1="51.5625" y1="132.75000000000003" x2="46.5625" y2="132.75000000000003" style="visibility: inherit;" fill="rgb(0, 0, 0)" stroke="rgb(204, 204, 204)" stroke-width="1px"></line><line x1="51.5625" y1="110.625" x2="46.5625" y2="110.625" style="visibility: inherit;" fill="rgb(0, 0, 0)" stroke="rgb(204, 204, 204)" stroke-width="1px"></line><line x1="51.5625" y1="88.49999999999996" x2="46.5625" y2="88.49999999999996" style="visibility: inherit;" fill="rgb(0, 0, 0)" stroke="rgb(204, 204, 204)" stroke-width="1px"></line><line x1="51.5625" y1="66.375" x2="46.5625" y2="66.375" style="visibility: inherit;" fill="rgb(0, 0, 0)" stroke="rgb(204, 204, 204)" stroke-width="1px"></line><line x1="51.5625" y1="44.24999999999998" x2="46.5625" y2="44.24999999999998" style="visibility: inherit;" fill="rgb(0, 0, 0)" stroke="rgb(204, 204, 204)" stroke-width="1px"></line><line x1="51.5625" y1="22.12499999999996" x2="46.5625" y2="22.12499999999996" style="visibility: inherit;" fill="rgb(0, 0, 0)" stroke="rgb(204, 204, 204)" stroke-width="1px"></line><line x1="51.5625" y1="0" x2="46.5625" y2="0" style="visibility: inherit;" fill="rgb(0, 0, 0)" stroke="rgb(204, 204, 204)" stroke-width="1px"></line></g><g transform="translate(41.5625, 0)"><text x="0" y="177" dx="0em" dy="0.3em" style="text-anchor: end; visibility: hidden; font-family: Roboto, sans-serif; font-size: 12px; font-weight: 200;" fill="rgb(33, 33, 33)" stroke="none" stroke-width="1px">0.32</text><text x="0" y="154.87499999999997" dx="0em" dy="0.3em" style="text-anchor: end; visibility: inherit; font-family: Roboto, sans-serif; font-size: 12px; font-weight: 200;" fill="rgb(33, 33, 33)" stroke="none" stroke-width="1px">0.34</text><text x="0" y="132.75000000000003" dx="0em" dy="0.3em" style="text-anchor: end; visibility: hidden; font-family: Roboto, sans-serif; font-size: 12px; font-weight: 200;" fill="rgb(33, 33, 33)" stroke="none" stroke-width="1px">0.36</text><text x="0" y="110.625" dx="0em" dy="0.3em" style="text-anchor: end; visibility: inherit; font-family: Roboto, sans-serif; font-size: 12px; font-weight: 200;" fill="rgb(33, 33, 33)" stroke="none" stroke-width="1px">0.38</text><text x="0" y="88.49999999999996" dx="0em" dy="0.3em" style="text-anchor: end; visibility: hidden; font-family: Roboto, sans-serif; font-size: 12px; font-weight: 200;" fill="rgb(33, 33, 33)" stroke="none" stroke-width="1px">0.4</text><text x="0" y="66.375" dx="0em" dy="0.3em" style="text-anchor: end; visibility: inherit; font-family: Roboto, sans-serif; font-size: 12px; font-weight: 200;" fill="rgb(33, 33, 33)" stroke="none" stroke-width="1px">0.42</text><text x="0" y="44.24999999999998" dx="0em" dy="0.3em" style="text-anchor: end; visibility: hidden; font-family: Roboto, sans-serif; font-size: 12px; font-weight: 200;" fill="rgb(33, 33, 33)" stroke="none" stroke-width="1px">0.44</text><text x="0" y="22.12499999999996" dx="0em" dy="0.3em" style="text-anchor: end; visibility: inherit; font-family: Roboto, sans-serif; font-size: 12px; font-weight: 200;" fill="rgb(33, 33, 33)" stroke="none" stroke-width="1px">0.46</text><text x="0" y="0" dx="0em" dy="0.3em" style="text-anchor: end; visibility: hidden; font-family: Roboto, sans-serif; font-size: 12px; font-weight: 200;" fill="rgb(33, 33, 33)" stroke="none" stroke-width="1px">0.48</text></g><line x1="51.5625" y1="0" x2="51.5625" y2="177" fill="rgb(0, 0, 0)" stroke="rgb(204, 204, 204)" stroke-width="1px"></line></g></g><g transform="translate(51, 0)" clip-path="url(#clip_0)"><clipPath id="clip_0"><rect width="278" height="177"></rect></clipPath><g><g><g><line x1="0" y1="0" x2="0" y2="177" fill="rgb(0, 0, 0)" stroke="rgb(66, 66, 66)" stroke-width="1px" opacity="0.25"></line><line x1="30.9375" y1="0" x2="30.9375" y2="177" fill="rgb(0, 0, 0)" stroke="rgb(66, 66, 66)" stroke-width="1px" opacity="0.25"></line><line x1="61.875" y1="0" x2="61.875" y2="177" fill="rgb(0, 0, 0)" stroke="rgb(66, 66, 66)" stroke-width="1px" opacity="0.25"></line><line x1="92.8125" y1="0" x2="92.8125" y2="177" fill="rgb(0, 0, 0)" stroke="rgb(66, 66, 66)" stroke-width="1px" opacity="0.25"></line><line x1="123.75" y1="0" x2="123.75" y2="177" fill="rgb(0, 0, 0)" stroke="rgb(66, 66, 66)" stroke-width="1px" opacity="0.25"></line><line x1="154.6875" y1="0" x2="154.6875" y2="177" fill="rgb(0, 0, 0)" stroke="rgb(66, 66, 66)" stroke-width="1px" opacity="0.25"></line><line x1="185.625" y1="0" x2="185.625" y2="177" fill="rgb(0, 0, 0)" stroke="rgb(66, 66, 66)" stroke-width="1px" opacity="0.25"></line><line x1="216.5625" y1="0" x2="216.5625" y2="177" fill="rgb(0, 0, 0)" stroke="rgb(66, 66, 66)" stroke-width="1px" opacity="0.25"></line><line x1="247.5" y1="0" x2="247.5" y2="177" fill="rgb(0, 0, 0)" stroke="rgb(66, 66, 66)" stroke-width="1px" opacity="0.25"></line><line x1="278.4375" y1="0" x2="278.4375" y2="177" fill="rgb(0, 0, 0)" stroke="rgb(66, 66, 66)" stroke-width="1px" opacity="0.25"></line></g><g><line x1="0" y1="177" x2="278.4375" y2="177" fill="rgb(0, 0, 0)" stroke="rgb(66, 66, 66)" stroke-width="1px" opacity="0.25"></line><line x1="0" y1="154.87499999999997" x2="278.4375" y2="154.87499999999997" fill="rgb(0, 0, 0)" stroke="rgb(66, 66, 66)" stroke-width="1px" opacity="0.25"></line><line x1="0" y1="132.75000000000003" x2="278.4375" y2="132.75000000000003" fill="rgb(0, 0, 0)" stroke="rgb(66, 66, 66)" stroke-width="1px" opacity="0.25"></line><line x1="0" y1="110.625" x2="278.4375" y2="110.625" fill="rgb(0, 0, 0)" stroke="rgb(66, 66, 66)" stroke-width="1px" opacity="0.25"></line><line x1="0" y1="88.49999999999996" x2="278.4375" y2="88.49999999999996" fill="rgb(0, 0, 0)" stroke="rgb(66, 66, 66)" stroke-width="1px" opacity="0.25"></line><line x1="0" y1="66.375" x2="278.4375" y2="66.375" fill="rgb(0, 0, 0)" stroke="rgb(66, 66, 66)" stroke-width="1px" opacity="0.25"></line><line x1="0" y1="44.24999999999998" x2="278.4375" y2="44.24999999999998" fill="rgb(0, 0, 0)" stroke="rgb(66, 66, 66)" stroke-width="1px" opacity="0.25"></line><line x1="0" y1="22.12499999999996" x2="278.4375" y2="22.12499999999996" fill="rgb(0, 0, 0)" stroke="rgb(66, 66, 66)" stroke-width="1px" opacity="0.25"></line><line x1="0" y1="0" x2="278.4375" y2="0" fill="rgb(0, 0, 0)" stroke="rgb(66, 66, 66)" stroke-width="1px" opacity="0.25"></line></g></g></g><g><g><line x1="0" y1="531.0000000000001" x2="278.4375" y2="531.0000000000001" fill="rgb(0, 0, 0)" stroke="rgb(153, 153, 153)" stroke-width="1.5px"></line></g></g><g><g><line x1="30.9375" y1="0" x2="30.9375" y2="177" fill="rgb(0, 0, 0)" stroke="rgb(153, 153, 153)" stroke-width="1.5px"></line></g></g><g><g><g><g><g><path stroke="rgb(255, 112, 67)" stroke-width="2px" d="M37.558125000000004,-23.722581775936543L37.7746875,9.083119583545669L37.8984375,-37.216568685250145L37.94484375,17.87101954153075L38.19234375,27.713519887826394L38.424375000000005,36.293305417371215L38.71828125,42.08362018613353L38.87296875,24.390864187070697L38.93484375,80.45623033386867L39.15140625,56.08623205399871L39.18234375,51.37224688240511L39.228750000000005,38.24803643027104L39.429843749999996,31.64961447245637L39.522656250000004,70.51941795387857L39.86296875,110.05686866733L39.955781249999994,149.27893047113753L40.1878125,154.25515337983563L40.29609375,97.00486323297478L40.327031250000005,87.8550918102444L40.60546875,92.60026698422243L41.023125,72.41472203472965L41.28609375,111.562748002963L41.595468749999995,145.91068816973944L41.889375,48.668043176810166L42.5390625,86.81997430359833L42.57,103.74269533776334L43.003125,74.3791100836992L43.065000000000005,77.29310867829432L43.54453125,70.64011640335949L43.776562500000004,135.3259187548596L43.792031249999994,149.52723167891847L43.8075,102.51675153705567L44.00859375,77.4295511182128L44.59640625,91.06064420854935L44.611875,117.36132363030869L44.65828125,85.31489398210951L44.92125,131.75043983834823L45.06046875,143.48324959026476L45.1378125,104.75122926263035L45.24609375,54.91099346654424L45.27703125,127.86007269011029L45.648281250000004,114.74858799747282L45.802968750000005,61.943152625391775L45.9421875,93.62195278348322L45.973124999999996,71.8383899577963L46.42171875,95.77862662962129L46.591875,78.43474307293324L46.79296875000001,48.182568506208796L46.8703125,72.19673500705225L47.04046875,63.51521910875122L47.41171875,62.28461741297891L47.4271875,64.90401193731701L47.489062499999996,59.848428065977565L48.1078125,35.83130792403344L48.13875,72.0741449423082L48.30890625,19.00844019815011L48.37078125,68.24250862696574L48.618281249999995,127.10300411104441L48.68015625,190.9850490276175L49.4071875,193.89719682934847L49.515468750000004,100.52348361613133L49.561875,105.09971690298188L49.670156250000005,109.40240276528044L49.840312499999996,154.0010335247078L50.28890625,122.00824651720274L50.56734375,131.31551633836122L50.7065625,76.0646790239888L50.81484375,51.27239210150701L51.0778125,70.55378476823604L51.46453125,63.01616104868195L51.619218749999995,58.753921800417565L52.23796875,101.96265335593392L53.088750000000005,126.202183379017L53.150625,143.94040852980774L53.645625,174.41170139132117L53.7384375,156.7961541981588L53.769375000000004,153.1129044485742L53.83125,111.78509462431987L53.97046875,118.21557746860934L54.24890625,108.64135481735202L54.388125,114.91574930739483L54.8521875,108.72574118728683L55.05328125,47.25171030733133L55.06875,-7.59272301093845L55.4709375,43.68499329748086L55.501875,102.36938175596198L56.10515625,139.29614736758117L56.3990625,121.20707689596681L56.507343750000004,144.84345044418257L57.55921875,128.3904500140195L57.8221875,93.10509708425073L57.96140625,99.49882488489548L57.976875,96.10087183141947L58.224375,111.07652949407246L58.23984375,67.00790689059825L58.33265625,81.26486792962987L58.471875,49.97497380555416L58.564687500000005,61.44673751163921L58.85859375,99.11251841705109L58.982343750000005,100.04287451637424L59.01328125,129.40189688880824L59.16796875,144.19757952379933L59.72484375,60.52494638614509L60.096093749999994,59.554258003548725L60.31265625,73.99628973288296L60.467343750000005,81.9991124438224L60.59109375,87.31688677769765L60.8540625,102.37263376117863L61.00875,106.95024054408742L61.6584375,112.10352841115397L61.689375,97.710250524261L61.766718749999995,40.727554588066546L61.983281250000005,69.01456142577352L62.10703125,86.04918209679613L62.35453125,84.88841919283684L62.47828125,64.65876692343124L62.818593750000005,8.79858480577683L63.31359375,-5.453764315336854L63.468281250000004,39.38503305560947L63.96328125,78.24628680614587L64.05609375,69.81707297961685L64.36546874999999,85.94933005989058L64.5665625,58.35302963447848L64.86046875000001,38.36130949015783L64.96875,106.6995659390412L65.12343750000001,113.45571054931418L65.278125,114.16823168346846L65.3709375,143.30078525095922L65.41734375,111.70342115610686L65.525625,102.40654152363446L65.78859375,80.72695678907577L66.22171875000001,115.71807454787462L66.31453125,88.49425151802757L66.45375,144.0135868272642L66.639375,137.5233437288678L66.70125,134.51826142185186L66.763125,110.42797379740028L67.2890625,103.65804171292753L67.36640625,96.9965174480007L67.381875,112.04084988437452L67.39734375,101.81187865139462L67.49015625,93.1234609991396L67.629375,117.04756701350715L67.9696875,145.22110897815529L68.20171875,147.1001827717799L68.26359375,140.01301057046524L68.27906250000001,49.948370223676385L68.69671875,86.53814001705365L69.06796875,75.8919587750799L69.09890625,94.56581440088551L69.25359375000001,120.70633478771093L69.3,124.83527372366453L69.40828125,130.58257688037313L69.43921875,115.88153152437062L69.5165625,118.95255956215294L69.77953125,122.72009385921142L69.8259375,151.1359787273263L70.35187499999999,144.25241520630445L70.47562500000001,144.29430971817445L70.93968749999999,132.96254542038608L71.01703124999999,81.01181865075681L71.10984375,118.47163708114297L71.17171875,95.84450873794363L71.341875,44.26074839867476L71.41921875,83.43310006700351L71.48109375,79.36510962094309L71.7440625,76.24751824644471L71.92968750000001,31.660293087406526L71.9915625,23.96541245880337L72.4865625,13.843047348276418L72.5175,41.124960671434195L72.74953125,133.0933385226544L73.12078125000001,132.81700024207927L73.58484375,90.20957920372778L73.70859375,84.13016025674521L73.77046874999999,112.2239912060033L73.95609375000001,120.13098294479438L74.0334375,122.80568564798111L74.38921875,116.50549437919658L74.5284375,98.29672098350167L75.06984375,133.18093220407746L75.10078125,169.925018975228L75.37921874999999,115.05695673471088L75.44109375,153.61531504479294L75.71953125,75.71948058895616L75.93609375,96.51598160858357L75.9825,97.21039107081538L76.33828125,124.42692826472073L76.6321875,95.60141075719802L76.6940625,97.82729412954698L77.04984375,80.30694104636697L77.11171875,115.54611339512464L78.14812500000001,158.58490853514076L78.2409375,108.13802710476992L78.53484375000001,-26.522267369607206L78.56578125,1.9542277346973878L78.6740625,46.595134147460755L78.79781249999999,53.07002821472614L78.90609375000001,24.333834680362486L79.06078125,76.43958993103747L79.32375,79.13615473417427L79.756875,21.729054017710602L79.98890625,15.68417395880693L80.004375,96.99841487247274L80.06625,107.89627801977711L80.42203125,124.66966468455266L80.5303125,177.68153778381267L80.5921875,101.61363700429871L80.63859375,94.12061603903932L80.79328125,71.24665173018077L80.80875,59.96406257822575L81.2109375,82.28247621461432L81.27281249999999,87.6835574525874L81.31921875,104.92262174000037L81.44296874999999,60.10107599681433L81.56671875,88.6743623732675L82.09265625,92.0770490687578L82.231875,114.15158378609952L82.72687499999999,57.11825535612665L82.74234375,59.539672016604904L83.16000000000001,69.5172432032252L83.77875,-3.8623293419465354L84.3046875,66.17133308769553L84.7378125,23.431940664775897L84.830625,113.06672215755447L84.92343749999999,90.6578237074355L84.96984375,93.090558061465L85.00078124999999,117.87677234379309L85.1090625,94.1088075039855L85.29468750000001,98.67086376238295L85.51125,63.218046051194875L85.75874999999999,51.02369996126328L85.80515625,29.50122376510997L86.59406249999999,72.80945214169921L87.36749999999999,68.74379845880094L87.42937500000001,33.509939410821275L88.24921875,15.661257260165034L88.52765624999999,11.667941491676242L88.62046875,6.004451928062938L88.97625,52.75642905087693L89.038125,76.91494728595863L89.08453125,99.69898642284187L89.3165625,129.44628530849525L89.45578125,129.8545681274504L89.50218749999999,96.98417887011595L90.07453125,106.7671526308026L90.10546875,89.96669328124322L90.2446875,106.65221942908165L90.33749999999999,75.94404990939252L90.4303125,16.210325565743183L90.6159375,24.135407118086672L90.646875,57.2551268476752L90.66234375,113.08957079282452L90.77062500000001,157.16708271641164L91.265625,169.45491948985233L91.55953124999999,131.90971547820072L91.60593750000001,96.50778125797446L91.7296875,123.79874019369329L91.7915625,131.59896969821955L91.8225,99.22364487664048L91.884375,156.71907011220543L91.9771875,119.34509077697804L91.99265625,159.50619061607009L92.08546874999999,136.02171004604034L92.22468749999999,131.0710861223384L92.36390625,135.52561952694919L92.68875,88.09286892726817L93.05999999999999,61.09874851593252L93.23015625,72.61006312721295L93.66328125,126.08201204927757L94.12734375,136.03194711024756L94.20468749999999,128.90508430549616L94.49859375000001,122.90645132272908L94.65328124999999,142.4362301010458L94.6996875,100.20311728588155L94.71515625,106.67264768166193L95.4421875,155.12234094847952L95.55046875000001,109.03613348072595L95.61234375000001,90.05507655898226L95.89078125,90.01085482215579L96.04546875,121.00200664207755L96.10734375,104.74683602276691L96.26203124999999,119.55989535822421L96.35484375,113.2693350027439L96.41671875,93.8442915296815L96.47859374999999,89.38741366662158L96.88078125,58.78623106835828L97.08187500000001,67.3201785997065L97.19015625,124.48978021237328L97.28296875000001,175.79862522180724L97.71609375,134.36742190179734L98.07187499999999,101.10308846925207L98.13375,78.1537153875501L98.14921874999999,80.58564182851737L98.27296875,69.30316672166602L98.89171875000001,105.31956013703594L98.90718749999999,107.39481696882392L99.04640625,92.85874684690563L99.185625,61.88493216955141L99.2165625,38.96533595874003L99.66515625000001,10.282079168284481L99.99,37.28117518313196L100.1446875,61.51129644624868L100.175625,111.25899985738087L100.36125,129.62843295519045L100.42312500000001,125.22996947517692L101.10375,84.83029175907788L101.45953125,58.731703106226995L101.76890625,24.3358293078318L101.89265625,42.77728817176674L102.10921875,37.371508510779435L102.32578124999999,75.8514792155451L102.40312499999999,54.083734755589134L102.54234375,70.08746272019958L102.66609375,90.43146827633629L102.6815625,149.96397848615317L102.71249999999999,156.92955756002232L102.72796875,137.30779133923988L102.774375,123.87320862226568L103.00640625000001,16.053269654589165L103.23843749999999,86.7131580055221L103.53234375000001,36.93180695417309L103.59421875,37.818407635347796L104.7234375,40.7219075175862L105.31125,73.85107495860696L105.38859375,97.34828801439066L105.4659375,108.77040492287787L105.620625,120.51678851718613L105.6515625,146.57517829224415L105.75984375,92.99580294004045L105.88359375,82.16710856325007L105.94546875,61.737519531050765L105.9609375,58.804785605430276L106.0228125,76.60567752191999L106.0846875,75.40915601354584L106.30125,79.96393316627592L106.486875,104.40386560643347L106.54875,137.94842160394566L106.610625,116.9863664695667L106.90453124999999,139.2684505575328L106.92,118.44033179243975L107.0746875,129.29060674643856L107.29125,89.82291810772622L107.3840625,105.96832194663172L107.55421875,86.27530875943353L108.09562500000001,39.09905762757213L108.18843749999999,99.56798468700265L108.28125,106.68599388701446L108.4359375,124.96366815687853L108.52875,89.18915138197914L109.07015625000001,62.865351689177615L109.53421875000001,119.78075617093916L109.96734375,81.43951764726091L110.07562499999999,63.21736331298018L110.27671875,77.29279266008177L110.4159375,128.7656956923511L110.49328125,117.08594031110444L110.6325,121.43882565781499L110.64796875,72.22345448783058L110.95734375,82.19501800090681L110.9728125,75.71659966260557L111.7771875,46.005085813703296L111.94734375,105.12481662494073L111.99374999999999,138.7438734135755L112.51968749999999,149.1705553628044L112.53515625,145.56627647859074L112.72078125,114.4562155650986L113.169375,114.93792848568752L113.2003125,80.71760967839717L113.3240625,102.32546408157917L113.33953125000001,132.7981758158289L113.4478125,118.4431202823449L113.86546875,110.96805191126636L113.89640625,133.09041725151044L114.45328125,99.00253206820668L114.57703124999999,70.32973803181274L114.5925,86.05794248639833L114.654375,83.91721812879614L114.68531250000001,75.09985671636805L114.7471875,127.75096581993905L114.93281250000001,167.19629419218543L115.3659375,157.07998617810634L115.38140625,93.13225248946326L115.44328125,132.77923238869653L115.50515625,112.79938753900612L116.139375,77.13185046886021L116.58796875,86.78651841744546L116.9746875,100.84493183353409L117.0365625,124.20683693742075L117.0984375,92.76377641174388L117.36140625,54.77789762325996L117.624375,69.60530955617378L117.73265625,90.35202950551955L118.243125,135.5623111833027L118.75359375,119.52588679545471L118.81546875,41.77812147827952L119.06296875,118.96783749873644L119.35687499999999,69.52257141241554L119.480625,15.417498760039347L119.77453125,7.063141541251404L120.16125000000001,-24.942034085649873L120.9965625,39.5122896074899L121.02749999999999,71.41252130804345L121.213125,106.47003258489298L121.27499999999999,137.92536326779566L121.46062500000001,99.01014292260193L121.584375,112.39522506606694L121.69265625,71.00042294747898L121.9246875,155.13472020797295L122.21859375000001,138.9716528008721L122.29593750000001,140.3419328808988L122.49703125,120.93465769172937L122.574375,121.00684383738776L122.58984375,132.69370063083616L122.60531250000001,146.11745877824575L123.06937500000001,88.0427771077296L123.13125000000001,43.28424418960456L123.14671874999999,98.56918338831929L123.22406249999999,60.564514952282096L123.27046875,69.98384202860595L123.2859375,111.51285895313501L123.564375,126.8573372817378L123.88921875,136.78428747691754L124.0284375,145.7712811376932L124.47703125,179.5850918767621L125.00296875,119.53102995322757L125.11125,137.25278859357005L125.296875,163.77669591617564L125.34328125,170.21642150230394L125.83828125,145.83977300374025L125.96203125,89.46193946867174L126.39515625,57.60023371856796L126.81281249999999,102.1123322724187L126.89015624999999,64.89231258802913L126.92109375,98.22747933371838L127.71,48.50532940926536L127.78734374999999,18.238829171075658L127.91109375,58.163816592344205L128.03484375,110.20163600221197L128.390625,114.39643696591213L129.70546875,111.57736691620917L129.8446875,135.06264274887423L129.92203125,83.56836926682104L130.06125,122.84999847855163L130.66453125,95.1277488139033L130.69546875,57.60224295060393L131.22140625,66.57777959943148L131.37609375,88.91524639034472L131.49984375,82.41224803211811L131.54625,82.49901675690727L131.65453125,48.69898462301205L131.8246875,57.323375272784865L132.2578125,40.77478879274979L132.6290625,94.3979283725146L132.76828125,80.95222407310746L132.84562499999998,3.6520220501990996L133.0003125,28.525167767034322L133.0621875,76.21949435998582L133.216875,115.15298332708826L133.37156249999998,99.38409964703172L133.57265625,91.97519711829813L133.61906249999998,70.0425213645553L133.82015625,80.50831895891761L134.206875,103.31535667672118L134.50078125000002,96.61833443936321L134.68640625,106.14355374989877L134.701875,149.95977374087556L134.7328125,168.98876950842606L134.949375,177.45916335107367L135.01125,139.86132471156998L135.15046875,175.62079645629458L135.50625,189.8196467842801L135.55265625,143.503568544158L135.76921875,106.81470099936045L135.95484374999998,69.71661596208878L136.01671875,114.64869310087005L136.34156249999998,109.61677760556961L136.57359375,113.21621106371656L136.6509375,133.47973548057894L137.053125,127.95174028982656L137.115,73.21685196763235L137.13046875,56.6485368508455L137.2696875,94.2930137633298L137.40890625,71.9228510659346L137.59453125,125.16350793846905L137.795625,114.5092996627596L138.21328125,147.26367360773727L138.290625,119.87256244077112L138.49171875,84.72815681549206L138.661875,69.4924106481808L139.29609375,119.01765785712828L139.31156249999998,136.17152783929606L139.66734375000001,124.94374325966416L139.8375,69.61447504219758L140.270625,90.42048605416619L140.4871875,82.66677647015096L141.18328125000002,125.4903492223063L141.27609375,132.52455005293123L141.384375,149.61923617568632L141.39984375,105.39892497627154L141.84843750000002,115.19862751345764L142.04953125,141.10682203877528L142.3125,102.6145649910483L142.46718750000002,86.56367153588013L142.63734375,74.46713372864176L143.0859375,108.75684661446718L144.15328125,110.52274108993235L144.43171875,76.94750464002627L144.4471875,95.64370666468342L144.58640624999998,121.33500323310018L144.92671875,128.6879158295066L145.08140625000001,142.96845739643996L145.57640625000002,151.39491091407075L145.66921875,81.93730869434316L145.91671875,99.45917207027695L146.04046875,56.40517256870994L146.24156250000001,94.37156560251198L146.5509375,40.21632776396922L146.59734375,85.95328712306886L146.84484375,119.25603959168484L147.2315625,68.2400643658965L147.571875,79.33260668708856L147.78843750000001,90.22610234256972L148.005,90.75369838497875L148.20609374999998,113.29720087422034L148.42265625,120.14604830189406L148.68562500000002,96.76087816026126L148.9640625,112.02862495759912L149.28890625,86.75683613765113L149.35078125,128.31582492678092L149.3971875,121.71228312008814L149.44359375,119.4464960935905L149.98499999999999,124.6551115896222L150.06234375,116.60172800635799L150.07781250000002,71.48078542599377L150.40265625,67.31417735307993L150.68109375,110.11732626789556L150.85125,95.05600604613869L151.93406249999998,86.82636973083169L152.28984375000002,127.83593880128952L152.63015625,145.2815384774929L152.7384375,165.7337293481544L152.769375,92.11016610894887L152.84671875,95.19700184246477L152.87765625,95.86892505753381L152.9240625,106.62319363217559L152.93953125,112.7181617770255L153.2334375,115.47481696329473L153.2953125,109.55807463539814L153.45,163.64140223093733L153.48093749999998,117.28368301467837L153.52734375,91.13835511074511L153.55828125,62.4081528274181L154.130625,119.59878911006231L154.1615625,130.06107423262466L154.26984374999998,141.79800263080998L154.37812499999998,124.59060412665609L154.47093750000002,105.48914005470516L155.0278125,159.138830909802L155.19796875,128.90375569443316L155.70843749999997,159.93512406337504L155.90953125000001,73.55643238656667L155.9559375,103.97784924526776L156.83765625,144.0492264927612L156.96140625,101.51849878735459L157.2553125,106.9017759079165L157.348125,130.8120274254338L157.59562499999998,173.92653254322147L157.6265625,177.15061537415946L157.71937499999999,177.04331929082372L157.81218750000002,124.64422494825537L157.96687500000002,143.29913508687505L159.4209375,127.23120643671805L159.71484375,58.93814192996301L159.77671875,124.98092322519948L159.99328125,91.62259394211483L160.05515624999998,28.633624185817865L160.070625,65.87945063990198L160.08609375,24.674127543460408L160.11703125,81.36293560832209L160.1634375,22.12909820419228L160.73578125,57.01615421021984L160.76671875,96.92469942298541L160.9059375,132.0269365115584L160.99875,79.97307799182063L161.431875,39.84508972419339L161.47828125,19.111915275770635L161.5865625,38.14254198093305L161.679375,40.542956904286704L161.9578125,89.79023549301303L162.08156250000002,83.76616991962722L162.1434375,115.75098673347071L162.46828125000002,110.7163093915191L162.49921874999998,116.16350462023057L162.73125,98.66515820612693L162.83953125,106.00833458834997L163.00968749999998,62.34220741471115L163.08703125,86.43664933610239L163.25718750000001,103.5980104736583L163.58203125,109.58908618879892L164.85046875,130.09281914170137L165.19078125000001,79.73754119715424L165.2990625,117.73414460326036L165.59296875,86.4707337707567L165.70125000000002,92.5532418662481L166.42828125000003,30.00243926490378L167.18625,49.252255907327175L167.23265625,79.57875877062695L167.6503125,63.96073182487617L167.72765625,85.95034436323724L168.22265625,77.28781567477273L168.67125,71.63062081016945L168.82593749999998,107.34546009765776L169.61484374999998,79.27927774528686L169.80046875,116.68229609036459L170.29546875,82.23801854732042L170.5584375,63.556161746277844L171.37828125000001,135.53145330541994L171.5484375,201.45621186729468L171.74953125,190.3730998554332L172.92515625000001,171.26193946710242L173.04890625000002,158.72405992514499L173.14171875,58.029246989289554L173.23453125,96.88784323835355L173.63671875,118.81331251087181L174.68859375,100.54621036364072L174.796875,72.20163580485249L174.920625,67.89724958365002L174.96703125,23.060618736891996L174.99796874999998,67.6377831331188L175.18359375,120.36174412556258L175.291875,78.9784417151675L175.35375,88.28342610593232L175.43109375,113.9854803710913L175.52390625,115.71573821781487L175.64765625,79.40821248041634L175.8178125,40.65403919963266L176.29734375,110.55179508357186L176.56031249999998,74.83574475842082L177.07078124999998,68.81459331510877L177.148125,72.0911592095996L177.519375,56.894797503942506L179.4065625,77.96094984411846L179.42203125,117.0204682177285L179.57671875,103.18151363289233L180.56671874999998,109.71102361414357L180.69046875,103.63023625930263L180.79874999999998,95.63516791832514L180.860625,91.41861550612484L180.9225,133.81783909561176L181.17,116.32710452951159L181.18546874999998,123.43716920958258L181.2009375,81.61427586106235L181.231875,80.06545941727025L181.38656250000003,95.35187005815902L181.46390625,102.87029060016877L181.54125000000002,105.36487763399369L181.66500000000002,78.48094939753108L181.74234375,96.27275115886145L181.80421875,132.85453248404755L181.9125,138.60984481801563L182.26828125,135.75237823384987L182.51578125,98.22947474931469L182.70140625,75.29640884169814L183.15,62.819597050362034L183.84609375,50.009414935000606L183.8615625,66.07669366829865L184.18640625,91.73625406583116L184.2328125,55.929251423239506L184.68140624999998,65.70008382246478L184.9134375,103.52419179109084L185.14546875,89.08534807221501L185.2846875,73.24015384171254L185.686875,85.96279111059809L185.84156249999998,104.0730993184585L185.85703125,105.27239128250713L185.91890625,103.226950724714L186.10453125,140.3346555976826L186.13546875,67.68161302499519L186.7696875,41.49361829276413L187.49671875,44.91804727503977L187.5740625,60.07658383303476L187.65140625,74.5390295240497L187.8215625,104.0695519836673L187.83703125000002,123.38711693834833L187.99171875000002,139.17303045959218L188.27015625,128.3942726664003L188.3475,97.84495723618603L188.91984374999998,82.0212883584114L189.26015625,63.95843818678928L189.41484375,74.44033148225824L189.97171875,90.64809713564327L190.12640625,91.09175700129282L190.46671874999998,32.65590224970111L191.05453125,58.64387274270492L191.10093750000001,10.44996845415373L191.2865625,34.30248917157141L191.3175,102.41750556239298L191.3484375,28.598728251509712L191.75062499999999,61.66425947073269L192.06,34.85747300221427L192.3075,100.5106074758405L192.555,123.57846530068126L192.7096875,105.04116209321144L192.72515625,100.5426511226471L193.62234375,161.26043966164443L193.66875000000002,135.8735218927279L193.730625,45.4548450520643L193.85437499999998,91.10075663691806L193.978125,77.59516501525671L194.02453125,109.7219588494279L194.04,131.56337852990498L194.07093749999999,135.91805517504133L194.33390625,121.16574893194142L194.45765624999999,60.19391944287839L194.47312499999998,55.316631804577256L194.64328125,74.77876448671324L194.70515625,32.73715131306825L195.13828125,47.66527749195203L195.21562500000002,76.85292837676108L195.3703125,64.31535019967977L195.7725,104.81169055994765L196.15921875,107.47104333398592L196.2675,49.161954555260245L196.31390625,114.67808249494266L196.43765625,117.4656794780542L196.88625000000002,113.89126328909694L197.02546875,81.65019620826423L197.14921875,97.22132893425575L197.24203125,64.60875970734567L197.5359375,81.37482180662994L198.20109374999998,124.42693663220435L198.46406249999998,79.70213680911554L198.51046875,41.234947582772364L198.54140625,90.66719118099873L198.7115625,26.834839208969242L199.12921874999998,38.62496813478994L199.7015625,33.07508682813003L200.11921875000002,111.2907628095493L200.13468749999998,91.66410100617085L200.22750000000002,62.797450519550296L200.25843749999999,92.15907943960931L200.52140624999998,79.88818698654718L200.64515624999999,94.49075801688524L200.7225,68.6731393040305L200.83078125,88.60313323444635L200.95453125,70.65798863057204L201.40312500000002,93.69884339442194L201.7125,59.0276211736819L201.72796875,42.02815762986068L201.78984375000002,57.83901836472348L201.94453125,61.08477471767428L202.1146875,87.68496635555367L202.47046874999998,128.16146012842142L202.82625,130.3213752400844L202.888125,86.56047443997674L203.12015625,90.12949269683253L203.21296875,96.26737071973734L203.383125,144.32263340295947L203.39859375,86.3311925515031L203.70796875,70.38888789024914L203.89359375,8.124206011336836L204.01734375,101.41331025054562L204.18749999999997,97.32880690449778L204.249375,97.37147075089402L204.31125,97.334507427529L204.34218750000002,96.71026604587765L204.4040625,96.70404886433445L204.48140625,108.67109897273161L205.2084375,91.9394533278786L205.23937500000002,121.31930485917584L205.4559375,107.54864874215993L205.51781250000002,91.41704631884141L205.6415625,96.7815460386231L205.74984375,106.20936907961102L205.858125,139.913230786527L206.29125000000002,128.89578498292255L206.30671875,80.4495080762403L206.39953125000002,44.47059387584311L206.6934375,115.90151124369966L206.70890624999998,107.759237019252L206.91,87.14764025392007L207.03375,66.28550106633824L207.11109375,109.00510027020644L207.17296875,84.70823389595432L207.29671875000003,55.24992767754602L207.60609375,81.99801442196014L207.9,53.80420137149121L208.03921875,76.34291266025316L208.209375,73.24475101304772L208.31765625,40.70071904762218L208.3640625,33.02451990785379L208.78171875,97.09994558538301L209.09109375,78.2973126205522L209.15296874999999,85.18029937343111L209.4778125,118.23401889620013L209.6015625,97.06517212341896L210.40593750000002,59.26685161441963L210.6225,54.0579970094585L211.19484375,54.21065524596113L211.25671874999998,91.21224109457815L211.72078125,84.00590268151095L211.84453125000002,112.70766470656467L212.0146875,112.48795284524958L212.33953125,100.40767179546L212.5096875,132.04286252330093L212.52515625,127.75145896595923L212.80359374999998,79.51726838840369L212.92734375,64.26875738139937L213.39140625,41.17976148030752L213.71625,95.92126267016883L214.41234375000002,145.53680824256514L214.75265624999997,90.59226686368334L215.1703125,116.75456529027187L215.21671874999998,75.50467885533547L215.325,120.59444283544762L215.55703125,156.14605391979063L215.58796875,156.46185124790577L216.51609375,134.2226815454716L216.82546875,117.09761660591097L216.88734374999999,61.474322976442124L217.01109375000001,128.09527638064142L217.4596875,134.52655870620205L217.52156250000002,65.43622423949117L217.56796875,113.6292936279909L217.66078124999999,113.9246791764817L217.69171875,151.218352157755L218.31046874999998,114.74272133641438L218.37234375,100.09472395916585L218.4496875,151.76669126713162L218.74359375,127.65223056056429L218.7590625,122.1714476733108L218.97562499999998,149.73610883287785L219.0375,144.64869211216092L219.26953125,95.47380041539259L220.16671875,70.24195404624692L220.25953124999998,93.07117578849645L220.38328124999998,89.94142354408174L220.4915625,71.21806174444718L220.86281250000002,48.223935001656784L220.89375,60.09314396891914L221.65171875,23.19495259472081L221.9146875,65.57472445218775L221.97656250000003,106.11983295767914L222.33234375,124.01606613689309L222.3478125,146.95850682731657L222.70359374999998,116.96316521749611L223.554375,57.75611001483031L223.61625,49.63503186244624L223.86375,77.59882770978724L223.8946875,60.65927406849452L223.91015625,89.32281468631027L223.925625,91.29125680518861L224.0184375,130.01059317584466L224.049375,85.689598891113L224.08031250000002,102.05592753766405L224.15765625,132.10160733031287L224.73,53.57331371168519L225.03937499999998,55.564870654703554L225.05484375,105.10493833372674L225.08578125000003,144.19999653130583L225.163125,38.283679443775505L225.65812499999998,86.22926601658999L225.9984375,112.08789773518292L226.0603125,110.65511241098906L226.35421875,134.7417465957443L226.44703125,101.91171932294608L226.63265625,54.81460974856994L227.03484375000002,78.90670110431184L227.2978125,78.92078231958666L227.77734375,93.29571049027514L227.93203125,98.92138841517493L227.99390624999998,87.3333031640513L228.009375,112.00174320376303L228.56625,111.5780307360672L228.751875,155.475355723988L229.32421875,150.4020620909279L229.38609375,122.98575448554433L229.44796875,146.04693690873196L229.54078124999998,118.68958159647592L229.7728125,142.08173382796173L230.05124999999998,95.96416182826358L230.09765625,53.12163181013108L230.34515625,29.928575193323123L230.84015625,58.0430271181091L230.8865625,108.00566705182936L231.05671875,116.20162258217185L231.36609375,146.0136083583203L231.39703125,119.85662020565077L231.48984374999998,113.34077512515191L231.79921875,83.29410257513882L231.81468750000002,82.83411457583641L231.83015625,105.97438382175766L232.03125,58.759015357894896L232.47984375000001,106.14939988935183L232.82015625,96.72347833385582L232.835625,67.90545732480592L232.94390625,124.49747828961794L233.145,106.6189683516108L233.25328125000001,70.7062429451515L233.7328125,116.7253672131043L234.02671875000001,-5.11610359262575L234.13500000000002,50.77875008397607L234.196875,63.89291627236195L234.36703125,61.581304010915694L234.80015625000001,77.85461212823863L234.8775,55.38921572047514L235.29515625,88.81521799432065L235.60453124999998,48.303472025792765L235.63546875,40.6079485944515L235.72828124999998,118.6813782651189L235.7746875,160.57751525336286L235.82109375000002,151.37833056088556L236.62546875,160.50743315360705L236.65640624999997,123.1099344804392L236.81109375,94.17428327587285L236.85750000000002,47.43520863048458L237.0121875,87.37502504105701L237.3525,112.13989894220428L237.39890625,140.71935124474285L237.5690625,140.64283231662228L237.61546875,117.52315219501564L238.1878125,140.04686319982946L238.20328125,108.65436675045457L238.26515625000002,142.40168253119927L238.51265625,105.0777308853635L238.8684375,125.67299886716417L239.58,93.79130575461986L239.75015625,116.92960840406303L239.78109375,113.91182379986215L239.8584375,153.5286634180866L239.87390625,82.71973102771774L240.02859375,67.86978529979905L240.1678125,29.35735253149343L241.250625,73.22214544805331L241.3125,68.72730782623555L241.9621875,78.95498679575606L242.03953125,81.38936722574998L242.10140625000003,61.89269303261264L242.14781250000001,35.339294674867496L242.31796875,52.52235085837485L242.42625,55.32494707448743L242.5190625,102.4708097132651L242.859375,113.83617093280601L242.90578125,127.82137150535378L242.983125,75.55988714974751L243.54000000000002,62.8097276829578L243.849375,147.91390996234998L244.0659375,168.49875053797592L244.2825,122.56742915531655L244.48359375,134.22945132863916L244.63828125,144.8916895688319L245.086875,100.1158205062594L245.7675,105.67327325287145L245.8603125,68.30619473005936L246.68015624999998,126.32307474461561L246.77296875000002,88.49218591241458L247.005,98.3400224935318L247.03593750000002,118.25877138622431L247.0978125,148.89836947708028L247.29890625,133.17920818679747L247.4690625,73.96691770108475L247.48453125,83.97630059571229L247.561875,28.050109075612763L247.65468750000002,62.05404559797466L247.82484375,90.82341905848041L248.16515625,148.4077815736285L248.36625,173.22688723653266L248.5209375,111.94558201163835L248.56734375,83.14060176569124" style="fill: none;" fill="none"></path></g></g></g></g><g opacity="0.2"><g><g><g><path stroke="rgb(255, 112, 67)" stroke-width="2px" d="M36.63,-15.331708878278771L36.76921875,51.97024507820604L37.0321875,-20.81765444576744L37.44984375,-129.814680531621L37.558125000000004,44.951348327100256L37.7746875,58.29165349155662L37.8984375,-106.66608573496346L37.94484375,100.50239092111588L38.19234375,42.47726923227308L38.424375000000005,49.162983097136L38.71828125,50.769092090427854L38.87296875,-2.1482693552971277L38.93484375,164.55427868664265L39.15140625,19.531234860420206L39.18234375,44.30126915127037L39.228750000000005,18.56172079592941L39.429843749999996,21.751981548964956L39.522656250000004,128.82412312924862L39.86296875,169.3630447089672L39.955781249999994,208.11202315986156L40.1878125,161.71948774158955L40.29609375,11.129428021609764L40.327031250000005,74.13043467700481L40.60546875,99.71802974492311L41.023125,42.13640461117027L41.28609375,170.28478695452213L41.595468749999995,197.43259841948748L41.889375,-97.19592431187634L42.5390625,144.0478709936142L42.57,129.12677688896656L43.003125,30.333732202649095L43.065000000000005,81.66410657018423L43.54453125,60.66062799096105L43.776562500000004,232.3546222820878L43.792031249999994,170.82920106500387L43.8075,32.001031324267366L44.00859375,39.79875048995016L44.59640625,111.50728384405375L44.611875,156.81234276294708L44.65828125,37.24524950981138L44.92125,201.40375862270594L45.06046875,161.08246421813965L45.1378125,46.6531987711787L45.24609375,-19.849360227584878L45.27703125,237.2836915254593L45.648281250000004,95.0813609585166L45.802968750000005,-17.26500043272976L45.9421875,141.14015302062035L45.973124999999996,39.16304571926592L46.42171875,131.68898163735867L46.591875,52.41891773790119L46.79296875000001,2.804306656122188L46.8703125,108.21798475831747L47.04046875,50.49294526129959L47.41171875,60.43871486932037L47.4271875,68.83310372382402L47.489062499999996,52.26505225896833L48.1078125,-0.1943722888827717L48.13875,126.43840046972036L48.30890625,-60.59011691808705L48.37078125,142.09361127018929L48.618281249999995,215.3937473371625L49.515468750000004,-39.537086203694386L49.561875,111.96406683325768L49.670156250000005,115.85643155872822L49.840312499999996,220.89897966384888L50.28890625,74.0190660059452L50.56734375,145.27642107009888L50.7065625,-6.811576947569886L50.81484375,14.083961717784385L51.0778125,99.47587376832962L51.46453125,51.70972546935079L51.619218749999995,52.36056292802093L52.23796875,166.7757506892085L53.088750000000005,162.56147841364145L53.150625,170.54774625599384L53.645625,220.11864068359137L53.7384375,130.37283340841532L53.769375000000004,147.5880298241973L53.83125,49.79337988793848L53.97046875,127.86130173504353L54.24890625,94.28002084046602L54.388125,124.32734104245901L54.8521875,99.4407290071249L55.05328125,-44.959336012601895L55.06875,-89.85937298834328L55.4709375,120.6015677601099L55.501875,190.39596444368362L56.10515625,194.68629578500986L56.3990625,94.07347118854523L56.507343750000004,180.2980107665062L57.55921875,103.71094936877489L57.8221875,40.177067689597585L57.96140625,109.08941658586264L57.976875,91.00394225120544L58.224375,133.5400159880519L58.23984375,0.9049729853868288L58.33265625,102.6503094881773L58.471875,3.040132619440536L58.564687500000005,78.65438307076693L58.85859375,155.6111897751689L58.982343750000005,101.43840866535902L59.01328125,173.44043044745922L59.16796875,166.39110347628593L59.72484375,-64.98400332033638L60.096093749999994,58.0982254296541L60.31265625,95.65933732688427L60.467343750000005,94.0033465102315L60.59109375,95.29354827851057L60.8540625,124.95625423640013L61.00875,113.81665071845055L61.6584375,119.83346021175385L61.689375,76.12033369392157L61.766718749999995,-44.746489316225095L61.983281250000005,111.44507168233395L62.10703125,111.60111310333014L62.35453125,83.14727483689785L62.47828125,34.31428851932285L62.818593750000005,-74.9916883707047L63.31359375,-26.83228799700741L63.468281250000004,106.64322911202908L63.96328125,136.53816743195057L64.05609375,57.17325223982332L64.36546874999999,110.14771568030119L64.5665625,16.95857899636028L64.86046875000001,8.373729273676853L64.96875,209.2069506123662L65.12343750000001,123.58992746472359L65.278125,115.23701338469982L65.3709375,186.99961560219526L65.41734375,64.30737501382826L65.525625,88.4612220749259L65.78859375,48.20757968723772L66.22171875000001,168.20475118607283L66.31453125,47.65851697325704L66.45375,227.2925897911191L66.639375,127.78797908127308L66.70125,130.01063796132803L66.763125,74.29254236072302L67.2890625,93.50314358621836L67.36640625,87.00423105061054L67.381875,134.60734853893518L67.39734375,86.4684218019247L67.49015625,80.0908345207572L67.629375,152.9337260350585L67.9696875,187.4814219251275L68.20171875,149.91879346221685L68.26359375,129.38225226849318L68.27906250000001,-85.14859029650692L68.69671875,141.42279470711946L69.06796875,59.92268691211937L69.09890625,122.57659783959389L69.25359375000001,159.917115367949L69.3,131.02868212759495L69.40828125,139.20353161543608L69.43921875,93.82996349036694L69.5165625,123.55910161882639L69.77953125,128.37139530479908L69.8259375,193.75980602949858L70.35187499999999,133.92706992477179L70.47562500000001,144.35715148597956L70.93968749999999,115.96489897370338L71.01703124999999,3.0857284963130756L71.10984375,174.66136472672224L71.17171875,61.90381622314451L71.341875,-33.11489211022858L71.41921875,142.19162756949663L71.48109375,73.26312395185232L71.7440625,71.57113118469715L71.92968750000001,-35.220544651150746L71.9915625,12.423091515898685L72.4865625,-1.340500317513982L72.5175,82.04783065617085L72.74953125,271.04590529948473L73.12078125000001,132.40249282121658L73.58484375,26.298447646200636L73.70859375,75.01103183627129L73.77046874999999,154.36473762989044L73.95609375000001,131.9914705529809L74.0334375,126.81773970276117L74.38921875,107.05520747601986L74.5284375,70.98356088995934L75.06984375,185.5072490349412L75.10078125,225.04114913195372L75.37921874999999,32.7548633739352L75.44109375,211.45285250991583L75.71953125,-41.124271094799084L75.93609375,127.7107331380248L75.9825,98.25200526416302L76.33828125,165.2517340555787L76.6321875,52.36313449591396L76.6940625,101.1661191880703L77.04984375,54.02641142159698L77.11171875,168.40487191826105L78.14812500000001,223.14310124516487L78.2409375,32.46770495921371L78.53484375000001,-228.51270908117303L78.56578125,44.66897039115427L78.6740625,113.55649376660585L78.79781249999999,62.782369315624216L78.90609375000001,-18.770455621182958L79.06078125,154.59822280704975L79.32375,83.18100193887949L79.756875,-64.38159705698494L79.98890625,6.616853870451431L80.004375,218.96977624297142L80.06625,124.24307274073362L80.42203125,149.82974468171597L80.5303125,257.1993474327028L80.5921875,-12.488214164972344L80.63859375,82.88108459115028L80.79328125,36.93570526689289L80.80875,43.04017885029314L81.2109375,115.76009666919708L81.27281249999999,95.78517930954695L81.31921875,130.7812181711197L81.44296874999999,-7.131242617964784L81.56671875,131.53429193794727L82.09265625,97.18107911199331L82.231875,147.26338586211205L82.72687499999999,-28.431737288832704L82.74234375,63.17179700732229L83.16000000000001,84.48359998315573L83.77875,-113.93168815970425L84.3046875,171.22182673215866L84.7378125,-40.67714796960358L84.830625,247.51889439672232L84.92343749999999,57.04447603225706L84.96984375,96.73965959250927L85.00078124999999,155.05609376728535L85.1090625,58.45686024427412L85.29468750000001,105.51394814997911L85.51125,10.03881948441265L85.75874999999999,32.732180826365926L85.80515625,-2.7824905291200075L86.59406249999999,137.77179470658302L87.36749999999999,62.645317934453466L87.42937500000001,-19.34084916114811L88.24921875,-11.111765965819398L88.52765624999999,5.677967838942985L88.62046875,-2.490782417357007L88.97625,122.88439473509789L89.038125,113.15272463858128L89.08453125,133.87504512816668L89.3165625,174.0672336369753L89.45578125,130.46699235588312L89.50218749999999,47.67859498411415L90.07453125,121.44161327183247L90.10546875,64.76600425690413L90.2446875,131.68050865083933L90.33749999999999,29.88179562985895L90.4303125,-73.39026094973092L90.6159375,36.023029446601846L90.646875,106.93470644205809L90.66234375,196.8412367105484L91.265625,187.88667465001345L91.55953124999999,75.5919094607234L91.60593750000001,43.40487992763517L91.7296875,164.73517859727144L91.7915625,143.29931395500898L91.8225,50.66065764427183L91.884375,242.9622079655528L91.9771875,63.284121774137L91.99265625,219.74784037470818L92.08546874999999,100.7949891909957L92.22468749999999,123.64515023678541L92.36390625,142.20741963386536L92.68875,16.943743027746656L93.05999999999999,20.607567898929098L93.23015625,89.87703504413366L93.66328125,206.28993543237448L94.12734375,150.9568497017026L94.20468749999999,118.21479009836912L94.49859375000001,113.90850184857845L94.65328124999999,171.73089826852083L94.6996875,36.853448063135126L94.71515625,116.37694327533245L95.4421875,227.79688084870577L95.55046875000001,39.90682227909563L95.61234375000001,61.583491176366785L95.89078125,89.94452221691608L96.04546875,167.48873437196016L96.10734375,80.36408009380102L96.26203124999999,141.77948436141014L96.35484375,103.83349446952343L96.41671875,64.70672632008791L96.47859374999999,82.70209687203169L96.88078125,12.884457170963268L97.08187500000001,80.12109989672899L97.19015625,210.2441826313734L97.28296875000001,252.7618927359581L97.71609375,72.2206169217825L98.07187499999999,51.20658832043407L98.13375,43.729655764996984L98.14921874999999,84.2335314899683L98.27296875,52.37945406138895L98.89171875000001,159.34415026009083L98.90718749999999,110.507702216506L99.04640625,71.05464166402817L99.185625,15.424210153520088L99.2165625,4.585941642522792L99.66515625000001,-32.74280601739888L99.99,77.77981920540333L100.1446875,97.85647834092379L100.175625,185.88055497407913L100.36125,157.18258260190487L100.42312500000001,118.63227425515652L101.10375,24.23077518492935L101.45953125,19.58382012695072L101.76890625,-27.25798138976101L101.89265625,70.43947646766901L102.10921875,29.262839019298532L102.32578124999999,133.57143527269363L102.40312499999999,21.43211806565521L102.54234375,94.09305466711521L102.66609375,120.94747661054134L102.6815625,239.26274380087852L102.71249999999999,167.37792617082596L102.72796875,107.87514200806618L102.774375,103.72133454680443L103.00640625000001,-145.67663879692557L103.53234375000001,-37.74021962285046L103.59421875,39.148308657109716L104.7234375,45.07715734094379L105.31125,123.54482612013817L105.38859375,132.59410759806633L105.4659375,125.90358028560877L105.620625,138.1363639086485L105.6515625,185.66276295483112L105.75984375,12.626739911735038L105.88359375,65.92406699806452L105.94546875,31.093135982751825L105.9609375,54.40568471699951L106.0228125,103.3070153966546L106.0846875,73.61437375098467L106.30125,86.79609889537096L106.486875,141.06376426666975L106.54875,188.265255600214L106.610625,85.54328376799822L106.90453124999999,172.69157668948174L106.92,87.19815364480019L107.0746875,145.56601917743683L107.29125,30.621385149657705L107.3840625,130.1864277049899L107.55421875,56.73578897863624L108.09562500000001,-31.665319070220033L108.18843749999999,190.27137527614832L108.28125,117.36300768703222L108.4359375,152.3801795616746L108.52875,35.52737621963022L109.07015625000001,23.37965214997528L109.53421875000001,205.1538628935814L109.96734375,23.92765986174343L110.07562499999999,35.88413181155918L110.27671875,98.40593668073416L110.4159375,205.97505024075508L110.49328125,99.56630723923445L110.6325,127.96815367788076L110.64796875,-1.5996022671461498L110.95734375,97.15236327052116L110.9728125,65.99897215515375L111.7771875,1.4378150403499408L111.94734375,193.80441284179688L111.99374999999999,189.17245859652758L112.51968749999999,164.8105782866478L112.53515625,140.15985815227032L112.72078125,67.79112419486046L113.169375,115.66049786657095L113.2003125,29.387131467461565L113.3240625,134.73724568635225L113.33953125000001,178.50724341720343L113.4478125,96.91053698211908L113.86546875,99.75544935464859L113.89640625,166.27396526187658L114.45328125,47.870704293251016L114.57703124999999,27.320546977221944L114.5925,109.65024916827679L114.654375,80.70613159239292L114.68531250000001,61.87381459772585L114.7471875,206.72762947529554L114.93281250000001,226.36428675055504L115.3659375,141.90552415698767L115.38140625,-2.789348043501416L115.44328125,192.24970223754644L115.50515625,82.82962026447058L116.139375,23.63054486364124L116.58796875,101.26852034032345L116.9746875,121.93255195766687L117.0365625,159.24969459325075L117.0984375,45.59918562322853L117.36140625,-2.2009205594659242L117.624375,91.84642745554447L117.73265625,121.47210942953825L118.243125,203.3777336999774L118.75359375,95.47125021368265L118.81546875,-74.8435264974833L120.16125000000001,-72.94979752600197L120.9965625,136.19377514719963L121.02749999999999,119.26286885887384L121.213125,159.05629950016737L121.27499999999999,185.10835929214954L121.46062500000001,40.63731240481136L121.584375,132.4728482812643L121.69265625,8.908219769597034L121.9246875,281.3361660987139L122.21859375000001,114.72705169022083L122.29593750000001,142.3973530009389L122.49703125,91.8237449079752L122.574375,121.1151230558753L122.58984375,150.22398582100868L122.60531250000001,166.25309599936008L123.06937500000001,0.9307546019553942L123.13125000000001,-23.85355518758301L123.14671874999999,181.49659218639135L123.22406249999999,3.557512298226337L123.27046875,84.11283264309168L123.2859375,173.80638433992863L123.564375,149.874054774642L123.88921875,151.67471276968718L124.0284375,159.25177162885666L124.47703125,230.3058079853654L125.00296875,29.44993706792591L125.11125,163.83542655408382L125.296875,203.56255690008402L125.34328125,179.87600988149643L125.83828125,109.27480025589466L125.96203125,4.895189166069011L126.39515625,9.80767509341238L126.81281249999999,168.8804801031947L126.89015624999999,9.06228306144474L126.92109375,148.2302294522524L127.71,-26.07789547741417L127.78734374999999,-27.160921186208764L127.91109375,118.05129772424698L128.03484375,188.25836511701345L128.390625,120.6886384114623L129.70546875,107.34876184165478L129.8446875,170.29055649787188L129.92203125,6.326959043741207L130.06125,181.77244229614735L130.66453125,53.54437431693075L130.69546875,1.3139841556548877L131.22140625,80.04108457267284L131.37609375,122.42144657671452L131.49984375,72.65775049477816L131.54625,82.62916984409094L131.65453125,-2.0010635778308306L131.8246875,70.25996124744415L132.2578125,15.951909072697143L132.6290625,174.83263774216175L132.76828125,60.78366762399671L132.84562499999998,-112.29828098416333L133.0003125,65.83488634228706L133.0621875,147.760984249413L133.216875,173.5532167777419L133.37156249999998,75.73077412694693L133.57265625,80.8618433251977L133.61906249999998,37.14350773394106L133.82015625,96.207015350461L134.206875,137.52591325342655L134.50078125000002,86.57280108332634L134.68640625,120.43138271570206L134.701875,215.6841037273407L134.949375,190.16475411504507L135.01125,83.46456675231457L135.15046875,229.26000407338142L135.50625,211.11792227625847L135.55265625,74.02945118397474L135.76921875,51.78139968216417L135.95484374999998,14.069488406181316L136.01671875,182.04680880904198L136.34156249999998,102.06890436261892L136.57359375,118.61536125093699L136.6509375,163.87502210587263L137.053125,119.65974750369787L137.115,-8.885480515658895L137.13046875,31.796064175665357L137.2696875,150.75972913205624L137.40890625,38.36760701984165L137.59453125,205.02449324727058L137.795625,98.52798724919558L138.21328125,196.3952345252037L138.290625,78.78589569032192L138.49171875,32.01154837757347L138.661875,46.638791397213915L139.29609375,193.3055286705494L139.31156249999998,161.90233281254768L139.66734375000001,108.10206639021635L139.8375,-13.379427284002343L140.270625,121.62950257211924L140.4871875,71.03621209412813L141.18328125000002,189.7257083505392L141.27609375,143.07585129886866L141.384375,175.26126535981894L141.39984375,39.068458177149274L141.84843750000002,129.89818131923676L142.04953125,179.9691138267517L142.3125,44.87617941945789L142.46718750000002,62.487331353127935L142.63734375,56.3223270177841L143.0859375,160.19141594320536L144.15328125,113.17158280313015L144.43171875,26.584649965167024L144.4471875,123.68800970166922L144.58640624999998,159.8719480857253L144.92671875,139.71728472411633L145.08140625000001,164.38926974684L145.57640625000002,164.03459119051695L145.66921875,-22.249094635248223L145.91671875,125.74196713417768L146.04046875,-8.17582668364052L146.24156250000001,151.32115515321493L146.5509375,-41.01652899384503L146.59734375,154.55872616171837L146.84484375,169.2101682946086L147.2315625,-8.283898472785989L147.571875,95.97142016887665L147.78843750000001,106.56634582579136L148.005,91.54509244859219L148.20609374999998,147.11245460808277L148.42265625,130.41931944340467L148.68562500000002,61.68312294781206L148.9640625,134.93024515360594L149.28890625,48.84915290772913L149.35078125,190.65430811047554L149.3971875,111.80697041004896L149.44359375,116.04781555384398L149.98499999999999,132.46803483366966L150.06234375,104.52165263146162L150.07781250000002,3.799371555447559L150.40265625,61.064265243709066L150.68109375,174.32204964011908L150.85125,72.46402571350336L151.93406249999998,74.48191525787115L152.28984375000002,189.35029240697622L152.63015625,171.44993799179792L152.7384375,196.41201565414667L152.769375,-18.325178749859372L152.84671875,99.82725544273853L152.87765625,96.87680988013744L152.9240625,122.75459649413824L152.93953125,121.86061399430037L153.2334375,119.60979974269867L153.2953125,100.68296114355326L153.45,244.76639362424612L153.48093749999998,47.74710419028995L153.52734375,51.92036325484512L153.55828125,19.312849402427652L154.130625,205.38474353402853L154.1615625,145.75450191646814L154.26984374999998,159.4033952280879L154.37812499999998,98.77950637042522L154.47093750000002,76.83694394677877L155.0278125,239.61336719244719L155.19796875,83.55114287137985L155.70843749999997,206.4821766167879L155.90953125000001,-56.01160512864594L155.9559375,149.60997453331947L156.83765625,204.15629236400127L156.96140625,37.72240722924469L157.2553125,114.97669158875942L157.348125,166.67740470170975L157.59562499999998,238.598290219903L157.6265625,181.98673962056637L157.71937499999999,176.88237516582012L157.81218750000002,46.04558343440292L157.96687500000002,171.28150029480457L159.4209375,103.12931346148252L159.71484375,-43.50145483016972L159.77671875,224.0450951680541L159.99328125,41.58510001748798L160.05515624999998,-65.84983044862751L160.070625,121.74819032102823L160.08609375,-37.133857101202054L160.11703125,166.39614770561457L160.1634375,-66.72165790200238L160.73578125,109.34673821926117L160.76671875,156.78751724213362L160.9059375,184.68029214441776L160.99875,1.8922902122139735L161.431875,-20.346892677247563L161.47828125,-11.9878463968635L161.5865625,66.68848203867674L161.679375,44.14357928931711L161.9578125,163.66115337610245L162.08156250000002,74.73007155954838L162.1434375,163.72821195423603L162.46828125000002,103.16429337859154L162.49921874999998,124.33429746329784L162.73125,72.41763858497143L162.83953125,117.02309916168451L163.00968749999998,-3.156983345747033L163.08703125,122.57831221818924L163.25718750000001,129.3400521799922L163.58203125,118.5756997615099L164.85046875,160.84841857105494L165.19078125000001,4.204624280333499L165.2990625,174.7290497124195L165.59296875,39.575617522001245L165.70125000000002,101.67700400948524L166.42828125000003,-63.82376463711266L167.18625,78.12698087096214L167.23265625,125.06851306557655L167.6503125,40.53369140624998L167.72765625,118.93476317077875L168.22265625,64.294022642076L168.67125,63.144828513264635L168.82593749999998,160.91771902889013L169.61484374999998,37.18000421673057L169.80046875,172.7868236079812L170.29546875,30.57160223275421L170.5584375,35.53337654471395L171.37828125000001,243.4943906441331L171.5484375,300.34334971010685L171.579375,168.49273382127285L171.74953125,193.52651866525412L172.92515625000001,142.59519888460636L173.04890625000002,139.91724061220884L173.14171875,-93.0129724144936L173.23453125,155.17573761194944L173.63671875,151.70151641964912L174.68859375,73.14555714279413L174.796875,29.684773966670015L174.920625,61.44067025184629L174.96703125,-44.19432753324513L174.99796874999998,134.50352972745895L175.18359375,199.44768561422825L175.291875,16.90348809957502L175.35375,102.24090269207954L175.43109375,152.53856176882982L175.52390625,118.31112498790026L175.64765625,24.94692387431858L175.8178125,-17.477220721542874L176.29734375,215.39842890948057L176.56031249999998,21.261669270694235L177.07078124999998,59.78286615014074L177.148125,77.00600805133581L177.519375,34.10025494545696L179.4065625,109.56017835438251L179.42203125,175.6097457781434L179.57671875,82.42308175563812L180.56671874999998,119.50528858602047L180.69046875,94.50905522704124L180.79874999999998,83.64256540685892L180.860625,85.09378688782454L180.9225,197.4166744798422L181.17,90.09100268036127L181.18546874999998,134.10226622968912L181.2009375,18.879935838282087L181.231875,77.74223475158215L181.38656250000003,118.28148601949215L181.46390625,114.14792141318321L181.54125000000002,109.106758184731L181.66500000000002,38.15505704283712L181.74234375,122.96045380085707L181.80421875,187.72720447182655L181.9125,147.24281331896782L182.26828125,131.46617835760117L182.51578125,41.94511952251194L182.70140625,40.896809980273225L183.15,44.104379363358L183.84609375,30.794141761958578L183.8615625,90.1776117682457L184.18640625,130.22559466212988L184.2328125,2.218747459351997L184.68140624999998,80.3563324213028L184.9134375,160.26035374403L185.14546875,67.42708249390125L185.2846875,49.472362495958784L185.686875,105.0467470139265L185.84156249999998,131.23856163024902L185.85703125,107.07132922858L185.91890625,100.15878988802433L186.10453125,195.9962129071355L186.13546875,-41.297950834035916L186.7696875,2.211626194417457L187.49671875,50.05469074845312L187.5740625,82.81438867002726L187.65140625,96.23269806057215L187.8215625,148.3653356730938L187.83703125000002,152.3634643703699L187.99171875000002,162.85190074145794L188.27015625,112.22613597661257L188.3475,52.02098409086464L188.91984374999998,58.285785041749456L189.26015625,36.86416292935608L189.41484375,90.16317142546177L189.97171875,114.95974561572075L190.12640625,91.75724679976702L190.46671874999998,-54.99787987768654L191.05453125,97.62582848221064L191.10093750000001,-61.840887978673024L191.2865625,70.08127024769783L191.3175,204.59003014862537L191.3484375,-82.12943771481518L191.75062499999999,111.26255629956722L192.06,-5.35270670056347L192.3075,198.99030918627977L192.555,158.1802520379424L192.7096875,77.23520728200674L192.72515625,93.7948846668005L193.62234375,252.33712247014046L193.66875000000002,97.79314523935318L193.730625,-90.17317020893101L193.85437499999998,159.56962401419878L193.978125,57.336777582764604L194.02453125,157.91214960068464L194.04,164.32550805062056L194.07093749999999,142.45007014274597L194.33390625,99.03728956729174L194.45765624999999,-31.26382479071621L194.47312499999998,48.00070034712551L194.64328125,103.97196350991726L194.70515625,-30.32526844739918L195.13828125,70.05746676027775L195.21562500000002,120.63440470397472L195.3703125,45.50898293405769L195.7725,165.55620110034943L196.15921875,111.46007249504328L196.2675,-38.3016786128283L196.31390625,212.95227440446615L196.43765625,121.6470749527216L196.88625000000002,108.52963900566101L197.02546875,33.28859558701513L197.14921875,120.57802802324295L197.24203125,15.689905866980533L197.5359375,106.52391495555639L198.20109374999998,189.0051088705659L198.46406249999998,12.614937074482421L198.51046875,-16.465836256742516L198.54140625,164.81555657833815L198.7115625,-68.91368874907498L199.12921874999998,56.310161523520925L199.7015625,24.7502648681402L200.11921875000002,228.6142767816782L200.13468749999998,62.224108301103094L200.22750000000002,19.497474789619424L200.25843749999999,136.20152281969786L200.52140624999998,61.481848306953886L200.64515624999999,116.39461456239223L200.7225,29.946711234748342L200.83078125,118.49812413007021L200.95453125,43.74027172476051L201.40312500000002,128.2601255401969L201.7125,7.020787842571716L201.72796875,16.528962314128854L201.78984375000002,81.55530946701765L201.94453125,65.95340924710035L202.1146875,127.58525381237268L202.47046874999998,188.87620078772306L202.82625,133.56124790757895L202.888125,20.919123239815214L203.12015625,95.48302008211613L203.21296875,105.4741877540946L203.383125,216.40552742779255L203.39859375,-0.6559687256813442L203.70796875,46.47543089836834L203.89359375,-85.27281680703167L204.01734375,241.3469666093588L204.18749999999997,91.20205188542604L204.249375,97.43546652048826L204.31125,97.27906244248152L204.34218750000002,95.77390397340059L204.4040625,96.69472309201956L204.48140625,126.62167413532734L205.2084375,66.84198486059904L205.23937500000002,165.38908215612173L205.4559375,86.89266456663609L205.51781250000002,67.21964268386364L205.6415625,104.82829561829567L205.74984375,120.35110364109278L205.858125,190.46902334690094L206.29125000000002,112.36961627751589L206.30671875,7.7800927162170215L206.39953125000002,-9.497777424752751L206.6934375,223.04788729548454L206.70890624999998,95.54582568258047L206.91,56.2302451059222L207.03375,34.992292284965494L207.11109375,173.0844990760088L207.17296875,48.26293433457611L207.29671875000003,11.062468349933605L207.60609375,122.12014453858137L207.9,11.513481795787792L208.03921875,110.15097959339619L208.209375,68.59750854223967L208.31765625,-8.115328900516072L208.3640625,21.510221198201158L208.78171875,193.21308410167694L209.09109375,50.09336317330597L209.15296874999999,95.50477950274944L209.4778125,167.81459818035364L209.6015625,65.31190196424723L210.40593750000002,2.5693708509206576L210.6225,46.244715102016904L211.19484375,54.43964260071514L211.25671874999998,146.71461986750364L211.72078125,73.19639506191015L211.84453125000002,155.7603077441454L212.0146875,112.15838505327702L212.33953125,82.2872502207756L212.5096875,179.49564861506224L212.52515625,121.31435362994671L212.80359374999998,7.165982522070388L212.92734375,41.39599087089298L213.39140625,6.546267628669719L213.71625,178.03351445496082L214.41234375000002,219.96012660115957L214.75265624999997,8.175454795360546L215.1703125,155.9980129301548L215.21671874999998,13.629849202930908L215.325,188.2290888056159L215.55703125,209.47347054630518L215.58796875,156.93554724007845L216.51609375,100.86392699182034L216.82546875,91.41001919656992L216.88734374999999,-21.96061746776108L217.01109375000001,228.02670648694038L217.4596875,144.17348219454288L217.52156250000002,-38.199277460575146L217.56796875,185.91889771074057L217.66078124999999,114.36775749921799L217.69171875,207.1588616296649L218.31046874999998,60.029275104403474L218.37234375,78.1227278932929L218.4496875,229.2746422290802L218.74359375,91.48053950071335L218.7590625,113.95027334243059L218.97562499999998,191.08310057222843L219.0375,137.0175670310855L219.26953125,21.71146287024019L220.16671875,32.39418449252842L220.25953124999998,127.31500840187073L220.38328124999998,85.24679517745972L220.4915625,43.13301904499529L220.86281250000002,13.73274488747118L220.89375,77.89695741981268L221.65171875,-32.15233446657662L221.9146875,129.14438223838806L221.97656250000003,166.93749571591616L222.33234375,150.86041590571404L222.3478125,181.37216786295176L222.70359374999998,71.97015280276537L223.554375,-31.054472789168397L223.61625,37.4534146338701L223.86375,119.54452148079872L223.8946875,35.24994360655544L223.91015625,132.31812561303377L223.925625,94.2439199835062L224.0184375,188.0895977318287L224.049375,19.208107464015463L224.08031250000002,126.60542050749063L224.15765625,177.17012701928616L224.73,-64.21912671625618L225.03937499999998,58.55220606923101L225.05484375,179.41503985226154L225.163125,-120.59079618752007L225.65812499999998,158.14764587581158L225.9984375,150.8758453130722L226.0603125,108.50593442469835L226.35421875,170.87169787287712L226.44703125,52.66667841374872L226.63265625,-15.831054612994233L227.03484375000002,115.04483813792467L227.2978125,78.94190414249897L227.77734375,114.85810274630785L227.93203125,107.35990530252457L227.99390624999998,69.95117528736591L228.009375,149.00440326333046L228.56625,110.94246203452349L228.751875,221.3213432058692L229.32421875,142.79212164133787L229.38609375,81.86129307746887L229.44796875,180.6387105435133L229.54078124999998,77.65354862809181L229.7728125,177.16996217519045L230.05124999999998,26.787803828716257L230.09765625,-11.142163217067758L230.34515625,-4.86100973188881L230.84015625,100.21470500528812L230.8865625,182.94962695240974L231.05671875,128.49555587768555L231.36609375,190.73158702254295L231.39703125,80.62113797664642L231.48984374999998,103.56700750440359L231.79921875,38.22409375011919L231.81468750000002,82.14413257688284L231.83015625,140.6847876906395L232.03125,-12.064037337899247L232.47984375000001,177.23497668653727L232.82015625,82.58459600061178L232.835625,24.678425811231115L232.94390625,209.38550973683596L233.145,79.8012034446001L233.25328125000001,16.83715483546255L233.7328125,185.75405361503363L234.02671875000001,-187.87830980122098L234.13500000000002,134.62103059887886L234.196875,83.5641655549407L234.36703125,58.11388561874626L234.80015625000001,102.26457430422306L234.8775,21.691121108829954L235.29515625,138.9542214050889L235.60453124999998,-12.464146926999131L235.63546875,29.06466344743965L235.72828124999998,235.79152277112007L235.7746875,223.42172073572874L235.82109375000002,137.5795535221696L236.62546875,174.20108704268932L236.65640624999997,67.01368647068739L236.81109375,50.770806469023206L236.85750000000002,-22.673403337597886L237.0121875,147.28474965691566L237.3525,149.28720979392529L237.39890625,183.5885296985507L237.5690625,140.52805392444134L237.61546875,82.84363201260567L238.1878125,173.83242970705032L238.20328125,61.56562207639215L238.26515625000002,193.02265620231628L238.51265625,49.09180341660974L238.8684375,156.5659008398652L239.58,45.96876608580349L239.75015625,151.6370623782277L239.78109375,109.38514689356089L239.8584375,212.95392284542322L239.87390625,-23.493667557835618L240.02859375,45.59486670792101L240.1678125,-28.411296620965043L241.250625,139.01933482289314L241.3125,61.98505139350889L241.9621875,94.29650525003672L242.03953125,85.04093787074089L242.10140625000003,32.64768174290655L242.14781250000001,-4.490802861750165L242.31796875,78.296935133636L242.42625,59.52884139865635L242.5190625,173.18960367143154L242.859375,130.8842127621174L242.90578125,148.79917236417532L242.983125,-2.832339383661786L243.54000000000002,43.68448848277328L243.849375,275.57018338143826L244.0659375,199.37601140141487L244.2825,53.67044708132742L244.48359375,151.72248458862305L244.63828125,160.88504692912102L245.086875,32.9520169124007L245.7675,114.00945237278938L245.8603125,12.255576945841293L246.68015624999998,213.34839476644993L246.77296875000002,31.745852664113023L247.005,113.11177736520767L247.03593750000002,148.13689472526312L247.0978125,194.85776661336422L247.29890625,109.60046625137329L247.4690625,-14.851518027484456L247.48453125,98.99037493765354L247.561875,-55.83917820453648L247.65468750000002,113.05995038151741L247.82484375,133.97747924923897L248.16515625,234.78432534635067L248.36625,210.45554573088884L248.5209375,20.023624174296835L248.56734375,39.933131396770456" style="fill: none;" fill="none"></path></g></g></g></g></g></g><g transform="translate(51, 177)" clip-path="url(#clip_1)"><clipPath id="clip_1"><rect width="278" height="23"></rect></clipPath><g><g><line x1="0" y1="0" x2="0" y2="5" style="visibility: inherit;" fill="rgb(0, 0, 0)" stroke="rgb(204, 204, 204)" stroke-width="1px"></line><line x1="30.9375" y1="0" x2="30.9375" y2="5" style="visibility: inherit;" fill="rgb(0, 0, 0)" stroke="rgb(204, 204, 204)" stroke-width="1px"></line><line x1="61.875" y1="0" x2="61.875" y2="5" style="visibility: inherit;" fill="rgb(0, 0, 0)" stroke="rgb(204, 204, 204)" stroke-width="1px"></line><line x1="92.8125" y1="0" x2="92.8125" y2="5" style="visibility: inherit;" fill="rgb(0, 0, 0)" stroke="rgb(204, 204, 204)" stroke-width="1px"></line><line x1="123.75" y1="0" x2="123.75" y2="5" style="visibility: inherit;" fill="rgb(0, 0, 0)" stroke="rgb(204, 204, 204)" stroke-width="1px"></line><line x1="154.6875" y1="0" x2="154.6875" y2="5" style="visibility: inherit;" fill="rgb(0, 0, 0)" stroke="rgb(204, 204, 204)" stroke-width="1px"></line><line x1="185.625" y1="0" x2="185.625" y2="5" style="visibility: inherit;" fill="rgb(0, 0, 0)" stroke="rgb(204, 204, 204)" stroke-width="1px"></line><line x1="216.5625" y1="0" x2="216.5625" y2="5" style="visibility: inherit;" fill="rgb(0, 0, 0)" stroke="rgb(204, 204, 204)" stroke-width="1px"></line><line x1="247.5" y1="0" x2="247.5" y2="5" style="visibility: inherit;" fill="rgb(0, 0, 0)" stroke="rgb(204, 204, 204)" stroke-width="1px"></line><line x1="278.4375" y1="0" x2="278.4375" y2="5" style="visibility: inherit;" fill="rgb(0, 0, 0)" stroke="rgb(204, 204, 204)" stroke-width="1px"></line></g><g transform="translate(0, 8)"><text x="0" y="0" dx="0em" dy="0.95em" style="text-anchor: middle; visibility: hidden; font-family: Roboto, sans-serif; font-size: 12px; font-weight: 200;" fill="rgb(33, 33, 33)" stroke="none" stroke-width="1px">-2k</text><text x="30.9375" y="0" dx="0em" dy="0.95em" style="text-anchor: middle; visibility: inherit; font-family: Roboto, sans-serif; font-size: 12px; font-weight: 200;" fill="rgb(33, 33, 33)" stroke="none" stroke-width="1px">0</text><text x="61.875" y="0" dx="0em" dy="0.95em" style="text-anchor: middle; visibility: inherit; font-family: Roboto, sans-serif; font-size: 12px; font-weight: 200;" fill="rgb(33, 33, 33)" stroke="none" stroke-width="1px">2k</text><text x="92.8125" y="0" dx="0em" dy="0.95em" style="text-anchor: middle; visibility: inherit; font-family: Roboto, sans-serif; font-size: 12px; font-weight: 200;" fill="rgb(33, 33, 33)" stroke="none" stroke-width="1px">4k</text><text x="123.75" y="0" dx="0em" dy="0.95em" style="text-anchor: middle; visibility: inherit; font-family: Roboto, sans-serif; font-size: 12px; font-weight: 200;" fill="rgb(33, 33, 33)" stroke="none" stroke-width="1px">6k</text><text x="154.6875" y="0" dx="0em" dy="0.95em" style="text-anchor: middle; visibility: inherit; font-family: Roboto, sans-serif; font-size: 12px; font-weight: 200;" fill="rgb(33, 33, 33)" stroke="none" stroke-width="1px">8k</text><text x="185.625" y="0" dx="0em" dy="0.95em" style="text-anchor: middle; visibility: inherit; font-family: Roboto, sans-serif; font-size: 12px; font-weight: 200;" fill="rgb(33, 33, 33)" stroke="none" stroke-width="1px">10k</text><text x="216.5625" y="0" dx="0em" dy="0.95em" style="text-anchor: middle; visibility: inherit; font-family: Roboto, sans-serif; font-size: 12px; font-weight: 200;" fill="rgb(33, 33, 33)" stroke="none" stroke-width="1px">12k</text><text x="247.5" y="0" dx="0em" dy="0.95em" style="text-anchor: middle; visibility: inherit; font-family: Roboto, sans-serif; font-size: 12px; font-weight: 200;" fill="rgb(33, 33, 33)" stroke="none" stroke-width="1px">14k</text><text x="278.4375" y="0" dx="0em" dy="0.95em" style="text-anchor: middle; visibility: hidden; font-family: Roboto, sans-serif; font-size: 12px; font-weight: 200;" fill="rgb(33, 33, 33)" stroke="none" stroke-width="1px">16k</text></g><line x1="0" y1="0" x2="278.4375" y2="0" fill="rgb(0, 0, 0)" stroke="rgb(204, 204, 204)" stroke-width="1px"></line></g></g></g></g></svg>