<svg viewBox="0 0 330 200" xmlns="http://www.w3.org/2000/svg"><g><g><g><g><g><line x1="70" y1="177" x2="65" y2="177" style="visibility: inherit;" fill="rgb(0, 0, 0)" stroke="rgb(204, 204, 204)" stroke-width="1px"></line><line x1="70" y1="160.9090909090909" x2="65" y2="160.9090909090909" style="visibility: inherit;" fill="rgb(0, 0, 0)" stroke="rgb(204, 204, 204)" stroke-width="1px"></line><line x1="70" y1="144.8181818181818" x2="65" y2="144.8181818181818" style="visibility: inherit;" fill="rgb(0, 0, 0)" stroke="rgb(204, 204, 204)" stroke-width="1px"></line><line x1="70" y1="128.72727272727272" x2="65" y2="128.72727272727272" style="visibility: inherit;" fill="rgb(0, 0, 0)" stroke="rgb(204, 204, 204)" stroke-width="1px"></line><line x1="70" y1="112.63636363636365" x2="65" y2="112.63636363636365" style="visibility: inherit;" fill="rgb(0, 0, 0)" stroke="rgb(204, 204, 204)" stroke-width="1px"></line><line x1="70" y1="96.54545454545453" x2="65" y2="96.54545454545453" style="visibility: inherit;" fill="rgb(0, 0, 0)" stroke="rgb(204, 204, 204)" stroke-width="1px"></line><line x1="70" y1="80.45454545454544" x2="65" y2="80.45454545454544" style="visibility: inherit;" fill="rgb(0, 0, 0)" stroke="rgb(204, 204, 204)" stroke-width="1px"></line><line x1="70" y1="64.36363636363636" x2="65" y2="64.36363636363636" style="visibility: inherit;" fill="rgb(0, 0, 0)" stroke="rgb(204, 204, 204)" stroke-width="1px"></line><line x1="70" y1="48.272727272727266" x2="65" y2="48.272727272727266" style="visibility: inherit;" fill="rgb(0, 0, 0)" stroke="rgb(204, 204, 204)" stroke-width="1px"></line><line x1="70" y1="32.18181818181817" x2="65" y2="32.18181818181817" style="visibility: inherit;" fill="rgb(0, 0, 0)" stroke="rgb(204, 204, 204)" stroke-width="1px"></line><line x1="70" y1="16.090909090909097" x2="65" y2="16.090909090909097" style="visibility: inherit;" fill="rgb(0, 0, 0)" stroke="rgb(204, 204, 204)" stroke-width="1px"></line><line x1="70" y1="0" x2="65" y2="0" style="visibility: inherit;" fill="rgb(0, 0, 0)" stroke="rgb(204, 204, 204)" stroke-width="1px"></line></g><g transform="translate(60, 0)"><text x="0" y="177" dx="0em" dy="0.3em" style="text-anchor: end; visibility: hidden; font-family: Roboto, sans-serif; font-size: 12px; font-weight: 200;" fill="rgb(33, 33, 33)" stroke="none" stroke-width="1px">-5e-5</text><text x="0" y="160.9090909090909" dx="0em" dy="0.3em" style="text-anchor: end; visibility: inherit; font-family: Roboto, sans-serif; font-size: 12px; font-weight: 200;" fill="rgb(33, 33, 33)" stroke="none" stroke-width="1px">0</text><text x="0" y="144.8181818181818" dx="0em" dy="0.3em" style="text-anchor: end; visibility: hidden; font-family: Roboto, sans-serif; font-size: 12px; font-weight: 200;" fill="rgb(33, 33, 33)" stroke="none" stroke-width="1px">5e-5</text><text x="0" y="128.72727272727272" dx="0em" dy="0.3em" style="text-anchor: end; visibility: inherit; font-family: Roboto, sans-serif; font-size: 12px; font-weight: 200;" fill="rgb(33, 33, 33)" stroke="none" stroke-width="1px">1e-4</text><text x="0" y="112.63636363636365" dx="0em" dy="0.3em" style="text-anchor: end; visibility: hidden; font-family: Roboto, sans-serif; font-size: 12px; font-weight: 200;" fill="rgb(33, 33, 33)" stroke="none" stroke-width="1px">1.5e-4</text><text x="0" y="96.54545454545453" dx="0em" dy="0.3em" style="text-anchor: end; visibility: inherit; font-family: Roboto, sans-serif; font-size: 12px; font-weight: 200;" fill="rgb(33, 33, 33)" stroke="none" stroke-width="1px">2e-4</text><text x="0" y="80.45454545454544" dx="0em" dy="0.3em" style="text-anchor: end; visibility: hidden; font-family: Roboto, sans-serif; font-size: 12px; font-weight: 200;" fill="rgb(33, 33, 33)" stroke="none" stroke-width="1px">2.5e-4</text><text x="0" y="64.36363636363636" dx="0em" dy="0.3em" style="text-anchor: end; visibility: inherit; font-family: Roboto, sans-serif; font-size: 12px; font-weight: 200;" fill="rgb(33, 33, 33)" stroke="none" stroke-width="1px">3e-4</text><text x="0" y="48.272727272727266" dx="0em" dy="0.3em" style="text-anchor: end; visibility: hidden; font-family: Roboto, sans-serif; font-size: 12px; font-weight: 200;" fill="rgb(33, 33, 33)" stroke="none" stroke-width="1px">3.5e-4</text><text x="0" y="32.18181818181817" dx="0em" dy="0.3em" style="text-anchor: end; visibility: inherit; font-family: Roboto, sans-serif; font-size: 12px; font-weight: 200;" fill="rgb(33, 33, 33)" stroke="none" stroke-width="1px">4e-4</text><text x="0" y="16.090909090909097" dx="0em" dy="0.3em" style="text-anchor: end; visibility: hidden; font-family: Roboto, sans-serif; font-size: 12px; font-weight: 200;" fill="rgb(33, 33, 33)" stroke="none" stroke-width="1px">4.5e-4</text><text x="0" y="0" dx="0em" dy="0.3em" style="text-anchor: end; visibility: hidden; font-family: Roboto, sans-serif; font-size: 12px; font-weight: 200;" fill="rgb(33, 33, 33)" stroke="none" stroke-width="1px">5e-4</text></g><line x1="70" y1="0" x2="70" y2="177" fill="rgb(0, 0, 0)" stroke="rgb(204, 204, 204)" stroke-width="1px"></line></g></g><g transform="translate(70, 0)" clip-path="url(#clip_0)"><clipPath id="clip_0"><rect width="260" height="177"></rect></clipPath><g><g><g><line x1="0" y1="0" x2="0" y2="177" fill="rgb(0, 0, 0)" stroke="rgb(66, 66, 66)" stroke-width="1px" opacity="0.25"></line><line x1="28.888888888888886" y1="0" x2="28.888888888888886" y2="177" fill="rgb(0, 0, 0)" stroke="rgb(66, 66, 66)" stroke-width="1px" opacity="0.25"></line><line x1="57.77777777777777" y1="0" x2="57.77777777777777" y2="177" fill="rgb(0, 0, 0)" stroke="rgb(66, 66, 66)" stroke-width="1px" opacity="0.25"></line><line x1="86.66666666666666" y1="0" x2="86.66666666666666" y2="177" fill="rgb(0, 0, 0)" stroke="rgb(66, 66, 66)" stroke-width="1px" opacity="0.25"></line><line x1="115.55555555555554" y1="0" x2="115.55555555555554" y2="177" fill="rgb(0, 0, 0)" stroke="rgb(66, 66, 66)" stroke-width="1px" opacity="0.25"></line><line x1="144.44444444444446" y1="0" x2="144.44444444444446" y2="177" fill="rgb(0, 0, 0)" stroke="rgb(66, 66, 66)" stroke-width="1px" opacity="0.25"></line><line x1="173.33333333333331" y1="0" x2="173.33333333333331" y2="177" fill="rgb(0, 0, 0)" stroke="rgb(66, 66, 66)" stroke-width="1px" opacity="0.25"></line><line x1="202.22222222222223" y1="0" x2="202.22222222222223" y2="177" fill="rgb(0, 0, 0)" stroke="rgb(66, 66, 66)" stroke-width="1px" opacity="0.25"></line><line x1="231.1111111111111" y1="0" x2="231.1111111111111" y2="177" fill="rgb(0, 0, 0)" stroke="rgb(66, 66, 66)" stroke-width="1px" opacity="0.25"></line><line x1="260" y1="0" x2="260" y2="177" fill="rgb(0, 0, 0)" stroke="rgb(66, 66, 66)" stroke-width="1px" opacity="0.25"></line></g><g><line x1="0" y1="177" x2="260" y2="177" fill="rgb(0, 0, 0)" stroke="rgb(66, 66, 66)" stroke-width="1px" opacity="0.25"></line><line x1="0" y1="160.9090909090909" x2="260" y2="160.9090909090909" fill="rgb(0, 0, 0)" stroke="rgb(66, 66, 66)" stroke-width="1px" opacity="0.25"></line><line x1="0" y1="144.8181818181818" x2="260" y2="144.8181818181818" fill="rgb(0, 0, 0)" stroke="rgb(66, 66, 66)" stroke-width="1px" opacity="0.25"></line><line x1="0" y1="128.72727272727272" x2="260" y2="128.72727272727272" fill="rgb(0, 0, 0)" stroke="rgb(66, 66, 66)" stroke-width="1px" opacity="0.25"></line><line x1="0" y1="112.63636363636365" x2="260" y2="112.63636363636365" fill="rgb(0, 0, 0)" stroke="rgb(66, 66, 66)" stroke-width="1px" opacity="0.25"></line><line x1="0" y1="96.54545454545453" x2="260" y2="96.54545454545453" fill="rgb(0, 0, 0)" stroke="rgb(66, 66, 66)" stroke-width="1px" opacity="0.25"></line><line x1="0" y1="80.45454545454544" x2="260" y2="80.45454545454544" fill="rgb(0, 0, 0)" stroke="rgb(66, 66, 66)" stroke-width="1px" opacity="0.25"></line><line x1="0" y1="64.36363636363636" x2="260" y2="64.36363636363636" fill="rgb(0, 0, 0)" stroke="rgb(66, 66, 66)" stroke-width="1px" opacity="0.25"></line><line x1="0" y1="48.272727272727266" x2="260" y2="48.272727272727266" fill="rgb(0, 0, 0)" stroke="rgb(66, 66, 66)" stroke-width="1px" opacity="0.25"></line><line x1="0" y1="32.18181818181817" x2="260" y2="32.18181818181817" fill="rgb(0, 0, 0)" stroke="rgb(66, 66, 66)" stroke-width="1px" opacity="0.25"></line><line x1="0" y1="16.090909090909097" x2="260" y2="16.090909090909097" fill="rgb(0, 0, 0)" stroke="rgb(66, 66, 66)" stroke-width="1px" opacity="0.25"></line><line x1="0" y1="0" x2="260" y2="0" fill="rgb(0, 0, 0)" stroke="rgb(66, 66, 66)" stroke-width="1px" opacity="0.25"></line></g></g></g><g><g><line x1="0" y1="160.9090909090909" x2="260" y2="160.9090909090909" fill="rgb(0, 0, 0)" stroke="rgb(153, 153, 153)" stroke-width="1.5px"></line></g></g><g><g><line x1="28.888888888888886" y1="0" x2="28.888888888888886" y2="177" fill="rgb(0, 0, 0)" stroke="rgb(153, 153, 153)" stroke-width="1.5px"></line></g></g><g><g><g><g><g><path stroke="rgb(255, 112, 67)" stroke-width="2px" d="M37.19444444444444,-0.20285870803835238L37.367777777777775,8.259716074564468L37.714444444444446,13.337260944099897L37.772222222222226,16.38378786581166L37.94555555555555,18.21170401883533L39.129999999999995,19.308453710648312L39.202222222222225,19.966503525735643L39.33222222222223,20.361333414787882L39.44777777777778,20.598231348219176L39.621111111111105,20.740370108277922L39.65,20.825653364313176L39.93888888888889,20.876823317934335L40.31444444444445,20.907525290107017L40.37222222222222,20.925946473410622L40.64666666666666,20.93699918339278L40.82,20.943630809382107L40.99333333333334,20.94760978497565L41.15222222222222,20.9499971703318L41.18111111111111,20.951429601545513L41.224444444444444,20.95228906027372L41.97555555555556,20.952804735510636L42.84222222222222,20.953114140652783L42.986666666666665,20.953299783738082L43.391111111111115,71.33739600843447L43.44888888888889,101.56785374325231L43.968888888888884,119.706128384143L44.21444444444444,130.58909316867744L44.647777777777776,137.11887203939807L44.66222222222222,141.03673936183048L44.67666666666667,143.3874597552899L44.806666666666665,144.79789199136556L44.90777777777778,145.64415133301097L44.99444444444444,146.1519069379982L45.16777777777778,146.45656030099053L45.196666666666665,146.63935231878594L45.39888888888889,146.7490275294632L45.413333333333334,146.81483265586954L45.48555555555556,146.85431573171334L45.65888888888889,146.87800557721962L45.87555555555555,146.8922194845234L46.06333333333333,146.90074782890568L46.16444444444444,146.90586483553503L46.32333333333333,146.90893503951264L46.55444444444444,146.9107771618992L46.77111111111111,146.91188243533114L46.8,146.9125455993903L46.81444444444444,146.9129434978258L47.01666666666667,146.9131822368871L47.32,146.9133254803239L47.33444444444444,146.91341142638595L47.43555555555555,146.9134629940232L47.522222222222226,146.91349393460555L47.75333333333334,146.91351249895493L47.81111111111111,146.9135236375646L47.99888888888889,146.9135303207304L48.345555555555556,146.91353433062986L49.03888888888889,146.91353673656954L49.486666666666665,146.91353818013334L49.50111111111111,146.91353904627164L49.53,146.9135395659546L49.558888888888895,146.91353987776438L49.89111111111111,146.91354006485025L49.90555555555556,146.9135401771018L50.00666666666667,146.9135402444527L50.58444444444444,151.9519384877635L50.67111111111111,154.97497743375L50.74333333333333,156.7888008013419L50.87333333333333,157.87709482189703L50.916666666666664,158.53007123423012L51.49444444444445,158.92185708162995L51.797777777777775,159.15692859006987L51.870000000000005,159.2979714951338L51.898888888888884,159.38259723817217L52.21666666666667,159.4333726839952L52.404444444444444,159.463837951489L52.41888888888889,159.48211711198527L52.678888888888885,159.49308460828306L52.78,159.4996651060617L52.95333333333333,159.50361340472892L53.04,159.50598238392925L53.37222222222222,159.50740377144945L53.516666666666666,159.50825660396154L53.64666666666667,159.50876830346883L53.86333333333333,159.5090753231732L53.99333333333333,159.50925953499578L54.412222222222226,159.50937006208937L54.455555555555556,159.50943637834553L54.91777777777778,159.5094761680992L55.30777777777778,159.5095000419514L55.72666666666667,159.50951436626275L55.81333333333333,159.50952296084952L56.17444444444445,159.5095281176016L56.21777777777778,159.50953121165284L56.44888888888889,159.5095330680836L56.70888888888889,159.50953418194206L56.86777777777778,159.50953485025713L56.925555555555555,159.50953525124615L57.12777777777778,159.50953549183959L57.214444444444446,159.50953563619564L57.24333333333334,159.5095357228093L57.40222222222222,159.50953577477745L57.44555555555556,159.50953580595836L57.59,159.5095358246669L57.69111111111111,159.50953583589202L57.705555555555556,159.50953584262712L57.864444444444445,160.01337566403126L57.878888888888895,160.31567955687376L57.965555555555554,160.49706189257924L58.861111111111114,160.60589129400253L58.93333333333333,160.67118893485653L59.12111111111111,160.7103675193689L59.525555555555556,160.73387467007635L59.626666666666665,160.7479789605008L59.641111111111115,160.75644153475548L59.75666666666667,160.76151907930827L60.00222222222222,160.76456560603998L60.016666666666666,160.76639352207897L60.08888888888889,160.76749027170237L60.45,160.76814832147642L60.79666666666667,160.76854315134085L61.24444444444444,160.7687800492595L61.60555555555556,160.7689221880107L61.937777777777775,160.76900747126143L61.952222222222225,160.76905864121184L61.96666666666667,160.76908934318212L62.01,160.76910776436426L62.19777777777778,160.76911881707355L62.31333333333333,160.76912544869913L62.55888888888889,160.76912942767447L62.775555555555556,160.7691318150597L62.934444444444445,160.7691332474908L62.94888888888889,160.76913410694948L63.10777777777778,160.76913462262468L63.208888888888886,160.7691349320298L63.483333333333334,160.76913511767287L63.90222222222223,160.76913522905872L64.07555555555555,160.76913529589024L64.14777777777778,160.76913533598915L64.33555555555556,160.7691353600485L64.43666666666667,160.76913537448408L64.58111111111111,160.76913538314545L64.69666666666666,160.76913538834228L65.02888888888889,160.81951937639798L65.20222222222222,160.8497497692314L65.2311111111111,160.86788800493147L65.27444444444444,160.87877094635152L65.40444444444444,160.88530071120354L65.86666666666667,160.88921857011474L66.3288888888889,160.8915692854615L66.41555555555554,160.8929797146695L66.74777777777778,160.89382597219432L67.25333333333333,160.89433372670922L67.38333333333333,160.89463837941815L67.44111111111111,160.89482117104353L67.74444444444444,160.89493084601872L67.80222222222223,160.89499665100388L68.16333333333333,160.89503613399495L68.17777777777778,160.8950598237896L68.19222222222223,160.89507403766638L68.22111111111111,160.89508256599245L68.25,160.8950876829881L68.4088888888889,160.89509075318549L68.46666666666665,160.8950925953039L68.56777777777778,160.89509370057496L68.58222222222223,160.8950943637376L69.16,160.8950947616352L69.36222222222223,160.89509500037374L69.7088888888889,160.89509514361689L69.9688888888889,160.89509522956274L70.77777777777777,160.89509528113027L70.85000000000001,160.8950953120708L71.52888888888889,160.89509533063512L71.57222222222222,160.8950953417737L72.20777777777778,160.9001337466762L72.72777777777777,160.9031567896177L73.01666666666667,160.9049706153826L73.06,160.90605891084155L73.07444444444444,160.90671188811692L73.26222222222222,160.90710367448213L73.27666666666667,160.9073387463013L73.36333333333333,160.90747978939274L73.40666666666667,160.90756441524763L73.65222222222222,160.90761519076057L73.89777777777778,160.90764565606833L74.01333333333334,160.907663935253L74.25888888888889,160.9076749027638L74.34555555555555,160.90768148327027L74.61999999999999,160.90768543157415L74.67777777777778,160.9076878005565L74.73555555555555,160.9076892219459L74.82222222222222,160.9076900747795L74.89444444444445,160.9076905864797L75.14,160.90769089349982L75.19777777777777,160.90769107771186L75.35666666666667,160.9076911882391L75.70333333333333,160.90769125455546L75.73222222222223,160.90769129434528L75.74666666666667,160.90769131821915L76.10777777777777,160.9076913325435L76.23777777777778,160.90769134113808L76.36777777777777,160.90769134629483L76.46888888888888,160.9076913493889L76.48333333333333,160.90769135124535L76.61333333333334,160.9076913523592L76.71444444444445,160.9076913530275L76.72888888888889,160.9076913534285L76.98888888888888,160.9076913536691L77.24888888888889,160.90769135381345L77.27777777777777,160.90769135390005L77.37888888888888,160.907691353952L77.47999999999999,160.9076913539832L77.50888888888889,160.9076913540019L77.58111111111111,160.90769135401314L78.17333333333335,160.90769135401987L78.33222222222221,160.9076913540239L78.64999999999999,160.90769135402633L78.76555555555557,160.9076913540278L79.09777777777778,160.90769135402866L79.21333333333332,160.9076913540292L79.22777777777777,160.9076913540295L79.61777777777777,160.90819519384877L79.67555555555556,160.90849749774034L79.90666666666667,160.90867888007526L80.39777777777778,160.90878770947623L80.55666666666667,160.90885300711682L81.32222222222222,160.90889218570115L81.39444444444443,160.90891569285176L81.71222222222222,160.90892979714212L81.82777777777778,160.90893825971634L81.85666666666667,160.90894333726087L82.03,160.9089463837876L82.14555555555556,160.90894821170363L83.28666666666668,160.90894930845326L83.34444444444443,160.908949966503L83.93666666666667,160.90895036133287L84.61555555555555,160.90895059823077L84.73111111111112,160.90895074036956L84.78888888888889,160.9089508256528L84.84666666666666,160.90895087682273L84.87555555555555,160.9089509075247L85.06333333333333,160.9089509259459L85.29444444444444,160.9089509369986L85.58333333333333,160.90895094363023L85.74222222222222,160.9089509476092L85.88666666666666,160.9089509499966L86.16111111111111,160.908950951429L86.43555555555555,160.9089509522885L86.75333333333333,160.909001336789L86.95555555555555,160.90903156748934L87.02777777777777,160.90904970590952L87.10000000000001,160.90906058896164L87.25888888888889,160.9090671187929L87.47555555555556,160.90907103669167L87.57666666666667,160.90907338743094L87.89444444444445,160.9090747978745L87.90888888888888,160.90907564414061L88.09666666666666,160.90907615190028L88.48666666666666,160.9090764565561L88.96333333333334,160.9090766393496L89.03555555555556,160.90907674902567L89.39666666666666,160.90907681483134L89.46888888888888,160.90907685431472L89.49777777777777,160.90907687800475L89.52666666666667,160.9090768922188L89.67111111111112,160.9090769007472L89.80111111111111,160.90907690586425L90.01777777777778,160.90907690893448L90.35,160.9090769107766L90.69666666666666,160.90907691188187L90.71111111111112,160.90907691254506L90.88444444444444,160.90907691294294L90.97111111111111,160.90907691318168L91.2311111111111,160.90907691332495L91.34666666666666,160.9090769134109L91.40444444444445,160.90907691346246L91.7511111111111,160.90907691349338L91.88111111111111,160.90907691351197L91.98222222222223,160.9090769135231L92.06888888888889,160.9090769135298L92.11222222222223,160.9090769135338L92.45888888888888,160.90907691353618L92.57444444444445,160.90907691353763L92.73333333333333,160.9090769135385L92.76222222222223,160.90907691353902L92.7911111111111,160.90907691353934L92.96444444444445,160.90907691353954L93.25333333333334,160.90907691353965L93.57111111111111,160.9090769135397L93.6,160.90907691353974L93.68666666666667,160.90907691353976L94.56777777777778,160.90908195193816L94.78444444444445,160.90908497497722L94.79888888888888,160.90908678880064L94.81333333333333,160.9090878770947L95.03,160.90908853007113L95.59333333333333,160.90908892185698L95.7811111111111,160.9090891569285L95.92555555555556,160.9090892979714L96.44555555555556,160.90908938259713L97.81777777777778,160.9090894333726L97.97666666666667,160.9090894638379L98.22222222222221,160.90908948211703L98.26555555555557,160.9090894930845L98.28,160.90908949966504L98.9011111111111,160.90908950361333L98.9588888888889,160.9090895059823L98.97333333333333,160.90908950740368L99.26222222222222,160.90908950825653L99.36333333333333,160.9090895087682L100.17222222222222,160.90908950907524L100.24444444444444,160.90908950925945L100.31666666666666,160.90908950936998L100.3888888888889,160.9090895094363L100.47555555555554,160.90908950947608L100.60555555555555,160.90908950949995L100.66333333333333,160.90908950951427L101.25555555555555,160.90909001336274L101.45777777777778,160.90909031567182L101.48666666666666,160.90909049705724L101.57333333333334,160.9090906058885L102.33888888888889,160.90909067118724L102.41111111111111,160.9090907103665L102.51222222222222,160.90909073387408L102.54111111111112,160.9090907479786L102.5988888888889,160.90909075644132L102.68555555555555,160.90909076151894L102.90222222222222,160.90909076456555L103.09,160.9090907663935L103.10444444444444,160.90909076749026L103.42222222222222,160.9090907681483L103.56666666666666,160.90909076854314L103.69666666666666,160.90909076878006L104.08666666666666,160.9090907689222L104.24555555555555,160.90909076900746L104.60666666666667,160.90909076905865L104.83777777777777,160.90909076908935L105.08333333333333,160.90909076910776L105.17,160.90909076911882L105.50222222222223,160.90909076912547L105.57444444444444,160.90909076912942L105.58888888888889,160.90909076913184L105.94999999999999,160.90909076913326L106.12333333333333,160.9090907691341L106.29666666666667,160.90909076913462L106.48444444444445,160.90909076913493L106.55666666666667,160.90909076913513L106.62888888888888,160.90909076913522L106.65777777777778,160.9090907691353L106.81666666666666,160.90909076913533L106.99,160.90909076913536L107.06222222222223,160.9090907691354L107.64,160.9090907691354L107.85666666666667,160.9090907691354L107.92888888888889,160.9090907691354L108.17444444444445,160.9090907691354L108.33333333333334,160.90909081951938L108.46333333333334,160.9090908497498L108.49222222222222,160.90909086788798L108.55,160.90909087877094L108.56444444444445,160.9090908853007L108.82444444444445,160.90909088921856L109.48888888888888,160.9090908915693L109.80666666666667,160.90909089297972L110.87555555555556,160.90909089382598L111.03444444444445,160.90909089433373L111.04888888888888,160.90909089463838L111.53999999999999,160.90909089482116L111.62666666666667,160.90909089493084L111.78555555555556,160.90909089499667L111.82888888888888,160.90909089503614L112.24777777777778,160.90909089505982L112.3488888888889,160.90909089507403L112.52222222222221,160.90909089508256L112.68111111111111,160.90909089508767L112.69555555555556,160.90909089509077L112.85444444444444,160.9090908950926L112.97,160.9090908950937L112.99888888888889,160.90909089509435L113.15777777777778,160.90909089509478L113.36,160.909090895095L113.49,160.90909089509515L113.54777777777778,160.90909089509523L113.72111111111111,160.9090908950953L114.14,160.90909089509532L114.41444444444444,160.90909089509532L115.90222222222222,160.90909090013375L115.97444444444444,160.9090909031568L116.11888888888889,160.9090909049706L116.17666666666668,160.9090909060589L116.19111111111111,160.90909090671187L116.50888888888889,160.9090909071037L116.88444444444444,160.90909090733874L117.41888888888889,160.9090909074798L117.43333333333334,160.9090909075644L117.56333333333333,160.9090909076152L117.66444444444444,160.90909090764566L117.67888888888889,160.90909090766394L117.72222222222223,160.9090909076749L118.06888888888889,160.90909090768147L118.61777777777777,160.90909090768542L118.86333333333333,160.9090909076878L119.00777777777778,160.90909090768923L119.15222222222222,160.90909090769009L119.19555555555556,160.9090909076906L119.36888888888889,160.90909090769088L120.06222222222222,160.90909090769108L120.22111111111111,160.9090909076912L120.40888888888888,160.90909090769125L120.85666666666667,160.9090909076913L121.00111111111111,160.90909090769134L121.10222222222222,160.90909090769134L121.26111111111112,160.90909090769134L121.39111111111112,160.90909090769134L121.57888888888888,160.90909090769134L121.62222222222222,160.90909090769134L121.78111111111112,160.90909090769134L122.67666666666666,160.90909090769134L123.09555555555555,160.9090909081952L123.45666666666666,160.90909090849752L123.61555555555556,160.90909090867888L123.93333333333334,160.9090909087877L123.99111111111111,160.90909090885302L124.36666666666666,160.90909090889218L124.39555555555556,160.9090909089157L124.53999999999999,160.9090909089298L124.67,160.90909090893825L125.04555555555555,160.90909090894334L125.24777777777777,160.90909090894638L125.37777777777778,160.90909090894823L125.56555555555556,160.9090909089493L125.73888888888888,160.90909090894996L126.54777777777778,160.90909090895036L126.70666666666666,160.9090909089506L126.73555555555556,160.90909090895073L126.77888888888889,160.90909090895084L126.95222222222222,160.90909090895087L126.96666666666667,160.9090909089509L127.16888888888889,160.90909090895093L127.21222222222222,160.90909090895093L127.24111111111111,160.90909090895096L127.47222222222221,160.90909090895096L127.53,160.90909090895096L127.83333333333333,160.90909090895096L127.86222222222221,160.90909090895096L128.10777777777778,160.90909090895096L128.26666666666668,160.90909090895096L128.49777777777777,160.90909090895096L128.5988888888889,160.90909090895096L128.71444444444444,160.90909090895096L128.78666666666666,160.90909090895096L128.85888888888888,160.90909090895096L128.97444444444446,160.90909090895096L129.14777777777778,160.90909090895096L129.76888888888888,160.90909090895096L129.92777777777778,160.90909090895096L130.08666666666664,160.90909090900132L130.1588888888889,160.9090909090316L130.26,160.9090909090497L130.92444444444445,160.90909090906058L131.08333333333334,160.90909090906712L131.35777777777778,160.90909090907104L131.44444444444443,160.9090909090734L131.53111111111113,160.9090909090748L131.86333333333334,160.90909090907564L131.89222222222224,160.90909090907616L132.05111111111108,160.90909090907647L132.71555555555557,160.90909090907664L133.00444444444443,160.90909090907675L133.48111111111112,160.9090909090768L134.17444444444445,160.90909090907687L134.2177777777778,160.90909090907687L134.30444444444444,160.9090909090769L134.33333333333334,160.9090909090769L134.68,160.90909090907692L134.81,160.90909090907692L134.8388888888889,160.90909090907692L135.08444444444444,160.90909090907692L135.34444444444443,160.90909090907692L135.4311111111111,160.90909090907692L135.47444444444446,160.90909090907692L135.98000000000002,160.90909090907692L136.0522222222222,160.90909090907692L136.10999999999999,160.90909090907692L136.16777777777776,160.90909090907692L136.3988888888889,160.90909090907692L136.41333333333333,160.90909090907692L136.71666666666667,160.90909090907692L136.84666666666666,160.90909090907692L137.29444444444442,160.90909090908195L137.33777777777777,160.90909090908497L137.41,160.90909090908679L137.78555555555556,160.90909090908787L137.81444444444443,160.90909090908852L137.91555555555556,160.90909090908892L137.93,160.90909090908914L138.01666666666668,160.9090909090893L138.60888888888888,160.9090909090894L138.95555555555558,160.90909090908943L139.1577777777778,160.90909090908946L139.18666666666667,160.90909090908949L139.54777777777778,160.90909090908949L139.80777777777777,160.9090909090895L139.98111111111112,160.9090909090895L140.06777777777776,160.9090909090895L140.2122222222222,160.9090909090895L140.22666666666666,160.9090909090895L140.70333333333335,160.9090909090895L140.73222222222222,160.9090909090895L141.13666666666666,160.9090909090895L141.35333333333332,160.9090909090895L141.38222222222223,160.9090909090895L141.7722222222222,160.9090909090895L141.84444444444443,160.9090909090895L142.13333333333333,160.9090909090895L142.29222222222222,160.9090909090895L142.72555555555556,160.9090909090895L142.82666666666668,160.9090909090895L142.94222222222223,160.9090909090895L143.04333333333335,160.9090909090895L143.31777777777776,160.9090909090895L143.37555555555554,160.9090909090895L143.43333333333334,160.9090909090895L143.50555555555556,160.9090909090895L143.82333333333335,160.9090909090895L143.95333333333332,160.9090909090895L143.98222222222222,160.9090909090895L143.99666666666664,160.9090909090895L144.04000000000002,160.9090909090895L144.47333333333333,160.90909090909003L144.50222222222223,160.9090909090903L145.22444444444446,160.90909090909048L145.81666666666666,160.90909090909062L146.01888888888888,160.90909090909068L146.04777777777778,160.9090909090907L146.79888888888888,160.90909090909074L146.88555555555556,160.90909090909074L146.95777777777778,160.90909090909076L147.27555555555554,160.90909090909076L147.29,160.90909090909076L147.46333333333334,160.90909090909076L147.85333333333332,160.90909090909076L147.92555555555558,160.90909090909076L148.24333333333334,160.90909090909076L148.86444444444444,160.90909090909076L148.87888888888887,160.90909090909076L149.55777777777777,160.90909090909076L149.97666666666666,160.90909090909076L150.3088888888889,160.90909090909076L150.36666666666667,160.90909090909076L150.42444444444445,160.90909090909076L150.49666666666667,160.90909090909076L150.51111111111112,160.90909090909076L150.6411111111111,160.90909090909076L151.56555555555556,160.90909090909076L151.75333333333333,160.90909090909082L151.84,160.90909090909085L151.8688888888889,160.90909090909088L151.91222222222223,160.90909090909088L152.07111111111112,160.90909090909088L152.17222222222222,160.90909090909088L152.41777777777776,160.90909090909088L152.47555555555556,160.90909090909088L152.69222222222223,160.90909090909088L152.75,160.90909090909088L152.86555555555557,160.90909090909088L153.19777777777776,160.90909090909088L153.29888888888888,160.9090909090909L153.79000000000002,160.9090909090909L153.93444444444444,160.9090909090909L154.03555555555556,160.9090909090909L154.10777777777778,160.9090909090909L154.38222222222223,160.9090909090909L154.58444444444444,160.9090909090909L154.67111111111112,160.9090909090909L154.7,160.9090909090909L154.9311111111111,160.9090909090909L155.16222222222223,160.9090909090909L155.26333333333332,160.9090909090909L155.35,160.9090909090909L155.3788888888889,160.9090909090909L155.6677777777778,160.9090909090909L156.07222222222222,160.9090909090909L156.69333333333333,160.9090909090909L156.85222222222222,160.9090909090909L156.95333333333335,160.9090909090909L158.0077777777778,160.9090909090909L158.03666666666666,160.9090909090909L158.34,160.9090909090909L158.93222222222224,160.9090909090909L159.03333333333333,160.9090909090909L159.13444444444445,160.9090909090909L159.1488888888889,160.9090909090909L159.64,160.9090909090909L159.6977777777778,160.9090909090909L159.8422222222222,160.9090909090909L159.9288888888889,160.9090909090909L159.98666666666665,160.9090909090909L160.21777777777777,160.9090909090909L160.4777777777778,160.9090909090909L160.55,160.9090909090909L160.6222222222222,160.9090909090909L160.89666666666668,160.9090909090909L161.18555555555554,160.9090909090909L161.33,160.9090909090909L161.82111111111112,160.9090909090909L161.96555555555554,160.9090909090909L161.99444444444444,160.9090909090909L162.09555555555556,160.9090909090909L162.26888888888888,160.9090909090909L162.38444444444443,160.9090909090909L162.94777777777776,160.9090909090909L162.9622222222222,160.9090909090909L163.16444444444443,160.9090909090909L163.33777777777777,160.9090909090909L163.36666666666665,160.9090909090909L163.61222222222224,160.9090909090909L163.88666666666666,160.9090909090909L163.9011111111111,160.9090909090909L164.23333333333335,160.9090909090909L164.34888888888887,160.9090909090909L164.59444444444446,160.9090909090909L164.89777777777778,160.9090909090909L165.1,160.9090909090909L165.14333333333332,160.9090909090909L165.3022222222222,160.9090909090909L165.4177777777778,160.9090909090909L165.56222222222223,160.9090909090909L165.82222222222222,160.9090909090909L165.95222222222225,160.9090909090909L166.02444444444444,160.9090909090909L166.1688888888889,160.9090909090909L166.28444444444443,160.9090909090909L166.38555555555556,160.9090909090909L166.60222222222222,160.9090909090909L166.77555555555557,160.9090909090909L166.83333333333334,160.9090909090909L167.07888888888888,160.9090909090909L167.39666666666668,160.9090909090909L167.4111111111111,160.9090909090909L167.70000000000002,160.9090909090909L167.71444444444447,160.9090909090909L167.7577777777778,160.9090909090909L167.98888888888888,160.9090909090909L168.09,160.9090909090909L168.17666666666668,160.9090909090909L168.39333333333332,160.9090909090909L168.60999999999999,160.9090909090909L168.6533333333333,160.9090909090909L168.9711111111111,160.9090909090909L169.14444444444445,160.9090909090909L169.1588888888889,160.9090909090909L169.86666666666667,160.9090909090909L169.9388888888889,160.9090909090909L170.69,160.9090909090909L170.70444444444445,160.9090909090909L171.1811111111111,160.9090909090909L171.5711111111111,160.9090909090909L171.7588888888889,160.9090909090909L171.88888888888889,160.9090909090909L171.9177777777778,160.9090909090909L172.16333333333333,160.9090909090909L172.22111111111113,160.9090909090909L172.39444444444445,160.9090909090909L173.08777777777777,160.9090909090909L173.3188888888889,160.9090909090909L173.34777777777776,160.9090909090909L173.54999999999998,160.9090909090909L173.68,160.9090909090909L173.69444444444443,160.9090909090909L173.85333333333332,160.9090909090909L173.92555555555555,160.9090909090909L174.18555555555557,160.9090909090909L174.85,160.9090909090909L174.95111111111112,160.9090909090909L175.0088888888889,160.9090909090909L175.25444444444443,160.9090909090909L175.5288888888889,160.9090909090909L175.54333333333335,160.9090909090909L175.61555555555555,160.9090909090909L175.96222222222224,160.9090909090909L176.10666666666668,160.9090909090909L176.22222222222223,160.9090909090909L176.62666666666667,160.9090909090909L177.27666666666664,160.9090909090909L177.5511111111111,160.9090909090909L178.18666666666667,160.9090909090909L178.20111111111112,160.9090909090909L178.2877777777778,160.9090909090909L178.66333333333336,160.9090909090909L178.80777777777777,160.9090909090909L178.9088888888889,160.9090909090909L178.96666666666667,160.9090909090909L179.11111111111111,160.9090909090909L179.2122222222222,160.9090909090909L179.39999999999998,160.9090909090909L179.50111111111113,160.9090909090909L179.54444444444445,160.9090909090909L179.90555555555557,160.9090909090909L180.09333333333333,160.9090909090909L180.26666666666668,160.9090909090909L180.6277777777778,160.9090909090909L180.83,160.9090909090909L180.85888888888888,160.9090909090909L180.9311111111111,160.9090909090909L180.94555555555556,160.9090909090909L181.2488888888889,160.9090909090909L181.37888888888887,160.9090909090909L181.49444444444444,160.9090909090909L181.63888888888889,160.9090909090909L181.68222222222224,160.9090909090909L182.0288888888889,160.9090909090909L182.27444444444444,160.9090909090909L182.39000000000001,160.9090909090909L182.54888888888888,160.9090909090909L182.9677777777778,160.9090909090909L183.37222222222223,160.9090909090909L183.47333333333333,160.9090909090909L184.12333333333333,160.9090909090909L184.19555555555556,160.9090909090909L184.2822222222222,160.9090909090909L184.87444444444444,160.9090909090909L184.91777777777776,160.9090909090909L185.61111111111111,160.9090909090909L186.07333333333332,160.9090909090909L186.10222222222222,160.9090909090909L186.88222222222223,160.9090909090909L187.05555555555554,160.9090909090909L187.14222222222222,160.9090909090909L187.3011111111111,160.9090909090909L187.85,160.9090909090909L187.86444444444444,160.9090909090909L187.95111111111112,160.9090909090909L188.51444444444445,160.9090909090909L188.7888888888889,160.9090909090909L188.8033333333333,160.9090909090909L188.89000000000001,160.9090909090909L189.15,160.9090909090909L189.7422222222222,160.9090909090909L189.78555555555553,160.9090909090909L189.94444444444443,160.9090909090909L189.95888888888888,160.9090909090909L190.3488888888889,160.9090909090909L190.72444444444443,160.9090909090909L191.2588888888889,160.9090909090909L191.9088888888889,160.9090909090909L192.18333333333334,160.9090909090909L192.22666666666666,160.9090909090909L192.28444444444443,160.9090909090909L192.41444444444446,160.9090909090909L192.44333333333333,160.9090909090909L192.89111111111112,160.9090909090909L193.05,160.9090909090909L193.36777777777777,160.9090909090909L193.54111111111112,160.9090909090909L193.5988888888889,160.9090909090909L193.7577777777778,160.9090909090909L193.84444444444443,160.9090909090909L193.87333333333333,160.9090909090909L193.88777777777776,160.9090909090909L194.45111111111112,160.9090909090909L194.66777777777776,160.9090909090909L195.10111111111112,160.9090909090909L195.52,160.9090909090909L195.80888888888887,160.9090909090909L195.95333333333335,160.9090909090909L196.05444444444444,160.9090909090909L196.25666666666666,160.9090909090909L196.31444444444446,160.9090909090909L196.58888888888887,160.9090909090909L196.93555555555557,160.9090909090909L197.34,160.9090909090909L197.52777777777777,160.9090909090909L197.58555555555554,160.9090909090909L197.71555555555557,160.9090909090909L197.84555555555556,160.9090909090909L197.97555555555556,160.9090909090909L198.0911111111111,160.9090909090909L198.29333333333335,160.9090909090909L198.42333333333332,160.9090909090909L198.52444444444444,160.9090909090909L198.5822222222222,160.9090909090909L198.6977777777778,160.9090909090909L198.72666666666666,160.9090909090909L198.88555555555556,160.9090909090909L198.94333333333333,160.9090909090909L199.07333333333335,160.9090909090909L199.10222222222222,160.9090909090909L199.40555555555557,160.9090909090909L199.81,160.9090909090909L200.31555555555556,160.9090909090909L200.4311111111111,160.9090909090909L200.60444444444445,160.9090909090909L200.63333333333333,160.9090909090909L200.82111111111112,160.9090909090909L200.8788888888889,160.9090909090909L201.1533333333333,160.9090909090909L201.54333333333332,160.9090909090909L201.67333333333332,160.9090909090909L201.7311111111111,160.9090909090909L201.9766666666667,160.9090909090909L202.00555555555556,160.9090909090909L202.20777777777778,160.9090909090909L202.22222222222223,160.9090909090909L202.35222222222222,160.9090909090909L202.7133333333333,160.9090909090909L202.82888888888888,160.9090909090909L202.97333333333333,160.9090909090909L203.58,160.9090909090909L203.72444444444446,160.9090909090909L203.91222222222223,160.9090909090909L204.1288888888889,160.9090909090909L204.30222222222224,160.9090909090909L204.48999999999998,160.9090909090909L204.53333333333333,160.9090909090909L204.67777777777778,160.9090909090909L204.70666666666668,160.9090909090909L204.72111111111113,160.9090909090909L204.80777777777777,160.9090909090909L204.89444444444445,160.9090909090909L204.96666666666667,160.9090909090909L205.12555555555556,160.9090909090909L205.77555555555554,160.9090909090909L205.96333333333334,160.9090909090909L206.06444444444446,160.9090909090909L207.1911111111111,160.9090909090909L207.35,160.9090909090909L207.45111111111112,160.9090909090909L207.52333333333334,160.9090909090909L207.62444444444444,160.9090909090909L207.6677777777778,160.9090909090909L207.85555555555555,160.9090909090909L207.95666666666665,160.9090909090909L208.4911111111111,160.9090909090909L208.69333333333333,160.9090909090909L208.86666666666667,160.9090909090909L210.0511111111111,160.9090909090909L210.34,160.9090909090909L210.75888888888886,160.9090909090909L211.13444444444443,160.9090909090909L211.36555555555557,160.9090909090909L211.39444444444445,160.9090909090909L211.51,160.9090909090909L211.53888888888886,160.9090909090909L211.79888888888888,160.9090909090909L211.84222222222223,160.9090909090909L211.92888888888888,160.9090909090909L212.08777777777777,160.9090909090909L212.13111111111112,160.9090909090909L212.14555555555557,160.9090909090909L212.3477777777778,160.9090909090909L212.47777777777776,160.9090909090909L212.83888888888887,160.9090909090909L212.9688888888889,160.9090909090909L213.18555555555557,160.9090909090909L213.2,160.9090909090909L213.4311111111111,160.9090909090909L213.51777777777778,160.9090909090909L213.5611111111111,160.9090909090909L213.96555555555557,160.9090909090909L214.11,160.9090909090909L214.31222222222223,160.9090909090909L214.45666666666665,160.9090909090909L214.48555555555558,160.9090909090909L214.63,160.9090909090909L214.67333333333332,160.9090909090909L215.03444444444443,160.9090909090909L215.06333333333333,160.9090909090909L215.17888888888888,160.9090909090909L215.51111111111112,160.9090909090909L216.32,160.9090909090909L216.39222222222222,160.9090909090909L216.46444444444447,160.9090909090909L216.59444444444443,160.9090909090909L217.05666666666667,160.9090909090909L217.18666666666667,160.9090909090909L217.3022222222222,160.9090909090909L217.41777777777776,160.9090909090909L217.57666666666665,160.9090909090909L217.62,160.9090909090909L217.86555555555557,160.9090909090909L217.89444444444445,160.9090909090909L218.1688888888889,160.9090909090909L218.29888888888888,160.9090909090909L218.90555555555557,160.9090909090909L219.03555555555556,160.9090909090909L219.45444444444445,160.9090909090909L219.48333333333332,160.9090909090909L219.84444444444443,160.9090909090909L220.03222222222223,160.9090909090909L220.0611111111111,160.9090909090909L220.19111111111113,160.9090909090909L220.59555555555556,160.9090909090909L220.8411111111111,160.9090909090909L221.1011111111111,160.9090909090909L221.13,160.9090909090909L221.4911111111111,160.9090909090909L221.73666666666668,160.9090909090909L221.8088888888889,160.9090909090909L222.2422222222222,160.9090909090909L222.7477777777778,160.9090909090909L222.99333333333334,160.9090909090909L223.51333333333335,160.9090909090909L223.6,160.9090909090909L223.87444444444444,160.9090909090909L224.03333333333333,160.9090909090909L224.13444444444445,160.9090909090909L224.20666666666665,160.9090909090909L224.25,160.9090909090909L224.2788888888889,160.9090909090909L224.39444444444445,160.9090909090909L224.42333333333332,160.9090909090909L224.75555555555556,160.9090909090909L224.87111111111113,160.9090909090909L224.98666666666665,160.9090909090909L225.14555555555555,160.9090909090909L225.1888888888889,160.9090909090909L225.3188888888889,160.9090909090909L225.49222222222224,160.9090909090909L225.63666666666666,160.9090909090909L225.66555555555556,160.9090909090909L225.72333333333333,160.9090909090909L225.76666666666665,160.9090909090909L225.7811111111111,160.9090909090909L225.98333333333332,160.9090909090909L226.24333333333334,160.9090909090909L226.31555555555556,160.9090909090909L226.53222222222223,160.9090909090909L226.54666666666665,160.9090909090909L226.76333333333332,160.9090909090909L227.28333333333333,160.9090909090909L227.41333333333336,160.9090909090909L227.42777777777778,160.9090909090909L227.44222222222223,160.9090909090909L227.52888888888887,160.9090909090909L228.07777777777778,160.9090909090909L228.23666666666668,160.9090909090909L228.52555555555554,160.9090909090909L228.82888888888888,160.9090909090909L228.85777777777778,160.9090909090909L229.07444444444445,160.9090909090909L229.1611111111111,160.9090909090909L229.23333333333335,160.9090909090909L229.43555555555557,160.9090909090909L229.46444444444444,160.9090909090909L229.66666666666666,160.9090909090909L230.3022222222222,160.9090909090909L230.51888888888888,160.9090909090909L230.79333333333335,160.9090909090909L230.95222222222225,160.9090909090909L231.60222222222222,160.9090909090909L231.83333333333334,160.9090909090909" style="fill: none;" fill="none"></path></g></g></g></g><g opacity="0.2"><g><g><g><path stroke="rgb(255, 112, 67)" stroke-width="2px" d="M35.73555555555556,-1238.6460544304412L36.22666666666667,20.95357824836604L36.34222222222222,20.95357824836604L36.501111111111115,20.95357824836604L36.51555555555556,20.95357824836604L36.818888888888885,20.95357824836604L36.833333333333336,20.95357824836604L37.06444444444444,20.95357824836604L37.19444444444444,20.95357824836604L37.367777777777775,20.95357824836604L37.714444444444446,20.95357824836604L37.772222222222226,20.95357824836604L37.94555555555555,20.95357824836604L39.129999999999995,20.95357824836604L39.202222222222225,20.95357824836604L39.33222222222223,20.95357824836604L39.44777777777778,20.95357824836604L39.621111111111105,20.95357824836604L39.65,20.95357824836604L39.93888888888889,20.95357824836604L40.31444444444445,20.95357824836604L40.37222222222222,20.95357824836604L40.64666666666666,20.95357824836604L40.82,20.95357824836604L40.99333333333334,20.95357824836604L41.15222222222222,20.95357824836604L41.18111111111111,20.95357824836604L41.224444444444444,20.95357824836604L41.97555555555556,20.95357824836604L42.84222222222222,20.95357824836604L42.986666666666665,20.95357824836604L43.391111111111115,146.91354034547905L43.44888888888889,146.91354034547905L43.968888888888884,146.91354034547905L44.21444444444444,146.91354034547905L44.647777777777776,146.91354034547905L44.66222222222222,146.91354034547905L44.67666666666667,146.91354034547905L44.806666666666665,146.91354034547905L44.90777777777778,146.91354034547905L44.99444444444444,146.91354034547905L45.16777777777778,146.91354034547905L45.196666666666665,146.91354034547905L45.39888888888889,146.91354034547905L45.413333333333334,146.91354034547905L45.48555555555556,146.91354034547905L45.65888888888889,146.91354034547905L45.87555555555555,146.91354034547905L46.06333333333333,146.91354034547905L46.16444444444444,146.91354034547905L46.32333333333333,146.91354034547905L46.55444444444444,146.91354034547905L46.77111111111111,146.91354034547905L46.8,146.91354034547905L46.81444444444444,146.91354034547905L47.01666666666667,146.91354034547905L47.32,146.91354034547905L47.33444444444444,146.91354034547905L47.43555555555555,146.91354034547905L47.522222222222226,146.91354034547905L47.75333333333334,146.91354034547905L47.81111111111111,146.91354034547905L47.99888888888889,146.91354034547905L48.345555555555556,146.91354034547905L49.03888888888889,146.91354034547905L49.486666666666665,146.91354034547905L49.50111111111111,146.91354034547905L49.53,146.91354034547905L49.558888888888895,146.91354034547905L49.89111111111111,146.91354034547905L49.90555555555556,146.91354034547905L50.00666666666667,146.91354034547905L50.58444444444444,159.50953585272973L50.67111111111111,159.50953585272973L50.74333333333333,159.50953585272973L50.87333333333333,159.50953585272973L50.916666666666664,159.50953585272973L51.49444444444445,159.50953585272973L51.797777777777775,159.50953585272973L51.870000000000005,159.50953585272973L51.898888888888884,159.50953585272973L52.21666666666667,159.50953585272973L52.404444444444444,159.50953585272973L52.41888888888889,159.50953585272973L52.678888888888885,159.50953585272973L52.78,159.50953585272973L52.95333333333333,159.50953585272973L53.04,159.50953585272973L53.37222222222222,159.50953585272973L53.516666666666666,159.50953585272973L53.64666666666667,159.50953585272973L53.86333333333333,159.50953585272973L53.99333333333333,159.50953585272973L54.412222222222226,159.50953585272973L54.455555555555556,159.50953585272973L54.91777777777778,159.50953585272973L55.30777777777778,159.50953585272973L55.72666666666667,159.50953585272973L55.81333333333333,159.50953585272973L56.17444444444445,159.50953585272973L56.21777777777778,159.50953585272973L56.44888888888889,159.50953585272973L56.70888888888889,159.50953585272973L56.86777777777778,159.50953585272973L56.925555555555555,159.50953585272973L57.12777777777778,159.50953585272973L57.214444444444446,159.50953585272973L57.24333333333334,159.50953585272973L57.40222222222222,159.50953585272973L57.44555555555556,159.50953585272973L57.59,159.50953585272973L57.69111111111111,159.50953585272973L57.705555555555556,159.50953585272973L57.864444444444445,160.7691353961375L57.878888888888895,160.7691353961375L57.965555555555554,160.7691353961375L58.861111111111114,160.7691353961375L58.93333333333333,160.7691353961375L59.12111111111111,160.7691353961375L59.525555555555556,160.7691353961375L59.626666666666665,160.7691353961375L59.641111111111115,160.7691353961375L59.75666666666667,160.7691353961375L60.00222222222222,160.7691353961375L60.016666666666666,160.7691353961375L60.08888888888889,160.7691353961375L60.45,160.7691353961375L60.79666666666667,160.7691353961375L61.24444444444444,160.7691353961375L61.60555555555556,160.7691353961375L61.937777777777775,160.7691353961375L61.952222222222225,160.7691353961375L61.96666666666667,160.7691353961375L62.01,160.7691353961375L62.19777777777778,160.7691353961375L62.31333333333333,160.7691353961375L62.55888888888889,160.7691353961375L62.775555555555556,160.7691353961375L62.934444444444445,160.7691353961375L62.94888888888889,160.7691353961375L63.10777777777778,160.7691353961375L63.208888888888886,160.7691353961375L63.483333333333334,160.7691353961375L63.90222222222223,160.7691353961375L64.07555555555555,160.7691353961375L64.14777777777778,160.7691353961375L64.33555555555556,160.7691353961375L64.43666666666667,160.7691353961375L64.58111111111111,160.7691353961375L64.69666666666666,160.7691353961375L65.02888888888889,160.89509535848157L65.20222222222222,160.89509535848157L65.2311111111111,160.89509535848157L65.27444444444444,160.89509535848157L65.40444444444444,160.89509535848157L65.86666666666667,160.89509535848157L66.3288888888889,160.89509535848157L66.41555555555554,160.89509535848157L66.74777777777778,160.89509535848157L67.25333333333333,160.89509535848157L67.38333333333333,160.89509535848157L67.44111111111111,160.89509535848157L67.74444444444444,160.89509535848157L67.80222222222223,160.89509535848157L68.16333333333333,160.89509535848157L68.17777777777778,160.89509535848157L68.19222222222223,160.89509535848157L68.22111111111111,160.89509535848157L68.25,160.89509535848157L68.4088888888889,160.89509535848157L68.46666666666665,160.89509535848157L68.56777777777778,160.89509535848157L68.58222222222223,160.89509535848157L69.16,160.89509535848157L69.36222222222223,160.89509535848157L69.7088888888889,160.89509535848157L69.9688888888889,160.89509535848157L70.77777777777777,160.89509535848157L70.85000000000001,160.89509535848157L71.52888888888889,160.89509535848157L71.57222222222222,160.89509535848157L72.20777777777778,160.90769135402996L72.72777777777777,160.90769135402996L73.01666666666667,160.90769135402996L73.06,160.90769135402996L73.07444444444444,160.90769135402996L73.26222222222222,160.90769135402996L73.27666666666667,160.90769135402996L73.36333333333333,160.90769135402996L73.40666666666667,160.90769135402996L73.65222222222222,160.90769135402996L73.89777777777778,160.90769135402996L74.01333333333334,160.90769135402996L74.25888888888889,160.90769135402996L74.34555555555555,160.90769135402996L74.61999999999999,160.90769135402996L74.67777777777778,160.90769135402996L74.73555555555555,160.90769135402996L74.82222222222222,160.90769135402996L74.89444444444445,160.90769135402996L75.14,160.90769135402996L75.19777777777777,160.90769135402996L75.35666666666667,160.90769135402996L75.70333333333333,160.90769135402996L75.73222222222223,160.90769135402996L75.74666666666667,160.90769135402996L76.10777777777777,160.90769135402996L76.23777777777778,160.90769135402996L76.36777777777777,160.90769135402996L76.46888888888888,160.90769135402996L76.48333333333333,160.90769135402996L76.61333333333334,160.90769135402996L76.71444444444445,160.90769135402996L76.72888888888889,160.90769135402996L76.98888888888888,160.90769135402996L77.24888888888889,160.90769135402996L77.27777777777777,160.90769135402996L77.37888888888888,160.90769135402996L77.47999999999999,160.90769135402996L77.50888888888889,160.90769135402996L77.58111111111111,160.90769135402996L78.17333333333335,160.90769135402996L78.33222222222221,160.90769135402996L78.64999999999999,160.90769135402996L78.76555555555557,160.90769135402996L79.09777777777778,160.90769135402996L79.21333333333332,160.90769135402996L79.22777777777777,160.90769135402996L79.61777777777777,160.9089509535777L79.67555555555556,160.9089509535777L79.90666666666667,160.9089509535777L80.39777777777778,160.9089509535777L80.55666666666667,160.9089509535777L81.32222222222222,160.9089509535777L81.39444444444443,160.9089509535777L81.71222222222222,160.9089509535777L81.82777777777778,160.9089509535777L81.85666666666667,160.9089509535777L82.03,160.9089509535777L82.14555555555556,160.9089509535777L83.28666666666668,160.9089509535777L83.34444444444443,160.9089509535777L83.93666666666667,160.9089509535777L84.61555555555555,160.9089509535777L84.73111111111112,160.9089509535777L84.78888888888889,160.9089509535777L84.84666666666666,160.9089509535777L84.87555555555555,160.9089509535777L85.06333333333333,160.9089509535777L85.29444444444444,160.9089509535777L85.58333333333333,160.9089509535777L85.74222222222222,160.9089509535777L85.88666666666666,160.9089509535777L86.16111111111111,160.9089509535777L86.43555555555555,160.9089509535777L86.75333333333333,160.90907691353982L86.95555555555555,160.90907691353982L87.02777777777777,160.90907691353982L87.10000000000001,160.90907691353982L87.25888888888889,160.90907691353982L87.47555555555556,160.90907691353982L87.57666666666667,160.90907691353982L87.89444444444445,160.90907691353982L87.90888888888888,160.90907691353982L88.09666666666666,160.90907691353982L88.48666666666666,160.90907691353982L88.96333333333334,160.90907691353982L89.03555555555556,160.90907691353982L89.39666666666666,160.90907691353982L89.46888888888888,160.90907691353982L89.49777777777777,160.90907691353982L89.52666666666667,160.90907691353982L89.67111111111112,160.90907691353982L89.80111111111111,160.90907691353982L90.01777777777778,160.90907691353982L90.35,160.90907691353982L90.69666666666666,160.90907691353982L90.71111111111112,160.90907691353982L90.88444444444444,160.90907691353982L90.97111111111111,160.90907691353982L91.2311111111111,160.90907691353982L91.34666666666666,160.90907691353982L91.40444444444445,160.90907691353982L91.7511111111111,160.90907691353982L91.88111111111111,160.90907691353982L91.98222222222223,160.90907691353982L92.06888888888889,160.90907691353982L92.11222222222223,160.90907691353982L92.45888888888888,160.90907691353982L92.57444444444445,160.90907691353982L92.73333333333333,160.90907691353982L92.76222222222223,160.90907691353982L92.7911111111111,160.90907691353982L92.96444444444445,160.90907691353982L93.25333333333334,160.90907691353982L93.57111111111111,160.90907691353982L93.6,160.90907691353982L93.68666666666667,160.90907691353982L94.56777777777778,160.9090895095358L94.78444444444445,160.9090895095358L94.79888888888888,160.9090895095358L94.81333333333333,160.9090895095358L95.03,160.9090895095358L95.59333333333333,160.9090895095358L95.7811111111111,160.9090895095358L95.92555555555556,160.9090895095358L96.44555555555556,160.9090895095358L97.81777777777778,160.9090895095358L97.97666666666667,160.9090895095358L98.22222222222221,160.9090895095358L98.26555555555557,160.9090895095358L98.28,160.9090895095358L98.9011111111111,160.9090895095358L98.9588888888889,160.9090895095358L98.97333333333333,160.9090895095358L99.26222222222222,160.9090895095358L99.36333333333333,160.9090895095358L100.17222222222222,160.9090895095358L100.24444444444444,160.9090895095358L100.31666666666666,160.9090895095358L100.3888888888889,160.9090895095358L100.47555555555554,160.9090895095358L100.60555555555555,160.9090895095358L100.66333333333333,160.9090895095358L101.25555555555555,160.9090907691354L101.45777777777778,160.9090907691354L101.48666666666666,160.9090907691354L101.57333333333334,160.9090907691354L102.33888888888889,160.9090907691354L102.41111111111111,160.9090907691354L102.51222222222222,160.9090907691354L102.54111111111112,160.9090907691354L102.5988888888889,160.9090907691354L102.68555555555555,160.9090907691354L102.90222222222222,160.9090907691354L103.09,160.9090907691354L103.10444444444444,160.9090907691354L103.42222222222222,160.9090907691354L103.56666666666666,160.9090907691354L103.69666666666666,160.9090907691354L104.08666666666666,160.9090907691354L104.24555555555555,160.9090907691354L104.60666666666667,160.9090907691354L104.83777777777777,160.9090907691354L105.08333333333333,160.9090907691354L105.17,160.9090907691354L105.50222222222223,160.9090907691354L105.57444444444444,160.9090907691354L105.58888888888889,160.9090907691354L105.94999999999999,160.9090907691354L106.12333333333333,160.9090907691354L106.29666666666667,160.9090907691354L106.48444444444445,160.9090907691354L106.55666666666667,160.9090907691354L106.62888888888888,160.9090907691354L106.65777777777778,160.9090907691354L106.81666666666666,160.9090907691354L106.99,160.9090907691354L107.06222222222223,160.9090907691354L107.64,160.9090907691354L107.85666666666667,160.9090907691354L107.92888888888889,160.9090907691354L108.17444444444445,160.9090907691354L108.33333333333334,160.90909089509537L108.46333333333334,160.90909089509537L108.49222222222222,160.90909089509537L108.55,160.90909089509537L108.56444444444445,160.90909089509537L108.82444444444445,160.90909089509537L109.48888888888888,160.90909089509537L109.80666666666667,160.90909089509537L110.87555555555556,160.90909089509537L111.03444444444445,160.90909089509537L111.04888888888888,160.90909089509537L111.53999999999999,160.90909089509537L111.62666666666667,160.90909089509537L111.78555555555556,160.90909089509537L111.82888888888888,160.90909089509537L112.24777777777778,160.90909089509537L112.3488888888889,160.90909089509537L112.52222222222221,160.90909089509537L112.68111111111111,160.90909089509537L112.69555555555556,160.90909089509537L112.85444444444444,160.90909089509537L112.97,160.90909089509537L112.99888888888889,160.90909089509537L113.15777777777778,160.90909089509537L113.36,160.90909089509537L113.49,160.90909089509537L113.54777777777778,160.90909089509537L113.72111111111111,160.90909089509537L114.14,160.90909089509537L114.41444444444444,160.90909089509537L115.90222222222222,160.90909090769136L115.97444444444444,160.90909090769136L116.11888888888889,160.90909090769136L116.17666666666668,160.90909090769136L116.19111111111111,160.90909090769136L116.50888888888889,160.90909090769136L116.88444444444444,160.90909090769136L117.41888888888889,160.90909090769136L117.43333333333334,160.90909090769136L117.56333333333333,160.90909090769136L117.66444444444444,160.90909090769136L117.67888888888889,160.90909090769136L117.72222222222223,160.90909090769136L118.06888888888889,160.90909090769136L118.61777777777777,160.90909090769136L118.86333333333333,160.90909090769136L119.00777777777778,160.90909090769136L119.15222222222222,160.90909090769136L119.19555555555556,160.90909090769136L119.36888888888889,160.90909090769136L120.06222222222222,160.90909090769136L120.22111111111111,160.90909090769136L120.40888888888888,160.90909090769136L120.85666666666667,160.90909090769136L121.00111111111111,160.90909090769136L121.10222222222222,160.90909090769136L121.26111111111112,160.90909090769136L121.39111111111112,160.90909090769136L121.57888888888888,160.90909090769136L121.62222222222222,160.90909090769136L121.78111111111112,160.90909090769136L122.67666666666666,160.90909090769136L123.09555555555555,160.90909090895096L123.45666666666666,160.90909090895096L123.61555555555556,160.90909090895096L123.93333333333334,160.90909090895096L123.99111111111111,160.90909090895096L124.36666666666666,160.90909090895096L124.39555555555556,160.90909090895096L124.53999999999999,160.90909090895096L124.67,160.90909090895096L125.04555555555555,160.90909090895096L125.24777777777777,160.90909090895096L125.37777777777778,160.90909090895096L125.56555555555556,160.90909090895096L125.73888888888888,160.90909090895096L126.54777777777778,160.90909090895096L126.70666666666666,160.90909090895096L126.73555555555556,160.90909090895096L126.77888888888889,160.90909090895096L126.95222222222222,160.90909090895096L126.96666666666667,160.90909090895096L127.16888888888889,160.90909090895096L127.21222222222222,160.90909090895096L127.24111111111111,160.90909090895096L127.47222222222221,160.90909090895096L127.53,160.90909090895096L127.83333333333333,160.90909090895096L127.86222222222221,160.90909090895096L128.10777777777778,160.90909090895096L128.26666666666668,160.90909090895096L128.49777777777777,160.90909090895096L128.5988888888889,160.90909090895096L128.71444444444444,160.90909090895096L128.78666666666666,160.90909090895096L128.85888888888888,160.90909090895096L128.97444444444446,160.90909090895096L129.14777777777778,160.90909090895096L129.76888888888888,160.90909090895096L129.92777777777778,160.90909090895096L130.08666666666664,160.90909090907692L130.1588888888889,160.90909090907692L130.26,160.90909090907692L130.92444444444445,160.90909090907692L131.08333333333334,160.90909090907692L131.35777777777778,160.90909090907692L131.44444444444443,160.90909090907692L131.53111111111113,160.90909090907692L131.86333333333334,160.90909090907692L131.89222222222224,160.90909090907692L132.05111111111108,160.90909090907692L132.71555555555557,160.90909090907692L133.00444444444443,160.90909090907692L133.48111111111112,160.90909090907692L134.17444444444445,160.90909090907692L134.2177777777778,160.90909090907692L134.30444444444444,160.90909090907692L134.33333333333334,160.90909090907692L134.68,160.90909090907692L134.81,160.90909090907692L134.8388888888889,160.90909090907692L135.08444444444444,160.90909090907692L135.34444444444443,160.90909090907692L135.4311111111111,160.90909090907692L135.47444444444446,160.90909090907692L135.98000000000002,160.90909090907692L136.0522222222222,160.90909090907692L136.10999999999999,160.90909090907692L136.16777777777776,160.90909090907692L136.3988888888889,160.90909090907692L136.41333333333333,160.90909090907692L136.71666666666667,160.90909090907692L136.84666666666666,160.90909090907692L137.29444444444442,160.9090909090895L137.33777777777777,160.9090909090895L137.41,160.9090909090895L137.78555555555556,160.9090909090895L137.81444444444443,160.9090909090895L137.91555555555556,160.9090909090895L137.93,160.9090909090895L138.01666666666668,160.9090909090895L138.60888888888888,160.9090909090895L138.95555555555558,160.9090909090895L139.1577777777778,160.9090909090895L139.18666666666667,160.9090909090895L139.54777777777778,160.9090909090895L139.80777777777777,160.9090909090895L139.98111111111112,160.9090909090895L140.06777777777776,160.9090909090895L140.2122222222222,160.9090909090895L140.22666666666666,160.9090909090895L140.70333333333335,160.9090909090895L140.73222222222222,160.9090909090895L141.13666666666666,160.9090909090895L141.35333333333332,160.9090909090895L141.38222222222223,160.9090909090895L141.7722222222222,160.9090909090895L141.84444444444443,160.9090909090895L142.13333333333333,160.9090909090895L142.29222222222222,160.9090909090895L142.72555555555556,160.9090909090895L142.82666666666668,160.9090909090895L142.94222222222223,160.9090909090895L143.04333333333335,160.9090909090895L143.31777777777776,160.9090909090895L143.37555555555554,160.9090909090895L143.43333333333334,160.9090909090895L143.50555555555556,160.9090909090895L143.82333333333335,160.9090909090895L143.95333333333332,160.9090909090895L143.98222222222222,160.9090909090895L143.99666666666664,160.9090909090895L144.04000000000002,160.9090909090895L144.47333333333333,160.90909090909076L144.50222222222223,160.90909090909076L145.22444444444446,160.90909090909076L145.81666666666666,160.90909090909076L146.01888888888888,160.90909090909076L146.04777777777778,160.90909090909076L146.79888888888888,160.90909090909076L146.88555555555556,160.90909090909076L146.95777777777778,160.90909090909076L147.27555555555554,160.90909090909076L147.29,160.90909090909076L147.46333333333334,160.90909090909076L147.85333333333332,160.90909090909076L147.92555555555558,160.90909090909076L148.24333333333334,160.90909090909076L148.86444444444444,160.90909090909076L148.87888888888887,160.90909090909076L149.55777777777777,160.90909090909076L149.97666666666666,160.90909090909076L150.3088888888889,160.90909090909076L150.36666666666667,160.90909090909076L150.42444444444445,160.90909090909076L150.49666666666667,160.90909090909076L150.51111111111112,160.90909090909076L150.6411111111111,160.90909090909076L151.56555555555556,160.90909090909076L151.75333333333333,160.9090909090909L151.84,160.9090909090909L151.8688888888889,160.9090909090909L151.91222222222223,160.9090909090909L152.07111111111112,160.9090909090909L152.17222222222222,160.9090909090909L152.41777777777776,160.9090909090909L152.47555555555556,160.9090909090909L152.69222222222223,160.9090909090909L152.75,160.9090909090909L152.86555555555557,160.9090909090909L153.19777777777776,160.9090909090909L153.29888888888888,160.9090909090909L153.79000000000002,160.9090909090909L153.93444444444444,160.9090909090909L154.03555555555556,160.9090909090909L154.10777777777778,160.9090909090909L154.38222222222223,160.9090909090909L154.58444444444444,160.9090909090909L154.67111111111112,160.9090909090909L154.7,160.9090909090909L154.9311111111111,160.9090909090909L155.16222222222223,160.9090909090909L155.26333333333332,160.9090909090909L155.35,160.9090909090909L155.3788888888889,160.9090909090909L155.6677777777778,160.9090909090909L156.07222222222222,160.9090909090909L156.69333333333333,160.9090909090909L156.85222222222222,160.9090909090909L156.95333333333335,160.9090909090909L158.0077777777778,160.9090909090909L158.03666666666666,160.9090909090909L158.34,160.9090909090909L158.93222222222224,160.9090909090909L159.03333333333333,160.9090909090909L159.13444444444445,160.9090909090909L159.1488888888889,160.9090909090909L159.64,160.9090909090909L159.6977777777778,160.9090909090909L159.8422222222222,160.9090909090909L159.9288888888889,160.9090909090909L159.98666666666665,160.9090909090909L160.21777777777777,160.9090909090909L160.4777777777778,160.9090909090909L160.55,160.9090909090909L160.6222222222222,160.9090909090909L160.89666666666668,160.9090909090909L161.18555555555554,160.9090909090909L161.33,160.9090909090909L161.82111111111112,160.9090909090909L161.96555555555554,160.9090909090909L161.99444444444444,160.9090909090909L162.09555555555556,160.9090909090909L162.26888888888888,160.9090909090909L162.38444444444443,160.9090909090909L162.94777777777776,160.9090909090909L162.9622222222222,160.9090909090909L163.16444444444443,160.9090909090909L163.33777777777777,160.9090909090909L163.36666666666665,160.9090909090909L163.61222222222224,160.9090909090909L163.88666666666666,160.9090909090909L163.9011111111111,160.9090909090909L164.23333333333335,160.9090909090909L164.34888888888887,160.9090909090909L164.59444444444446,160.9090909090909L164.89777777777778,160.9090909090909L165.1,160.9090909090909L165.14333333333332,160.9090909090909L165.3022222222222,160.9090909090909L165.4177777777778,160.9090909090909L165.56222222222223,160.9090909090909L165.82222222222222,160.9090909090909L165.95222222222225,160.9090909090909L166.02444444444444,160.9090909090909L166.1688888888889,160.9090909090909L166.28444444444443,160.9090909090909L166.38555555555556,160.9090909090909L166.60222222222222,160.9090909090909L166.77555555555557,160.9090909090909L166.83333333333334,160.9090909090909L167.07888888888888,160.9090909090909L167.39666666666668,160.9090909090909L167.4111111111111,160.9090909090909L167.70000000000002,160.9090909090909L167.71444444444447,160.9090909090909L167.7577777777778,160.9090909090909L167.98888888888888,160.9090909090909L168.09,160.9090909090909L168.17666666666668,160.9090909090909L168.39333333333332,160.9090909090909L168.60999999999999,160.9090909090909L168.6533333333333,160.9090909090909L168.9711111111111,160.9090909090909L169.14444444444445,160.9090909090909L169.1588888888889,160.9090909090909L169.86666666666667,160.9090909090909L169.9388888888889,160.9090909090909L170.69,160.9090909090909L170.70444444444445,160.9090909090909L171.1811111111111,160.9090909090909L171.5711111111111,160.9090909090909L171.7588888888889,160.9090909090909L171.88888888888889,160.9090909090909L171.9177777777778,160.9090909090909L172.16333333333333,160.9090909090909L172.22111111111113,160.9090909090909L172.39444444444445,160.9090909090909L173.08777777777777,160.9090909090909L173.3188888888889,160.9090909090909L173.34777777777776,160.9090909090909L173.54999999999998,160.9090909090909L173.68,160.9090909090909L173.69444444444443,160.9090909090909L173.85333333333332,160.9090909090909L173.92555555555555,160.9090909090909L174.18555555555557,160.9090909090909L174.85,160.9090909090909L174.95111111111112,160.9090909090909L175.0088888888889,160.9090909090909L175.25444444444443,160.9090909090909L175.5288888888889,160.9090909090909L175.54333333333335,160.9090909090909L175.61555555555555,160.9090909090909L175.96222222222224,160.9090909090909L176.10666666666668,160.9090909090909L176.22222222222223,160.9090909090909L176.62666666666667,160.9090909090909L177.27666666666664,160.9090909090909L177.5511111111111,160.9090909090909L178.18666666666667,160.9090909090909L178.20111111111112,160.9090909090909L178.2877777777778,160.9090909090909L178.66333333333336,160.9090909090909L178.80777777777777,160.9090909090909L178.9088888888889,160.9090909090909L178.96666666666667,160.9090909090909L179.11111111111111,160.9090909090909L179.2122222222222,160.9090909090909L179.39999999999998,160.9090909090909L179.50111111111113,160.9090909090909L179.54444444444445,160.9090909090909L179.90555555555557,160.9090909090909L180.09333333333333,160.9090909090909L180.26666666666668,160.9090909090909L180.6277777777778,160.9090909090909L180.83,160.9090909090909L180.85888888888888,160.9090909090909L180.9311111111111,160.9090909090909L180.94555555555556,160.9090909090909L181.2488888888889,160.9090909090909L181.37888888888887,160.9090909090909L181.49444444444444,160.9090909090909L181.63888888888889,160.9090909090909L181.68222222222224,160.9090909090909L182.0288888888889,160.9090909090909L182.27444444444444,160.9090909090909L182.39000000000001,160.9090909090909L182.54888888888888,160.9090909090909L182.9677777777778,160.9090909090909L183.37222222222223,160.9090909090909L183.47333333333333,160.9090909090909L184.12333333333333,160.9090909090909L184.19555555555556,160.9090909090909L184.2822222222222,160.9090909090909L184.87444444444444,160.9090909090909L184.91777777777776,160.9090909090909L185.61111111111111,160.9090909090909L186.07333333333332,160.9090909090909L186.10222222222222,160.9090909090909L186.88222222222223,160.9090909090909L187.05555555555554,160.9090909090909L187.14222222222222,160.9090909090909L187.3011111111111,160.9090909090909L187.85,160.9090909090909L187.86444444444444,160.9090909090909L187.95111111111112,160.9090909090909L188.51444444444445,160.9090909090909L188.7888888888889,160.9090909090909L188.8033333333333,160.9090909090909L188.89000000000001,160.9090909090909L189.15,160.9090909090909L189.7422222222222,160.9090909090909L189.78555555555553,160.9090909090909L189.94444444444443,160.9090909090909L189.95888888888888,160.9090909090909L190.3488888888889,160.9090909090909L190.72444444444443,160.9090909090909L191.2588888888889,160.9090909090909L191.9088888888889,160.9090909090909L192.18333333333334,160.9090909090909L192.22666666666666,160.9090909090909L192.28444444444443,160.9090909090909L192.41444444444446,160.9090909090909L192.44333333333333,160.9090909090909L192.89111111111112,160.9090909090909L193.05,160.9090909090909L193.36777777777777,160.9090909090909L193.54111111111112,160.9090909090909L193.5988888888889,160.9090909090909L193.7577777777778,160.9090909090909L193.84444444444443,160.9090909090909L193.87333333333333,160.9090909090909L193.88777777777776,160.9090909090909L194.45111111111112,160.9090909090909L194.66777777777776,160.9090909090909L195.10111111111112,160.9090909090909L195.52,160.9090909090909L195.80888888888887,160.9090909090909L195.95333333333335,160.9090909090909L196.05444444444444,160.9090909090909L196.25666666666666,160.9090909090909L196.31444444444446,160.9090909090909L196.58888888888887,160.9090909090909L196.93555555555557,160.9090909090909L197.34,160.9090909090909L197.52777777777777,160.9090909090909L197.58555555555554,160.9090909090909L197.71555555555557,160.9090909090909L197.84555555555556,160.9090909090909L197.97555555555556,160.9090909090909L198.0911111111111,160.9090909090909L198.29333333333335,160.9090909090909L198.42333333333332,160.9090909090909L198.52444444444444,160.9090909090909L198.5822222222222,160.9090909090909L198.6977777777778,160.9090909090909L198.72666666666666,160.9090909090909L198.88555555555556,160.9090909090909L198.94333333333333,160.9090909090909L199.07333333333335,160.9090909090909L199.10222222222222,160.9090909090909L199.40555555555557,160.9090909090909L199.81,160.9090909090909L200.31555555555556,160.9090909090909L200.4311111111111,160.9090909090909L200.60444444444445,160.9090909090909L200.63333333333333,160.9090909090909L200.82111111111112,160.9090909090909L200.8788888888889,160.9090909090909L201.1533333333333,160.9090909090909L201.54333333333332,160.9090909090909L201.67333333333332,160.9090909090909L201.7311111111111,160.9090909090909L201.9766666666667,160.9090909090909L202.00555555555556,160.9090909090909L202.20777777777778,160.9090909090909L202.22222222222223,160.9090909090909L202.35222222222222,160.9090909090909L202.7133333333333,160.9090909090909L202.82888888888888,160.9090909090909L202.97333333333333,160.9090909090909L203.58,160.9090909090909L203.72444444444446,160.9090909090909L203.91222222222223,160.9090909090909L204.1288888888889,160.9090909090909L204.30222222222224,160.9090909090909L204.48999999999998,160.9090909090909L204.53333333333333,160.9090909090909L204.67777777777778,160.9090909090909L204.70666666666668,160.9090909090909L204.72111111111113,160.9090909090909L204.80777777777777,160.9090909090909L204.89444444444445,160.9090909090909L204.96666666666667,160.9090909090909L205.12555555555556,160.9090909090909L205.77555555555554,160.9090909090909L205.96333333333334,160.9090909090909L206.06444444444446,160.9090909090909L207.1911111111111,160.9090909090909L207.35,160.9090909090909L207.45111111111112,160.9090909090909L207.52333333333334,160.9090909090909L207.62444444444444,160.9090909090909L207.6677777777778,160.9090909090909L207.85555555555555,160.9090909090909L207.95666666666665,160.9090909090909L208.4911111111111,160.9090909090909L208.69333333333333,160.9090909090909L208.86666666666667,160.9090909090909L210.0511111111111,160.9090909090909L210.34,160.9090909090909L210.75888888888886,160.9090909090909L211.13444444444443,160.9090909090909L211.36555555555557,160.9090909090909L211.39444444444445,160.9090909090909L211.51,160.9090909090909L211.53888888888886,160.9090909090909L211.79888888888888,160.9090909090909L211.84222222222223,160.9090909090909L211.92888888888888,160.9090909090909L212.08777777777777,160.9090909090909L212.13111111111112,160.9090909090909L212.14555555555557,160.9090909090909L212.3477777777778,160.9090909090909L212.47777777777776,160.9090909090909L212.83888888888887,160.9090909090909L212.9688888888889,160.9090909090909L213.18555555555557,160.9090909090909L213.2,160.9090909090909L213.4311111111111,160.9090909090909L213.51777777777778,160.9090909090909L213.5611111111111,160.9090909090909L213.96555555555557,160.9090909090909L214.11,160.9090909090909L214.31222222222223,160.9090909090909L214.45666666666665,160.9090909090909L214.48555555555558,160.9090909090909L214.63,160.9090909090909L214.67333333333332,160.9090909090909L215.03444444444443,160.9090909090909L215.06333333333333,160.9090909090909L215.17888888888888,160.9090909090909L215.51111111111112,160.9090909090909L216.32,160.9090909090909L216.39222222222222,160.9090909090909L216.46444444444447,160.9090909090909L216.59444444444443,160.9090909090909L217.05666666666667,160.9090909090909L217.18666666666667,160.9090909090909L217.3022222222222,160.9090909090909L217.41777777777776,160.9090909090909L217.57666666666665,160.9090909090909L217.62,160.9090909090909L217.86555555555557,160.9090909090909L217.89444444444445,160.9090909090909L218.1688888888889,160.9090909090909L218.29888888888888,160.9090909090909L218.90555555555557,160.9090909090909L219.03555555555556,160.9090909090909L219.45444444444445,160.9090909090909L219.48333333333332,160.9090909090909L219.84444444444443,160.9090909090909L220.03222222222223,160.9090909090909L220.0611111111111,160.9090909090909L220.19111111111113,160.9090909090909L220.59555555555556,160.9090909090909L220.8411111111111,160.9090909090909L221.1011111111111,160.9090909090909L221.13,160.9090909090909L221.4911111111111,160.9090909090909L221.73666666666668,160.9090909090909L221.8088888888889,160.9090909090909L222.2422222222222,160.9090909090909L222.7477777777778,160.9090909090909L222.99333333333334,160.9090909090909L223.51333333333335,160.9090909090909L223.6,160.9090909090909L223.87444444444444,160.9090909090909L224.03333333333333,160.9090909090909L224.13444444444445,160.9090909090909L224.20666666666665,160.9090909090909L224.25,160.9090909090909L224.2788888888889,160.9090909090909L224.39444444444445,160.9090909090909L224.42333333333332,160.9090909090909L224.75555555555556,160.9090909090909L224.87111111111113,160.9090909090909L224.98666666666665,160.9090909090909L225.14555555555555,160.9090909090909L225.1888888888889,160.9090909090909L225.3188888888889,160.9090909090909L225.49222222222224,160.9090909090909L225.63666666666666,160.9090909090909L225.66555555555556,160.9090909090909L225.72333333333333,160.9090909090909L225.76666666666665,160.9090909090909L225.7811111111111,160.9090909090909L225.98333333333332,160.9090909090909L226.24333333333334,160.9090909090909L226.31555555555556,160.9090909090909L226.53222222222223,160.9090909090909L226.54666666666665,160.9090909090909L226.76333333333332,160.9090909090909L227.28333333333333,160.9090909090909L227.41333333333336,160.9090909090909L227.42777777777778,160.9090909090909L227.44222222222223,160.9090909090909L227.52888888888887,160.9090909090909L228.07777777777778,160.9090909090909L228.23666666666668,160.9090909090909L228.52555555555554,160.9090909090909L228.82888888888888,160.9090909090909L228.85777777777778,160.9090909090909L229.07444444444445,160.9090909090909L229.1611111111111,160.9090909090909L229.23333333333335,160.9090909090909L229.43555555555557,160.9090909090909L229.46444444444444,160.9090909090909L229.66666666666666,160.9090909090909L230.3022222222222,160.9090909090909L230.51888888888888,160.9090909090909L230.79333333333335,160.9090909090909L230.95222222222225,160.9090909090909L231.60222222222222,160.9090909090909L231.83333333333334,160.9090909090909" style="fill: none;" fill="none"></path></g></g></g></g></g></g><g transform="translate(70, 177)" clip-path="url(#clip_1)"><clipPath id="clip_1"><rect width="260" height="23"></rect></clipPath><g><g><line x1="0" y1="0" x2="0" y2="5" style="visibility: inherit;" fill="rgb(0, 0, 0)" stroke="rgb(204, 204, 204)" stroke-width="1px"></line><line x1="28.888888888888886" y1="0" x2="28.888888888888886" y2="5" style="visibility: inherit;" fill="rgb(0, 0, 0)" stroke="rgb(204, 204, 204)" stroke-width="1px"></line><line x1="57.77777777777777" y1="0" x2="57.77777777777777" y2="5" style="visibility: inherit;" fill="rgb(0, 0, 0)" stroke="rgb(204, 204, 204)" stroke-width="1px"></line><line x1="86.66666666666666" y1="0" x2="86.66666666666666" y2="5" style="visibility: inherit;" fill="rgb(0, 0, 0)" stroke="rgb(204, 204, 204)" stroke-width="1px"></line><line x1="115.55555555555554" y1="0" x2="115.55555555555554" y2="5" style="visibility: inherit;" fill="rgb(0, 0, 0)" stroke="rgb(204, 204, 204)" stroke-width="1px"></line><line x1="144.44444444444446" y1="0" x2="144.44444444444446" y2="5" style="visibility: inherit;" fill="rgb(0, 0, 0)" stroke="rgb(204, 204, 204)" stroke-width="1px"></line><line x1="173.33333333333331" y1="0" x2="173.33333333333331" y2="5" style="visibility: inherit;" fill="rgb(0, 0, 0)" stroke="rgb(204, 204, 204)" stroke-width="1px"></line><line x1="202.22222222222223" y1="0" x2="202.22222222222223" y2="5" style="visibility: inherit;" fill="rgb(0, 0, 0)" stroke="rgb(204, 204, 204)" stroke-width="1px"></line><line x1="231.1111111111111" y1="0" x2="231.1111111111111" y2="5" style="visibility: inherit;" fill="rgb(0, 0, 0)" stroke="rgb(204, 204, 204)" stroke-width="1px"></line><line x1="260" y1="0" x2="260" y2="5" style="visibility: inherit;" fill="rgb(0, 0, 0)" stroke="rgb(204, 204, 204)" stroke-width="1px"></line></g><g transform="translate(0, 8)"><text x="0" y="0" dx="0em" dy="0.95em" style="text-anchor: middle; visibility: hidden; font-family: Roboto, sans-serif; font-size: 12px; font-weight: 200;" fill="rgb(33, 33, 33)" stroke="none" stroke-width="1px">-2k</text><text x="28.888888888888886" y="0" dx="0em" dy="0.95em" style="text-anchor: middle; visibility: inherit; font-family: Roboto, sans-serif; font-size: 12px; font-weight: 200;" fill="rgb(33, 33, 33)" stroke="none" stroke-width="1px">0</text><text x="57.77777777777777" y="0" dx="0em" dy="0.95em" style="text-anchor: middle; visibility: inherit; font-family: Roboto, sans-serif; font-size: 12px; font-weight: 200;" fill="rgb(33, 33, 33)" stroke="none" stroke-width="1px">2k</text><text x="86.66666666666666" y="0" dx="0em" dy="0.95em" style="text-anchor: middle; visibility: inherit; font-family: Roboto, sans-serif; font-size: 12px; font-weight: 200;" fill="rgb(33, 33, 33)" stroke="none" stroke-width="1px">4k</text><text x="115.55555555555554" y="0" dx="0em" dy="0.95em" style="text-anchor: middle; visibility: inherit; font-family: Roboto, sans-serif; font-size: 12px; font-weight: 200;" fill="rgb(33, 33, 33)" stroke="none" stroke-width="1px">6k</text><text x="144.44444444444446" y="0" dx="0em" dy="0.95em" style="text-anchor: middle; visibility: inherit; font-family: Roboto, sans-serif; font-size: 12px; font-weight: 200;" fill="rgb(33, 33, 33)" stroke="none" stroke-width="1px">8k</text><text x="173.33333333333331" y="0" dx="0em" dy="0.95em" style="text-anchor: middle; visibility: inherit; font-family: Roboto, sans-serif; font-size: 12px; font-weight: 200;" fill="rgb(33, 33, 33)" stroke="none" stroke-width="1px">10k</text><text x="202.22222222222223" y="0" dx="0em" dy="0.95em" style="text-anchor: middle; visibility: inherit; font-family: Roboto, sans-serif; font-size: 12px; font-weight: 200;" fill="rgb(33, 33, 33)" stroke="none" stroke-width="1px">12k</text><text x="231.1111111111111" y="0" dx="0em" dy="0.95em" style="text-anchor: middle; visibility: inherit; font-family: Roboto, sans-serif; font-size: 12px; font-weight: 200;" fill="rgb(33, 33, 33)" stroke="none" stroke-width="1px">14k</text><text x="260" y="0" dx="0em" dy="0.95em" style="text-anchor: middle; visibility: hidden; font-family: Roboto, sans-serif; font-size: 12px; font-weight: 200;" fill="rgb(33, 33, 33)" stroke="none" stroke-width="1px">16k</text></g><line x1="0" y1="0" x2="260" y2="0" fill="rgb(0, 0, 0)" stroke="rgb(204, 204, 204)" stroke-width="1px"></line></g></g></g></g></svg>