<svg viewBox="0 0 330 200" xmlns="http://www.w3.org/2000/svg"><g><g><g><g><g><line x1="51.5625" y1="177" x2="46.5625" y2="177" style="visibility: inherit;" fill="rgb(0, 0, 0)" stroke="rgb(204, 204, 204)" stroke-width="1px"></line><line x1="51.5625" y1="162.25" x2="46.5625" y2="162.25" style="visibility: inherit;" fill="rgb(0, 0, 0)" stroke="rgb(204, 204, 204)" stroke-width="1px"></line><line x1="51.5625" y1="147.5" x2="46.5625" y2="147.5" style="visibility: inherit;" fill="rgb(0, 0, 0)" stroke="rgb(204, 204, 204)" stroke-width="1px"></line><line x1="51.5625" y1="132.75" x2="46.5625" y2="132.75" style="visibility: inherit;" fill="rgb(0, 0, 0)" stroke="rgb(204, 204, 204)" stroke-width="1px"></line><line x1="51.5625" y1="118.00000000000001" x2="46.5625" y2="118.00000000000001" style="visibility: inherit;" fill="rgb(0, 0, 0)" stroke="rgb(204, 204, 204)" stroke-width="1px"></line><line x1="51.5625" y1="103.24999999999999" x2="46.5625" y2="103.24999999999999" style="visibility: inherit;" fill="rgb(0, 0, 0)" stroke="rgb(204, 204, 204)" stroke-width="1px"></line><line x1="51.5625" y1="88.50000000000001" x2="46.5625" y2="88.50000000000001" style="visibility: inherit;" fill="rgb(0, 0, 0)" stroke="rgb(204, 204, 204)" stroke-width="1px"></line><line x1="51.5625" y1="73.75000000000001" x2="46.5625" y2="73.75000000000001" style="visibility: inherit;" fill="rgb(0, 0, 0)" stroke="rgb(204, 204, 204)" stroke-width="1px"></line><line x1="51.5625" y1="59.00000000000001" x2="46.5625" y2="59.00000000000001" style="visibility: inherit;" fill="rgb(0, 0, 0)" stroke="rgb(204, 204, 204)" stroke-width="1px"></line><line x1="51.5625" y1="44.25000000000004" x2="46.5625" y2="44.25000000000004" style="visibility: inherit;" fill="rgb(0, 0, 0)" stroke="rgb(204, 204, 204)" stroke-width="1px"></line><line x1="51.5625" y1="29.500000000000014" x2="46.5625" y2="29.500000000000014" style="visibility: inherit;" fill="rgb(0, 0, 0)" stroke="rgb(204, 204, 204)" stroke-width="1px"></line><line x1="51.5625" y1="14.750000000000007" x2="46.5625" y2="14.750000000000007" style="visibility: inherit;" fill="rgb(0, 0, 0)" stroke="rgb(204, 204, 204)" stroke-width="1px"></line><line x1="51.5625" y1="0" x2="46.5625" y2="0" style="visibility: inherit;" fill="rgb(0, 0, 0)" stroke="rgb(204, 204, 204)" stroke-width="1px"></line></g><g transform="translate(41.5625, 0)"><text x="0" y="177" dx="0em" dy="0.3em" style="text-anchor: end; visibility: hidden; font-family: Roboto, sans-serif; font-size: 12px; font-weight: 200;" fill="rgb(33, 33, 33)" stroke="none" stroke-width="1px">0.15</text><text x="0" y="162.25" dx="0em" dy="0.3em" style="text-anchor: end; visibility: inherit; font-family: Roboto, sans-serif; font-size: 12px; font-weight: 200;" fill="rgb(33, 33, 33)" stroke="none" stroke-width="1px">0.16</text><text x="0" y="147.5" dx="0em" dy="0.3em" style="text-anchor: end; visibility: hidden; font-family: Roboto, sans-serif; font-size: 12px; font-weight: 200;" fill="rgb(33, 33, 33)" stroke="none" stroke-width="1px">0.17</text><text x="0" y="132.75" dx="0em" dy="0.3em" style="text-anchor: end; visibility: inherit; font-family: Roboto, sans-serif; font-size: 12px; font-weight: 200;" fill="rgb(33, 33, 33)" stroke="none" stroke-width="1px">0.18</text><text x="0" y="118.00000000000001" dx="0em" dy="0.3em" style="text-anchor: end; visibility: hidden; font-family: Roboto, sans-serif; font-size: 12px; font-weight: 200;" fill="rgb(33, 33, 33)" stroke="none" stroke-width="1px">0.19</text><text x="0" y="103.24999999999999" dx="0em" dy="0.3em" style="text-anchor: end; visibility: inherit; font-family: Roboto, sans-serif; font-size: 12px; font-weight: 200;" fill="rgb(33, 33, 33)" stroke="none" stroke-width="1px">0.2</text><text x="0" y="88.50000000000001" dx="0em" dy="0.3em" style="text-anchor: end; visibility: hidden; font-family: Roboto, sans-serif; font-size: 12px; font-weight: 200;" fill="rgb(33, 33, 33)" stroke="none" stroke-width="1px">0.21</text><text x="0" y="73.75000000000001" dx="0em" dy="0.3em" style="text-anchor: end; visibility: inherit; font-family: Roboto, sans-serif; font-size: 12px; font-weight: 200;" fill="rgb(33, 33, 33)" stroke="none" stroke-width="1px">0.22</text><text x="0" y="59.00000000000001" dx="0em" dy="0.3em" style="text-anchor: end; visibility: hidden; font-family: Roboto, sans-serif; font-size: 12px; font-weight: 200;" fill="rgb(33, 33, 33)" stroke="none" stroke-width="1px">0.23</text><text x="0" y="44.25000000000004" dx="0em" dy="0.3em" style="text-anchor: end; visibility: inherit; font-family: Roboto, sans-serif; font-size: 12px; font-weight: 200;" fill="rgb(33, 33, 33)" stroke="none" stroke-width="1px">0.24</text><text x="0" y="29.500000000000014" dx="0em" dy="0.3em" style="text-anchor: end; visibility: hidden; font-family: Roboto, sans-serif; font-size: 12px; font-weight: 200;" fill="rgb(33, 33, 33)" stroke="none" stroke-width="1px">0.25</text><text x="0" y="14.750000000000007" dx="0em" dy="0.3em" style="text-anchor: end; visibility: inherit; font-family: Roboto, sans-serif; font-size: 12px; font-weight: 200;" fill="rgb(33, 33, 33)" stroke="none" stroke-width="1px">0.26</text><text x="0" y="0" dx="0em" dy="0.3em" style="text-anchor: end; visibility: hidden; font-family: Roboto, sans-serif; font-size: 12px; font-weight: 200;" fill="rgb(33, 33, 33)" stroke="none" stroke-width="1px">0.27</text></g><line x1="51.5625" y1="0" x2="51.5625" y2="177" fill="rgb(0, 0, 0)" stroke="rgb(204, 204, 204)" stroke-width="1px"></line></g></g><g transform="translate(51, 0)" clip-path="url(#clip_0)"><clipPath id="clip_0"><rect width="278" height="177"></rect></clipPath><g><g><g><line x1="0" y1="0" x2="0" y2="177" fill="rgb(0, 0, 0)" stroke="rgb(66, 66, 66)" stroke-width="1px" opacity="0.25"></line><line x1="30.9375" y1="0" x2="30.9375" y2="177" fill="rgb(0, 0, 0)" stroke="rgb(66, 66, 66)" stroke-width="1px" opacity="0.25"></line><line x1="61.875" y1="0" x2="61.875" y2="177" fill="rgb(0, 0, 0)" stroke="rgb(66, 66, 66)" stroke-width="1px" opacity="0.25"></line><line x1="92.8125" y1="0" x2="92.8125" y2="177" fill="rgb(0, 0, 0)" stroke="rgb(66, 66, 66)" stroke-width="1px" opacity="0.25"></line><line x1="123.75" y1="0" x2="123.75" y2="177" fill="rgb(0, 0, 0)" stroke="rgb(66, 66, 66)" stroke-width="1px" opacity="0.25"></line><line x1="154.6875" y1="0" x2="154.6875" y2="177" fill="rgb(0, 0, 0)" stroke="rgb(66, 66, 66)" stroke-width="1px" opacity="0.25"></line><line x1="185.625" y1="0" x2="185.625" y2="177" fill="rgb(0, 0, 0)" stroke="rgb(66, 66, 66)" stroke-width="1px" opacity="0.25"></line><line x1="216.5625" y1="0" x2="216.5625" y2="177" fill="rgb(0, 0, 0)" stroke="rgb(66, 66, 66)" stroke-width="1px" opacity="0.25"></line><line x1="247.5" y1="0" x2="247.5" y2="177" fill="rgb(0, 0, 0)" stroke="rgb(66, 66, 66)" stroke-width="1px" opacity="0.25"></line><line x1="278.4375" y1="0" x2="278.4375" y2="177" fill="rgb(0, 0, 0)" stroke="rgb(66, 66, 66)" stroke-width="1px" opacity="0.25"></line></g><g><line x1="0" y1="177" x2="278.4375" y2="177" fill="rgb(0, 0, 0)" stroke="rgb(66, 66, 66)" stroke-width="1px" opacity="0.25"></line><line x1="0" y1="162.25" x2="278.4375" y2="162.25" fill="rgb(0, 0, 0)" stroke="rgb(66, 66, 66)" stroke-width="1px" opacity="0.25"></line><line x1="0" y1="147.5" x2="278.4375" y2="147.5" fill="rgb(0, 0, 0)" stroke="rgb(66, 66, 66)" stroke-width="1px" opacity="0.25"></line><line x1="0" y1="132.75" x2="278.4375" y2="132.75" fill="rgb(0, 0, 0)" stroke="rgb(66, 66, 66)" stroke-width="1px" opacity="0.25"></line><line x1="0" y1="118.00000000000001" x2="278.4375" y2="118.00000000000001" fill="rgb(0, 0, 0)" stroke="rgb(66, 66, 66)" stroke-width="1px" opacity="0.25"></line><line x1="0" y1="103.24999999999999" x2="278.4375" y2="103.24999999999999" fill="rgb(0, 0, 0)" stroke="rgb(66, 66, 66)" stroke-width="1px" opacity="0.25"></line><line x1="0" y1="88.50000000000001" x2="278.4375" y2="88.50000000000001" fill="rgb(0, 0, 0)" stroke="rgb(66, 66, 66)" stroke-width="1px" opacity="0.25"></line><line x1="0" y1="73.75000000000001" x2="278.4375" y2="73.75000000000001" fill="rgb(0, 0, 0)" stroke="rgb(66, 66, 66)" stroke-width="1px" opacity="0.25"></line><line x1="0" y1="59.00000000000001" x2="278.4375" y2="59.00000000000001" fill="rgb(0, 0, 0)" stroke="rgb(66, 66, 66)" stroke-width="1px" opacity="0.25"></line><line x1="0" y1="44.25000000000004" x2="278.4375" y2="44.25000000000004" fill="rgb(0, 0, 0)" stroke="rgb(66, 66, 66)" stroke-width="1px" opacity="0.25"></line><line x1="0" y1="29.500000000000014" x2="278.4375" y2="29.500000000000014" fill="rgb(0, 0, 0)" stroke="rgb(66, 66, 66)" stroke-width="1px" opacity="0.25"></line><line x1="0" y1="14.750000000000007" x2="278.4375" y2="14.750000000000007" fill="rgb(0, 0, 0)" stroke="rgb(66, 66, 66)" stroke-width="1px" opacity="0.25"></line><line x1="0" y1="0" x2="278.4375" y2="0" fill="rgb(0, 0, 0)" stroke="rgb(66, 66, 66)" stroke-width="1px" opacity="0.25"></line></g></g></g><g><g><line x1="0" y1="398.25" x2="278.4375" y2="398.25" fill="rgb(0, 0, 0)" stroke="rgb(153, 153, 153)" stroke-width="1.5px"></line></g></g><g><g><line x1="30.9375" y1="0" x2="30.9375" y2="177" fill="rgb(0, 0, 0)" stroke="rgb(153, 153, 153)" stroke-width="1.5px"></line></g></g><g><g><g><g><g><path stroke="rgb(255, 112, 67)" stroke-width="2px" d="M36.954843749999995,-46.641666516256876L38.06859375,25.17565792109891L38.25421875,0.9115220715650685L38.34703125,-8.628171853746561L38.53265625,23.370785259121213L38.594531249999996,47.2921143444456L38.919375,60.89783487023638L39.05859375,35.94785620069028L39.074062500000004,83.03520458658622L39.414375,98.76965010972937L39.55359375,117.188500409927L39.83203125,76.26817656605883L40.3115625,85.35599428704485L40.8065625,10.432373938655308L40.85296875,50.07908447735777L41.270625,72.93058527873848L41.45625,117.22899787025305L41.4871875,81.44573925440088L41.68828125,86.70104740118472L41.8584375,82.73699394428891L42.5390625,35.78415571895454L42.77109375,102.57567240563684L42.9103125,60.48177904786697L43.219687500000006,127.08582201691219L43.37437499999999,141.33453820421667L43.38984375,150.03683994582988L43.51359375,97.49093305068581L43.714687500000004,125.93385555750879L44.070468749999996,53.44689796200702L44.25609375,73.24192358752964L44.37984375,136.95696500961537L44.42625,152.38005099311786L44.65828125,158.6434196866486L44.7046875,151.4591425798486L45.044999999999995,117.843006190187L45.09140625,130.42738900573687L45.354375,110.85449206227983L45.431718749999995,115.6480014943775L45.462656249999995,69.4388192548566L45.49359375,80.27604090894545L46.08140625,44.72515050009048L46.2825,102.93637619277939L46.66921875,115.21948482907479L46.901250000000005,92.90680121968185L46.947656249999994,95.37255984300377L47.489062499999996,99.63686039897203L47.84484375,109.90711128027674L47.89125,102.5174067217793L48.695625,84.81608716241635L48.86578125,136.97569892163347L49.639218750000005,149.04210769149825L50.7065625,117.71996924885009L50.8303125,136.9338618076318L50.9540625,155.95704735258067L50.96953125,108.82288118564396L51.124218750000004,105.89986078955714L51.49546875,67.61768711220017L51.52640625,107.89653042322868L51.959531250000005,117.86514188269658L52.531875,80.49052687537603L52.841249999999995,116.85760241777857L52.85671875,106.11097565311886L52.9340625,94.90313732039154L53.66109375,87.89744327313434L53.90859375,93.00578408149916L54.156093750000004,93.16605976645968L54.187031250000004,154.93482799485216L54.2953125,118.74018603059582L54.774843749999995,111.77874971325954L54.92953125,84.0011983030782L54.960468750000004,57.616769535168736L55.36265625,105.81715055872482L56.04328125,81.51182300787856L56.1825,94.51663541759069L56.19796875,122.91967189887173L56.22890625,110.04894572245482L56.32171875,94.65020841805578L56.414531249999996,49.806531575014816L56.55375,106.36214833658374L57.1415625,106.19689738274475L57.18796875,155.55509003115216L57.234375,135.99618545241668L57.37359375,141.33675684969134L57.54375,101.30741672778434L57.74484375,146.85779707172097L57.976875,111.20503937923061L58.03874999999999,34.988708995122614L58.05421875,56.83936332603628L58.08515625,106.61875795090396L58.23984375,107.49171616890544L58.36359375,141.32052186285563L58.6884375,23.273351855010446L58.905,83.19843706305663L59.10609375,118.17820018420123L59.38453125,102.13060101204813L59.400000000000006,67.80814980467379L59.52375,31.551272231341745L59.786718750000006,64.06674083352169L59.8021875,90.18057322073035L59.833124999999995,104.73969607691797L60.03421875,75.96069778287905L60.1425,80.71748103668983L60.250781249999996,137.92045153063953L60.56015625,150.06894901324762L60.668437499999996,53.042013483819105L60.8540625,2.7519079551558643L60.931406249999995,41.988128203479135L61.51921875,54.48471689720611L61.689375,98.43991561233794L61.875,6.267535397409206L62.029687499999994,63.38932787716314L62.07609375,91.2188718518014L62.4628125,34.00592139961693L62.84953125,81.10102396966441L63.06609375,108.3898484394635L63.1125,125.46604713712249L63.375468749999996,130.80476643987961L63.499218750000004,127.3579849919585L63.59203125,120.85324498539615L63.932343749999994,90.53594133571058L64.040625,100.26819720456166L64.3190625,114.45646019333103L64.4428125,109.8423683318704L64.67484375,53.5901804252392L64.76765625,128.06659494542637L64.95328125,155.59471409144138L65.154375,139.1596113063224L65.26265625,152.54903127058316L65.69578125000001,109.81801645340902L65.773125,153.68989435960282L65.95875000000001,109.56531429963964L66.46921875,46.00541861461199L68.43375,109.65863546494602L68.51109375,104.00032173850512L68.7121875,105.26144510065542L68.94421875,93.95332481595888L69.00609374999999,122.92913293321739L69.1453125,152.4758129327286L69.2071875,84.1688476686948L69.57843749999999,41.12518110783542L69.71765625,52.760114025543004L69.81046875,74.16887082545153L70.46015625,93.30352059536092L70.64578125,97.98352881987638L70.723125,98.19157751035543L70.92421875000001,142.01356974024682L71.0634375,90.67294147479001L71.54296875,134.69724273602642L71.589375,83.0930999155073L71.6821875,118.47945720167331L71.836875,140.506716866561L72.0225,140.22994603471057L72.3009375,127.88222136352117L72.96609375,146.82976612599882L73.21359375,90.10437963695642L73.3528125,122.99276471907685L73.4146875,80.88078361019369L73.58484375,104.70930099049139L73.755,37.65636889671642L73.9715625,62.92017562112428L74.15718749999999,87.11899340701831L74.25,53.31283514829117L74.72953125000001,82.51403655488272L75.1471875,92.52977057623256L75.7659375,95.51394818620321L75.87421875000001,114.39502463577057L75.8896875,58.95082213781995L76.24546875,100.87303353132437L76.52390625,64.52872527111553L76.5703125,107.06462404411425L76.725,114.7928476588809L77.4365625,147.9549404416611L77.79234375,119.70714376772226L77.900625,119.93386661651599L78.2409375,130.65311985399043L78.519375,98.93971288314891L78.72046875,117.4622481591191L78.7359375,132.2319674090556L79.5403125,152.52174117541384L79.92703125,95.57409355864569L80.08171875,84.37160198584581L80.1590625,94.92932011303533L80.17453125,113.76051373849647L80.48390625,114.66638553482497L80.82421875,101.44074065293195L81.30375,42.610578780206L81.5203125,83.19894026209829L81.69046875,85.66199757748794L81.7678125,49.04047552403183L81.79875000000001,18.280800531246534L82.03078125,64.58791522976057L82.30921875,90.96446822164239L82.40203125000001,111.53091179178823L82.479375,111.80173724798364L82.603125,75.71352128927708L83.09812500000001,119.47767432179928L83.5621875,140.04799862889573L83.77875,90.67203627936915L84.10359375,107.79699170537515L84.19640625,98.26296208469705L84.335625,77.80673936705973L84.6759375,56.62286146701092L84.9853125,69.11652000081966L85.49578125000001,105.01395493347901L85.52671875,151.49874764740144L85.6659375,138.3661655548792L85.75874999999999,139.0915132620085L86.0371875,130.87308382142476L86.05265625,125.02360277264651L86.25375,98.71165898972355L86.563125,97.18278608044147L86.64046875,106.31833225083446L86.73328125,99.17850144262373L86.79515625,95.55564976069483L86.85703125,38.23388722141478L87.2128125,84.14332535624442L87.38296875,120.18357592678035L87.53765625,145.75114870581606L87.73875,114.51848782607068L87.8315625,118.30841079657166L87.87796875000001,79.9725688296848L88.11,41.33062068213781L88.23375,68.67342005127524L88.24921875,119.01922418447646L88.41937499999999,51.32365305288025L88.4503125,84.75290666260359L89.14640625,11.701396812427303L89.20828125,-22.684320456130298L89.595,-4.595217863525738L89.780625,45.910739225264926L89.904375,39.333695591757625L90.08999999999999,47.07654225901957L91.15734375,74.2035561566126L91.20375,118.75096649316379L91.21921875000001,84.96079327695028L91.34296875,100.50346058626451L91.35843750000001,113.98380914342093L91.575,102.77897302515319L91.884375,124.97925592784289L92.0390625,94.0996332247508L92.24015625,100.98780361291483L92.379375,92.16970968530607L92.8434375,111.75060961416979L93.0909375,75.01648772818818L93.1528125,100.41190324463236L93.36937499999999,86.24621451638808L93.43125,95.44597556437652L93.50859374999999,79.75095974353317L93.63234375,96.2036682960234L93.87984375,62.091591810991865L93.9571875,71.43018051136166L94.15828125,129.10064692585846L94.2975,154.08051534467447L94.39031250000001,167.60869137628976L94.6996875,140.78227967133583L94.74609375,57.745522428217356L94.96265625,59.14515304485731L95.0090625,61.56266964030131L95.05546875,97.82028734416879L95.27203125,157.52822408217858L95.349375,117.0737721749465L95.82890625,102.25380656291964L96.29296875,130.79030773144913L96.5559375,149.20271351398202L96.69515625000001,110.1150451747249L97.12828125,107.89623632715168L97.205625,113.5069798689248L97.3603125,146.6749878264166L98.08734375,168.54197384933812L98.39671874999999,117.17065387976277L98.62875,65.8952373386151L98.84531249999999,20.990513677640365L99.13921875,39.58640160873156L99.185625,84.05153230258597L99.27843750000001,98.98835696833595L99.8353125,118.05562341843407L100.11375000000001,85.09114237209775L100.19109375000001,159.48681303608785L100.45406249999999,136.51254359929783L100.5778125,134.3220166686119L100.59328124999999,93.49806106823333L101.04187499999999,61.51709309063942L101.36671875,35.19740068222637L101.42859374999999,63.75717491689656L102.2175,57.49391680230696L102.48046875,123.48475614649055L103.021875,113.30339817680124L103.269375,70.27901855991604L103.516875,132.37719765833808L103.56328125,177.26780649740573L103.57875,128.30800288748188L103.62515624999999,93.35273272890711L103.7025,96.51963013469495L103.74890625,40.81852040326189L103.888125,-5.39596384980919L104.1665625,18.09916694033958L104.6615625,58.01649264734277L105.26484375,87.8634185209351L106.42500000000001,118.944806421666L106.57968749999999,110.4324753253869L106.59515625,112.08817714269232L106.62609375,141.75634736904667L106.8271875,189.970765370662L106.8890625,163.81793528111874L107.24484375,77.9708319742209L107.39953125000001,57.59468302957569L107.43046874999999,9.941403948261472L107.6625,49.24132571398862L107.89453125,112.67215868103293L108.08015625,128.02321283976906L108.1575,166.99522477066918L108.31218750000001,142.27002772495987L108.35859375,143.04356173161173L108.6525,158.80133708407584L108.69890625000001,136.53062634521785L108.838125,163.6924437633399L108.8690625,166.0086624772098L108.97734375,68.25898300115743L109.20937500000001,87.37074210348419L109.25578125,123.10801796378308L109.704375,148.27056744850643L109.90546875,126.40496928785426L110.1065625,143.57268424209468L110.36953125000001,173.04989941046543L111.22031249999999,62.48154810146034L111.73078125,63.70985081240856L112.2721875,90.84037666586234L112.31859375,50.63464738766668L112.3340625,113.77223632240484L112.81359375,88.50972467365376L113.92734375,89.1574519974143L114.14390625,79.74188249720041L114.159375,132.6836096311385L114.23671875000001,140.68349023847423L114.51515625,154.28176780455496L114.530625,167.55580707140675L114.5925,119.76256365625805L115.1184375,73.40951045184582L115.1803125,103.27392856972966L115.5825,133.46568392930956L115.70625,161.47176092993337L116.00015625,148.4380807228751L116.49515625,77.94009444402859L116.82000000000001,139.24019894175055L116.99015625000001,34.824480111434L117.06750000000001,62.50798679890273L117.12937500000001,83.65569049419192L117.253125,72.63457102955121L117.51609375000001,56.31920225251162L117.748125,43.27475407617355L118.0265625,121.01808818815388L118.13484374999999,155.71326536320586L118.97015624999999,162.07494235267006L119.26406250000001,153.32852503198245L119.72812499999999,141.823834559547L119.96015625,146.25920817925163L120.17671875,159.98254375859275L120.78,152.6659795356046L120.88828124999999,111.64059683753554L121.50703125,97.76962404294909L121.52250000000001,100.96034984495698L121.7390625,47.38595049802342L121.84734375000001,1.6741934372417593L121.86281249999999,69.81475199779467L122.34234375,82.45203589511273L122.46609375,113.53288372225975L122.94562499999999,71.8550471536363L122.99203125000001,125.14850821328429L123.1003125,129.67295252819224L123.11578125,150.9494862946234L123.23953125,170.71670894577272L123.53343749999999,130.96061091276508L123.64171875,102.98722120316326L123.67265625,115.3138106774777L123.7809375,107.70772081682027L124.430625,127.70021048229304L125.14218749999999,146.70274764324049L125.20406249999999,130.97370116725455L125.28140624999999,119.67123157867722L125.420625,112.59490308218557L125.49796875000001,89.06843063267087L125.52890624999999,98.62372851390845L125.9465625,15.059278094882954L126.05484375,69.61360294468119L126.42609374999999,112.68182594684906L126.4415625,68.81840310757251L126.58078125,85.25152710238031L126.6271875,62.49738839363414L126.67359375,51.76794704851719L126.72000000000001,77.88448551331285L126.81281249999999,45.242516440357726L126.89015624999999,75.34902058375238L127.35421875,127.62504473526691L127.3696875,129.23288877725253L127.4315625,135.58102532577303L127.66359375,132.3523919126498L127.77187500000001,84.0797081077759L127.9265625,83.73077337650442L128.2359375,10.922762827324801L128.71546875,7.787476453928927L129.009375,45.589122685044266L129.02484375,97.7270909501608L129.31875,92.76568410715434L129.39609375,97.55887854648218L129.4115625,96.54518667788854L129.50437499999998,74.05979509312841L129.56625,132.15838157033284L129.95296875,131.2451426440201L130.3396875,68.29548883758318L130.47890625,122.25202871157126L130.72640625,132.02921191330788L130.77281250000001,76.89313994333766L130.989375,77.3137074380256L131.43796875,113.50610497409922L131.93296875,105.11617619284884L132.0721875,145.90846432142794L132.11859375,131.85946432288495L132.165,138.02780464611058L132.350625,87.05794360233311L132.89203125,97.32094755168535L132.98484375,52.85402916905749L133.093125,105.08720842622199L133.44890625,122.27886814250036L133.69640625,144.72244194968633L135.196875,91.84392809763013L135.24328125,113.89140789445912L135.42890624999998,112.34104673705507L135.52171875,104.44547685171368L135.568125,98.93422046414139L135.78468750000002,152.54908238119555L135.80015625,80.63587708632157L136.2796875,113.71980265593533L136.805625,80.0235822428227L136.85203125,95.92252319627762L136.8675,74.49238573654748L137.300625,129.15010176983031L137.3315625,120.60665882162186L137.43984375,73.64973774273358L137.48624999999998,105.50501757096748L137.50171875,133.97892118234338L137.78015625,132.0118487700158L137.8575,122.56002751733858L138.18234375,99.55099323836566L138.58453125,119.10176224975346L138.72375,81.78816876094677L138.73921875,22.309739466197136L138.83203125,110.58460225503853L139.0021875,131.61924936080698L139.01765625,161.65476572933628L139.15687499999999,194.12775521232385L139.651875,91.24419404717507L139.89937500000002,73.97602663428917L139.94578125,31.850073361345135L139.9921875,11.55873626705883L140.37890625,-6.480928789157325L140.518125,41.31441286171757L140.65734375,63.503749871047056L140.68828125000002,88.77763961779576L140.96671875,92.52633081690963L141.19875,109.66335871706306L141.24515625,73.54949698978606L141.46171875000002,137.05582968374455L141.77109375,166.9742935298703L142.08046875000002,169.41981090300212L142.14234374999998,149.5242496501978L142.18875,117.61975639889094L142.29703125,103.36482415693675L142.56,71.85639696179435L142.69921875,98.11601173793441L142.82296875,62.03367543169958L142.85390625000002,79.38919123976888L142.993125,145.39409716409122L143.13234375000002,99.3335293381314L143.22515625,57.81218143993023L143.54999999999998,126.94696908112411L143.8903125,96.79639600465319L144.0759375,131.57942221015466L144.106875,130.75789131790265L144.19968749999998,59.68711826842944L144.32343749999998,73.42254842306325L144.36984375,121.84864737382617L144.55546875,109.62083054060392L144.601875,79.2055186657587L144.77203125,86.92972992828365L145.25156249999998,151.14446482343L145.35984375,89.11500060130669L145.51453125,132.6301707122893L145.57640625000002,142.9751220103604L145.65375,150.8984231386484L146.10234375,163.92772687875637L146.458125,178.96384526135566L146.86031250000002,193.09060605968264L147.91218750000002,142.00234097603095L148.005,97.29491499282798L148.1596875,93.26864400635888L148.5,97.49143008667664L148.53093750000002,91.51718585061094L150.1396875,98.69617629866039L151.09875,134.74308354747436L151.16062499999998,74.63569635803783L151.284375,92.00842727813293L151.4390625,134.3263476347516L151.59375,195.82408461306036L151.76390625,161.35064024527992L151.84125,168.18240283012466L153.24890625,145.2019888823037L153.37265624999998,136.38484060554535L153.46546875,177.43580076270592L153.5428125,177.91596514685926L153.55828125,157.7044388693808L153.57375000000002,45.91107725156773L153.74390625,39.79500470789335L153.75937499999998,-19.11866917471847L153.82125,10.914110444421947L153.92953125,71.08876537229737L154.02234375,73.00980743137669L154.47093750000002,63.149836029813684L154.70296875,106.48726448190571L154.79578125,104.4051142798207L154.8421875,138.02471107639917L154.9659375,177.36903315423754L155.04328124999998,158.19603397630948L155.15156249999998,144.90382988562166L155.16703125,141.85935918873537L155.491875,136.07435242763745L155.50734375,118.45667424459215L156.0178125,115.63315958177422L156.12609375,82.0672405266486L156.62109375,14.89792354725137L156.7603125,60.17681167019806L156.80671875000002,124.22240186329728L157.06968750000001,99.4812567329171L157.2553125,135.6471047160484L157.51828125,93.41979185685263L157.71937499999999,90.31023471322507L157.78125,90.29863164881975L157.81218750000002,112.96832695043152L158.58562500000002,100.63820733091873L158.75578125,47.95275891698391L159.15796874999998,131.27586619780652L159.40546875,85.68442889884824L159.7303125,91.68918485543557L159.99328125,100.07766913236038L160.00875,78.5157364240936L160.0396875,97.7977201599867L160.1325,116.78858721607868L160.1634375,107.86444179626669L160.39546875,135.12394127495506L160.87499999999997,179.57413008956559L160.95234374999998,173.34443896501332L161.01421875,136.4257321208064L161.1534375,116.61132912333875L161.4628125,38.92011570034069L161.74125,104.2185629314044L162.298125,68.4058057490503L162.3290625,28.23253250262234L162.669375,74.26822789991556L163.30359375,107.64711750438607L163.4428125,144.043935930078L163.45828125,83.61677883585978L163.9996875,62.48207745862414L164.16984374999998,68.2161795849348L164.66484375,48.34921548096806L164.69578125,107.2208811481504L164.95875,89.82112964628388L165.06703124999999,147.36730932377725L165.12890625,139.7552571724829L165.74765625,141.16168578451732L165.93328125000002,181.12441836587107L166.0725,160.92779652352044L166.22718749999999,130.5797632281477L166.258125,115.75968948271839L166.42828125000003,98.76506120125633L166.5675,124.94660677409283L167.26359375,97.72599071202345L167.4028125,127.99442272149128L167.44921875,73.0309927389777L167.57296875,114.70513747487999L168.0215625,154.73020512971007L168.114375,140.32499716945125L168.3,7.939678217575773L168.53203125000002,93.60554131305565L168.68671875,113.62944722435685L169.0734375,28.044885505806324L169.36734375,95.6173299190825L169.95515625,105.81858126744186L170.23359374999998,83.28138385072086L170.29546875,87.60401461633877L170.40375,130.1820714301636L170.97609375000002,92.08328591744721L171.13078125,96.80654633021723L171.22359375,90.79148689494353L171.28546874999998,116.5527721201529L171.34734375,151.410242691943L171.39374999999998,169.45039788204963L171.48656250000002,108.01169244836888L171.99703125,85.37624660963489L172.074375,45.1630835046451L172.26000000000002,96.37172434390071L172.4765625,50.456756661298776L173.07984375,69.08071275947266L173.12625,80.10307818292245L173.69859375000001,93.92442201160593L174.054375,120.08607332458023L174.24,72.94807304471689L174.25546875,123.85202457028603L174.36375,152.72253347944005L174.75046875,174.25919462150804L174.96703125,122.986311178842L175.70953125,149.94693046297957L176.26640625000002,129.86422111681895L176.34375,140.95076765472766L176.56031249999998,110.0438871017401L176.57578125,137.08653624840406L176.73046875,160.22721686355965L176.79234375,185.48228082890927L176.900625,186.5514089216925L177.19453125,116.4550577610813L177.27187500000002,55.393914211397295L177.56578125,87.21349952137763L178.06078125,83.84595039794621L178.23093749999998,59.393682547269954L178.24640625,58.887537627135934L178.261875,52.019160949418094L178.61765624999998,80.95287522270033L178.64859375,100.29040651675314L178.86515625,110.64445325825363L178.98890625,34.03097860272978L179.28281249999998,66.29307499680668L179.39109374999998,23.506086880885054L179.54578125,35.24908151919988L179.57671875,83.11618441161718L179.73140625,51.60191244970087L179.80875,87.86354705745173L179.82421875,87.7481692019355L179.88609375000001,111.73483918805431L179.9634375,84.18319734155844L180.4584375,153.94740179312055L180.5821875,129.12268095095055L180.6440625,144.37293658184467L180.736875,132.59464181975991L180.87609375,132.89614329049869L180.984375,135.02972139304805L180.99984375000003,105.79879105917172L181.04625000000001,107.31652682323191L181.46390625,57.68635537206493L181.5103125,73.44565587627507L181.52578125,118.10455879800092L181.7578125,160.1174590690885L182.20640625000001,168.9526770415279L182.34562499999998,178.72804583325225L182.3765625,157.76365530022522L182.5621875,115.56312602477396L182.76328125,111.95339128206449L182.91796875,183.2978627254383L182.97984375000001,160.74106588779787L182.9953125,155.65615762960255L183.27375,119.4218852084359L183.39749999999998,131.3759472526002L183.52124999999998,83.36833121519616L183.59859375000002,94.72832003320057L183.7378125,123.79901353767394L183.83062500000003,102.36679603010941L183.9234375,80.12259663552362L184.10906250000002,49.32932078486874L184.7278125,61.6740932026279L184.89796875,108.63738544337583L184.92890625,107.69259617061991L185.00625,145.3937123616432L185.2228125,152.5014625012812L185.30015625,65.52923112034422L185.34656249999998,48.9222197349049L185.82609375,98.70521470398769L186.0890625,126.970379695243L186.38296875,100.90946884450102L186.44484375000002,89.8454425900983L186.56859375,106.63394000946323L186.59953125,-2.84175929535123L186.69234375,56.46069157654829L186.73874999999998,104.53364325484507L186.84703125,76.69693685126825L186.93984375000002,55.05493548245746L186.98625,103.73608219463539L187.2028125,49.434707378381L187.21828125000002,76.57644119562717L187.3575,129.977241782558L187.37296875,155.73637962830784L187.46578125,41.02936427886918L187.96078125,-5.459463422920445L188.08453125,-8.036821452037136L188.28562499999998,5.759871907677832L188.48671875,102.03060241797364L188.68781249999998,102.98258704101326L188.76515625000002,121.79181206318906L188.82703125,135.67074472363694L188.9353125,114.19027401599826L189.2446875,131.93146641012154L189.29109375,160.80171431872918L189.6159375,154.688008748136L189.70875,158.19759845891122L189.78609375,138.09543262814597L189.90984375,114.92510929045154L190.018125,103.23636267982168L190.1109375,132.06300808431055L190.575,142.35843143726194L190.6059375,154.37941303768636L190.66781250000003,156.35856681417752L190.83796875000002,107.90353659600812L191.0390625,125.16338471657511L191.54953125,57.63499487690019L191.6578125,90.96383429915835L191.8125,119.33526197285133L192.0909375,149.58154268390345L192.10640625000002,134.81070128277787L192.121875,156.3115205776444L192.1528125,145.01266152928775L192.2765625,176.63591017884315L192.4621875,131.44584684707107L192.61687500000002,106.6223241516196L192.92625,154.53105040956996L193.0190625,148.61366976242937L193.46765625,124.84747360313936L193.730625,129.98519362905625L193.7925,114.54337587892412L193.80796875,81.99464135729912L193.90078125,-10.806067935445085L194.04,34.904388623345994L194.27203125,55.02388427669352L194.56593750000002,63.95925350793924L194.67421875000002,61.950950508169676L195.01453124999998,78.18113748124382L195.10734375,31.122713219470647L195.463125,21.790098137466195L195.50953125,87.37620554376129L195.63328124999998,142.28306438033871L195.69515625,89.33395036163978L195.8034375,41.18117675842678L196.081875,25.091261110674356L196.14374999999998,59.45210952876273L196.56140625,56.6952907283203L196.59234375,43.57919824356415L197.01000000000002,52.82238197466479L197.319375,100.69224676573724L197.33484375,153.84447383334907L197.42765625,133.77377730876609L197.45859374999998,95.90358647865297L198.04640625,126.21129886008646L198.2784375,108.23830141840783L198.433125,90.52653200756555L198.47953125,113.57692569691562L198.51046875,142.79444830536022L198.74249999999998,133.90450629543764L198.78890625000003,144.6283077654332L198.928125,174.34238176090062L199.1446875,83.6123908671292L199.51593749999998,87.33011850193454L199.73250000000002,96.76651690289567L200.165625,49.97361077001806L200.18109375,20.095079309529783L200.79984374999998,56.24627488660022L200.86171875,18.23952499513152L200.92359374999998,85.91427589347555L201.2175,107.27927087480187L201.31031249999998,125.83165101250626L201.44953125,84.50355124497779L201.5578125,124.29484117045621L201.7434375,83.85376141080036L201.91359375,120.33058460717663L202.28484375000002,124.32515975335399L202.455,133.60939007698985L202.4859375,152.33025830804996L202.62515625,64.15203076493556L202.7025,83.68764758045562L202.9190625,33.065279590696655L203.506875,96.42050602889691L203.83171875,143.46627191815753L203.84718750000002,154.19134145446998L204.0328125,183.66204877774945L204.06375,67.08000342894212L204.11015625000002,94.56553193240536L204.26484375,39.58460760300859L204.63609375,73.51581043115559L205.06921875,51.61779000825468L205.486875,52.861770167748844L205.51781250000002,95.93064460444492L205.6415625,80.23678711824442L205.96640624999998,56.20984369380966L206.09015624999998,118.61788375296412L206.24484374999997,108.67541957568064L206.2603125,113.8814298312124L206.6625,119.01974733473402L206.70890624999998,104.57579266310655L206.73984375,89.6397351281698L207.1575,69.26506908874843L207.35859374999998,134.6634419419833L207.48234374999998,131.3402608310263L207.590625,96.68475845903642L207.9,53.49760203033975L207.94640625,117.516070523681L208.14749999999998,131.23286428977354L208.24031250000002,140.8490464146692L208.4259375,133.16120900844086L208.828125,93.85242021760078L209.446875,101.70952734160862L210.1584375,89.26668625955844L210.31312499999999,127.99233689835708L210.3440625,146.88675363618756L212.27765625,150.13492150758879L212.293125,136.43054340276228L212.3859375,96.45138285752002L212.40140625,83.90271285293016L212.55609375,82.39853177736711L212.80359374999998,98.01051784915038L212.89640625,100.37956331588212L213.32953125,88.17041476021636L213.39140625,80.79490973025817L213.79359375,132.1015316335574L213.8709375,165.36494899619908L214.59796875,126.37198580401716L214.7371875,115.81050322113978L215.03109375,103.74259548579779L215.1703125,135.41889554378466L215.2940625,106.1538581795518L215.5415625,128.12207615655808L215.75812499999998,123.89444180895177L216.005625,99.967058340128L216.05203125,113.37649298871503L216.19125000000003,98.30870813825693L216.34593750000002,117.63510376035553L216.45421875,124.63301290762058L216.62437500000001,103.60120464975613L217.04203124999998,62.41409282454837L217.47515625,75.46204291921252L217.72265625,44.75170523608561L217.8928125,86.3367714803507L217.90828125000002,122.02022565132918L217.985625,105.0304507060441L218.09390625,153.55990789196449L218.4496875,83.83333474315141L218.46515625,124.12018732975086L218.604375,88.14075869172906L218.61984375,94.75729328304587L218.92921875,110.7130414242152L219.17671875,81.08652918306615L219.718125,92.05755950073973L219.76453125,105.67468627727376L219.91921875000003,72.21229799053876L220.0584375,90.67945876992827L220.22859375,58.47290895746406L220.56890625,37.28428024271879L220.8009375,19.33162794244142L220.86281250000002,60.22239594895753L220.92468749999998,44.396472318405614L221.0175,74.39537434186623L221.12578125000002,103.83275062683872L221.574375,106.71155347730905L221.945625,152.22914610687607L222.2859375,175.1085868917925L222.82734374999998,168.91358958143132L223.30687500000002,119.34601041351641L223.38421875,126.94355613395504L223.49249999999998,135.53381847980575L223.69359375000002,66.49196491028641L223.7709375,52.294138868962364L224.06484375,92.74781073946636L224.46703125000002,139.602854930275L224.4825,123.36792273099023L225.13218750000001,152.45151079162835L225.163125,100.89171823540258L225.25593750000002,81.44832467841466L225.4415625,139.51954367045974L225.51890625000001,125.5208773033882L226.33875,110.15047782165196L226.72546875,123.68380064667694L227.0503125,65.91076506913562L227.37515624999997,99.53153992736854L227.46796875,135.71786584284615L227.71546874999999,128.9821421493692L227.96296875000002,89.75371147332207L228.009375,130.41843466840754L228.08671875000002,111.08944896389588L228.24140625,151.97077763992277L228.256875,135.67604443977908L228.45796875,132.87554731697224L228.5971875,117.25939073401919L228.64359375,29.483453310955916L228.751875,97.15235755290354L228.89109374999998,73.87753613856891L229.04578124999998,107.37874016801989L229.10765625,118.68300359630868L229.30875,92.31093903889827L229.6490625,94.7746602804099L229.81921874999998,129.8527969068667L229.86562500000002,64.57268100657348L230.236875,79.4041524212258L230.74734375,109.96505282406193L230.93296875,101.46442040851225L231.04125,96.84538571864674L231.08765625,119.6184961010832L231.1959375,114.95642002283446L231.39703125,155.67068337714022L231.5053125,184.9347561139783L231.64453125,162.77200599544764L231.72187499999998,118.81400470753624L231.76828125,112.3278594781167L231.86109375,83.7806387584929L232.15499999999997,89.79638219723252L232.17046875,35.22126936226577L232.23234375,71.90565989201959L232.47984375000001,79.40377169123707L232.8975,91.77984795732154L232.959375,90.62709489323407L233.20687500000003,83.17212278758115L233.25328125000001,110.50597922870293L233.36156250000002,119.56290623467432L233.40796875,98.90887981010238L233.6090625,105.61450084062076L233.68640625,49.298006582329656L233.77921874999998,103.738138477844L234.18140625,82.12337361624363L234.33609375,64.90033256918503L234.568125,64.19946060127211L234.8775,114.88119613257759L234.89296875,114.26739626602958L235.41890625000002,98.51684121177573L235.5271875,112.3290607982038L235.681875,80.79412957746734L236.548125,83.18869050573674L236.5790625,89.58639913339235L236.60999999999999,92.817114451759L237.166875,44.68168350412426L238.0640625,43.14059627267109L238.3425,75.80401420719855L238.41984375,85.03789906577727L238.52812500000002,90.26290740297117L238.71374999999998,59.54832466677353L238.8684375,58.74756303569985L239.1159375,74.25623604739496L239.75015625,128.06204859664908L239.9203125,128.0759197011642L239.95125,103.88727428525998L240.631875,81.03973659879159L240.755625,44.72776520851964L241.82296875,55.285385290406424L242.16328124999998,100.13257573224445L242.3334375,127.03723265634382L242.859375,60.08737559262752L243.0140625,82.89653055753611L243.02953125,63.29658064774452L243.16875,81.29929570276602L243.2615625,107.73197818350236L243.2925,154.48160847456123L243.57093749999999,126.87016006368913L243.66375,108.72729354535649L244.01953125,111.70139265915816L244.035,139.36453769124188L244.08140625000001,121.65979264686487L244.15875000000003,28.718692401111014L244.29796875,112.07509918156855L244.34437499999999,102.42821646418325L244.49906249999998,112.50897294691893L245.16421874999997,124.83766159064587L245.38078125,151.9765245535792L245.50453124999999,107.57767998688348L246.076875,114.05044410534455L246.200625,166.93909161929938L246.3553125,178.9194077649394L246.571875,155.5010777234244L246.92765625,141.90543623681114L246.95859375,161.31354477951075L247.2525,128.17126256197182L247.65468750000002,112.56703066807678L247.7165625,98.2258393823009L247.96406249999998,80.19700084679728L248.36625,88.01285667749289L248.56734375,129.18182347137954" style="fill: none;" fill="none"></path></g></g></g></g><g opacity="0.2"><g><g><g><path stroke="rgb(255, 112, 67)" stroke-width="2px" d="M36.815625,-43.34847423434253L36.954843749999995,57.88652692735196L38.06859375,132.9013383090496L38.25421875,-35.484619617462116L38.34703125,-22.937698096036897L38.53265625,71.36919145286083L38.594531249999996,83.17409475147726L38.919375,81.30641114711763L39.05859375,-1.4771068394183982L39.074062500000004,153.66622154414654L39.414375,122.37131726741792L39.55359375,144.8167750686407L39.83203125,14.887691855430635L40.3115625,98.98772072792055L40.8065625,-101.95305588841434L40.85296875,109.54915006458761L41.270625,107.2078364044428L41.45625,183.67661666870117L41.4871875,27.7708513736725L41.68828125,94.58400961756708L41.8584375,76.79091376066208L42.5390625,-34.64510160684581L43.219687500000006,226.99188646674156L43.37437499999999,162.70761248469353L43.38984375,163.090292558074L43.51359375,18.67207270860674L43.714687500000004,168.59823931753635L44.070468749999996,-55.283538430929134L44.25609375,102.9344620257616L44.37984375,232.52952714264393L44.42625,175.5146799683571L44.65828125,168.0384727269411L44.7046875,140.68272691965103L45.044999999999995,67.41880160570145L45.09140625,149.30396322906017L45.354375,81.4951466470957L45.431718749999995,122.83826564252377L45.462656249999995,0.1250458955765098L45.49359375,96.53187339007856L46.08140625,-8.601185113191566L46.2825,190.25321473181248L46.66921875,133.64414778351784L46.901250000000005,59.437775805592544L46.947656249999994,99.07119777798654L47.489062499999996,106.03331123292446L47.84484375,125.31248760223389L47.89125,91.43284988403322L48.695625,58.2641078233719L48.86578125,215.21511656045914L49.639218750000005,167.14172084629536L50.7065625,70.73676158487798L50.8303125,165.7547006458044L50.9540625,184.49182567000386L50.96953125,38.12163193523886L51.124218750000004,101.51533019542694L51.49546875,10.19442659616473L51.52640625,168.31479538977146L51.959531250000005,132.81805907189846L52.531875,24.428604364395156L52.841249999999995,171.40821573138237L52.85671875,89.99103550612926L52.9340625,78.09137982130052L53.66109375,77.38890220224857L53.90859375,100.6682952940464L54.156093750000004,93.40647329390049L54.187031250000004,247.58798033744094L54.2953125,64.44822308421136L54.774843749999995,101.3365952372551L54.92953125,42.33487118780616L54.960468750000004,18.040126383304617L55.36265625,178.117722094059L56.04328125,45.05383168160917L56.1825,114.02385403215885L56.19796875,165.52422662079334L56.22890625,90.74285645782948L56.32171875,71.55210246145725L56.414531249999996,-17.458983689546546L56.55375,191.19557347893712L57.1415625,105.94902095198633L57.18796875,229.59237900376317L57.234375,106.65782858431339L57.37359375,149.34761394560337L57.54375,41.2634065449238L57.74484375,215.18336758762598L57.976875,57.72590284049512L58.03874999999999,-79.33578658103939L58.05421875,89.61534482240678L58.08515625,181.2878498882055L58.23984375,108.8011534959078L58.36359375,192.06373040378094L58.6884375,-153.7974031567573L58.905,173.08606487512589L59.10609375,170.64784486591816L59.38453125,78.05920225381853L59.400000000000006,16.32447299361232L59.52375,-22.834044128656373L59.786718750000006,112.83994373679161L59.8021875,129.35132180154324L59.833124999999995,126.57838036119936L60.03421875,32.79220034182073L60.1425,87.85265591740608L60.250781249999996,223.724907271564L60.56015625,168.29169523715973L60.668437499999996,-92.49838981032367L60.8540625,-72.6832503378391L60.931406249999995,100.84245857596397L61.51921875,73.2295999377966L61.689375,164.3727136850357L61.875,-131.99103492498392L62.029687499999994,149.07201659679413L62.07609375,132.96318781375885L62.4628125,-51.81350427865977L62.84953125,151.74367782473564L63.06609375,149.32308514416218L63.1125,151.08034518361092L63.375468749999996,138.8128453940153L63.499218750000004,122.18781282007696L63.59203125,111.09613497555256L63.932343749999994,45.059985861182234L64.040625,114.86658100783825L64.3190625,135.73885467648506L64.4428125,102.92123053967954L64.67484375,-30.788101434707627L64.95328125,196.8868928104639L65.154375,114.50695712864399L65.26265625,172.63316121697426L65.69578125000001,45.72149422764781L65.773125,219.49771121889353L65.95875000000001,43.378444209694884L66.46921875,-49.33442491292949L68.43375,205.13846074044704L68.51109375,95.51285114884377L68.7121875,107.15313014388084L68.94421875,76.99114438891412L69.00609374999999,166.3928451091051L69.1453125,196.7958329319954L69.57843749999999,-23.44031873345371L69.71765625,70.21251340210438L69.81046875,106.28200602531435L70.46015625,122.00549525022508L70.64578125,105.0035411566496L70.723125,98.50365054607391L70.92421875000001,207.74655808508396L71.0634375,13.661999076604863L71.54296875,200.73369462788105L71.589375,5.686885684728655L71.6821875,171.55899313092232L71.836875,173.54760636389256L72.0225,139.81478978693485L72.3009375,109.36063435673715L72.96609375,175.2510832697153L73.21359375,5.016299903392825L73.3528125,172.3253423422575L73.4146875,17.712811946868918L73.58484375,140.45207706093788L73.755,-62.92302924394605L73.9715625,100.81588570773602L74.15718749999999,123.41722008585931L74.25,2.60359776020052L74.72953125000001,126.31583866477014L75.1471875,107.5533716082573L75.7659375,99.9902146011591L75.87421875000001,142.71663931012154L75.8896875,-24.215481609106025L76.24546875,163.75635062158108L76.52390625,10.012262880802187L76.5703125,170.86847220361233L76.725,126.38518308103085L77.4365625,197.69807961583135L77.79234375,77.33544875681402L77.900625,120.27395088970661L78.2409375,146.73199971020222L78.519375,51.36960242688657L78.72046875,145.24605107307434L78.7359375,154.38654628396034L79.5403125,182.95640182495114L79.92703125,10.15262213349345L80.08171875,67.56786462664606L80.1590625,110.76589730381967L80.17453125,142.0073041766882L80.48390625,116.02519322931767L80.82421875,81.60227333009244L81.30375,-45.63466402888294L81.5203125,144.0814824849367L81.69046875,89.3565835505724L81.7678125,-5.891807556152305L81.79875000000001,-27.858711957931494L82.03078125,134.04858727753162L82.30921875,130.52929770946503L82.40203125000001,142.380577147007L82.479375,112.20797543227673L82.603125,21.581197351217295L83.09812500000001,185.12390387058255L83.5621875,170.90348508954048L83.77875,16.60809275507929L84.10359375,133.4844248443842L84.19640625,83.96191765367986L84.335625,47.122405290603666L84.6759375,24.84704461693765L84.9853125,87.85700780153275L85.49578125000001,158.86010733246803L85.52671875,221.22593671828508L85.6659375,118.66729241609573L85.75874999999999,140.1795348227024L86.0371875,118.54543966054916L86.05265625,116.2493811994791L86.25375,59.2437433153391L86.563125,94.8894767165184L86.64046875,120.02165150642395L86.73328125,88.4687552303076L86.79515625,90.12137223780155L86.85703125,-47.7487565875053L87.2128125,153.00748255848885L87.38296875,174.2439517825842L87.53765625,184.10250787436962L87.73875,67.66949650645256L87.8315625,123.99329525232315L87.87796875000001,22.46880587935449L88.11,-16.632301539182638L88.23375,109.68761910498144L88.24921875,194.5379303842783L88.41937499999999,-50.21970364451404L88.4503125,134.8967870771885L89.14640625,-97.87586796283718L89.20828125,-74.26289635896677L89.595,22.538436025381102L89.780625,121.6696748584509L89.904375,29.468130141496683L90.08999999999999,58.69081225991251L91.15734375,114.89407700300217L91.20375,185.57208199799058L91.21921875000001,34.27553345263006L91.34296875,123.81746155023576L91.35843750000001,134.20433197915554L91.575,85.97171884775162L91.884375,158.27968028187752L92.0390625,47.78019917011264L92.24015625,111.32005919516087L92.379375,78.94256879389287L92.8434375,141.12195950746536L93.0909375,19.915304899215712L93.1528125,138.50502651929855L93.36937499999999,64.99768142402174L93.43125,109.24561713635921L93.50859374999999,56.20843601226808L93.63234375,120.88273112475872L93.87984375,10.923477083444615L93.9571875,85.43806356191637L94.15828125,215.60634654760358L94.39031250000001,187.90095542371273L94.6996875,100.54266211390497L94.74609375,-66.80961343646045L94.96265625,61.24459896981717L95.0090625,65.1889445334673L95.05546875,152.20671389997005L95.27203125,247.09012918919325L95.349375,56.39209431409838L95.82890625,80.02385814487936L96.29296875,173.5950594842434L96.5559375,176.82132218778133L96.69515625000001,51.48354266583921L97.12828125,104.56802305579187L97.205625,121.92309518158436L97.3603125,196.42699976265428L98.08734375,201.34245288372037L98.39671874999999,40.1136739253998L98.62875,-11.017887473106372L98.84531249999999,-46.36657181382175L99.13921875,67.48023350536825L99.185625,150.74922834336758L99.27843750000001,121.39359396696092L99.8353125,146.6565230935812L100.11375000000001,35.64442080259325L100.19109375000001,271.08031903207296L100.45406249999999,102.05113944411278L100.5778125,131.036226272583L100.59328124999999,32.262127667665496L101.04187499999999,13.545641124248531L101.36671875,-4.28213793039318L101.42859374999999,106.59683626890182L102.2175,48.099029630422606L102.48046875,222.47101516276595L103.021875,98.03136122226717L103.269375,5.742449134588268L103.516875,225.52446630597115L103.56328125,244.6037197560072L103.57875,54.868297472596176L103.62515624999999,40.91982749104502L103.7025,101.26997624337673L103.74890625,-42.73314419388767L103.888125,-74.71769022941587L104.1665625,53.34186312556268L104.6615625,117.8924812078476L105.26484375,132.63380733132362L106.42500000000001,165.5668882727623L106.57968749999999,97.66397868096828L106.59515625,114.57172986865044L106.62609375,186.2586027085781L106.8271875,262.29239237308497L106.8890625,124.58869014680386L107.24484375,-50.7998229861259L107.39953125000001,27.030459612607977L107.43046874999999,-61.53851467370982L107.6625,108.19120836257935L107.89453125,207.81840813159943L108.08015625,151.04979407787323L108.1575,225.45324266701934L108.31218750000001,105.18223215639593L108.35859375,144.20386274158955L108.6525,182.43800011277196L108.69890625000001,103.12456023693085L108.838125,204.43516989052296L108.8690625,169.48299054801464L108.97734375,-78.36553621292109L109.20937500000001,116.03838075697422L109.25578125,176.71393175423145L109.704375,186.01439167559144L109.90546875,93.60657204687595L110.1065625,169.32425667345524L110.36953125000001,217.26572216302156L111.22031249999999,-103.37097886204715L111.73078125,65.55230487883091L112.2721875,131.53616544604301L112.31859375,-9.673946529626834L112.3340625,208.47861972451207L112.81359375,50.61595720052721L113.92734375,90.12904298305511L114.14390625,65.61852824687959L114.159375,212.09620033204556L114.23671875000001,152.68331114947796L114.51515625,174.67918415367603L114.530625,187.46686597168443L114.5925,48.07269853353503L115.1184375,3.879930645227465L115.1803125,148.07055574655533L115.5825,178.75331696867943L115.70625,203.48087643086907L116.00015625,128.8875604122877L116.49515625,-27.806884974241232L116.99015625000001,-121.79909813404079L117.06750000000001,104.03324683010578L117.12937500000001,115.3772460371256L117.253125,56.102891832590124L117.51609375000001,31.84614908695223L117.748125,23.708081811666514L118.0265625,237.6330893561244L118.13484374999999,207.75603112578392L118.97015624999999,171.61745783686638L119.26406250000001,140.208899050951L119.72812499999999,124.56679885089397L119.96015625,152.91226860880852L120.17671875,180.56754712760446L120.78,141.69113320112228L120.88828124999999,50.102522790432005L121.50703125,76.96316485106946L121.52250000000001,105.74643854796886L121.7390625,-32.975648522377L121.84734375000001,-66.89344215393061L121.86281249999999,172.025589838624L122.34234375,101.40796174108984L122.46609375,160.15415546298027L122.94562499999999,9.338292300701168L122.99203125000001,205.08869980275628L123.1003125,136.45961900055408L123.11578125,182.8642869442701L123.23953125,200.3675429224968L123.53343749999999,71.3264638632536L123.64171875,61.027136638760574L123.67265625,133.8036948889494L123.7809375,96.2985860258341L124.430625,157.68894498050213L125.14218749999999,175.20655338466167L125.20406249999999,107.3801314532757L125.28140624999999,102.71752719581127L125.420625,101.98041033744812L125.49796875000001,53.77872195839884L125.52890624999999,112.9566753357649L125.9465625,-110.28739753365511L126.05484375,151.44509021937847L126.42609374999999,177.2841604501009L126.4415625,3.023268848657641L126.58078125,109.9012130945921L126.6271875,28.366180330514933L126.67359375,35.673785030841856L126.72000000000001,117.05929321050644L126.81281249999999,-3.720437169074999L126.89015624999999,120.50877679884435L127.35421875,206.03908096253872L127.3696875,131.64465484023094L127.4315625,145.10323014855385L127.66359375,127.50944179296495L127.77187500000001,11.670682400465031L127.9265625,83.20737127959728L128.2359375,-98.28925299644465L128.71546875,3.0845468938350873L129.009375,102.29159203171731L129.02484375,175.93404334783554L129.31875,85.32357384264469L129.39609375,104.7486702054739L129.4115625,95.02464887499809L129.50437499999998,40.33170771598817L129.56625,219.3062612861395L129.95296875,129.87528425455093L130.3396875,-26.12899187207218L130.47890625,203.18683852255344L130.72640625,146.69498671591282L130.77281250000001,-5.810968011617621L130.989375,77.94455868005753L131.43796875,167.7947012782097L131.93296875,92.5312830209732L132.0721875,207.0968965142965L132.11859375,110.78596432507038L132.165,147.28031513094902L132.350625,10.60315203666689L132.89203125,112.71545347571373L132.98484375,-13.846348404884326L133.093125,183.4369773119688L133.44890625,148.066357716918L133.69640625,178.38780266046524L135.196875,12.526157319545765L135.24328125,146.9626275897026L135.42890624999998,110.0155050009489L135.52171875,92.60212202370168L135.568125,90.66733588278294L135.78468750000002,232.9713752567768L135.80015625,-27.233930855989442L136.2796875,163.34569101035595L136.805625,29.479251623153708L136.85203125,119.77093462646009L136.8675,42.34717954695227L137.300625,211.1366758197546L137.3315625,107.79149439930916L137.43984375,3.2143561244011254L137.48624999999998,153.28793731331825L137.50171875,176.6897765994072L137.78015625,129.06124015152454L137.8575,108.38229563832283L138.18234375,65.03744181990625L138.58453125,148.4279157668352L138.72375,25.817778527736678L138.73921875,-66.90790447592732L138.83203125,242.9968964383006L139.0021875,163.17122001945972L139.01765625,206.70804028213024L139.651875,-63.081147700548144L139.89937500000002,48.0737755149603L139.94578125,-31.33885654807087L140.37890625,-33.54042637348172L140.518125,113.00742533802986L140.65734375,96.78775538504124L140.68828125000002,126.68847423791885L140.96671875,98.14936761558056L141.19875,135.36890056729317L141.24515625,19.378704398870482L141.46171875000002,232.31532872468233L141.77109375,211.85198929905889L142.08046875000002,173.0880869626999L142.14234374999998,119.68090777099133L142.18875,69.7630165219307L142.29703125,81.98242579400541L142.56,24.59375616908076L142.69921875,137.50543390214443L142.82296875,7.910170972347292L142.85390625000002,105.42246495187283L142.993125,244.40145605057478L143.13234375000002,30.242677599191687L143.22515625,-4.469840407371494L143.54999999999998,230.64915054291487L143.8903125,51.57053638994696L144.0759375,183.75396151840687L144.106875,129.5255949795246L144.19968749999998,-46.91904130578038L144.32343749999998,94.02569365501404L144.36984375,194.48779579997063L144.55546875,91.27910529077053L144.601875,33.58255085349085L144.77203125,98.51604682207108L145.25156249999998,247.46656716614962L145.51453125,197.9029258787632L145.57640625000002,158.49254895746708L145.65375,162.78337483108044L146.10234375,183.4716824889183L146.86031250000002,214.28074725717306L147.91218750000002,65.36994335055353L148.005,30.233776018023512L148.1596875,87.2292375266552L148.5,103.82560920715332L148.53093750000002,82.55581949651243L150.1396875,109.4646619707346L151.09875,188.81344442069528L151.16062499999998,-15.525384426116931L151.284375,118.0675236582756L151.4390625,197.80322816967964L151.59375,288.0706900805235L151.76390625,109.64047369360925L151.84125,178.4300467073917L153.24890625,110.73136796057224L153.37265624999998,123.15911819040775L153.46546875,239.01224099844694L153.5428125,178.63621172308922L153.55828125,127.38714945316315L153.57375000000002,-121.77896517515175L153.74390625,30.62089589238169L153.75937499999998,-107.4891799986362L153.82125,55.96327987313272L153.92953125,161.35074776411057L154.02234375,75.8913705199957L154.47093750000002,48.35987892746927L154.70296875,171.49340716004372L154.79578125,101.28188897669317L154.8421875,188.45410627126694L154.9659375,236.38551627099514L155.04328124999998,129.43653520941734L155.15156249999998,124.96552374958992L155.16703125,137.29265314340591L155.491875,127.39684228599072L155.50734375,92.03015697002411L156.0178125,111.3978875875473L156.12609375,31.71836194396021L156.62109375,-85.85605192184443L156.7603125,128.09514385461807L156.80671875000002,220.29078715294597L157.06968750000001,62.36953903734686L157.2553125,189.89587669074533L157.51828125,30.07882256805899L157.71937499999999,85.64589899778368L157.78125,90.28122705221176L157.81218750000002,146.9728699028492L158.58562500000002,82.14302790164949L158.75578125,-31.075413703918432L159.15796874999998,256.2605271190405L159.40546875,17.297272950410864L159.7303125,100.69631879031658L159.99328125,112.66039554774761L160.00875,46.17283736169341L160.0396875,126.72069576382638L160.1325,145.27488780021667L160.1634375,94.47822366654873L160.39546875,176.01319049298763L160.87499999999997,246.24941331148145L160.95234374999998,163.9999022781849L161.01421875,81.04767185449602L161.1534375,86.88972462713718L161.4628125,-77.61670443415639L161.74125,202.16623377799988L162.298125,14.6866699755192L162.3290625,-32.02737736701961L162.669375,143.32177099585533L163.30359375,157.7154519110918L163.4428125,198.6391635686159L163.45828125,-7.0239568054675665L163.9996875,30.780025392770792L164.16984374999998,76.81733277440073L164.66484375,18.54876932501795L164.69578125,195.52837964892387L164.95875,63.72150239348413L165.06703124999999,233.6865788400173L165.12890625,128.33717894554138L165.74765625,143.271328702569L165.93328125000002,241.0685172379017L166.0725,130.6328637599945L166.22718749999999,85.05771328508854L166.258125,93.52957886457443L166.42828125000003,73.27311877906324L166.5675,164.2189251333475L167.26359375,56.895066618919394L167.4028125,173.39707073569298L167.44921875,-9.414152234792697L168.0215625,214.76780661195517L168.114375,118.71718522906305L168.3,-190.63830021023747L168.53203125000002,222.10433595627543L168.68671875,143.6653060913086L169.0734375,-100.33195707201955L169.36734375,196.97599653899667L169.95515625,121.12045828998089L170.23359374999998,49.47558772563937L170.29546875,94.08796076476575L170.40375,194.0491566509008L170.97609375000002,34.935107648372664L171.13078125,103.8914369493723L171.22359375,81.76889774203302L171.28546874999998,155.1946999579668L171.34734375,203.69644854962826L171.39374999999998,196.51063066720963L171.48656250000002,15.853634297847767L171.99703125,51.423077851533904L172.074375,-15.156661152839648L172.26000000000002,173.18468560278416L172.4765625,-18.415694862604127L173.07984375,97.01664690673353L173.12625,96.63662631809711L173.69859375000001,114.65643775463104L174.054375,159.32855029404163L174.24,2.2410726249218182L174.25546875,200.20795185863972L174.75046875,206.56418633460996L174.96703125,46.076986014843L175.70953125,190.3878593891859L176.26640625000002,99.74015709757805L176.34375,157.58058746159077L176.56031249999998,63.683566272258766L176.57578125,177.6505099684L176.900625,188.1551010608673L177.19453125,11.31053102016451L177.27187500000002,-36.19780111312862L177.56578125,134.94287748634815L178.06078125,78.79462671279907L178.23093749999998,22.715280771255507L178.24640625,58.1283202469349L178.261875,41.716595932841315L178.61765624999998,124.35344663262367L178.64859375,129.29670345783234L178.86515625,126.1755233705044L178.98890625,-80.88923338055605L179.28281249999998,114.68621958792211L179.39109374999998,-40.67439529299731L179.54578125,52.863573476672194L179.57671875,154.9168387502432L179.73140625,4.33050450682642L179.80875,142.25599896907806L179.82421875,87.57510241866113L179.88609375000001,147.7148441672325L179.9634375,42.85573457181455L180.4584375,258.59370847046375L180.5821875,91.8855996876955L180.6440625,167.24832002818584L180.736875,114.92719967663288L180.87609375,133.34839549660683L180.984375,138.23008854687214L180.99984375000003,61.95239555835725L181.04625000000001,109.59313046932222L181.46390625,-16.758901804685568L181.5103125,97.0846066325903L181.52578125,185.09291318058965L182.34562499999998,193.3910990208387L182.3765625,126.31706950068474L182.5621875,52.262332111597075L182.76328125,106.53878916800022L182.91796875,290.31456989049906L182.97984375000001,126.90587063133717L182.9953125,148.02879524230957L183.27375,65.07047657668592L183.39749999999998,149.3070403188467L183.52124999999998,11.356907159090069L183.59859375000002,111.76830326020718L183.7378125,167.405053794384L183.83062500000003,70.2184697687626L183.9234375,46.756297543644926L184.10906250000002,3.139407008886357L184.7278125,80.19125182926655L184.89796875,179.08232380449772L184.92890625,106.27541226148607L185.00625,201.94538664817807L185.2228125,163.16308771073818L185.30015625,-64.92911595106122L185.34656249999998,24.011702656745932L185.82609375,173.37970715761185L186.0890625,169.36812718212605L186.38296875,61.81810256838801L186.44484375000002,73.24940320849419L186.56859375,131.8166861385107L186.59953125,-167.05530825257296L186.69234375,145.4143678843975L186.73874999999998,176.64307077229023L186.84703125,34.941877245903044L186.93984375000002,22.5919334292412L186.98625,176.75780226290226L187.2028125,-32.01735484600063L187.21828125000002,117.2890419214964L187.3575,210.07844266295433L188.08453125,-11.902858495712254L188.28562499999998,26.45491194725039L188.48671875,246.43669818341732L188.68781249999998,104.4105639755726L188.76515625000002,150.0056495964527L188.82703125,156.48914371430874L188.9353125,81.96956795454027L189.2446875,158.54325500130653L189.29109375,204.1070861816406L189.6159375,145.51745039224625L189.70875,163.461983025074L189.78609375,107.94218388199808L189.90984375,80.1696242839098L190.018125,85.70324276387691L190.1109375,175.30297619104385L190.575,157.8015664666891L190.6059375,172.41088543832302L190.66781250000003,159.32729747891426L190.83796875000002,35.220991268754034L191.0390625,151.05315689742565L191.54953125,-43.657589882612186L191.6578125,140.95709343254566L191.8125,161.8924034833908L192.0909375,194.9509637504816L192.10640625000002,112.6544391810894L192.121875,188.56274951994416L192.1528125,128.06437295675278L192.2765625,224.0707831531763L192.4621875,63.660751849412925L192.61687500000002,69.3870401084423L192.92625,226.3941397964954L193.0190625,139.73759879171848L193.46765625,89.1981793642044L193.730625,137.69177366793156L193.7925,91.380649253726L193.80796875,33.17153957486154L193.90078125,-150.00713187456125L194.04,103.47007346153259L194.27203125,85.20312775671484L194.56593750000002,77.36230735480787L194.67421875000002,58.938496008515365L195.01453124999998,102.52641794085503L195.10734375,-39.464923173189135L195.463125,7.7911755144596295L195.50953125,185.75536665320396L195.63328124999998,224.6433526352048L195.69515625,9.91027933359148L195.8034375,-31.047983646392797L196.081875,0.9563876390457481L196.14374999999998,110.99338215589525L196.56140625,52.56006252765658L196.59234375,23.905059516429915L197.01000000000002,66.68715757131577L197.319375,172.49704395234585L197.33484375,233.57281443476677L197.42765625,103.6677325218916L197.45859374999998,39.098300233483336L198.04640625,171.67286743223667L198.2784375,81.2788052558899L198.433125,63.95887789130212L198.47953125,148.15251623094082L198.51046875,186.62073221802711L198.74249999999998,120.56959328055382L198.78890625000003,160.71400997042656L198.928125,218.91349275410175L199.1446875,-52.48259547352788L199.51593749999998,92.90670995414257L199.73250000000002,110.92111450433733L200.165625,-20.215748429298376L200.18109375,-24.722717881202673L200.79984374999998,110.47306825220586L200.86171875,-38.770599842071505L200.92359374999998,187.4264022409916L201.2175,139.32676334679127L201.31031249999998,153.6602212190628L201.44953125,22.511401593685164L201.5578125,183.98177605867386L201.7434375,23.192141771316543L201.91359375,175.04581940174103L202.28484375000002,130.31702247262L202.455,147.53573556244373L202.4859375,180.4115606546402L202.62515625,-68.11531054973598L202.7025,112.99107280373573L202.9190625,-42.86827239394183L203.83171875,214.03492075204846L203.84718750000002,170.2789457589388L204.0328125,227.86810976266858L204.06375,-107.79306459426873L204.11015625000002,135.79382468760014L204.26484375,-42.886778891086536L204.63609375,124.4126146733761L205.06921875,18.77075937390329L205.486875,54.727740406990065L205.51781250000002,160.53395625948906L205.6415625,56.69600088894369L205.96640624999998,20.16942855715753L206.09015624999998,212.22994384169576L206.24484374999997,93.76172330975533L206.2603125,121.69044521450998L206.6625,126.72722359001638L206.70890624999998,82.9098606556654L206.73984375,67.23564882576467L207.1575,38.70307002961638L207.35859374999998,232.7610012218356L207.48234374999998,126.35548916459084L207.590625,44.70150490105155L207.9,-11.283132612705192L207.94640625,213.54377326369286L208.14749999999998,151.8080549389124L208.24031250000002,155.27331960201263L208.4259375,121.62945289909841L208.828125,34.88923703134062L209.446875,113.49518802762033L210.1584375,70.6024246364832L210.31312499999999,186.08081285655499L210.3440625,175.22837874293327L212.27765625,155.0071733146906L212.293125,115.8739762455225L212.3859375,36.48264203965667L212.40140625,65.07970784604551L212.55609375,80.14226016402245L212.80359374999998,121.42849695682526L212.89640625,103.93313151597977L213.32953125,69.85669192671777L213.39140625,69.73165218532087L213.79359375,209.06146448850632L213.8709375,215.26007504016158L214.59796875,67.88254101574421L214.7371875,99.9682793468237L215.03109375,85.64073388278484L215.1703125,182.93334563076496L215.2940625,62.25630213320257L215.5415625,161.07440312206745L215.75812499999998,117.55299028754236L216.005625,64.07598313689233L216.05203125,133.49064496159554L216.19125000000003,75.70703086256981L216.34593750000002,146.62469719350338L216.45421875,135.1298766285181L216.62437500000001,72.05349226295948L217.04203124999998,0.6334250867367118L217.47515625,95.03396806120874L217.72265625,-1.3138012886047101L217.8928125,148.71437084674835L217.90828125000002,175.54540690779686L217.985625,79.54578828811646L218.09390625,226.35409367084503L218.46515625,184.55046620965004L218.604375,34.1716157346964L218.61984375,104.68209517002107L218.92921875,134.64666363596916L219.17671875,36.6467608213425L219.718125,108.5141049772501L219.76453125,126.10037644207478L219.91921875000003,22.018715560436263L220.0584375,118.38019993901253L220.22859375,10.163084238767643L220.56890625,5.501337170600924L220.8009375,-7.5973505079745856L220.86281250000002,121.55854795873165L220.92468749999998,20.65758687257769L221.0175,119.39372737705708L221.12578125000002,147.98881505429745L221.574375,111.02975775301456L221.945625,220.50553505122662L222.2859375,209.42774806916714L222.82734374999998,159.62109361588955L223.30687500000002,44.994641661644L223.38421875,138.33987471461296L223.49249999999998,148.4192119985819L223.69359375000002,-37.07081544399257L223.7709375,30.99739980697634L224.06484375,153.42831854522228L224.46703125000002,209.88542121648788L224.4825,99.0155244320631L225.13218750000001,196.07689288258553L225.163125,23.552029401063933L225.25593750000002,52.283234342932715L225.4415625,226.62637215852735L225.51890625000001,104.52287775278091L226.33875,87.09487859904768L226.72546875,143.9837848842144L227.0503125,-20.748788297176336L227.37515624999997,149.96270221471786L227.46796875,189.99735471606252L227.71546874999999,118.87855660915375L227.96296875000002,30.911065459251418L228.009375,191.41551946103573L228.08671875000002,82.09597040712835L228.24140625,213.2927706539631L228.256875,111.23394463956356L228.45796875,128.67480163276196L228.5971875,93.83515585958959L228.64359375,-102.18045282363884L228.751875,198.6557139158249L228.89109374999998,38.96530401706698L229.04578124999998,157.63054621219635L229.10765625,135.63939873874187L229.30875,52.752842202782645L229.6490625,98.47024214267732L229.81921874999998,182.4700018465519L229.86562500000002,-33.34749284386632L230.236875,101.65135954320431L230.74734375,155.80640342831612L230.93296875,88.71347178518772L231.04125,89.91683368384838L231.08765625,153.77816167473793L231.1959375,107.96330590546131L231.39703125,216.7420784085989L231.5053125,228.8308652192354L231.64453125,129.52788081765175L231.72187499999998,52.87700277566911L231.76828125,102.59864163398743L231.86109375,40.95980767905715L232.15499999999997,98.81999735534191L232.17046875,-46.64139989018436L232.23234375,126.93224568665028L232.47984375000001,90.65093939006329L232.8975,110.34396235644819L232.959375,88.89796529710293L233.20687500000003,71.98966462910175L233.25328125000001,151.50676389038563L233.36156250000002,133.14829674363136L233.40796875,67.92784017324448L233.6090625,115.67293238639832L233.68640625,-35.17673480510709L233.77921874999998,185.39833632111547L234.18140625,49.70122632384303L234.33609375,39.06577099859716L234.568125,63.148152649402626L234.8775,190.90379942953584L234.89296875,113.34669646620752L235.41890625000002,74.89100863039495L235.5271875,133.04739017784595L235.681875,33.4917327463627L236.548125,86.78053189814091L236.5790625,99.18296207487585L236.60999999999999,97.66318742930889L237.166875,-27.521462917327842L238.0640625,40.828965425491354L238.3425,124.79914110898973L238.41984375,98.88872635364532L238.52812500000002,98.10041990876198L238.71374999999998,13.476450562477131L238.8684375,57.5464205890894L239.1159375,97.51924556493759L239.75015625,208.77076742053032L239.9203125,128.09672635793686L239.95125,67.60430616140367L240.631875,46.76843006908896L240.755625,-9.740191876888236L241.82296875,71.12181541323663L242.16328124999998,167.4033613950014L242.3334375,167.39421804249287L242.859375,-40.337410002946825L243.0140625,117.11026300489902L243.02953125,33.89665578305723L243.16875,108.30336828529835L243.2615625,147.38100190460682L243.2925,224.6060539111495L243.57093749999999,85.45298744738102L243.66375,81.51299376785757L244.01953125,116.16254132986069L244.035,180.85925523936746L244.08140625000001,95.10267508029939L244.15875000000003,-110.69295796751972L244.29796875,237.10970935225487L244.34437499999999,87.95789238810539L244.49906249999998,127.63010767102243L245.16421874999997,143.33069455623627L245.38078125,192.68481899797916L245.50453124999999,40.97941313683988L246.076875,123.75959028303623L246.200625,246.27206289023158L246.3553125,196.88988198339936L246.571875,120.37358266115189L246.92765625,121.51197400689125L246.95859375,190.42570759356022L247.2525,78.45783923566343L247.65468750000002,89.16068282723427L247.7165625,76.71405245363714L247.96406249999998,53.15374304354192L248.36625,99.73664042353631L248.56734375,190.9352736622095" style="fill: none;" fill="none"></path></g></g></g></g></g></g><g transform="translate(51, 177)" clip-path="url(#clip_1)"><clipPath id="clip_1"><rect width="278" height="23"></rect></clipPath><g><g><line x1="0" y1="0" x2="0" y2="5" style="visibility: inherit;" fill="rgb(0, 0, 0)" stroke="rgb(204, 204, 204)" stroke-width="1px"></line><line x1="30.9375" y1="0" x2="30.9375" y2="5" style="visibility: inherit;" fill="rgb(0, 0, 0)" stroke="rgb(204, 204, 204)" stroke-width="1px"></line><line x1="61.875" y1="0" x2="61.875" y2="5" style="visibility: inherit;" fill="rgb(0, 0, 0)" stroke="rgb(204, 204, 204)" stroke-width="1px"></line><line x1="92.8125" y1="0" x2="92.8125" y2="5" style="visibility: inherit;" fill="rgb(0, 0, 0)" stroke="rgb(204, 204, 204)" stroke-width="1px"></line><line x1="123.75" y1="0" x2="123.75" y2="5" style="visibility: inherit;" fill="rgb(0, 0, 0)" stroke="rgb(204, 204, 204)" stroke-width="1px"></line><line x1="154.6875" y1="0" x2="154.6875" y2="5" style="visibility: inherit;" fill="rgb(0, 0, 0)" stroke="rgb(204, 204, 204)" stroke-width="1px"></line><line x1="185.625" y1="0" x2="185.625" y2="5" style="visibility: inherit;" fill="rgb(0, 0, 0)" stroke="rgb(204, 204, 204)" stroke-width="1px"></line><line x1="216.5625" y1="0" x2="216.5625" y2="5" style="visibility: inherit;" fill="rgb(0, 0, 0)" stroke="rgb(204, 204, 204)" stroke-width="1px"></line><line x1="247.5" y1="0" x2="247.5" y2="5" style="visibility: inherit;" fill="rgb(0, 0, 0)" stroke="rgb(204, 204, 204)" stroke-width="1px"></line><line x1="278.4375" y1="0" x2="278.4375" y2="5" style="visibility: inherit;" fill="rgb(0, 0, 0)" stroke="rgb(204, 204, 204)" stroke-width="1px"></line></g><g transform="translate(0, 8)"><text x="0" y="0" dx="0em" dy="0.95em" style="text-anchor: middle; visibility: hidden; font-family: Roboto, sans-serif; font-size: 12px; font-weight: 200;" fill="rgb(33, 33, 33)" stroke="none" stroke-width="1px">-2k</text><text x="30.9375" y="0" dx="0em" dy="0.95em" style="text-anchor: middle; visibility: inherit; font-family: Roboto, sans-serif; font-size: 12px; font-weight: 200;" fill="rgb(33, 33, 33)" stroke="none" stroke-width="1px">0</text><text x="61.875" y="0" dx="0em" dy="0.95em" style="text-anchor: middle; visibility: inherit; font-family: Roboto, sans-serif; font-size: 12px; font-weight: 200;" fill="rgb(33, 33, 33)" stroke="none" stroke-width="1px">2k</text><text x="92.8125" y="0" dx="0em" dy="0.95em" style="text-anchor: middle; visibility: inherit; font-family: Roboto, sans-serif; font-size: 12px; font-weight: 200;" fill="rgb(33, 33, 33)" stroke="none" stroke-width="1px">4k</text><text x="123.75" y="0" dx="0em" dy="0.95em" style="text-anchor: middle; visibility: inherit; font-family: Roboto, sans-serif; font-size: 12px; font-weight: 200;" fill="rgb(33, 33, 33)" stroke="none" stroke-width="1px">6k</text><text x="154.6875" y="0" dx="0em" dy="0.95em" style="text-anchor: middle; visibility: inherit; font-family: Roboto, sans-serif; font-size: 12px; font-weight: 200;" fill="rgb(33, 33, 33)" stroke="none" stroke-width="1px">8k</text><text x="185.625" y="0" dx="0em" dy="0.95em" style="text-anchor: middle; visibility: inherit; font-family: Roboto, sans-serif; font-size: 12px; font-weight: 200;" fill="rgb(33, 33, 33)" stroke="none" stroke-width="1px">10k</text><text x="216.5625" y="0" dx="0em" dy="0.95em" style="text-anchor: middle; visibility: inherit; font-family: Roboto, sans-serif; font-size: 12px; font-weight: 200;" fill="rgb(33, 33, 33)" stroke="none" stroke-width="1px">12k</text><text x="247.5" y="0" dx="0em" dy="0.95em" style="text-anchor: middle; visibility: inherit; font-family: Roboto, sans-serif; font-size: 12px; font-weight: 200;" fill="rgb(33, 33, 33)" stroke="none" stroke-width="1px">14k</text><text x="278.4375" y="0" dx="0em" dy="0.95em" style="text-anchor: middle; visibility: hidden; font-family: Roboto, sans-serif; font-size: 12px; font-weight: 200;" fill="rgb(33, 33, 33)" stroke="none" stroke-width="1px">16k</text></g><line x1="0" y1="0" x2="278.4375" y2="0" fill="rgb(0, 0, 0)" stroke="rgb(204, 204, 204)" stroke-width="1px"></line></g></g></g></g></svg>