<svg viewBox="0 0 330 200" xmlns="http://www.w3.org/2000/svg"><g><g><g><g><g><line x1="70" y1="177" x2="65" y2="177" style="visibility: inherit;" fill="rgb(0, 0, 0)" stroke="rgb(204, 204, 204)" stroke-width="1px"></line><line x1="70" y1="154.875" x2="65" y2="154.875" style="visibility: inherit;" fill="rgb(0, 0, 0)" stroke="rgb(204, 204, 204)" stroke-width="1px"></line><line x1="70" y1="132.75" x2="65" y2="132.75" style="visibility: inherit;" fill="rgb(0, 0, 0)" stroke="rgb(204, 204, 204)" stroke-width="1px"></line><line x1="70" y1="110.625" x2="65" y2="110.625" style="visibility: inherit;" fill="rgb(0, 0, 0)" stroke="rgb(204, 204, 204)" stroke-width="1px"></line><line x1="70" y1="88.5" x2="65" y2="88.5" style="visibility: inherit;" fill="rgb(0, 0, 0)" stroke="rgb(204, 204, 204)" stroke-width="1px"></line><line x1="70" y1="66.375" x2="65" y2="66.375" style="visibility: inherit;" fill="rgb(0, 0, 0)" stroke="rgb(204, 204, 204)" stroke-width="1px"></line><line x1="70" y1="44.25" x2="65" y2="44.25" style="visibility: inherit;" fill="rgb(0, 0, 0)" stroke="rgb(204, 204, 204)" stroke-width="1px"></line><line x1="70" y1="22.125" x2="65" y2="22.125" style="visibility: inherit;" fill="rgb(0, 0, 0)" stroke="rgb(204, 204, 204)" stroke-width="1px"></line><line x1="70" y1="0" x2="65" y2="0" style="visibility: inherit;" fill="rgb(0, 0, 0)" stroke="rgb(204, 204, 204)" stroke-width="1px"></line></g><g transform="translate(60, 0)"><text x="0" y="177" dx="0em" dy="0.3em" style="text-anchor: end; visibility: hidden; font-family: Roboto, sans-serif; font-size: 12px; font-weight: 200;" fill="rgb(33, 33, 33)" stroke="none" stroke-width="1px">-2e-4</text><text x="0" y="154.875" dx="0em" dy="0.3em" style="text-anchor: end; visibility: inherit; font-family: Roboto, sans-serif; font-size: 12px; font-weight: 200;" fill="rgb(33, 33, 33)" stroke="none" stroke-width="1px">0</text><text x="0" y="132.75" dx="0em" dy="0.3em" style="text-anchor: end; visibility: hidden; font-family: Roboto, sans-serif; font-size: 12px; font-weight: 200;" fill="rgb(33, 33, 33)" stroke="none" stroke-width="1px">2e-4</text><text x="0" y="110.625" dx="0em" dy="0.3em" style="text-anchor: end; visibility: inherit; font-family: Roboto, sans-serif; font-size: 12px; font-weight: 200;" fill="rgb(33, 33, 33)" stroke="none" stroke-width="1px">4e-4</text><text x="0" y="88.5" dx="0em" dy="0.3em" style="text-anchor: end; visibility: hidden; font-family: Roboto, sans-serif; font-size: 12px; font-weight: 200;" fill="rgb(33, 33, 33)" stroke="none" stroke-width="1px">6e-4</text><text x="0" y="66.375" dx="0em" dy="0.3em" style="text-anchor: end; visibility: inherit; font-family: Roboto, sans-serif; font-size: 12px; font-weight: 200;" fill="rgb(33, 33, 33)" stroke="none" stroke-width="1px">8e-4</text><text x="0" y="44.25" dx="0em" dy="0.3em" style="text-anchor: end; visibility: hidden; font-family: Roboto, sans-serif; font-size: 12px; font-weight: 200;" fill="rgb(33, 33, 33)" stroke="none" stroke-width="1px">1e-3</text><text x="0" y="22.125" dx="0em" dy="0.3em" style="text-anchor: end; visibility: inherit; font-family: Roboto, sans-serif; font-size: 12px; font-weight: 200;" fill="rgb(33, 33, 33)" stroke="none" stroke-width="1px">1.2e-3</text><text x="0" y="0" dx="0em" dy="0.3em" style="text-anchor: end; visibility: hidden; font-family: Roboto, sans-serif; font-size: 12px; font-weight: 200;" fill="rgb(33, 33, 33)" stroke="none" stroke-width="1px">1.4e-3</text></g><line x1="70" y1="0" x2="70" y2="177" fill="rgb(0, 0, 0)" stroke="rgb(204, 204, 204)" stroke-width="1px"></line></g></g><g transform="translate(70, 0)" clip-path="url(#clip_0)"><clipPath id="clip_0"><rect width="260" height="177"></rect></clipPath><g><g><g><line x1="0" y1="0" x2="0" y2="177" fill="rgb(0, 0, 0)" stroke="rgb(66, 66, 66)" stroke-width="1px" opacity="0.25"></line><line x1="28.888888888888886" y1="0" x2="28.888888888888886" y2="177" fill="rgb(0, 0, 0)" stroke="rgb(66, 66, 66)" stroke-width="1px" opacity="0.25"></line><line x1="57.77777777777777" y1="0" x2="57.77777777777777" y2="177" fill="rgb(0, 0, 0)" stroke="rgb(66, 66, 66)" stroke-width="1px" opacity="0.25"></line><line x1="86.66666666666666" y1="0" x2="86.66666666666666" y2="177" fill="rgb(0, 0, 0)" stroke="rgb(66, 66, 66)" stroke-width="1px" opacity="0.25"></line><line x1="115.55555555555554" y1="0" x2="115.55555555555554" y2="177" fill="rgb(0, 0, 0)" stroke="rgb(66, 66, 66)" stroke-width="1px" opacity="0.25"></line><line x1="144.44444444444446" y1="0" x2="144.44444444444446" y2="177" fill="rgb(0, 0, 0)" stroke="rgb(66, 66, 66)" stroke-width="1px" opacity="0.25"></line><line x1="173.33333333333331" y1="0" x2="173.33333333333331" y2="177" fill="rgb(0, 0, 0)" stroke="rgb(66, 66, 66)" stroke-width="1px" opacity="0.25"></line><line x1="202.22222222222223" y1="0" x2="202.22222222222223" y2="177" fill="rgb(0, 0, 0)" stroke="rgb(66, 66, 66)" stroke-width="1px" opacity="0.25"></line><line x1="231.1111111111111" y1="0" x2="231.1111111111111" y2="177" fill="rgb(0, 0, 0)" stroke="rgb(66, 66, 66)" stroke-width="1px" opacity="0.25"></line><line x1="260" y1="0" x2="260" y2="177" fill="rgb(0, 0, 0)" stroke="rgb(66, 66, 66)" stroke-width="1px" opacity="0.25"></line></g><g><line x1="0" y1="177" x2="260" y2="177" fill="rgb(0, 0, 0)" stroke="rgb(66, 66, 66)" stroke-width="1px" opacity="0.25"></line><line x1="0" y1="154.875" x2="260" y2="154.875" fill="rgb(0, 0, 0)" stroke="rgb(66, 66, 66)" stroke-width="1px" opacity="0.25"></line><line x1="0" y1="132.75" x2="260" y2="132.75" fill="rgb(0, 0, 0)" stroke="rgb(66, 66, 66)" stroke-width="1px" opacity="0.25"></line><line x1="0" y1="110.625" x2="260" y2="110.625" fill="rgb(0, 0, 0)" stroke="rgb(66, 66, 66)" stroke-width="1px" opacity="0.25"></line><line x1="0" y1="88.5" x2="260" y2="88.5" fill="rgb(0, 0, 0)" stroke="rgb(66, 66, 66)" stroke-width="1px" opacity="0.25"></line><line x1="0" y1="66.375" x2="260" y2="66.375" fill="rgb(0, 0, 0)" stroke="rgb(66, 66, 66)" stroke-width="1px" opacity="0.25"></line><line x1="0" y1="44.25" x2="260" y2="44.25" fill="rgb(0, 0, 0)" stroke="rgb(66, 66, 66)" stroke-width="1px" opacity="0.25"></line><line x1="0" y1="22.125" x2="260" y2="22.125" fill="rgb(0, 0, 0)" stroke="rgb(66, 66, 66)" stroke-width="1px" opacity="0.25"></line><line x1="0" y1="0" x2="260" y2="0" fill="rgb(0, 0, 0)" stroke="rgb(66, 66, 66)" stroke-width="1px" opacity="0.25"></line></g></g></g><g><g><line x1="0" y1="154.875" x2="260" y2="154.875" fill="rgb(0, 0, 0)" stroke="rgb(153, 153, 153)" stroke-width="1.5px"></line></g></g><g><g><line x1="28.888888888888886" y1="0" x2="28.888888888888886" y2="177" fill="rgb(0, 0, 0)" stroke="rgb(153, 153, 153)" stroke-width="1.5px"></line></g></g><g><g><g><g><g><path stroke="rgb(255, 112, 67)" stroke-width="2px" d="M38.48,-1.380602330962231L38.92777777777778,6.826887284758581L39.245555555555555,11.751381054120325L39.47666666666667,14.706077315711896L39.56333333333333,16.47889507265765L39.635555555555555,17.5425857268218L39.736666666666665,18.180800119319105L39.82333333333334,18.563728754817085L39.83777777777778,18.793485936115705L39.86666666666666,18.931340244894795L40.011111111111106,19.01405283016226L40.61777777777778,19.063680381322758L40.675555555555555,19.093456912019004L40.776666666666664,19.111322830436766L40.79111111111111,19.122042381487432L40.86333333333334,19.12847411211781L40.964444444444446,19.132333150496052L41.58555555555556,19.134648573523002L41.64333333333334,19.13603782733915L42.17777777777778,19.136871379628857L42.596666666666664,19.137371511002705L43.05888888888889,19.137671589826983L43.087777777777774,19.137851637121567L43.477777777777774,68.00323585059547L43.72333333333333,97.32246637867983L43.73777777777778,114.91400469553042L44.12777777777778,125.4689276856408L44.21444444444444,131.80188147970702L44.272222222222226,135.60165375614676L44.60444444444444,137.8815171220106L44.77777777777778,139.2494351415289L45.35555555555556,140.07018595323987L45.38444444444444,140.56263644026646L45.39888888888889,140.8581067324824L45.471111111111114,141.03538890781198L45.5,141.14175821300975L46.00555555555555,141.20557979612838L46.32333333333333,141.24387274599957L46.38111111111112,141.26684851592228L46.59777777777778,141.28063397787588L46.684444444444445,141.2889052550481L46.69888888888889,141.2938680213514L46.973333333333336,141.29684568113336L47.01666666666667,141.29863227700255L47.10333333333333,141.29970423452409L47.11777777777778,141.300347409037L47.30555555555555,141.30073331374473L47.85444444444445,141.30096485656938L48.08555555555555,141.30110378226416L48.12888888888889,141.30118713768104L48.20111111111111,141.30123715093117L48.69222222222222,141.30126715888125L48.822222222222216,141.30128516365127L49.660000000000004,141.3012959665133L50.00666666666667,141.3013024482305L50.16555555555556,141.30130633726085L50.68555555555556,146.18783628918877L50.83,149.1197542603455L51.66777777777778,150.87890504303954L51.74,151.934395512656L51.971111111111114,152.56768979442586L52.11555555555556,152.94766636348774L52.41888888888889,153.1756523049249L52.44777777777778,153.3124438697872L52.60666666666667,153.39451880870456L52.635555555555555,153.443763772055L52.751111111111115,153.47331075006525L52.95333333333333,153.4910389368714L53.01111111111111,153.5016758489551L53.184444444444445,153.5080579962053L54.15222222222222,153.51188728455543L54.845555555555556,153.5141848575655L55.29333333333334,153.51556340137157L55.69777777777778,153.5163905276552L55.871111111111105,153.51688680342536L56.00111111111111,153.51718456888747L56.03,153.51736322816475L56.102222222222224,153.51747042373108L56.14555555555555,153.5175347410709L56.20333333333333,153.5175733314748L56.275555555555556,153.51759648571712L56.36222222222223,153.51761037826253L56.44888888888889,153.51761871378977L56.607777777777784,153.5176237151061L56.66555555555556,153.51762671589591L56.79555555555555,153.51762851636983L56.89666666666666,153.51762959665416L56.94,153.51763024482474L57.12777777777778,153.5176306337271L57.142222222222216,153.5176308670685L57.214444444444446,153.51763100707336L57.22888888888889,153.51763109107628L57.33,153.517631141478L57.373333333333335,153.51763117171905L58.18222222222222,154.00628395372692L58.196666666666665,154.29947562293162L58.297777777777775,154.47539062445446L58.31222222222222,154.58093962536816L58.32666666666667,154.64426902591637L59.06333333333333,154.6822666662453L59.15,154.70506525044266L59.16444444444445,154.71874440096107L59.236666666666665,154.72695189127214L59.337777777777774,154.73187638545875L59.69888888888889,154.73483108197075L59.87222222222222,154.73660389987793L60.03111111111111,154.73766759062224L60.32,154.73830580506882L60.36333333333333,154.73868873373678L60.45,154.73891849093755L60.565555555555555,154.739056345258L60.71,154.73913905785028L61.562222222222225,154.73918868540568L61.59111111111111,154.73921846193886L62.111111111111114,154.7392363278588L62.284444444444446,154.73924704741077L62.80444444444444,154.73925347914192L62.833333333333336,154.73925733818064L63.00666666666667,154.73925965360388L63.324444444444445,154.7392610428578L63.483333333333334,154.73926187641015L63.815555555555555,154.73926237654157L64.20555555555555,154.73926267662043L64.40777777777778,154.73926285666775L64.72555555555556,154.73926296469614L64.98555555555555,154.78812830376145L65.11555555555556,154.81744750720065L65.52,154.83503902926418L65.69333333333333,154.8455939425023L65.80888888888889,154.85192689044516L66.21333333333332,154.85572665921086L66.27111111111111,154.85800652047033L66.44444444444444,154.85937443722597L66.53111111111112,154.86019518727937L66.57444444444444,154.8606876373114L66.86333333333333,154.8609831073306L67.02222222222223,154.86116038934216L67.45555555555555,154.86126675854908L67.58555555555554,154.86133058007323L67.99000000000001,154.8613688729877L68.49555555555555,154.86139184873642L69.05888888888889,154.86140563418564L69.11666666666666,154.86141390545515L69.43444444444444,154.86141886821687L69.95444444444445,154.8614218458739L69.9688888888889,154.86142363246813L70.64777777777778,154.86142470442465L70.73444444444445,154.86142534759858L71.03777777777778,154.86142573350293L71.05222222222223,154.86142596504556L71.12444444444445,154.8614261039711L71.16777777777777,154.86142618732646L71.19666666666666,154.86142623733966L71.60111111111111,154.86142626734755L72.10666666666667,154.86142628535234L72.30888888888889,154.86631282370575L72.46777777777777,154.86924474671784L73.26222222222222,154.8710039005251L73.78222222222223,154.87205939280943L73.91222222222223,154.87269268818005L74.69222222222223,154.8730726654024L74.70666666666666,154.8733006517358L74.77888888888889,154.87343744353586L74.86555555555556,154.8735195186159L74.89444444444445,154.8735687636639L74.95222222222223,154.87359831069273L75.00999999999999,154.87361603891L75.86222222222223,154.8736266758404L76.13666666666667,154.8736330579986L76.23777777777778,154.87363688729354L76.42555555555556,154.8736391848705L76.71444444444445,154.8736405634167L76.94555555555556,154.87364139054438L77.27777777777777,154.87364188682102L77.49444444444445,154.873642184587L77.71111111111111,154.87364236324657L77.72555555555556,154.87364247044232L77.88444444444445,154.87364253475977L78.11555555555556,154.87364257335025L78.15888888888888,154.87364259650454L78.30333333333334,154.8736426103971L78.76555555555557,154.87364261873265L79.0111111111111,154.87364262373396L79.18444444444445,154.87364262673475L79.64666666666668,154.87413128129324L79.74777777777778,154.87442447402833L79.7911111111111,154.87460038966938L79.99333333333333,154.87470593905402L80.08,154.8747692686848L80.15222222222222,154.87480726646328L80.3111111111111,154.87483006513034L80.44111111111111,154.8748437443306L80.57111111111111,154.87485195185076L80.78777777777778,154.87485687636283L81.14888888888889,154.87485983107007L81.26444444444444,154.87486160389443L81.62555555555556,154.87486266758904L81.91444444444444,154.8748633058058L82.17444444444443,154.87486368873587L82.20333333333333,154.8748639184939L82.30444444444444,154.87486405634874L82.79555555555555,154.87486413906163L82.91111111111111,154.87486418868937L82.99777777777778,154.874864218466L83.08444444444444,154.87486423633197L83.21444444444444,154.87486424705156L83.89333333333333,154.87486425348334L83.92222222222222,154.87486425734238L84.08111111111111,154.8748642596578L84.71666666666665,154.87486426104707L84.76,154.87486426188065L84.87555555555555,154.87486426238078L85.02000000000001,154.87486426268083L85.30888888888889,154.8748642628609L85.33777777777779,154.8748642629689L85.4388888888889,154.87486426303374L85.54,154.87486426307262L85.61222222222223,154.87486426309596L85.8,154.87486426310997L86.04555555555555,154.87486426311835L86.2188888888889,154.87486426312338L86.27666666666666,154.87486426312643L86.36333333333333,154.87486426312825L86.37777777777777,154.87486426312933L86.49333333333334,154.87486426312998L86.97,154.87491312840288L87.15777777777777,154.87494244756658L87.33111111111111,154.8749600390648L87.40333333333334,154.87497059396375L88.08222222222223,154.87497692690312L88.21222222222222,154.87498072666673L88.31333333333333,154.8749830065249L88.61666666666666,154.8749843744398L88.92,154.87498519518874L89.02111111111111,154.87498568763814L89.78666666666666,154.87498598310776L89.90222222222222,154.87498616038954L90.24888888888889,154.87498626675858L90.75444444444445,154.87498633058001L90.94222222222223,154.87498636887287L91.11555555555556,154.8749863918486L91.17333333333333,154.87498640563402L91.21666666666667,154.87498641390528L91.3611111111111,154.87498641886802L91.50555555555556,154.8749864218457L91.6211111111111,154.8749864236323L91.63555555555556,154.87498642470425L91.66444444444444,154.87498642534743L91.93888888888888,154.8749864257333L91.99666666666667,154.87498642596486L92.25666666666666,154.8749864261038L92.3,154.87498642618715L92.31444444444445,154.87498642623714L92.35777777777777,154.87498642626716L92.58888888888889,154.87498642628518L92.73333333333333,154.87498642629598L92.82,154.87498642630246L92.96444444444445,154.87498642630635L93.44111111111111,154.87498642630865L93.47,154.87498642631007L93.52777777777777,154.8749864263109L93.72999999999999,154.8749864263114L94.11999999999999,154.87499131283934L94.32222222222222,154.8749942447561L94.35111111111111,154.87499600390618L94.53888888888889,154.87499705939618L94.92888888888889,154.87499769269021L95.0011111111111,154.8749980726666L95.13111111111111,154.87499830065246L95.28999999999999,154.874998437444L95.3911111111111,154.87499851951887L95.49222222222221,154.87499856876383L95.69444444444446,154.87499859831078L95.75222222222222,154.87499861603897L95.85333333333332,154.87499862667588L95.88222222222221,154.87499863305803L96.76333333333332,154.8749986368873L96.93666666666667,154.87499863918487L97.21111111111111,154.87499864056343L97.6588888888889,154.87499864139056L98.1211111111111,154.8749986418868L98.22222222222221,154.87499864218458L98.38111111111111,154.87499864236327L98.41,154.87499864247044L98.42444444444443,154.87499864253476L98.48222222222222,154.87499864257333L98.5111111111111,154.8749986425965L98.91555555555554,154.8749986426104L99.24777777777778,154.87499864261875L99.30555555555554,154.87499864262372L99.46444444444444,154.87499864262674L99.50777777777779,154.87499864262853L99.59444444444443,154.87499864262963L99.75333333333333,154.87499864263026L100.31666666666666,154.87499864263066L100.60555555555555,154.87499864263089L100.76444444444444,154.87499864263103L100.7788888888889,154.8749986426311L101.01,154.87499864263117L101.08222222222223,154.8749986426312L101.18333333333334,154.87499913128397L101.51555555555555,154.87499942447562L101.87666666666667,154.87499960039062L101.89111111111112,154.87499970593962L102.05,154.87499976926904L102.09333333333333,154.87499980726668L102.28111111111112,154.87499983006524L102.45444444444445,154.8749998437444L102.51222222222222,154.87499985195188L102.52666666666666,154.8749998568764L102.55555555555556,154.8749998598311L102.58444444444444,154.8749998616039L103.11888888888889,154.87499986266758L103.2488888888889,154.87499986330582L103.36444444444444,154.87499986368874L103.95666666666666,154.87499986391848L104.04333333333334,154.87499986405635L104.17333333333333,154.87499986413906L104.23111111111112,154.87499986418868L104.30333333333334,154.87499986421847L104.44777777777777,154.87499986423634L104.52000000000001,154.87499986424706L104.76555555555555,154.87499986425348L104.86666666666666,154.87499986425735L105.48777777777778,154.87499986425968L105.56,154.87499986426104L105.73333333333333,154.8749998642619L105.92111111111112,154.87499986426238L106.25333333333333,154.8749998642627L106.55666666666667,154.87499986426286L106.61444444444444,154.87499986426297L106.68666666666667,154.87499986426303L106.91777777777777,154.8749998642631L106.93222222222222,154.8749998642631L107.17777777777778,154.87499986426312L107.26444444444445,154.87499986426312L107.35111111111112,154.87499986426312L107.49555555555555,154.87499986426312L107.74111111111111,154.87499986426312L107.85666666666667,154.87499986426312L108.31888888888889,154.87499991312842L108.36222222222223,154.87499994244757L108.3911111111111,154.87499996003908L108.62222222222223,154.87499997059396L109.2,154.8749999769269L109.31555555555556,154.87499998072667L109.51777777777778,154.87499998300652L110.18222222222222,154.87499998437443L110.38444444444445,154.8749999851952L110.64444444444445,154.87499998568765L111.09222222222222,154.8749999859831L111.48222222222222,154.8749999861604L112.11777777777777,154.87499998626677L112.3488888888889,154.87499998633058L112.45,154.8749999863689L112.53666666666668,154.87499998639183L113.33111111111111,154.87499998640564L113.43222222222222,154.8749999864139L113.5188888888889,154.87499998641889L113.56222222222222,154.87499998642184L113.63444444444444,154.87499998642363L113.73555555555556,154.87499998642468L113.89444444444443,154.87499998642534L114.01,154.87499998642573L114.63111111111111,154.87499998642596L114.77555555555554,154.8749999864261L114.80444444444444,154.8749999864262L114.84777777777778,154.87499998642622L114.89111111111112,154.87499998642627L114.94888888888889,154.87499998642627L115.13666666666667,154.8749999864263L115.18,154.8749999864263L115.4688888888889,154.8749999864263L115.61333333333333,154.87499999131282L115.68555555555555,154.87499999424475L115.77222222222223,154.8749999960039L115.81555555555555,154.8749999970594L115.9888888888889,154.8749999976927L116.03222222222222,154.87499999807267L116.06111111111112,154.87499999830067L116.07555555555555,154.87499999843743L116.65333333333334,154.8749999985195L116.74000000000001,154.87499999856877L117,154.87499999859833L117.13000000000001,154.87499999861603L117.1588888888889,154.87499999862666L117.20222222222222,154.87499999863306L117.41888888888889,154.8749999986369L117.66444444444444,154.8749999986392L118.09777777777778,154.87499999864056L118.21333333333334,154.87499999864139L118.41555555555556,154.8749999986419L118.43,154.87499999864218L118.63222222222223,154.87499999864235L118.95,154.87499999864247L119.34,154.87499999864252L119.38333333333334,154.87499999864258L119.80222222222223,154.87499999864258L120.0188888888889,154.8749999986426L120.27888888888889,154.87499999864264L120.53888888888888,154.87499999864264L120.56777777777778,154.87499999864264L120.61111111111111,154.87499999864264L120.95777777777778,154.87499999864264L121.03,154.87499999864264L121.23222222222222,154.87499999864264L121.26111111111112,154.87499999864264L121.27555555555556,154.87499999864264L121.31888888888888,154.87499999864264L121.53555555555556,154.87499999864264L121.88222222222223,154.87499999864264L122.18555555555555,154.87499999864264L122.25777777777778,154.87499999864264L122.43111111111112,154.87499999864264L122.63333333333334,154.87499999864264L123.32666666666667,154.8749999991313L123.42777777777778,154.87499999942446L123.52888888888889,154.8749999996004L123.54333333333334,154.87499999970595L123.60111111111112,154.87499999976927L123.87555555555555,154.87499999980727L124.03444444444445,154.87499999983007L124.13555555555556,154.87499999984374L124.30888888888889,154.87499999985195L124.67,154.87499999985687L124.95888888888888,154.87499999985982L125.21888888888888,154.8749999998616L125.24777777777777,154.87499999986267L125.52222222222221,154.87499999986332L125.56555555555556,154.8749999998637L125.72444444444444,154.87499999986392L125.73888888888888,154.87499999986406L126.24444444444445,154.87499999986414L126.33111111111111,154.8749999998642L126.49,154.8749999998642L126.7211111111111,154.87499999986423L126.82222222222222,154.87499999986426L126.92333333333335,154.87499999986426L126.93777777777778,154.87499999986426L127.02444444444446,154.87499999986426L127.09666666666666,154.87499999986426L127.27,154.87499999986426L127.34222222222222,154.87499999986426L127.44333333333333,154.87499999986426L127.55888888888889,154.87499999986426L127.74666666666667,154.87499999986426L127.81888888888889,154.87499999986426L128.03555555555556,154.87499999986426L128.13666666666666,154.87499999986426L128.1511111111111,154.87499999986426L128.18,154.87499999986426L128.35333333333332,154.87499999986426L128.96,154.87499999986426L129.07555555555555,154.87499999986426L129.40777777777777,154.87499999986426L130.01444444444445,154.87499999991311L130.13,154.87499999994245L130.3177777777778,154.87499999996004L130.95333333333335,154.8749999999706L131.0977777777778,154.87499999997692L131.31444444444446,154.87499999998073L131.54555555555555,154.874999999983L131.86333333333334,154.87499999998437L131.8777777777778,154.8749999999852L132.00777777777776,154.8749999999857L132.1811111111111,154.874999999986L132.20999999999998,154.87499999998616L132.29666666666668,154.87499999998627L133.38,154.87499999998633L133.42333333333332,154.87499999998636L133.85666666666668,154.87499999998641L133.8711111111111,154.87499999998641L133.94333333333333,154.87499999998641L134.11666666666667,154.87499999998641L134.1311111111111,154.87499999998641L134.20333333333332,154.87499999998641L134.34777777777776,154.87499999998641L134.86777777777777,154.87499999998641L135.60444444444445,154.87499999998641L135.64777777777778,154.87499999998641L135.83555555555557,154.87499999998641L136.2111111111111,154.87499999998641L136.29777777777778,154.87499999998641L136.60111111111112,154.87499999998641L136.61555555555557,154.87499999998641L137.1211111111111,154.87499999998641L137.39555555555557,154.8749999999913L137.65555555555557,154.87499999999423L137.78555555555556,154.874999999996L138.2188888888889,154.87499999999704L138.66666666666666,154.8749999999977L138.8111111111111,154.87499999999807L138.82555555555555,154.87499999999832L138.94111111111113,154.87499999999844L139.1577777777778,154.8749999999985L139.2588888888889,154.87499999999858L139.30222222222224,154.8749999999986L139.48999999999998,154.87499999999864L139.57666666666668,154.87499999999864L139.73555555555555,154.87499999999864L139.92333333333335,154.87499999999864L139.96666666666667,154.87499999999864L140.0533333333333,154.87499999999864L140.2988888888889,154.87499999999864L140.38555555555556,154.87499999999864L140.51555555555555,154.87499999999864L140.77555555555554,154.87499999999864L141.03555555555553,154.87499999999864L141.04999999999998,154.87499999999864L141.5988888888889,154.87499999999864L142.20555555555555,154.87499999999864L142.40777777777777,154.87499999999864L142.56666666666666,154.87499999999864L143.41888888888892,154.87499999999864L143.4477777777778,154.87499999999864L143.4911111111111,154.87499999999864L143.5922222222222,154.87499999999864L143.6788888888889,154.87499999999864L143.92444444444445,154.87499999999864L143.96777777777777,154.87499999999864L144.0688888888889,154.87499999999864L144.47333333333333,154.87499999999915L145.02222222222224,154.87499999999943L145.26777777777778,154.8749999999996L145.58555555555557,154.87499999999972L145.74444444444444,154.87499999999977L145.84555555555556,154.8749999999998L146.17777777777778,154.87499999999983L146.42333333333335,154.87499999999983L146.48111111111112,154.87499999999983L146.5677777777778,154.87499999999986L146.61111111111111,154.87499999999986L146.7122222222222,154.87499999999986L146.77,154.87499999999986L147.27555555555554,154.87499999999986L147.81,154.87499999999986L148.47444444444443,154.87499999999986L148.64777777777778,154.87499999999986L148.66222222222223,154.87499999999986L148.7488888888889,154.87499999999986L148.93666666666667,154.87499999999986L149.12444444444446,154.87499999999986L149.9477777777778,154.87499999999986L150.1211111111111,154.87499999999986L150.5688888888889,154.87499999999986L150.7422222222222,154.87499999999986L150.87222222222223,154.87499999999986L150.94444444444446,154.87499999999986L150.95888888888888,154.87499999999986L150.97333333333333,154.87499999999986L151.40666666666667,154.87499999999986L151.4211111111111,154.87499999999986L151.9411111111111,154.87499999999991L152.07111111111112,154.87499999999994L152.18666666666667,154.87499999999997L152.63444444444445,154.87499999999997L152.66333333333333,154.87499999999997L153.0822222222222,154.87499999999997L153.60222222222222,154.87499999999997L153.87666666666667,154.87499999999997L153.9633333333333,154.87499999999997L154.0066666666667,154.87499999999997L154.1222222222222,154.87499999999997L154.55555555555554,154.87499999999997L154.77222222222224,154.87499999999997L154.85888888888888,154.87499999999997L154.9888888888889,154.87499999999997L155.09,154.87499999999997L155.42222222222222,154.87499999999997L155.55222222222224,154.87499999999997L155.87,154.87499999999997L156.01444444444445,154.87499999999997L156.1011111111111,154.87499999999997L156.13,154.87499999999997L156.1588888888889,154.87499999999997L156.39000000000001,154.87499999999997L156.60666666666668,154.87499999999997L156.9677777777778,154.87499999999997L157.02555555555554,154.87499999999997L157.0688888888889,154.87499999999997L157.15555555555557,154.87499999999997L157.2711111111111,154.87499999999997L157.3288888888889,154.87499999999997L157.5022222222222,154.87499999999997L157.53111111111113,154.87499999999997L157.7188888888889,154.87499999999997L158.19555555555556,154.87499999999997L158.38333333333333,154.87499999999997L158.51333333333335,154.87499999999997L158.85999999999999,154.87499999999997L159.20666666666665,154.875L159.48111111111112,154.875L159.85666666666668,154.875L159.94333333333333,154.875L159.98666666666665,154.875L160.0011111111111,154.875L160.13111111111112,154.875L160.27555555555557,154.875L160.34777777777776,154.875L160.39111111111112,154.875L160.94,154.875L160.95444444444445,154.875L161.51777777777778,154.875L161.59,154.875L161.61888888888888,154.875L161.89333333333335,154.875L162.60111111111112,154.875L163.19333333333336,154.875L163.25111111111113,154.875L163.26555555555555,154.875L163.45333333333335,154.875L163.56888888888886,154.875L163.72777777777776,154.875L163.75666666666666,154.875L163.7711111111111,154.875L164.13222222222223,154.875L164.27666666666667,154.875L164.32,154.875L164.36333333333334,154.875L164.39222222222224,154.875L164.46444444444444,154.875L164.88333333333333,154.875L164.91222222222223,154.875L165.21555555555557,154.875L165.23,154.875L165.36,154.875L165.70666666666665,154.875L166.0388888888889,154.875L166.05333333333334,154.875L166.09666666666666,154.875L166.29888888888888,154.875L166.7177777777778,154.875L167.0211111111111,154.875L167.03555555555556,154.875L167.58444444444444,154.875L167.84444444444443,154.875L167.90222222222224,154.875L168.16222222222223,154.875L168.30666666666667,154.875L168.74,154.875L168.76888888888888,154.875L169.4911111111111,154.875L169.65,154.875L169.76555555555555,154.875L170.05444444444444,154.875L170.12666666666667,154.875L170.3722222222222,154.875L170.4588888888889,154.875L170.56,154.875L170.69,154.875L170.92111111111112,154.875L171.16666666666666,154.875L171.3111111111111,154.875L171.35444444444443,154.875L172.65444444444444,154.875L173.08777777777777,154.875L173.24666666666667,154.875L173.34777777777776,154.875L173.36222222222221,154.875L173.68,154.875L173.9977777777778,154.875L174.21444444444444,154.875L174.3011111111111,154.875L175.0377777777778,154.875L175.0811111111111,154.875L175.09555555555553,154.875L175.22555555555556,154.875L175.48555555555555,154.875L175.70222222222222,154.875L175.8322222222222,154.875L175.89,154.875L176.33777777777777,154.875L176.8722222222222,154.875L177.0311111111111,154.875L177.19,154.875L177.23333333333332,154.875L177.37777777777777,154.875L177.63777777777776,154.875L177.72444444444446,154.875L177.75333333333333,154.875L177.79666666666665,154.875L178.41777777777776,154.875L178.54777777777778,154.875L178.56222222222223,154.875L178.95222222222222,154.875L179.05333333333334,154.875L179.08222222222224,154.875L179.18333333333334,154.875L179.24111111111114,154.875L179.29888888888888,154.875L179.31333333333333,154.875L179.34222222222223,154.875L179.45777777777778,154.875L179.64555555555557,154.875L179.89111111111112,154.875L180.05,154.875L180.06444444444446,154.875L180.13666666666666,154.875L180.42555555555558,154.875L180.49777777777777,154.875L180.91666666666666,154.875L180.9311111111111,154.875L181.33555555555554,154.875L181.5088888888889,154.875L181.61,154.875L181.85555555555555,154.875L183.5022222222222,154.875L183.60333333333335,154.875L183.63222222222223,154.875L183.79111111111112,154.875L183.96444444444447,154.875L184.10888888888888,154.875L184.13777777777779,154.875L184.1811111111111,154.875L184.3111111111111,154.875L184.32555555555555,154.875L184.55666666666667,154.875L184.67222222222222,154.875L184.77333333333334,154.875L184.91777777777776,154.875L184.9466666666667,154.875L184.9611111111111,154.875L185.19222222222223,154.875L185.25,154.875L185.3077777777778,154.875L185.69777777777776,154.875L185.82777777777778,154.875L185.97222222222223,154.875L186.69444444444446,154.875L186.89666666666668,154.875L186.98333333333332,154.875L187.37333333333333,154.875L187.4311111111111,154.875L187.76333333333332,154.875L188.23999999999998,154.875L188.32666666666668,154.875L188.38444444444443,154.875L188.45666666666668,154.875L188.5288888888889,154.875L188.70222222222222,154.875L188.7888888888889,154.875L189.0488888888889,154.875L189.07777777777778,154.875L190.13222222222223,154.875L190.23333333333335,154.875L190.53666666666666,154.875L190.9988888888889,154.875L191.05666666666667,154.875L191.21555555555557,154.875L191.43222222222224,154.875L191.89444444444445,154.875L191.95222222222222,154.875L192.31333333333333,154.875L192.61666666666667,154.875L192.93444444444444,154.875L192.94888888888892,154.875L193.1222222222222,154.875L193.3388888888889,154.875L193.36777777777777,154.875L193.55555555555557,154.875L193.7288888888889,154.875L193.9022222222222,154.875L194.00333333333333,154.875L194.04666666666665,154.875L194.10444444444443,154.875L194.3788888888889,154.875L194.5811111111111,154.875L194.61,154.875L194.71111111111114,154.875L195.10111111111112,154.875L195.11555555555557,154.875L195.26,154.875L195.28888888888886,154.875L196.25666666666666,154.875L196.34333333333333,154.875L196.57444444444445,154.875L196.95,154.875L197.29666666666668,154.875L197.35444444444445,154.875L197.58555555555554,154.875L197.81666666666666,154.875L197.84555555555556,154.875L197.86,154.875L198.8711111111111,154.875L198.9,154.875L199.07333333333335,154.875L199.29,154.875L199.36222222222221,154.875L199.73777777777778,154.875L199.9111111111111,154.875L199.92555555555555,154.875L200.11333333333334,154.875L200.12777777777777,154.875L200.3011111111111,154.875L200.35888888888888,154.875L200.6188888888889,154.875L200.79222222222222,154.875L200.90777777777777,154.875L201.18222222222224,154.875L201.42777777777778,154.875L202.20777777777778,154.875L202.49666666666667,154.875L202.54000000000002,154.875L202.74222222222224,154.875L202.8,154.875L203.06,154.875L203.16111111111113,154.875L203.43555555555557,154.875L203.60888888888888,154.875L203.66666666666666,154.875L203.92666666666668,154.875L204.04222222222222,154.875L204.20111111111112,154.875L204.5188888888889,154.875L204.70666666666668,154.875L204.79333333333332,154.875L204.8511111111111,154.875L205.2988888888889,154.875L205.79,154.875L205.9488888888889,154.875L205.9922222222222,154.875L206.00666666666666,154.875L206.09333333333333,154.875L206.4111111111111,154.875L206.61333333333332,154.875L207.00333333333333,154.875L207.23444444444442,154.875L207.33555555555554,154.875L207.65333333333334,154.875L207.68222222222224,154.875L208.05777777777777,154.875L208.20222222222222,154.875L208.31777777777776,154.875L208.3322222222222,154.875L208.37555555555554,154.875L208.57777777777775,154.875L209.15555555555554,154.875L209.17,154.875L209.2277777777778,154.875L209.48777777777778,154.875L210.06555555555556,154.875L210.18111111111114,154.875L210.48444444444445,154.875L210.65777777777777,154.875L210.8311111111111,154.875L211.00444444444446,154.875L211.72666666666666,154.875L211.82777777777778,154.875L211.94333333333336,154.875L212.17444444444445,154.875L212.21777777777777,154.875L212.31888888888886,154.875L212.57888888888888,154.875L212.6511111111111,154.875L212.75222222222223,154.875L212.9111111111111,154.875L213.02666666666667,154.875L213.1277777777778,154.875L213.33,154.875L213.80666666666667,154.875L214.09555555555556,154.875L214.18222222222224,154.875L214.64444444444445,154.875L214.90444444444447,154.875L215.00555555555556,154.875L215.17888888888888,154.875L215.3088888888889,154.875L215.51111111111112,154.875L215.5688888888889,154.875L215.79999999999998,154.875L215.88666666666668,154.875L216.2477777777778,154.875L216.29111111111112,154.875L216.30555555555557,154.875L216.49333333333334,154.875L217.2588888888889,154.875L217.49,154.875L217.5911111111111,154.875L217.92333333333332,154.875L218.02444444444447,154.875L218.0677777777778,154.875L218.0822222222222,154.875L218.15444444444444,154.875L218.2411111111111,154.875L218.29888888888888,154.875L218.35666666666665,154.875L218.77555555555554,154.875L219.16555555555556,154.875L219.29555555555555,154.875L219.49777777777777,154.875L219.5988888888889,154.875L219.81555555555556,154.875L220.01777777777778,154.875L220.07555555555555,154.875L220.4077777777778,154.875L221.20222222222222,154.875L221.53444444444446,154.875L221.60666666666668,154.875L222.60333333333332,154.875L222.61777777777777,154.875L223.13777777777779,154.875L223.1811111111111,154.875L223.32555555555555,154.875L223.39777777777778,154.875L223.57111111111112,154.875L223.65777777777777,154.875L223.9611111111111,154.875L224.56777777777776,154.875L224.68333333333334,154.875L224.9288888888889,154.875L224.98666666666665,154.875L225.07333333333335,154.875L225.11666666666667,154.875L225.44888888888892,154.875L225.63666666666666,154.875L225.99777777777777,154.875L226.35888888888888,154.875L226.83555555555557,154.875L227.05222222222224,154.875L227.63,154.875L227.6588888888889,154.875L227.74555555555554,154.875L227.80333333333334,154.875L228.00555555555556,154.875L228.35222222222222,154.875L229.01666666666668,154.875L229.13222222222223,154.875L229.20444444444445,154.875L229.24777777777777,154.875L229.26222222222222,154.875L229.49333333333334,154.875L229.5222222222222,154.875L229.53666666666666,154.875L229.65222222222224,154.875L229.76777777777778,154.875L229.78222222222223,154.875L229.8111111111111,154.875L230.21555555555557,154.875L230.24444444444444,154.875L230.33111111111108,154.875L230.38888888888889,154.875L230.67777777777778,154.875L230.75,154.875L230.7788888888889,154.875L231.05333333333334,154.875L231.1688888888889,154.875L231.5588888888889,154.875L231.60222222222222,154.875L231.61666666666667,154.875L231.80444444444444,154.875L231.8911111111111,154.875L231.9777777777778,154.875L232.10777777777778,154.875" style="fill: none;" fill="none"></path></g></g></g></g><g opacity="0.2"><g><g><g><path stroke="rgb(255, 112, 67)" stroke-width="2px" d="M35.96666666666667,-1202.493731405586L36.35666666666667,19.13812170806341L36.70333333333333,19.13812170806341L37.208888888888886,19.13812170806341L37.67111111111112,19.13812170806341L37.74333333333333,19.13812170806341L38.01777777777778,19.13812170806341L38.321111111111115,19.13812170806341L38.48,19.13812170806341L38.92777777777778,19.13812170806341L39.245555555555555,19.13812170806341L39.47666666666667,19.13812170806341L39.56333333333333,19.13812170806341L39.635555555555555,19.13812170806341L39.736666666666665,19.13812170806341L39.82333333333334,19.13812170806341L39.83777777777778,19.13812170806341L39.86666666666666,19.13812170806341L40.011111111111106,19.13812170806341L40.61777777777778,19.13812170806341L40.675555555555555,19.13812170806341L40.776666666666664,19.13812170806341L40.79111111111111,19.13812170806341L40.86333333333334,19.13812170806341L40.964444444444446,19.13812170806341L41.58555555555556,19.13812170806341L41.64333333333334,19.13812170806341L42.17777777777778,19.13812170806341L42.596666666666664,19.13812170806341L43.05888888888889,19.13812170806341L43.087777777777774,19.13812170806341L43.477777777777774,141.30131217080634L43.72333333333333,141.30131217080634L43.73777777777778,141.30131217080634L44.12777777777778,141.30131217080634L44.21444444444444,141.30131217080634L44.272222222222226,141.30131217080634L44.60444444444444,141.30131217080634L44.77777777777778,141.30131217080634L45.35555555555556,141.30131217080634L45.38444444444444,141.30131217080634L45.39888888888889,141.30131217080634L45.471111111111114,141.30131217080634L45.5,141.30131217080634L46.00555555555555,141.30131217080634L46.32333333333333,141.30131217080634L46.38111111111112,141.30131217080634L46.59777777777778,141.30131217080634L46.684444444444445,141.30131217080634L46.69888888888889,141.30131217080634L46.973333333333336,141.30131217080634L47.01666666666667,141.30131217080634L47.10333333333333,141.30131217080634L47.11777777777778,141.30131217080634L47.30555555555555,141.30131217080634L47.85444444444445,141.30131217080634L48.08555555555555,141.30131217080634L48.12888888888889,141.30131217080634L48.20111111111111,141.30131217080634L48.69222222222222,141.30131217080634L48.822222222222216,141.30131217080634L49.660000000000004,141.30131217080634L50.00666666666667,141.30131217080634L50.16555555555556,141.30131217080634L50.68555555555556,153.51763121708063L50.83,153.51763121708063L51.66777777777778,153.51763121708063L51.74,153.51763121708063L51.971111111111114,153.51763121708063L52.11555555555556,153.51763121708063L52.41888888888889,153.51763121708063L52.44777777777778,153.51763121708063L52.60666666666667,153.51763121708063L52.635555555555555,153.51763121708063L52.751111111111115,153.51763121708063L52.95333333333333,153.51763121708063L53.01111111111111,153.51763121708063L53.184444444444445,153.51763121708063L54.15222222222222,153.51763121708063L54.845555555555556,153.51763121708063L55.29333333333334,153.51763121708063L55.69777777777778,153.51763121708063L55.871111111111105,153.51763121708063L56.00111111111111,153.51763121708063L56.03,153.51763121708063L56.102222222222224,153.51763121708063L56.14555555555555,153.51763121708063L56.20333333333333,153.51763121708063L56.275555555555556,153.51763121708063L56.36222222222223,153.51763121708063L56.44888888888889,153.51763121708063L56.607777777777784,153.51763121708063L56.66555555555556,153.51763121708063L56.79555555555555,153.51763121708063L56.89666666666666,153.51763121708063L56.94,153.51763121708063L57.12777777777778,153.51763121708063L57.142222222222216,153.51763121708063L57.214444444444446,153.51763121708063L57.22888888888889,153.51763121708063L57.33,153.51763121708063L57.373333333333335,153.51763121708063L58.18222222222222,154.7392631267387L58.196666666666665,154.7392631267387L58.297777777777775,154.7392631267387L58.31222222222222,154.7392631267387L58.32666666666667,154.7392631267387L59.06333333333333,154.7392631267387L59.15,154.7392631267387L59.16444444444445,154.7392631267387L59.236666666666665,154.7392631267387L59.337777777777774,154.7392631267387L59.69888888888889,154.7392631267387L59.87222222222222,154.7392631267387L60.03111111111111,154.7392631267387L60.32,154.7392631267387L60.36333333333333,154.7392631267387L60.45,154.7392631267387L60.565555555555555,154.7392631267387L60.71,154.7392631267387L61.562222222222225,154.7392631267387L61.59111111111111,154.7392631267387L62.111111111111114,154.7392631267387L62.284444444444446,154.7392631267387L62.80444444444444,154.7392631267387L62.833333333333336,154.7392631267387L63.00666666666667,154.7392631267387L63.324444444444445,154.7392631267387L63.483333333333334,154.7392631267387L63.815555555555555,154.7392631267387L64.20555555555555,154.7392631267387L64.40777777777778,154.7392631267387L64.72555555555556,154.7392631267387L64.98555555555555,154.86142631235947L65.11555555555556,154.86142631235947L65.52,154.86142631235947L65.69333333333333,154.86142631235947L65.80888888888889,154.86142631235947L66.21333333333332,154.86142631235947L66.27111111111111,154.86142631235947L66.44444444444444,154.86142631235947L66.53111111111112,154.86142631235947L66.57444444444444,154.86142631235947L66.86333333333333,154.86142631235947L67.02222222222223,154.86142631235947L67.45555555555555,154.86142631235947L67.58555555555554,154.86142631235947L67.99000000000001,154.86142631235947L68.49555555555555,154.86142631235947L69.05888888888889,154.86142631235947L69.11666666666666,154.86142631235947L69.43444444444444,154.86142631235947L69.95444444444445,154.86142631235947L69.9688888888889,154.86142631235947L70.64777777777778,154.86142631235947L70.73444444444445,154.86142631235947L71.03777777777778,154.86142631235947L71.05222222222223,154.86142631235947L71.12444444444445,154.86142631235947L71.16777777777777,154.86142631235947L71.19666666666666,154.86142631235947L71.60111111111111,154.86142631235947L72.10666666666667,154.86142631235947L72.30888888888889,154.87364263123595L72.46777777777777,154.87364263123595L73.26222222222222,154.87364263123595L73.78222222222223,154.87364263123595L73.91222222222223,154.87364263123595L74.69222222222223,154.87364263123595L74.70666666666666,154.87364263123595L74.77888888888889,154.87364263123595L74.86555555555556,154.87364263123595L74.89444444444445,154.87364263123595L74.95222222222223,154.87364263123595L75.00999999999999,154.87364263123595L75.86222222222223,154.87364263123595L76.13666666666667,154.87364263123595L76.23777777777778,154.87364263123595L76.42555555555556,154.87364263123595L76.71444444444445,154.87364263123595L76.94555555555556,154.87364263123595L77.27777777777777,154.87364263123595L77.49444444444445,154.87364263123595L77.71111111111111,154.87364263123595L77.72555555555556,154.87364263123595L77.88444444444445,154.87364263123595L78.11555555555556,154.87364263123595L78.15888888888888,154.87364263123595L78.30333333333334,154.87364263123595L78.76555555555557,154.87364263123595L79.0111111111111,154.87364263123595L79.18444444444445,154.87364263123595L79.64666666666668,154.87486426313097L79.74777777777778,154.87486426313097L79.7911111111111,154.87486426313097L79.99333333333333,154.87486426313097L80.08,154.87486426313097L80.15222222222222,154.87486426313097L80.3111111111111,154.87486426313097L80.44111111111111,154.87486426313097L80.57111111111111,154.87486426313097L80.78777777777778,154.87486426313097L81.14888888888889,154.87486426313097L81.26444444444444,154.87486426313097L81.62555555555556,154.87486426313097L81.91444444444444,154.87486426313097L82.17444444444443,154.87486426313097L82.20333333333333,154.87486426313097L82.30444444444444,154.87486426313097L82.79555555555555,154.87486426313097L82.91111111111111,154.87486426313097L82.99777777777778,154.87486426313097L83.08444444444444,154.87486426313097L83.21444444444444,154.87486426313097L83.89333333333333,154.87486426313097L83.92222222222222,154.87486426313097L84.08111111111111,154.87486426313097L84.71666666666665,154.87486426313097L84.76,154.87486426313097L84.87555555555555,154.87486426313097L85.02000000000001,154.87486426313097L85.30888888888889,154.87486426313097L85.33777777777779,154.87486426313097L85.4388888888889,154.87486426313097L85.54,154.87486426313097L85.61222222222223,154.87486426313097L85.8,154.87486426313097L86.04555555555555,154.87486426313097L86.2188888888889,154.87486426313097L86.27666666666666,154.87486426313097L86.36333333333333,154.87486426313097L86.37777777777777,154.87486426313097L86.49333333333334,154.87486426313097L86.97,154.87498642631218L87.15777777777777,154.87498642631218L87.33111111111111,154.87498642631218L87.40333333333334,154.87498642631218L88.08222222222223,154.87498642631218L88.21222222222222,154.87498642631218L88.31333333333333,154.87498642631218L88.61666666666666,154.87498642631218L88.92,154.87498642631218L89.02111111111111,154.87498642631218L89.78666666666666,154.87498642631218L89.90222222222222,154.87498642631218L90.24888888888889,154.87498642631218L90.75444444444445,154.87498642631218L90.94222222222223,154.87498642631218L91.11555555555556,154.87498642631218L91.17333333333333,154.87498642631218L91.21666666666667,154.87498642631218L91.3611111111111,154.87498642631218L91.50555555555556,154.87498642631218L91.6211111111111,154.87498642631218L91.63555555555556,154.87498642631218L91.66444444444444,154.87498642631218L91.93888888888888,154.87498642631218L91.99666666666667,154.87498642631218L92.25666666666666,154.87498642631218L92.3,154.87498642631218L92.31444444444445,154.87498642631218L92.35777777777777,154.87498642631218L92.58888888888889,154.87498642631218L92.73333333333333,154.87498642631218L92.82,154.87498642631218L92.96444444444445,154.87498642631218L93.44111111111111,154.87498642631218L93.47,154.87498642631218L93.52777777777777,154.87498642631218L93.72999999999999,154.87498642631218L94.11999999999999,154.87499864263123L94.32222222222222,154.87499864263123L94.35111111111111,154.87499864263123L94.53888888888889,154.87499864263123L94.92888888888889,154.87499864263123L95.0011111111111,154.87499864263123L95.13111111111111,154.87499864263123L95.28999999999999,154.87499864263123L95.3911111111111,154.87499864263123L95.49222222222221,154.87499864263123L95.69444444444446,154.87499864263123L95.75222222222222,154.87499864263123L95.85333333333332,154.87499864263123L95.88222222222221,154.87499864263123L96.76333333333332,154.87499864263123L96.93666666666667,154.87499864263123L97.21111111111111,154.87499864263123L97.6588888888889,154.87499864263123L98.1211111111111,154.87499864263123L98.22222222222221,154.87499864263123L98.38111111111111,154.87499864263123L98.41,154.87499864263123L98.42444444444443,154.87499864263123L98.48222222222222,154.87499864263123L98.5111111111111,154.87499864263123L98.91555555555554,154.87499864263123L99.24777777777778,154.87499864263123L99.30555555555554,154.87499864263123L99.46444444444444,154.87499864263123L99.50777777777779,154.87499864263123L99.59444444444443,154.87499864263123L99.75333333333333,154.87499864263123L100.31666666666666,154.87499864263123L100.60555555555555,154.87499864263123L100.76444444444444,154.87499864263123L100.7788888888889,154.87499864263123L101.01,154.87499864263123L101.08222222222223,154.87499864263123L101.18333333333334,154.87499986426312L101.51555555555555,154.87499986426312L101.87666666666667,154.87499986426312L101.89111111111112,154.87499986426312L102.05,154.87499986426312L102.09333333333333,154.87499986426312L102.28111111111112,154.87499986426312L102.45444444444445,154.87499986426312L102.51222222222222,154.87499986426312L102.52666666666666,154.87499986426312L102.55555555555556,154.87499986426312L102.58444444444444,154.87499986426312L103.11888888888889,154.87499986426312L103.2488888888889,154.87499986426312L103.36444444444444,154.87499986426312L103.95666666666666,154.87499986426312L104.04333333333334,154.87499986426312L104.17333333333333,154.87499986426312L104.23111111111112,154.87499986426312L104.30333333333334,154.87499986426312L104.44777777777777,154.87499986426312L104.52000000000001,154.87499986426312L104.76555555555555,154.87499986426312L104.86666666666666,154.87499986426312L105.48777777777778,154.87499986426312L105.56,154.87499986426312L105.73333333333333,154.87499986426312L105.92111111111112,154.87499986426312L106.25333333333333,154.87499986426312L106.55666666666667,154.87499986426312L106.61444444444444,154.87499986426312L106.68666666666667,154.87499986426312L106.91777777777777,154.87499986426312L106.93222222222222,154.87499986426312L107.17777777777778,154.87499986426312L107.26444444444445,154.87499986426312L107.35111111111112,154.87499986426312L107.49555555555555,154.87499986426312L107.74111111111111,154.87499986426312L107.85666666666667,154.87499986426312L108.31888888888889,154.8749999864263L108.36222222222223,154.8749999864263L108.3911111111111,154.8749999864263L108.62222222222223,154.8749999864263L109.2,154.8749999864263L109.31555555555556,154.8749999864263L109.51777777777778,154.8749999864263L110.18222222222222,154.8749999864263L110.38444444444445,154.8749999864263L110.64444444444445,154.8749999864263L111.09222222222222,154.8749999864263L111.48222222222222,154.8749999864263L112.11777777777777,154.8749999864263L112.3488888888889,154.8749999864263L112.45,154.8749999864263L112.53666666666668,154.8749999864263L113.33111111111111,154.8749999864263L113.43222222222222,154.8749999864263L113.5188888888889,154.8749999864263L113.56222222222222,154.8749999864263L113.63444444444444,154.8749999864263L113.73555555555556,154.8749999864263L113.89444444444443,154.8749999864263L114.01,154.8749999864263L114.63111111111111,154.8749999864263L114.77555555555554,154.8749999864263L114.80444444444444,154.8749999864263L114.84777777777778,154.8749999864263L114.89111111111112,154.8749999864263L114.94888888888889,154.8749999864263L115.13666666666667,154.8749999864263L115.18,154.8749999864263L115.4688888888889,154.8749999864263L115.61333333333333,154.87499999864264L115.68555555555555,154.87499999864264L115.77222222222223,154.87499999864264L115.81555555555555,154.87499999864264L115.9888888888889,154.87499999864264L116.03222222222222,154.87499999864264L116.06111111111112,154.87499999864264L116.07555555555555,154.87499999864264L116.65333333333334,154.87499999864264L116.74000000000001,154.87499999864264L117,154.87499999864264L117.13000000000001,154.87499999864264L117.1588888888889,154.87499999864264L117.20222222222222,154.87499999864264L117.41888888888889,154.87499999864264L117.66444444444444,154.87499999864264L118.09777777777778,154.87499999864264L118.21333333333334,154.87499999864264L118.41555555555556,154.87499999864264L118.43,154.87499999864264L118.63222222222223,154.87499999864264L118.95,154.87499999864264L119.34,154.87499999864264L119.38333333333334,154.87499999864264L119.80222222222223,154.87499999864264L120.0188888888889,154.87499999864264L120.27888888888889,154.87499999864264L120.53888888888888,154.87499999864264L120.56777777777778,154.87499999864264L120.61111111111111,154.87499999864264L120.95777777777778,154.87499999864264L121.03,154.87499999864264L121.23222222222222,154.87499999864264L121.26111111111112,154.87499999864264L121.27555555555556,154.87499999864264L121.31888888888888,154.87499999864264L121.53555555555556,154.87499999864264L121.88222222222223,154.87499999864264L122.18555555555555,154.87499999864264L122.25777777777778,154.87499999864264L122.43111111111112,154.87499999864264L122.63333333333334,154.87499999864264L123.32666666666667,154.87499999986426L123.42777777777778,154.87499999986426L123.52888888888889,154.87499999986426L123.54333333333334,154.87499999986426L123.60111111111112,154.87499999986426L123.87555555555555,154.87499999986426L124.03444444444445,154.87499999986426L124.13555555555556,154.87499999986426L124.30888888888889,154.87499999986426L124.67,154.87499999986426L124.95888888888888,154.87499999986426L125.21888888888888,154.87499999986426L125.24777777777777,154.87499999986426L125.52222222222221,154.87499999986426L125.56555555555556,154.87499999986426L125.72444444444444,154.87499999986426L125.73888888888888,154.87499999986426L126.24444444444445,154.87499999986426L126.33111111111111,154.87499999986426L126.49,154.87499999986426L126.7211111111111,154.87499999986426L126.82222222222222,154.87499999986426L126.92333333333335,154.87499999986426L126.93777777777778,154.87499999986426L127.02444444444446,154.87499999986426L127.09666666666666,154.87499999986426L127.27,154.87499999986426L127.34222222222222,154.87499999986426L127.44333333333333,154.87499999986426L127.55888888888889,154.87499999986426L127.74666666666667,154.87499999986426L127.81888888888889,154.87499999986426L128.03555555555556,154.87499999986426L128.13666666666666,154.87499999986426L128.1511111111111,154.87499999986426L128.18,154.87499999986426L128.35333333333332,154.87499999986426L128.96,154.87499999986426L129.07555555555555,154.87499999986426L129.40777777777777,154.87499999986426L130.01444444444445,154.87499999998641L130.13,154.87499999998641L130.3177777777778,154.87499999998641L130.95333333333335,154.87499999998641L131.0977777777778,154.87499999998641L131.31444444444446,154.87499999998641L131.54555555555555,154.87499999998641L131.86333333333334,154.87499999998641L131.8777777777778,154.87499999998641L132.00777777777776,154.87499999998641L132.1811111111111,154.87499999998641L132.20999999999998,154.87499999998641L132.29666666666668,154.87499999998641L133.38,154.87499999998641L133.42333333333332,154.87499999998641L133.85666666666668,154.87499999998641L133.8711111111111,154.87499999998641L133.94333333333333,154.87499999998641L134.11666666666667,154.87499999998641L134.1311111111111,154.87499999998641L134.20333333333332,154.87499999998641L134.34777777777776,154.87499999998641L134.86777777777777,154.87499999998641L135.60444444444445,154.87499999998641L135.64777777777778,154.87499999998641L135.83555555555557,154.87499999998641L136.2111111111111,154.87499999998641L136.29777777777778,154.87499999998641L136.60111111111112,154.87499999998641L136.61555555555557,154.87499999998641L137.1211111111111,154.87499999998641L137.39555555555557,154.87499999999864L137.65555555555557,154.87499999999864L137.78555555555556,154.87499999999864L138.2188888888889,154.87499999999864L138.66666666666666,154.87499999999864L138.8111111111111,154.87499999999864L138.82555555555555,154.87499999999864L138.94111111111113,154.87499999999864L139.1577777777778,154.87499999999864L139.2588888888889,154.87499999999864L139.30222222222224,154.87499999999864L139.48999999999998,154.87499999999864L139.57666666666668,154.87499999999864L139.73555555555555,154.87499999999864L139.92333333333335,154.87499999999864L139.96666666666667,154.87499999999864L140.0533333333333,154.87499999999864L140.2988888888889,154.87499999999864L140.38555555555556,154.87499999999864L140.51555555555555,154.87499999999864L140.77555555555554,154.87499999999864L141.03555555555553,154.87499999999864L141.04999999999998,154.87499999999864L141.5988888888889,154.87499999999864L142.20555555555555,154.87499999999864L142.40777777777777,154.87499999999864L142.56666666666666,154.87499999999864L143.41888888888892,154.87499999999864L143.4477777777778,154.87499999999864L143.4911111111111,154.87499999999864L143.5922222222222,154.87499999999864L143.6788888888889,154.87499999999864L143.92444444444445,154.87499999999864L143.96777777777777,154.87499999999864L144.0688888888889,154.87499999999864L144.47333333333333,154.87499999999986L145.02222222222224,154.87499999999986L145.26777777777778,154.87499999999986L145.58555555555557,154.87499999999986L145.74444444444444,154.87499999999986L145.84555555555556,154.87499999999986L146.17777777777778,154.87499999999986L146.42333333333335,154.87499999999986L146.48111111111112,154.87499999999986L146.5677777777778,154.87499999999986L146.61111111111111,154.87499999999986L146.7122222222222,154.87499999999986L146.77,154.87499999999986L147.27555555555554,154.87499999999986L147.81,154.87499999999986L148.47444444444443,154.87499999999986L148.64777777777778,154.87499999999986L148.66222222222223,154.87499999999986L148.7488888888889,154.87499999999986L148.93666666666667,154.87499999999986L149.12444444444446,154.87499999999986L149.9477777777778,154.87499999999986L150.1211111111111,154.87499999999986L150.5688888888889,154.87499999999986L150.7422222222222,154.87499999999986L150.87222222222223,154.87499999999986L150.94444444444446,154.87499999999986L150.95888888888888,154.87499999999986L150.97333333333333,154.87499999999986L151.40666666666667,154.87499999999986L151.4211111111111,154.87499999999986L151.9411111111111,154.87499999999997L152.07111111111112,154.87499999999997L152.18666666666667,154.87499999999997L152.63444444444445,154.87499999999997L152.66333333333333,154.87499999999997L153.0822222222222,154.87499999999997L153.60222222222222,154.87499999999997L153.87666666666667,154.87499999999997L153.9633333333333,154.87499999999997L154.0066666666667,154.87499999999997L154.1222222222222,154.87499999999997L154.55555555555554,154.87499999999997L154.77222222222224,154.87499999999997L154.85888888888888,154.87499999999997L154.9888888888889,154.87499999999997L155.09,154.87499999999997L155.42222222222222,154.87499999999997L155.55222222222224,154.87499999999997L155.87,154.87499999999997L156.01444444444445,154.87499999999997L156.1011111111111,154.87499999999997L156.13,154.87499999999997L156.1588888888889,154.87499999999997L156.39000000000001,154.87499999999997L156.60666666666668,154.87499999999997L156.9677777777778,154.87499999999997L157.02555555555554,154.87499999999997L157.0688888888889,154.87499999999997L157.15555555555557,154.87499999999997L157.2711111111111,154.87499999999997L157.3288888888889,154.87499999999997L157.5022222222222,154.87499999999997L157.53111111111113,154.87499999999997L157.7188888888889,154.87499999999997L158.19555555555556,154.87499999999997L158.38333333333333,154.87499999999997L158.51333333333335,154.87499999999997L158.85999999999999,154.87499999999997L159.20666666666665,154.875L159.48111111111112,154.875L159.85666666666668,154.875L159.94333333333333,154.875L159.98666666666665,154.875L160.0011111111111,154.875L160.13111111111112,154.875L160.27555555555557,154.875L160.34777777777776,154.875L160.39111111111112,154.875L160.94,154.875L160.95444444444445,154.875L161.51777777777778,154.875L161.59,154.875L161.61888888888888,154.875L161.89333333333335,154.875L162.60111111111112,154.875L163.19333333333336,154.875L163.25111111111113,154.875L163.26555555555555,154.875L163.45333333333335,154.875L163.56888888888886,154.875L163.72777777777776,154.875L163.75666666666666,154.875L163.7711111111111,154.875L164.13222222222223,154.875L164.27666666666667,154.875L164.32,154.875L164.36333333333334,154.875L164.39222222222224,154.875L164.46444444444444,154.875L164.88333333333333,154.875L164.91222222222223,154.875L165.21555555555557,154.875L165.23,154.875L165.36,154.875L165.70666666666665,154.875L166.0388888888889,154.875L166.05333333333334,154.875L166.09666666666666,154.875L166.29888888888888,154.875L166.7177777777778,154.875L167.0211111111111,154.875L167.03555555555556,154.875L167.58444444444444,154.875L167.84444444444443,154.875L167.90222222222224,154.875L168.16222222222223,154.875L168.30666666666667,154.875L168.74,154.875L168.76888888888888,154.875L169.4911111111111,154.875L169.65,154.875L169.76555555555555,154.875L170.05444444444444,154.875L170.12666666666667,154.875L170.3722222222222,154.875L170.4588888888889,154.875L170.56,154.875L170.69,154.875L170.92111111111112,154.875L171.16666666666666,154.875L171.3111111111111,154.875L171.35444444444443,154.875L172.65444444444444,154.875L173.08777777777777,154.875L173.24666666666667,154.875L173.34777777777776,154.875L173.36222222222221,154.875L173.68,154.875L173.9977777777778,154.875L174.21444444444444,154.875L174.3011111111111,154.875L175.0377777777778,154.875L175.0811111111111,154.875L175.09555555555553,154.875L175.22555555555556,154.875L175.48555555555555,154.875L175.70222222222222,154.875L175.8322222222222,154.875L175.89,154.875L176.33777777777777,154.875L176.8722222222222,154.875L177.0311111111111,154.875L177.19,154.875L177.23333333333332,154.875L177.37777777777777,154.875L177.63777777777776,154.875L177.72444444444446,154.875L177.75333333333333,154.875L177.79666666666665,154.875L178.41777777777776,154.875L178.54777777777778,154.875L178.56222222222223,154.875L178.95222222222222,154.875L179.05333333333334,154.875L179.08222222222224,154.875L179.18333333333334,154.875L179.24111111111114,154.875L179.29888888888888,154.875L179.31333333333333,154.875L179.34222222222223,154.875L179.45777777777778,154.875L179.64555555555557,154.875L179.89111111111112,154.875L180.05,154.875L180.06444444444446,154.875L180.13666666666666,154.875L180.42555555555558,154.875L180.49777777777777,154.875L180.91666666666666,154.875L180.9311111111111,154.875L181.33555555555554,154.875L181.5088888888889,154.875L181.61,154.875L181.85555555555555,154.875L183.5022222222222,154.875L183.60333333333335,154.875L183.63222222222223,154.875L183.79111111111112,154.875L183.96444444444447,154.875L184.10888888888888,154.875L184.13777777777779,154.875L184.1811111111111,154.875L184.3111111111111,154.875L184.32555555555555,154.875L184.55666666666667,154.875L184.67222222222222,154.875L184.77333333333334,154.875L184.91777777777776,154.875L184.9466666666667,154.875L184.9611111111111,154.875L185.19222222222223,154.875L185.25,154.875L185.3077777777778,154.875L185.69777777777776,154.875L185.82777777777778,154.875L185.97222222222223,154.875L186.69444444444446,154.875L186.89666666666668,154.875L186.98333333333332,154.875L187.37333333333333,154.875L187.4311111111111,154.875L187.76333333333332,154.875L188.23999999999998,154.875L188.32666666666668,154.875L188.38444444444443,154.875L188.45666666666668,154.875L188.5288888888889,154.875L188.70222222222222,154.875L188.7888888888889,154.875L189.0488888888889,154.875L189.07777777777778,154.875L190.13222222222223,154.875L190.23333333333335,154.875L190.53666666666666,154.875L190.9988888888889,154.875L191.05666666666667,154.875L191.21555555555557,154.875L191.43222222222224,154.875L191.89444444444445,154.875L191.95222222222222,154.875L192.31333333333333,154.875L192.61666666666667,154.875L192.93444444444444,154.875L192.94888888888892,154.875L193.1222222222222,154.875L193.3388888888889,154.875L193.36777777777777,154.875L193.55555555555557,154.875L193.7288888888889,154.875L193.9022222222222,154.875L194.00333333333333,154.875L194.04666666666665,154.875L194.10444444444443,154.875L194.3788888888889,154.875L194.5811111111111,154.875L194.61,154.875L194.71111111111114,154.875L195.10111111111112,154.875L195.11555555555557,154.875L195.26,154.875L195.28888888888886,154.875L196.25666666666666,154.875L196.34333333333333,154.875L196.57444444444445,154.875L196.95,154.875L197.29666666666668,154.875L197.35444444444445,154.875L197.58555555555554,154.875L197.81666666666666,154.875L197.84555555555556,154.875L197.86,154.875L198.8711111111111,154.875L198.9,154.875L199.07333333333335,154.875L199.29,154.875L199.36222222222221,154.875L199.73777777777778,154.875L199.9111111111111,154.875L199.92555555555555,154.875L200.11333333333334,154.875L200.12777777777777,154.875L200.3011111111111,154.875L200.35888888888888,154.875L200.6188888888889,154.875L200.79222222222222,154.875L200.90777777777777,154.875L201.18222222222224,154.875L201.42777777777778,154.875L202.20777777777778,154.875L202.49666666666667,154.875L202.54000000000002,154.875L202.74222222222224,154.875L202.8,154.875L203.06,154.875L203.16111111111113,154.875L203.43555555555557,154.875L203.60888888888888,154.875L203.66666666666666,154.875L203.92666666666668,154.875L204.04222222222222,154.875L204.20111111111112,154.875L204.5188888888889,154.875L204.70666666666668,154.875L204.79333333333332,154.875L204.8511111111111,154.875L205.2988888888889,154.875L205.79,154.875L205.9488888888889,154.875L205.9922222222222,154.875L206.00666666666666,154.875L206.09333333333333,154.875L206.4111111111111,154.875L206.61333333333332,154.875L207.00333333333333,154.875L207.23444444444442,154.875L207.33555555555554,154.875L207.65333333333334,154.875L207.68222222222224,154.875L208.05777777777777,154.875L208.20222222222222,154.875L208.31777777777776,154.875L208.3322222222222,154.875L208.37555555555554,154.875L208.57777777777775,154.875L209.15555555555554,154.875L209.17,154.875L209.2277777777778,154.875L209.48777777777778,154.875L210.06555555555556,154.875L210.18111111111114,154.875L210.48444444444445,154.875L210.65777777777777,154.875L210.8311111111111,154.875L211.00444444444446,154.875L211.72666666666666,154.875L211.82777777777778,154.875L211.94333333333336,154.875L212.17444444444445,154.875L212.21777777777777,154.875L212.31888888888886,154.875L212.57888888888888,154.875L212.6511111111111,154.875L212.75222222222223,154.875L212.9111111111111,154.875L213.02666666666667,154.875L213.1277777777778,154.875L213.33,154.875L213.80666666666667,154.875L214.09555555555556,154.875L214.18222222222224,154.875L214.64444444444445,154.875L214.90444444444447,154.875L215.00555555555556,154.875L215.17888888888888,154.875L215.3088888888889,154.875L215.51111111111112,154.875L215.5688888888889,154.875L215.79999999999998,154.875L215.88666666666668,154.875L216.2477777777778,154.875L216.29111111111112,154.875L216.30555555555557,154.875L216.49333333333334,154.875L217.2588888888889,154.875L217.49,154.875L217.5911111111111,154.875L217.92333333333332,154.875L218.02444444444447,154.875L218.0677777777778,154.875L218.0822222222222,154.875L218.15444444444444,154.875L218.2411111111111,154.875L218.29888888888888,154.875L218.35666666666665,154.875L218.77555555555554,154.875L219.16555555555556,154.875L219.29555555555555,154.875L219.49777777777777,154.875L219.5988888888889,154.875L219.81555555555556,154.875L220.01777777777778,154.875L220.07555555555555,154.875L220.4077777777778,154.875L221.20222222222222,154.875L221.53444444444446,154.875L221.60666666666668,154.875L222.60333333333332,154.875L222.61777777777777,154.875L223.13777777777779,154.875L223.1811111111111,154.875L223.32555555555555,154.875L223.39777777777778,154.875L223.57111111111112,154.875L223.65777777777777,154.875L223.9611111111111,154.875L224.56777777777776,154.875L224.68333333333334,154.875L224.9288888888889,154.875L224.98666666666665,154.875L225.07333333333335,154.875L225.11666666666667,154.875L225.44888888888892,154.875L225.63666666666666,154.875L225.99777777777777,154.875L226.35888888888888,154.875L226.83555555555557,154.875L227.05222222222224,154.875L227.63,154.875L227.6588888888889,154.875L227.74555555555554,154.875L227.80333333333334,154.875L228.00555555555556,154.875L228.35222222222222,154.875L229.01666666666668,154.875L229.13222222222223,154.875L229.20444444444445,154.875L229.24777777777777,154.875L229.26222222222222,154.875L229.49333333333334,154.875L229.5222222222222,154.875L229.53666666666666,154.875L229.65222222222224,154.875L229.76777777777778,154.875L229.78222222222223,154.875L229.8111111111111,154.875L230.21555555555557,154.875L230.24444444444444,154.875L230.33111111111108,154.875L230.38888888888889,154.875L230.67777777777778,154.875L230.75,154.875L230.7788888888889,154.875L231.05333333333334,154.875L231.1688888888889,154.875L231.5588888888889,154.875L231.60222222222222,154.875L231.61666666666667,154.875L231.80444444444444,154.875L231.8911111111111,154.875L231.9777777777778,154.875L232.10777777777778,154.875" style="fill: none;" fill="none"></path></g></g></g></g></g></g><g transform="translate(70, 177)" clip-path="url(#clip_1)"><clipPath id="clip_1"><rect width="260" height="23"></rect></clipPath><g><g><line x1="0" y1="0" x2="0" y2="5" style="visibility: inherit;" fill="rgb(0, 0, 0)" stroke="rgb(204, 204, 204)" stroke-width="1px"></line><line x1="28.888888888888886" y1="0" x2="28.888888888888886" y2="5" style="visibility: inherit;" fill="rgb(0, 0, 0)" stroke="rgb(204, 204, 204)" stroke-width="1px"></line><line x1="57.77777777777777" y1="0" x2="57.77777777777777" y2="5" style="visibility: inherit;" fill="rgb(0, 0, 0)" stroke="rgb(204, 204, 204)" stroke-width="1px"></line><line x1="86.66666666666666" y1="0" x2="86.66666666666666" y2="5" style="visibility: inherit;" fill="rgb(0, 0, 0)" stroke="rgb(204, 204, 204)" stroke-width="1px"></line><line x1="115.55555555555554" y1="0" x2="115.55555555555554" y2="5" style="visibility: inherit;" fill="rgb(0, 0, 0)" stroke="rgb(204, 204, 204)" stroke-width="1px"></line><line x1="144.44444444444446" y1="0" x2="144.44444444444446" y2="5" style="visibility: inherit;" fill="rgb(0, 0, 0)" stroke="rgb(204, 204, 204)" stroke-width="1px"></line><line x1="173.33333333333331" y1="0" x2="173.33333333333331" y2="5" style="visibility: inherit;" fill="rgb(0, 0, 0)" stroke="rgb(204, 204, 204)" stroke-width="1px"></line><line x1="202.22222222222223" y1="0" x2="202.22222222222223" y2="5" style="visibility: inherit;" fill="rgb(0, 0, 0)" stroke="rgb(204, 204, 204)" stroke-width="1px"></line><line x1="231.1111111111111" y1="0" x2="231.1111111111111" y2="5" style="visibility: inherit;" fill="rgb(0, 0, 0)" stroke="rgb(204, 204, 204)" stroke-width="1px"></line><line x1="260" y1="0" x2="260" y2="5" style="visibility: inherit;" fill="rgb(0, 0, 0)" stroke="rgb(204, 204, 204)" stroke-width="1px"></line></g><g transform="translate(0, 8)"><text x="0" y="0" dx="0em" dy="0.95em" style="text-anchor: middle; visibility: hidden; font-family: Roboto, sans-serif; font-size: 12px; font-weight: 200;" fill="rgb(33, 33, 33)" stroke="none" stroke-width="1px">-2k</text><text x="28.888888888888886" y="0" dx="0em" dy="0.95em" style="text-anchor: middle; visibility: inherit; font-family: Roboto, sans-serif; font-size: 12px; font-weight: 200;" fill="rgb(33, 33, 33)" stroke="none" stroke-width="1px">0</text><text x="57.77777777777777" y="0" dx="0em" dy="0.95em" style="text-anchor: middle; visibility: inherit; font-family: Roboto, sans-serif; font-size: 12px; font-weight: 200;" fill="rgb(33, 33, 33)" stroke="none" stroke-width="1px">2k</text><text x="86.66666666666666" y="0" dx="0em" dy="0.95em" style="text-anchor: middle; visibility: inherit; font-family: Roboto, sans-serif; font-size: 12px; font-weight: 200;" fill="rgb(33, 33, 33)" stroke="none" stroke-width="1px">4k</text><text x="115.55555555555554" y="0" dx="0em" dy="0.95em" style="text-anchor: middle; visibility: inherit; font-family: Roboto, sans-serif; font-size: 12px; font-weight: 200;" fill="rgb(33, 33, 33)" stroke="none" stroke-width="1px">6k</text><text x="144.44444444444446" y="0" dx="0em" dy="0.95em" style="text-anchor: middle; visibility: inherit; font-family: Roboto, sans-serif; font-size: 12px; font-weight: 200;" fill="rgb(33, 33, 33)" stroke="none" stroke-width="1px">8k</text><text x="173.33333333333331" y="0" dx="0em" dy="0.95em" style="text-anchor: middle; visibility: inherit; font-family: Roboto, sans-serif; font-size: 12px; font-weight: 200;" fill="rgb(33, 33, 33)" stroke="none" stroke-width="1px">10k</text><text x="202.22222222222223" y="0" dx="0em" dy="0.95em" style="text-anchor: middle; visibility: inherit; font-family: Roboto, sans-serif; font-size: 12px; font-weight: 200;" fill="rgb(33, 33, 33)" stroke="none" stroke-width="1px">12k</text><text x="231.1111111111111" y="0" dx="0em" dy="0.95em" style="text-anchor: middle; visibility: inherit; font-family: Roboto, sans-serif; font-size: 12px; font-weight: 200;" fill="rgb(33, 33, 33)" stroke="none" stroke-width="1px">14k</text><text x="260" y="0" dx="0em" dy="0.95em" style="text-anchor: middle; visibility: hidden; font-family: Roboto, sans-serif; font-size: 12px; font-weight: 200;" fill="rgb(33, 33, 33)" stroke="none" stroke-width="1px">16k</text></g><line x1="0" y1="0" x2="260" y2="0" fill="rgb(0, 0, 0)" stroke="rgb(204, 204, 204)" stroke-width="1px"></line></g></g></g></g></svg>